<?xml version="1.0" encoding="UTF-8"?>
<svg id="Layer_1" xmlns="http://www.w3.org/2000/svg" version="1.1" xmlns:xlink="http://www.w3.org/1999/xlink" viewBox="0 0 270 112">
  <!-- Generator: Adobe Illustrator 30.0.0, SVG Export Plug-In . SVG Version: 2.1.1 Build 123)  -->
  <defs>
    <style>
      .st0 {
        fill: url(#linear-gradient2);
      }

      .st1 {
        fill: #0c6a36;
      }

      .st2 {
        fill: #fff;
      }

      .st3 {
        fill: url(#linear-gradient1);
      }

      .st4 {
        fill: #243d8d;
      }

      .st5 {
        fill: url(#linear-gradient3);
      }

      .st6 {
        fill: url(#linear-gradient);
      }
    </style>
    <linearGradient id="linear-gradient" x1="31.29" y1="47.91" x2="71.4" y2="88.48" gradientTransform="translate(0 114) scale(1 -1)" gradientUnits="userSpaceOnUse">
      <stop offset="0" stop-color="#356442"/>
      <stop offset=".15" stop-color="#2f5751"/>
      <stop offset=".5" stop-color="#233c75"/>
    </linearGradient>
    <linearGradient id="linear-gradient1" x1="52.62" y1="27.24" x2="92.03" y2="68.4" gradientTransform="translate(0 114) scale(1 -1)" gradientUnits="userSpaceOnUse">
      <stop offset="0" stop-color="#233c75"/>
      <stop offset=".26" stop-color="#25406f"/>
      <stop offset=".6" stop-color="#2b4d5e"/>
      <stop offset=".99" stop-color="#346342"/>
      <stop offset="1" stop-color="#356442"/>
    </linearGradient>
    <linearGradient id="linear-gradient2" x1="57.27" y1="39.09" x2="80.75" y2="65.15" gradientTransform="translate(0 114) scale(1 -1)" gradientUnits="userSpaceOnUse">
      <stop offset="0" stop-color="#233c75"/>
      <stop offset=".26" stop-color="#25416e"/>
      <stop offset=".64" stop-color="#2c505a"/>
      <stop offset="1" stop-color="#356442"/>
    </linearGradient>
    <linearGradient id="linear-gradient3" x1="43.49" y1="51.69" x2="66.91" y2="76.87" gradientTransform="translate(0 114) scale(1 -1)" gradientUnits="userSpaceOnUse">
      <stop offset="0" stop-color="#356442"/>
      <stop offset=".15" stop-color="#2f5751"/>
      <stop offset=".5" stop-color="#233c75"/>
    </linearGradient>
  </defs>
  <rect class="st2" width="270" height="112" rx="29" ry="29"/>
  <g>
    <path class="st1" d="M103.48,66.86c-.47.18-1.4.44-2.49.44-1.22,0-2.23-.31-3.02-1.07-.69-.67-1.12-1.75-1.12-3,0-2.41,1.66-4.16,4.37-4.16.93,0,1.68.2,2.02.37l-.26.85c-.43-.2-.97-.35-1.78-.35-1.96,0-3.24,1.22-3.24,3.24s1.22,3.25,3.11,3.25c.68,0,1.15-.1,1.39-.22v-2.41h-1.63v-.84h2.66v3.9Z"/>
    <path class="st1" d="M105.1,58.72h1.05v8.5h-1.05v-8.5Z"/>
    <path class="st1" d="M113.25,64.27c0,2.14-1.5,3.08-2.88,3.08-1.56,0-2.78-1.15-2.78-2.98,0-1.93,1.28-3.06,2.87-3.06s2.79,1.21,2.79,2.97h0ZM108.67,64.33c0,1.27.72,2.23,1.75,2.23s1.76-.95,1.76-2.25c0-.98-.49-2.21-1.74-2.21s-1.77,1.15-1.77,2.24h0Z"/>
    <path class="st1" d="M114.67,58.72h1.04v3.64h.02c.37-.65,1.04-1.05,1.97-1.05,1.45,0,2.45,1.2,2.45,2.94,0,2.07-1.32,3.1-2.61,3.1-.84,0-1.51-.32-1.95-1.08h-.02l-.06.95h-.9c.02-.4.05-.98.05-1.5v-7h0ZM115.71,64.89c0,.13.01.26.05.38.19.73.81,1.23,1.58,1.23,1.11,0,1.76-.9,1.76-2.23,0-1.16-.6-2.15-1.74-2.15-.71,0-1.38.5-1.59,1.29-.04.13-.06.28-.06.44v1.03h0Z"/>
    <path class="st1" d="M125.63,65.83c0,.5.02.99.08,1.39h-.95l-.08-.73h-.04c-.32.45-.95.86-1.77.86-1.17,0-1.77-.83-1.77-1.66,0-1.4,1.24-2.17,3.48-2.15v-.12c0-.47-.13-1.34-1.32-1.33-.55,0-1.11.16-1.52.43l-.24-.71c.48-.3,1.18-.5,1.91-.5,1.77,0,2.2,1.21,2.2,2.36v2.17h.02ZM124.61,64.26c-1.15-.02-2.45.18-2.45,1.3,0,.69.45,1,.98,1,.77,0,1.26-.48,1.42-.97.04-.12.05-.24.05-.34v-1.01.02Z"/>
    <path class="st1" d="M127.41,58.72h1.05v8.5h-1.05v-8.5Z"/>
    <path class="st1" d="M138.6,66.96c-.37.19-1.15.38-2.13.38-2.27,0-3.97-1.44-3.97-4.09s1.71-4.24,4.21-4.24c.99,0,1.64.22,1.91.36l-.26.85c-.38-.19-.95-.34-1.62-.34-1.89,0-3.15,1.21-3.15,3.33,0,1.99,1.14,3.24,3.09,3.24.65,0,1.29-.13,1.71-.34l.2.84h0Z"/>
    <path class="st1" d="M145.08,64.27c0,2.14-1.5,3.08-2.88,3.08-1.56,0-2.78-1.15-2.78-2.98,0-1.93,1.28-3.06,2.87-3.06s2.79,1.21,2.79,2.97h0ZM140.49,64.33c0,1.27.72,2.23,1.75,2.23s1.76-.95,1.76-2.25c0-.98-.49-2.21-1.74-2.21s-1.77,1.15-1.77,2.24h0Z"/>
    <path class="st1" d="M146.49,62.99c0-.61-.02-1.09-.05-1.57h.92l.05.95h.04c.32-.55.86-1.06,1.83-1.06.78,0,1.38.48,1.63,1.16h.02c.18-.34.42-.57.66-.75.35-.26.72-.41,1.27-.41.78,0,1.91.5,1.91,2.51v3.4h-1.03v-3.27c0-1.13-.42-1.78-1.26-1.78-.61,0-1.07.44-1.26.95-.05.16-.08.34-.08.53v3.58h-1.03v-3.47c0-.92-.41-1.58-1.21-1.58-.65,0-1.14.53-1.3,1.05-.06.14-.08.34-.08.51v3.48h-1.03v-4.22h0Z"/>
    <path class="st1" d="M156.55,62.99c0-.61-.02-1.09-.05-1.57h.92l.05.95h.04c.32-.55.86-1.06,1.83-1.06.78,0,1.38.48,1.63,1.16h.02c.18-.34.42-.57.66-.75.35-.26.72-.41,1.27-.41.78,0,1.91.5,1.91,2.51v3.4h-1.03v-3.27c0-1.13-.42-1.78-1.26-1.78-.61,0-1.07.44-1.26.95-.05.16-.08.34-.08.53v3.58h-1.03v-3.47c0-.92-.41-1.58-1.21-1.58-.65,0-1.14.53-1.3,1.05-.06.14-.08.34-.08.51v3.48h-1.03v-4.22h0Z"/>
    <path class="st1" d="M167.2,64.51c.02,1.42.92,2.01,1.99,2.01.75,0,1.22-.13,1.6-.3l.19.75c-.37.17-1.02.37-1.94.37-1.78,0-2.85-1.18-2.85-2.93s1.03-3.11,2.72-3.11c1.9,0,2.39,1.65,2.39,2.72,0,.22,0,.37-.04.49h-4.07,0ZM170.29,63.76c0-.66-.28-1.7-1.46-1.7-1.08,0-1.53.97-1.62,1.7h3.08Z"/>
    <path class="st1" d="M172.7,63.23c0-.68,0-1.27-.05-1.81h.92l.05,1.15h.04c.26-.78.91-1.27,1.62-1.27.11,0,.19,0,.29.02v.99c-.11-.02-.22-.02-.36-.02-.74,0-1.27.55-1.41,1.34-.02.14-.04.32-.04.49v3.09h-1.05v-3.98h0Z"/>
    <path class="st1" d="M180.7,67.01c-.28.13-.89.34-1.66.34-1.75,0-2.88-1.18-2.88-2.96s1.22-3.09,3.11-3.09c.62,0,1.17.16,1.46.31l-.24.8c-.25-.13-.65-.28-1.22-.28-1.33,0-2.05.99-2.05,2.19,0,1.34.86,2.17,2.01,2.17.6,0,.99-.14,1.29-.28l.18.79h0Z"/>
    <path class="st1" d="M182.54,64.51c.02,1.42.92,2.01,1.99,2.01.75,0,1.22-.13,1.6-.3l.19.75c-.37.17-1.02.37-1.94.37-1.78,0-2.85-1.18-2.85-2.93s1.03-3.11,2.72-3.11c1.9,0,2.39,1.65,2.39,2.72,0,.22,0,.37-.04.49h-4.07,0ZM185.62,63.76c0-.66-.28-1.7-1.46-1.7-1.08,0-1.53.97-1.62,1.7h3.08Z"/>
    <path class="st1" d="M190.55,65.95c.47.3,1.14.53,1.85.53,1.06,0,1.69-.56,1.69-1.38,0-.74-.43-1.18-1.52-1.59-1.32-.48-2.13-1.17-2.13-2.3,0-1.26,1.04-2.19,2.61-2.19.81,0,1.42.19,1.77.39l-.29.85c-.25-.16-.79-.38-1.52-.38-1.1,0-1.52.66-1.52,1.21,0,.75.49,1.12,1.6,1.56,1.36.53,2.05,1.18,2.05,2.37s-.91,2.33-2.81,2.33c-.78,0-1.63-.24-2.06-.53l.28-.87h0Z"/>
    <path class="st1" d="M201.95,64.27c0,2.14-1.5,3.08-2.88,3.08-1.56,0-2.78-1.15-2.78-2.98,0-1.93,1.28-3.06,2.87-3.06s2.79,1.21,2.79,2.97h0ZM197.36,64.33c0,1.27.72,2.23,1.75,2.23s1.76-.95,1.76-2.25c0-.98-.49-2.21-1.74-2.21s-1.77,1.15-1.77,2.24h0Z"/>
    <path class="st1" d="M203.36,58.72h1.05v8.5h-1.05v-8.5Z"/>
    <path class="st1" d="M211.11,65.62c0,.61,0,1.14.05,1.59h-.93l-.06-.95h-.02c-.26.47-.89,1.08-1.91,1.08-.91,0-2-.51-2-2.54v-3.39h1.05v3.19c0,1.1.35,1.85,1.29,1.85.71,0,1.2-.49,1.39-.97.06-.14.1-.34.1-.54v-3.54h1.05v4.22Z"/>
    <path class="st1" d="M214.21,60.03v1.39h1.51v.8h-1.51v3.12c0,.72.2,1.12.79,1.12.29,0,.45-.02.61-.07l.05.8c-.2.07-.53.14-.93.14-.49,0-.89-.17-1.14-.44-.29-.32-.41-.84-.41-1.52v-3.16h-.9v-.8h.9v-1.08l1.03-.31h0Z"/>
    <path class="st1" d="M218.16,59.8c0,.36-.25.65-.67.65-.38,0-.63-.29-.63-.65s.26-.66.66-.66.65.29.65.66h0ZM216.99,67.21v-5.79h1.05v5.79h-1.05Z"/>
    <path class="st1" d="M225.12,64.27c0,2.14-1.5,3.08-2.88,3.08-1.56,0-2.78-1.15-2.78-2.98,0-1.93,1.28-3.06,2.87-3.06s2.79,1.21,2.79,2.97h0ZM220.53,64.33c0,1.27.72,2.23,1.75,2.23s1.76-.95,1.76-2.25c0-.98-.49-2.21-1.74-2.21s-1.77,1.15-1.77,2.24h0Z"/>
    <path class="st1" d="M226.53,62.99c0-.61,0-1.09-.05-1.57h.93l.06.96h.02c.29-.54.96-1.08,1.91-1.08.8,0,2.05.48,2.05,2.47v3.45h-1.05v-3.34c0-.93-.35-1.71-1.34-1.71-.68,0-1.22.49-1.41,1.08-.05.13-.07.31-.07.49v3.48h-1.05v-4.22h0Z"/>
    <path class="st1" d="M233.11,66.15c.32.19.87.41,1.4.41.75,0,1.11-.37,1.11-.86s-.3-.77-1.06-1.05c-1.05-.38-1.54-.95-1.54-1.64,0-.93.77-1.7,2-1.7.59,0,1.1.16,1.41.36l-.25.77c-.23-.14-.65-.35-1.18-.35-.62,0-.96.36-.96.79,0,.48.34.69,1.09.99.99.37,1.52.87,1.52,1.74,0,1.03-.8,1.75-2.15,1.75-.63,0-1.22-.17-1.63-.41l.25-.79h-.01Z"/>
  </g>
  <g>
    <path class="st4" d="M100.51,51.31l-1.56,4.74h-2.01l5.14-15.06h2.32l5.14,15.06h-2.08l-1.61-4.74s-5.34,0-5.34,0ZM105.47,49.79l-1.5-4.33c-.34-.98-.56-1.88-.78-2.75h-.04c-.22.87-.45,1.81-.76,2.73l-1.47,4.36h4.56,0Z"/>
    <path class="st4" d="M111.05,56.04v-1.21l1.54-1.5c3.71-3.53,5.41-5.41,5.41-7.59,0-1.47-.69-2.84-2.86-2.84-1.32,0-2.41.67-3.08,1.23l-.63-1.38c.98-.83,2.43-1.47,4.09-1.47,3.13,0,4.45,2.14,4.45,4.22,0,2.68-1.94,4.85-5,7.8l-1.14,1.07v.04h6.5v1.63h-9.28Z"/>
    <path class="st4" d="M132.18,48.63c0,4.94-1.85,7.66-5.05,7.66-2.84,0-4.78-2.66-4.83-7.46,0-4.89,2.12-7.55,5.07-7.55s4.8,2.73,4.8,7.35h.01ZM124.3,48.85c0,3.78,1.16,5.92,2.95,5.92,1.99,0,2.95-2.35,2.95-6.05s-.89-5.92-2.95-5.92c-1.7,0-2.95,2.1-2.95,6.05Z"/>
    <path class="st4" d="M143.64,48.63c0,4.94-1.85,7.66-5.05,7.66-2.84,0-4.78-2.66-4.82-7.46,0-4.89,2.12-7.55,5.07-7.55s4.8,2.73,4.8,7.35ZM135.76,48.85c0,3.78,1.16,5.92,2.95,5.92,1.99,0,2.95-2.35,2.95-6.05s-.89-5.92-2.95-5.92c-1.7,0-2.95,2.1-2.95,6.05Z"/>
    <path class="st4" d="M155.1,48.63c0,4.94-1.85,7.66-5.05,7.66-2.84,0-4.78-2.66-4.82-7.46,0-4.89,2.12-7.55,5.07-7.55s4.8,2.73,4.8,7.35ZM147.22,48.85c0,3.78,1.16,5.92,2.95,5.92,1.99,0,2.95-2.35,2.95-6.05s-.89-5.92-2.95-5.92c-1.7,0-2.95,2.1-2.95,6.05Z"/>
    <path class="st4" d="M173.8,55.37c-.87.33-2.61.83-4.65.83-2.28,0-4.15-.58-5.63-1.99-1.3-1.25-2.1-3.26-2.1-5.61,0-4.49,3.1-7.77,8.15-7.77,1.74,0,3.13.38,3.77.69l-.49,1.59c-.8-.38-1.81-.65-3.33-.65-3.66,0-6.05,2.28-6.05,6.05s2.28,6.08,5.81,6.08c1.27,0,2.14-.18,2.59-.4v-4.49h-3.04v-1.56h4.96v7.24h.01Z"/>
    <path class="st4" d="M176.73,40.99h1.97v13.43h6.43v1.63h-8.4v-15.06Z"/>
    <path class="st4" d="M200.18,48.36c0,5.16-3.15,7.93-6.99,7.93s-6.77-3.1-6.77-7.66,2.95-7.91,6.97-7.91,6.79,3.15,6.79,7.64h0ZM188.48,48.58c0,3.24,1.74,6.12,4.82,6.12s4.82-2.84,4.82-6.25c0-3.02-1.56-6.14-4.8-6.14s-4.85,2.99-4.85,6.28h0Z"/>
    <path class="st4" d="M202.71,41.21c.85-.2,2.21-.34,3.55-.34,1.94,0,3.19.34,4.11,1.09.78.58,1.27,1.47,1.27,2.66,0,1.47-.98,2.75-2.55,3.31v.07c1.43.34,3.11,1.52,3.11,3.75,0,1.3-.51,2.3-1.3,3.02-1.03.96-2.73,1.41-5.18,1.41-1.34,0-2.37-.09-3.02-.18v-14.79h0ZM204.65,47.38h1.76c2.03,0,3.24-1.09,3.24-2.55,0-1.74-1.32-2.46-3.28-2.46-.89,0-1.41.07-1.72.13v4.87h0ZM204.65,54.57c.4.07.94.09,1.63.09,2.01,0,3.86-.74,3.86-2.93,0-2.03-1.76-2.9-3.89-2.9h-1.61v5.74h0Z"/>
    <path class="st4" d="M217.25,51.31l-1.56,4.74h-2.01l5.14-15.06h2.32l5.14,15.06h-2.08l-1.61-4.74h-5.34ZM222.21,49.79l-1.5-4.33c-.34-.98-.56-1.88-.78-2.75h-.04c-.22.87-.45,1.81-.76,2.73l-1.47,4.36h4.56-.01Z"/>
    <path class="st4" d="M228.46,40.99h1.97v13.43h6.43v1.63h-8.4v-15.06Z"/>
  </g>
  <path class="st6" d="M65,29.44c6.06,0,11.61,2.07,15.93,5.51-5.08-4.65-11.84-7.48-19.26-7.48-15.76,0-28.54,12.78-28.54,28.54,0,4.08.86,7.96,2.4,11.47,1.36,3.09,3.24,5.88,5.54,8.28l5.99-5.68c-4.35-4.31-7.04-10.19-7.04-16.67,0-5.05,1.63-9.74,4.42-13.6,4.51-6.26,12.03-10.36,20.56-10.36h0Z"/>
  <path class="st3" d="M89.93,52.02c-.84-6.04-3.57-11.48-7.58-15.69l-6.28,6c4.52,4.29,7.32,10.25,7.32,16.83,0,5.53-1.98,10.62-5.3,14.65-4.52,5.51-11.54,9.15-19.41,9.04-7.26-.1-15.34-4.98-15.34-4.98,4.96,4.16,11.35,6.66,18.33,6.66,15.76,0,28.54-12.78,28.54-28.54,0-1.35-.1-2.68-.28-3.98h0Z"/>
  <path class="st0" d="M79.59,54.19c-.34-4.12-2.09-7.84-4.75-10.67l-3.81,3.64c2.77,2.66,4.49,6.32,4.49,10.37,0,3.24-1.1,6.23-2.96,8.66-2.81,3.67-7.35,6.05-12.48,6.05-3.1,0-5.97-.87-8.39-2.36,2.92,2.2,6.54,3.5,10.46,3.5,9.67,0,17.51-7.92,17.51-17.69,0-.51-.03-1.01-.07-1.5Z"/>
  <path class="st5" d="M64.13,39.13c3.21,0,6.19.93,8.66,2.52-2.95-2.29-6.64-3.65-10.64-3.65-9.67,0-17.51,7.92-17.51,17.69,0,.33,0,.66.03.98.23,4.32,2,8.22,4.76,11.17l3.77-3.58c-2.8-2.66-4.54-6.35-4.54-10.41,0-3.21,1.09-6.19,2.92-8.61,2.81-3.7,7.38-6.11,12.55-6.11Z"/>
  <g>
    <path class="st4" d="M54.55,57.51l.27-1.48h3.4l-.55,3.04c-.73.44-1.36.75-1.89.91s-1.14.24-1.82.24c-.85,0-1.51-.14-1.99-.43-.48-.29-.82-.72-1-1.29-.19-.57-.22-1.22-.08-1.96.14-.78.42-1.45.85-2.03.43-.57.97-1.01,1.65-1.31.52-.23,1.19-.34,2.01-.34s1.36.07,1.73.21c.36.14.65.36.85.66s.33.68.37,1.14l-2.19.38c-.04-.27-.15-.47-.33-.62-.18-.14-.44-.21-.76-.21-.48,0-.9.17-1.25.5-.35.34-.59.87-.72,1.59-.14.77-.1,1.32.13,1.65s.6.5,1.12.5c.25,0,.49-.04.72-.11.24-.07.51-.19.83-.36l.12-.67h-1.47,0Z"/>
    <path class="st4" d="M64.06,57.17l1.82.58c-.23.54-.51.99-.86,1.36-.34.36-.74.64-1.19.82s-.99.28-1.63.28c-.77,0-1.39-.11-1.84-.34s-.8-.62-1.05-1.19-.3-1.29-.14-2.17c.21-1.18.69-2.08,1.43-2.72.74-.63,1.69-.95,2.83-.95.9,0,1.57.18,2.02.54s.73.92.84,1.67l-2.02.43c-.03-.22-.07-.38-.13-.48-.09-.17-.22-.3-.38-.39s-.35-.14-.57-.14c-.5,0-.92.2-1.26.6-.26.3-.44.76-.56,1.4-.14.79-.12,1.33.06,1.62.19.29.5.44.93.44s.76-.12,1.02-.35c.26-.24.48-.58.66-1.03l.02.02Z"/>
    <path class="st4" d="M66.57,57.73l2.12-.13c-.02.34.03.6.14.78.17.29.47.43.89.43.31,0,.57-.07.77-.22s.31-.32.35-.51c.03-.18-.02-.35-.15-.5s-.49-.28-1.05-.41c-.93-.22-1.56-.51-1.91-.86-.35-.36-.47-.82-.37-1.37.07-.37.24-.71.51-1.04.27-.33.64-.58,1.1-.77s1.06-.28,1.8-.28c.91,0,1.57.17,1.99.51s.6.88.56,1.62l-2.1.12c0-.32-.07-.55-.22-.7s-.38-.22-.69-.22c-.26,0-.46.05-.61.16s-.24.24-.27.4c-.02.11.01.22.1.31s.32.18.69.26c.92.21,1.58.42,1.95.63.38.21.63.48.76.79s.16.67.09,1.05c-.08.46-.29.88-.61,1.26-.32.39-.73.68-1.22.88s-1.08.3-1.77.3c-1.21,0-2.01-.23-2.39-.7s-.54-1.06-.47-1.78h.01Z"/>
  </g>
</svg>