<?xml version="1.0" encoding="UTF-8"?>
<svg id="Layer_1" xmlns="http://www.w3.org/2000/svg" version="1.1" viewBox="0 0 270 112">
  <!-- Generator: Adobe Illustrator 30.0.0, SVG Export Plug-In . SVG Version: 2.1.1 Build 123)  -->
  <defs>
    <style>
      .st0 {
        fill: #fff;
      }

      .st1 {
        fill: #a0a1a2;
      }

      .st2 {
        fill: #0072c6;
      }

      .st3 {
        fill: #888;
      }

      .st4 {
        fill: #aaabac;
      }

      .st5 {
        fill: #7a7a7a;
      }

      .st6 {
        fill: #1a80cc;
      }
    </style>
  </defs>
  <rect class="st0" width="270" height="112" rx="29" ry="29"/>
  <path class="st2" d="M97.26,97.93v-13.98h39.13v-13.98h39.13v27.95h-78.27,0Z"/>
  <path class="st6" d="M97.26,97.93v-13.98h19.57l-13.98,13.98s-5.59,0-5.59,0ZM91.67,75.57v-11.18h16.77v11.18h-16.77ZM102.85,58.8v-13.98h22.36v13.98h-22.36ZM125.22,44.82v-13.98h22.36v13.98h-22.36ZM94.47,30.84V11.28h30.75v19.57h-30.75Z"/>
  <path class="st0" d="M116.83,83.95v-13.98h19.57v13.98s-19.57,0-19.57,0ZM136.4,69.98v-13.98h19.57v-13.98h19.57v27.95h-39.14Z"/>
  <path class="st5" d="M172.74,28.05h2.8c1.54,0,2.8,1.25,2.8,2.8v8.56l-2.8,2.8-13.98-.17-2.8-2.8,8.39-8.39s5.59-2.8,5.59-2.8Z"/>
  <path class="st3" d="M153.17,28.05h19.57l-13.98,13.98h-2.8l-2.8-2.62v-11.36h.01Z"/>
  <path class="st1" d="M175.53,100.72h-75.47v-2.8l5.59-2.8h8.39v-11.18l2.8-2.8h16.77v-8.39h-5.59v-2.8l5.59-2.8,2.8-5.59h2.8v5.59h13.98v-8.39h-11.18v-2.8l5.59-2.8h5.59v-5.59l2.8-5.59,5.59-2.8h16.77v58.7c0,1.54-1.25,2.8-2.8,2.8l-.02.04ZM158.76,95.13h13.98v-8.39h-13.98v8.39ZM139.19,95.13h13.98v-8.39h-13.98v8.39ZM119.63,95.13h13.98v-8.39h-13.98s0,8.39,0,8.39ZM158.76,81.16h13.98v-8.39h-13.98v8.39ZM139.19,81.16h13.98v-8.39h-13.98v8.39ZM158.76,67.18h13.98v-8.39h-13.98v8.39ZM158.76,53.2h13.98v-8.39h-13.98v8.39Z"/>
  <path class="st4" d="M94.47,97.93v-16.77h19.57v-13.98h19.57l-5.59,5.59h-8.39v8.39l-5.59,5.59h-13.98v8.39h5.59l-5.59,5.59h-2.8c-1.54,0-2.8-1.25-2.8-2.8h0ZM133.6,53.2h13.98l-5.59,5.59h-2.8v2.8l-5.59,5.59v-13.98ZM153.17,39.23h8.39l-8.39,8.39v-8.39Z"/>
</svg>