<?xml version="1.0" encoding="UTF-8"?>
<svg id="Layer_1" xmlns="http://www.w3.org/2000/svg" version="1.1" viewBox="0 0 270 112">
  <!-- Generator: Adobe Illustrator 30.0.0, SVG Export Plug-In . SVG Version: 2.1.1 Build 123)  -->
  <defs>
    <style>
      .st0 {
        fill: #00aeef;
      }

      .st1 {
        fill: #fff200;
      }

      .st2 {
        fill: #fff;
      }

      .st3 {
        fill: #ec008c;
      }
    </style>
  </defs>
  <rect class="st2" width="270" height="112" rx="29" ry="29"/>
  <g id="Group_4">
    <path id="Path_95" d="M84.34,32.82c.03,1.86-1.25,3.5-3.07,3.91,2.2.32,3.8,2.26,3.7,4.48,0,3.04-2.59,4.92-6.69,4.92h-8.44v-17.74h8.16c3.91,0,6.33,1.7,6.33,4.44h.01ZM80.24,33.56c0-1.22-.91-1.93-2.43-1.9h-3.95v3.88h3.95c1.52,0,2.43-.74,2.43-1.98h0ZM80.85,40.71c0-1.3-1.16-2.08-3.04-2.05h-3.95v4.21h3.95c1.87,0,3.04-.78,3.04-2.16h0Z"/>
    <path id="Path_96" d="M105.7,37.26c0,5.12-4.1,9.05-9.53,9.05s-9.53-3.91-9.53-9.05,4.1-9,9.53-9,9.53,3.85,9.53,9ZM90.74,37.26c-.02,3.04,2.43,5.53,5.48,5.55,3.05.03,5.55-2.43,5.58-5.48s-2.43-5.55-5.48-5.58-5.55,2.43-5.58,5.48v.02h0Z"/>
    <path id="Path_97" d="M116.01,28.21c5,0,8.11,2.97,8.11,7.63v10.29h-4.01v-4.39h-8.11v4.39h-4.01v-10.29c0-4.66,3.09-7.63,8.01-7.63h.01ZM116.07,31.7c-2.51,0-4.06,1.6-4.06,4.13v2.66h8.11v-2.66c-.02-2.54-1.55-4.13-4.06-4.13h0Z"/>
    <path id="Path_98" d="M138.6,46.13l-2.81-5.07h-4.08v5.07h-4.01v-17.74h7.71c4.64,0,7.27,2.23,7.27,6.16,0,2.74-1.16,4.71-3.32,5.73l3.78,5.86h-4.54ZM131.71,37.71h3.7c2.21,0,3.47-1.01,3.47-3.04s-1.27-2.97-3.47-2.97h-3.7v6.01Z"/>
    <path id="Path_99" d="M162.92,37.26c0,5.22-3.88,8.87-9.48,8.87h-7.38v-17.74h7.53c5.5,0,9.33,3.62,9.33,8.87ZM158.84,37.28c0-3.27-2.28-5.53-5.32-5.53h-3.45v11h3.62c2.97,0,5.15-2.23,5.15-5.48h0Z"/>
    <path id="Path_100" d="M87.75,55.93c.04,2.31-1.55,4.33-3.8,4.84,2.73.4,4.71,2.8,4.59,5.56,0,3.77-3.2,6.09-8.29,6.09h-10.45v-21.98h10.11c4.84,0,7.85,2.1,7.85,5.49h0ZM82.67,56.84c0-1.51-1.13-2.39-3.01-2.36h-4.9v4.81h4.9c1.88,0,3.01-.91,3.01-2.45ZM83.42,65.69c0-1.6-1.45-2.58-3.77-2.54h-4.9v5.21h4.9c2.32,0,3.77-.97,3.77-2.67Z"/>
    <path id="Path_101" d="M114.19,61.42c0,6.34-5.09,11.21-11.8,11.21s-11.81-4.84-11.81-11.21,5.09-11.15,11.81-11.15,11.8,4.77,11.8,11.15ZM95.67,61.42c-.02,3.77,3.01,6.85,6.78,6.88,3.78.03,6.87-3,6.91-6.78.03-3.78-3-6.87-6.78-6.91-3.78-.03-6.87,3-6.91,6.78v.03Z"/>
    <path id="Path_102" d="M138.94,61.42c0,6.34-5.09,11.21-11.8,11.21s-11.81-4.84-11.81-11.21,5.09-11.15,11.81-11.15,11.8,4.77,11.8,11.15ZM120.42,61.42c-.02,3.77,3.01,6.85,6.78,6.88,3.78.03,6.87-3,6.91-6.78s-3-6.87-6.78-6.91c-3.78-.03-6.87,3-6.91,6.78v.03Z"/>
    <path id="Path_103" d="M156.65,72.41l-6.31-8.95-3.17,3.52v5.43h-4.96v-21.98h4.96v9.98l9.13-9.98h5.75l-8.26,9.17,8.82,12.81h-5.96Z"/>
    <path id="Path_104" d="M76.21,79.38c0,1.69-1.23,2.72-3.26,2.72h-1.93v2.37h-1.12v-7.81h3.04c2.03,0,3.26,1.03,3.26,2.72h.01ZM75.09,79.38c0-1.12-.74-1.75-2.18-1.75h-1.9v3.5h1.9c1.43,0,2.18-.64,2.18-1.75h0Z"/>
    <path id="Path_105" d="M88.64,84.47l-1.68-2.4c-.16,0-.32.02-.49.02h-1.93v2.38h-1.12v-7.81h3.04c2.03,0,3.26,1.03,3.26,2.72.05,1.12-.65,2.13-1.72,2.46l1.85,2.62h-1.22.01ZM88.61,79.38c0-1.12-.74-1.75-2.18-1.75h-1.9v3.52h1.9c1.43,0,2.18-.65,2.18-1.76h0Z"/>
    <path id="Path_106" d="M97.11,76.66h1.12v7.81h-1.12v-7.81Z"/>
    <path id="Path_107" d="M112.86,76.66v7.81h-.92l-4.68-5.82v5.82h-1.12v-7.81h.92l4.68,5.82v-5.82h1.12Z"/>
    <path id="Path_108" d="M122.32,77.63h-2.68v-.97h6.46v.97h-2.68v6.84h-1.11v-6.84h.01Z"/>
    <path id="Path_109" d="M132.9,76.66h1.12v7.81h-1.12v-7.81Z"/>
    <path id="Path_110" d="M148.65,76.66v7.81h-.92l-4.68-5.82v5.82h-1.12v-7.81h.92l4.68,5.82v-5.82h1.12Z"/>
    <path id="Path_111" d="M161.97,80.52h1.07v3.04c-.84.66-1.89,1.01-2.96.99-2.4,0-4.16-1.68-4.16-3.99s1.76-3.99,4.18-3.99c1.13-.05,2.22.39,3,1.2l-.69.69c-.6-.6-1.42-.93-2.26-.91-1.66-.06-3.05,1.23-3.11,2.89-.06,1.66,1.23,3.05,2.89,3.11h.22c.65.01,1.28-.16,1.83-.5v-2.54h0Z"/>
    <path id="Path_112" class="st2" d="M187.5,90.29c0,.18,0,.36-.03.54.05-.17.08-.35.09-.54V20.56c0-.18-.03-.36-.09-.54,0,.18.03.36.03.54v69.73Z"/>
    <path id="Path_113" class="st0" d="M185.67,13.73h-5c3.56,0,6.52,2.75,6.8,6.3.05.17.08.35.09.54v69.73c0,.18-.03.36-.09.54-.28,3.55-3.24,6.29-6.8,6.3h5c3.77,0,6.83-3.06,6.83-6.83V20.56c0-3.77-3.06-6.83-6.83-6.83h0Z"/>
    <path id="Path_114" class="st2" d="M182.55,90.29c0,.09,0,.19,0,.27.02-.09.03-.18.03-.27V20.56c0-.09,0-.18-.03-.27,0,.09,0,.18,0,.27v69.73Z"/>
    <path id="Path_115" class="st3" d="M187.47,90.82c0-.18.03-.36.03-.54V20.56c0-.18,0-.36-.03-.54-.28-3.55-3.24-6.29-6.8-6.3h-4.95c3.66,0,6.67,2.9,6.82,6.55.02.09.03.18.03.27v69.73c0,.09,0,.18-.03.27-.15,3.66-3.16,6.55-6.82,6.55h4.95c3.56,0,6.52-2.75,6.8-6.3h0v.03Z"/>
    <path id="Path_116" class="st1" d="M182.54,90.56c0-.09,0-.18,0-.27V20.56c0-.09,0-.19,0-.27-.15-3.66-3.16-6.55-6.82-6.55h-4.87c3.77,0,6.83,3.06,6.83,6.83v69.73c0,3.77-3.06,6.83-6.83,6.83h4.87c3.66,0,6.67-2.9,6.82-6.55h0v-.02Z"/>
    <path id="Path_117" d="M177.68,90.29V20.56c0-3.77-3.06-6.83-6.83-6.83h-69.73c-3.77,0-6.83,3.06-6.83,6.83v3.81h4.94v-3.81c0-1.04.85-1.89,1.89-1.89h69.73c1.04,0,1.89.85,1.89,1.89v69.73c0,1.04-.85,1.89-1.89,1.89h-69.72c-1.04,0-1.89-.85-1.89-1.89v-2.57h-4.94v2.57c0,3.77,3.06,6.83,6.83,6.83h69.73c3.77,0,6.83-3.06,6.83-6.83h0Z"/>
  </g>
</svg>