<?xml version="1.0" encoding="UTF-8"?>
<svg id="Layer_1" xmlns="http://www.w3.org/2000/svg" version="1.1" viewBox="0 0 270 112">
  <!-- Generator: Adobe Illustrator 30.0.0, SVG Export Plug-In . SVG Version: 2.1.1 Build 123)  -->
  <defs>
    <style>
      .st0 {
        fill: #fff;
      }

      .st1 {
        fill: #00468c;
      }

      .st2 {
        fill: #6c6d6f;
      }
    </style>
  </defs>
  <rect class="st0" width="270" height="112" rx="29" ry="29"/>
  <g>
    <path class="st1" d="M226.55,34.68c0,.65-.45,1.18-1.01,1.18h-.03c-.57,0-1.04-.52-1.05-1.18,0-.65.46-1.18,1.02-1.17h.02c.55-.02,1.02.49,1.03,1.13v.04M224.73,34.68c0,.5.32.92.75.93h.04c.42,0,.77-.4.77-.89v-.04c.03-.5-.3-.93-.73-.96s-.8.35-.82.85v.11M225.36,35.28h-.23v-1.17c.13-.02.26-.03.39-.03.12-.02.24.02.35.09.06.07.1.17.09.26,0,.14-.1.25-.21.27.1.06.17.17.19.3,0,.1.04.2.08.3h-.25c-.03-.09-.06-.19-.08-.28,0-.12-.08-.19-.21-.19h-.11v.45h0ZM225.36,34.61h.11c.13,0,.23-.05.23-.17s-.07-.17-.21-.17c-.04,0-.09,0-.14.02v.33h.01Z"/>
    <path class="st1" d="M43.45,47.72h1.41v-13.18h-1.39v-.75h6.22c1.04-.1,2.07.27,2.88,1.03.63.68.97,1.65.94,2.65.04,1.2-.56,2.31-1.5,2.79-.3.18-.61.32-.94.42.9.06,1.76.48,2.43,1.18.56.62.86,1.49.84,2.39.04,1.19-.41,2.34-1.22,3.07-1.01.82-2.24,1.23-3.47,1.14h-6.18v-.75h-.02ZM49.1,40.48c1.01.16,1.94-.62,2.13-1.78.07-.38.11-.77.11-1.15.05-.73-.09-1.47-.4-2.1-.52-.68-1.29-1.02-2.07-.9h-1.8v5.94h2.03ZM49,47.72c.83.07,1.65-.23,2.29-.84.55-.61.84-1.48.79-2.37.11-1.29-.51-2.51-1.54-3.01-.43-.2-.9-.29-1.37-.28h-2.09v6.5h1.92"/>
    <path class="st1" d="M62.88,44.74c-.23-.56-.41-1.14-.52-1.75-.12-.61-.18-1.23-.17-1.86,0-1.23.23-2.45.7-3.56.48-1.14,1.22-2.09,2.15-2.76,1.03-.72,2.21-1.08,3.41-1.04,1.79-.11,3.53.73,4.73,2.28,2.04,2.99,2.04,7.22-.01,10.2-.74.96-1.7,1.64-2.78,1.95-.62.19-1.27.29-1.92.28-.64,0-1.28-.09-1.91-.28-1.07-.33-2.03-1.01-2.77-1.97-.37-.44-.67-.94-.9-1.5M71.39,45.5c.26-.55.46-1.13.6-1.73.2-.74.3-1.51.29-2.28,0-.67-.02-1.33-.09-2-.06-.51-.16-1.02-.29-1.51-.25-.95-.7-1.81-1.32-2.5-.6-.63-1.38-.96-2.18-.93-1.28-.06-2.47.75-3.04,2.07-.6,1.37-.89,2.9-.82,4.43-.04,1.54.26,3.06.86,4.43.83,1.93,2.84,2.71,4.5,1.75.65-.38,1.17-.98,1.5-1.74"/>
    <polygon class="st1" points="81.76 47.72 83.17 47.72 87.03 41.7 82.95 34.52 81.75 34.52 81.75 33.77 86.99 33.77 86.99 34.52 85.46 34.52 88.48 39.76 91.79 34.52 90.4 34.52 90.4 33.77 94.11 33.77 94.11 34.52 92.7 34.52 88.91 40.51 93.06 47.7 94.19 47.7 94.19 48.45 88.96 48.45 88.96 47.7 90.46 47.7 87.46 42.44 84.11 47.7 85.62 47.7 85.62 48.45 81.77 48.45 81.77 47.72 81.76 47.72"/>
    <path class="st1" d="M101.02,47.7h1.65v-13.18h-1.65v-.75h10.66v4.29h-.65c-.03-.56-.07-1.06-.12-1.5-.03-.39-.14-.77-.31-1.11-.46-.7-1.2-1.06-1.95-.93h-3.77v6.02h2.07c.37.03.74-.06,1.07-.25.26-.19.43-.52.46-.87,0-.12.03-.25.03-.39s0-.27.03-.4h.7v4.94h-.7c0-.16-.03-.33-.03-.53,0-.17,0-.34-.03-.5-.02-.39-.19-.75-.47-.97-.33-.21-.7-.31-1.07-.28h-2.06v6.4h3.53c1.25.17,2.4-.82,2.63-2.26.09-.44.15-.89.17-1.34h.64v4.37h-10.86v-.75h.03Z"/>
    <path class="st1" d="M125.47,33.79c3.17,0,4.75,1.23,4.75,3.68.04.99-.28,1.95-.87,2.67-.65.69-1.47,1.13-2.35,1.26,1.18.16,2.2,1.05,2.66,2.32.2.56.37,1.14.51,1.73.1.46.23.91.39,1.34.18.54.63.89,1.13.89h.33v.8h-1.15c-.75.09-1.51-.09-2.17-.51-.47-.55-.78-1.27-.87-2.04-.19-.92-.34-1.56-.44-1.9-.19-.65-.52-1.24-.94-1.72-.41-.43-.94-.65-1.49-.62h-1.52v6.01h1.93v.8h-5.48v-.8h1.33v-13.13h-1.33v-.75h5.59v-.02h-.01ZM125.32,41.01c.82.09,1.63-.33,2.12-1.11.33-.7.48-1.5.44-2.29.05-.78-.13-1.55-.52-2.18-.58-.65-1.38-.97-2.19-.87h-1.74v6.47h1.89s0-.02,0-.02Z"/>
    <path class="st1" d="M148.81,35c.22-.36.34-.78.35-1.22h.67v4.02h-.7c-.14-.97-.61-1.83-1.31-2.37-.68-.56-1.49-.86-2.32-.86-2.79,0-4.16,2.2-4.14,6.6-.04,1.52.28,3.03.93,4.35.6,1.28,1.77,2.05,3.02,2.01.88.03,1.75-.17,2.55-.59.66-.36,1.22-.92,1.64-1.62l.43.45c-.29.68-.74,1.25-1.3,1.64-1.02.75-2.21,1.13-3.42,1.08-3.31.25-6.17-2.68-6.38-6.53-.02-.26-.02-.52,0-.79-.16-3.89,2.41-7.2,5.76-7.39h.77c1.01-.03,2.01.25,2.91.8.21.09.4.23.56.4"/>
    <path class="st1" d="M163.04,33.79c3.17,0,4.75,1.23,4.75,3.68.04.99-.28,1.95-.87,2.67-.65.69-1.47,1.13-2.35,1.26,1.18.16,2.2,1.05,2.66,2.32.2.56.37,1.14.51,1.73.1.46.23.91.39,1.34.18.54.63.89,1.13.89h.33v.8h-1.15c-.75.09-1.51-.09-2.17-.51-.47-.55-.78-1.27-.87-2.04-.19-.92-.34-1.56-.44-1.9-.2-.65-.52-1.23-.94-1.72-.41-.43-.94-.65-1.49-.62h-1.52v6.01h1.93v.8h-5.49v-.8h1.33v-13.13h-1.33v-.75h5.59v-.02h0ZM162.89,41.01c.82.09,1.63-.33,2.12-1.11.33-.7.48-1.5.44-2.29.05-.78-.13-1.55-.52-2.18-.58-.65-1.38-.97-2.19-.87h-1.74v6.47h1.89v-.02h0Z"/>
    <path class="st1" d="M175.78,47.72h.9l4.65-13.93h.95l4.98,13.93h.84v.75h-4.49v-.75h1.23l-1.19-3.35h-5l-1.09,3.35h1.49v.75h-3.26v-.75h0ZM183.38,43.61l-2.35-6.63-2.16,6.63h4.51Z"/>
    <path class="st1" d="M194.84,47.72h1.64v-13.18h-1.65v-.75h10.34v4.15h-.64c.02-.86-.15-1.72-.51-2.48-.51-.68-1.27-1.02-2.04-.9h-3.27v6.3h1.78c.39.02.77-.08,1.11-.28.29-.21.47-.57.5-.97.02-.15.03-.3.03-.45,0-.16,0-.32.03-.48h.67v5.02h-.67c-.02-.16-.03-.32-.03-.48,0-.19,0-.34-.03-.47-.09-.75-.63-1.14-1.61-1.14h-1.78v6.13h2.67v.75h-6.54v-.76h0,0Z"/>
    <path class="st1" d="M215.38,47.72h1.64v-13.13h-1.52c-.76-.09-1.5.33-1.91,1.08-.34.86-.51,1.8-.48,2.75h-.64v-4.62h11.33v4.62h-.64c0-.95-.16-1.88-.5-2.75-.41-.74-1.14-1.16-1.89-1.08h-1.53v13.13h1.65v.75h-5.53v-.75h.02Z"/>
    <path class="st2" d="M59.11,63.04h.09c.16-.15.35-.27.55-.33.03,0,.07,0,.08.02.05-.02.09,0,.15,0,.11-.03.23.02.31.11.03.03.06.07.08.11,0,.08,0,.16.04.19,0,.1,0,.19-.04.28-.04.11-.05.2-.08.3-.12.7-.29,1.4-.5,2.08.03.01.04.12,0,.31-.03.06-.15.19-.2.28,0,.03,0,.07-.03.09-.03.12,0,.22-.04.31s-.13.26-.23.45l-.21.58c-.5,1.24-1.1,2.41-1.8,3.51-.46.99-1.01,1.92-1.62,2.79-.56.84-1.23,1.89-1.82,2.74-.45.62-.97,1.17-1.54,1.62-.16.03-.32.02-.47-.03-.43-.27-.78-.7-.98-1.22,0-.03-.08-.13-.16-.33-.09-.23-.08-.67-.04-.65.04.01.12.51.28.72.14.19.3.38.47.55.07.05.16.07.24.06.15,0,.3-.05.44-.12.27-.1.52-.24.75-.42.49-.39.92-.86,1.29-1.4-.06.13-.12.26-.19.39l.11-.12c.47-.54.92-1.12,1.34-1.72.43-.65.82-1.35,1.15-2.07-.43.67-1.14,1.59-1.74,2.47.48-.81.98-1.75,1.46-2.68l.74-1.48.17-.38c.23-.47.5-.84.7-1.33.08-.16.09-.4.17-.58l.27-.7c.19-.51.5-1.58.79-2.42v-.08c0-.08.05-.37,0-.47-.11-.13-.5.06-.7.11l-.08.05-.95.48c-.27.12-.64.34-1.02.55-.38.23-.83.51-.98.59-.31.17-.64.36-.76.4-.22.1-.46.14-.7.12-.19-.05-.38-.13-.55-.23-.08-.07-.14-.18-.15-.3v-.06c0-.06-.04-.09-.04-.17,0-.21.02-.42.09-.61.15-.38.34-.74.56-1.08-.04-.09-.06-.19-.05-.3,0-.09.2-.17.21-.25.07-.2,0-.39.15-.5.07-.03.14-.04.21,0,.24-.16.47-.39.62-.28.03,0,.13.09.24.17.05-.02.08-.06.13-.09.08-.06,0,.11.07.14s.05.06,0,.12l.03.03c.06,0,.12,0,.17.02.03.03.08.28,0,.34l-.17.16s0,.04-.03.05v.03c-.11.15-.24.29-.39.39-.08.09-.14.19-.19.3-.13.21-.23.45-.31.7-.05.19.24.36.43.4.16.02.33.01.5-.01.12-.03.25-.09.38-.12l.47-.22.09-.06c.56-.3,1.07-.7,1.53-1.17.21-.2.44-.39.68-.59.09-.06.17-.13.24-.2.04-.14.09-.27.16-.39.03.06.08.09.13.08h-.03l.03-.02h0ZM53.88,65.59c0,.07,0,.14.03.2.05.13.2.19.22.2.03.06.12.05.16.05.03.01.07.02.11.01-.08-.12-.13-.28-.12-.44,0-.12,0-.24.04-.36.02-.18.11-.34.23-.45-.08.08-.16.17-.23.26-.16.2-.32.38-.43.51M54.82,74.56l-.33.59c-.1.17-.21.33-.34.48.08-.11.13-.23.24-.39.13-.24.27-.47.43-.69M57.5,70.26l.04-.17c-.11.22-.19.42-.28.61h.03l.21-.44ZM58.6,67.65v.05l-.36.86c-.07.11-.11.25-.17.36l.2-.14c.17-.21.32-.45.43-.72.03-.09.05-.18.05-.28-.04-.06-.09-.08-.14-.12h-.01Z"/>
    <path class="st2" d="M70.83,63.53h.03c.05.03.08.05.09.09v.06c0,.23-.17.17-.27.02-.03-.33-1.98-.44-2.25-.48-.1-.02-.21-.03-.31-.03-.47,0-.94.13-1.35.39v.33c-.07.42-.17.41-.39.8-.32.55-.74.99-1.25,1.29-.15.14-.3.26-.46.38-.09.07-.18.13-.28.17-.07.09-.16.16-.26.2-.44.22-.91.39-1.38.5-.24.06-.48.1-.72.11-.2,0-.4-.04-.59-.11-.42-.11-.5-.72-.5-1.06.04-.31.15-.6.31-.84.29-.56.71-1.01,1.22-1.29.51-.4,1.06-.72,1.64-.95.21-.08.42-.13.64-.12.16-.02.33.03.47.12.08.09,0,.54-.12.7-.08.09-.38.39-.55.39-.12.01-.12-.25-.17-.27,0-.05-.15-.09-.35-.09l-.08.08c0,.11-.08.2-.17.2-.08.09-.2.12-.28.25l-.66.39c-.29.25-.55.54-.77.87,0,.22.03.44.11.64.07.11.22.2.31.33.14.07.29.11.44.11.32-.03.65-.09.96-.17.16-.09.32-.17.5-.22l.09-.06c.35-.26.68-.57.98-.9.18-.24.31-.53.38-.84-.18-.35-.31-.74-.36-1.15v-.22c.06-.28.21-.53.43-.67.07,0,.14.03.17.09l.05-.03c.12,0,.48,0,.5.17,0,0,.38.12.66.2.31.02.63.06.9.1.9.07,1.79.25,2.66.53h-.01v-.02h-.01ZM61.9,65.3c-.26.28-.41.67-.42,1.08,0,.08.04.12.07.2v-.09c0-.15.02-.3.07-.44.07-.26.16-.51.28-.75M63.01,64.14c-.09.05-.18.12-.26.2l-.17.19c.15-.11.3-.24.43-.39"/>
    <path class="st2" d="M69.1,67.06h0c-.1-.06-.19-.13-.27-.22-.08-.1-.17-.19-.21-.25-.08-.14-.12-.3-.12-.47,0-.16.03-.32.08-.47.21-.45.48-.87.79-1.23.15-.23.28-.47.42-.66l-.08-.08c0-.07.01-.14.04-.2v-.12l.31-.12c.07-.02.13-.03.2-.03h.03c.14-.02.28.03.39.14,0,.02,0,.03.04.06.17-.2.38.14.38.48,0,.11-.03.22-.07.31-.09.05-.11.11-.17.14-.44.25-.44.17-.5.12l-.08.14c-.08.15-.15.31-.22.47,0,.1-.04.19-.09.27-.08.17-.05.33-.17.31l-.05.09c0,.14-.03.28-.11.39v.2c0,.12.22.28.44.28l.11-.03c.67-.23,1.31-.59,1.89-1.04.35-.23.67-.5.98-.75.17-.14.33-.28.51-.42.2-.16.39-.34.56-.53.09-.11.19-.22.29-.31v-.06c.09-.1.19-.17.31-.22.04-.02.07-.05.11-.08.04-.07.11-.1.18-.08.03-.04.07-.07.11-.1.12-.02.22.08.24.22v.02s.06-.02.09-.02c.16,0,.24.14.24.33-.06.4-.13.8-.23,1.18.02.37.09.74.19,1.09.16.44.32.75.82.76.19-.02.37-.08.54-.17.31-.15.64-.28.95-.45.19-.11.37-.25.6-.39.11-.09.3-.17.38-.25.15-.16.24.02.1.17-.34.31-.72.56-1.11.76-.61.4-1.27.67-1.96.81-.36-.04-.68-.29-.86-.66-.17-.31-.44-.28-.46-1.06-.04-.24-.15-.46-.31-.62-.09-.08-.2-.12-.31-.11-.17,0-.33.06-.47.16-.43.31-.9.62-1.39.97-.23.16-.47.36-.67.48-.17.12-.33.22-.5.33-.08.11-.17.23-.16.25-.11.03-.24.02-.38.06-.22.1-.44.18-.67.25-.05.05-.11.08-.18.09-.09-.11-.54-.08-.54-.17h.03v.03h0ZM69.41,66.45h0c.08.13.15.22.3.22h.05c-.16-.06-.17-.36-.15-.59l-.2-.09c-.05.1-.07.23-.05.34.03.02.05.05.08.06,0,0-.03.06-.03.06ZM69.97,64.72s.06.08.08.12l.15-.3.05-.12s-.04-.03-.04-.06h0c-.09.1-.16.23-.23.36h-.01Z"/>
    <path class="st2" d="M82.85,63.8c0-.27-.08-.53-.23-.73-.31-.17-.6-.3-.75-.2l-2.59,2.42s-.36.3-.38.31c-.05-.01-.1-.01-.15,0,0,0,.03-.02.05-.11,0,0,.43-.59.54-.72.05-.05.23-.26.38-.39.17-.15.3-.36.37-.59.86-.92.7-1.04.75-1.42-.04-.21-.07-.41-.08-.62,0-.06.23-.28.27-.36.11-.11.32-.03.47,0,.2.03.37.16.48.36.08.06.11.45.17.55.19.31.45.55.76.67.11.06.72.28.79.33.11.06.39.36.4.55,0,.16.04.19.04.28,0,.11-.02.23-.07.33-.07.24-.15.47-.24.7-.15.31-.24.65-.27,1v.06c0,.08.12.2.29.31.25.14.52.18.79.12.29-.02.58-.07.86-.14.19-.04.37-.09.55-.17.16-.09.39-.22.62-.33.15-.08.42-.28.64-.44l.4-.3s.11-.02.13-.02c.15-.08.2-.03.05.11-.39.37-.81.69-1.25.97-.34.17-.74.33-.98.47-.43.11-.87.18-1.31.2-.09.02-.18.02-.27,0-.14,0-.29,0-.43-.01-.09,0-.18-.03-.27-.06-.27-.07-.48-.3-.55-.61-.1-.25-.15-.53-.13-.81,0-.24.01-.47.05-.7,0-.34.08-.67.08-1h-.03.05,0ZM80.42,63.97c.39-.25.73-.59,1.01-1,0-.07.04-.14.08-.19-.19.17-.63.66-.82.84-.28.16-.29.31-.27.34M83.66,64.69c-.05.12-.23.25-.24.3-.04.13-.02.28.05.39.14-.24.25-.51.31-.79l-.12.11h0Z"/>
    <path class="st2" d="M96.15,57.42c.15-.34.32-.67.52-.98.05-.34.15-.68.29-.98.11-.17.32-.23.39-.39v-.03c.05-.1.14-.17.24-.19.16,0,.27.24.16.53l-.15.83c.01.1-.01.19-.07.26h.03c-.3.3-.56.64-.79,1.01-.11.2-.16.16-.47.67-.39.72-.82,1.53-1.19,2.31-.11.23-.17.39-.31.67-.17.32-.32.66-.46,1-.11.17-.21.36-.28.56-.23.66-.6,1.93-.7,2.14-.05.25-.09.51-.09.76,0,.34.09.68.24.97l.08.05c.2.1.42.15.64.14.13,0,.26-.01.39-.03.3-.06.59-.15.87-.28.25-.12.63-.31.84-.42.39-.19.75-.44,1.15-.69.24-.14.47-.33.71-.44.17-.09.07.17-.11.3-.17.15-.35.29-.54.4-.31.17-.59.42-.94.61-.4.2-.6.33-.75.39-.24.09-.43.2-.95.38-.15.05-.6.2-.95.28-.26.06-.53.09-.79.09-.13,0-.25-.01-.38-.03-.15-.01-.31-.25-.4-.31-.15-.08-.26-.22-.34-.39-.03-.1-.05-.21-.05-.31,0-.11,0-.22.04-.33.07-.38.17-.74.31-1.09.16-.42.35-.84.55-1.26.15-.36.08-.55.26-.89.16-.31.54-.76.7-1.08.24-.44.48-.87.72-1.33.28-.51.59-1.03.87-1.56l.04-.08c.21-.33.38-.7.49-1.09.01-.06.07-.11.13-.17h.05,0ZM92.78,65.44c.12-.48.28-1,.31-1.22.06-.31.13-.62.23-.92l-.15.34c-.11.33-.21.66-.28,1-.05.21-.09.43-.11.66.01.03,0,.09,0,.14"/>
    <path class="st2" d="M97.66,64.77v-.06c0-.08,0-.16.03-.23.04-.04.09-.07.15-.09l.07-.12c-.03-.09-.13-.12-.08-.17.06-.04.13-.06.2-.06.12-.23.26-.45.4-.7.15-.12.32-.2.5-.23.02,0,.03,0,.05.02,0-.03.04-.06.07-.06.07,0,.13.04.19.09.17.04.29.23.28.44-.08.12-.18.23-.28.33l-.23.22-.42.54c-.1.31-.17.64-.19.97,0,.28.34.53.55.61.27.05.54.08.82.09.31-.12.76-.14,1.21-.33.61-.25,1.19-.57,1.73-.97.05-.06.15-.02.18,0s0,.12-.09.22c-.72.54-1.5.97-2.32,1.26-.64.26-1.31.43-1.98.51-.6-.06-1.05-.66-1.03-1.36,0-.32.08-.63.23-.9h-.01s-.03-.02-.03-.02ZM98.25,66.33c-.08-.29-.11-.6-.09-.9.02-.3.11-.59.26-.84-.06.1-.11.2-.16.31-.11.33-.18.68-.22,1.03.02.17.09.31.22.41M98.58,64.28c.08-.12.15-.24.21-.37l.03-.09v-.06l-.22.36c0,.06-.01.11-.01.17h-.01,0ZM100.28,61.46l-.16.14c-.14.06-.28.08-.43.06-.09.03-.34-.25-.32-.47.04-.37.18-.72.4-1,.07-.1.16-.18.26-.25.03-.12.13-.14.24-.17.06-.03.12-.07.19-.09l.04-.06h.16c.11,0,.23,0,.34.06.05-.03.13-.08.15-.03v.14c.15.15.22.37.19.59,0,.25-.31.89-.59.92-.05,0-.05-.06-.08-.09s-.04.08-.15.06-.28.11-.34-.28c-.04-.17.13-.53.26-.69-.06,0-.12,0-.17.02-.32.04-.57.34-.6.72-.02.1.02.21.11.25.15.07.31.09.47.06.08-.03.13.06.04.11h.01-.02Z"/>
    <path class="st2" d="M108.85,54.32h0c.15-.06.24-.02.27.06.12-.19.28-.35.47-.45.19.02.62.33.64.55,0,.03-.17.44-.17.48s-.08.06-.17.09c-.05.2-.15.47-.17.55-.03.08-.15.17-.21.25-.11.15-.27.24-.44.25-.21.12-.41.26-.6.42-.43.55-.92,1.2-1.45,2-.52.8-1.19,2.03-1.82,3.17-.56,1.01-1.52,2.65-2.21,4.07-.49,1.03-1.13,2.2-1.6,3.25,0,.12-.08.2-.11.36,0,.11-.06.2-.15.25-.07.14-.13.3-.17.45-.37.92-.63,1.9-.77,2.9,0,.31-.03.62-.11.92,0,0,0,.01-.03.05l-.08.73c.07.14.24.23.24.27,0,.16,0,.31.03.47,0,.06.2-.02.23.06.03.08.2.22.24.28,0,.02.34.05.42.06,1-.7,1.85-1.66,2.49-2.79l.66-1.39c.45-1.37.76-2.8.92-4.26.03-.26.05-.52.05-.78.02-.22,0-.44-.07-.65-.07-.34-.17.19-.17-.08,0-.39-.27-.23-.38-.38-.09-.09-.14-.22-.13-.36,0-.05-.05-.06-.07-.11-.08-.2.14-.65.34-.81.12-.04.25-.06.38-.06.11,0,.22.02.38.03.16.02.59,0,.94-.01h1.01c.15-.05.3-.08.46-.09.32-.06.95-.14,1.34-.2.36-.05.7-.06,1.11-.08.25-.03.51-.03.76-.02.2.02.3.09.3.17s-.12.16-.34.16c-.08,0-.15-.02-.24-.02-.21-.05-.42-.07-.63-.06-.32,0-.64.03-.91.06-.5.05-.99.16-1.47.33-.49.27-.96.57-1.42.89-.54.28-.91.44-.9.58v.5c0,.35-.01.71-.05,1.06-.14,1.54-.52,3.03-1.13,4.4-.23.55-.44,1.09-.66,1.58l-.54,1.14c-.51.76-1.1,1.45-1.76,2.04-.02.1-.06.2-.12.28h-.17c-.29.31-.65.52-1.03.61-.48-.42-.75-1.08-.74-1.78v-.19c-.07-.26-.1-.54-.11-.81v-.22c.02-.16.08-.31.17-.44,0-.31.05-.61.15-.89.17-.95.5-1.93.75-2.87.11-.54.3-1.05.55-1.53.29-1.09.72-2.12,1.27-3.06.6-1.04.95-1.9,1.5-2.96.28-.56.56-1.06.87-1.56,0-.05,0-.11.03-.16,0,0,.05-.03.08-.06.04-.06.08-.12.11-.19-.04-.06-.11-.09-.05-.14.09-.08.21-.2.29-.26l.46-.73c.11-.16.64-1.19,1.25-2.17.31-.5.92-1.39,1.25-1.82h-.04l.38-.72c.11-.25.39-.39.63-.54-.05,0-.03-.03,0-.05M100.98,69.63c-.08.03-.15.05-.2.06-.22.03-.51,1.01-.59,1.22-.14.48-.24.98-.31,1.48.31-.9.68-1.83,1.1-2.76M104.61,61.38h0l-.63,1.33c-.39.81-.79,1.61-1.21,2.43-.46.87-.88,1.77-1.23,2.7v.1c-.05.2-.17.5-.25.76.03.03.05.08.05.13.86-1.97,2.09-5.07,3.29-7.44h-.02ZM106.5,57.79c-.39.61-.68,1.12-.99,1.65l-.5,1.03c-.03.11-.06.21-.09.31.27-.53.57-1.03.9-1.51l.43-.67c.06-.08.09-.19.07-.3,0-.08,0-.16.03-.23,0-.02.23-.11.21-.12,0-.06-.01-.12-.05-.16M108.33,55.44c-.47.55-.99,1.19-1.38,1.72v.12c-.05.13-.08.26-.11.39.47-.72.98-1.54,1.48-2.23,0,0,.01,0,0,0h0ZM109.44,55.24c-.08.04-.16.11-.21.19-.05.09-.11.19-.08.26h.04c.08,0,.15-.09.24-.28.03-.06.11-.17.15-.25l-.08.05s-.03.05-.03.03c0,0-.03,0-.03,0Z"/>
    <path class="st2" d="M114.19,63.22c.08.05.1.16.06.25,0,0-.01.02-.02.03-.01.06-.11-.06-.15,0,0,.04-.02.08-.04.11-.14.26-.34.26-.62.39-.28.17-.58.31-.89.42-.08.03-.17.06-.26.08-.38.23-.97.51-1.01.59-.11.15-.26.25-.43.28-.09.04-.18.07-.28.08-.14-.02-.27-.05-.4-.09-.16.23-.24.52-.23.81,0,.08.26.26.56.5.37.1.76.13,1.14.09.16,0,.41-.06.56-.06.21-.02.55-.06.76-.08.13-.05.24-.09.38-.14.44-.16.86-.34,1.26-.51.17-.09,0,.09.67-.37l.19-.09c.04-.1.12-.17.21-.2.07-.02.08-.02.34-.08l.39-.37c.11,0,.08,0,.08.12-.02.08-.05.15-.08.22-.04.07-.09.13-.15.17-.17.09-.35.17-.54.28l-1.21.62c-.39.21-.79.38-1.21.51-.82.38-1.67.64-2.54.79-.33,0-.67.08-1.01.08-.13,0-.27-.01-.4-.05-.4-.14-.69-.54-.75-1.01,0-.12.03-.24.08-.34-.05-.13-.04-.29.03-.41.24-.46.55-.88.9-1.23.23-.12.68-.73.94-.89l.42-.28c.3-.17.61-.31.93-.41.44-.19.9-.31,1.37-.38.23-.06.22.02.5.06.12.06.47.09.44.5h-.01.02ZM109.6,66.75s-.08-.08-.11-.12c-.15-.2,0-.7,0-.78v-.14c-.14.15-.22.37-.21.59.03.2.14.37.29.45,0,0,.03,0,.03,0ZM109.75,64.99c.09-.1.23-.33.32-.39l-.11.05-.26.24-.31.36s-.05.06-.07.09c.13-.13.27-.25.42-.34M110.98,63.83c.2-.13.4-.25.63-.38-.11.03-.21.07-.31.12-.09.06-.22.17-.32.25M110.98,64.3c.06.01.12.04.17.08.12.07.27.09.4.06l.44-.08.13-.08c.63-.25,1.35-.69,1.41-.98.01-.08.01-.16-.04-.19-.32,0-.63.08-.93.2-.56.26-1.1.59-1.6.98M113.72,63.18l.03.06c-.02.14-.07.27-.15.37l.2-.11c.08-.12.12-.12.15-.11-.01-.04-.02-.07-.03-.11-.06-.06-.13-.09-.2-.11"/>
    <path class="st2" d="M118.33,66c.08-.15.18-.3.28-.44.09-.14.23-.23.39-.25.18-.01.35.12.4.33.05.15.08.31.08.47,0,.7-.47,1.28-1.07,1.31-.14,0-.27-.03-.39-.11-.2-.13-.33-.37-.34-.64,0-.23.17-.73.43-.73.05,0,.09,0,.13.03.03,0,.06.01.08.03M118.77,66.31c-.14.12-.21.32-.2.52h.05c.25,0,.45-.26.45-.55v-.06s-.01-.06-.01-.09c-.11.02-.21.09-.28.19"/>
    <path class="st2" d="M134.7,63.04h.09c.16-.15.35-.27.55-.33.03,0,.07,0,.08.02.05-.02.09,0,.15,0,.11-.03.23.02.31.11.03.03.06.07.08.11,0,.08,0,.16.04.19,0,.1,0,.19-.04.28-.03.11-.05.2-.08.3-.12.7-.29,1.4-.5,2.08.03.01.04.12,0,.31-.03.06-.15.19-.2.28,0,.03,0,.06-.03.09-.03.12,0,.22-.04.31s-.13.26-.23.45l-.21.58c-.5,1.24-1.1,2.41-1.8,3.51-.46.99-1.01,1.92-1.62,2.79-.56.84-1.23,1.89-1.82,2.74-.45.62-.97,1.17-1.54,1.62-.16.03-.32.02-.47-.03-.43-.27-.78-.7-.98-1.22-.06-.1-.11-.21-.16-.33-.09-.23-.08-.67-.04-.65.04.01.12.51.28.72.15.19.3.38.47.55.07.05.16.07.24.06.15,0,.29-.05.43-.12.27-.1.52-.24.75-.42.49-.39.92-.86,1.29-1.4-.05.13-.12.26-.19.39l.11-.12c.47-.54.92-1.12,1.34-1.72.43-.65.82-1.35,1.15-2.07-.43.67-1.14,1.59-1.74,2.47.48-.81.98-1.75,1.46-2.68.26-.52.5-1,.74-1.48l.17-.38c.23-.47.5-.84.7-1.33.08-.16.09-.4.17-.58l.27-.7c.19-.51.49-1.58.79-2.42,0-.02-.02-.05,0-.08,0-.08.05-.37,0-.47-.11-.13-.5.06-.7.11l-.08.05-.95.48c-.27.12-.64.34-1.02.55-.38.23-.83.51-.98.59-.31.17-.64.36-.76.4-.22.1-.46.14-.7.12-.19-.05-.38-.13-.55-.23-.08-.07-.14-.18-.15-.3v-.06c-.02-.05-.04-.11-.04-.17,0-.21.02-.42.09-.61.15-.38.34-.74.56-1.08-.04-.09-.06-.19-.05-.3,0-.09.2-.17.21-.25.07-.2,0-.39.15-.5.07-.03.14-.04.21,0,.24-.16.47-.39.62-.28.03,0,.13.09.24.17.05-.02.08-.06.13-.09.08-.06,0,.11.07.14.05.03.05.06,0,.12l.03.03c.06,0,.12,0,.17.02.03.03.08.28,0,.34l-.17.16s-.02.03-.03.05v.03c-.11.15-.24.29-.39.39-.08.09-.14.19-.19.3-.13.21-.24.45-.31.7-.05.19.24.36.43.4.17.02.33.01.5-.01.12-.03.26-.09.38-.12l.47-.22.09-.06c.55-.3,1.07-.7,1.53-1.17.21-.2.44-.39.68-.59.09-.06.17-.13.24-.2.04-.14.09-.27.16-.39.05.06.11.09.15.08M129.47,65.59c0,.07,0,.14.03.2.05.13.2.19.22.2.03.06.12.05.16.05.03.01.07.02.11.01-.08-.12-.13-.28-.12-.44,0-.12.02-.24.04-.36.02-.18.11-.34.23-.45-.08.08-.16.17-.23.26-.15.16-.29.33-.43.51M130.41,74.56l-.33.59c-.1.17-.21.33-.34.48.08-.11.13-.23.24-.39.13-.24.27-.47.43-.69M133.09,70.26l.04-.17c-.11.22-.19.42-.28.61h.03l.21-.44ZM134.19,67.65v.05l-.36.86c-.07.11-.11.25-.17.36l.2-.14c.17-.21.32-.45.43-.72.03-.09.05-.18.05-.28-.04-.06-.09-.08-.13-.12"/>
    <path class="st2" d="M146.43,63.53h.03c.05.03.08.05.09.09v.06c0,.23-.17.17-.27.02-.03-.33-1.98-.44-2.25-.48-.1-.02-.21-.03-.31-.03-.47,0-.94.13-1.35.39v.33c-.07.42-.17.41-.39.8-.32.55-.74.99-1.25,1.29-.15.14-.3.26-.46.38-.09.07-.18.13-.28.17-.07.09-.16.16-.26.2-.44.22-.91.39-1.38.5-.24.06-.48.1-.72.11-.2,0-.4-.04-.59-.11-.42-.11-.5-.72-.5-1.06.04-.31.15-.6.31-.84.29-.56.71-1.01,1.22-1.29h0c.51-.4,1.06-.72,1.64-.95.21-.08.42-.13.64-.12.16-.02.33.03.47.12.08.09,0,.54-.12.7-.08.09-.38.39-.55.39-.12.01-.12-.25-.18-.27,0-.05-.15-.09-.35-.09-.02.03-.05.05-.08.08,0,.11-.08.2-.17.2-.08.09-.2.12-.28.25l-.66.39c-.29.25-.55.54-.77.87-.02.22.02.44.11.64.07.11.21.2.31.33.14.07.29.11.44.11.33-.03.65-.09.97-.17.16-.09.33-.17.5-.22l.09-.06c.35-.26.68-.57.98-.9.18-.24.31-.53.38-.84-.18-.35-.31-.74-.36-1.15v-.09s-.02-.08,0-.12c.06-.28.21-.53.43-.67.07,0,.14.03.17.09l.05-.03c.12,0,.48,0,.5.17,0,0,.38.12.66.2.31.02.63.06.9.1.9.07,1.79.25,2.66.53M137.49,65.3c-.26.28-.41.67-.42,1.08.02.07.04.14.07.2v-.09c0-.15.02-.3.07-.44.07-.26.16-.51.28-.75M138.61,64.14c-.09.05-.18.12-.26.2l-.17.19c.15-.11.3-.24.43-.39"/>
    <path class="st2" d="M144.7,67.06h0c-.1-.06-.19-.13-.27-.22-.08-.1-.17-.19-.21-.25-.08-.14-.12-.3-.12-.47,0-.16.03-.32.08-.47.21-.45.48-.87.79-1.23.15-.23.28-.47.42-.66l-.08-.08c0-.07.02-.14.04-.2,0-.04.02-.08,0-.12l.31-.12c.07-.02.13-.03.2-.03h.03c.14-.02.28.03.39.14,0,.02,0,.03.04.06.17-.2.38.14.38.48,0,.11-.02.22-.07.31-.09.05-.11.11-.17.14-.44.25-.44.17-.5.12l-.08.14c-.08.15-.15.31-.21.47,0,.1-.05.19-.09.27-.08.17-.05.33-.17.31l-.05.09c.02.14-.02.29-.11.39v.2c0,.12.21.28.44.28l.11-.03c.67-.23,1.31-.59,1.89-1.04.35-.23.67-.5.98-.75l.51-.42c.2-.16.39-.34.56-.53.09-.11.19-.22.3-.31v-.06c.09-.1.19-.17.31-.22.04-.02.07-.05.11-.08.04-.07.11-.1.17-.08.03-.04.07-.07.11-.1.12-.02.22.08.24.22v.02s.06-.02.09-.02c.16,0,.24.14.24.33-.06.4-.13.8-.23,1.18.02.37.09.74.19,1.09.16.44.32.75.82.76.19-.02.37-.08.54-.17.31-.15.64-.28.95-.45.19-.11.38-.25.6-.39.11-.09.3-.17.38-.25.15-.16.24.02.09.17-.34.31-.72.56-1.11.76-.61.4-1.27.67-1.96.81-.36-.04-.68-.29-.86-.66-.17-.31-.44-.28-.46-1.06-.04-.24-.15-.46-.31-.62-.09-.08-.2-.12-.31-.11-.17,0-.33.06-.47.16-.43.31-.9.62-1.39.97-.23.16-.47.36-.67.48-.17.12-.34.22-.5.33-.08.11-.17.23-.16.25-.11.03-.24.02-.38.06-.22.1-.44.18-.67.25-.05.05-.11.08-.17.09-.09-.11-.54-.08-.54-.17M145,66.45h0c.08.13.15.22.29.22h.05c-.16-.06-.17-.36-.15-.59l-.2-.09c-.05.1-.07.23-.05.34.03.02.05.05.08.06l-.03.06h0ZM145.57,64.72s.06.08.08.12l.15-.3.05-.12s-.04-.03-.04-.06h0c-.09.11-.16.23-.23.36"/>
    <path class="st2" d="M158.44,63.8c0-.27-.08-.53-.23-.73-.31-.17-.6-.3-.75-.2l-2.59,2.42s-.36.3-.38.31c-.05-.01-.1-.01-.15,0,0,0,.03-.02.05-.11h0s.43-.59.54-.72c.05-.05.23-.26.38-.39.17-.15.3-.36.38-.59.86-.92.7-1.04.75-1.42,0-.09-.11-.51-.08-.62,0-.06.23-.28.27-.36.11-.11.32-.03.47,0,.2.03.37.16.48.36.08.06.11.45.17.55.19.31.45.55.76.67.11.06.72.28.79.33.11.06.39.36.4.55,0,.16.04.19.04.28,0,.11-.03.22-.07.33,0,.06-.21.65-.24.7-.15.31-.24.65-.27,1v.06c0,.08.12.2.29.31.25.14.52.18.79.12.29-.02.58-.07.86-.14.19-.04.37-.09.55-.17.16-.09.39-.22.62-.33.15-.08.42-.28.64-.44l.4-.3s.11-.02.13-.02c.15-.08.2-.03.05.11-.39.37-.81.69-1.25.97-.34.17-.74.33-.98.47-.43.11-.87.18-1.32.2-.09.02-.18.02-.27,0-.14,0-.29,0-.43-.01-.09,0-.18-.03-.27-.06-.27-.07-.48-.3-.55-.61-.1-.25-.15-.53-.13-.81,0-.06,0-.5.05-.7,0-.34.08-.67.08-1M156.01,63.97c.39-.25.73-.59,1.01-1,.02-.07.04-.13.08-.19-.19.17-.63.66-.82.84-.28.16-.29.31-.27.34M159.26,64.69c-.05.12-.23.25-.24.3-.05.14,0,.26.05.39.14-.24.25-.51.31-.79l-.12.11h0Z"/>
    <path class="st2" d="M166.77,66.12c.06-.07.12-.14.19-.2.12-.19.33-.16.44-.2.11-.05.67-.38,1.15-.69.21-.12.58-.42.86-.62.32-.33.91-.78,1.13-1.06h0l-.05-.16c-.11,0-.08-.16-.08-.33-.04-.2-.05-.36,0-.44.05-.22.21-.33.38-.52.07-.08.11-.27.18-.33.16-.14.34-.24.54-.3.09-.03.16.05.24.06.11.03.2.05.24.17,0,.02,0,.06-.05.11.04.19,0,.39-.12.53,0,.06-.02.12-.07.16-.11.12-.15.28-.39.59l-.07.17v.16s.43,1.11.72,1.95c.08.22.15.44.2.67.11,0,.22-.02.32-.05.21-.05.47-.06,1.02-.2.22-.05.75-.28.98-.36.18-.1.35-.23.5-.39.06-.04.13-.06.2-.05.11.05.15.2-.05.36-.17.12-.35.2-.54.25-.27.09-.87.36-1.14.42-.42.11-.85.18-1.29.22h0c-.02.09-.06.17-.12.23-.11.12-.23.22-.36.3-.24.14-.49.24-.75.31-.02,0-.05,0-.07.01-.39.15-.8.25-1.21.28-.2.02-.4.03-.6.03s-.4-.01-.59-.03c-.26-.02-.51-.05-.58-.06-.24-.05-.49-.12-.72-.2l-.05-.03s-.14-.05-.19-.06c-.22-.08-.35-.35-.28-.61v-.03s.04-.05.08-.08M169.52,64.45c-.34.39-.98.97-1.33,1.31.59.02,1.53.17,2.01.14.31-.01.62-.01.9-.01v-.51l-.03-.12-.03-.19c-.08-.36-.19-.73-.24-1.05l-.03-.08-.15-.33c-.31.26-.83.61-1.11.84M171.13,66.31v-.19c-.17-.01-.32-.03-.52-.03-.21,0-.42.02-.63.05-.21.03-.75.16-1.11.19-.1.03-.18.11-.22.22,0,.05,0,.11.03.16.22.05.44.08.66.1.67-.05,1.57-.14,1.8-.48M171.22,63.8c0,.09.12.39.2.4,0-.12-.15-.47-.16-.55l-.04.14h0ZM171.85,65.83l.05.05c.06-.17.07-.37,0-.55-.11-.27-.24-.53-.39-.78.09.24.15.49.16.75.03.23.15.34.16.53"/>
    <path class="st2" d="M175.23,66.47c.11-.1.22-.19.33-.28.53-.64,1.08-1.25,1.66-1.82l.63-.59.03-.03c.12-.16.26-.31.4-.44.05,0,.08,0,.09.02h.04c.36-.3.7-.51.85-.47.08.03.16.09.22.17h0c.03.18.07.35.13.51,0,.06-.07.11-.12.17v.14s.02.08,0,.12c.04.05.07.08.03.12,0,0,0,.02-.03.02,0,.3-.05.81-.1,1.37,0,.22.05.43.16.61.09.15.2.27.33.36.1.02.21.03.31.03.3,0,.6-.07.88-.17.22-.08.44-.17.67-.28s.46-.25.67-.39c.31-.2.63-.44.9-.66.08.02.08.17,0,.2-.19.19-.32.42-.55.62-.12.09-.21.06-.33.17-.11.06-.3.09-.4.16-.07.03-.15.12-.2.16-.17.11-.34.2-.52.28-.28.12-.56.19-.9.3-.24.09-.48.14-.72.16-.25.04-.51-.04-.72-.2l-.05-.05-.03-.03c-.08-.1-.13-.22-.13-.36-.1-.4-.18-.82-.23-1.23,0-.09-.04-.23-.05-.37-.03,0,0-.06,0-.12,0-.07.03-.14.05-.2h0c-.07-.11-.14-.19-.21-.27-.44.15-.85.41-1.18.78-.62.59-1.2,1.22-1.76,1.89l-.05.08h0c-.51.6-.97,1.24-1.38,1.93-.97,1.58-1.78,3.3-2.4,5.1-.09.42-.15.85-.2,1.28.06-.03.12-.03.18.02.05.05.09.44.13.51,0,.09-.21.22-.21.3s.19.14.11.25c-.07.06-.12.13-.17.2l-.04.08s-.08.05-.11.08l-.03.02h-.04c-.06.04-.11.08-.17.11-.03.14-.07.28-.13.4v.03c-.07.06-.11.11-.16.11-.06-.01-.12-.06-.15-.12-.22.3-.55-.06-.5-.47.08-.45.15-1.17.28-1.67.24-.91.55-1.8.91-2.65.17-.47.46-1.25.63-1.67.2-.44.56-1.18.86-1.79-.02-.08,0-.17,0-.25l.13-.06.08-.17s-.11-.09-.05-.12c.05-.04.1-.07.16-.08.64-1.4.54-1.29,1.14-2.57.19-.54.34-1.09.46-1.65.04-.14.11-.36.13-.45-.05-.02-.09-.05-.12-.1,0-.06.23-.03.23-.09.02-.03.05-.04.08-.05.19-.18.37-.37.54-.58.14-.17.39-.17.4,0v.17c.08-.05.18.16.23.44.03.17.07.44-.03.58-.09.14-.15.17-.22.17-.02.11-.09.21-.17.26-.07-.06-.5.58-.7.83-.04.06-.07.13-.09.2-.12.26-.27.59-.43.95l-.15.51c-.02.12-.05.24-.09.36-.04.07-.08.13-.13.19-.03.09-.08.17-.13.23,0-.02-.05.05-.11.09l-.72,1.67c-.21.48-.39.89-.55,1.25.47-.78,1.01-1.53,1.41-2.14.39-.58.72-1.15,1.15-1.76v-.11c0-.08.03-.15.07-.22M172.64,69.6c-.04-.2.12-.47.11-.67-.47,1.02-.84,2.1-1.13,3.21.3-.84.64-1.7,1.02-2.54M172.99,68.46l-.05.06s.05-.03.04-.03v-.03M173.68,67.2c-.15.32-.31.63-.5.92l-.04.06.08.03.46-1.01M175.26,64.55c.12-.17.22-.37.29-.58-.08.06-.17.13-.24.2-.02.07-.05.12-.09.17.02.07.03.13.04.2M178.77,64.74c-.12.06-.08.48-.08.58,0,.08,0,.17.03.25,0-.22.03-.51.05-.83"/>
    <path class="st2" d="M182.92,64.77v-.06c0-.06,0-.09.03-.23.04-.04.09-.07.15-.09l.07-.12c-.03-.09-.13-.12-.08-.17.06-.04.13-.06.2-.06.12-.23.26-.45.4-.7.15-.12.33-.2.51-.23,0,0,.04.02.05.02s.03-.06.07-.06c.07,0,.13.04.19.09.17.05.28.23.27.44-.08.12-.17.23-.27.33l-.23.22-.42.54c-.1.31-.17.64-.19.97,0,.28.34.53.55.61.27.05.54.08.82.09.31-.12.75-.14,1.21-.33.61-.25,1.19-.57,1.73-.97.05-.06.15-.02.17,0,.03.02,0,.12-.09.22-.72.54-1.5.97-2.32,1.26-.64.26-1.31.43-1.98.51-.6-.06-1.05-.66-1.03-1.36,0-.32.06-.64.21-.9M183.52,66.33c-.08-.29-.11-.6-.09-.9s.1-.59.26-.84c-.06.1-.11.2-.16.31-.11.33-.18.68-.22,1.03,0,.17.09.33.22.41M183.84,64.28c.08-.12.15-.24.21-.37l.03-.09v-.06l-.21.36v.17h-.03ZM185.54,61.46l-.16.14c-.14.06-.28.08-.43.06-.09.03-.34-.25-.32-.47.04-.37.18-.72.4-1,.07-.1.16-.18.26-.25.03-.12.13-.14.24-.17.06-.03.12-.07.19-.09l.04-.06h.16c.11,0,.23,0,.34.06.05-.03.13-.08.15-.03,0,.05.02.09,0,.14.15.15.22.37.19.59,0,.25-.31.89-.59.92-.05,0-.05-.06-.08-.09s-.04.08-.15.06-.28.11-.34-.28c-.04-.17.14-.53.26-.69-.06,0-.12,0-.17.02-.32.04-.57.34-.6.72,0,.02-.04.16.11.25.15.07.31.09.47.06.08-.03.12.06.04.11"/>
    <path class="st2" d="M191.59,63.8c0-.27-.08-.53-.23-.73-.31-.17-.6-.3-.75-.2l-2.59,2.42s-.36.3-.38.31c-.05-.01-.1-.01-.15,0,0,0,.03-.02.05-.11h0s.43-.59.54-.72c.05-.05.23-.26.38-.39.17-.15.3-.36.38-.59.86-.92.7-1.04.75-1.42,0-.09-.11-.51-.08-.62.09-.13.18-.25.28-.36.11-.11.32-.03.47,0,.2.03.37.16.48.36.08.06.11.45.17.55.19.31.45.55.76.67.11.06.72.28.79.33.11.06.39.36.4.55,0,.16.04.19.04.28,0,.11-.03.22-.07.33,0,.06-.21.65-.24.7-.15.31-.24.65-.27,1v.06c0,.08.12.2.3.31.25.14.52.18.79.12.29-.02.58-.07.86-.14.19-.04.37-.09.55-.17.16-.09.39-.22.62-.33.15-.08.42-.28.64-.44l.4-.3s.11-.02.13-.02c.15-.08.2-.03.05.11-.39.37-.8.69-1.23.97-.34.17-.74.33-.98.47-.43.11-.87.18-1.31.2-.09.02-.18.02-.27,0-.14,0-.29,0-.43-.01-.09,0-.18-.03-.27-.06-.27-.07-.48-.3-.55-.61-.1-.25-.15-.53-.13-.81,0-.06,0-.5.05-.7,0-.33,0-.67.05-1M189.17,63.97c.39-.25.73-.59,1.01-1,.02-.07.04-.13.08-.19-.19.17-.63.66-.83.84-.28.16-.28.31-.26.34M192.41,64.69c-.05.12-.23.25-.24.3-.05.14,0,.26.05.39.14-.24.25-.51.31-.79l-.12.11h0Z"/>
    <path class="st2" d="M196.45,64.77v-.06c0-.06,0-.09.03-.23.04-.04.09-.07.15-.09l.07-.12c-.03-.09-.13-.12-.08-.17.06-.04.13-.06.2-.06.12-.23.26-.45.4-.7.15-.12.33-.2.51-.23,0,0,.04.02.05.02s.03-.06.07-.06c.07,0,.13.04.19.09.17.05.29.23.27.44-.08.12-.17.23-.27.33l-.23.22-.41.54c-.1.31-.17.64-.19.97,0,.28.34.53.55.61.27.05.54.08.82.09.31-.12.75-.14,1.21-.33.61-.25,1.19-.57,1.73-.97.05-.06.15-.02.17,0,.03.02,0,.12-.09.22-.72.54-1.5.97-2.32,1.26-.64.26-1.31.43-1.98.51-.6-.06-1.05-.66-1.03-1.36,0-.32.06-.64.21-.9M197.04,66.33c-.08-.29-.11-.6-.09-.9s.11-.59.26-.84c-.06.1-.11.2-.16.31-.11.33-.18.68-.21,1.03.02.17.09.31.21.41M197.36,64.28c.08-.12.15-.24.21-.37l.03-.09v-.06l-.21.36v.17h-.03ZM199.08,61.46l-.16.14c-.14.06-.28.08-.43.06-.09.03-.34-.25-.32-.47.04-.37.18-.72.4-1,.07-.1.16-.18.26-.25.03-.12.13-.14.24-.17.06-.03.12-.07.19-.09l.04-.06h.16c.11,0,.23,0,.34.06.05-.03.13-.08.15-.03,0,.05.02.09,0,.14.15.15.22.37.19.59,0,.25-.31.89-.59.92-.05,0-.05-.06-.08-.09s-.04.08-.15.06-.28.11-.34-.28c-.04-.17.14-.53.26-.69-.06,0-.12,0-.17.02-.32.04-.57.34-.6.72,0,.02-.04.16.11.25.15.07.31.09.47.06.07-.03.12.06.04.11"/>
    <path class="st2" d="M199.06,59.76h.17c.45.07.89.1,1.34.09.22,0,.43-.02.62-.02.27-.02,1.09-.09,2.01-.12.43-.84.9-1.66,1.41-2.45.27-.44.55-.86.82-1.29,0,0-.03-.02-.05-.02-.03-.02-.05-.04-.07-.06.03-.08.1-.15.17-.17.04-.09.09,0,.15-.11l.03.02c.11-.16.22-.31.34-.45l.05-.09c0-.31.23-.62.4-.39,0,0,.36.58.35.58.05.19.06.39.03.59-.09.25-.4.47-.67.69v.06c.03.09,0,.19-.05.25h.03c-.19.13-.37.3-.51.5-.2.27-.39.57-.55.87-.2.39-.43.39-.62.79v.52s-.04.06-.05.09h.6c.75-.05,1.37-.08,1.58-.09.11-.02,1.27-.17,2.08-.17.26-.03.51,0,.75.12.15.12.31.3.46.44.14.12.17.34.07.5,0,0,0,.02-.02.03l-.75.56c-.08-.02-.21-.02-.17-.22.04-.2.17-.44.11-.59-.2-.28-.48-.45-.79-.48-.36-.02-.72-.05-1.13-.05-.17,0-.34,0-.51.02-.39,0-1.05.06-1.81.09-.08,0-.15.02-.22.02h-.36c-.53.85-1,1.75-1.39,2.7-.11.18-.2.38-.28.58-.23.66-.6,1.92-.7,2.12-.05.25-.09.51-.09.76,0,.29.07.57.17.83.18.09.38.12.58.11.3-.04.59-.11.87-.2.5-.2,1.21-.47,1.5-.64.11-.08.51-.31.91-.53.24-.12.48-.33.6-.39.21-.12.32-.19.36-.11.03.08,0,.17-.05.22-.15.11-.32.31-.4.36-.14.04-.28.1-.4.19-.13.09-.28.16-.44.25-.26.16-.53.27-.82.34-.24.12-.87.47-1.27.7-.36.2-.72.2-1.09.39-.26.13-.55.21-.83.23-.29.03-.57-.16-.68-.47-.05-.14-.07-.29-.07-.44v-.44c.09-.78.28-1.54.56-2.26.48-1.4,1.03-2.77,1.66-4.09-.09.06-.2.09-.24.12-.17-.12-.05.08-.28-.17-.24-.08-1.25.09-.99.02l-.28.03c-.43.06-1.07.23-1.5.33-.38.17-.77.29-1.17.36-.1,0-.21-.02-.28-.11-.08-.14-.13-.31-.12-.48-.02-.16.05-.32.16-.41.13-.06.21-.55.44-.25.12.02.24.19.33.31M201.62,65.83c.02-.08.04-.15.05-.24.15-.58.34-1.11.39-1.42.19-.44.39-.87.62-1.28.11-.28.11-.7.24-1l.32-.73.6-1.31h-.15c-.24.41-.47.81-.68,1.2-.38.72-.72,1.45-1.05,2.23-.19.49-.31,1.01-.35,1.54-.02.21-.03.43-.03.64,0,.12.03.23.03.36M203.84,59.67s.07,0,.11-.02c.04-.08.08-.16.11-.25.03-.08.06-.16.09-.23-.11.17-.2.34-.31.5"/>
    <path class="st2" d="M208.95,66c.09-.15.18-.3.28-.44.09-.14.23-.23.39-.25.18-.01.35.12.4.33.05.15.08.31.08.47,0,.7-.47,1.28-1.07,1.31-.14,0-.27-.03-.39-.11-.2-.13-.33-.37-.34-.64,0-.23.17-.73.43-.73.05,0,.09,0,.13.03.05,0,.05.01.08.03M209.4,66.31c-.14.12-.21.32-.2.52h.05c.25,0,.45-.26.45-.55v-.15c-.11.02-.21.09-.28.19"/>
    <polygon class="st2" points="209.95 56.53 209.54 56.53 209.54 56.27 210.64 56.27 210.64 56.53 210.22 56.53 210.22 57.97 209.95 57.97 209.95 56.53"/>
    <path class="st2" d="M212.14,57.28v-.72c-.05.2-.11.44-.17.65l-.22.73h-.2l-.2-.73c-.05-.22-.11-.45-.15-.65,0,.22,0,.5-.03.72l-.03.69h-.26l.09-1.7h.35l.19.69c.05.2.1.41.14.59.04-.19.09-.39.15-.59l.2-.69h.36l.08,1.7h-.25l-.04-.69h-.01Z"/>
  </g>
</svg>