<?xml version="1.0" encoding="UTF-8"?>
<svg id="Layer_1" xmlns="http://www.w3.org/2000/svg" version="1.1" viewBox="0 0 270 112">
  <!-- Generator: Adobe Illustrator 30.0.0, SVG Export Plug-In . SVG Version: 2.1.1 Build 123)  -->
  <defs>
    <style>
      .st0 {
        fill: #e80000;
      }

      .st1 {
        fill: #fff;
      }
    </style>
  </defs>
  <rect class="st1" width="270" height="112" rx="29" ry="29"/>
  <g>
    <path d="M99.15,39.48c9.14,0,16.59,7.39,16.59,16.47s-7.44,16.46-16.59,16.46-16.57-7.38-16.57-16.46,7.43-16.47,16.57-16.47ZM99.15,36.03c-11.07,0-20.05,8.91-20.05,19.91s8.98,19.91,20.05,19.91,20.05-8.91,20.05-19.91-8.98-19.91-20.05-19.91Z"/>
    <path class="st0" d="M93.91,52.34l.87.23,13.66,3.67,3.02-.71-22.19-5.96-3.25,11.91,5.76-1.36,1.89-6.93.22-.86h.02Z"/>
    <path class="st0" d="M94.54,53.43l-2.64,9.71,20.74-4.86-18.1-4.86h0Z"/>
    <path d="M125.12,71.47h65.79v-.56h-65.79"/>
    <path d="M144.47,61.2c-2.06,1.89-3.9,3.04-6.83,3.04-4.53,0-7.82-3.72-7.82-8.3v-.07c0-4.58,3.29-8.23,7.82-8.23,2.71,0,4.75,1.17,6.66,2.91l.08.08,2.87-3.24-.08-.08c-2.32-2.18-5.04-3.71-9.49-3.71-7.34.01-12.5,5.56-12.51,12.33v.08c.01,6.84,5.27,12.26,12.34,12.27,4.53,0,7.32-1.64,9.84-4.22l.08-.08-2.87-2.86s-.09.08-.09.08Z"/>
    <path d="M155.33,44.01h-4.44v23.87h17.09v-4h-12.65v-19.87Z"/>
    <path d="M187.95,61.13l-.08.07c-2.06,1.89-3.91,3.04-6.83,3.04-4.53,0-7.82-3.72-7.82-8.3v-.07c0-4.58,3.29-8.23,7.82-8.23,2.71,0,4.75,1.17,6.66,2.91l.08.08,2.87-3.24-.08-.08c-2.32-2.18-5.04-3.71-9.49-3.71-7.34.01-12.5,5.56-12.51,12.33v.08c0,6.84,5.27,12.26,12.34,12.27,4.53,0,7.32-1.64,9.84-4.22l.08-.08-2.88-2.84h0Z"/>
    <path d="M125.48,73.08h.44v2.07h1.32v.39h-1.76v-2.46Z"/>
    <path d="M128.41,73.08h1.85v.39h-1.41v.64h1.25v.38h-1.25v.67h1.43v.38h-1.87s0-2.46,0-2.46Z"/>
    <path d="M132.4,73.07h.4l1.1,2.48h-.47l-.26-.59h-1.18l-.26.59h-.45l1.11-2.48h.01ZM133.02,74.57l-.44-.98-.43.98h.87Z"/>
    <path d="M135.05,73.08h1.12c.31,0,.56.09.72.24.14.13.21.31.21.53h0c0,.41-.25.66-.59.76l.67.93h-.51l-.61-.86h-.55v.86h-.44v-2.47h-.02ZM136.13,74.3c.31,0,.51-.17.51-.41h0c0-.28-.19-.42-.51-.42h-.64v.82h.64Z"/>
    <path d="M138.34,73.08h1.86v.4h-1.42v.67h1.26v.39h-1.26v1h-.44v-2.46Z"/>
    <path d="M141.87,73.08h-.44v2.46h.44v-2.46Z"/>
    <path d="M143.26,73.08h1.85v.39h-1.41v.64h1.25v.38h-1.25v.67h1.43v.38h-1.87s0-2.46,0-2.46Z"/>
    <path d="M146.37,73.08h.44v2.07h1.31v.39h-1.75v-2.46Z"/>
    <path d="M149.29,73.08h.93c.78,0,1.33.53,1.33,1.22h0c0,.7-.54,1.24-1.33,1.24h-.93v-2.47h0ZM150.22,75.14c.53,0,.87-.34.87-.83h0c0-.49-.35-.84-.87-.84h-.49v1.67s.49,0,.49,0Z"/>
    <path d="M155.18,72.73h-.35v3.24h.35s0-3.24,0-3.24Z"/>
    <path d="M158.88,73.08h-.44v2.46h.44v-2.46Z"/>
    <path d="M160.26,73.08h.47l.75,1.17.76-1.17h.47v2.46h-.44v-1.76l-.79,1.16h0l-.78-1.14v1.74h-.43v-2.46h-.01Z"/>
    <path d="M163.97,74.32c0-.7.54-1.28,1.29-1.28.44,0,.71.12.96.33l-.28.32c-.19-.17-.38-.27-.69-.27-.46,0-.81.4-.81.87h0c0,.51.34.89.85.89.24,0,.45-.08.6-.19v-.46h-.64v-.38h1.06v1.03c-.25.21-.61.38-1.04.38-.79,0-1.31-.54-1.31-1.26v.02h0Z"/>
    <path d="M169.28,74.32c0-.7.53-1.28,1.29-1.28.46,0,.74.16.97.38l-.28.32c-.2-.18-.41-.3-.69-.3-.48,0-.83.39-.83.87h0c0,.49.35.89.83.89.3,0,.5-.12.72-.32l.28.28c-.26.27-.55.43-1.02.43-.73,0-1.26-.57-1.26-1.27h0Z"/>
    <path d="M172.56,74.32c0-.7.54-1.28,1.31-1.28s1.3.58,1.3,1.27h0c0,.7-.54,1.28-1.31,1.28s-1.3-.58-1.3-1.27ZM174.7,74.32c0-.49-.36-.88-.85-.88s-.84.38-.84.86h0c0,.49.36.89.85.89s.84-.39.84-.87Z"/>
    <path d="M176.42,73.08h.44v2.07h1.31v.39h-1.75v-2.46Z"/>
    <path d="M179.34,73.08h.45v2.07h1.31v.39h-1.76v-2.46Z"/>
    <path d="M182.26,73.08h1.85v.39h-1.41v.64h1.25v.38h-1.25v.67h1.43v.38h-1.87v-2.46Z"/>
    <path d="M185.26,74.32c0-.7.54-1.28,1.29-1.28.44,0,.71.12.96.33l-.28.32c-.19-.17-.38-.27-.69-.27-.46,0-.81.4-.81.87h0c0,.51.34.89.85.89.24,0,.45-.08.6-.19v-.46h-.64v-.38h1.06v1.03c-.25.21-.6.38-1.04.38-.79,0-1.31-.54-1.31-1.26v.02h0Z"/>
    <path d="M188.89,73.08h1.85v.39h-1.41v.64h1.25v.38h-1.25v.67h1.43v.38h-1.87v-2.46Z"/>
  </g>
</svg>