<?xml version="1.0" encoding="UTF-8"?>
<svg id="Layer_1" xmlns="http://www.w3.org/2000/svg" version="1.1" viewBox="0 0 270 112">
  <!-- Generator: Adobe Illustrator 30.0.0, SVG Export Plug-In . SVG Version: 2.1.1 Build 123)  -->
  <defs>
    <style>
      .st0, .st1 {
        fill: #0d2f6a;
        fill-rule: evenodd;
      }

      .st2 {
        fill: #fff;
      }

      .st1 {
        fill-opacity: .5;
      }
    </style>
  </defs>
  <rect class="st2" width="270" height="112" rx="29" ry="29"/>
  <g>
    <path class="st0" d="M128.48,39.86c7.06,0,11.03,4.27,11.95,9.72h-8.46c-.48-1.44-1.7-2.35-3.49-2.35-3.05,0-4.75,2.75-4.75,6.45s1.7,6.45,4.75,6.45c1.79,0,3.01-.92,3.49-2.4h8.46c-.92,5.49-4.88,9.77-11.95,9.77-7.81,0-13.26-5.8-13.26-13.82s5.45-13.82,13.26-13.82Z"/>
    <path class="st0" d="M146.84,67.07h8.46v-26.77h-8.46v26.77Z"/>
    <path class="st0" d="M186.77,67.07h-6.93l-9.77-13.39v13.39h-8.15v-26.77h7.89l8.81,12.47v-12.47h8.15v26.77Z"/>
    <path class="st0" d="M204.96,67.07h-8.5l6.98-19.58h-10.42v-7.19h19.45v5.45l-7.5,21.32h0Z"/>
    <path class="st1" d="M73.24,75.29l4.26,2.05,1.24.6-6.52-28.57h-4.89l5.92,25.92h0Z"/>
    <path class="st1" d="M62.25,70l5.49,2.65-5.31-23.28h-4.89l4.71,20.63Z"/>
    <path class="st1" d="M85.05,62.79l-3.06-13.43h-4.89l5.51,24.14,2.44-10.71Z"/>
    <path class="st0" d="M90.84,74.59l-4.77,2.29,9.11-39.92,3.3,4.13-7.64,33.49h0Z"/>
    <path class="st0" d="M100.38,70l-4.77,2.3,6.18-27.06,3.3,4.14-4.71,20.63h0Z"/>
    <path class="st0" d="M70.73,32.82l-3.3,4.14h19.27l-.94,4.14h-21.63l-3.3,4.14h23.98l-.94,4.14h-26.34l.94,4.14h24.45l-5.44,23.83,3.82,1.84,10.58-46.35h-21.16v-.02Z"/>
  </g>
</svg>