<?xml version="1.0" encoding="UTF-8"?>
<svg id="Layer_1" xmlns="http://www.w3.org/2000/svg" version="1.1" viewBox="0 0 270 112">
  <!-- Generator: Adobe Illustrator 30.0.0, SVG Export Plug-In . SVG Version: 2.1.1 Build 123)  -->
  <defs>
    <style>
      .st0 {
        fill: #fff;
      }

      .st1 {
        fill: #0061ff;
      }
    </style>
  </defs>
  <rect class="st0" width="270" height="112" rx="29" ry="29"/>
  <path class="st1" d="M64.53,44.72l-10.63,6.77,10.63,6.77-10.63,6.77-10.63-6.77,10.63-6.77-10.63-6.77,10.63-6.77s10.63,6.77,10.63,6.77ZM53.87,67.28l10.63-6.77,10.63,6.77-10.63,6.77-10.63-6.77ZM64.53,58.26l10.63-6.77-10.63-6.77,10.63-6.77,10.63,6.77-10.63,6.77,10.63,6.77-10.63,6.77-10.63-6.77Z"/>
  <path d="M94.13,44.72h8.61c5.51,0,10,3.2,10,10.44v1.55c0,7.28-4.24,10.57-9.87,10.57h-8.74v-22.57h0ZM98.94,48.8v14.34h3.7c3.1,0,5.22-2.06,5.22-6.58v-1.17c0-4.53-2.18-6.58-5.38-6.58h-3.54ZM115.3,49.02h3.83l.6,4.24c.73-2.91,2.6-4.4,5.98-4.4h1.17v4.84h-1.96c-3.92,0-4.87,1.36-4.87,5.22v8.36h-4.75s0-18.26,0-18.26ZM127.9,58.55v-.51c0-6.14,3.92-9.43,9.24-9.43s9.21,3.35,9.21,9.43v.51c0,6.01-3.7,9.21-9.21,9.21-5.89,0-9.24-3.2-9.24-9.21ZM141.54,58.48v-.44c0-3.42-1.71-5.41-4.4-5.41s-4.43,1.87-4.43,5.41v.44c0,3.29,1.68,5.13,4.4,5.13s4.43-1.8,4.43-5.13ZM148.85,49.02h3.99l.47,3.48c.98-2.34,3.01-3.89,6.01-3.89,4.65,0,7.69,3.35,7.69,9.49v.51c0,6.01-3.39,9.15-7.69,9.15-2.91,0-4.84-1.3-5.82-3.42v9.21h-4.65s0-24.53,0-24.53ZM162.2,58.52v-.41c0-3.64-1.87-5.44-4.37-5.44-2.66,0-4.43,2.03-4.43,5.41v.35c0,3.23,1.71,5.25,4.34,5.25s4.46-1.8,4.46-5.16h0ZM174.01,63.96l-.38,3.32h-4.11v-24.37h4.65v9.37c1.01-2.37,3.04-3.67,5.92-3.67,4.34.03,7.56,3.04,7.56,9.11v.54c0,6.08-3.04,9.49-7.69,9.49-3.01,0-4.97-1.46-5.95-3.8h0ZM182.87,58.26v-.44c0-3.35-1.84-5.19-4.37-5.19s-4.43,2.12-4.43,5.25v.38c0,3.42,1.74,5.38,4.37,5.38s4.43-1.77,4.43-5.38ZM189.77,58.55v-.51c0-6.14,3.89-9.43,9.21-9.43s9.24,3.35,9.24,9.43v.51c0,6.01-3.73,9.21-9.24,9.21-5.89,0-9.21-3.2-9.21-9.21ZM203.41,58.48v-.44c0-3.42-1.71-5.41-4.4-5.41s-4.43,1.87-4.43,5.41v.44c0,3.29,1.68,5.13,4.4,5.13s4.43-1.8,4.43-5.13ZM214.42,57.82l-6.39-8.8h5.47l3.7,5.48,3.73-5.48h5.44l-6.49,8.77,6.84,9.49h-5.38l-4.21-6.04-4.08,6.04h-5.57l6.93-9.46h.01Z"/>
</svg>