<?xml version="1.0" encoding="UTF-8"?>
<svg id="Layer_1" xmlns="http://www.w3.org/2000/svg" version="1.1" viewBox="0 0 270 112">
  <!-- Generator: Adobe Illustrator 30.0.0, SVG Export Plug-In . SVG Version: 2.1.1 Build 123)  -->
  <defs>
    <style>
      .st0 {
        fill: #fff;
      }
    </style>
  </defs>
  <rect class="st0" width="270" height="112" rx="29" ry="29"/>
  <g>
    <path d="M80.69,31.75h-39.57v48.43h7.93v-26.81h15.16v-2.26h-15.16v-16.98h32.64l-19.48,46.05h2.94l7.27-17.23h21.43l7.33,17.23h8.62l-20.42-48.43h-8.69ZM92.9,60.7h-19.48l9.71-23.18s9.77,23.18,9.77,23.18Z"/>
    <polygon points="153.09 77.87 153.09 31.75 145.16 31.75 145.16 77.87 121.61 77.87 121.61 31.75 113.68 31.75 113.68 80.18 145.16 80.18 147.23 80.18 169.88 80.18 173.33 73.35 165.81 77.87 153.09 77.87"/>
    <path d="M200.35,30.63c-14.66,0-28.59,10.71-28.59,25.31s14.87,25.44,28.59,25.44c14.53,0,28.53-11.46,28.53-25.44,0-14.97-14.99-25.31-28.53-25.31ZM200.35,78.98c-12.47,0-20.47-11.28-20.1-23.06.31-12.78,7.38-22.99,20.1-22.99s19.91,10.52,20.03,22.99c-.25,12.41-7.5,23.06-20.03,23.06Z"/>
  </g>
</svg>