<?xml version="1.0" encoding="UTF-8"?>
<svg id="Layer_1" xmlns="http://www.w3.org/2000/svg" version="1.1" xmlns:xlink="http://www.w3.org/1999/xlink" viewBox="0 0 270 112">
  <!-- Generator: Adobe Illustrator 30.0.0, SVG Export Plug-In . SVG Version: 2.1.1 Build 123)  -->
  <defs>
    <style>
      .st0 {
        fill: #fff;
      }

      .st1 {
        fill: none;
      }

      .st2 {
        fill: #0e2d52;
      }

      .st3 {
        clip-path: url(#clippath);
      }
    </style>
    <clipPath id="clippath">
      <rect class="st1" x="49" y="28" width="173" height="56"/>
    </clipPath>
  </defs>
  <rect class="st0" width="270" height="112" rx="29" ry="29"/>
  <g class="st3">
    <g>
      <path class="st2" d="M171.54,28h4.45v21.5c2.1.26,4.11.49,6.12.77,9.88,1.36,19.7,3.03,29.13,6.5,2.71,1,5.35,2.18,7.66,3.97.72.56,1.41,1.21,1.98,1.93,1.48,1.84,1.54,4,0,5.79-.94,1.09-2.08,2.07-3.29,2.83-3.5,2.21-7.41,3.47-11.34,4.61-7.55,2.19-15.25,3.62-23.01,4.74-3.69.53-7.39.93-11.09,1.39-.16.02-.33.02-.6.04V28h0ZM176.07,76.94c.28-.02.48-.02.67-.05,3.29-.41,6.58-.77,9.86-1.25,6.44-.93,12.83-2.15,19.11-3.89,2.94-.81,5.87-1.7,8.54-3.23.89-.51,1.72-1.2,2.42-1.95.75-.8.67-1.59-.15-2.32-.72-.64-1.52-1.22-2.38-1.66-4.4-2.22-9.11-3.55-13.83-4.81-6.92-1.84-13.98-2.85-21.08-3.55-1.05-.1-2.1-.17-3.17-.25v22.94Z"/>
      <path class="st2" d="M100.75,53.76c-3.07.37-6.67.66-9.74,1.07-9.43,1.25-18.84,2.66-27.89,5.77-2.23.77-4.36,1.87-6.49,2.91-.69.34-1.29.95-1.82,1.54-.63.7-.6,1.29.09,1.94.63.59,1.34,1.13,2.1,1.55,2.72,1.49,5.68,2.34,8.62,3.23,7.36,2.24,14.89,3.71,22.49,4.77,2.68.37,5.37.69,8.12,1.04v-11.7c-1.21.38-2.37.7-3.49,1.11-3.28,1.19-6.53,2.45-9.59,4.18-1.23.7-2.53.34-3.16-.78-.65-1.17-.25-2.44,1.03-3.16,5.76-3.27,11.92-5.35,18.42-6.44.4-.07.82-.07,1.31-.11v21.93c-.8-.07-1.61-.12-2.42-.2-11.7-1.13-23.27-2.99-34.58-6.34-3.56-1.06-7.07-2.26-10.25-4.25-1.12-.7-2.19-1.56-3.09-2.54-1.99-2.16-1.88-4.62.14-6.76,1.78-1.88,4-3.08,6.31-4.13,5.15-2.34,10.57-3.79,16.06-5.01,7.83-1.74,15.75-2.9,23.73-3.72,1.34-.14,2.68-.28,4.12-.43,0,1.45.01,2.82-.02,4.19"/>
      <path class="st2" d="M103.26,49.06c11.45-.99,22.87-1.41,34.41-1.35v36.28h-4.56v-19.01c-.91.14-1.72.2-2.5.39-5.07,1.29-9.9,3.19-14.53,5.63-.79.42-1.58.64-2.42.18-.74-.4-1.13-1.05-1.18-1.9-.05-.93.33-1.65,1.14-2.05,2.17-1.08,4.32-2.21,6.54-3.16,3.66-1.56,7.42-2.83,11.38-3.41.5-.07,1-.11,1.56-.18v-8.19c-8.46-.04-16.91.18-25.4.86v29.97c-1.51-.12-2.94-.23-4.45-.35v-33.72Z"/>
      <path class="st2" d="M140.62,47.56c9.7.07,19.33.51,28.99,1.36v4.49c-4.1-.32-8.16-.7-12.24-.93-4.06-.23-8.12-.31-12.28-.46v31.73h-4.48v-36.19Z"/>
      <path class="st2" d="M212.01,77.6c1.48,0,2.62,1.17,2.62,2.65s-1.15,2.68-2.64,2.68-2.67-1.17-2.67-2.68,1.18-2.65,2.67-2.65h.02ZM211.97,78.07c-1.18,0-2.08.98-2.08,2.18s.9,2.2,2.12,2.2c1.16.02,2.05-.97,2.05-2.18s-.89-2.2-2.07-2.2h-.02ZM211.51,81.72h-.51v-2.78c.28-.05.57-.08.95-.08.46,0,.69.08.85.22.16.12.28.33.28.6,0,.33-.25.55-.53.65v.03c.23.1.36.32.44.68.08.42.15.58.21.68h-.52c-.08-.1-.15-.35-.23-.72-.07-.32-.25-.45-.62-.45h-.33v1.17h0ZM211.51,80.15h.35c.36,0,.71-.12.71-.43,0-.27-.18-.47-.66-.47-.2,0-.31.02-.39.03v.87Z"/>
    </g>
  </g>
</svg>