<?xml version="1.0" encoding="UTF-8"?>
<svg id="Layer_1" xmlns="http://www.w3.org/2000/svg" version="1.1" viewBox="0 0 270 112">
  <!-- Generator: Adobe Illustrator 30.0.0, SVG Export Plug-In . SVG Version: 2.1.1 Build 123)  -->
  <defs>
    <style>
      .st0 {
        fill: #fff;
      }

      .st1 {
        fill: #0072cc;
      }
    </style>
  </defs>
  <rect class="st0" width="270" height="112" rx="29" ry="29"/>
  <g>
    <path class="st1" d="M96.2,35.02c-.32,0-.63,0-.94.02l-4.3,11.81h3.74c2.22,0,3.42,1.71,2.66,3.81l-5.29,14.55h-4.45l5.69-15.6h-3.33l-5.69,15.6h-4.44l6.67-18.37,4.03-11.05c-4.48,1.25-8.42,3.96-11.2,7.69-2.78,3.73-4.23,8.29-4.14,12.94s1.72,9.14,4.64,12.77c2.92,3.62,6.96,6.18,11.49,7.25l3.9-10.72,6.87-18.89h8.2c2.22,0,3.42,1.72,2.66,3.82l-4.65,12.79c-.21.5-.56.94-1.01,1.25-.45.31-.98.49-1.52.52h-5.9l-4.29,11.79h.62c5.57,0,10.91-2.2,14.84-6.14,3.94-3.94,6.15-9.28,6.15-14.85s-2.21-10.91-6.15-14.85-9.28-6.15-14.84-6.15h-.02ZM105.56,49.6l-4.68,12.84h3.35l4.68-12.84h-3.35Z"/>
    <path d="M129.93,67.01v-22.55h13.52v2.42h-10.79v7.62h9.78v2.42h-9.78v10.08h-2.73,0ZM150.37,44.46v22.55h-2.6v-22.55h2.6ZM162,67.35c-1.53,0-2.87-.36-4.02-1.09-1.14-.73-2.04-1.74-2.69-3.05-.64-1.31-.96-2.83-.96-4.58s.32-3.3.96-4.61c.65-1.31,1.54-2.33,2.69-3.06s2.49-1.09,4.02-1.09,2.86.36,4.01,1.09,2.05,1.75,2.69,3.06c.65,1.31.97,2.85.97,4.61s-.32,3.27-.97,4.58c-.64,1.31-1.53,2.32-2.69,3.05-1.14.73-2.48,1.09-4.01,1.09ZM162,65.03c1.16,0,2.11-.3,2.86-.89s1.3-1.38,1.66-2.34c.36-.97.54-2.02.54-3.15s-.18-2.18-.54-3.16-.91-1.77-1.66-2.37-1.7-.9-2.86-.9-2.11.3-2.86.9c-.75.6-1.3,1.39-1.66,2.37s-.54,2.03-.54,3.16.18,2.18.54,3.15.91,1.75,1.66,2.34,1.7.89,2.86.89ZM176.88,67.01l-5.15-16.91h2.73l3.65,12.95h.18l3.61-12.95h2.77l3.57,12.9h.18l3.65-12.9h2.73l-5.15,16.91h-2.55l-3.7-12.99h-.26l-3.7,12.99s-2.56,0-2.56,0Z"/>
  </g>
</svg>