<svg width="270" height="112" viewBox="0 0 270 112" fill="none" xmlns="http://www.w3.org/2000/svg">
<rect width="270" height="112" rx="29" fill="white"/>
<g clip-path="url(#clip0_68_14413)">
<mask id="mask0_68_14413" style="mask-type:luminance" maskUnits="userSpaceOnUse" x="100" y="24" width="70" height="63">
<path d="M170 24H100V86.3467H170V24Z" fill="white"/>
</mask>
<g mask="url(#mask0_68_14413)">
<path d="M104.698 82.7766L102.917 73.6766H100.179V86.3466H102.085V78.4055L103.936 86.3466H105.468L107.125 78.39V86.3466H109.038V73.6766H106.401L104.698 82.7766Z" fill="black"/>
<path d="M113.067 73.6921L110.912 86.3466H112.903L113.37 83.4378H115.361L115.805 86.3466H117.811L115.688 73.6921H113.067ZM113.658 81.5788L114.366 76.5933L115.073 81.5788H113.658Z" fill="black"/>
<path d="M125.714 78.5455V76.71C125.714 75.7921 125.496 75.0844 125.06 74.5711C124.563 73.9878 123.785 73.6921 122.719 73.6921H119.709V86.3466H121.615V81.5788H122.719C122.781 81.5788 122.836 81.5788 122.89 81.5788L124.049 86.3466H126.11L124.695 80.8244C125.371 80.2021 125.714 79.44 125.714 78.5455ZM123.855 78.5844C123.855 78.8878 123.746 79.1444 123.536 79.3621C123.326 79.58 123.069 79.6888 122.766 79.6888H121.615V75.6366H122.766C123.489 75.6366 123.855 76.0021 123.855 76.7411V78.5844Z" fill="black"/>
<path d="M134.3 73.6766H132.262L129.929 78.1956V73.6766H128.023V86.3466H129.929V82.3333L130.505 81.2056L132.503 86.3466H134.751L131.687 78.8488L134.3 73.6766Z" fill="black"/>
<path d="M136.586 86.3466H142.023V84.4256H138.5V80.9723H141.074V79.0511H138.5V75.5978H142.023V73.6766H136.586V86.3466Z" fill="black"/>
<path d="M143.618 75.6055H145.648V86.3466H147.554V75.6055H149.576V73.6921H143.618V75.6055Z" fill="black"/>
<path d="M153.021 73.6921H151.116V86.3466H153.021V73.6921Z" fill="black"/>
<path d="M159.414 82.1933L156.879 73.6766H154.74V86.3466H156.646V78.2344L159.274 86.3466H161.32V73.6766H159.414V82.1933Z" fill="black"/>
<path d="M169.619 78.0244V76.6399C169.619 75.8544 169.347 75.0766 168.802 74.5011C168.203 73.8633 167.464 73.5444 166.586 73.5444C165.808 73.5444 165.038 73.8555 164.478 74.3999C163.871 74.9911 163.56 75.7144 163.56 76.57V83.5155C163.56 84.34 163.856 85.0555 164.447 85.6466C164.454 85.6544 164.462 85.6621 164.462 85.6621C164.61 85.8099 164.773 85.9344 164.944 86.0355C165.979 86.65 167.27 86.2921 167.993 85.3821V86.1678H169.611V83.2121C169.611 83.1578 169.611 83.1033 169.611 83.0333V79.6966H166.578V81.6178H167.636V83.5078C167.636 83.8111 167.527 84.0678 167.309 84.2778C167.091 84.4878 166.834 84.5966 166.531 84.5966C166.228 84.5966 165.971 84.4878 165.761 84.2778C165.551 84.0678 165.442 83.8111 165.442 83.5078V76.5466C165.442 76.2433 165.551 75.9866 165.761 75.7688C165.971 75.5511 166.228 75.4421 166.531 75.4421C166.834 75.4421 167.091 75.5511 167.309 75.7688C167.527 75.9866 167.636 76.2433 167.636 76.5466V78.0321H169.619V78.0244Z" fill="black"/>
<path d="M162.829 70.83H170L160.589 24H151.116L142.023 70.83H149.101L150.851 60.7188H160.822L162.829 70.83ZM151.971 54.2322L155.487 33.9089L159.531 54.2322H151.971Z" fill="#C32031"/>
<path d="M123.854 59.6145V24H116.963V59.0933C116.963 61.8233 114.747 64.04 112.017 64.04C109.287 64.04 107.07 61.8233 107.07 59.0933V58.7511H100C100 65.1988 105.056 70.5578 111.496 70.8145C111.768 70.8222 112.048 70.83 112.328 70.83C112.919 70.8067 113.479 70.7678 114.016 70.7055C119.639 70.0678 123.854 65.2611 123.854 59.6145Z" fill="#C32031"/>
<path d="M137.543 48.5855C136.805 49.41 136.011 50.0322 135.171 50.4522C134.331 50.8722 133.39 51.0822 132.332 51.0822C131.5 51.0822 130.722 50.9422 129.991 50.6545C129.26 50.3667 128.622 49.9545 128.086 49.4178C127.549 48.8811 127.129 48.22 126.818 47.4422C126.507 46.6645 126.351 45.7778 126.351 44.7822C126.351 44.0588 126.46 43.3822 126.686 42.7522C126.911 42.1222 127.215 41.5622 127.604 41.0567C127.992 40.5511 128.436 40.1078 128.926 39.7188C129.416 39.33 129.937 38.98 130.489 38.6922C129.991 38.0078 129.571 37.3155 129.229 36.6311C128.895 35.9467 128.723 35.1378 128.723 34.22C128.723 33.4967 128.856 32.8356 129.128 32.2444C129.392 31.6533 129.75 31.1478 130.201 30.7278C130.652 30.3078 131.166 29.9811 131.741 29.7556C132.317 29.53 132.924 29.4133 133.538 29.4133C134.23 29.4133 134.883 29.5222 135.506 29.74C136.128 29.9578 136.665 30.2767 137.124 30.6967C137.582 31.1167 137.94 31.6456 138.212 32.2678C138.477 32.8978 138.617 33.6211 138.617 34.4456C138.617 35.6822 138.298 36.7245 137.668 37.5645C137.038 38.4045 136.26 39.1122 135.327 39.68L137.707 43.0088C137.894 42.62 138.041 42.2078 138.15 41.7878C138.251 41.3678 138.329 40.94 138.384 40.5045H141.572C141.487 41.4455 141.292 42.3555 141.005 43.2422C140.709 44.1288 140.305 44.9378 139.791 45.6845L143.556 50.6778H139.052L137.543 48.5855ZM132.441 41.4067C132.115 41.5622 131.796 41.7567 131.485 41.9822C131.174 42.2078 130.901 42.4645 130.652 42.7445C130.411 43.0322 130.217 43.3511 130.069 43.7011C129.921 44.0511 129.851 44.4478 129.851 44.8755C129.851 45.2722 129.921 45.63 130.069 45.9645C130.217 46.2988 130.411 46.5867 130.652 46.8355C130.894 47.0845 131.174 47.2788 131.492 47.4267C131.811 47.5745 132.146 47.6445 132.488 47.6445C133.141 47.6445 133.717 47.4733 134.207 47.1311C134.697 46.7888 135.164 46.3378 135.591 45.7933L132.441 41.4067ZM134.915 32.8122C134.58 32.4233 134.184 32.2211 133.732 32.2211C133.281 32.2211 132.892 32.3922 132.566 32.7344C132.239 33.0767 132.076 33.5278 132.076 34.0722C132.076 34.7411 132.231 35.3089 132.542 35.7755C132.854 36.25 133.18 36.7245 133.53 37.2145C134.051 36.8411 134.495 36.4367 134.868 36.0088C135.241 35.5811 135.428 34.9822 135.428 34.2122C135.42 33.6756 135.257 33.2011 134.915 32.8122Z" fill="black"/>
</g>
</g>
<defs>
<clipPath id="clip0_68_14413">
<rect width="70" height="63" fill="white" transform="translate(100 24)"/>
</clipPath>
</defs>
</svg>
