<svg width="270" height="112" viewBox="0 0 270 112" fill="none" xmlns="http://www.w3.org/2000/svg">
<rect width="270" height="112" rx="29" fill="white"/>
<path d="M86.55 72.0436L89.9501 63.8479H90.8L93.9167 72.0436H93.0667L91.9334 69.5001H88.25L87.4 72.0436H86.55ZM90.2334 64.6957L88.5334 68.9349H91.65L90.2334 64.6957Z" fill="#29518D"/>
<path d="M100.717 69.5001H101.567C101.567 70.9131 102.417 71.7609 104.117 71.7609C104.683 71.7609 105.25 71.7609 105.533 71.4783C106.1 71.1957 106.383 70.6305 106.383 70.0653C106.383 69.2175 105.817 68.9349 104.683 68.6522L102.983 68.087C101.85 67.8044 101 67.2392 101 66.1088C101 65.5436 101.283 64.9783 101.567 64.6957C102.133 64.1305 102.7 63.8479 103.833 63.8479C104.683 63.8479 105.533 64.1305 106.1 64.4131C106.667 64.9783 106.95 65.5436 106.95 66.3914H106.1C106.1 65.8262 105.817 65.2609 105.533 64.9783C105.25 64.6957 104.683 64.4131 104.117 64.4131C103.55 64.4131 102.983 64.4131 102.7 64.6957C102.417 64.9783 102.133 65.5436 102.133 66.1088C102.133 66.674 102.417 67.2392 103.267 67.2392L105.25 67.8044C106.667 68.087 107.517 68.9349 107.517 70.0653C107.517 70.6305 107.233 70.9131 106.95 71.4783C106.383 72.0435 105.533 72.3262 104.4 72.3262C103.267 72.3262 102.7 72.0436 102.133 71.7609C101 71.1957 100.717 70.3479 100.717 69.5001Z" fill="#29518D"/>
<path d="M114.317 69.5001H115.167C115.167 70.9131 116.017 71.7609 117.717 71.7609C118.283 71.7609 118.85 71.7609 119.133 71.4783C119.7 71.1957 119.983 70.6305 119.983 70.0653C119.983 69.2175 119.417 68.9349 118.283 68.6522L116.583 68.087C115.45 67.8044 114.6 67.2392 114.6 66.1088C114.6 65.5436 114.883 64.9783 115.167 64.6957C115.733 64.1305 116.3 63.8479 117.433 63.8479C118.283 63.8479 119.133 64.1305 119.7 64.4131C120.267 64.9783 120.55 65.5436 120.55 66.3914H119.7C119.7 65.8262 119.417 65.2609 119.133 64.9783C118.85 64.6957 118.283 64.4131 117.717 64.4131C117.15 64.4131 116.583 64.4131 116.3 64.6957C116.017 64.9783 115.733 65.5436 115.733 66.1088C115.733 66.674 116.017 67.2392 116.867 67.2392L118.85 67.8044C120.267 68.087 121.117 68.9349 121.117 70.0653C121.117 70.6305 120.833 70.9131 120.55 71.4783C119.983 72.0435 119.133 72.3262 118 72.3262C116.867 72.3262 116.3 72.0436 115.733 71.7609C114.6 71.1957 114.317 70.3479 114.317 69.5001Z" fill="#29518D"/>
<path d="M127.917 68.087C127.917 66.9566 128.2 65.8262 128.767 64.9784C129.333 64.1305 130.467 63.5653 131.6 63.5653C132.733 63.5653 133.867 64.1305 134.433 64.9784C135 65.8262 135.283 66.674 135.283 68.087C135.283 69.2175 135 70.3479 134.433 71.1957C133.867 72.0436 132.733 72.6088 131.6 72.6088C130.467 72.6088 129.333 72.0436 128.767 71.1957C128.2 70.3479 127.917 69.2175 127.917 68.087ZM128.483 68.087C128.483 68.9349 128.767 69.7827 129.333 70.6305C129.9 71.4784 130.75 71.761 131.6 71.761C132.45 71.761 133.3 71.4784 133.867 70.6305C134.433 70.0653 134.717 69.2175 134.717 68.087C134.717 67.2392 134.433 66.3914 133.867 65.5436C133.3 64.6957 132.45 64.4131 131.6 64.4131C130.467 64.4131 129.9 64.6957 129.333 65.5436C128.767 66.1088 128.483 66.9566 128.483 68.087Z" fill="#29518D"/>
<path d="M149.733 66.3913H149.167C149.167 65.8261 148.6 65.2609 148.317 64.9782C147.75 64.6956 147.183 64.413 146.617 64.413C145.483 64.413 144.917 64.6956 144.35 65.5435C143.783 66.1087 143.5 66.9565 143.5 68.0869C143.5 69.2174 143.783 69.7826 144.35 70.6304C144.917 71.4782 145.767 71.7609 146.617 71.7609C147.467 71.7609 148.033 71.4782 148.317 70.913C148.883 70.3478 149.167 69.7826 149.167 68.9348H150.017C150.017 70.0652 149.45 70.6304 148.883 71.4782C148.317 72.0435 147.467 72.3261 146.617 72.3261C145.483 72.3261 144.35 71.7609 143.783 70.913C143.217 70.0652 142.933 69.2174 142.933 67.8043C142.933 66.6739 143.217 65.5435 143.783 64.6956C144.35 63.8478 145.483 63.2826 146.617 63.2826C147.467 63.2826 148.033 63.5652 148.883 63.8478C149.45 64.9782 149.733 65.5435 149.733 66.3913Z" fill="#29518D"/>
<path d="M157.667 72.0436V63.8479H158.517V72.0436H157.667Z" fill="#29518D"/>
<path d="M165.6 72.0436L169 63.8479H169.85L172.967 72.0436H172.117L170.983 69.5001H167.3L166.45 72.0436H165.6ZM169.283 64.6957L167.583 68.9349H170.7L169.283 64.6957Z" fill="#29518D"/>
<path d="M179.2 64.6957V64.1305H185.717V64.6957H182.883V72.0435H182.033V64.4131H179.2V64.6957Z" fill="#29518D"/>
<path d="M192.8 72.0436V63.8479H198.467V64.4131H193.65V67.2392H198.183V67.8044H193.65V70.9131H198.467V72.0436H192.8Z" fill="#29518D"/>
<path d="M205.55 69.5001H206.4C206.4 70.9131 207.25 71.7609 208.95 71.7609C209.517 71.7609 210.083 71.7609 210.367 71.4783C210.933 71.1957 211.217 70.6305 211.217 70.0653C211.217 69.2175 210.65 68.9349 209.517 68.6522L207.817 68.087C206.683 67.8044 205.833 67.2392 205.833 66.1088C205.833 65.5436 206.117 64.9783 206.4 64.6957C206.967 64.1305 207.533 63.8479 208.667 63.8479C209.517 63.8479 210.367 64.1305 210.933 64.4131C211.5 64.9783 211.783 65.5436 211.783 66.3914H210.933C210.933 65.8262 210.65 65.2609 210.367 64.9783C210.083 64.6957 209.517 64.4131 208.95 64.4131C208.383 64.4131 207.817 64.4131 207.533 64.6957C207.25 64.9783 206.967 65.5436 206.967 66.1088C206.967 66.674 207.25 67.2392 208.1 67.2392L210.083 67.8044C211.5 68.087 212.35 68.9349 212.35 70.0653C212.35 70.6305 212.067 70.9131 211.783 71.4783C211.217 72.0435 210.367 72.3262 209.233 72.3262C208.1 72.3262 207.533 72.0436 206.967 71.7609C205.55 71.1957 205.267 70.3479 205.55 69.5001Z" fill="#29518D"/>
<path d="M209.8 56.5C209.8 56.5 217.733 55.3696 216.317 51.1305C216.317 51.1305 214.333 49.1522 209.8 50.8479C205.833 52.2609 206.967 55.3696 206.967 55.3696C206.967 55.3696 202.433 55.6522 199.317 57.0653C199.317 57.0653 199.6 53.3913 196.483 53.9566C193.65 54.8044 188.55 56.5 188.55 56.5C188.55 56.5 184.3 57.3479 184.017 54.5218C184.017 54.5218 184.3 52.8261 173.533 56.5C173.533 56.5 165.6 59.3261 170.417 53.9566C170.417 53.9566 170.417 52.5435 165.883 55.087C161.35 57.6305 151.433 56.5 152.85 51.1305C152.85 51.1305 163.333 42.3696 160.217 34.1739C160.217 34.1739 159.083 32.1957 155.117 37.8479C151.15 43.7826 150.583 51.6957 150.583 51.6957C150.583 51.6957 144.067 50 138.967 53.9566C135 57.0653 122.25 60.1739 128.483 52.5435C128.483 52.5435 128.2 51.6957 123.95 52.2609C123.95 52.2609 123.667 52.2609 123.383 50.8479C123.383 50.8479 122.25 49.1522 121.683 51.9783C121.683 51.9783 120.267 56.2174 106.667 57.6305C106.667 57.6305 112.9 51.4131 105.25 51.9783C105.25 51.9783 101.85 52.5435 99.8667 53.9566C97.8833 55.087 81.45 58.4783 81.45 58.4783C81.45 58.4783 81.45 58.1957 81.7333 58.1957C81.7333 58.1957 81.7333 58.1957 81.7333 57.9131C81.7333 57.9131 81.7333 57.9131 81.7333 57.6305C81.7333 57.3479 82.0167 57.0653 82.0167 57.0653L82.3 56.7826C82.3 56.7826 82.3 56.7826 82.3 56.5C82.3 56.5 82.3 56.2174 82.5833 56.2174C82.5833 56.2174 82.5833 56.2174 82.5833 55.9348C82.8667 55.6522 82.8667 55.3696 83.15 55.087C83.15 55.087 83.15 55.087 83.15 54.8044V54.5218C83.4333 54.2392 83.4333 53.9566 83.7167 53.6739C83.7167 53.6739 83.7167 53.6739 83.7167 53.3913C83.7167 53.1087 84 53.1087 84 52.8261C84 52.8261 84 52.8261 84 52.5435C84 52.2609 84.2833 52.2609 84.2833 51.9783C84.5667 51.4131 84.85 51.1305 85.1333 50.5652C85.1333 50.5652 85.4167 50.2826 85.4167 50C85.4167 49.7174 85.7 49.4348 85.7 49.4348V49.1522C85.7 48.8696 85.9833 48.8696 85.9833 48.587C86.2667 48.3044 86.2667 47.7392 86.55 47.4566V47.1739C86.55 46.8913 86.8333 46.8913 86.8333 46.6087C86.8333 46.3261 87.1167 46.0435 87.1167 45.7609C87.1167 45.7609 87.1167 45.4783 87.4 45.4783C87.6833 44.6305 88.25 44.0653 88.5333 43.2174C88.5333 43.2174 88.5333 43.2174 88.5333 42.9348C88.5333 42.9348 88.5333 42.9348 88.5333 42.6522C88.5333 42.6522 88.5333 42.6522 88.5333 42.3696V42.087C88.5333 41.8044 88.8167 41.5218 88.8167 41.5218C88.8167 41.5218 88.8167 41.5218 88.8167 41.2392C89.1 40.3913 89.3833 39.8261 89.6667 38.9783C92.5 38.9783 92.5 38.6957 92.5 38.4131C92.5 38.4131 92.5 38.4131 92.5 38.1305C92.5 37.8479 92.5 37.8479 92.7833 37.5653C93.9167 32.4783 94.4833 30.7826 94.4833 29.087C94.4833 29.087 94.4833 29.087 94.4833 28.8044C94.4833 28.8044 94.4833 28.8044 94.4833 28.5218C94.4833 28.5218 94.4833 28.5218 94.4833 28.2392V27.9566C94.2 25.6957 91.9333 25.4131 90.8 26.2609C89.6667 27.1087 78.9 37.8479 78.3333 53.6739C78.3333 53.6739 62.1833 51.9783 55.3833 53.3913C43.2 54.8044 55.6667 58.1957 55.6667 58.1957C55.6667 58.1957 49.4333 53.3913 63.8833 54.2392C78.3333 55.087 80.0333 55.9348 80.0333 55.9348C80.0333 55.9348 78.05 43.5 85.9833 33.0435L89.6667 28.5218C89.6667 28.5218 94.4833 24 91.9333 31.6305C90.2333 38.6957 86.8333 46.6087 78.9 60.7392C78.9 60.7392 62.75 66.3913 57.3667 71.4783C51.9833 76.5653 51.1333 79.9566 50.85 82.2174C50.85 84.4783 51.7 89.8479 60.7667 86.4566C60.7667 86.4566 71.8167 79.6739 81.45 61.3044C81.45 61.3044 88.25 58.7609 99.5833 57.3479C99.5833 57.3479 99.3 62.4348 106.1 59.0435C106.1 59.0435 118.567 59.0435 123.1 55.3696H124.8C124.8 55.3696 123.1 64.6957 139.533 56.5C139.533 56.5 141.233 64.4131 151.433 54.2392C151.433 54.2392 150.867 63 167.3 57.0653C167.3 57.0653 163.9 63 180.05 57.0653C180.05 57.0653 181.183 55.6522 180.333 60.1739C180.333 60.1739 180.9 61.3044 193.65 56.7826C193.65 56.7826 195.067 55.9348 195.633 59.0435C195.633 59.0435 195.35 61.3044 201.583 58.4783C208.1 55.6522 207.533 56.7826 207.533 56.7826C207.533 56.7826 212.35 63.5652 219.717 57.6305C220 57.6305 212.917 59.0435 209.8 56.5ZM155.967 40.9566C159.083 36.4348 156.817 39.5435 158.233 37.8479C159.367 36.1522 160.5 35.8696 159.933 38.1305C159.367 40.6739 158.233 43.7826 153.417 49.7174C153.417 50 152.85 45.4783 155.967 40.9566ZM59.6333 84.7609C53.9667 87.8696 51.9833 86.174 52.8333 82.2174C53.4 78.2609 57.3667 74.8696 59.35 73.1739C65.8667 67.8044 77.4833 62.1522 77.7667 62.1522C70.6833 74.587 65.0167 81.6522 59.6333 84.7609ZM105.25 57.9131C103.267 59.0435 101.567 59.0435 101 58.1957C100.717 57.3479 101.85 55.9348 103.55 55.087C105.533 53.9566 107.233 53.9566 107.8 54.8044C108.367 55.3696 107.233 56.7826 105.25 57.9131ZM146.05 56.7826C143.783 57.6305 141.8 57.6305 141.517 57.0653C141.233 56.2174 142.933 55.087 145.2 54.2392C147.467 53.3913 149.45 53.3913 149.733 53.9566C150.017 54.5218 148.317 55.9348 146.05 56.7826ZM208.667 54.8044C208.383 54.2392 209.233 52.8261 210.65 52.2609C212.067 51.4131 213.767 51.4131 214.05 52.2609C214.333 52.8261 213.483 54.2392 212.067 54.8044C210.367 55.3696 208.95 55.3696 208.667 54.8044Z" fill="#29518D"/>
<path d="M94.2001 27.3914C94.4834 29.9348 94.2001 30.7827 92.7834 37.5653C91.0834 43.7827 82.3001 58.4783 82.0167 59.0435C82.3001 58.4783 90.8001 43.7827 92.7834 37.5653C94.2001 30.7827 94.7667 29.9348 94.2001 27.3914Z" fill="#29518D"/>
<path d="M175.8 40.1087C174.95 41.8043 173.817 42.9348 173.25 42.6522C172.4 42.3695 172.4 40.6739 173.25 38.9782C174.1 37.2826 175.233 36.1522 175.8 36.4348C176.367 37 176.367 38.413 175.8 40.1087Z" fill="#29518D"/>
</svg>
