<?xml version="1.0" encoding="UTF-8"?>
<svg id="Layer_1" xmlns="http://www.w3.org/2000/svg" version="1.1" viewBox="0 0 270 112">
  <!-- Generator: Adobe Illustrator 30.0.0, SVG Export Plug-In . SVG Version: 2.1.1 Build 123)  -->
  <defs>
    <style>
      .st0 {
        fill: #fff;
      }

      .st1 {
        fill: #ed0024;
      }
    </style>
  </defs>
  <rect class="st0" width="270" height="112" rx="29" ry="29"/>
  <g>
    <path class="st1" d="M192.99,26.29v7.11s-29.76,27.63-34.86,35.55c-5.1,7.92-6.23,16.52-6.23,16.52-17.5-.02-17.44-.07-27.22.01-10.22.08-18.78-4.81-11.06-15.39,1.25-1.73,2.73-3.38,3.94-5.11,1.09-1.55,2.75-3.69.93-5.33-1.5-1.35-3.64-1.53-5.93-1.61l-10.54,17.57-18.32-.03,30.33-49.58h19.68l-17.45,26.32c2.61,0,6.11-.19,8.03-1.29,2.68-1.53,4.51-3.79,5.11-4.61.15-.2,1.34-1.6,1.34-1.6h15.69c-.52.67-.95,1.4-1.45,2.09-1.77,2.44-3.86,4.66-6.45,6.24-1.4.85-2.92,1.48-4.5,1.96-2.75.83-6.86,1.45-10.82,1.6,4.99,2.51,9.13,7.35,5.9,14.97l.84-.82c6.35-8.9,13.71-13.43,24.98-17.68,7.48-2.84,13.97-8.53,18.92-13.66v-1.75h-13.71c-6.6,0-9.43-.22-11.04,2.18-.09.13-.44.62-1.46,2.21l-15.53.03,5.1-8.16s4.48-7.75,11.91-7.75h43.85l.02.02h0ZM77.01,85.53l20.5.03,4.58-8.03h-20.19l-4.89,8.01h0Z"/>
    <path class="st1" d="M162.46,82.12c.51.26.78.69,1.06,1.13.2.32.4.63.6.95.03.05.06.09.09.16h-.82c-.2-.3-.38-.61-.58-.91-.18-.26-.35-.52-.53-.77-.07-.1-.17-.2-.26-.28-.16-.13-.34-.22-.55-.22h-.95v2.19h-.65v-4.94h2.35c.21,0,.41.03.62.06.52.1.89.5.96,1.03.11.81-.3,1.39-1.13,1.58-.06.01-.12.03-.22.05M160.53,81.58s.05.01.07.01h1.57c.19,0,.37-.05.55-.12.31-.13.44-.4.43-.74,0-.32-.18-.56-.49-.66-.18-.06-.36-.09-.54-.09-.41-.01-.83,0-1.24,0h-.33v1.63-.02h-.01Z"/>
    <path class="st1" d="M161.86,86c-2.25,0-4.08-1.83-4.08-4.08s1.83-4.08,4.08-4.08,4.08,1.83,4.08,4.08-1.83,4.08-4.08,4.08M161.86,78.34c-1.97,0-3.58,1.61-3.58,3.58s1.6,3.57,3.58,3.57,3.57-1.6,3.57-3.57-1.6-3.58-3.57-3.58"/>
  </g>
</svg>