<?xml version="1.0" encoding="UTF-8"?>
<svg id="Layer_1" xmlns="http://www.w3.org/2000/svg" version="1.1" viewBox="0 0 270 112">
  <!-- Generator: Adobe Illustrator 30.0.0, SVG Export Plug-In . SVG Version: 2.1.1 Build 123)  -->
  <defs>
    <style>
      .st0 {
        fill: #ea098b;
      }

      .st1 {
        fill: #ffde00;
      }

      .st2 {
        fill: #fff;
      }

      .st3 {
        fill: none;
      }

      .st4 {
        fill: #16ace3;
      }
    </style>
  </defs>
  <rect class="st2" width="270" height="112" rx="29" ry="29"/>
  <polygon class="st3" points="67.19 52.63 67.19 59.37 71.97 64.14 78.71 64.14 83.48 59.37 83.48 52.63 78.7 47.86 71.97 47.86 67.19 52.63"/>
  <path class="st3" d="M188.83,42.32h-5.75v9.34h5.75c3.43,0,5.4-1.58,5.4-4.73s-1.97-4.61-5.4-4.61Z"/>
  <polygon class="st3" points="163.84 74.17 166.02 74.17 164.93 71.59 163.84 74.17"/>
  <path class="st3" d="M115.86,71.41c-1.12.02-2.01.93-2.02,2.05,0,1.15.95,2.07,2.09,2.06,1.14-.02,2.04-.96,2.02-2.09-.02-1.14-.96-2.04-2.09-2.02Z"/>
  <path class="st3" d="M140.94,71.43h-1.38v2.3h1.38c.9,0,1.41-.38,1.41-1.17s-.51-1.13-1.41-1.13Z"/>
  <path class="st3" d="M194.53,71.43h-1.38v2.3h1.38c.9,0,1.41-.38,1.41-1.17s-.51-1.13-1.41-1.13Z"/>
  <path class="st3" d="M220.96,71.43h-1.29v2.3h1.29c.9,0,1.4-.38,1.4-1.17s-.51-1.13-1.4-1.13Z"/>
  <path class="st3" d="M203.19,71.41c-1.12.02-2.01.93-2.02,2.05,0,1.15.95,2.07,2.09,2.06,1.14-.02,2.04-.96,2.02-2.09-.02-1.14-.96-2.04-2.09-2.02Z"/>
  <path d="M173.15,60.1l-3.66-3.98c-1.89,1.96-4.45,3.11-7.17,3.23-4.61-.05-8.34-3.78-8.39-8.39-.05-4.69,3.7-8.54,8.39-8.59,2.56,0,5.28,1.42,7.17,3.59l3.63-4.41c-2.89-2.88-6.8-4.52-10.88-4.57-8.36,0-14.7,5.95-14.7,13.95s6.23,14.11,14.46,14.11c4.22-.12,8.22-1.89,11.15-4.93h0Z"/>
  <path d="M193.8,64.75h7.05l-5.87-9.11c3.35-1.58,5.16-4.65,5.16-8.91,0-6.11-4.1-9.58-11.31-9.58h-11.98v27.59h6.23v-7.88h6.34l4.37,7.88h0ZM188.83,51.66h-5.75v-9.34h5.75c3.42,0,5.4,1.46,5.4,4.61s-1.97,4.73-5.4,4.73Z"/>
  <polygon points="211.62 59.31 211.62 37.16 205.39 37.16 205.39 64.74 223.44 64.74 223.44 59.31 211.62 59.31"/>
  <path d="M115.92,70.52h-.15c-1.7.08-3.01,1.53-2.93,3.23.08,1.7,1.53,3.01,3.23,2.93,1.7-.08,3.01-1.53,2.93-3.23v-.07c-.06-1.64-1.44-2.92-3.07-2.86h-.01ZM115.93,75.52c-1.15,0-2.08-.92-2.09-2.06,0-1.12.9-2.03,2.02-2.05,1.14-.02,2.07.88,2.09,2.02s-.88,2.07-2.02,2.09Z"/>
  <polygon points="124.56 75.27 122.77 70.55 122.77 70.55 121.71 70.55 124.02 76.36 125.03 76.36 127.38 70.55 126.36 70.55 124.56 75.27"/>
  <polygon points="131.64 73.88 134.48 73.88 134.48 73 131.64 73 131.64 71.43 134.81 71.43 134.81 70.55 134.81 70.55 130.66 70.55 130.66 76.36 134.91 76.36 134.91 75.48 131.64 75.48 131.64 73.88"/>
  <polygon points="142.27 76.36 142.27 76.36 142.27 76.36 142.27 76.36"/>
  <path d="M142.07,74.41c.77-.29,1.26-1.06,1.2-1.88,0-1.26-.85-1.98-2.34-1.98h-2.36v5.81h.98v-1.75h1.65l1.06,1.76h1.1l-1.3-1.94v-.02ZM140.94,73.73h-1.38v-2.3h1.38c.9,0,1.41.34,1.41,1.13s-.52,1.17-1.41,1.17Z"/>
  <path d="M147.96,72.03c0-.39.38-.6.95-.6.6.03,1.19.22,1.7.54l.41-.86c-.6-.39-1.31-.6-2.03-.6-1.26,0-2.12.62-2.12,1.62,0,2.07,3.13,1.35,3.13,2.64,0,.45-.41.7-1.09.7-.74-.04-1.43-.34-1.97-.85l-.42.85c.65.59,1.5.91,2.37.92,1.28,0,2.19-.64,2.19-1.67,0-2.09-3.13-1.41-3.13-2.68h0Z"/>
  <polygon points="155.7 73.88 158.53 73.88 158.53 73 155.7 73 155.7 71.43 158.86 71.43 158.86 70.55 158.86 70.55 154.72 70.55 154.72 76.36 158.96 76.36 158.96 75.48 155.7 75.48 155.7 73.88"/>
  <path d="M164.45,70.55l-2.56,5.81h1.02l.56-1.31h2.93l.56,1.31h1.05l-2.54-5.81h-1.02ZM163.84,74.17l1.09-2.58,1.09,2.58h-2.19.01Z"/>
  <path d="M172.09,72.03c0-.39.38-.6.95-.6.6.03,1.19.22,1.7.54l.41-.86c-.6-.39-1.31-.6-2.03-.6-1.26,0-2.12.62-2.12,1.62,0,2.07,3.13,1.35,3.13,2.64,0,.45-.41.7-1.09.7-.74-.04-1.43-.34-1.97-.85l-.42.85c.65.59,1.5.91,2.37.92,1.28,0,2.19-.64,2.19-1.67,0-2.09-3.13-1.41-3.13-2.68h0Z"/>
  <path d="M186.11,71.4c.62,0,1.22.24,1.67.66l.56-.72c-.63-.52-1.42-.81-2.23-.81h-.28c-1.62.06-2.89,1.43-2.83,3.05s1.43,2.89,3.05,2.83c.81-.01,1.6-.28,2.26-.76v-2.14h-.85v1.62c-.4.25-.86.39-1.34.4h-.1c-1.14-.03-2.04-.97-2.02-2.11.03-1.14.97-2.04,2.11-2.02h0Z"/>
  <polygon points="195.86 76.36 195.86 76.36 195.86 76.36 195.86 76.36"/>
  <path d="M195.66,74.41c.77-.29,1.26-1.06,1.2-1.88,0-1.26-.85-1.98-2.34-1.98h-2.36v5.81h.98v-1.75h1.65l1.06,1.76h1.1l-1.3-1.94v-.02ZM194.53,73.73h-1.38v-2.3h1.38c.9,0,1.41.34,1.41,1.13s-.52,1.17-1.41,1.17Z"/>
  <path d="M203.26,70.52h-.15c-1.7.08-3.01,1.53-2.93,3.23.08,1.7,1.53,3.01,3.23,2.93s3.01-1.53,2.93-3.23v-.07c-.06-1.64-1.44-2.92-3.07-2.86h0ZM203.27,75.52c-1.15,0-2.08-.92-2.09-2.06,0-1.12.9-2.03,2.02-2.05,1.14-.02,2.07.88,2.09,2.02.02,1.14-.88,2.07-2.02,2.09Z"/>
  <path d="M213.82,73.95v.26c-.06.79-.75,1.38-1.54,1.31h-.23c-.8-.07-1.39-.77-1.33-1.57v-3.4h-.98v3.4c0,1.52.96,2.45,2.53,2.45s2.52-.93,2.52-2.45v-3.4h-.98v3.4h0Z"/>
  <path d="M221,70.55h-2.31v5.81h.98v-1.75h1.34c1.46,0,2.3-.77,2.3-2.08s-.84-1.98-2.3-1.98h0ZM220.96,73.73h-1.29v-2.3h1.29c.9,0,1.4.37,1.4,1.13s-.51,1.17-1.4,1.17Z"/>
  <polygon points="52.2 40.86 49.79 40.86 49.79 57.18 57.39 49.58 65.12 57.3 65.12 53.78 52.2 40.86"/>
  <polygon class="st4" points="57.39 52.51 46.56 63.35 46.56 63.35 58.11 74.9 58.11 64.14 69.02 64.14 57.39 52.51"/>
  <polygon class="st4" points="60.19 66.23 60.19 81.55 76.53 81.55 68.91 73.94 76.62 66.23 60.19 66.23"/>
  <polygon class="st0" points="71.85 73.94 82.68 84.77 94.23 73.22 83.48 73.22 83.48 62.31 71.85 73.94"/>
  <polygon class="st0" points="85.56 71.15 100.88 71.15 100.88 54.82 93.27 62.43 93.27 62.42 85.56 54.71 85.56 71.15"/>
  <polygon class="st1" points="81.64 47.86 93.27 59.49 104.11 48.65 92.56 37.1 92.56 47.86 81.64 47.86"/>
  <polygon class="st1" points="90.48 45.78 90.48 30.46 74.15 30.46 81.76 38.06 74.04 45.78 90.48 45.78"/>
  <rect x="57.42" y="31.61" width="18.72" height="15.32" transform="translate(-8.21 58.72) rotate(-45)"/>
  <polygon points="128.46 54.03 120.42 37.16 113.46 37.16 113.46 64.74 119.09 64.74 119.09 46.14 126.42 61.95 130.48 61.95 137.81 46.14 137.81 64.74 143.4 64.74 143.4 37.16 136.47 37.16 128.46 54.03"/>
</svg>