<?xml version="1.0" encoding="UTF-8"?>
<svg id="Layer_1" xmlns="http://www.w3.org/2000/svg" version="1.1" xmlns:xlink="http://www.w3.org/1999/xlink" viewBox="0 0 270 112">
  <!-- Generator: Adobe Illustrator 30.0.0, SVG Export Plug-In . SVG Version: 2.1.1 Build 123)  -->
  <defs>
    <style>
      .st0 {
        fill: #fff;
      }

      .st1 {
        fill: #11416a;
      }

      .st2 {
        fill: url(#linear-gradient);
      }
    </style>
    <linearGradient id="linear-gradient" x1="138.34" y1="85.45" x2="85.65" y2="31.01" gradientTransform="translate(0 114) scale(1 -1)" gradientUnits="userSpaceOnUse">
      <stop offset="0" stop-color="#11416a"/>
      <stop offset="1" stop-color="#fff"/>
    </linearGradient>
  </defs>
  <rect class="st0" width="270" height="112" rx="29" ry="29"/>
  <rect class="st0" width="270" height="112" rx="29" ry="29"/>
  <path class="st1" d="M168.34,42.32h-18.52v-15.56h-6.4v36.95h6.4v-15.45h12.58c-.56,5.12-2.57,9.97-5.81,14-3.24,4.03-7.56,7.08-12.47,8.78s-10.21,2-15.29.85c-5.08-1.15-9.72-3.69-13.39-7.34l-4.2,4.16c4.7,4.63,10.68,7.78,17.19,9.06,6.51,1.27,13.26.61,19.38-1.91,6.13-2.52,11.36-6.77,15.04-12.23,3.68-5.46,5.64-11.87,5.63-18.43,0-.98-.06-1.94-.14-2.88Z"/>
  <path class="st2" d="M134.92,12c-4.41,0-8.77.86-12.85,2.53-4.07,1.67-7.77,4.12-10.89,7.2-3.12,3.08-5.59,6.74-7.27,10.77-1.69,4.03-2.55,8.34-2.55,12.7,0,1.03.06,2.06.15,3.07h18.48v15.45h6.4v-25.89l14.91,22.53v-10.83l-14.91-22.76h-6.4v15.56h-12.48c.53-5.14,2.52-10.03,5.75-14.09,3.23-4.06,7.56-7.14,12.49-8.86,4.93-1.72,10.25-2.03,15.35-.88,5.1,1.15,9.76,3.71,13.44,7.38l4.16-4.11c-3.11-3.1-6.82-5.56-10.9-7.23-4.08-1.68-8.46-2.54-12.87-2.53Z"/>
  <path class="st1" d="M107.87,100.71l-7.59-11.72h-.04v11.72h-2.24v-15.16h2.45l7.47,11.54h.04v-11.54h2.24v15.16h-2.32Z"/>
  <path class="st1" d="M117.37,95.2v-2.03h9.71c-.02,1.53-.5,3.02-1.37,4.29-.87,1.27-2.1,2.25-3.53,2.83-1.43.58-3.01.73-4.53.43-1.52-.3-2.92-1.03-4.02-2.11-1.1-1.08-1.86-2.45-2.17-3.95s-.18-3.06.39-4.48c.57-1.42,1.55-2.65,2.82-3.52,1.27-.88,2.77-1.36,4.32-1.4,1.44-.03,2.86.34,4.1,1.07,1.24.72,2.25,1.77,2.92,3.03h-2.62c-.51-.65-1.16-1.18-1.91-1.54-.75-.36-1.57-.54-2.41-.53-2.98,0-5.56,2.79-5.56,5.78-.03,1.52.55,2.98,1.6,4.09,1.05,1.1,2.5,1.75,4.04,1.81,1.18.01,2.33-.35,3.3-1.02.96-.68,1.68-1.64,2.06-2.74h-7.15Z"/>
  <path class="st1" d="M132.53,85.57h1.53v13.77h6.35v1.37h-7.88v-15.14Z"/>
  <path class="st1" d="M151.32,100.71h-1.48v-2.11h-.04c-.39.78-1.03,1.41-1.82,1.79-.79.39-1.66.58-2.54.58-.23,0-.46-.01-.69-.04-.23-.03-.47-.07-.69-.13-.67-.15-1.31-.4-1.89-.75-.65-.39-1.23-.87-1.72-1.44-.06-.07-.12-.15-.2-.25-.09-.11-.16-.23-.22-.36-.21-.41-.37-.84-.49-1.28-.15-.54-.22-1.11-.22-1.67,0-.74.15-1.48.45-2.16.28-.66.69-1.26,1.2-1.77.54-.56,1.19-1.02,1.9-1.34.8-.35,1.67-.52,2.54-.5h.1c.87.01,1.72.23,2.5.61.78.38,1.41,1,1.79,1.77l.04-.02v-2.13h1.48v11.21ZM142.2,92.02c-.43.4-.78.89-1.01,1.44-.23.54-.35,1.13-.33,1.72,0,.59.11,1.17.35,1.7.24.54.59,1.01,1.03,1.4.86.82,2.01,1.27,3.21,1.26.58,0,1.15-.1,1.68-.33.53-.22,1.01-.56,1.4-.97.42-.39.75-.87.97-1.39.23-.52.34-1.09.34-1.66.01-.59-.09-1.17-.31-1.71-.22-.55-.54-1.04-.96-1.46-.41-.43-.9-.76-1.45-.99-.55-.23-1.14-.33-1.73-.32-1.2,0-2.35.48-3.2,1.32Z"/>
  <path class="st1" d="M152.38,85.57h1.53v6.02h.04c.31-.66.82-1.2,1.45-1.56.64-.38,1.36-.62,2.1-.72.13-.02.25-.02.37-.03.12,0,.23,0,.34,0,1.6-.02,3.14.57,4.31,1.65.59.52,1.06,1.16,1.38,1.87.32.72.47,1.49.46,2.27,0,.67-.11,1.34-.34,1.98-.18.52-.45,1.02-.78,1.47-.03.06-.06.11-.1.16-.04.05-.08.09-.13.13-.29.33-.6.63-.93.91-.28.24-.59.45-.91.62-.42.24-.88.41-1.36.51-.48.09-.96.13-1.44.13-.2,0-.4,0-.59-.03-.21-.02-.41-.05-.61-.09-.66-.13-1.3-.37-1.89-.69-.58-.31-1.06-.78-1.39-1.36l-.04-.02v1.92h-1.45v-15.13ZM156.49,91.08c-.56.23-1.06.57-1.48,1-.42.4-.74.89-.93,1.43-.19.55-.28,1.12-.27,1.7-.01.58.1,1.16.33,1.69.23.53.58,1.01,1.01,1.4.87.81,2.02,1.25,3.21,1.23.59.01,1.17-.1,1.71-.32.54-.22,1.03-.56,1.44-.98.42-.41.75-.89.98-1.43.23-.54.34-1.12.33-1.7.02-.59-.09-1.17-.32-1.72-.23-.54-.57-1.03-1.01-1.44-.43-.41-.94-.73-1.49-.94-.55-.21-1.15-.32-1.74-.3-.6,0-1.2.12-1.75.36Z"/>
  <path class="st1" d="M164.76,97.41h1.53v.1c0,.27.05.53.15.77.1.25.25.47.44.65.19.19.41.35.66.45.25.1.52.16.79.15.52.01,1.03-.17,1.41-.52.19-.17.34-.37.44-.61.1-.23.15-.48.14-.73.03-.28-.02-.57-.14-.82-.12-.26-.3-.48-.53-.65-.47-.31-.98-.54-1.52-.68-.06-.02-.11-.03-.18-.05-.06-.02-.13-.05-.2-.07-.31-.09-.6-.21-.89-.34-.29-.13-.56-.31-.79-.52-.3-.27-.53-.6-.69-.97-.15-.37-.23-.76-.23-1.16-.01-.42.07-.84.24-1.23s.42-.74.74-1.02c.62-.58,1.45-.9,2.3-.88.41,0,.82.07,1.2.22.38.15.72.38,1.01.68.29.27.53.6.69.97.16.37.24.76.24,1.16l-1.53-.02c0-.22-.03-.43-.12-.63s-.22-.37-.39-.51c-.35-.28-.8-.43-1.25-.42-.21,0-.41.04-.6.11-.19.08-.36.19-.51.34-.15.14-.27.31-.35.5-.08.19-.12.39-.11.6-.03.25.02.5.13.73.11.23.28.42.49.55.43.25.89.44,1.37.58.8.23,1.55.6,2.23,1.08.33.26.58.6.75.98.16.38.23.8.19,1.22.01.47-.07.95-.25,1.39-.18.44-.45.84-.79,1.17-.35.33-.76.58-1.22.75-.45.17-.93.25-1.42.23-.45,0-.9-.08-1.31-.25-.42-.17-.79-.43-1.1-.75-.33-.31-.59-.67-.77-1.08s-.27-.85-.26-1.3v-.19Z"/>
</svg>