<?xml version="1.0" encoding="UTF-8"?>
<svg id="Layer_1" xmlns="http://www.w3.org/2000/svg" version="1.1" xmlns:xlink="http://www.w3.org/1999/xlink" viewBox="0 0 270 112">
  <!-- Generator: Adobe Illustrator 30.0.0, SVG Export Plug-In . SVG Version: 2.1.1 Build 123)  -->
  <defs>
    <style>
      .st0 {
        fill: #a7a6a7;
      }

      .st1 {
        fill: #f9f9fa;
      }

      .st2 {
        fill: #b0b1b1;
      }

      .st3 {
        fill: #eceae9;
      }

      .st4 {
        fill: #8f9090;
      }

      .st5 {
        fill: #c6c4c4;
      }

      .st6 {
        fill: #e0dede;
      }

      .st7 {
        fill: #9b9c9d;
      }

      .st8 {
        fill: #c2bfbf;
      }

      .st9 {
        fill: #979898;
      }

      .st10 {
        fill: #fafbfc;
      }

      .st11 {
        fill: #a8a6a7;
      }

      .st12 {
        fill: #ebe8e8;
      }

      .st13 {
        fill: #f0eeee;
      }

      .st14 {
        mask: url(#mask-1);
      }

      .st15 {
        fill: #969697;
      }

      .st16 {
        fill: #9a9a9a;
      }

      .st17 {
        fill: #e1e0e0;
      }

      .st18 {
        fill: #e8e7e6;
      }

      .st19 {
        fill: #d2d2d0;
      }

      .st20 {
        fill: #c9c6c6;
      }

      .st21 {
        fill: #f3f1f1;
      }

      .st22 {
        fill: #919293;
      }

      .st23 {
        fill: #c2c2c2;
      }

      .st24 {
        fill: #f3f2f2;
      }

      .st25 {
        fill: #d9d8d7;
      }

      .st26 {
        fill: #b7b7b8;
      }

      .st27 {
        fill: #c1c0c1;
      }

      .st28 {
        fill: #f1efee;
      }

      .st29 {
        fill: #9b9c9c;
      }

      .st30 {
        fill: #a9a8a8;
      }

      .st31 {
        fill: #9f9f9f;
      }

      .st32 {
        fill: #a0a1a0;
      }

      .st33 {
        fill: #cac9c9;
      }

      .st34 {
        fill: #919393;
      }

      .st35 {
        fill: #8f8f8f;
      }

      .st36 {
        fill: #a4a4a4;
      }

      .st37 {
        fill: #bdbcbc;
      }

      .st38 {
        fill: #fff;
      }

      .st39 {
        mask: url(#mask);
      }

      .st40 {
        fill: #bfbdbc;
      }

      .st41 {
        fill: #cfcecf;
      }

      .st42 {
        fill: #d6d5d5;
      }

      .st43 {
        fill: #d7d7d6;
      }

      .st44 {
        fill: #d9d8d9;
      }

      .st45 {
        fill: #b1afb0;
      }

      .st46 {
        fill: #dcdada;
      }

      .st47 {
        fill: #e9e9e9;
      }

      .st48 {
        fill: #959696;
      }

      .st49 {
        fill: #c0bebe;
      }

      .st50 {
        fill: #bcbaba;
      }

      .st51 {
        fill: none;
      }

      .st52 {
        fill: #cfcdcd;
      }

      .st53 {
        fill: #c4c3c3;
      }

      .st54 {
        fill: #969798;
      }

      .st55 {
        fill: #d7d6d5;
      }

      .st56 {
        fill: #b2b2b2;
      }

      .st57 {
        fill: #9a9b9b;
      }

      .st58 {
        fill: #e5e4e4;
      }

      .st59 {
        fill: #d4d3d4;
      }

      .st60 {
        fill: #f0eeef;
      }

      .st61 {
        fill: #f5f6f6;
      }

      .st62 {
        fill: #939495;
      }

      .st63 {
        fill: #929392;
      }

      .st64 {
        fill: #dddddc;
      }

      .st65 {
        fill: #d7d6d7;
      }

      .st66 {
        fill: #231f20;
      }

      .st67 {
        fill: #bdbdbd;
      }

      .st68 {
        fill: #8f9191;
      }

      .st69 {
        fill: #d0d1d1;
      }

      .st70 {
        fill: #bab9b9;
      }

      .st71 {
        fill: #b6b7b7;
      }

      .st72 {
        fill: #e6e4e5;
      }

      .st73 {
        fill: #9f9ea0;
      }

      .st74 {
        fill: #dad9d8;
      }

      .st75 {
        fill: #b0b0b0;
      }

      .st76 {
        fill: #979999;
      }

      .st77 {
        fill: #9f9fa0;
      }

      .st78 {
        fill: #acabac;
      }

      .st79 {
        fill: #939393;
      }

      .st80 {
        fill: #bcbcbb;
      }

      .st81 {
        fill: #bbbaba;
      }

      .st82 {
        fill: #a5a5a6;
      }

      .st83 {
        fill: #dbdad9;
      }

      .st84 {
        fill: #c1bfbf;
      }

      .st85 {
        fill: #989899;
      }

      .st86 {
        fill: #c5c3c3;
      }

      .st87 {
        fill: #c9c8c8;
      }

      .st88 {
        fill: #cfcfce;
      }

      .st89 {
        fill: #9a9a9b;
      }

      .st90 {
        fill: #cbcaca;
      }

      .st91 {
        fill: #b6b5b5;
      }

      .st92 {
        fill: #d0d0d0;
      }

      .st93 {
        fill: #919191;
      }

      .st94 {
        fill: #909190;
      }

      .st95 {
        fill: #b4b4b4;
      }

      .st96 {
        fill: #c3c2c2;
      }

      .st97 {
        fill: #c8c5c5;
      }

      .st98 {
        fill: #f2f1ef;
      }

      .st99 {
        fill: #c9c7c7;
      }

      .st100 {
        fill: #e3e3e2;
      }

      .st101 {
        fill: #949595;
      }

      .st102 {
        fill: #c5c3c4;
      }

      .st103 {
        fill: #bcbab9;
      }

      .st104 {
        fill: #a2a1a2;
      }

      .st105 {
        fill: #e9e8e7;
      }

      .st106 {
        fill: #eae9e8;
      }

      .st107 {
        fill: #bcbbbb;
      }

      .st108 {
        fill: #cccbca;
      }

      .st109 {
        fill: #e0dfdf;
      }

      .st110 {
        fill: #f4f4f4;
      }

      .st111 {
        fill: #b3b3b3;
      }

      .st112 {
        fill: #d4d3d2;
      }

      .st113 {
        fill: #bebdbd;
      }

      .st114 {
        fill: #949596;
      }

      .st115 {
        fill: #f6f6f5;
      }

      .st116 {
        fill: #d3d2d2;
      }

      .st117 {
        fill: #a4a4a5;
      }

      .st118 {
        fill: #e4e4e3;
      }

      .st119 {
        fill: #aeaeae;
      }

      .st120 {
        fill: #949494;
      }

      .st121 {
        fill: #ababab;
      }

      .st122 {
        fill: #aaa;
      }

      .st123 {
        fill: #29518d;
      }

      .st124 {
        fill: #e8e7e7;
      }

      .st125 {
        fill: #b6b6b6;
      }

      .st126 {
        fill: #edebea;
      }

      .st127 {
        fill: #ebe9ea;
      }

      .st128 {
        fill: #b0aeaf;
      }

      .st129 {
        fill: #939595;
      }

      .st130 {
        fill: #adadad;
      }

      .st131 {
        fill: #c8c6c6;
      }

      .st132 {
        fill: #f7f8f8;
      }

      .st133 {
        fill: #9e9e9f;
      }

      .st134 {
        fill: #ededed;
      }

      .st135 {
        fill: #b7b7b7;
      }

      .st136 {
        fill: #cfcdcc;
      }

      .st137 {
        fill: #a1a1a1;
      }

      .st138 {
        fill: #afadae;
      }

      .st139 {
        fill: #dfdddd;
      }

      .st140 {
        fill: #d1d1cf;
      }

      .st141 {
        fill: #d9d8d6;
      }

      .st142 {
        fill: #b9b8b8;
      }

      .st143 {
        fill: #cac8c6;
      }

      .st144 {
        fill: #d5d4d3;
      }

      .st145 {
        fill: #c2c1c1;
      }

      .st146 {
        fill: #e2e1e1;
      }

      .st147 {
        fill: #cecccb;
      }

      .st148 {
        fill: #9c9c9d;
      }

      .st149 {
        fill: #adacac;
      }

      .st150 {
        fill: #dbdada;
      }

      .st151 {
        clip-path: url(#clippath);
      }

      .st152 {
        fill: #c1bebe;
      }

      .st153 {
        fill: #999a9a;
      }

      .st154 {
        fill: #e3e2e3;
      }

      .st155 {
        fill: #909292;
      }

      .st156 {
        fill: #eeeded;
      }

      .st157 {
        fill: #959697;
      }

      .st158 {
        fill: #b5b5b5;
      }

      .st159 {
        fill: #a3a3a2;
      }

      .st160 {
        fill: #989898;
      }

      .st161 {
        fill: #a8a8a9;
      }

      .st162 {
        fill: #afafaf;
      }

      .st163 {
        fill: #b5b6b6;
      }
    </style>
    <clipPath id="clippath">
      <rect class="st51" x="48" y="32" width="173.23" height="48.33"/>
    </clipPath>
    <mask id="mask" x="83.86" y="39.1" width="26.57" height="27.87" maskUnits="userSpaceOnUse">
      <g id="mask0_68_14411">
        <path class="st38" d="M83.86,53.04c0,7.7,5.95,13.94,13.28,13.94s13.29-6.24,13.29-13.94-5.95-13.93-13.29-13.93-13.28,6.24-13.28,13.93Z"/>
      </g>
    </mask>
    <mask id="mask-1" x="78.38" y="33.08" width="38.36" height="40.23" maskUnits="userSpaceOnUse">
      <g id="mask1_68_14411">
        <path class="st38" d="M84.98,53.19c0-7.28,5.63-13.19,12.58-13.19s12.58,5.9,12.58,13.19-5.63,13.19-12.58,13.19-12.58-5.91-12.58-13.19ZM80.77,53.19c0,9.72,7.51,17.6,16.78,17.6s16.78-7.88,16.78-17.6-7.51-17.6-16.78-17.6-16.78,7.88-16.78,17.6Z"/>
      </g>
    </mask>
  </defs>
  <rect class="st38" width="270" height="112" rx="29" ry="29"/>
  <rect class="st38" width="270" height="112" rx="29" ry="29"/>
  <g class="st151">
    <g>
      <path class="st123" d="M76.23,36.71v33.91h-3.91c-.5.02-1-.08-1.45-.29-.46-.25-.85-.59-1.17-1.01l-15.25-20.23c.06.61.1,1.19.12,1.76.02.57.03,1.1.03,1.59v18.18h-6.61v-33.92h3.95c.27,0,.55.01.82.05.21.03.41.09.6.18.19.09.36.21.51.36.2.2.39.41.56.63l15.38,20.37c-.07-.65-.12-1.29-.15-1.9-.03-.61-.04-1.19-.04-1.74v-17.94h6.61,0Z"/>
      <path class="st66" d="M114.23,53.66c.02,2.34-.39,4.66-1.21,6.84-.76,2.04-1.92,3.91-3.41,5.5-1.49,1.58-3.29,2.83-5.29,3.67-4.41,1.77-9.34,1.77-13.75,0-2.01-.84-3.82-2.09-5.32-3.67-1.49-1.59-2.65-3.46-3.42-5.5-.82-2.19-1.23-4.51-1.21-6.84-.02-2.34.39-4.66,1.21-6.84.76-2.04,1.93-3.91,3.42-5.49,1.5-1.57,3.31-2.82,5.32-3.66,4.41-1.77,9.34-1.77,13.75,0,2,.85,3.8,2.1,5.29,3.67,1.49,1.59,2.64,3.46,3.41,5.49.82,2.18,1.23,4.49,1.21,6.82h0ZM106.55,53.66c.02-1.53-.19-3.06-.62-4.53-.36-1.24-.97-2.4-1.79-3.41-.77-.93-1.75-1.66-2.85-2.14-1.21-.52-2.52-.77-3.84-.75-1.33-.02-2.65.23-3.87.75-1.11.48-2.09,1.21-2.86,2.14-.82,1.01-1.42,2.16-1.78,3.41-.43,1.47-.64,3-.62,4.53-.02,1.54.19,3.07.62,4.55.36,1.24.97,2.4,1.78,3.41.77.93,1.75,1.66,2.86,2.13,1.23.51,2.54.76,3.87.73,1.32.02,2.62-.23,3.84-.73,1.1-.48,2.08-1.21,2.85-2.13.82-1.01,1.43-2.17,1.79-3.41.43-1.48.64-3.01.62-4.55h0Z"/>
      <path class="st123" d="M145.1,70.63h-6.79c-.55.04-1.09-.08-1.57-.35-.48-.26-.88-.66-1.14-1.14l-5.38-9.85c-.21-.37-.49-.68-.84-.92-.41-.22-.87-.32-1.33-.29h-1.91v12.55h-7.5v-33.91h10.52c2.02-.04,4.04.21,5.98.76,1.48.41,2.85,1.13,4.04,2.11,1.01.86,1.79,1.95,2.27,3.19.48,1.28.72,2.63.71,4,0,1.05-.14,2.1-.42,3.12-.28.96-.69,1.88-1.24,2.71-.56.84-1.24,1.59-2.03,2.22-.84.67-1.78,1.21-2.79,1.61.5.27.96.6,1.38.99.45.42.83.89,1.15,1.41l6.88,11.8h.01ZM129.17,52.66c.89.02,1.77-.12,2.61-.41.67-.24,1.27-.62,1.76-1.13.46-.48.8-1.06,1-1.69.21-.67.32-1.38.31-2.08.04-.65-.07-1.3-.31-1.9-.24-.6-.61-1.15-1.08-1.59-1.23-.94-2.76-1.38-4.3-1.26h-3.02v10.06h3.03Z"/>
      <path class="st123" d="M177.18,53.66c.02,2.32-.39,4.62-1.21,6.79-.76,2-1.92,3.83-3.41,5.38-1.5,1.54-3.3,2.74-5.29,3.54-2.18.87-4.52,1.3-6.87,1.27h-12.56v-33.91h12.56c2.35-.03,4.69.4,6.87,1.28,1.99.8,3.79,2.01,5.29,3.54,1.49,1.54,2.64,3.36,3.4,5.36.82,2.16,1.23,4.45,1.21,6.76h0ZM169.49,53.66c.02-1.54-.19-3.07-.62-4.54-.36-1.25-.97-2.42-1.79-3.43-.77-.93-1.75-1.68-2.85-2.17-1.21-.52-2.52-.78-3.84-.75h-5.02v21.81h5.02c1.32.02,2.63-.23,3.84-.76,1.11-.49,2.08-1.23,2.85-2.17.82-1.01,1.43-2.18,1.79-3.43.43-1.48.64-3.02.62-4.56h0Z"/>
      <path class="st123" d="M189.16,70.63h-7.55v-33.91h7.55v33.91Z"/>
      <path class="st123" d="M217.21,61.85c.18,0,.36.04.53.1.19.08.37.2.51.36l2.97,3.28c-1.26,1.75-2.94,3.14-4.89,4.04-2.19.95-4.57,1.42-6.96,1.36-2.27.04-4.52-.41-6.6-1.31-1.89-.84-3.58-2.08-4.95-3.63-1.39-1.61-2.45-3.47-3.12-5.49-.74-2.22-1.11-4.56-1.09-6.9-.02-2.37.38-4.73,1.18-6.97.73-2.03,1.85-3.89,3.31-5.48,1.43-1.54,3.17-2.76,5.11-3.59,2.07-.87,4.3-1.31,6.55-1.28,1.15,0,2.3.11,3.43.34,1.03.21,2.04.52,3.01.93.91.38,1.77.86,2.57,1.43.76.53,1.45,1.14,2.09,1.81l-2.54,3.55c-.17.22-.36.42-.58.59-.27.19-.6.29-.93.27-.26,0-.52-.06-.76-.19-.26-.14-.51-.29-.75-.45-.27-.18-.56-.37-.88-.58-.36-.23-.74-.43-1.13-.58-.5-.2-1.01-.35-1.53-.45-.68-.13-1.37-.2-2.05-.19-1.18-.02-2.34.23-3.41.72-1.04.49-1.95,1.21-2.66,2.11-.79,1.01-1.38,2.17-1.73,3.4-.43,1.5-.63,3.04-.61,4.6-.02,1.57.21,3.13.68,4.63.39,1.24,1.02,2.4,1.84,3.41.73.89,1.66,1.61,2.7,2.1,1.05.49,2.19.74,3.35.73.62,0,1.25-.03,1.86-.1.54-.06,1.06-.18,1.57-.35.48-.16.95-.38,1.38-.65.47-.3.91-.65,1.31-1.04.17-.15.37-.28.58-.38.2-.1.42-.15.64-.15h0Z"/>
      <path class="st123" d="M97.56,71.21c-9.47,0-17.18-8.08-17.18-18.02-.03-4.74,1.77-9.3,5.03-12.74,1.56-1.66,3.44-2.99,5.53-3.9,2.09-.91,4.34-1.38,6.62-1.38,9.47,0,17.17,8.08,17.17,18.01s-7.7,18.02-17.18,18.02M97.55,36.01c-9.03,0-16.38,7.71-16.38,17.18s7.35,17.19,16.38,17.19,16.38-7.71,16.38-17.19-7.35-17.18-16.38-17.18Z"/>
      <g class="st39">
        <g>
          <path class="st35" d="M110.43,39.1h-26.57v.14h26.57v-.14Z"/>
          <path class="st4" d="M110.43,39.24h-26.57v.24h26.57v-.24Z"/>
          <path class="st68" d="M110.43,39.49h-26.57v.24h26.57v-.24Z"/>
          <path class="st93" d="M110.43,39.73h-26.57v.24h26.57v-.24Z"/>
          <path class="st63" d="M110.43,39.97h-26.57v.24h26.57v-.24Z"/>
          <path class="st79" d="M110.43,40.2h-26.57v.24h26.57v-.24Z"/>
          <path class="st120" d="M110.43,40.44h-26.57v.24h26.57v-.24Z"/>
          <path class="st129" d="M110.43,40.68h-26.57v.24h26.57v-.24Z"/>
          <path class="st114" d="M110.43,40.92h-26.57v.24h26.57v-.24Z"/>
          <path class="st48" d="M110.43,41.16h-26.57v.24h26.57v-.24Z"/>
          <path class="st15" d="M110.43,41.4h-26.57v.24h26.57v-.24Z"/>
          <path class="st54" d="M110.43,41.64h-26.57v.24h26.57v-.24Z"/>
          <path class="st9" d="M110.43,41.88h-26.57v.24h26.57v-.24Z"/>
          <path class="st76" d="M110.43,42.12h-26.57v.24h26.57v-.24Z"/>
          <path class="st160" d="M110.43,42.36h-26.57v.24h26.57v-.24Z"/>
          <path class="st16" d="M110.43,42.6h-26.57v.24h26.57v-.24Z"/>
          <path class="st57" d="M110.43,42.84h-26.57v.24h26.57v-.24Z"/>
          <path class="st29" d="M110.43,43.08h-26.57v.24h26.57v-.24Z"/>
          <path class="st7" d="M110.43,43.32h-26.57v.24h26.57v-.24Z"/>
          <path class="st148" d="M110.43,43.55h-26.57v.24h26.57v-.24Z"/>
          <path class="st148" d="M110.43,43.79h-26.57v.24h26.57v-.24Z"/>
          <path class="st133" d="M110.43,44.03h-26.57v.24h26.57v-.24Z"/>
          <path class="st73" d="M110.43,44.27h-26.57v.24h26.57v-.24Z"/>
          <path class="st32" d="M110.43,44.51h-26.57v.24h26.57v-.24Z"/>
          <path class="st137" d="M110.43,44.75h-26.57v.24h26.57v-.24Z"/>
          <path class="st104" d="M110.43,44.99h-26.57v.24h26.57v-.24Z"/>
          <path class="st159" d="M110.43,45.23h-26.57v.24h26.57v-.24Z"/>
          <path class="st36" d="M110.43,45.47h-26.57v.24h26.57v-.24Z"/>
          <path class="st117" d="M110.43,45.71h-26.57v.24h26.57v-.24Z"/>
          <path class="st82" d="M110.43,45.95h-26.57v.24h26.57v-.24Z"/>
          <path class="st0" d="M110.43,46.19h-26.57v.24h26.57v-.24Z"/>
          <path class="st11" d="M110.43,46.43h-26.57v.24h26.57v-.24Z"/>
          <path class="st161" d="M110.43,46.67h-26.57v.24h26.57v-.24Z"/>
          <path class="st30" d="M110.43,46.91h-26.57v.24h26.57v-.24Z"/>
          <path class="st122" d="M110.43,47.14h-26.57v.24h26.57v-.24Z"/>
          <path class="st121" d="M110.43,47.38h-26.57v.24h26.57v-.24Z"/>
          <path class="st78" d="M110.43,47.62h-26.57v.24h26.57v-.24Z"/>
          <path class="st149" d="M110.43,47.86h-26.57v.24h26.57v-.24Z"/>
          <path class="st130" d="M110.43,48.1h-26.57v.24h26.57v-.24Z"/>
          <path class="st119" d="M110.43,48.34h-26.57v.24h26.57v-.24Z"/>
          <path class="st162" d="M110.43,48.58h-26.57v.24h26.57v-.24Z"/>
          <path class="st75" d="M110.43,48.82h-26.57v.24h26.57v-.24Z"/>
          <path class="st2" d="M110.43,49.06h-26.57v.24h26.57v-.24Z"/>
          <path class="st56" d="M110.43,49.3h-26.57v.24h26.57v-.24Z"/>
          <path class="st111" d="M110.43,49.54h-26.57v.24h26.57v-.24Z"/>
          <path class="st95" d="M110.43,49.78h-26.57v.24h26.57v-.24Z"/>
          <path class="st158" d="M110.43,50.02h-26.57v.24h26.57v-.24Z"/>
          <path class="st91" d="M110.43,50.26h-26.57v.24h26.57v-.24Z"/>
          <path class="st125" d="M110.43,50.49h-26.57v.24h26.57v-.24Z"/>
          <path class="st135" d="M110.43,50.73h-26.57v.24h26.57v-.24Z"/>
          <path class="st142" d="M110.43,50.97h-26.57v.24h26.57v-.24Z"/>
          <path class="st70" d="M110.43,51.21h-26.57v.24h26.57v-.24Z"/>
          <path class="st81" d="M110.43,51.45h-26.57v.24h26.57v-.24Z"/>
          <path class="st103" d="M110.43,51.69h-26.57v.24h26.57v-.24Z"/>
          <path class="st50" d="M110.43,51.93h-26.57v.24h26.57v-.24Z"/>
          <path class="st107" d="M110.43,52.17h-26.57v.24h26.57v-.24Z"/>
          <path class="st37" d="M110.43,52.41h-26.57v.24h26.57v-.24Z"/>
          <path class="st113" d="M110.43,52.65h-26.57v.24h26.57v-.24Z"/>
          <path class="st40" d="M110.43,52.89h-26.57v.24h26.57v-.24Z"/>
          <path class="st152" d="M110.43,53.13h-26.57v.24h26.57v-.24Z"/>
          <path class="st8" d="M110.43,53.37h-26.57v.24h26.57v-.24Z"/>
          <path class="st145" d="M110.43,53.61h-26.57v.24h26.57v-.24Z"/>
          <path class="st96" d="M110.43,53.84h-26.57v.24h26.57v-.24Z"/>
          <path class="st53" d="M110.43,54.08h-26.57v.24h26.57v-.24Z"/>
          <path class="st86" d="M110.43,54.32h-26.57v.24h26.57v-.24Z"/>
          <path class="st5" d="M110.43,54.56h-26.57v.24h26.57v-.24Z"/>
          <path class="st97" d="M110.43,54.8h-26.57v.24h26.57v-.24Z"/>
          <path class="st20" d="M110.43,55.04h-26.57v.24h26.57v-.24Z"/>
          <path class="st99" d="M110.43,55.28h-26.57v.24h26.57v-.24Z"/>
          <path class="st143" d="M110.43,55.52h-26.57v.24h26.57v-.24Z"/>
          <path class="st33" d="M110.43,55.76h-26.57v.24h26.57v-.24Z"/>
          <path class="st90" d="M110.43,56h-26.57v.24h26.57v-.24Z"/>
          <path class="st108" d="M110.43,56.24h-26.57v.24h26.57v-.24Z"/>
          <path class="st147" d="M110.43,56.48h-26.57v.24h26.57v-.24Z"/>
          <path class="st136" d="M110.43,56.72h-26.57v.24h26.57v-.24Z"/>
          <path class="st52" d="M110.43,56.96h-26.57v.24h26.57v-.24Z"/>
          <path class="st88" d="M110.43,57.2h-26.57v.24h26.57v-.24Z"/>
          <path class="st92" d="M110.43,57.44h-26.57v.24h26.57v-.24Z"/>
          <path class="st140" d="M110.43,57.67h-26.57v.24h26.57v-.24Z"/>
          <path class="st19" d="M110.43,57.92h-26.57v.24h26.57v-.24Z"/>
          <path class="st112" d="M110.43,58.15h-26.57v.24h26.57v-.24Z"/>
          <path class="st144" d="M110.43,58.39h-26.57v.24h26.57v-.24Z"/>
          <path class="st55" d="M110.43,58.63h-26.57v.24h26.57v-.24Z"/>
          <path class="st43" d="M110.43,58.87h-26.57v.24h26.57v-.24Z"/>
          <path class="st141" d="M110.43,59.11h-26.57v.24h26.57v-.24Z"/>
          <path class="st25" d="M110.43,59.35h-26.57v.24h26.57v-.24Z"/>
          <path class="st74" d="M110.43,59.59h-26.57v.24h26.57v-.24Z"/>
          <path class="st83" d="M110.43,59.83h-26.57v.24h26.57v-.24Z"/>
          <path class="st46" d="M110.43,60.07h-26.57v.24h26.57v-.24Z"/>
          <path class="st64" d="M110.43,60.31h-26.57v.24h26.57v-.24Z"/>
          <path class="st64" d="M110.43,60.55h-26.57v.24h26.57v-.24Z"/>
          <path class="st139" d="M110.43,60.78h-26.57v.24h26.57v-.24Z"/>
          <path class="st6" d="M110.43,61.03h-26.57v.24h26.57v-.24Z"/>
          <path class="st109" d="M110.43,61.26h-26.57v.24h26.57v-.24Z"/>
          <path class="st17" d="M110.43,61.51h-26.57v.24h26.57v-.24Z"/>
          <path class="st146" d="M110.43,61.74h-26.57v.24h26.57v-.24Z"/>
          <path class="st100" d="M110.43,61.98h-26.57v.24h26.57v-.24Z"/>
          <path class="st118" d="M110.43,62.22h-26.57v.24h26.57v-.24Z"/>
          <path class="st58" d="M110.43,62.46h-26.57v.24h26.57v-.24Z"/>
          <path class="st18" d="M110.43,62.7h-26.57v.24h26.57v-.24Z"/>
          <path class="st105" d="M110.43,62.94h-26.57v.24h26.57v-.24Z"/>
          <path class="st106" d="M110.43,63.18h-26.57v.24h26.57v-.24Z"/>
          <path class="st12" d="M110.43,63.42h-26.57v.24h26.57v-.24Z"/>
          <path class="st3" d="M110.43,63.66h-26.57v.24h26.57v-.24Z"/>
          <path class="st126" d="M110.43,63.9h-26.57v.24h26.57v-.24Z"/>
          <path class="st156" d="M110.43,64.14h-26.57v.24h26.57v-.24Z"/>
          <path class="st13" d="M110.43,64.38h-26.57v.24h26.57v-.24Z"/>
          <path class="st28" d="M110.43,64.62h-26.57v.24h26.57v-.24Z"/>
          <path class="st98" d="M110.43,64.86h-26.57v.24h26.57v-.24Z"/>
          <path class="st21" d="M110.43,65.09h-26.57v.24h26.57v-.24Z"/>
          <path class="st24" d="M110.43,65.33h-26.57v.24h26.57v-.24Z"/>
          <path class="st110" d="M110.43,65.57h-26.57v.24h26.57v-.24Z"/>
          <path class="st61" d="M110.43,65.81h-26.57v.24h26.57v-.24Z"/>
          <path class="st115" d="M110.43,66.05h-26.57v.24h26.57v-.24Z"/>
          <path class="st132" d="M110.43,66.29h-26.57v.24h26.57v-.24Z"/>
          <path class="st1" d="M110.43,66.53h-26.57v.24h26.57v-.24Z"/>
          <path class="st10" d="M110.43,66.77h-26.57v.2h26.57v-.2Z"/>
        </g>
      </g>
      <path class="st38" d="M109.74,52.79c0,7.05-5.45,12.78-12.18,12.78s-12.18-5.72-12.18-12.78,5.45-12.78,12.18-12.78,12.18,5.72,12.18,12.78"/>
      <path class="st123" d="M88.23,61c.06.08.12.15.18.22,1.06.15,2.13.23,3.2.25-1.12-.19-2.27-.28-3.39-.48"/>
      <path class="st123" d="M87.51,60.02c.75.24,1.52.44,2.29.6.45.11.92.17,1.38.18-1.3-.23-2.57-.57-3.81-1.01.05.07.09.15.14.22"/>
      <path class="st123" d="M87.93,60.61c1.11.27,2.25.45,3.39.52-1.18-.23-2.38-.41-3.53-.71.04.06.09.12.14.18"/>
      <path class="st123" d="M92.77,60.32c-.07,0-.13.03-.17.08-.04.05-.07.11-.07.18,0,.05.02.09.05.13.03.04.07.07.11.08.04.02.09.02.14,0,.05-.01.09-.03.12-.07.03-.03.05-.08.06-.12,0-.05,0-.09-.02-.14-.02-.04-.05-.08-.09-.11-.04-.03-.08-.04-.13-.04Z"/>
      <path class="st123" d="M94.27,60.49s-.07,0-.09.02c-.03.01-.06.03-.08.06-.02.02-.04.05-.05.08-.01.03-.02.06-.02.1,0,.03,0,.06.02.09.01.03.03.06.05.08.02.02.05.04.08.05.03.01.06.02.09.02s.06,0,.09-.02c.03-.01.06-.03.08-.05.02-.02.04-.05.05-.08.01-.03.02-.06.02-.09,0-.07-.02-.13-.07-.18-.05-.05-.11-.08-.17-.08Z"/>
      <path class="st123" d="M95.75,60.6c-.06,0-.13.03-.17.08-.04.05-.07.11-.07.17s.02.13.07.17c.04.05.11.08.17.08.06,0,.13-.03.17-.08.04-.05.07-.11.07-.17s-.02-.13-.07-.17c-.04-.05-.11-.08-.17-.08Z"/>
      <path class="st123" d="M97.11,60.67c-.07,0-.13.03-.17.08-.05.05-.07.11-.07.18,0,.05.02.09.05.13.03.04.07.07.11.08.04.02.09.02.14,0,.05-.01.09-.03.12-.07.03-.03.05-.08.06-.12,0-.05,0-.1-.02-.14-.02-.04-.05-.08-.09-.11-.04-.03-.09-.04-.13-.04Z"/>
      <path class="st123" d="M98.65,60.67c-.07,0-.13.03-.17.08s-.07.11-.07.18c0,.03,0,.07.01.1.01.03.03.06.05.08.02.02.05.04.08.06.03.01.06.02.1.02s.07,0,.1-.02c.03-.01.06-.03.08-.06.02-.02.04-.05.05-.08.01-.03.02-.06.01-.1,0-.07-.02-.13-.07-.18-.04-.05-.11-.08-.17-.08Z"/>
      <path class="st123" d="M100.02,60.67s-.06,0-.09.02c-.03.01-.06.03-.08.06-.02.02-.04.05-.05.08-.01.03-.02.06-.02.1,0,.05.02.09.05.13.03.04.07.07.11.08.04.02.09.02.14,0,.05-.01.09-.03.12-.07.03-.03.05-.08.06-.12,0-.05,0-.09-.02-.14-.02-.04-.05-.08-.09-.11-.04-.03-.09-.04-.13-.04Z"/>
      <path class="st123" d="M101.56,60.59c-.07,0-.14.04-.19.09-.05.05-.08.12-.08.19s.03.14.08.19c.05.05.12.08.19.09.07,0,.14-.03.19-.09.05-.05.08-.12.08-.2,0-.07-.03-.14-.08-.2-.05-.05-.12-.08-.19-.09Z"/>
      <path class="st123" d="M103.59,63.21c-.49-.62-1.04-1.13-1.54-1.67.06-.02.03-.1.09-.1l1.7,1.74-.25.03h0ZM102.45,62.65l-.58-.57.48.05.35.37s-.07.07-.11.1c-.04.03-.09.04-.14.05ZM102.39,63.21l-1.62-1.73s.02-.05.03-.07.03-.03.06-.05l.09.03c.54.64,1.12,1.21,1.72,1.8h-.28,0ZM100.79,62.57c-.14-.02-.24-.15-.32-.24-.11-.13-.22-.25-.35-.35.15-.29.22.16.39.15.23.23.56-.05.76.12.06.05.11.11.15.18-.08.07-.18.13-.29.15-.11.03-.22.02-.33,0M101.02,63.17h-.23c-.49-.56-1.03-1.15-1.52-1.65l.07-.08c.59.54,1.15,1.13,1.71,1.72h-.03ZM99.29,62.55c-.15-.04-.25-.19-.35-.33-.08.12-.13-.08-.2-.09l-.08-.07.26-.22c.18.31.49.23.75.38.06.09.18.19.26.3-.1.05-.21.08-.32.09-.11,0-.22-.01-.33-.06M99.36,63.2l-1.55-1.69c-.02-.06.04-.1.07-.12.54.57,1.19,1.23,1.76,1.8h-.28ZM97.86,62.46c-.09-.1-.16-.23-.26-.34l-.08.11s-.12-.1-.18-.15c.13-.05.17-.18.25-.28.08.2.28.2.44.29l.46.48c-.11.04-.22.05-.34.03-.11-.02-.22-.07-.31-.14M97.96,63.21l-1.61-1.71c0-.07.07-.12.12-.07.56.61,1.19,1.19,1.77,1.78h-.28ZM96.46,62.42c-.03-.06-.08-.11-.12-.16l-.05.11-.17-.18c.05-.07.18-.09.2-.19l.41.19c.15.13.28.27.4.43-.12.05-.25.05-.37.02-.12-.03-.23-.11-.3-.21M96.68,63.21l-1.79-1.82s-.01-.14.07-.12h.05c.64.7,1.2,1.31,1.88,1.96l-.21-.03h0ZM95.4,62.73l-.53-.55c.06-.03.13-.15.2-.17.12.17.32.2.48.28l.39.43c-.17.07-.37.08-.54.01M95.51,63.26l-2.07-1.99s.02-.08.07-.09l.13.04c.71.68,1.34,1.38,2.07,2.01l-.2.04ZM92.89,61.85c-.12-.05-.17-.19-.24-.24.24.03.47-.02.68-.13l.32.35c-.12.06-.25.09-.38.09-.13,0-.26-.02-.38-.07ZM92.1,60.56c0-.13.05-.26.13-.37.08-.11.19-.19.32-.24.13-.05.26-.06.4-.02.13.03.25.1.34.2.09.1.16.22.18.35.02.13,0,.27-.04.39-.05.12-.14.23-.25.3-.11.07-.24.11-.38.11-.19,0-.37-.08-.5-.22-.13-.14-.2-.32-.2-.51ZM89.67,55.56c-.62-4.34,3.54-7.38,6.53-9.42.51-.28.99-.62,1.5-.84l-.03.11c-2,1.2-3.73,2.81-5.08,4.71-.62.87-1.02,1.87-1.17,2.93-.14,1.06-.02,2.13.36,3.13.24.52.55,1.01.93,1.45-.17.07-.32.17-.45.3-.13.13-.23.29-.3.46.46.68,1.16,1.17,1.95,1.39-.13.23-.34-.04-.51-.05-.92-.34-1.74-.89-2.39-1.62-.65-.73-1.11-1.61-1.34-2.56M95.02,41.64c.46.46.89-.27,1.38.06.03-.18.04-.35.04-.53l.21.02-.25,4.16c-.07.03-.17.17-.22.09l.21-2.89c0-.12-.09-.03-.14-.09-.35-.16-.68.13-1.01-.08-.42-.54-1.22.02-1.64-.55.54.22.92-.41,1.42-.19ZM94.97,60.72c0,.13-.05.26-.13.37-.08.11-.19.19-.32.24-.13.05-.26.06-.39.03-.13-.03-.25-.1-.34-.2-.09-.1-.16-.22-.18-.35-.02-.13,0-.27.04-.39.05-.12.14-.23.25-.3.11-.07.24-.11.38-.11.09,0,.18.02.27.06.08.04.16.09.23.16.06.07.11.15.15.23.03.09.05.18.05.27ZM95.29,59.83c.1-.72.09-1.43.14-2.15l.25.05-.13,2.1c-.1-.02-.22.17-.26,0M96.08,61.75s-.08,0-.1.04l-.05-.06c.08-.06.06.02.15.02M95.72,61.55c-.14,0-.29-.03-.41-.11-.12-.08-.22-.19-.28-.32-.06-.13-.08-.28-.06-.42.02-.14.09-.28.19-.38s.23-.18.37-.21c.14-.03.29-.02.42.03s.25.15.33.27.13.26.13.41c0,.19-.07.37-.2.51-.13.14-.31.22-.5.22ZM97.87,60.91c0,.13-.05.26-.13.37-.08.11-.19.19-.32.24-.13.05-.26.06-.4.03-.13-.03-.25-.1-.34-.2-.09-.1-.16-.22-.18-.35s0-.27.04-.39c.05-.12.14-.23.25-.3.11-.07.24-.11.38-.11.19,0,.36.08.49.22.13.14.2.32.2.5ZM99.33,60.88c0,.09,0,.19-.04.28-.03.09-.08.17-.15.24-.06.07-.14.12-.23.16-.09.04-.18.06-.27.06s-.19-.02-.27-.06c-.09-.04-.16-.09-.23-.16-.06-.07-.11-.15-.15-.24-.03-.09-.04-.18-.04-.28,0-.09.01-.18.04-.27.03-.09.08-.17.15-.23s.14-.12.23-.16c.09-.04.18-.05.27-.05s.18.02.27.05c.09.04.16.09.23.16.06.07.11.15.15.23.03.09.05.18.04.27ZM100.78,60.92c0,.13-.05.26-.13.37-.08.11-.19.19-.32.24s-.26.06-.39.03c-.13-.03-.25-.1-.34-.2-.09-.1-.16-.22-.18-.35-.02-.13,0-.27.05-.39.05-.12.14-.23.25-.3.11-.07.24-.11.38-.11.09,0,.18.02.27.06.08.04.16.09.22.16.06.07.11.15.15.23.03.09.05.18.05.27ZM102.24,60.81c0,.09,0,.19-.04.28-.03.09-.08.17-.15.24-.07.07-.14.12-.23.16-.09.04-.18.06-.27.06s-.19-.02-.27-.06c-.09-.04-.16-.09-.23-.16-.06-.07-.11-.15-.15-.24-.03-.09-.05-.18-.04-.28,0-.09,0-.19.04-.28.03-.09.08-.17.15-.24.07-.07.14-.12.23-.16.09-.04.18-.06.27-.06s.19.02.27.06c.09.04.16.09.23.16.06.07.11.15.15.24.03.09.05.18.04.28ZM103.43,41.9l.1.15c-2.26,1.32-4.04,3.33-5.08,5.73-1.01,2.25-1.31,4.75-.85,7.17.24,1.24.71,2.43,1.36,3.51.52.62,1.15,1.14,1.84,1.55,0,.02-.02.03-.04.05-.02.01-.03.02-.06.02-.02,0-.04,0-.06,0-.02,0-.04-.02-.05-.03-1.59-1.31-3.46-2.24-5.46-2.7-.67-.87-1.12-1.89-1.29-2.97-.17-1.08-.07-2.19.29-3.23,1.19-2.92,3.26-5.39,5.94-7.06,1.15-.65,2.24-1.43,3.36-2.18M103.76,59.34c.19-.11.74.27.65-.26-.11-.18,0-.38.04-.55.09-.03.17-.17.28-.09,0,.13.08.27,0,.38l-.09.08.42.61.76.18c-.3.28-.71-.05-1.05-.05,0,.15.03.3.08.44-.13.21-.33-.12-.39.15-.05.03-.11.06-.18.07,0-.25.04-.49.1-.73-.2-.08-.4-.12-.61-.14v-.08h0ZM105.64,62.12c-.02.11-.07.22-.15.31-.07.09-.16.16-.27.21-.16.06-.34.06-.5-.02-.2-.13-.25-.37-.35-.54-.05.15-.14.28-.26.38-.12.1-.26.17-.41.21l-.8-.81.04-.04c.1.12.23.22.38.29.15.06.31.09.47.08.23-.03.43-.14.59-.3.11.11.24.19.38.23.15.04.3.04.44,0l.4-.26c.1.09.21.15.34.18.06-.06.12-.12.18-.18-.15-.04-.29-.12-.4-.24l.67-.05c.05-.06.1-.11.16-.17-.57.09-1.14.15-1.7.21l.67.03c-.08.11-.18.19-.3.24-.12.05-.25.06-.38.04-.1-.03-.19-.08-.26-.15-.08-.07-.13-.16-.17-.25-.31.38-.61.57-1.01.42-.13-.12-.35-.22-.41-.39l-.18.18c-.13-.14-.28-.26-.44-.41.02,0,.01-.07.03-.1s0,0,0-.02c.08-.11.06-.26.08-.39,1.89-.21,3.68-.91,5.21-2.04.05-.08.13-.13.18-.22l-.67.41c.38-.52.66-1.1.83-1.71l.4-.14c-.16.68-.33,1.36-.43,2.07-1.12.72-2.35,1.24-3.65,1.54v.03c1.24-.22,2.44-.63,3.57-1.21,1.21-2.04,1.85-4.37,1.84-6.74,0-7.06-5.45-12.77-12.18-12.77s-12.18,5.71-12.18,12.77c0,1.69.31,3.36.94,4.93.1-.92.39-1.76.5-2.67-.01-.23-.03-.5-.2-.63-.12.15-.2.33-.22.51-.08-.05-.15-.12-.2-.2l.46-1.09c.2.1.37.25.49.44.14,1.38-.75,2.54-.39,3.94.43.69,1.09,1.2,1.87,1.45,1.01.45,2.07.77,3.15.96,0,.23.05.45.16.65.11.2.28.35.49.45l.16.06c-.1.11-.23.2-.36.26-.14.06-.29.09-.44.09-.09,0-.18-.04-.26-.08-.08-.04-.15-.1-.21-.18-.01-.07-.04-.13-.09-.18-.08.04-.15.1-.19.18v.02c-.14.13-.33.21-.53.22-.15-.01-.29-.08-.39-.18v-.07l.33-.02c-.12-.03-.26,0-.37-.09.03-.02.02-.06.02-.09-.17-.09-.34.15-.53.09-.31,0-.63-.03-.94-.08.03.04.07.08.11.12l.89.05c-.08.08-.19.15-.3.18-.11.03-.23.03-.35,0-.01,0-.03-.01-.05-.02.11.12.22.22.33.33.12,0,.24-.04.34-.1.11-.06.2-.14.27-.24.07.11.17.21.28.27.12.06.25.1.38.09.13,0,.26-.03.37-.08s.22-.13.3-.23c.1.13.24.23.39.3.15.07.32.1.49.08.21-.02.41-.12.56-.27.08.08.18.15.29.2.11.04.23.07.34.07.12,0,.23-.03.34-.08.11-.05.2-.12.29-.2l.75.74c-.08.09-.28.06-.4.04-.16-.07-.3-.19-.39-.35-.06.1-.15.19-.25.25-.1.06-.21.1-.33.11-.09,0-.18-.01-.26-.05-.08-.03-.16-.09-.22-.15l-.18-.32c-.12.2-.3.36-.51.44-.13.03-.26.02-.39-.02-.12-.04-.24-.11-.33-.2-.09-.1-.16-.22-.19-.35-.11.2-.31.49-.57.51-.2.03-.4-.03-.56-.15l-.25-.37c-.07.13-.15.24-.24.36,2.17,2,5.02,3.11,7.97,3.12,3.04-.02,5.95-1.2,8.15-3.29-.03-.05-.05-.1-.07-.15"/>
      <g class="st14">
        <g>
          <path class="st60" d="M116.73,36.67l-38.36-2.89v-.7h38.36v3.59Z"/>
          <path class="st60" d="M116.73,58.97l-38.36-2.88v-22.3l38.36,2.89v22.29Z"/>
          <path class="st60" d="M116.73,59.1l-38.36-2.89v-.13l38.36,2.88v.14Z"/>
          <path class="st134" d="M116.73,59.23l-38.36-2.89v-.13l38.36,2.88v.13Z"/>
          <path class="st127" d="M116.73,59.36l-38.36-2.89v-.13l38.36,2.89v.13Z"/>
          <path class="st47" d="M116.73,59.5l-38.36-2.88v-.13l38.36,2.89v.13Z"/>
          <path class="st124" d="M116.73,59.63l-38.36-2.88v-.13l38.36,2.88v.13Z"/>
          <path class="st72" d="M116.73,59.76l-38.36-2.89v-.14l38.36,2.89v.14Z"/>
          <path class="st154" d="M116.73,59.89l-38.36-2.89v-.13l38.36,2.89v.13Z"/>
          <path class="st146" d="M116.73,60.02l-38.36-2.89v-.13l38.36,2.89v.13Z"/>
          <path class="st109" d="M116.73,60.16l-38.36-2.89v-.13l38.36,2.89v.13Z"/>
          <path class="st64" d="M116.73,60.29l-38.36-2.88v-.13l38.36,2.88v.13Z"/>
          <path class="st150" d="M116.73,60.42l-38.36-2.89v-.13l38.36,2.89v.13Z"/>
          <path class="st44" d="M116.73,60.55l-38.36-2.89v-.13l38.36,2.89v.13Z"/>
          <path class="st65" d="M116.73,60.69l-38.36-2.89v-.13l38.36,2.89v.13Z"/>
          <path class="st42" d="M116.73,60.82l-38.36-2.89v-.13l38.36,2.89v.13Z"/>
          <path class="st59" d="M116.73,60.95l-38.36-2.89v-.13l38.36,2.89v.13Z"/>
          <path class="st116" d="M116.73,61.08l-38.36-2.89v-.13l38.36,2.89v.13Z"/>
          <path class="st69" d="M116.73,61.22l-38.36-2.89v-.13l38.36,2.89v.13Z"/>
          <path class="st41" d="M116.73,61.35l-38.36-2.89v-.13l38.36,2.89v.13Z"/>
          <path class="st52" d="M116.73,61.48l-38.36-2.89v-.14l38.36,2.89v.13Z"/>
          <path class="st90" d="M116.73,61.61l-38.36-2.89v-.13l38.36,2.89v.13Z"/>
          <path class="st87" d="M116.73,61.75l-38.36-2.89v-.13l38.36,2.89v.13Z"/>
          <path class="st99" d="M116.73,61.88l-38.36-2.89v-.13l38.36,2.89v.13Z"/>
          <path class="st131" d="M116.73,62.01l-38.36-2.89v-.13l38.36,2.89v.13Z"/>
          <path class="st102" d="M116.73,62.14l-38.36-2.89v-.13l38.36,2.89v.14Z"/>
          <path class="st53" d="M116.73,62.28l-38.36-2.89v-.13l38.36,2.88v.14Z"/>
          <path class="st23" d="M116.73,62.41l-38.36-2.89v-.13l38.36,2.89v.13Z"/>
          <path class="st27" d="M116.73,62.54l-38.36-2.89v-.13l38.36,2.89v.13Z"/>
          <path class="st84" d="M116.73,62.67l-38.36-2.89v-.13l38.36,2.89v.13Z"/>
          <path class="st49" d="M116.73,62.8l-38.36-2.89v-.13l38.36,2.89v.13Z"/>
          <path class="st67" d="M116.73,62.94l-38.36-2.89v-.13l38.36,2.89v.13Z"/>
          <path class="st80" d="M116.73,63.07l-38.36-2.89v-.13l38.36,2.89v.13Z"/>
          <path class="st81" d="M116.73,63.2l-38.36-2.89v-.13l38.36,2.89v.13Z"/>
          <path class="st70" d="M116.73,63.33l-38.36-2.89v-.13l38.36,2.89v.13Z"/>
          <path class="st26" d="M116.73,63.47l-38.36-2.89v-.13l38.36,2.89v.13Z"/>
          <path class="st71" d="M116.73,63.6l-38.36-2.89v-.13l38.36,2.89v.13Z"/>
          <path class="st163" d="M116.73,63.73l-38.36-2.89v-.13l38.36,2.89v.13Z"/>
          <path class="st158" d="M116.73,63.86l-38.36-2.88v-.14l38.36,2.89v.13Z"/>
          <path class="st95" d="M116.73,63.99l-38.36-2.88v-.13l38.36,2.88v.13Z"/>
          <path class="st111" d="M116.73,64.13l-38.36-2.89v-.13l38.36,2.88v.13Z"/>
          <path class="st2" d="M116.73,64.26l-38.36-2.89v-.13l38.36,2.89v.13Z"/>
          <path class="st45" d="M116.73,64.39l-38.36-2.89v-.13l38.36,2.89v.13Z"/>
          <path class="st128" d="M116.73,64.53l-38.36-2.89v-.13l38.36,2.89v.14Z"/>
          <path class="st138" d="M116.73,64.65l-38.36-2.89v-.13l38.36,2.89v.13Z"/>
          <path class="st149" d="M116.73,64.79l-38.36-2.89v-.13l38.36,2.88v.14Z"/>
          <path class="st78" d="M116.73,64.92l-38.36-2.89v-.13l38.36,2.89v.13Z"/>
          <path class="st121" d="M116.73,65.05l-38.36-2.89v-.13l38.36,2.89v.13Z"/>
          <path class="st122" d="M116.73,65.19l-38.36-2.88v-.13l38.36,2.88v.13Z"/>
          <path class="st30" d="M116.73,65.32l-38.36-2.89v-.13l38.36,2.88v.14Z"/>
          <path class="st161" d="M116.73,65.45l-38.36-2.89v-.13l38.36,2.89v.13Z"/>
          <path class="st0" d="M116.73,65.58l-38.36-2.89v-.13l38.36,2.89v.13Z"/>
          <path class="st82" d="M116.73,65.71l-38.36-2.88v-.13l38.36,2.89v.13Z"/>
          <path class="st117" d="M116.73,65.85l-38.36-2.89v-.13l38.36,2.88v.14Z"/>
          <path class="st36" d="M116.73,65.98l-38.36-2.89v-.13l38.36,2.89v.13Z"/>
          <path class="st159" d="M116.73,66.11l-38.36-2.89v-.13l38.36,2.89v.13Z"/>
          <path class="st104" d="M116.73,66.24l-38.36-2.88v-.14l38.36,2.89v.13Z"/>
          <path class="st137" d="M116.73,66.38l-38.36-2.89v-.13l38.36,2.89v.13Z"/>
          <path class="st32" d="M116.73,66.51l-38.36-2.89v-.13l38.36,2.89v.13Z"/>
          <path class="st77" d="M116.73,66.64l-38.36-2.89v-.13l38.36,2.89v.13Z"/>
          <path class="st77" d="M116.73,66.77l-38.36-2.89v-.13l38.36,2.89v.13Z"/>
          <path class="st31" d="M116.73,66.9l-38.36-2.89v-.13l38.36,2.89v.13Z"/>
          <path class="st148" d="M116.73,67.04l-38.36-2.89v-.13l38.36,2.89v.14Z"/>
          <path class="st148" d="M116.73,67.17l-38.36-2.89v-.13l38.36,2.89v.13Z"/>
          <path class="st7" d="M116.73,67.3l-38.36-2.89v-.13l38.36,2.89v.13Z"/>
          <path class="st29" d="M116.73,67.43l-38.36-2.88v-.14l38.36,2.89v.13Z"/>
          <path class="st89" d="M116.73,67.57l-38.36-2.89v-.14l38.36,2.89v.13Z"/>
          <path class="st57" d="M116.73,67.7l-38.36-2.89v-.13l38.36,2.89v.13Z"/>
          <path class="st16" d="M116.73,67.83l-38.36-2.89v-.13l38.36,2.89v.13Z"/>
          <path class="st153" d="M116.73,67.96l-38.36-2.89v-.13l38.36,2.89v.13Z"/>
          <path class="st76" d="M116.73,68.1l-38.36-2.89v-.13l38.36,2.89v.13Z"/>
          <path class="st85" d="M116.73,68.23l-38.36-2.88v-.13l38.36,2.89v.13Z"/>
          <path class="st9" d="M116.73,68.36l-38.36-2.89v-.13l38.36,2.89v.13Z"/>
          <path class="st54" d="M116.73,68.49l-38.36-2.89v-.13l38.36,2.89v.13Z"/>
          <path class="st54" d="M116.73,68.62l-38.36-2.89v-.13l38.36,2.89v.13Z"/>
          <path class="st15" d="M116.73,68.76l-38.36-2.89v-.14l38.36,2.89v.13Z"/>
          <path class="st157" d="M116.73,68.89l-38.36-2.89v-.13l38.36,2.89v.13Z"/>
          <path class="st48" d="M116.73,69.02l-38.36-2.89v-.13l38.36,2.89v.13Z"/>
          <path class="st114" d="M116.73,69.15l-38.36-2.89v-.13l38.36,2.89v.13Z"/>
          <path class="st101" d="M116.73,69.29l-38.36-2.89v-.13l38.36,2.89v.13Z"/>
          <path class="st129" d="M116.73,69.42l-38.36-2.89v-.13l38.36,2.89v.13Z"/>
          <path class="st62" d="M116.73,69.55l-38.36-2.89v-.13l38.36,2.89v.14Z"/>
          <path class="st120" d="M116.73,69.68l-38.36-2.89v-.13l38.36,2.89v.13Z"/>
          <path class="st120" d="M116.73,69.82l-38.36-2.89v-.13l38.36,2.89v.13Z"/>
          <path class="st79" d="M116.73,69.95l-38.36-2.89v-.13l38.36,2.89v.13Z"/>
          <path class="st79" d="M116.73,70.08l-38.36-2.89v-.13l38.36,2.89v.13Z"/>
          <path class="st34" d="M116.73,70.21l-38.36-2.89v-.13l38.36,2.89v.13Z"/>
          <path class="st63" d="M116.73,70.35l-38.36-2.89v-.13l38.36,2.89v.13Z"/>
          <path class="st63" d="M116.73,70.48l-38.36-2.89v-.13l38.36,2.89v.13Z"/>
          <path class="st155" d="M116.73,70.61l-38.36-2.89v-.13l38.36,2.88v.14Z"/>
          <path class="st22" d="M116.73,70.74l-38.36-2.89v-.13l38.36,2.89v.13Z"/>
          <path class="st68" d="M116.73,70.88l-38.36-2.89v-.13l38.36,2.89v.13Z"/>
          <path class="st68" d="M116.73,71.01l-38.36-2.89v-.13l38.36,2.89v.13Z"/>
          <path class="st68" d="M116.73,71.14l-38.36-2.89v-.14l38.36,2.89v.13Z"/>
          <path class="st94" d="M116.73,71.27l-38.36-2.89v-.13l38.36,2.88v.13Z"/>
          <path class="st4" d="M116.73,71.4l-38.36-2.89v-.13l38.36,2.89v.13Z"/>
          <path class="st4" d="M116.73,71.54l-38.36-2.89v-.13l38.36,2.89v.13Z"/>
          <path class="st4" d="M116.73,71.67l-38.36-2.89v-.13l38.36,2.89v.13Z"/>
          <path class="st4" d="M116.73,71.8l-38.36-2.89v-.13l38.36,2.89v.13Z"/>
          <path class="st4" d="M116.73,71.93l-38.36-2.89v-.13l38.36,2.89v.13Z"/>
          <path class="st35" d="M116.73,72.07l-38.36-2.89v-.13l38.36,2.89v.13Z"/>
          <path class="st35" d="M116.73,72.2l-38.36-2.89v-.13l38.36,2.89v.13Z"/>
          <path class="st35" d="M116.73,72.33l-38.36-2.89v-.14l38.36,2.89v.13Z"/>
          <path class="st35" d="M116.73,72.46l-38.36-2.89v-.13l38.36,2.89v.13Z"/>
          <path class="st35" d="M116.73,72.6l-38.36-2.89v-.13l38.36,2.88v.14Z"/>
          <path class="st35" d="M116.73,72.73l-38.36-2.89v-.13l38.36,2.89v.13Z"/>
          <path class="st35" d="M116.73,72.86l-38.36-2.89v-.13l38.36,2.89v.13Z"/>
          <path class="st35" d="M116.73,72.99l-38.36-2.88v-.14l38.36,2.89v.13Z"/>
          <path class="st35" d="M116.73,73.13l-38.36-2.89v-.13l38.36,2.88v.14Z"/>
          <path class="st35" d="M78.38,70.24l38.36,2.89v.18h-38.36v-3.07Z"/>
        </g>
      </g>
      <path class="st123" d="M84.16,54.3c-.26-.02-2.21-.16-2.57-.18h0c.11-.11,1.89-1.84,2-1.95-.1,0-1.73-.05-1.85-.06l.02-.34c.21.02,1.63.11,2.5.14h0c-.1.11-1.93,1.92-2.02,1.99.12,0,1.82.06,1.93.06l-.02.34Z"/>
      <path class="st123" d="M84.18,54.31h0c-.24-.02-1.92-.13-2.47-.17h-.11v-.03c.11-.1,1.78-1.73,1.98-1.93-.22,0-1.71-.05-1.83-.06h0l.02-.36h.01c.2.02,1.64.11,2.5.14h0v.02c-.1.11-1.78,1.76-2,1.97.08,0,.31,0,.58.02.52.02,1.22.04,1.32.04h.02l-.03.36h0ZM81.62,54.11h.08c.54.04,2.19.15,2.46.18l.03-.32c-.11,0-.78-.02-1.31-.04-.32,0-.57-.02-.61-.02h-.03l.02-.02c.08-.07,1.83-1.79,2-1.97-.85-.03-2.24-.12-2.48-.14l-.02.32c.18,0,1.76.06,1.84.06h.02l-.02.02c-.08.09-1.8,1.76-1.99,1.94"/>
      <path class="st123" d="M83.2,50.89c-.18-.04-.36-.13-.51-.24-.15-.11-.28-.26-.38-.42-.1-.16-.16-.35-.18-.53-.02-.19-.01-.38.04-.56.02-.16.08-.31.17-.44.09-.13.2-.25.34-.33.14-.08.29-.14.45-.16.16-.02.32,0,.47.05.18.04.35.12.5.24.15.11.27.25.37.41.09.16.15.34.18.52.02.18.01.37-.04.55-.02.16-.08.31-.16.44-.08.13-.2.25-.33.34-.13.09-.28.15-.44.17-.16.03-.32.02-.47-.02M83.53,48.61c-.12-.04-.24-.05-.36-.04-.12.01-.24.05-.35.11-.11.06-.2.15-.27.25-.07.1-.12.21-.14.34-.03.14-.04.28-.02.42.02.14.07.28.15.4.08.12.18.22.3.3.12.08.25.14.39.16.12.04.24.05.36.03.12-.01.24-.05.35-.12.11-.06.2-.15.27-.25.07-.1.12-.22.14-.34.03-.14.04-.28.01-.42-.02-.14-.08-.27-.15-.39-.08-.12-.18-.22-.29-.3-.12-.08-.25-.13-.39-.16Z"/>
      <path class="st123" d="M83.5,50.94c-.1,0-.2-.01-.3-.04-.36-.09-.68-.32-.88-.63-.2-.34-.26-.75-.16-1.14.04-.26.17-.5.37-.67.2-.17.45-.27.71-.27.12,0,.24.02.35.05.32.08.59.27.79.53.12.17.21.36.25.57s.03.42-.03.62c-.04.27-.17.51-.38.69-.2.18-.46.28-.73.28M83.25,48.22c-.26,0-.51.1-.7.26-.2.17-.33.4-.37.66-.05.19-.06.38-.03.57.03.19.09.38.19.54.2.31.51.54.87.62.15.04.31.05.47.02.16-.03.3-.08.43-.17.13-.09.24-.2.33-.33.08-.13.14-.28.16-.44.05-.2.06-.41.03-.61-.04-.2-.12-.4-.24-.56-.2-.26-.47-.44-.78-.52-.11-.03-.23-.04-.34-.04ZM83.49,50.58c-.09,0-.18-.01-.26-.03-.28-.07-.52-.23-.69-.47-.08-.12-.14-.26-.16-.4-.02-.14-.02-.29.02-.43.04-.2.14-.38.3-.5.15-.13.35-.2.55-.19.1,0,.19.01.29.04.15.03.28.09.41.18.12.09.23.2.31.32.14.23.18.51.12.78-.04.2-.15.39-.31.52-.16.13-.36.2-.57.2M83.25,48.57c-.2,0-.39.06-.54.19-.15.12-.25.3-.29.49-.03.14-.04.28-.02.42.02.14.07.27.15.39.08.12.18.22.29.3.12.08.25.13.39.16.08.02.17.03.26.03.2,0,.4-.06.56-.19.16-.13.26-.31.3-.51.06-.26.02-.53-.11-.76-.08-.12-.18-.23-.3-.32-.12-.08-.26-.14-.4-.18-.09-.03-.19-.04-.28-.04"/>
      <path class="st123" d="M84.34,47.09c.12.06.92.44.97.46l-.14.32c-.07-.05-1.07-.53-1.14-.57l-.26-.13c-.09-.05-.75-.36-.81-.38.07-.15.2-.43.34-.67.25-.41.53-.57.8-.44.13.08.24.2.32.33.08.14.12.29.12.44.14-.03,1.11-.28,1.25-.32l.08.34c-.06.02-1.32.3-1.5.33-.01-.21-.06-.63-.36-.78-.14-.07-.4-.06-.69.55l1.03.51h0Z"/>
      <path class="st123" d="M85.17,47.89h0c-.06-.05-.81-.42-1.06-.54-.04-.02-.07-.03-.08-.04l-.26-.13c-.09-.04-.75-.36-.81-.38h-.01v-.02c.11-.23.22-.45.35-.67.19-.32.41-.49.62-.49.07,0,.13.02.19.05.13.08.24.19.32.33.08.13.12.29.12.44.17-.04,1.1-.27,1.24-.32h0l.08.36h0c-.06.02-1.32.3-1.5.33h-.01c-.02-.42-.14-.68-.36-.78-.04-.02-.08-.03-.12-.03-.13,0-.33.1-.55.57l1.02.5c.13.06.92.44.97.46h.01l-.15.35h0ZM82.97,46.79c.11.04.71.33.8.38l.26.13.08.04c.24.12.94.46,1.05.52l.14-.3c-.11-.05-.84-.4-.96-.46l-1.04-.51h0c.23-.5.43-.6.57-.6.04,0,.09,0,.13.03.22.11.34.37.37.78.2-.04,1.35-.3,1.48-.33l-.07-.33c-.17.06-1.1.29-1.24.32h0c0-.16-.04-.31-.11-.44-.07-.13-.18-.25-.31-.33-.06-.03-.12-.04-.18-.04-.21,0-.42.17-.61.48-.12.21-.24.43-.33.66"/>
      <path class="st123" d="M85.06,44.62c-.06-.04-.65-.5-.73-.55.17-.25.36-.49.56-.72.79-.86,1.28-.66,1.48-.51.86.68.4,2.11-.07,2.77-.12-.11-.81-.66-.88-.72l-.34-.27h0ZM86.24,45.14c.22-.28.34-.63.34-.98,0-.36-.13-.7-.36-.98-.42-.33-.96.01-1.49.78l1.51,1.18h0Z"/>
      <path class="st123" d="M86.29,45.62h0c-.12-.12-.8-.66-.88-.73l-.35-.27c-.11-.08-.65-.5-.73-.55h-.01s.04-.06.04-.06c.16-.24.34-.47.53-.68.13-.18.29-.32.48-.44.19-.11.39-.18.61-.21.15,0,.29.05.4.14.19.17.34.39.42.64.08.25.1.51.05.76-.07.5-.25.97-.54,1.39h0s0,0,0,0ZM84.34,44.07c.12.08.72.54.73.55l.35.27c.08.06.74.58.88.71.28-.41.46-.88.53-1.37.05-.25.04-.51-.05-.75-.08-.24-.22-.46-.42-.63-.11-.09-.25-.13-.39-.13-.21.03-.42.1-.6.21-.18.11-.34.26-.47.43-.19.22-.37.44-.53.68l-.02.03ZM86.24,45.16l-1.52-1.19h0c.41-.6.81-.92,1.15-.92.13,0,.25.05.35.13.11.1.2.22.26.36.06.13.09.28.09.43.01.42-.1.83-.33,1.19h0ZM84.74,43.96l1.49,1.17c.22-.28.33-.62.33-.97,0-.35-.13-.69-.35-.96-.1-.08-.22-.12-.34-.12-.33,0-.73.31-1.13.89"/>
      <path class="st123" d="M87.6,42.25c.24.26.69.72.74.78l-.24.25c-.1-.12-.67-.73-.73-.8l-.26-.28s-.65-.68-.71-.74l.25-.26c.04.05.4.46.69.77l.26.28h0Z"/>
      <path class="st123" d="M88.1,43.29h0c-.1-.13-.66-.74-.73-.81l-.26-.28s-.65-.68-.71-.74h0s.26-.28.26-.28h0c.04.06.4.47.69.78l.26.28c.25.26.68.72.74.78h0s-.26.27-.26.27h0ZM86.41,41.45c.09.09.65.68.7.73l.26.28c.07.07.61.66.72.79l.23-.23c-.08-.08-.5-.51-.73-.77l-.26-.28c-.28-.3-.62-.68-.68-.76l-.24.24Z"/>
      <path class="st123" d="M90.43,41.3c-.11.12-.23.23-.36.33-.95.74-1.61.33-1.8.06-.19-.39-.25-.84-.16-1.27.09-.43.33-.82.66-1.1l.22.21c-.28.21-.48.52-.57.86-.09.34-.05.7.09,1.03.25.36.76.49,1.42-.03.11-.09.21-.19.3-.29l.19.21Z"/>
      <path class="st123" d="M89.04,42.05c-.15,0-.3-.03-.43-.09-.14-.06-.25-.16-.35-.27-.19-.3-.27-.66-.2-1.01.1-.51.34-.99.71-1.37h0s.23.22.23.22h0c-.28.22-.48.52-.56.86-.09.34-.05.7.09,1.02.06.1.15.18.25.23.1.05.22.08.33.08.3-.02.59-.14.82-.34.11-.09.21-.18.29-.29h0s.21.22.21.22h0c-.11.13-.23.23-.36.33-.29.25-.66.4-1.04.42M88.78,39.33c-.33.28-.56.66-.65,1.09-.09.43-.04.87.15,1.26.09.11.21.21.34.27.13.06.28.09.42.09.38-.02.74-.17,1.03-.42.13-.09.24-.2.35-.32l-.18-.2c-.09.11-.18.2-.29.29-.23.21-.53.33-.83.35-.12,0-.24-.03-.34-.08-.11-.06-.2-.14-.26-.23-.09-.14-.14-.29-.16-.45-.02-.16,0-.32.05-.48.11-.37.31-.7.58-.97l-.2-.2h0Z"/>
      <path class="st123" d="M93.5,39.8c-.13.09-.28.16-.42.22-1.1.47-1.64-.11-1.76-.42-.21-.56,0-1.47,1.06-2.16l.16.26c-.32.14-.59.38-.76.69-.17.31-.22.67-.16,1.01.16.41.62.67,1.39.35.13-.05.25-.12.36-.2l.14.26h0Z"/>
      <path class="st123" d="M92.31,40.21c-.21.01-.41-.04-.59-.15-.18-.11-.32-.27-.41-.45-.11-.34-.09-.71.05-1.04.22-.47.57-.87,1.01-1.14h0s.17.27.17.27h0c-.32.14-.59.38-.75.69-.17.31-.22.66-.16,1,.06.15.16.28.29.36.13.09.29.13.45.12.22,0,.43-.06.63-.15.13-.05.24-.12.35-.2h0s.15.27.15.27h0c-.13.09-.28.17-.43.23-.24.11-.51.17-.77.18M92.37,37.46c-.39.19-.7.5-.89.89-.19.39-.24.83-.15,1.25.09.19.22.34.4.45.17.1.38.15.58.14.26,0,.52-.07.76-.18.14-.06.28-.13.42-.21l-.13-.24c-.11.08-.23.15-.35.2-.2.09-.42.14-.64.15-.16,0-.33-.04-.46-.13-.14-.09-.24-.22-.3-.37-.05-.15-.07-.32-.05-.48.02-.16.07-.31.16-.45.19-.33.47-.6.8-.78l-.15-.25h0Z"/>
      <path class="st123" d="M93.59,38.54c-.04-.18-.05-.38-.02-.56.03-.19.1-.37.2-.53.1-.16.24-.3.39-.4.16-.11.33-.18.52-.22.16-.04.32-.04.47,0,.16.03.3.1.43.19.13.09.24.22.31.35.08.14.12.29.14.45.04.18.05.37.01.55-.03.18-.1.36-.2.51-.1.16-.23.29-.38.39-.15.1-.33.18-.51.21-.15.04-.31.04-.47.01-.16-.03-.3-.09-.43-.18-.13-.09-.24-.21-.32-.34-.08-.14-.14-.29-.16-.44M95.71,37.91c0-.12-.04-.24-.1-.35-.06-.11-.14-.2-.23-.28-.1-.08-.21-.13-.33-.16-.12-.03-.24-.03-.36-.01-.14.03-.27.09-.39.18-.12.08-.21.19-.29.31-.07.12-.12.26-.14.4-.02.14,0,.29.03.42.01.12.05.24.11.35.06.11.14.2.24.28.1.08.21.13.33.16.12.03.25.03.37,0,.14-.03.27-.09.38-.18.11-.08.21-.19.28-.31.07-.12.12-.26.13-.4.02-.14,0-.28-.03-.42"/>
      <path class="st123" d="M94.7,39.52c-.27,0-.54-.1-.75-.28-.21-.18-.34-.43-.37-.7-.08-.38,0-.77.19-1.1.1-.16.23-.3.39-.41.16-.11.34-.18.52-.22.09-.02.17-.03.26-.03.28,0,.55.11.75.3.2.19.33.45.35.73.06.33.01.67-.14.97-.09.18-.22.34-.39.46-.16.12-.36.2-.56.24-.09.02-.18.03-.28.03M94.94,36.81c-.09,0-.17,0-.26.03-.18.03-.36.11-.52.21-.16.11-.29.24-.38.4-.19.33-.26.71-.18,1.08.03.27.16.52.36.69.2.18.46.28.74.27.09,0,.18,0,.27-.03.2-.03.39-.11.55-.23.16-.12.29-.28.38-.46.14-.3.19-.64.13-.96-.02-.27-.15-.53-.35-.72-.2-.19-.46-.29-.74-.3M94.77,39.24c-.22,0-.43-.1-.59-.25-.16-.15-.26-.35-.29-.57-.06-.29-.02-.59.12-.85.07-.12.16-.23.28-.32.12-.08.25-.14.39-.16.12-.03.25-.02.37,0,.12.03.24.08.34.16.1.08.18.18.24.29.06.11.09.23.09.36.07.3.02.62-.14.89-.07.11-.16.21-.27.28-.11.07-.23.13-.36.15-.06.01-.12.02-.18.02M94.86,37.1c-.06,0-.12,0-.17.02-.14.03-.27.09-.38.17-.11.08-.21.19-.28.31-.07.12-.12.26-.14.4-.02.14,0,.28.03.42.02.21.12.41.28.56.16.15.36.23.57.24.06,0,.12,0,.18-.02.13-.02.25-.07.35-.15.11-.07.19-.17.26-.28.16-.26.21-.57.14-.87-.01-.22-.11-.42-.26-.57-.16-.15-.36-.24-.58-.24"/>
      <path class="st123" d="M96.6,39.07c.07-.15.95-2.45.97-2.54h0c.09.24.67,1.62.77,1.81.14-.2.93-1.48,1-1.59h0c.11.31.63,2.12.75,2.51l-.31.12c-.07-.28-.52-1.83-.56-1.97-.14.2-.81,1.3-.97,1.52h0c-.18-.41-.56-1.32-.68-1.66l-.7,1.92-.28-.14h0Z"/>
      <path class="st123" d="M99.79,39.39h0c-.07-.29-.49-1.74-.56-1.96-.08.12-.28.44-.47.75-.19.31-.41.65-.48.76h0s-.01,0-.01,0h0c-.18-.42-.55-1.28-.67-1.64l-.69,1.91-.3-.14h0c.08-.17.95-2.47.97-2.55h0s.02,0,.02,0h0c.09.23.65,1.57.76,1.8.09-.14.4-.63.65-1.03.17-.27.31-.5.34-.54h0s.02,0,.02,0h0c.06.16.22.74.39,1.3.15.51.3,1.03.37,1.22h0s-.32.13-.32.13h0ZM99.23,37.38v.02c.05.13.49,1.65.57,1.96l.29-.11c-.06-.2-.22-.71-.36-1.21-.16-.54-.33-1.1-.39-1.28-.04.06-.18.28-.33.53-.26.42-.58.93-.66,1.05h0s0,0,0,0c-.09-.19-.65-1.52-.76-1.8-.08.22-.86,2.29-.96,2.51l.26.12.71-1.94v.03c.13.33.5,1.22.68,1.65.08-.12.28-.44.48-.75.2-.33.42-.66.49-.76h0s0-.02,0-.02Z"/>
      <path class="st123" d="M100.77,39.56c.05-.15.29-.99.36-1.24l.1-.38c.02-.08.2-.77.22-.83.21.06.42.14.61.24.43.21.64.52.54.9-.13.48-.66.74-1.33.68l-.06.21c-.02.07-.13.45-.14.53l-.31-.1ZM101.35,38.68c.45.03.82-.09.93-.48.03-.1.08-.52-.59-.73l-.34,1.21Z"/>
      <path class="st123" d="M101.09,39.67l-.33-.1h0c.05-.15.3-.99.37-1.24l.11-.39s.08-.28.13-.49c.04-.17.08-.31.09-.33h0s.01-.01.01-.01c.21.07.42.14.61.24.45.22.65.55.54.91-.09.23-.25.42-.46.54-.21.13-.45.18-.69.15-.06,0-.12,0-.18,0l-.06.2c-.03.1-.13.45-.14.53h0s0,0,0,0ZM100.79,39.56l.29.09c.02-.09.11-.42.14-.51l.06-.21h0c.06,0,.13,0,.19,0,.24.03.48-.02.68-.15.21-.12.36-.31.45-.53.1-.35-.09-.66-.54-.88-.19-.09-.39-.17-.6-.23-.01.04-.05.17-.08.32-.06.21-.12.45-.13.49l-.11.38c-.07.25-.3,1.05-.36,1.23M101.49,38.7s-.09,0-.13,0h-.01s.34-1.23.34-1.23h0c.7.23.62.66.59.75-.06.16-.17.3-.31.39-.14.09-.32.13-.49.1M101.37,38.67s.08,0,.12,0c.17.02.33-.01.48-.1.14-.09.25-.22.31-.38.02-.08.1-.5-.57-.72l-.33,1.19h0Z"/>
      <path class="st123" d="M102.33,39.89c.32-.22,2.09-1.61,2.22-1.7h0c.06.61.1,2.46.15,2.92l-.35.05c0-.15-.02-1-.03-1.07l-1.1-.51c-.07.04-.62.54-.72.62l-.18-.31ZM104.34,39.82c0-.09-.03-1.05-.03-1.12-.08.05-.82.66-.87.7l.9.42Z"/>
      <path class="st123" d="M104.36,41.16h0v-.2c0-.3-.02-.79-.02-.87l-1.09-.51s-.24.2-.41.35c-.14.12-.26.23-.31.27h0s0,0,0,0l-.18-.31h0c.17-.12.75-.57,1.26-.97.46-.36.9-.69.96-.73h.02c.03.31.05.91.08,1.49.03.62.05,1.2.08,1.43h0s-.37.06-.37.06h0ZM103.24,39.55l1.11.52h0c0,.06.02.57.03.88v.18l.33-.04c-.03-.24-.05-.81-.08-1.42-.02-.57-.05-1.17-.08-1.47-.09.06-.51.39-.95.73-.51.39-1.08.83-1.25.96l.16.28c.05-.04.17-.15.3-.26.19-.16.38-.33.42-.36h.01ZM104.35,39.84l-.93-.43h.02s.12-.11.25-.21c.24-.2.57-.47.62-.49h.01s0,0,0,0c0,.07.03,1.03.03,1.12h0s0,.01,0,.01ZM103.46,39.4l.87.4c0-.15-.02-.94-.03-1.08-.08.06-.38.3-.6.48l-.24.2Z"/>
      <path class="st123" d="M105.09,41.54c.18-.2,1.49-1.72,1.73-2h0c0,.16.2,2.69.22,2.86.06-.08,1.11-1.4,1.19-1.49l.24.23c-.14.16-1.09,1.27-1.66,1.97h0c-.01-.14-.23-2.77-.23-2.89-.08.1-1.17,1.46-1.24,1.56l-.24-.24h0Z"/>
      <path class="st123" d="M106.81,43.12l-.02-.02c-.01-.17-.22-2.56-.23-2.86-.05.07-.2.25-.38.47-.34.42-.8,1-.85,1.06h0s-.25-.24-.25-.24h0c.16-.19,1.28-1.49,1.64-1.92l.09-.1h.02c0,.16.19,2.52.22,2.85.14-.18,1.09-1.38,1.17-1.47h0s.26.23.26.23h0c-.15.17-1.09,1.27-1.66,1.98h0s0,0,0,0ZM106.58,40.19v.03c0,.11.21,2.6.23,2.87.56-.7,1.47-1.77,1.64-1.95l-.22-.21c-.12.15-1.13,1.41-1.18,1.48v.02s-.01-.03-.01-.03c-.01-.12-.21-2.57-.22-2.84l-.07.08c-.36.42-1.45,1.69-1.64,1.9l.22.22c.07-.09.5-.63.84-1.06.2-.26.37-.46.4-.49l.02-.02h0Z"/>
      <path class="st123" d="M107.89,44.28c.06-.05.36-.28.4-.31l.2-.17c.31-.28.51-.66.56-1.07.04-.22.03-.45-.02-.67l.3-.06c.04.23.05.47.02.71-.04.3-.14.6-.3.86h0c.26-.09.54-.13.81-.11.27.02.54.11.77.25l-.15.26c-.23-.15-.49-.24-.77-.25-.38-.02-.75.1-1.04.34l-.26.21s-.27.24-.32.3l-.22-.28h0Z"/>
      <path class="st123" d="M108.1,44.58l-.23-.3h0c.07-.06.36-.29.4-.32l.2-.17c.31-.28.51-.66.56-1.07.04-.22.03-.45-.02-.67h0s.32-.08.32-.08h0c.04.25.05.49.02.73-.04.3-.14.59-.29.85.21-.08.43-.12.65-.11h.14c.27.02.54.11.78.25h0s-.15.29-.15.29h0c-.22-.16-.49-.24-.76-.25h-.06c-.35,0-.69.12-.97.34l-.25.21s-.27.24-.32.3h0s0,0,0,0ZM107.9,44.28l.2.27c.06-.06.28-.26.32-.29l.25-.21c.28-.22.62-.34.98-.34h.06c.27,0,.54.09.76.24l.14-.25c-.23-.14-.49-.22-.76-.24h-.14c-.23,0-.45.04-.67.12h-.02s0-.02,0-.02c.16-.26.26-.55.3-.85.03-.23.02-.47-.02-.7l-.28.06c.05.22.06.44.01.66-.05.42-.25.8-.56,1.08l-.2.17s-.31.24-.39.3"/>
      <path class="st123" d="M109.21,45.41l.05.39h-.82s-.02-.15-.02-.15l.79-.24Z"/>
      <path class="st123" d="M108.43,45.83l-.02-.18.81-.25.06.41h-.84s0,.02,0,.02ZM108.43,45.66v.14s.81-.01.81-.01l-.05-.36-.76.24Z"/>
      <path class="st123" d="M110.92,47.5c-.32.14-.89.4-.96.44l-.13-.33c.14-.06.9-.38.98-.42l.35-.15c.06-.02.84-.38.92-.42l.13.34c-.06.02-.55.22-.94.39l-.35.15h0Z"/>
      <path class="st123" d="M109.96,47.95l-.14-.35h0c.14-.06.87-.38.98-.42l.35-.15c.07-.03.84-.38.92-.42h0s.14.35.14.35h-.01c-.06.02-.56.23-.94.4l-.35.15c-.32.14-.89.4-.96.44h0,0ZM109.84,47.62l.12.3c.1-.05.64-.3.95-.44l.35-.15c.36-.16.83-.35.93-.39l-.13-.32c-.12.06-.87.4-.91.42l-.35.15c-.11.05-.81.35-.97.42"/>
      <path class="st123" d="M110.33,48.86c.26-.04,2.18-.4,2.54-.47h0c-.09.13-1.42,2.26-1.5,2.4.09-.02,1.69-.38,1.81-.41l.06.33c-.21.03-1.61.3-2.46.49h0c.07-.13,1.44-2.35,1.51-2.44-.12.03-1.78.4-1.89.43l-.05-.34h0Z"/>
      <path class="st123" d="M110.76,51.22v-.02c.08-.13,1.33-2.15,1.49-2.4-.08.02-.31.07-.59.13-.54.12-1.21.27-1.28.29h0s-.05-.36-.05-.36h.01c.23-.04,1.86-.34,2.4-.44l.15-.03v.02c-.08.13-1.33,2.12-1.48,2.37.22-.05,1.67-.38,1.78-.4h0l.06.35h-.02c-.21.04-1.6.3-2.46.49h-.01ZM112.3,48.76l-.02.02c-.07.09-1.37,2.19-1.5,2.41.85-.19,2.2-.44,2.44-.48l-.05-.31c-.18.04-1.72.38-1.8.4h-.02s.01-.01.01-.01c.06-.1,1.35-2.16,1.5-2.38l-.12.02c-.53.1-2.12.4-2.39.44l.05.32c.11-.03.75-.17,1.26-.29.31-.07.57-.13.62-.14h.03s0,0,0,0Z"/>
      <path class="st123" d="M110.92,53.98c-.03-.16-.04-.33-.04-.49-.02-1.24.68-1.57,1-1.57.57-.01,1.31.52,1.55,1.81l-.29.06c-.11-.83-.59-1.51-1.19-1.5-.42,0-.82.37-.8,1.24,0,.14.02.28.06.42l-.28.04h0Z"/>
      <path class="st123" d="M110.91,54h0c-.03-.17-.05-.34-.05-.51-.04-.45.1-.9.38-1.26.08-.09.18-.17.29-.23.11-.06.23-.09.35-.1h.02c.6,0,1.31.56,1.54,1.81h0s-.31.07-.31.07h0c-.04-.38-.18-.75-.41-1.06-.08-.13-.2-.23-.33-.31-.13-.08-.28-.12-.43-.13h-.01c-.11,0-.22.03-.31.08s-.18.12-.24.21c-.18.28-.26.61-.23.94,0,.14.02.28.06.42h0s0,.01,0,.01l-.29.04h0ZM111.9,51.93h-.02c-.12,0-.24.04-.34.1-.11.05-.2.13-.28.22-.28.35-.41.8-.37,1.24,0,.16.01.32.04.48l.26-.04c-.03-.14-.05-.27-.05-.41-.03-.33.06-.67.24-.95.07-.09.15-.17.25-.22.1-.05.21-.08.32-.08.16,0,.31.05.45.13.14.08.25.19.34.32.22.31.36.67.41,1.05l.27-.06c-.24-1.24-.93-1.79-1.52-1.79"/>
      <path class="st123" d="M111.26,54.48l-.04.41-.38-.04.04-.41.38.04Z"/>
      <path class="st123" d="M111.23,54.9l-.4-.04.04-.43.4.04-.04.43ZM110.84,54.83l.36.04.04-.39-.36-.04-.04.39Z"/>
      <path class="st123" d="M83.96,56.77c0,.08-.03.16-.08.23-.05.07-.12.12-.19.15-.08.03-.16.03-.24.02-.08-.02-.15-.06-.21-.12-.06-.06-.1-.14-.11-.22-.01-.08,0-.17.03-.24.03-.08.09-.14.16-.19.07-.05.15-.07.23-.07.12,0,.22.05.3.13.08.08.12.19.12.31ZM111.5,56.33c-.09,0-.18.02-.25.06-.08.05-.14.11-.17.2-.04.08-.05.17-.03.26.01.09.06.17.12.23.06.06.14.11.23.13.09.02.18.01.26-.02.08-.03.15-.09.2-.16.05-.07.08-.16.08-.25,0-.12-.04-.23-.12-.31-.08-.08-.19-.13-.3-.13Z"/>
      <path class="st123" d="M85.99,62.53c-.16.13-.44.36-.48.4l-.12-.16c.07-.05.45-.35.5-.39l.17-.14s.42-.35.46-.38l.12.17s-.28.21-.47.37l-.17.14h0Z"/>
      <path class="st123" d="M85.81,63.36c.09-.03,1.33-.64,1.38-.67-.05.14-.33.97-.36,1.09.13-.03.96-.24,1.03-.26-.07.18-.54,1.16-.64,1.38l-.17-.08c.08-.15.48-.99.51-1.07-.13.03-.84.21-.99.24.08-.25.26-.8.34-.99l-1.03.52-.07-.17h0Z"/>
      <path class="st123" d="M87.61,65.26c.06-.07.38-.46.47-.57l.14-.18s.28-.36.3-.39c.1.09.19.18.27.28.18.22.23.44.09.61-.18.23-.52.23-.86.04l-.08.1s-.17.21-.19.25l-.15-.13h0ZM88.11,64.93c.23.13.46.15.6-.03.04-.05.16-.26-.15-.54l-.45.57Z"/>
      <path class="st123" d="M89.17,65.71c-.04.07-.33.51-.34.54l-.16-.12s.39-.59.42-.63l.09-.14c.03-.05.27-.42.28-.46.12.08.23.17.34.27.2.19.26.38.17.52-.05.07-.13.12-.21.16-.08.03-.17.04-.26.03,0,.09.05.7.06.78l-.2.02s-.04-.82-.04-.94c.08.02.17.02.25,0,.08-.03.15-.07.21-.14.05-.08.07-.24-.24-.46l-.37.57h0Z"/>
      <path class="st123" d="M90.4,66.53c-.1.18-.28.52-.3.56l-.17-.1c.05-.08.29-.51.31-.56l.11-.2s.26-.49.28-.54l.18.1s-.18.31-.3.53l-.11.2h0Z"/>
      <path class="st123" d="M90.67,67.43c.07-.14.59-1.21.69-1.4.02.09.5,1.49.53,1.57.02-.05.43-.96.46-1.02l.17.09c-.06.11-.43.89-.65,1.37-.03-.08-.53-1.53-.54-1.59-.03.07-.45,1.01-.48,1.07l-.17-.1h0Z"/>
      <path class="st123" d="M92.8,68.34c.03-.05.21-.64.31-.96l.09-.3c-.22-.07-.5-.16-.55-.17l.05-.17c.07.04.53.2.55.21l.17.06s.46.15.55.16l-.05.17s-.38-.15-.54-.2l-.1.33c-.13.41-.25.9-.26.94l-.21-.07h0Z"/>
      <path class="st123" d="M94.58,68.86s-.62-.17-.66-.18c.03-.11.13-.55.14-.6l.06-.28s.11-.53.12-.57c.05.01.57.11.63.11l-.03.17c-.06-.01-.42-.09-.45-.1l-.11.52s.29.06.39.07l-.03.16s-.35-.09-.39-.1l-.11.51s.31.08.47.11l-.03.18h0Z"/>
      <path class="st123" d="M95.3,68.03s.06-.49.05-.55c.17.02.34.05.51.08.65.17.69.49.67.63-.08.65-.9.83-1.36.77.02-.1.08-.62.09-.67l.03-.26h0ZM95.39,68.81c.56.02.9-.28.94-.58.04-.32-.29-.51-.81-.57l-.13,1.14h0Z"/>
      <path class="st123" d="M97.64,68.22s-.02-.49-.03-.55c.17-.01.35-.01.52,0,.66.06.76.36.76.51.03.66-.76.97-1.22.99,0-.1-.01-.62-.01-.68v-.26h-.01ZM97.85,68.96c.55-.08.85-.43.84-.73-.01-.32-.36-.45-.88-.42l.05,1.15Z"/>
      <path class="st123" d="M99.54,68.35c.01.08.09.61.1.64l-.2.03s-.1-.72-.11-.76l-.03-.17c0-.06-.08-.5-.09-.53.14-.02.28-.04.42-.04.27,0,.44.08.46.26,0,.09,0,.18-.05.26s-.1.15-.17.21c.06.06.49.47.55.53l-.14.15s-.57-.57-.64-.65c.07-.05.13-.11.18-.19.04-.08.07-.16.07-.25-.01-.09-.1-.22-.48-.17l.1.69h0Z"/>
      <path class="st123" d="M100.98,68.07c.05.21.14.58.15.62l-.19.05c-.02-.09-.12-.58-.14-.63l-.05-.22s-.13-.54-.14-.59l.2-.05s.07.35.12.6l.05.22h0Z"/>
      <path class="st123" d="M101.76,68.54c-.04-.15-.35-1.31-.41-1.51.07.04,1.33.73,1.41.77-.02-.06-.31-1.01-.33-1.08l.18-.05c.03.12.26.96.41,1.47-.07-.04-1.38-.74-1.43-.77.02.07.32,1.06.35,1.13l-.18.05h0Z"/>
      <path class="st123" d="M103.68,67.82c-.02-.06-.16-.38-.26-.6l-.09-.2c-.07-.17-.25-.53-.27-.58l.18-.09s.17.4.25.56l.09.21c.07.15.27.58.29.61l-.18.08ZM104.51,67.4s-.85-.34-.97-.39c.02-.05.3-.85.31-.92l.16.07c-.04.1-.23.58-.28.73.09.04.73.28.83.31l-.06.19h0Z"/>
      <path class="st123" d="M105.94,64.82c0,.06.24,1.38.25,1.51-.14-.08-.76-.4-.86-.46.02.18.06.91.07,1.09-.14-.11-1-.82-1.2-.98l.11-.17c.18.17.84.71.92.79-.02-.13-.05-.71-.07-1.02.21.12.64.34.83.45-.03-.1-.21-1.05-.24-1.17l.18-.04h0Z"/>
      <path class="st123" d="M106.69,65.88c-.04-.23-.33-1.55-.35-1.64.32.11,1.28.52,1.52.59l-.06.21c-.08-.04-.51-.22-.55-.23l-.52.5s.13.47.15.55l-.2.03h.01ZM107.13,64.74s-.54-.23-.58-.25c0,.06.15.61.15.65l.42-.41h0Z"/>
      <path class="st123" d="M107.92,63.95c.06.06.43.42.45.44l-.14.15s-.49-.51-.53-.53l-.12-.12s-.35-.35-.38-.37c.1-.11.2-.21.31-.3.21-.18.4-.21.52-.08.06.07.1.15.11.24.02.09.01.18-.01.27.08.01.66.06.75.06l-.02.21s-.78-.09-.89-.11c.03-.08.04-.17.03-.26-.01-.09-.04-.17-.09-.24-.06-.07-.21-.11-.48.17l.48.48h0Z"/>
      <path class="st123" d="M109.71,62.83s-.42.51-.44.55c-.08-.07-.42-.36-.46-.39l-.21-.18s-.41-.34-.44-.36c.03-.04.34-.49.38-.55l.13.1c-.04.05-.26.36-.28.39l.4.33s.18-.25.23-.34l.13.1s-.23.29-.26.32l.39.32s.2-.26.3-.4l.14.1h0Z"/>
      <path class="st38" d="M100.36,49.43h-.5v-1.08s.42-.02.47-.03v.12s-.3,0-.33,0v.38s.21,0,.29-.01v.12s-.28,0-.28,0v.38s.23,0,.35,0v.13s0,0,0,0Z"/>
      <path class="st38" d="M100.66,49.33c.14-.03.33-.11.33-.23,0-.08-.05-.12-.15-.18-.13-.07-.21-.13-.21-.24,0-.16.22-.31.42-.36l.03.12c-.09.01-.3.08-.3.21,0,.08.1.13.16.17.11.07.2.12.2.24,0,.15-.15.32-.43.38l-.04-.11h0Z"/>
      <path class="st38" d="M101.66,49.42s0-.49,0-.73v-.23c-.17,0-.38,0-.42.01v-.13c.06.01.41.02.42.02h.13s.34,0,.41-.02v.13s-.29-.01-.42-.01v.25c0,.31.01.68.02.71h-.16,0Z"/>
      <path class="st38" d="M102.42,49.25h-.16v.17h.16v-.17Z"/>
      <path class="st38" d="M103.45,49.42s0-.23,0-.44v-.39c-.04.05-.15.17-.2.21l-.06-.08s.35-.34.4-.4c0,.05-.01.26-.01.46v.64h-.13Z"/>
      <path class="st38" d="M104.35,49.35c.12-.09.22-.21.29-.35-.25.01-.43-.12-.43-.32,0-.09.03-.18.1-.25.06-.07.15-.11.25-.12.04,0,.08.01.12.03.04.02.07.05.1.08.03.03.05.07.06.11.01.04.02.08.01.13-.01.15-.05.3-.13.44-.07.14-.17.26-.3.35l-.08-.11h0ZM104.68,48.9c.02-.07.03-.14.03-.21,0-.17-.07-.26-.18-.26-.03,0-.06,0-.08.02-.03.01-.05.03-.07.05-.02.02-.03.05-.04.07s-.01.05-.01.08c0,.18.16.26.34.24"/>
      <path class="st38" d="M105.74,48.41c-.12.09-.23.2-.29.34.25,0,.43.13.43.32,0,.1-.03.19-.1.26-.06.07-.15.11-.25.12-.04,0-.08,0-.11-.02-.04-.01-.07-.04-.09-.07-.06-.08-.1-.17-.09-.27.01-.15.06-.3.13-.44.08-.13.18-.25.3-.34l.08.1h0ZM105.41,48.85c-.03.07-.04.15-.04.23,0,.15.07.26.17.26.03,0,.06,0,.08-.02.03-.01.05-.03.07-.05.02-.02.03-.05.04-.07,0-.03.01-.06.01-.08,0-.17-.17-.26-.34-.25"/>
      <path class="st38" d="M106.42,49.35c.13-.09.23-.21.29-.35-.25.01-.43-.12-.43-.32,0-.09.03-.18.1-.25.06-.07.15-.11.24-.12.04,0,.08.01.12.03s.07.05.1.08c.03.03.05.07.06.11.01.04.02.08.01.13-.01.15-.05.3-.13.44-.07.14-.18.26-.3.35l-.07-.11ZM106.75,48.9c.02-.07.03-.14.03-.21,0-.17-.07-.26-.18-.26-.03,0-.06,0-.08.02-.03.01-.05.03-.07.05-.02.02-.03.05-.04.07,0,.03-.01.05-.01.08,0,.18.16.26.34.24"/>
      <path class="st123" d="M91.07,56.05s-.09.06-.14.08c.05.04.16.15.33.31.05.05.11.09.18.12.09.05.15.06.18.03.03-.03.04-.11,0-.23-.01-.03-.01-.04,0-.05,0,0,.01,0,.03.01,0,0,.02.02.02.03.03.05.04.1.04.15,0,.09,0,.16-.05.19-.03.02-.06.02-.09.02s-.06,0-.09-.02c-.11-.06-.21-.13-.3-.22-.09-.07-.16-.15-.24-.24,0,0,0-.01,0-.01.01.19.02.38.01.57,0,.09-.02.17-.05.25s-.09.15-.15.21c-.01.01-.03.03-.05.03-.02,0-.04,0-.06,0-.02,0-.04-.01-.05-.02-.02-.01-.03-.03-.04-.04-.03-.05-.05-.1-.06-.16-.01-.06-.02-.12-.01-.18,0-.02,0-.04,0-.06,0-.02.02-.04.03-.05h0s0,.05,0,.07c0,.05,0,.11,0,.16,0,.05.02.1.05.15.04.07.1.07.17.02.13-.09.18-.42.14-.97v-.07h-.03s-.01.03-.02.04c0,0,0,0-.01,0,0,0-.01,0-.02,0s-.01,0-.01,0c0,0,0,0,0-.01,0-.01-.01-.03-.01-.05,0-.02,0-.03.02-.04h0s.05-.03.08-.02c0-.18,0-.28,0-.28,0-.15.02-.22.05-.25,0,0,.01,0,.02,0,0,0,.01,0,.02,0,0,0,.01,0,.02,0,0,0,0,0,.01.02,0,.01.01.03.02.04,0,0,0,.02,0,.03,0,0,0,0-.02,0,0,0,0-.02,0-.03-.01-.02-.02-.02-.03-.01-.03.02-.03.18-.01.48.03-.01.05-.03.08-.05.1-.05.17-.13.22-.22.05-.1.07-.2.05-.31,0-.04-.02-.07-.04-.1-.02-.03-.04-.05-.07-.07-.03-.02-.06-.03-.09-.03-.07,0-.13,0-.2.02-.06.02-.12.06-.17.1-.15.12-.26.27-.33.45-.05.09-.08.19-.08.29s.03.2.08.29c0,.01.01.02.02.03,0,0,.02.01.03.01.01,0,.02,0,.04,0,.01,0,.02-.01.03-.02.05-.05.09-.11.11-.18.02-.07.03-.14.02-.21,0-.01,0-.03,0-.04,0,0,.01,0,.01.01.03.09.03.18,0,.27-.02.09-.08.16-.15.22-.07.05-.12.05-.16,0,0,0,0,0,0-.01-.05-.09-.08-.19-.08-.29,0-.1,0-.2.04-.3.07-.22.2-.41.39-.54.06-.06.14-.1.22-.13.08-.03.17-.04.25-.03.04,0,.07.02.11.04.03.02.06.05.08.08.02.03.04.07.05.1.02.06.02.12.01.17,0,.06-.03.11-.06.16-.06.11-.15.21-.25.28"/>
      <path class="st123" d="M95.61,54.12s.04,0,.04.02c.01.29,0,.57-.07.85.02.04.05.09.08.13l.36-.65c.14-.25.23-.41.29-.49.09-.15.24-.26.4-.31.04-.01.08-.01.12,0,.01,0,.02,0,.03.02,0,0,.02.02.02.03,0,.03,0,.04,0,.05,0,0,0,0-.01,0,0,0,0,0-.01,0-.01,0-.04,0-.07,0-.06.02-.11.05-.16.09-.14.1-.27.23-.36.38-.08.11-.18.28-.3.5s-.21.37-.27.46c.1.14.22.26.35.37.2.17.35.23.46.2.01,0,.02,0,.03-.01,0,0,.02-.02.02-.03,0,0,0-.02,0-.03,0-.01,0-.02,0-.03,0-.01,0-.02-.01-.03,0-.01,0-.03,0-.04,0-.02,0-.03.01-.03,0,0,.03.01.05.06,0,0,0,.01,0,.02,0,.02,0,.05,0,.07,0,.02-.01.04-.03.06-.03.04-.07.07-.12.09-.04.01-.09.02-.13,0-.13-.05-.25-.12-.35-.22-.13-.11-.24-.24-.34-.39-.03.05-.08.1-.13.13-.04.16-.1.31-.17.46-.04.08-.09.15-.15.22-.05.06-.11.1-.18.12-.04.01-.08.02-.12.02-.04,0-.08-.02-.12-.04-.08-.06-.13-.15-.15-.25-.02-.06-.02-.12-.02-.18,0-.16.06-.31.16-.42.05-.05.11-.09.18-.11.03-.01.06-.01.08,0,.03,0,.05.02.07.05.01.02.02.04.03.06,0,.01,0,.03,0,.04,0,0-.01,0-.02,0-.05-.06-.08-.08-.12-.08-.02,0-.03,0-.05,0-.05.02-.09.05-.13.09-.03.04-.06.08-.07.13-.06.14-.08.3-.03.45,0,.03.01.06.03.09s.04.05.07.07c.03.02.06.03.09.04.03,0,.07,0,.1,0,0,0,0,0,.01,0,.07-.03.13-.08.17-.14.12-.19.21-.39.27-.61-.02-.01-.04-.03-.06-.05-.02-.02-.03-.05-.03-.07-.02-.06-.02-.13,0-.19,0-.03.02-.06.04-.08.02-.02.05-.04.08-.05.02,0,.03,0,.05,0,.02-.14.04-.29.05-.45.01-.09.01-.18,0-.27,0,0,0,0,0,0s0,0,0,0c-.04.03-.07.07-.1.1-.04.05-.09.1-.12.15-.03.05-.06.1-.08.16-.03.05-.04.1-.03.16,0,0,0,.02.02.02,0,0,.02.01.02.01.03.01.07,0,.1,0,0,0,0,0,0,0,0,0,0,0,0,0,0,0-.01.01-.04.03-.02.01-.05.02-.07.03,0,0-.02,0-.03,0s-.02,0-.03,0c0,0-.01-.01-.02-.02,0,0,0-.02,0-.03-.01-.07,0-.14.02-.21.02-.08.06-.15.11-.22.07-.11.16-.2.27-.28M95.5,55.01s-.03,0-.05,0c-.02,0-.03.02-.04.06,0,.03,0,.06,0,.09,0,.03.02.05.04.07.03-.12.04-.19.05-.22M95.62,55.18s-.03-.05-.05-.08c-.01.05-.02.1-.03.15,0,0,.02,0,.03-.01.02-.02.03-.03.05-.05"/>
      <path class="st123" d="M54.29,80.24v-5.59h2.88c.41-.01.83.03,1.23.14.28.09.52.27.68.51.18.27.27.58.26.91,0,.28-.06.56-.2.8-.13.23-.32.41-.55.55-.19.1-.39.18-.61.22.3.07.56.25.73.5.09.11.17.22.24.35l.84,1.62h-1.95l-.92-1.71c-.07-.16-.18-.31-.31-.43-.12-.09-.27-.13-.42-.13h-.15v2.27h-1.74ZM56.03,76.91h.73c.15-.01.31-.04.46-.08.11-.02.21-.08.28-.18.08-.11.12-.25.11-.38-.01-.14-.07-.26-.17-.36-.19-.12-.42-.17-.64-.15h-.76v1.14Z"/>
      <path class="st123" d="M60.34,74.64h4.63v1.19h-2.9v.89h2.69v1.14h-2.69v1.1h2.99v1.27h-4.72v-5.59h0Z"/>
      <path class="st123" d="M65.69,78.39l1.64-.1c.02.22.09.43.22.61.09.11.21.2.34.26.13.06.28.09.42.08.2.01.41-.05.57-.17.06-.05.11-.11.15-.18.03-.07.05-.15.05-.22,0-.07-.02-.15-.05-.22-.03-.07-.08-.13-.14-.17-.27-.17-.57-.28-.88-.33-.59-.1-1.14-.33-1.62-.68-.16-.13-.28-.3-.37-.48-.08-.19-.13-.39-.12-.6,0-.29.09-.57.25-.81.19-.27.45-.48.75-.6.44-.16.91-.24,1.38-.22.57-.04,1.14.1,1.64.4.2.15.36.34.47.56.12.22.18.46.2.71l-1.63.1c0-.1-.03-.21-.08-.3-.05-.09-.11-.18-.19-.25-.08-.07-.17-.12-.27-.15-.1-.03-.2-.04-.31-.03-.16-.01-.32.03-.45.13-.05.04-.09.08-.11.14-.03.05-.04.11-.04.17,0,.05.01.09.04.13.02.04.05.08.09.11.18.11.37.18.58.2.56.1,1.1.27,1.62.49.29.14.54.35.71.62.15.25.23.54.22.83,0,.35-.1.7-.3.99-.2.31-.49.55-.83.69-.43.17-.89.25-1.35.23-.7.08-1.41-.12-1.97-.55-.37-.38-.59-.87-.62-1.4h0Z"/>
      <path class="st123" d="M71.42,77.44c-.04-.39,0-.78.14-1.15s.34-.7.62-.98c.28-.28.61-.49.98-.62.37-.13.76-.18,1.15-.15.39-.02.78.03,1.15.16.37.13.71.33,1,.59.26.28.46.61.59.97s.18.74.16,1.13c.02.56-.09,1.11-.33,1.61-.21.41-.55.75-.95.98-.48.25-1.01.37-1.55.35-.54.02-1.07-.08-1.57-.3-.42-.21-.77-.54-1.01-.95-.27-.5-.41-1.06-.39-1.63h0ZM73.14,77.45c-.04.43.07.86.32,1.22.11.12.24.21.39.27.15.06.31.1.47.1.16,0,.32-.03.47-.09.15-.06.28-.15.39-.27.24-.39.35-.85.3-1.3.04-.41-.08-.82-.32-1.15-.11-.12-.24-.22-.39-.28-.15-.06-.31-.09-.47-.09-.16,0-.32.02-.46.09-.15.06-.27.16-.38.28-.24.36-.36.79-.32,1.23h0Z"/>
      <path class="st123" d="M78.16,80.24v-5.59h2.88c.41-.01.83.03,1.23.14.28.09.52.27.68.51.18.27.27.58.26.91,0,.28-.06.56-.2.8-.13.23-.32.41-.55.55-.19.1-.39.18-.61.22.3.07.56.25.73.5.09.11.17.22.24.35l.84,1.62h-1.95l-.93-1.71c-.07-.16-.18-.31-.31-.43-.12-.09-.27-.13-.42-.13h-.15v2.27h-1.74ZM79.9,76.91h.73c.15-.01.31-.04.46-.08.11-.02.21-.08.28-.18.08-.11.12-.25.11-.38-.01-.14-.07-.26-.17-.36-.19-.12-.42-.17-.64-.15h-.76v1.14Z"/>
      <path class="st123" d="M83.76,74.64h5.25v1.38h-1.76v4.21h-1.73v-4.21h-1.76v-1.38Z"/>
      <path class="st123" d="M95.84,79.32h-1.96l-.27.92h-1.76l2.1-5.59h1.89l2.1,5.59h-1.81l-.28-.92h0ZM95.48,78.11l-.62-2.01-.61,2.01h1.23Z"/>
      <path class="st123" d="M98.49,74.64h1.62l2.11,3.09v-3.09h1.63v5.59h-1.63l-2.1-3.07v3.07h-1.62v-5.59h0Z"/>
      <path class="st123" d="M105.01,74.64h2.57c.42-.02.84.05,1.23.2.3.13.57.33.77.59.21.27.36.57.44.9.09.35.14.72.14,1.08.02.47-.05.94-.2,1.39-.13.31-.32.6-.57.83-.22.21-.49.36-.78.44-.33.1-.68.15-1.03.15h-2.57v-5.59h0ZM106.74,75.91v3.06h.42c.26.02.52-.02.77-.12.17-.09.29-.24.36-.42.1-.31.15-.64.13-.97.05-.43-.06-.86-.29-1.22-.13-.12-.28-.21-.45-.27-.17-.06-.34-.08-.52-.06h-.43Z"/>
      <path class="st123" d="M113.37,78.39l1.64-.1c.02.22.09.43.22.61.09.11.21.2.34.26.13.06.28.09.42.08.2.01.41-.05.57-.17.06-.05.11-.11.15-.18.03-.07.05-.15.05-.22,0-.07-.02-.15-.05-.22-.03-.07-.08-.13-.14-.17-.27-.17-.57-.28-.88-.33-.59-.1-1.14-.33-1.62-.68-.16-.13-.28-.3-.37-.48-.08-.19-.13-.39-.12-.6,0-.29.09-.57.25-.81.19-.27.45-.48.75-.6.44-.16.91-.24,1.38-.22.57-.04,1.14.1,1.64.4.2.15.36.34.47.56.12.22.18.46.2.71l-1.63.1c0-.1-.03-.21-.08-.3-.05-.09-.11-.18-.19-.25-.08-.07-.17-.12-.27-.15-.1-.03-.21-.04-.31-.03-.16-.01-.32.03-.45.13-.05.04-.09.08-.11.14-.03.05-.04.11-.04.17,0,.05.01.09.04.13.02.04.05.08.09.11.18.11.37.18.58.2.56.1,1.1.27,1.62.49.29.14.54.35.71.62.15.25.23.54.22.83,0,.35-.1.7-.3.99-.2.31-.49.55-.83.69-.43.17-.89.25-1.35.23-.7.08-1.41-.12-1.97-.55-.37-.38-.59-.87-.62-1.4h0Z"/>
      <path class="st123" d="M119.1,77.44c-.04-.39,0-.78.14-1.15.13-.37.34-.7.62-.98.28-.28.61-.49.98-.62.37-.13.76-.18,1.15-.15.39-.02.78.03,1.15.16.37.13.71.33,1,.59.26.28.46.61.59.97.13.36.19.74.16,1.13.02.56-.09,1.11-.33,1.61-.21.41-.55.75-.95.98-.48.25-1.02.37-1.55.35-.54.02-1.07-.08-1.57-.3-.42-.21-.77-.54-1.01-.95-.27-.5-.41-1.06-.39-1.63h0ZM120.82,77.45c-.04.43.07.86.32,1.22.11.12.24.21.39.27.15.06.31.1.47.1.16,0,.32-.03.47-.09.15-.06.28-.15.39-.27.24-.39.35-.85.3-1.3.03-.41-.08-.82-.32-1.15-.11-.12-.24-.22-.39-.28-.15-.06-.31-.09-.47-.09-.16,0-.32.02-.46.09-.15.06-.28.16-.38.28-.24.36-.35.79-.32,1.23h0Z"/>
      <path class="st123" d="M129.46,74.64h1.72v3.33c0,.32-.05.64-.15.94-.1.29-.27.55-.49.77-.2.2-.43.36-.69.46-.39.13-.8.2-1.21.19-.3,0-.6-.02-.89-.06-.28-.03-.56-.1-.81-.23-.23-.12-.43-.29-.59-.48-.17-.19-.29-.41-.37-.64-.1-.31-.15-.62-.16-.94v-3.33h1.72v3.41c0,.13.01.26.06.38.04.12.11.24.2.33.2.16.44.25.7.25s.5-.09.7-.25c.09-.1.16-.21.2-.33.04-.12.06-.25.05-.39v-3.41h.01Z"/>
      <path class="st123" d="M131.78,74.64h1.8l1.26,4.02,1.24-4.02h1.75l-2.08,5.59h-1.87l-2.11-5.59Z"/>
      <path class="st123" d="M138.4,74.64h4.63v1.19h-2.9v.89h2.69v1.14h-2.69v1.1h2.99v1.27h-4.71v-5.59h0Z"/>
      <path class="st123" d="M144.06,74.64h1.61l2.11,3.09v-3.09h1.63v5.59h-1.63l-2.1-3.07v3.07h-1.62v-5.59Z"/>
      <path class="st123" d="M150.63,74.64h1.73v5.59h-1.73v-5.59Z"/>
      <path class="st123" d="M153.62,80.24v-5.59h2.88c.41-.01.82.03,1.22.14.28.09.52.27.68.51.18.27.27.58.26.91,0,.28-.06.56-.2.8-.13.23-.32.41-.55.55-.19.1-.39.18-.61.22.16.05.31.12.45.21.1.09.2.19.28.29.09.11.17.22.24.35l.84,1.62h-1.95l-.93-1.71c-.07-.16-.18-.31-.31-.43-.12-.09-.27-.13-.42-.13h-.15v2.27h-1.74ZM155.36,76.91h.73c.15-.01.31-.04.46-.08.11-.02.21-.08.28-.18.08-.11.12-.25.11-.38-.01-.14-.07-.26-.17-.36-.19-.12-.42-.17-.64-.15h-.76v1.14Z"/>
      <path class="st123" d="M162.3,74.64h2.57c.42-.02.83.05,1.23.2.3.13.57.33.77.59.21.27.36.57.44.9.09.35.14.72.14,1.08.02.47-.05.94-.2,1.39-.12.32-.32.6-.57.83-.22.21-.49.36-.78.44-.34.1-.68.15-1.03.15h-2.57v-5.59h0ZM164.03,75.91v3.06h.42c.26.02.53-.02.77-.12.17-.09.29-.24.36-.42.1-.31.15-.64.13-.97.04-.43-.06-.86-.29-1.22-.13-.12-.28-.21-.45-.27-.17-.06-.34-.08-.52-.06h-.43Z"/>
      <path class="st123" d="M168.38,80.24v-5.59h2.88c.41-.01.82.03,1.22.14.28.09.52.27.68.51.18.27.27.58.26.91,0,.28-.06.56-.2.8-.13.23-.32.41-.55.55-.19.1-.39.18-.61.22.16.05.31.12.45.21.1.09.2.19.28.29.09.11.17.22.24.35l.84,1.62h-1.95l-.93-1.71c-.07-.16-.18-.31-.31-.43-.12-.09-.27-.13-.42-.13h-.15v2.27h-1.74ZM170.12,76.91h.73c.15-.01.31-.04.46-.08.11-.02.21-.08.28-.18.08-.11.12-.25.11-.38-.01-.14-.07-.26-.17-.36-.19-.12-.42-.17-.64-.15h-.76v1.14Z"/>
      <path class="st123" d="M174.51,74.64h1.73v5.59h-1.73v-5.59Z"/>
      <path class="st123" d="M177.49,74.64h1.61l2.11,3.09v-3.09h1.63v5.59h-1.63l-2.1-3.07v3.07h-1.62v-5.59Z"/>
      <path class="st123" d="M183.99,74.64h1.73v2.11l1.81-2.11h2.3l-2.04,2.11,2.13,3.48h-2.13l-1.18-2.3-.89.94v1.36h-1.73v-5.59h0Z"/>
      <path class="st123" d="M189.92,74.64h1.64l.59,3.13.87-3.13h1.64l.87,3.13.59-3.13h1.63l-1.23,5.59h-1.69l-.98-3.52-.98,3.52h-1.69l-1.24-5.59h0Z"/>
      <path class="st123" d="M201.75,79.32h-1.96l-.27.92h-1.76l2.1-5.59h1.88l2.1,5.59h-1.81l-.28-.92h0ZM201.39,78.11l-.62-2.01-.61,2.01h1.23Z"/>
      <path class="st123" d="M204.41,80.24v-5.59h2.88c.41-.01.82.03,1.22.14.28.09.52.27.68.51.18.27.27.58.26.91,0,.28-.06.56-.2.8-.13.23-.32.41-.55.55-.19.1-.39.18-.61.22.16.05.31.12.45.21.1.09.2.19.28.29.09.11.17.22.24.35l.84,1.62h-1.95l-.93-1.71c-.07-.16-.18-.31-.31-.43-.12-.09-.27-.13-.42-.13h-.15v2.27h-1.74ZM206.15,76.91h.73c.15-.01.31-.04.46-.08.11-.02.21-.08.28-.18.08-.11.12-.25.11-.38-.01-.14-.07-.26-.17-.36-.19-.12-.42-.17-.64-.15h-.76v1.14Z"/>
      <path class="st123" d="M210.46,74.64h4.63v1.19h-2.9v.89h2.69v1.14h-2.69v1.1h2.99v1.27h-4.72v-5.59Z"/>
      <path class="st123" d="M177.47,32.23h0s-.01,0-.01,0h0Z"/>
      <path class="st123" d="M191.05,36.02c-.03-.08-.06-.15-.1-.22-.16-.29-.38-.54-.66-.72,0,0-.01-.01-.02-.02-.35-.23-.75-.34-1.17-.34-.41,0-.82.14-1.15.38.04-.08.09-.17.13-.26.13-.22.33-.38.57-.46,1.22-.38,2.45-.72,3.7-1.08-.05-.16-.09-.29-.14-.43-.11.01-.23.03-.34.06-1.23.35-2.46.7-3.68,1.07-.18.07-.33.19-.43.36-.44.83-.87,1.67-1.29,2.51h-3.59l-1.04-2.22c1.13-.53,2.21-1.04,3.42-1.6l-4.6-1.05-.03.08,2.89,1.5c-.53.25-.97.44-1.43.66-.51-.67-1-1.33-1.51-1.97-.06-.06-.13-.11-.21-.14-.02-.01-.05-.02-.07-.04v-.02h0s0,.01,0,.01h0c-.15.26-.32.51-.46.78-.6,1.14-1.19,2.28-1.85,3.55l3.45-1.59c.32.69.63,1.35.95,2.04h-.76v33.91h7.55v-31.03h0v-.94c.13,0,.27-.02.4-.05.36-.07.69-.24.96-.49.27-.25.47-.56.57-.91.09-.3.1-.61.05-.91-.02-.15-.06-.29-.12-.42h.01ZM187.09,36.75s0,.08.01.12h-.07l.06-.12ZM188.93,35.8c-.03-.11-.06-.23-.09-.38-.16.09-.3.18-.44.27-.1.06-.2.12-.31.19.06.05.11.1.16.14l.4.34s-.02.03-.04.04l-.64-.36c-.04.14-.06.26-.1.4-.04.14-.06.26-.1.42h-.33c-.02-.23.01-.46.1-.68.05-.14.12-.28.21-.41.14-.19.32-.36.52-.48.03-.02.08-.04.11-.06.16-.08.33-.13.5-.16.15-.02.31-.02.47,0,.23.04.46.12.66.24.2.12.38.29.51.48.05.07.09.14.13.22.07.13.11.28.14.42.02.09.03.17.03.26.02.38-.1.76-.33,1.07-.23.31-.56.53-.93.63-.06.02-.12.04-.18.05-.08,0-.15.04-.22.08v-1.03c.02.17.02.33,0,.5.01-.1.03-.21.06-.41.04.23.07.36.11.56l.23-.13.57-.31c-.16-.17-.27-.29-.38-.41.01-.01.02-.03.04-.04.15.09.29.17.49.29l.21-.87-.86.03s0-.03,0-.05c.26-.06.53-.11.85-.18,0-.01-.02-.03-.02-.04l-.25-.42c-.04-.07-.09-.15-.13-.22-.01-.02-.02-.04-.03-.06-.02.02-.04.04-.05.06-.07.08-.14.15-.2.22-.14.15-.26.29-.39.42l-.1.1s0,0,0,0c-.02.03-.03.06-.05.09-.04.07-.07.15-.08.22h-.84c.33.01.65-.08.93-.28.01-.01.03-.02.04-.03.02-.04.04-.07.06-.11.08-.14.16-.28.25-.42.04-.07.08-.15.13-.22.05-.08.08-.13.12-.2-.3-.07-.56-.13-.85-.2.01.15.02.28.03.4,0,.08.01.15.01.22,0,.04,0,.08,0,.12-.02,0-.04,0-.06,0-.01-.04-.02-.08-.03-.13"/>
      <path d="M189.31,36.56h.01s0-.02,0-.01h0s0,.01,0,.01Z"/>
    </g>
  </g>
</svg>