<?xml version="1.0" encoding="UTF-8"?>
<svg id="Layer_1" xmlns="http://www.w3.org/2000/svg" version="1.1" viewBox="0 0 270 112">
  <!-- Generator: Adobe Illustrator 30.0.0, SVG Export Plug-In . SVG Version: 2.1.1 Build 123)  -->
  <defs>
    <style>
      .st0 {
        fill: #fff;
      }

      .st1 {
        fill: red;
      }
    </style>
  </defs>
  <rect class="st0" width="270" height="112" rx="29" ry="29"/>
  <path class="st1" d="M125.71,58.86h8.99l-4.75-8.22-8.72,14.85h-3.97l10.61-17.84c.46-.72,1.23-1.16,2.08-1.16s1.59.42,2.04,1.13l10.65,17.87h-3.97l-1.87-3.32h-9.1l-1.98-3.32h0ZM166.94,62.18v-15.5h-3.37v17.02c0,.47.17.92.49,1.26.32.35.75.54,1.23.54h15.36l1.99-3.32h-15.7ZM111.22,59.41c3.27,0,5.93-2.84,5.93-6.35s-2.66-6.37-5.93-6.37h-14.74v18.82h3.37v-15.5h11.14c1.57,0,2.82,1.37,2.82,3.05s-1.26,3.05-2.82,3.05h-9.5l10.05,9.4h4.89l-6.76-6.1s1.55,0,1.55,0ZM75.76,65.5c-4.83,0-8.76-4.21-8.76-9.4s3.92-9.42,8.76-9.42h10.18c4.84,0,8.76,4.22,8.76,9.42s-3.92,9.4-8.76,9.4h-10.18ZM85.71,62.18c3.13,0,5.67-2.72,5.67-6.08s-2.54-6.1-5.67-6.1h-9.73c-3.13,0-5.67,2.73-5.67,6.1s2.54,6.08,5.67,6.08h9.73ZM149.67,65.5c-4.84,0-8.76-4.21-8.76-9.4s3.93-9.42,8.76-9.42h12.09l-1.97,3.32h-9.89c-3.13,0-5.67,2.73-5.67,6.1s2.54,6.08,5.67,6.08h12.14l-1.99,3.32s-10.38,0-10.38,0ZM190.85,62.18c-2.59,0-4.78-1.86-5.45-4.43h14.39l1.99-3.32h-16.38c.67-2.55,2.86-4.43,5.45-4.43h9.88l2-3.32h-12.1c-4.84,0-8.76,4.22-8.76,9.42s3.93,9.4,8.76,9.4h10.38l1.99-3.32h-12.15Z"/>
</svg>