<?xml version="1.0" encoding="UTF-8"?>
<svg id="Layer_1" xmlns="http://www.w3.org/2000/svg" version="1.1" viewBox="0 0 270 112">
  <!-- Generator: Adobe Illustrator 30.0.0, SVG Export Plug-In . SVG Version: 2.1.1 Build 123)  -->
  <defs>
    <style>
      .st0 {
        fill: #2ca01c;
      }

      .st1 {
        fill: #fff;
      }
    </style>
  </defs>
  <rect class="st1" width="270" height="112" rx="29" ry="29"/>
  <path class="st0" d="M67.76,73.47c10.98,0,19.88-8.9,19.88-19.88s-8.9-19.88-19.88-19.88-19.88,8.9-19.88,19.88,8.9,19.88,19.88,19.88Z"/>
  <path class="st1" d="M61.12,45.85c-4.27,0-7.74,3.46-7.74,7.74s3.46,7.73,7.74,7.73h1.11v-2.87h-1.11c-2.68,0-4.86-2.18-4.86-4.86s2.18-4.86,4.86-4.86h2.66v15.02c0,1.58,1.29,2.87,2.87,2.87v-20.77s-5.53,0-5.53,0ZM74.39,61.32c4.27,0,7.74-3.46,7.74-7.73s-3.46-7.73-7.74-7.73h-1.11v2.87h1.11c2.68,0,4.86,2.18,4.86,4.86s-2.18,4.86-4.86,4.86h-2.66v-15.02c0-1.58-1.29-2.87-2.87-2.87v20.76h5.53Z"/>
  <path d="M106.51,78.29h-3.08v-7.79h-.05c-.79,1.23-2.36,2-4.08,2-3.74,0-6.05-2.97-6.05-6.56s2.46-6.46,5.97-6.46c2.26,0,3.64,1.1,4.25,2.07h.08v-1.72h2.95v18.46h.01ZM99.93,69.94c2.26,0,3.61-2.02,3.61-3.95s-1.36-4-3.61-4c-2.38,0-3.53,2.02-3.53,3.95s1.15,4,3.53,4h0ZM120.32,72.14h-2.92v-1.98h-.05c-.54,1.23-2,2.33-3.82,2.33-3.21,0-4.54-2.46-4.54-4.97v-7.69h3.08v6.82c0,1.46.33,3.28,2.31,3.28s2.87-1.69,2.87-3.33v-6.77h3.08v12.3h-.01ZM123.41,59.57h3.08v12.3h-3.08v-12.3ZM137.98,63.25c-.48-.69-1.54-1.21-2.54-1.21-2.26,0-3.39,2.02-3.39,3.95s1.16,3.95,3.48,3.95c.95,0,2-.39,2.59-1.1l1.92,1.95c-1.03,1.1-2.72,1.72-4.54,1.72-3.64,0-6.66-2.41-6.66-6.51s2.97-6.51,6.58-6.51c1.8,0,3.66.72,4.64,1.92l-2.1,1.84h.02ZM141.6,52.77h3.08v12.25h.08l4.67-5.18h3.95l-5.33,5.56,5.67,6.74h-4.07l-4.87-6.31h-.08v6.31h-3.08v-19.37h-.02ZM158.17,52.77v8.64h.08c.64-.79,1.87-1.92,4.13-1.92,3.51,0,5.97,2.82,5.97,6.46s-2.31,6.56-6.05,6.56c-1.72,0-3.39-.79-4.23-2.2h-.05v1.85h-2.92v-19.38h3.08-.01ZM161.68,62c-2.26,0-3.61,2.07-3.61,4s1.36,3.95,3.61,3.95c2.38,0,3.53-2.07,3.53-4s-1.15-3.95-3.53-3.95h0ZM176.36,59.48c3.72,0,6.69,2.59,6.69,6.46s-2.97,6.56-6.69,6.56-6.69-2.69-6.69-6.56,2.97-6.46,6.69-6.46ZM176.36,69.94c2.44,0,3.56-2.07,3.56-4s-1.12-3.95-3.56-3.95-3.56,2.02-3.56,3.95,1.12,4,3.56,4ZM191.08,59.48c3.72,0,6.69,2.59,6.69,6.46s-2.97,6.56-6.69,6.56-6.69-2.69-6.69-6.56,2.97-6.46,6.69-6.46ZM191.08,69.94c2.44,0,3.56-2.07,3.56-4s-1.12-3.95-3.56-3.95-3.56,2.02-3.56,3.95,1.12,4,3.56,4ZM199.63,52.77h3.08v12.25h.08l4.67-5.18h3.94l-5.32,5.56,5.66,6.74h-4.07l-4.87-6.31h-.08v6.31h-3.08v-19.37h0ZM220.13,63.12c-.54-.72-1.56-1.33-2.69-1.33-.97,0-1.98.36-1.98,1.34s.95,1.21,2.66,1.62c1.82.44,3.97,1.25,3.97,3.66,0,3-2.44,4.1-5.12,4.1-1.89,0-3.87-.72-5.05-2.02l2.02-1.89c.67.87,1.82,1.54,3.15,1.54.9,0,1.98-.36,1.98-1.46,0-1.03-.95-1.33-2.82-1.77-1.82-.44-3.64-1.18-3.64-3.48,0-2.75,2.46-3.92,4.9-3.92,1.76,0,3.61.61,4.61,1.87l-1.99,1.77h0v-.02h0ZM126.95,43.05c0,3.12,2.49,5.4,5.67,5.4s5.67-2.27,5.67-5.4v-7.16h-3.08v6.8c0,1.68-1.12,2.81-2.6,2.81s-2.61-1.12-2.61-2.81v-6.8h-3.07l.02,7.16h0ZM146.52,38.77h3.67v9.43h3.07v-9.43h3.66v-2.88h-10.4v2.88h0ZM144.53,35.89h-3.07v12.32h3.07v-12.32ZM114.55,38.77h3.67v9.43h3.07v-9.43h3.66v-2.88h-10.4v2.88h0ZM98.44,35.89h-3.07v12.32h3.07v-12.32ZM112.94,41.04c0-3.12-2.5-5.4-5.67-5.4s-5.67,2.27-5.67,5.4v7.16h3.07v-6.8c0-1.68,1.12-2.81,2.6-2.81s2.6,1.12,2.6,2.81v6.8h3.07v-7.16h0Z"/>
</svg>