<?xml version="1.0" encoding="UTF-8"?>
<svg id="Layer_1" xmlns="http://www.w3.org/2000/svg" version="1.1" viewBox="0 0 270 112">
  <!-- Generator: Adobe Illustrator 30.0.0, SVG Export Plug-In . SVG Version: 2.1.1 Build 123)  -->
  <defs>
    <style>
      .st0 {
        fill: #fff;
      }

      .st1 {
        fill: #cc163f;
      }
    </style>
  </defs>
  <rect class="st0" width="270" height="112" rx="29" ry="29"/>
  <rect class="st0" width="270" height="112" rx="29" ry="29"/>
  <path class="st1" d="M111.76,94.37c-4,0-7.42-1.09-10.17-3.24-4.34-3.39-8.09-6.03-8.12-6.06l-6.17-5.14c-2.48-3.04-2.71-6.65-.62-10.57,1.06-2,8.46-15.67,13.76-25.45l-1.24-1.47c-1.62-1.92-2.32-4.39-1.93-6.77.38-2.25,1.68-4.19,3.59-5.32,2.24-1.33,11.67-6.65,14.84-8.44,5.03-2.83,9.4-4.27,13-4.27.92,0,1.8.09,2.62.28,2.82.64,5.2,2.37,6.72,4.89,1.45,2.4,2.82,6.69,1.09,13.45-.04.14-.07.28-.11.42.73.07,1.43.33,2.02.74,2.09,1.45,2.93,4.4,2.42,7.46.21-.18.42-.35.63-.51,2.77-2.16,5.67-3.3,8.38-3.3,2.92,0,5.46,1.3,7.15,3.66.4.56.73,1.15.97,1.75,3.94-4.78,7.54-6.86,11.63-6.86.16,0,.31,0,.47,0,2.47.1,4.68,1.15,6.4,3.03,2.48,2.73,3.26,6.46,3.18,8.85-.03,2.15-.23,4.12-.63,5.96.62.86,3.77,5.89-1.03,14.28-1.59,2.83-3.54,4.94-6.11,6.64-2.86,1.88-6.49,3.29-11.45,4.43-9.12,2.09-38.88,9.23-43.62,10.46-2.84.74-5.34,1.1-7.66,1.1Z"/>
  <path class="st0" d="M113.85,75.99c3.26,2.39,7.55-1.47,7.55-1.47.01-.09-9.47-7.03-15.87-11.7,2.36-1.04,8.05-3.69,13.06-7.04,6.51-4.36,15.21-11.91,17.38-20.36,2.16-8.45-.94-13.27-5.35-14.27-4.4-1-10.32,1.95-13.33,3.65-3.01,1.69-12.56,7.09-14.78,8.41-2.22,1.31-2.91,4.6-.83,7.07,0,0,2.77-1.69,6.58-3.92-3.47,6.41-17.23,31.78-18.7,34.56-1.69,3.19-1.4,5.88,1.85,8.41l7.8-14.42c2.6,1.98,11.85,9.03,14.65,11.07ZM122.99,28.25c3.54-1.91,6.43-2.19,7.47-1,1.04,1.19,1.83,7.83-4.4,14.87-5.99,6.77-15.82,12.82-22.91,15.5l14.34-26.5c1.92-1.05,3.8-2.04,5.5-2.88ZM134.01,64.66c-1.49,1.62-2.89,3.13-3.51,3.72-1.59,1.52-2.42,1.75-2.68,1.57-.27-.18-.44-.4.31-1.78.75-1.37,3.67-7.07,4.85-9.28,1.18-2.21.91-4.57.15-5.59-.77-1.02-2.27-1.67-2.27-1.67,0,0-6.1,11.12-7.84,15.15-1.74,4.03-1,7.13.94,8.37,1.94,1.24,5.97.3,9.77-2.96,1.4-1.2,2.63-2.43,3.62-3.49.24,1.29,1.07,3.51,3.98,4.64,4.05,1.57,10.26-1.43,15.76-7.85.07,1.01.49,3.13,2.65,4.99,2.96,2.56,9.11,1.76,14.71-5.38,3.13-4.09,4.48-8.04,4.54-13.67.13-3.2-1.86-8.31-6.43-8.49-3.74-.15-7.09,2.08-11.65,8.55-2.19,3.48-5.79,8.58-5.79,8.59-.98,1.11-2.05,2.28-3.11,3.38-3.48,3.62-7.31,5.96-9.02,4.98-1.71-.99-1.33-5.17,1-10.52,2.33-5.35,7.93-9.07,8.73-8.4.68.97-.5,2.39-.5,2.39,0,0,.28,1.36,2.65,1.02,2.37-.34,4.19-3.32,2.09-6.25-2.09-2.93-6.25-3.27-10.88.33-4.63,3.6-7.64,10.01-8.33,11.94l-3.75,5.71ZM162.87,58.98c1.78-4.77,4.1-7.18,4.1-7.18,0,3.79,3.55,6.49,3.55,6.49,1.26-1.25,1.99-4.58,1.99-4.58-1.35-1.72-1.3-5.1-1.3-5.1l1-.64s1.3.8,1.57,2.97c.27,2.17-.34,6.38-2.23,9.28-1.89,2.9-4.75,6.13-7.2,6.27-2.46.14-3.26-2.72-1.48-7.49ZM139.19,40.16c1.4.97,1.64,4.36-.06,7.11-1.69,2.75-3.96,4.55-5.76,2.96-1.84-1.63.68-6.42,1.75-7.86,1.08-1.44,3.04-2.93,4.07-2.21ZM177.77,70.09c-2.38,4.22-5.98,7.31-15.45,9.48-9.47,2.17-39.12,9.28-43.72,10.48-4.6,1.19-10.55,1.93-15.02-1.55-4.46-3.49-8.26-6.16-8.26-6.16,0,0,57.51-6.62,67.4-8.15,9.89-1.53,13.7-5.66,16.27-14.77,0,0,2.8,3.63-1.23,10.66Z"/>
  <path class="st1" d="M118.15,83.34c0-.79,0-1.18.01-1.97-1.31.21-1.97.32-3.28.55v1.19c.15-.03.22-.04.37-.07,0,1.59,0,3.18,0,4.77-.15.03-.22.05-.37.08v1.19c1.29-.29,1.94-.43,3.23-.72,0-.83,0-1.24.01-2.05-.39.09-.59.13-.98.21,0,.34,0,.51,0,.86-.32.07-.47.11-.79.18,0-.74,0-1.1,0-1.83.17-.04,1.12-.2,1.45-.26,0-.45,0-.75,0-1.17-.33.06-1.29.22-1.46.25,0-.69,0-1.03,0-1.72.32-.06.48-.09.8-.15,0,.33,0,.5,0,.84.39-.08.59-.11.99-.19Z"/>
  <path class="st1" d="M121.97,81.87c0,.52,0,.79-.01,1.32.71.02,1.06.03,1.77.05.13.21.2.31.33.52-.01,1-.02,1.51-.03,2.57-.2.32-.3.49-.51.82-.89.2-1.33.31-2.22.51-.19-.24-.29-.36-.49-.6,0-.55,0-.82.01-1.36.44-.09.67-.14,1.11-.24,0,.35,0,.53,0,.89.4-.09.6-.13,1-.22,0-.69.01-1.02.02-1.68-.66,0-.99-.01-1.64-.02-.18-.22-.27-.33-.46-.55,0-.9.01-1.35.02-2.23.2-.3.3-.45.5-.74.89-.13,1.34-.2,2.23-.33.2.23.29.34.49.56,0,.48,0,.72-.01,1.2-.44.08-.67.11-1.11.19,0-.32,0-.48,0-.79-.4.07-.6.1-1,.16Z"/>
  <path class="st1" d="M129.6,84.66c0,.42,0,.63-.01,1.07-.74.17-1.11.26-1.85.43,0-.45,0-.67.01-1.1.15-.03.22-.05.37-.08.02-1.72.03-2.49.06-4.07-.24.03-.35.05-.59.09,0,.36,0,.53-.01.89-.39.06-.59.1-.98.16.01-.77.01-1.15.03-1.92,1.41-.19,2.82-.38,4.22-.56,0,.73-.01,1.09-.02,1.8-.39.06-.59.09-.98.16,0-.34,0-.51.01-.86-.23.03-.34.05-.57.08-.02,1.56-.03,2.31-.05,4,.15-.04.22-.05.37-.08Z"/>
  <path class="st1" d="M132.63,85.02c0-.41,0-.62.01-1.01.44-.1.66-.14,1.1-.24,0,.38,0,.58,0,.98-.44.1-.66.16-1.1.26Z"/>
  <path class="st1" d="M142.11,81.93c0,.25.01.49.02.74-.6.12-1.2.25-1.8.38,0-.25-.01-.5-.02-.75.12-.02.24-.05.36-.08-.02-1-.04-2.01-.04-3.01-.12.02-.24.04-.36.07v-.5c.24-.13.47-.25.71-.37.25-.04.5-.09.74-.13,0,1.24,0,2.49.03,3.73.12-.02.24-.05.36-.07Z"/>
  <path class="st1" d="M147.45,81.61c-.76.14-1.51.29-2.26.44-.16-.12-.33-.24-.49-.36,0-.25-.01-.5-.01-.76.36-.07.72-.14,1.08-.2,0,.16,0,.32,0,.48.36-.07.71-.14,1.07-.2,0-.36,0-.72-.01-1.09-.55.1-1.1.2-1.66.3-.17-.1-.34-.2-.5-.3,0-.57,0-1.13,0-1.7.16-.18.32-.35.49-.52.76-.12,1.52-.24,2.28-.36.16.12.32.23.48.35-.01,1.13-.01,2.26,0,3.39-.16.18-.31.35-.47.53ZM145.75,78.32c0,.36,0,.72,0,1.07.36-.06.72-.12,1.08-.19,0-.35,0-.71,0-1.06-.36.06-.72.12-1.08.18Z"/>
  <path class="st1" d="M153.9,76.38c-.01.69-.03,1.38-.03,2.07.14-.02.29-.04.43-.07,0,.22,0,.45,0,.67-.14.02-.29.05-.43.07,0,.22,0,.43,0,.64.12-.02.24-.04.36-.06,0,.22,0,.45,0,.67-.6.1-1.21.21-1.81.32,0-.23,0-.45,0-.68.12-.02.24-.04.36-.06,0-.22,0-.43,0-.65-.76.12-1.52.25-2.28.38,0-.3,0-.59,0-.89.63-.75,1.27-1.48,1.91-2.2.49-.07.99-.14,1.49-.21ZM152.78,78.62c0-.43,0-.87.01-1.3-.43.5-.86,1-1.29,1.51.43-.07.85-.14,1.28-.21Z"/>
  <path class="st1" d="M159.98,75.6c-.02.65-.04,1.3-.04,1.96.14-.02.29-.04.43-.06,0,.21,0,.42,0,.63-.14.02-.29.04-.43.06,0,.2,0,.41,0,.61.12-.02.24-.04.36-.05v.63c-.6.09-1.21.19-1.81.29,0-.22,0-.43,0-.65.12-.02.24-.04.36-.06,0-.21,0-.41,0-.62-.76.11-1.52.23-2.28.34,0-.28,0-.56,0-.84.63-.7,1.28-1.39,1.93-2.07.5-.06.99-.12,1.49-.18ZM158.85,77.71c0-.41.01-.82.02-1.23-.44.47-.87.94-1.3,1.41.43-.06.85-.12,1.28-.18Z"/>
</svg>