<?xml version="1.0" encoding="UTF-8"?>
<svg id="Layer_1" xmlns="http://www.w3.org/2000/svg" version="1.1" viewBox="0 0 270 112">
  <!-- Generator: Adobe Illustrator 30.0.0, SVG Export Plug-In . SVG Version: 2.1.1 Build 123)  -->
  <defs>
    <style>
      .st0 {
        fill: #fff;
      }

      .st1 {
        fill: #00d639;
      }
    </style>
  </defs>
  <rect class="st0" width="270" height="112" rx="29" ry="29"/>
  <g>
    <path class="st1" d="M94.23,26c6.55,0,11.87,4.62,12,11.04.06,1.81-1.23,2.81-2.63,2.81s-2.51-1-2.57-2.68c-.06-3.61-3.06-6.29-6.86-6.29-3.55,0-6.24,2.55-6.24,6.05,0,3.8,2.51,5.49,7.71,7.42,5.57,2.06,10.65,4.49,10.65,11.72,0,6.29-4.84,11.35-11.57,11.35s-12.06-4.74-12.06-11.17c0-4,1.9-6.79,3.73-6.79,1.6,0,2.57,1.06,2.57,2.49,0,1.25-1.03,1.81-1.03,4.06,0,4,3.18,6.55,6.79,6.55,3.79,0,6.31-2.68,6.31-5.92,0-4-2.51-5.68-7.71-7.54-5.81-2.12-10.65-4.67-10.65-11.73,0-6.36,5.02-11.35,11.57-11.35Z"/>
    <path class="st1" d="M120.94,67.41c-6.61,0-12.11-5.43-12.11-12.28s5.57-12.41,12.31-12.41c7.23,0,12.31,5.49,12.31,12.97v9.1c0,1.56-1.23,2.62-2.63,2.62s-2.69-1.06-2.69-2.62v-8.92c0-4.93-2.76-8.3-7.1-8.3-3.86,0-6.92,3.31-6.92,7.54,0,3.93,3,7.3,6.79,7.3,1.4,0,2.02-.37,2.87-.37,1.16,0,2.39,1,2.39,2.44,0,1.93-2.26,2.92-5.2,2.92h-.01Z"/>
    <path class="st1" d="M148.51,86c-6.86,0-12.55-4.99-12.55-11.48,0-2.18,1.23-3.18,2.63-3.18s2.57.93,2.63,2.74c.06,4.06,3.24,7.05,7.23,7.05,4.23,0,6.98-2.74,6.98-6.29,0-4.06-3.06-5.73-8.26-7.42-6.06-1.99-11.2-4.74-11.2-12.34,0-6.98,5.26-12.34,12.11-12.34s12.61,5.12,12.61,11.85c0,4.11-1.65,7.3-3.92,7.3-1.53,0-2.57-1.12-2.57-2.49s1.23-2.06,1.23-4.62c0-4.3-3.31-7.17-7.29-7.17s-6.92,2.99-6.92,6.92c0,4.43,3.11,6.29,8.26,8.04,5.94,1.99,11.2,4.49,11.2,11.78,0,6.55-5.08,11.66-12.18,11.66Z"/>
    <path class="st1" d="M175.71,67.41c-6.86,0-12.49-5.49-12.49-12.34s5.45-12.34,12.18-12.34,11.94,4.8,11.94,10.91c0,2.37-1.65,3.8-4.34,3.8h-7.03c-1.4,0-2.45-1-2.45-2.31s1.03-2.25,2.45-2.25h5.26c.49,0,.86-.26.86-.75,0-1.81-2.26-4.62-6.49-4.62-3.92,0-7.1,3.43-7.1,7.54s3.24,7.48,7.29,7.48c4.65,0,6.18-2.81,8.08-2.81,1.6,0,2.45,1.06,2.45,2.25,0,1.12-.74,2.12-2.57,3.31-1.84,1.19-4.6,2.12-8.02,2.12h-.03Z"/>
  </g>
</svg>