<?xml version="1.0" encoding="UTF-8"?>
<svg id="Layer_1" xmlns="http://www.w3.org/2000/svg" version="1.1" viewBox="0 0 270 112">
  <!-- Generator: Adobe Illustrator 30.0.0, SVG Export Plug-In . SVG Version: 2.1.1 Build 123)  -->
  <defs>
    <style>
      .st0 {
        fill: #fff;
      }

      .st1 {
        fill: #bbd045;
      }

      .st2 {
        fill: #040707;
      }
    </style>
  </defs>
  <rect class="st0" width="270" height="112" rx="29" ry="29"/>
  <g>
    <path class="st1" d="M205.68,82.24l-2.11,2.12,2.11,2.12,2.12-2.12-2.12-2.12Z"/>
    <path class="st1" d="M210.39,77.26l-2.35,2.36,2.35,2.36,2.35-2.36-2.35-2.36Z"/>
    <path class="st1" d="M215.08,72.29l-2.59,2.6,2.59,2.6,2.59-2.6-2.59-2.6Z"/>
    <path class="st1" d="M219.78,67.31l-2.83,2.84,2.83,2.84,2.83-2.84-2.83-2.84Z"/>
    <path class="st1" d="M224.48,62.33l-3.07,3.08,3.07,3.08,3.07-3.08-3.07-3.08Z"/>
    <path class="st1" d="M229.18,57.35l-3.31,3.32,3.31,3.32,3.31-3.32-3.31-3.32Z"/>
    <path class="st1" d="M205.55,25.51l-2.11,2.12,2.11,2.12,2.11-2.12-2.11-2.12Z"/>
    <path class="st1" d="M210.27,29.99l-2.35,2.36,2.35,2.36,2.35-2.36-2.35-2.36Z"/>
    <path class="st1" d="M214.99,34.47l-2.59,2.6,2.59,2.6,2.59-2.6-2.59-2.6Z"/>
    <path class="st1" d="M219.72,38.94l-2.83,2.84,2.83,2.84,2.83-2.84-2.83-2.84Z"/>
    <path class="st1" d="M224.44,43.42l-3.07,3.08,3.07,3.08,3.07-3.08-3.07-3.08Z"/>
    <path class="st1" d="M229.16,47.89l-3.31,3.32,3.31,3.32,3.31-3.32-3.31-3.32Z"/>
    <path class="st1" d="M233.89,52.37l-3.55,3.56,3.55,3.56,3.55-3.56-3.55-3.56Z"/>
    <path class="st1" d="M196.12,82.24l-2.12,2.12,2.12,2.12,2.12-2.12-2.12-2.12Z"/>
    <path class="st1" d="M200.82,77.27l-2.35,2.36,2.35,2.36,2.35-2.36-2.35-2.36Z"/>
    <path class="st1" d="M205.52,72.29l-2.59,2.6,2.59,2.6,2.59-2.6-2.59-2.6Z"/>
    <path class="st1" d="M210.23,67.31l-2.83,2.84,2.83,2.84,2.83-2.84-2.83-2.84Z"/>
    <path class="st1" d="M214.93,62.33l-3.07,3.08,3.07,3.08,3.07-3.08-3.07-3.08Z"/>
    <path class="st1" d="M219.63,57.35l-3.31,3.32,3.31,3.32,3.31-3.32-3.31-3.32Z"/>
    <path class="st1" d="M195.99,25.51l-2.12,2.12,2.12,2.12,2.11-2.12-2.11-2.12Z"/>
    <path class="st1" d="M200.71,29.99l-2.36,2.36,2.36,2.36,2.35-2.36-2.35-2.36Z"/>
    <path class="st1" d="M205.43,34.47l-2.59,2.6,2.59,2.6,2.59-2.6-2.59-2.6Z"/>
    <path class="st1" d="M210.15,38.94l-2.83,2.84,2.83,2.84,2.83-2.84-2.83-2.84Z"/>
    <path class="st1" d="M214.88,43.42l-3.07,3.08,3.07,3.08,3.07-3.08-3.07-3.08Z"/>
    <path class="st1" d="M219.6,47.9l-3.31,3.32,3.31,3.32,3.31-3.32-3.31-3.32Z"/>
    <path class="st1" d="M227.87,55.93l-3.55-3.56-3.54,3.56,3.54,3.56,3.55-3.56Z"/>
    <path class="st1" d="M186.56,82.24l-2.11,2.12,2.11,2.12,2.12-2.12-2.12-2.12Z"/>
    <path class="st1" d="M191.27,77.27l-2.35,2.36,2.35,2.36,2.35-2.36-2.35-2.36Z"/>
    <path class="st1" d="M195.97,72.29l-2.59,2.6,2.59,2.6,2.59-2.6-2.59-2.6Z"/>
    <path class="st1" d="M200.67,67.31l-2.83,2.84,2.83,2.84,2.83-2.84-2.83-2.84Z"/>
    <path class="st1" d="M205.37,62.33l-3.07,3.08,3.07,3.08,3.07-3.08-3.07-3.08Z"/>
    <path class="st1" d="M210.07,57.35l-3.31,3.32,3.31,3.32,3.31-3.32-3.31-3.32Z"/>
    <path class="st1" d="M186.43,25.51l-2.12,2.12,2.12,2.12,2.12-2.12-2.12-2.12Z"/>
    <path class="st1" d="M191.15,29.99l-2.35,2.36,2.35,2.36,2.35-2.36-2.35-2.36Z"/>
    <path class="st1" d="M195.87,34.47l-2.59,2.6,2.59,2.6,2.59-2.6-2.59-2.6Z"/>
    <path class="st1" d="M200.6,38.94l-2.83,2.84,2.83,2.84,2.83-2.84-2.83-2.84Z"/>
    <path class="st1" d="M205.32,43.42l-3.07,3.08,3.07,3.08,3.07-3.08-3.07-3.08Z"/>
    <path class="st1" d="M210.04,47.89l-3.31,3.32,3.31,3.32,3.31-3.32-3.31-3.32Z"/>
    <path class="st1" d="M218.32,55.93l-3.55-3.56-3.55,3.56,3.55,3.56,3.55-3.56Z"/>
    <path class="st1" d="M177.01,82.24l-2.11,2.12,2.11,2.12,2.11-2.12-2.11-2.12Z"/>
    <path class="st1" d="M181.71,77.26l-2.36,2.36,2.36,2.36,2.35-2.36-2.35-2.36Z"/>
    <path class="st1" d="M186.4,72.29l-2.59,2.6,2.59,2.6,2.59-2.6-2.59-2.6Z"/>
    <path class="st1" d="M191.11,67.31l-2.83,2.84,2.83,2.84,2.83-2.84-2.83-2.84Z"/>
    <path class="st1" d="M195.81,62.33l-3.07,3.08,3.07,3.08,3.07-3.08-3.07-3.08Z"/>
    <path class="st1" d="M200.51,57.35l-3.31,3.32,3.31,3.32,3.31-3.32-3.31-3.32Z"/>
    <path class="st1" d="M205.21,59.49l3.54-3.56-3.54-3.56-3.55,3.56,3.55,3.56Z"/>
    <path class="st1" d="M176.87,25.51l-2.12,2.12,2.12,2.12,2.12-2.12-2.12-2.12Z"/>
    <path class="st1" d="M181.59,29.99l-2.35,2.36,2.35,2.36,2.36-2.36-2.36-2.36Z"/>
    <path class="st1" d="M186.31,34.46l-2.59,2.6,2.59,2.6,2.59-2.6-2.59-2.6Z"/>
    <path class="st1" d="M191.04,38.94l-2.83,2.84,2.83,2.84,2.83-2.84-2.83-2.84Z"/>
    <path class="st1" d="M195.76,43.42l-3.07,3.08,3.07,3.08,3.07-3.08-3.07-3.08Z"/>
    <path class="st1" d="M200.49,47.9l-3.31,3.32,3.31,3.32,3.31-3.32-3.31-3.32Z"/>
    <path class="st2" d="M77.63,50.92h-21.97l-6.42-6.27h25.98l-1.17,3.46h14.88l1.48-4.2c1.72-4.87-1.87-9.98-7.02-10.01l-28.02-.14c-6.28-.03-11.91,3.87-14.1,9.77l-2.63,7.06c-1.85,4.97,1.81,10.27,7.1,10.27h23.92l-2.21,6.31h-19.46l1.23-3.49h-15l-1.29,4.14c-1.6,5.1,2.2,10.29,7.53,10.29h27.32c6.58,0,12.43-4.24,14.5-10.51l2.31-7.01c1.57-4.76-1.96-9.66-6.96-9.66h0Z"/>
    <path class="st2" d="M123.71,67.22h-21.05l5.53-16.48-6.09-6.11h29.18l-1.71,5.1h15.15l3.37-9.81c1-2.89-1.15-5.91-4.2-5.91h-35.36c-5.65,0-10.68,3.6-12.52,8.95l-8.56,24.9c-1.7,4.94,1.96,10.1,7.17,10.1h32.91c4.48,0,8.47-2.85,9.93-7.1l3.04-8.82h-15.05l-1.74,5.19h0Z"/>
    <path class="st2" d="M149.55,34.05l6.43,6.39-12.82,37.59h14.78l15.22-43.97h-23.61Z"/>
  </g>
</svg>