<?xml version="1.0" encoding="UTF-8"?>
<svg id="Layer_1" xmlns="http://www.w3.org/2000/svg" version="1.1" viewBox="0 0 270 112">
  <!-- Generator: Adobe Illustrator 30.0.0, SVG Export Plug-In . SVG Version: 2.1.1 Build 123)  -->
  <defs>
    <style>
      .st0 {
        fill: #03787c;
      }

      .st1 {
        fill: #fff;
      }

      .st2 {
        fill: #1a9ba1;
      }

      .st3 {
        fill: none;
      }

      .st4 {
        fill: #37c6d0;
      }

      .st5 {
        opacity: .1;
      }

      .st5, .st6 {
        isolation: isolate;
      }

      .st7 {
        fill: #036c70;
      }

      .st6 {
        opacity: .2;
      }
    </style>
  </defs>
  <rect class="st1" width="270" height="112" rx="29" ry="29"/>
  <circle class="st7" cx="132.36" cy="38.84" r="25.08"/>
  <circle class="st2" cx="155.79" cy="60.95" r="21.45"/>
  <circle class="st4" cx="135" cy="81.08" r="17.16"/>
  <path class="st5" d="M136.76,32.24h-28.6c-3.64,13.37,4.26,27.16,17.63,30.8,2.14.58,4.35.88,6.57.88.73,0,1.45-.03,2.17-.1v.1c-9.28.25-16.69,7.85-16.69,17.15,0,.44.02.88.05,1.32h18.87c1.94,0,3.51-1.58,3.52-3.52v-43.12c0-1.94-1.58-3.51-3.52-3.52h0Z"/>
  <path class="st6" d="M134.12,34.88h-26.53c-2.18,13.69,7.15,26.55,20.83,28.73,1.3.21,2.62.31,3.94.31.73,0,1.45-.03,2.17-.1v.1c-9.47.26-16.94,8.15-16.69,17.63.03,1.17.18,2.34.45,3.48h15.82c1.94,0,3.51-1.58,3.52-3.52v-43.12c0-1.94-1.58-3.51-3.52-3.52h.01Z"/>
  <path class="st6" d="M134.12,34.88h-26.53c-2.18,13.69,7.15,26.55,20.83,28.73,1.3.21,2.62.31,3.94.31.73,0,1.45-.03,2.17-.1v.1c-8.78.23-15.97,7.07-16.64,15.83h16.23c1.94,0,3.51-1.58,3.52-3.52v-37.84c0-1.94-1.58-3.51-3.52-3.52h0Z"/>
  <path class="st6" d="M131.48,34.88h-23.89c-2.18,13.69,7.15,26.55,20.83,28.73,1.3.21,2.62.31,3.94.31.73,0,1.45-.03,2.17-.1v.1c-8.78.23-15.97,7.07-16.64,15.83h13.59c1.94,0,3.51-1.58,3.52-3.52v-37.84c0-1.94-1.58-3.51-3.52-3.52h0Z"/>
  <path class="st0" d="M96.28,34.88h35.2c1.94,0,3.52,1.58,3.52,3.52h0v35.2c0,1.94-1.58,3.52-3.52,3.52h-35.2c-1.94,0-3.52-1.58-3.52-3.52h0v-35.2c0-1.94,1.58-3.52,3.52-3.52h0Z"/>
  <path class="st1" d="M107.73,55.54c-.89-.59-1.63-1.38-2.17-2.3-.52-.96-.79-2.05-.76-3.14-.05-1.48.45-2.93,1.41-4.07,1-1.14,2.29-1.98,3.74-2.44,1.65-.54,3.37-.81,5.11-.79,2.28-.08,4.56.24,6.73.94v4.75c-.94-.57-1.97-.99-3.04-1.24-1.17-.29-2.36-.43-3.56-.43-1.26-.05-2.52.22-3.66.77-.88.38-1.45,1.24-1.45,2.2,0,.58.22,1.14.62,1.56.47.49,1.04.89,1.66,1.18.69.34,1.73.8,3.1,1.37.15.05.3.11.45.18,1.36.53,2.67,1.18,3.92,1.93.95.58,1.74,1.38,2.32,2.33.59,1.07.88,2.29.84,3.52.07,1.52-.4,3.02-1.32,4.24-.92,1.12-2.14,1.94-3.52,2.37-1.62.51-3.32.76-5.02.73-1.52,0-3.04-.12-4.55-.37-1.27-.2-2.51-.56-3.7-1.07v-5.02c1.13.81,2.4,1.41,3.74,1.78,1.33.42,2.72.64,4.11.66,1.29.08,2.58-.19,3.73-.79.8-.46,1.28-1.32,1.25-2.24,0-.64-.25-1.26-.7-1.71-.57-.56-1.22-1.01-1.94-1.35-.83-.42-2.05-.96-3.66-1.64-1.28-.51-2.51-1.16-3.66-1.91h-.02Z"/>
  <path class="st3" d="M92.76,13.76h84.48v84.48h-84.48V13.76Z"/>
</svg>