<svg width="270" height="112" viewBox="0 0 270 112" fill="none" xmlns="http://www.w3.org/2000/svg">
<rect width="270" height="112" rx="29" fill="white"/>
<g clip-path="url(#clip0_68_14403)">
<path d="M131.045 46.9696C131.045 42.9905 131.927 39.8957 133.603 37.685C134.927 36.005 137.309 34.1481 141.719 34.1481C146.13 34.1481 148.512 36.005 149.747 37.685C151.511 39.9841 152.394 42.9905 152.394 46.9696V49.7992H146.571V46.9696C146.571 43.5211 145.777 41.5757 144.807 40.6915C143.925 40.0725 142.778 39.7188 141.719 39.8072C140.573 39.7188 139.514 39.9841 138.632 40.6915C137.573 41.5757 136.779 43.4326 136.779 46.9696V66.3346C136.779 68.9873 137.309 70.9326 138.191 72.0822C138.455 72.4359 138.808 72.7896 139.249 72.9664C140.043 73.3201 140.837 73.4969 141.719 73.4969C143.043 73.5854 144.366 73.1432 145.248 72.0822C146.13 70.8442 146.571 68.9873 146.571 66.3346V63.4166H152.394V66.3346C152.394 70.3137 151.511 73.4085 149.747 75.6191C148.424 77.2992 146.042 79.2445 141.719 79.2445C139.955 79.333 138.102 78.8908 136.515 78.0066C135.368 77.3876 134.397 76.5918 133.603 75.6191C131.927 73.4085 131.045 70.3137 131.045 66.3346V46.9696Z" fill="black"/>
<path d="M156.893 63.505H162.627V66.423C162.627 69.0757 163.156 70.9326 164.038 72.0822C164.303 72.4359 164.744 72.7896 165.097 72.9664C165.891 73.3201 166.773 73.4969 167.567 73.4969C169.331 73.5854 170.919 72.6127 171.713 71.0211C172.33 69.6947 172.595 68.1915 172.507 66.7767C172.595 65.0966 171.978 63.4166 170.743 62.1786C169.596 61.206 168.361 60.4986 167.038 59.968L165.979 59.4375C163.95 58.6416 162.097 57.4921 160.509 56.0773C158.039 53.6899 156.716 50.4182 156.804 47.058C156.804 43.1674 157.863 39.9841 159.804 37.685C161.745 35.386 164.567 34.1481 167.567 34.1481C171.978 34.1481 174.359 36.005 175.683 37.685C177.447 39.9841 178.329 43.0789 178.329 47.058V49.8876H172.507V46.9696C172.507 43.5211 171.713 41.5757 170.654 40.6915C169.772 40.0725 168.625 39.7188 167.567 39.8072C165.714 39.7188 163.95 40.8683 163.332 42.7252C162.803 44.0516 162.538 45.4664 162.538 46.9696C162.45 48.7381 163.156 50.3297 164.303 51.6561C165.361 52.7172 166.773 53.6014 168.184 54.132L169.155 54.5741C171.095 55.2815 172.948 56.3426 174.448 57.7574C176.918 60.0564 178.329 63.3281 178.241 66.7767C178.241 73.6738 174.359 79.2445 167.479 79.2445C160.333 79.2445 156.716 74.558 156.716 66.423L156.893 63.505Z" fill="black"/>
<path d="M189.444 79.2445H183.71V34.1481H189.444V79.2445Z" fill="black"/>
<path d="M202.645 70.2943H199.646V74.185H200.792V71.5323H202.028C202.292 71.886 202.469 72.2397 202.645 72.6818C202.821 73.2123 202.91 73.7429 202.91 74.185C202.91 75.1577 202.645 76.0419 202.028 76.7493C201.498 77.3683 200.616 77.722 199.734 77.722C198.852 77.722 197.97 77.3683 197.352 76.6609C196.823 75.9535 196.47 75.1577 196.47 74.2734C196.558 73.0355 196.911 71.886 197.617 70.9133L197.705 70.7364L196.646 70.0291L196.558 70.2059C196.117 70.9133 195.764 71.7091 195.5 72.5049C195.323 73.0355 195.235 73.6545 195.235 74.185C195.235 74.8924 195.323 75.5114 195.588 76.2188C195.852 77.0146 196.382 77.722 197.087 78.2525C197.793 78.7831 198.675 79.1368 199.646 79.1368C200.263 79.1368 200.881 78.9599 201.498 78.6946C202.028 78.4294 202.557 78.0757 202.91 77.6336C203.615 76.6609 204.056 75.5114 203.968 74.2734C204.056 72.9471 203.615 71.5323 202.645 70.2943Z" fill="black"/>
<path d="M203.88 62.955V61.3634L200.087 63.7509C199.999 63.2203 199.822 62.6898 199.469 62.2476C199.028 61.8055 198.499 61.5403 197.881 61.6287C197.176 61.6287 196.47 61.894 196.029 62.5129C195.852 62.7782 195.676 63.1319 195.588 63.4856C195.5 63.9277 195.5 64.3698 195.5 64.9004V69.41H203.968V67.9952H200.263V65.3425L203.88 62.955ZM196.558 67.9952V64.9888C196.47 64.4583 196.646 63.9277 196.911 63.3972C197.176 63.0435 197.528 62.8666 197.881 62.955C198.234 62.955 198.675 63.1319 198.852 63.3972C198.94 63.574 199.028 63.7509 199.028 64.0161C199.028 64.3698 199.116 64.7235 199.116 65.0772V67.9952H196.558Z" fill="black"/>
<path d="M197.264 60.0371C197.97 60.4792 198.852 60.7445 199.646 60.7445C200.881 60.7445 202.116 60.2139 202.91 59.3297C203.704 58.2686 204.145 57.0307 204.057 55.7043C204.145 54.0242 203.439 52.3442 202.028 51.3715C200.263 50.1335 197.793 50.4872 196.382 52.0789C195.588 53.14 195.147 54.3779 195.235 55.7043C195.235 56.4117 195.323 57.2075 195.588 57.9149C195.941 58.7991 196.47 59.5065 197.264 60.0371ZM197.44 52.9631C198.058 52.3442 198.852 52.0789 199.646 52.0789C200.44 52.0789 201.234 52.3442 201.763 52.9631C203.174 54.5548 203.174 56.8538 201.763 58.4454C200.528 59.595 198.587 59.595 197.44 58.4454C196.735 57.738 196.382 56.7654 196.382 55.7043C196.382 54.7316 196.735 53.6705 197.44 52.9631Z" fill="black"/>
<path d="M202.292 49.6914C202.645 49.603 202.998 49.3377 203.263 49.0724C203.88 48.1882 204.145 47.0387 204.056 45.9776C204.056 45.1817 203.968 44.3859 203.704 43.5901C203.439 43.0596 202.998 42.529 202.469 42.3522C201.939 42.1753 201.41 42.0869 200.881 42.1753H195.5V43.4133H200.616C201.057 43.4133 201.41 43.4133 201.851 43.5017C202.028 43.5017 202.204 43.5901 202.38 43.767C202.821 44.3859 203.086 45.1817 202.998 45.9776C203.086 46.685 202.91 47.4808 202.557 48.0998C202.469 48.2766 202.292 48.365 202.028 48.4534C201.586 48.5419 201.145 48.5419 200.704 48.5419H195.588V49.9567H200.969C201.322 49.8682 201.763 49.7798 202.292 49.6914Z" fill="black"/>
<path d="M203.88 39.8763H200.263V37.1352C200.263 36.693 200.263 36.2509 200.175 35.7204C200.087 35.3667 199.999 35.1014 199.822 34.8361C199.646 34.4824 199.293 34.2171 199.028 34.0403C198.323 33.6866 197.44 33.6866 196.646 34.0403C196.294 34.2171 196.029 34.4824 195.852 34.8361C195.676 35.1014 195.588 35.4551 195.5 35.7204C195.411 36.1625 195.411 36.6046 195.411 37.1352V41.3795H203.88V39.8763ZM196.558 39.8763V37.2236C196.558 36.8699 196.558 36.5162 196.646 36.0741C196.735 35.3667 197.352 34.9245 197.97 35.013C198.499 35.1014 199.028 35.5435 199.028 36.0741C199.116 36.5162 199.116 36.8699 199.116 37.2236V39.8763H196.558Z" fill="black"/>
<path d="M89.0542 79.0483L89.1423 67.3763L84.8198 64.4583L82.7026 63.4856L67.0883 64.9888V80.8168C67.0883 82.5853 68.4998 84.0885 70.2641 84.0885H83.4083L87.7309 81.4357L89.0542 79.0483Z" fill="#672461"/>
<path d="M101.757 64.5467L99.7283 66.5804L99.8165 79.0483L101.14 81.3473L105.462 84H118.607C120.371 84 121.871 82.5852 121.871 80.7283V67.9952L111.108 62.1592L101.757 64.5467Z" fill="#D73632"/>
<path d="M73.6162 59.2412L67 51.4598V62.3361L77.7624 61.275L73.6162 59.2412Z" fill="#508199"/>
<path d="M75.2924 57.0306L78.9093 58.7107L73.087 48.1882C72.7341 47.5692 72.9988 46.685 73.6163 46.3313C74.2338 45.9776 75.0277 46.2428 75.3806 46.8618L82.9672 60.656L86.0548 62.0708L90.5538 64.9004C90.6421 64.9888 90.8185 64.9888 90.9067 64.812C90.9949 64.7235 90.9949 64.6351 90.9067 64.5467L86.7605 53.4052V53.3168L76.9685 44.2091L69.4701 29.5306L69.2937 29.0885C67.8822 29.4422 66.9119 30.7686 66.9119 32.1834V47.1271L75.2924 57.0306Z" fill="#397FB3"/>
<path d="M102.463 61.1866L102.198 61.6287L109.961 59.6834L116.842 52.3441C117.372 51.8136 118.254 51.7252 118.783 52.2557C119.312 52.7862 119.401 53.6705 118.871 54.2011L113.225 60.2139L121.871 64.9004V45.8892L111.814 49.5146L102.463 61.1866Z" fill="#E26C40"/>
<path d="M89.5834 53.0515L93.7296 63.6624C93.7296 63.7509 93.8178 63.8393 93.906 63.8393C93.9942 63.8393 94.0825 63.7509 94.0825 63.6624L96.2879 53.4052L96.7289 51.9904L90.2009 37.3119L91.7888 28.9116H82.9672L90.4656 44.9164L89.5834 53.0515Z" fill="#1A5294"/>
<path d="M87.2898 49.9567L87.8191 45.5355L80.1443 29.0885H72.3812L79.2621 42.6174L87.2898 49.9567Z" fill="#94B8D6"/>
<path d="M92.7593 37.1351L97.7876 48.4534L101.846 35.6318L103.786 29H94.3472L92.7593 37.1351Z" fill="#B5D4A2"/>
<path d="M121.871 42.9711V32.2718C121.871 31.8297 121.782 31.4759 121.606 31.0338L121.341 31.6528L113.843 45.8891L121.871 42.9711Z" fill="#BC8C55"/>
<path d="M101.404 45.1817L106.609 41.5563L113.314 29H106.345L104.227 36.3392L101.404 45.1817Z" fill="#40B6BE"/>
<path d="M108.55 43.3248L100.522 48.984L98.8462 54.201L96.729 64.193V64.2814H96.8172L100.258 59.5065L109.873 47.5692C109.873 47.5692 118.254 32.4486 119.489 29.6191C119.577 29.3538 119.665 29.1769 119.577 29.1769C119.312 29.0885 119.048 29.0885 118.695 29.0885H116.313L108.55 43.3248Z" fill="#E9B532"/>
<path d="M113.856 45.814L121.355 31.5777C120.913 30.6934 120.208 30.0745 119.414 29.5439C118.267 32.4619 109.798 47.4941 109.798 47.4941L100.183 59.4314L96.7422 64.2063H96.654C96.654 64.2063 96.5658 64.1179 96.654 64.1179L98.7712 54.1259L100.447 48.9089L108.475 43.2497L116.15 28.9249H113.239L106.534 41.4812L101.329 45.1066L104.152 36.2642L106.27 28.9249H103.711L101.771 35.5568L97.7126 48.3783L92.6842 37.06L94.2722 29.0134H91.8021L90.2142 37.4137L96.7422 52.0921L96.3011 53.5069L94.0957 63.7641C94.0957 63.8526 94.0075 63.941 93.9193 63.941C93.8311 63.941 93.7428 63.8526 93.7428 63.7641L89.5967 53.1532L90.5671 45.1066L83.0687 29.1018H80.2458L87.9206 45.5487L87.3913 49.97L79.4518 42.6307L72.5709 29.1018H71.8652C71.0713 29.1018 70.3655 29.2786 69.6598 29.6323L77.1582 44.3108L86.9502 53.4185V53.5069L91.0964 64.6484C91.1846 64.8252 91.0963 64.9137 90.9199 65.0021C90.8317 65.0021 90.7435 65.0021 90.6553 65.0021L86.1563 62.1725L83.0687 60.7577L75.4821 46.9635C75.1292 46.3445 74.3353 46.0793 73.6295 46.433C73.012 46.7867 72.7474 47.5825 73.1003 48.2899L78.9225 58.8124L75.3057 57.1323L67.0133 47.3172V51.5616L73.6295 59.3429L77.8639 61.2883L67.1015 62.3494V65.0905L82.7158 63.5873L84.833 64.56L89.1556 67.478L89.0674 79.15L87.7441 81.449L83.4215 84.1018H105.564L101.241 81.449L99.918 79.15L99.8298 66.6822L101.859 64.6484L111.121 62.2609L121.884 68.097V64.9137L113.239 60.2272L118.885 54.2143C119.414 53.6838 119.414 52.7995 118.796 52.269C118.267 51.7384 117.385 51.7384 116.856 52.3574L109.975 59.6966L102.212 61.642L102.476 61.1998L111.827 49.5278L121.884 45.9024V42.9844L113.856 45.814Z" fill="white"/>
</g>
<defs>
<clipPath id="clip0_68_14403">
<rect width="137" height="55" fill="white" transform="translate(67 29)"/>
</clipPath>
</defs>
</svg>
