<?xml version="1.0" encoding="UTF-8"?>
<svg id="Layer_1" xmlns="http://www.w3.org/2000/svg" version="1.1" viewBox="0 0 270 112">
  <!-- Generator: Adobe Illustrator 30.0.0, SVG Export Plug-In . SVG Version: 2.1.1 Build 123)  -->
  <defs>
    <style>
      .st0 {
        fill: #fff;
      }
    </style>
  </defs>
  <rect class="st0" width="270" height="112" rx="29" ry="29"/>
  <g>
    <path d="M68.38,33.56v4.67c.22-.36.6-.66,1.14-.9.54-.24,1.06-.41,1.56-.52l2.51-.56,2.56,11.56c.07.34.09.78.06,1.31s-.19,1.02-.44,1.46l5.8-1.29c-.42-.29-.77-.68-1.02-1.14-.26-.46-.43-.87-.5-1.21l-2.56-11.56,2.51-.56c.5-.11,1.05-.18,1.64-.19.59-.01,1.06.09,1.43.32l-1.99-4.22-12.69,2.82h0Z"/>
    <path d="M93.92,45.77c-.23-.48-.37-.89-.43-1.24l-2.02-12.82c-.06-.34-.04-.78.03-1.31s.25-1,.53-1.43l-5.87.93c.4.32.72.72.95,1.2s.37.89.43,1.24l2.02,12.82c.06.34.04.78-.03,1.31s-.25,1-.53,1.43l5.87-.93c-.4-.32-.72-.72-.95-1.2Z"/>
    <path d="M97.66,29.34c.22.51.35.94.38,1.27l1.22,13.11c.03.33-.01.77-.14,1.32-.12.54-.32.97-.6,1.29l5.92-.55c-.33-.26-.6-.65-.83-1.18-.22-.53-.35-.94-.38-1.25l-.74-7.89,5.03,6.35,3.77-7.17.74,7.89c.03.29-.02.72-.14,1.28-.12.57-.32,1.01-.6,1.32l5.92-.55c-.33-.26-.6-.65-.83-1.18-.22-.53-.35-.94-.38-1.25l-1.22-13.11c-.03-.29.02-.71.14-1.28.12-.57.32-1.01.6-1.32l-5.42.5c.19.23.29.44.31.66s-.03.47-.16.77l-3.37,6.6-4.58-5.91c-.16-.24-.25-.47-.27-.68-.02-.21.04-.44.19-.7l-5.4.5c.33.26.6.65.83,1.16h0Z"/>
    <path d="M122.02,42.29c-.06.81-.37,1.53-.93,2.19l12.11-.28.8-4.58c-.28.35-.64.59-1.09.69-.44.1-.98.16-1.6.18l-5.35.13-.08-3.5,4.37-.1c.4,0,.77,0,1.1.05.34.04.68.16,1.02.35l-.11-4.67c-.33.21-.66.34-1,.4s-.72.1-1.15.11l-4.33.1-.08-3.44,4.55-.11c.61-.01,1.11.02,1.5.1s.77.29,1.13.63l-.9-4.53-11.34.26c.67.71,1.02,1.58,1.04,2.59l.31,13.43h.01Z"/>
    <path d="M149.87,40.71c-.39.09-.84.13-1.36.12l-5.58-.21.4-11.83c.01-.35.1-.78.27-1.28.17-.5.43-.94.79-1.31l-5.94-.2c.34.39.57.84.71,1.35.13.51.2.94.18,1.29l-.44,12.97c-.01.35-.1.78-.27,1.28-.17.5-.43.94-.79,1.31l12.33.41.86-4.62c-.39.38-.78.62-1.18.71h0Z"/>
    <path d="M167.6,41.52c-.32.32-.71.51-1.16.56-.46.05-.99.04-1.61-.01l-5.33-.49.32-3.49,4.36.4c.39.04.76.1,1.09.18.34.09.66.24.97.47l.43-4.65c-.35.16-.7.26-1.04.28-.34.02-.73.01-1.15-.03l-4.31-.4.32-3.42,4.53.42c.6.06,1.1.15,1.49.27s.74.38,1.05.76l-.38-4.61-11.29-1.04c.58.78.83,1.69.74,2.7l-1.24,13.38c-.15.79-.54,1.48-1.17,2.06l12.06,1.11,1.32-4.45h0Z"/>
    <path d="M177.49,32.98c.51-.18,1.13-.21,1.85-.1.24.04.42.07.54.11.83.21,1.65.61,2.46,1.21.81.6,1.41,1.27,1.8,2l.78-4.9c-1.13-1.07-2.75-1.77-4.83-2.1-1.41-.22-2.65-.18-3.73.13-1.08.31-1.94.83-2.59,1.55-.65.72-1.04,1.55-1.19,2.5-.18,1.14-.06,2.13.38,2.97.44.84,1,1.52,1.7,2.05.7.53,1.62,1.11,2.74,1.75,1.03.58,1.78,1.06,2.24,1.45.46.39.65.84.57,1.35-.09.57-.49.93-1.21,1.07-.72.15-1.53.15-2.44,0-1.29-.21-2.35-.62-3.18-1.25-.83-.63-1.42-1.44-1.77-2.41l-.83,5.24c1.44,1.1,3.27,1.83,5.49,2.19,1.44.23,2.73.2,3.88-.1s2.08-.81,2.8-1.56c.72-.75,1.16-1.67,1.34-2.76s.04-2.04-.39-2.84-1-1.45-1.68-1.95c-.69-.5-1.59-1.06-2.69-1.66-.72-.39-1.28-.72-1.68-.98s-.72-.56-.96-.88c-.24-.32-.33-.67-.27-1.04.08-.5.37-.83.89-1.01h0Z"/>
    <path d="M194.1,36.11c.53-.14,1.14-.13,1.85.04.24.06.41.1.53.15.81.27,1.6.73,2.36,1.39s1.31,1.37,1.65,2.13l1.14-4.83c-1.05-1.15-2.61-1.97-4.66-2.46-1.39-.33-2.63-.38-3.73-.15-1.1.23-2,.68-2.69,1.35-.7.67-1.15,1.47-1.37,2.4-.26,1.12-.21,2.12.16,2.99.37.87.89,1.59,1.55,2.17.66.58,1.53,1.23,2.6,1.95.99.65,1.69,1.19,2.12,1.61.43.42.59.88.47,1.38-.13.56-.56.89-1.28.98s-1.54.03-2.44-.18c-1.27-.3-2.3-.79-3.08-1.49-.78-.69-1.31-1.54-1.59-2.54l-1.22,5.16c1.35,1.21,3.12,2.07,5.31,2.59,1.42.34,2.71.4,3.87.19s2.13-.66,2.9-1.35c.77-.69,1.28-1.57,1.54-2.65.25-1.08.19-2.03-.18-2.86s-.88-1.52-1.53-2.07-1.5-1.17-2.56-1.85c-.69-.44-1.22-.81-1.6-1.1-.38-.29-.67-.61-.89-.95-.22-.34-.28-.69-.19-1.06.12-.49.44-.8.96-.94h0Z"/>
    <path d="M93.82,61.43c-.23.04-.5.07-.82.07h-2.73v-1.79h2.23c.2,0,.39.01.56.04s.35.09.52.19v-2.38c-.17.1-.34.16-.52.19-.18.03-.37.04-.59.04h-2.21v-1.75h2.32c.31,0,.57.02.77.07.2.04.39.16.57.34l-.41-2.32h-5.79c.33.37.5.82.5,1.34v6.86c-.04.41-.21.78-.5,1.1h6.19l.47-2.32c-.15.18-.34.29-.56.34h0Z"/>
    <path d="M96.6,54.12l-.52,2.32c.16-.16.38-.26.68-.32s.57-.09.84-.09h1.31v6.05c0,.18-.04.4-.12.66-.08.26-.21.49-.38.68h3.03c-.18-.19-.31-.42-.38-.68-.08-.26-.12-.48-.12-.66v-6.05h1.31c.26,0,.54.03.84.09.29.06.52.16.68.32l-.52-2.32h-6.64Z"/>
    <path d="M112.55,60.2c-.21.26-.41.49-.61.66s-.47.34-.81.49c-.34.15-.76.24-1.24.27-.57.03-1.08-.08-1.54-.34s-.82-.62-1.07-1.07c-.26-.46-.38-.94-.38-1.46s.13-.97.38-1.41c.25-.44.6-.79,1.04-1.05s.94-.4,1.49-.4c.5,0,.95.09,1.35.27.4.18.72.41.96.69.24.28.39.44.44.5v-2.63c-.4-.26-.81-.46-1.22-.57s-.9-.18-1.47-.18c-.91,0-1.75.22-2.52.65s-1.38,1.01-1.83,1.74c-.45.73-.68,1.53-.68,2.39s.22,1.66.67,2.39c.44.73,1.05,1.32,1.81,1.75.76.43,1.59.65,2.49.65.57,0,1.09-.06,1.56-.19s.87-.3,1.18-.52v-2.63h.01Z"/>
    <path d="M122.18,54.98c.07-.35.2-.64.4-.86h-3.03c.18.19.31.42.38.68.08.26.12.48.12.66v2.36h-2.72v-2.36s.03-.12.1-.48c.07-.35.2-.64.4-.86h-3.03c.2.21.33.48.4.81.06.33.1.51.1.53v6.63s-.04.2-.1.53-.19.6-.4.81h3.03c-.18-.19-.31-.42-.38-.68-.08-.26-.12-.48-.12-.66v-2.35h2.72v2.35c0,.18-.04.4-.12.66-.08.26-.21.49-.38.68h3.03c-.2-.22-.34-.5-.4-.86-.07-.36-.1-.51-.1-.48v-6.63s.03-.12.1-.48h0Z"/>
    <path d="M125.56,62.74c-.08.26-.21.49-.38.68h3.03c-.18-.19-.31-.42-.38-.68-.08-.26-.12-.48-.12-.66v-6.63c0-.18.04-.4.12-.66.08-.26.21-.49.38-.68h-3.03c.18.19.31.42.38.68.08.26.12.48.12.66v6.63c0,.18-.04.4-.12.66h0Z"/>
    <path d="M138.56,54.12h-3.03c.33.41.5.86.5,1.34v3.6l-2.52-4.08c-.11-.19-.16-.37-.16-.51,0-.12.03-.24.1-.35h-2.8c.22.22.39.65.5,1.29v6.67c0,.26-.04.49-.12.7s-.21.43-.38.63h3.03c-.17-.21-.29-.42-.38-.63-.08-.21-.12-.45-.12-.7v-3.94l2.68,4.25c.08.15.12.29.12.43,0,.12-.02.24-.07.35-.04.11-.1.19-.18.24h2.84c-.17-.22-.29-.43-.38-.63s-.12-.44-.12-.7v-6.63c0-.48.17-.93.5-1.34h0Z"/>
    <path d="M145.71,59.16c.13.09.26.2.36.33s.16.27.17.41v1.52c-.34.13-.67.2-.98.2-.52,0-.99-.13-1.42-.38s-.76-.6-1-1.04c-.24-.44-.36-.92-.36-1.44s.12-.99.36-1.43c.24-.44.57-.79.99-1.04.42-.26.88-.39,1.38-.39.42,0,.78.07,1.1.22.31.14.57.31.76.48.19.18.4.4.62.65v-2.63c-.37-.23-.74-.4-1.12-.49s-.82-.15-1.29-.15c-.87,0-1.67.21-2.41.64-.74.43-1.33,1.01-1.76,1.74s-.65,1.53-.65,2.4.21,1.69.63,2.43c.42.73.99,1.31,1.73,1.73.73.42,1.56.63,2.47.63.55,0,1.1-.09,1.66-.28s1-.41,1.34-.66v-4.42l-2.88.82c.08.01.18.07.32.16h0Z"/>
    <path d="M157.01,62.24c.3-.43.46-.93.46-1.5s-.14-1.03-.43-1.4c-.28-.37-.62-.65-1.01-.85s-.88-.4-1.49-.62c-.4-.14-.71-.26-.93-.36-.22-.1-.41-.22-.55-.37-.15-.14-.22-.31-.22-.51,0-.26.12-.45.37-.58.24-.13.55-.2.93-.2.12,0,.22,0,.28.01.43.04.88.18,1.34.41.46.24.81.53,1.07.87v-2.53c-.66-.45-1.53-.68-2.6-.68-.73,0-1.35.12-1.87.37-.52.24-.91.57-1.18.99-.27.41-.4.87-.4,1.35,0,.59.14,1.08.43,1.47s.63.69,1.02.9.9.43,1.52.66c.57.21.98.39,1.24.55.26.16.4.37.4.63,0,.29-.18.51-.52.64s-.76.2-1.23.2c-.67,0-1.24-.13-1.7-.38-.47-.25-.83-.61-1.09-1.07v2.71c.81.44,1.79.66,2.94.66.74,0,1.39-.12,1.95-.36.55-.24.98-.58,1.28-1.01h0Z"/>
    <path d="M169.4,53.97c-.91,0-1.75.22-2.52.65s-1.38,1.01-1.83,1.74-.68,1.53-.68,2.39.22,1.66.67,2.39c.44.73,1.05,1.32,1.81,1.75s1.59.65,2.49.65c.57,0,1.09-.06,1.56-.19s.87-.3,1.18-.52v-2.63c-.21.26-.41.49-.61.66-.2.18-.47.34-.81.49-.34.15-.76.24-1.24.27-.57.03-1.08-.08-1.54-.34s-.82-.62-1.07-1.07c-.26-.46-.38-.94-.38-1.46s.13-.97.38-1.41c.25-.44.6-.79,1.04-1.05s.94-.4,1.49-.4c.5,0,.95.09,1.35.27.4.18.72.41.96.69.24.28.39.44.44.5v-2.63c-.4-.26-.81-.46-1.22-.57-.41-.12-.9-.18-1.47-.18h.01Z"/>
    <path d="M106.16,79.67h-1.14v-.75h.93c.08,0,.16,0,.24.02.07.01.15.04.22.08v-.99c-.07.04-.14.07-.22.08-.07.01-.15.02-.25.02h-.92v-.73h.97c.13,0,.24.01.32.03.08.02.16.07.24.14l-.17-.97h-2.41c.14.16.21.34.21.56v2.86c-.01.17-.09.32-.21.46h2.58l.19-.97c-.06.07-.14.12-.24.14-.1.02-.21.03-.34.03h0Z"/>
    <path d="M110.37,78.42c-.16-.08-.37-.17-.62-.26-.16-.06-.29-.11-.38-.15-.09-.04-.17-.09-.23-.15-.06-.06-.09-.13-.09-.21,0-.11.05-.19.15-.24s.23-.08.38-.08c.05,0,.09,0,.12,0,.18.01.37.07.56.17.19.1.34.22.44.36v-1.06c-.28-.19-.64-.28-1.09-.28-.3,0-.56.05-.78.15s-.38.24-.49.41-.17.36-.17.56c0,.25.06.45.18.61.12.16.26.29.43.37s.38.18.63.28c.24.09.41.16.52.23.11.07.16.15.16.26,0,.12-.07.21-.22.26s-.32.08-.51.08c-.28,0-.51-.05-.71-.16-.19-.1-.35-.25-.45-.45v1.13c.34.18.75.28,1.22.28.31,0,.58-.05.81-.15.23-.1.41-.24.53-.42.13-.18.19-.39.19-.62s-.06-.43-.18-.58c-.12-.15-.26-.27-.42-.35h0Z"/>
    <path d="M112.53,76.59l-.22.97c.06-.06.16-.11.28-.13.12-.02.24-.04.35-.04h.55v2.52c0,.07-.01.16-.05.27s-.09.2-.16.28h1.27c-.07-.08-.13-.18-.16-.28s-.05-.2-.05-.27v-2.52h.55c.11,0,.23.01.35.04.12.02.22.07.28.13l-.22-.97h-2.77Z"/>
    <path d="M119.5,76.84c-.28-.16-.61-.25-.97-.25h-1.45c.09.09.16.26.21.51v2.86c-.04.25-.11.42-.21.51h1.45c.37,0,.69-.08.97-.25s.51-.39.67-.68.24-.61.24-.97v-.09c0-.36-.08-.68-.24-.97s-.38-.51-.67-.68h0ZM119.56,78.56c0,.36-.09.64-.28.83s-.46.29-.82.29h-.34v-2.28h.34c.36,0,.63.1.82.29.19.19.28.47.28.83v.05h0Z"/>
    <path d="M152.7,79.67h-.79l.14-.15c.21-.22.4-.42.54-.59s.28-.37.4-.59.17-.43.17-.64c0-.19-.04-.38-.14-.56-.09-.18-.24-.33-.43-.44s-.44-.18-.73-.18c-.37,0-.72.1-1.05.29l-.15,1.09c.16-.16.33-.3.51-.41.18-.12.39-.17.63-.17.13,0,.25.04.35.12s.15.18.15.31c0,.21-.15.49-.44.81s-.65.69-1.07,1.08c-.05.05-.09.09-.13.12-.04.03-.06.06-.09.08v.63h2.49l.19-.97c-.06.07-.14.12-.24.14s-.21.03-.34.03h0Z"/>
    <path d="M157.31,76.76c-.26-.15-.53-.23-.83-.23s-.59.08-.85.23c-.26.15-.47.38-.62.68-.16.3-.24.66-.24,1.09s.08.79.24,1.09.37.53.62.68.54.23.85.23.57-.08.83-.23.47-.38.62-.69c.16-.3.24-.67.24-1.09s-.08-.78-.24-1.08-.37-.53-.62-.68h0ZM157.08,79.43c-.16.2-.36.3-.6.3s-.46-.1-.62-.3c-.16-.2-.24-.5-.24-.91s.08-.71.24-.9c.16-.2.37-.29.62-.29s.45.1.6.29c.16.19.23.5.23.9s-.08.71-.23.91h0Z"/>
    <path d="M161.01,79.91v-3.32h-.77l-.38.81c.08-.06.18-.08.3-.08v2.59c0,.07-.01.16-.05.27s-.09.2-.16.28h1.27c-.07-.08-.13-.18-.16-.28s-.05-.2-.05-.27h0Z"/>
    <path d="M164.84,78.42c.23-.07.39-.18.49-.34s.15-.32.15-.51c0-.21-.06-.39-.17-.55-.11-.16-.28-.28-.49-.38-.22-.09-.47-.13-.78-.13-.16,0-.34.03-.51.08-.18.05-.31.12-.41.2l-.06.84c.12-.13.26-.23.43-.28.17-.05.33-.08.48-.08.19,0,.35.03.48.1.13.07.19.16.19.29s-.07.23-.23.31c-.15.08-.34.12-.56.12-.1,0-.18,0-.26-.02v.76c.1-.01.19-.02.28-.02.25,0,.46.04.65.13.19.09.28.21.28.37,0,.14-.08.25-.24.34s-.34.13-.55.13c-.51,0-.88-.15-1.1-.43l.03.97c.13.06.22.1.28.12.06.02.17.05.33.07.16.03.35.04.58.04.28,0,.53-.05.76-.15s.41-.24.55-.41c.14-.18.21-.37.22-.57.03-.51-.25-.84-.82-.98h0Z"/>
    <path d="M179.83,54.54c-.54-.32-1.13-.48-1.75-.48s-1.24.16-1.78.47-.97.74-1.28,1.28c-.31.53-.47,1.13-.47,1.76s.16,1.23.47,1.77c.31.53.74.96,1.28,1.28s1.13.47,1.78.47,1.22-.16,1.75-.47c.54-.31.97-.74,1.28-1.28.32-.54.48-1.13.48-1.76s-.16-1.22-.48-1.75-.75-.96-1.28-1.28ZM179.8,57.57c0,.33-.07.64-.23.91-.15.27-.35.49-.62.65-.26.16-.55.24-.88.24s-.63-.08-.89-.24c-.26-.16-.47-.38-.61-.65-.15-.27-.22-.58-.22-.92s.07-.64.22-.91c.15-.27.35-.49.62-.64.26-.16.56-.24.89-.24s.62.08.88.24c.26.16.47.38.62.65.15.27.22.58.22.91h0Z"/>
    <path d="M178.05,61.58c-.36.24-.67.54-.92.93.25.39.56.7.92.93.36-.24.67-.54.92-.93-.25-.39-.56-.7-.92-.93Z"/>
    <path d="M127.64,70.52l-.77,2.28c.16-.17.52-.24.82-.27.79-.1,4.42-.09,4.69-.09h1.32v1.03h2.05v-1.03h1.32c.26,0,4.31.03,4.61.09.29.06.38.1.54.27l-.28-2.28h-14.31Z"/>
    <path d="M137.69,81.42h-5.79v-1.75h1.21v-1.88h-1.21v-1.72h1.8v4.62h2.05v-1.02c.24,0,.47.01.69.03.28.03.55.09.82.19v-2.33c-.27.1-.54.16-.82.19-.21.02-.44.03-.69.03v-1.71h1.29c.49,0,.9.02,1.22.07s.62.16.9.33l-.65-2.28h-9.2c.53.37.62.8.62,1.31v6.72c-.06.4-.15.76-.62,1.08h4.38v1.25c0,.19-.04.43-.12.71-.08.28-.21.53-.39.74h3.06c-.18-.21-.31-.46-.39-.74-.08-.28-.12-.52-.12-.71v-1.25h3.4l.74-2.28c-.24.18-.53.28-.9.33-.36.04-.8.07-1.3.07h0Z"/>
    <path d="M138.62,78.3c.07-.04.15-.06.24-.06.08,0,.15.01.21.04.06.03.11.06.15.11.04.04.06.07.07.08l.05.06v-.54h-.01c-.07-.05-.14-.09-.21-.11s-.16-.03-.25-.03c-.16,0-.3.04-.43.11s-.24.18-.32.3-.12.26-.12.41.04.29.12.41.18.23.31.3.28.11.43.11c.1,0,.19-.01.27-.03s.15-.05.21-.09h.01v-.55l-.05.07s-.07.08-.1.11c-.03.03-.07.05-.13.07-.05.02-.12.04-.2.04-.09,0-.17-.01-.24-.05s-.13-.1-.17-.17c-.04-.07-.06-.15-.06-.23s.02-.15.06-.22.09-.12.16-.16h0Z"/>
    <path d="M140.77,77.97c-.13-.07-.26-.11-.41-.11s-.29.04-.42.11-.23.18-.3.3-.11.26-.11.41.04.29.11.42.18.23.3.3.27.11.42.11.29-.04.41-.11.23-.18.3-.3.11-.27.11-.42-.04-.29-.11-.41c-.07-.13-.18-.23-.3-.3ZM140.78,78.69c0,.08-.02.16-.06.23-.04.07-.09.12-.15.16s-.14.06-.22.06-.16-.02-.22-.06c-.06-.04-.12-.09-.15-.16s-.06-.15-.06-.23.02-.16.06-.23c.04-.07.09-.12.15-.16.06-.04.14-.06.22-.06s.16.02.22.06c.06.04.12.09.15.16s.06.15.06.23h0Z"/>
  </g>
</svg>