<?xml version="1.0" encoding="UTF-8"?>
<svg id="Layer_1" xmlns="http://www.w3.org/2000/svg" version="1.1" viewBox="0 0 270 112">
  <!-- Generator: Adobe Illustrator 30.0.0, SVG Export Plug-In . SVG Version: 2.1.1 Build 123)  -->
  <defs>
    <style>
      .st0 {
        fill: #fff;
      }

      .st1 {
        fill: #00539d;
      }
    </style>
  </defs>
  <rect class="st0" width="270" height="112" rx="29" ry="29"/>
  <path class="st1" d="M53.55,60.79h.54v3.95c0,.75-.31,1.15-.9,1.15-.54,0-.84-.35-.84-1.21v-3.9h.57v-1.28h-3.03v1.28h.77v4.01c0,1.32.61,2.38,2.36,2.38,1.42,0,2.25-.8,2.25-2.1v-4.29h.82v-1.28h-2.52v1.28h-.02Z"/>
  <polygon class="st1" points="61.69 60.79 62.53 60.79 62.53 64.24 62.5 64.23 60.12 59.51 57.4 59.51 57.4 60.79 58.27 60.79 58.27 65.8 57.4 65.8 57.4 67.09 60.25 67.09 60.25 65.8 59.43 65.8 59.43 61.52 59.45 61.52 62.24 67.09 63.7 67.09 63.7 60.79 64.62 60.79 64.62 59.51 61.69 59.51 61.69 60.79"/>
  <polygon class="st1" points="65.39 60.79 66.38 60.79 66.38 65.8 65.39 65.8 65.39 67.09 69.07 67.09 69.07 65.8 68.08 65.8 68.08 60.79 69.07 60.79 69.07 59.51 65.39 59.51 65.39 60.79"/>
  <polygon class="st1" points="73.81 60.79 74.53 60.79 73.44 64.59 73.42 64.59 72.33 60.79 73.08 60.79 73.08 59.51 69.86 59.51 69.86 60.79 70.63 60.79 72.58 67.14 73.9 67.14 75.79 60.79 76.56 60.79 76.56 59.51 73.81 59.51 73.81 60.79"/>
  <polygon class="st1" points="77.46 60.79 78.23 60.79 78.23 65.8 77.46 65.8 77.46 67.09 83.19 67.09 83.19 64.68 81.95 64.68 81.95 65.8 79.93 65.8 79.93 63.82 81.56 63.82 81.56 62.53 79.93 62.53 79.93 60.79 81.95 60.79 81.95 61.91 83.19 61.91 83.19 59.51 77.46 59.51 77.46 60.79"/>
  <path class="st1" d="M89.23,63.51c.72-.39,1.12-.97,1.12-1.89,0-1.28-.83-2.12-1.92-2.12h-4.1v1.28h.89v5.01h-.89v1.28h3.41v-1.28h-.82v-2.04h.75l1.47,3.33h1.99v-1.28h-.84l-1.06-2.29h0ZM87.64,62.54h-.71v-1.75h.89c.5,0,.77.41.77.86,0,.54-.36.89-.95.89Z"/>
  <path class="st1" d="M94.92,62.37c-.61-.3-1.11-.56-1.11-1.06,0-.36.27-.61.64-.61.56,0,.85.49.94,1.12h1.09v-2.3h-1.09v.63h-.02c-.28-.48-.69-.7-1.19-.7-.86,0-1.76.65-1.76,2.07,0,1.33.88,1.84,1.72,2.31.6.35,1.17.66,1.17,1.26,0,.46-.33.81-.72.81-.5,0-.99-.46-1-1.32v-.06h-1.1v2.58h1.1v-.64h.02c.28.47.69.74,1.31.74.88,0,1.89-.63,1.89-2.26,0-1.53-.98-2.1-1.89-2.57Z"/>
  <polygon class="st1" points="98.34 60.79 99.33 60.79 99.33 65.8 98.34 65.8 98.34 67.09 102.02 67.09 102.02 65.8 101.03 65.8 101.03 60.79 102.02 60.79 102.02 59.51 98.34 59.51 98.34 60.79"/>
  <polygon class="st1" points="102.9 62.55 104.03 62.55 104.03 60.79 105.01 60.79 105.01 65.8 104.03 65.8 104.03 67.09 107.69 67.09 107.69 65.8 106.71 65.8 106.71 60.79 107.69 60.79 107.69 62.55 108.83 62.55 108.83 59.51 102.9 59.51 102.9 62.55"/>
  <polygon class="st1" points="113.06 60.79 113.63 60.79 112.67 62.64 111.69 60.79 112.28 60.79 112.28 59.51 109.07 59.51 109.07 60.79 109.89 60.79 111.69 63.76 111.69 65.8 110.76 65.8 110.76 67.09 114.26 67.09 114.26 65.8 113.34 65.8 113.34 63.76 115.04 60.79 115.85 60.79 115.85 59.51 113.06 59.51 113.06 60.79"/>
  <path class="st1" d="M124.76,65.87v1.22h3.54c1.44,0,2.36-.8,2.36-2.1,0-.84-.39-1.4-1.17-1.73.14-.06.92-.37.92-1.48,0-.33-.09-.99-.63-1.46-.32-.28-.79-.42-1.48-.42h-3.54v1.22h.82v4.76h-.82ZM127.28,61.11h.61c.55,0,.83.25.83.78,0,.58-.36.84-.75.84h-.69v-1.62ZM127.28,63.95h.76c.43,0,.88.29.88.97s-.31.95-.92.95h-.72s0-1.92,0-1.92Z"/>
  <polygon class="st1" points="131.23 65.87 131.23 67.09 137.06 67.09 137.06 63.64 135.78 63.64 135.78 65.87 133.86 65.87 133.86 61.11 134.81 61.11 134.81 59.89 131.23 59.89 131.23 61.11 132.16 61.11 132.16 65.87 131.23 65.87"/>
  <path class="st1" d="M141.48,67.09h3.17v-1.22h-.77l-1.36-4.76h.87v-1.22h-4.25v1.22h.87l-1.28,4.76h-.82v1.22h2.9v-1.22h-.87l.36-1.23h1.69l.31,1.23h-.82v1.22h0ZM140.58,63.58l.59-2.17h.02l.53,2.17h-1.14Z"/>
  <polygon class="st1" points="152.09 61.11 153.01 61.11 153.01 59.89 150.09 59.89 150.09 61.11 150.93 61.11 150.93 64.38 150.9 64.37 148.52 59.89 145.8 59.89 145.8 61.11 146.67 61.11 146.67 65.87 145.8 65.87 145.8 67.09 148.65 67.09 148.65 65.87 147.83 65.87 147.83 61.8 147.85 61.8 150.63 67.09 152.09 67.09 152.09 61.11"/>
  <polygon class="st1" points="157.99 67.09 161.49 67.09 161.49 65.87 160.83 65.87 158.69 63.09 160.52 61.11 161.34 61.11 161.34 59.89 158.15 59.89 158.15 61.11 158.92 61.11 156.79 63.3 158.76 65.87 157.99 65.87 157.99 67.09"/>
  <polygon class="st1" points="156.74 61.11 157.53 61.11 157.53 59.89 154.16 59.89 154.16 61.11 155.04 61.11 155.04 65.87 154.16 65.87 154.16 67.09 157.53 67.09 157.53 65.87 156.74 65.87 156.74 61.11"/>
  <polygon class="st1" points="168.1 64.8 166.86 64.8 166.86 65.87 164.83 65.87 164.83 63.98 166.46 63.98 166.46 62.76 164.83 62.76 164.83 61.11 166.86 61.11 166.86 62.17 168.1 62.17 168.1 59.89 162.36 59.89 162.36 61.11 163.13 61.11 163.13 65.87 162.36 65.87 162.36 67.09 168.1 67.09 168.1 64.8"/>
  <polygon class="st1" points="175.23 62.78 175.23 59.89 169.31 59.89 169.31 62.78 170.44 62.78 170.44 61.11 171.42 61.11 171.42 65.87 170.44 65.87 170.44 67.09 174.1 67.09 174.1 65.87 173.12 65.87 173.12 61.11 174.1 61.11 174.1 62.78 175.23 62.78"/>
  <path class="st1" d="M182.13,67.21c.74,0,1.48-.29,2.11-.92l.59.8h1.93v-1.16h-1.05l-.51-.74c.07-.07.48-.68.77-1.35h.79v-1.16h-1.56c-.16.43-.53,1.09-.79,1.5l-.93-1.3c.88-.5,1.13-1.12,1.13-1.63,0-.86-.73-1.47-1.74-1.47-1.08,0-1.79.64-1.79,1.59,0,.39.11.8.52,1.31-1.09.56-1.8,1.27-1.8,2.32,0,1.27.99,2.22,2.32,2.22h0ZM182.92,60.73c.31,0,.55.24.55.52s-.24.54-.63.72c-.35-.47-.43-.63-.43-.78,0-.24.22-.46.52-.46h-.01ZM182.28,63.57l1.24,1.72c-.39.4-.72.58-1.11.58-.61,0-1.1-.48-1.1-1.09,0-.48.33-.92.98-1.21h0Z"/>
  <polygon class="st1" points="195.37 65.87 194.37 65.87 194.37 63.99 195.78 63.99 195.78 62.77 194.37 62.77 194.37 61.11 196.33 61.11 196.33 62.1 197.58 62.1 197.58 59.89 191.74 59.89 191.74 61.11 192.67 61.11 192.67 65.87 191.74 65.87 191.74 67.09 195.37 67.09 195.37 65.87"/>
  <polygon class="st1" points="204.35 63.64 203.07 63.64 203.07 65.87 201.15 65.87 201.15 61.11 202.1 61.11 202.1 59.89 198.52 59.89 198.52 61.11 199.45 61.11 199.45 65.87 198.52 65.87 198.52 67.09 204.35 67.09 204.35 63.64"/>
  <path class="st1" d="M210.18,61.11h.87v-1.22h-4.25v1.22h.87l-1.28,4.76h-.82v1.22h2.9v-1.22h-.87l.36-1.23h1.69l.31,1.23h-.82v1.22h3.17v-1.22h-.77l-1.36-4.76h0ZM208.25,63.58l.59-2.17h.02l.53,2.17h-1.14Z"/>
  <path class="st1" d="M220.12,63.45h-3.05v1.22h1.14c-.2.78-.75,1.2-1.51,1.2-.96,0-1.92-.73-1.92-2.51,0-1.37.76-2.3,1.87-2.3,1.04,0,1.62.76,1.8,1.39h1.1v-2.56h-1.1v.59c-.45-.45-1.2-.71-2.04-.71-2.04,0-3.46,1.53-3.46,3.7s1.23,3.71,3.63,3.71c1.02,0,1.96-.35,2.59-.96.61-.59.95-1.43.95-2.51v-.25h0Z"/>
  <path class="st1" d="M131.69,76.61c-1.08,0-1.83-.95-1.83-2.36s.75-2.45,1.94-2.45c.64,0,1.32.4,1.62,1.37h1.1v-2.53h-1.1v.56c-.52-.45-1.12-.68-1.96-.68-2.04,0-3.43,1.53-3.43,3.71,0,1.9,1.01,3.7,3.53,3.7,1.44,0,2.78-.71,3.23-2.51l-1.29-.68c-.26,1.24-.94,1.88-1.81,1.88h0Z"/>
  <path class="st1" d="M139.28,70.51c-2.39,0-3.62,1.78-3.62,3.71s1.2,3.7,3.62,3.7,3.63-1.82,3.63-3.7-1.22-3.71-3.63-3.71ZM139.28,76.61c-1.06,0-1.8-.95-1.8-2.35,0-1.69.88-2.43,1.79-2.43,1.06,0,1.81.93,1.81,2.39,0,1.64-.9,2.4-1.8,2.4h0Z"/>
  <path class="st1" d="M148.49,74.44c.72-.37,1.12-.92,1.12-1.79,0-1.22-.83-2.01-1.92-2.01h-4.1v1.22h.89v4.76h-.89v1.22h3.41v-1.22h-.82v-1.94h.75l1.47,3.16h1.99v-1.22h-.84l-1.06-2.17h0ZM146.9,73.51h-.71v-1.66h.89c.5,0,.77.39.77.82,0,.51-.36.85-.95.85h0Z"/>
  <path class="st1" d="M155.18,70.63h-3.74v1.22h.82v4.76h-.82v1.22h3.42v-1.22h-.9v-1.4h1.1c1.37,0,2.3-.86,2.3-2.29s-.98-2.29-2.18-2.29h0ZM154.46,73.99h-.51v-2.14h.67c.44,0,.93.34.93,1.08s-.37,1.06-1.09,1.06Z"/>
  <path class="st1" d="M162.03,70.51c-2.39,0-3.62,1.78-3.62,3.71s1.2,3.7,3.62,3.7,3.63-1.82,3.63-3.7-1.22-3.71-3.63-3.71ZM162.03,76.61c-1.06,0-1.8-.95-1.8-2.35,0-1.69.88-2.43,1.79-2.43,1.06,0,1.81.93,1.81,2.39,0,1.64-.9,2.4-1.8,2.4h0Z"/>
  <path class="st1" d="M171.25,74.44c.72-.37,1.12-.92,1.12-1.79,0-1.22-.83-2.01-1.92-2.01h-4.1v1.22h.89v4.76h-.89v1.22h3.41v-1.22h-.82v-1.94h.75l1.47,3.16h1.99v-1.22h-.84l-1.06-2.17h0ZM169.65,73.51h-.71v-1.66h.89c.5,0,.77.39.77.82,0,.51-.36.85-.95.85h0Z"/>
  <path class="st1" d="M179.05,71.85h.87v-1.22h-4.25v1.22h.87l-1.28,4.76h-.82v1.22h2.9v-1.22h-.87l.36-1.23h1.69l.31,1.23h-.82v1.22h3.17v-1.22h-.77l-1.36-4.76h0ZM177.12,74.32l.59-2.17h.02l.53,2.17h-1.14Z"/>
  <polygon class="st1" points="181.94 73.52 183.07 73.52 183.07 71.85 184.05 71.85 184.05 76.61 183.07 76.61 183.07 77.83 186.73 77.83 186.73 76.61 185.75 76.61 185.75 71.85 186.73 71.85 186.73 73.52 187.86 73.52 187.86 70.63 181.94 70.63 181.94 73.52"/>
  <polygon class="st1" points="188.75 71.85 189.74 71.85 189.74 76.61 188.75 76.61 188.75 77.83 192.42 77.83 192.42 76.61 191.43 76.61 191.43 71.85 192.42 71.85 192.42 70.63 188.75 70.63 188.75 71.85"/>
  <path class="st1" d="M196.73,70.51c-2.39,0-3.62,1.78-3.62,3.71s1.2,3.7,3.62,3.7,3.63-1.82,3.63-3.7-1.22-3.71-3.63-3.71ZM196.73,76.61c-1.06,0-1.8-.95-1.8-2.35,0-1.69.88-2.43,1.79-2.43,1.06,0,1.81.93,1.81,2.39,0,1.64-.9,2.4-1.8,2.4h0Z"/>
  <polygon class="st1" points="208.06 70.63 205.13 70.63 205.13 71.85 205.98 71.85 205.98 75.12 205.95 75.11 203.57 70.63 200.84 70.63 200.84 71.85 201.72 71.85 201.72 76.61 200.84 76.61 200.84 77.83 203.69 77.83 203.69 76.61 202.88 76.61 202.88 72.54 202.9 72.54 205.68 77.83 207.14 77.83 207.14 71.85 208.06 71.85 208.06 70.63"/>
  <path class="st1" d="M208.22,76.54c-.38,0-.68.3-.68.68s.3.68.68.68.68-.3.68-.68-.3-.68-.68-.68ZM208.22,77.76c-.3,0-.54-.24-.54-.55s.24-.54.54-.54.55.24.55.54-.24.55-.54.55h-.01Z"/>
  <path class="st1" d="M208.3,77.26h0c.12-.02.2-.09.2-.2,0-.13-.09-.2-.22-.2h-.36v.72h.15v-.3h.05c.08,0,.13.04.25.3h.18l-.08-.13c-.07-.13-.1-.16-.16-.18h0ZM208.2,77.17h-.14v-.2h.14c.07,0,.14.02.14.1s-.07.1-.15.1h0Z"/>
  <path class="st1" d="M123.51,55.79c6.93,0,8.31-5.63,14.12-5.63,3.9,0,5.3,1.62,6.41,2.56.57-.48-4.38-15.12-4.38-15.12-1.06-.87-3.71-2.9-7.05-2.9-5.91,0-6.99,4.06-12.82,4.06-4.14,0-6.3-2.5-6.76-3.1.57-.21.97-.75.97-1.38,0-.82-.66-1.48-1.48-1.48s-1.48.66-1.48,1.48.53,1.43,1.34,1.44l12.36,43.48,1.19-.1-7.25-25.06c1.48,1.2,3.41,1.76,4.81,1.76h.02ZM119.56,39.7c5.35,0,7.67-4.52,13.14-4.52,3.94,0,6.59,2.64,6.59,2.64,0,0,5.13,14.74,4.18,13.91s-2.8-2.47-5.85-2.47c-6.59,0-8.59,6.03-14.37,6.03-2.76,0-4.43-1.74-4.43-1.74-1.22-9.46-3.99-15.39-3.99-15.39,0,0,2.18,1.53,4.74,1.53h0ZM114.04,38.31c3.9,8.48,4.31,15.08,4.31,15.08,0,0-4.31-15.08-4.31-15.08Z"/>
  <path class="st1" d="M142.41,52.86l-.08-.14c-.08-.13-.1-.17-.17-.19h0c.12-.02.2-.09.2-.21,0-.13-.1-.21-.23-.21h-.38v.75h.15v-.31h.05c.09,0,.13.04.26.31h.2ZM142.05,52.43h-.14v-.21h.15c.07,0,.15.02.15.1s-.08.1-.15.1h0Z"/>
  <path class="st1" d="M142.78,52.48c0-.39-.32-.71-.71-.71s-.71.32-.71.71.32.71.71.71.71-.32.71-.71ZM141.51,52.48c0-.31.25-.57.57-.57s.57.26.57.57-.25.57-.57.57-.57-.26-.57-.57Z"/>
  <path class="st1" d="M121.61,48.49l2.83-.46.9-1.69-1.14-3.7c.24-.1.47-.21.67-.34-.37-1.11-.66-1.56-.66-1.56,0,0-1.18.58-2.74.94l.53,1.52s.12,0,.31-.05l1.07,3.07-1.48.48-.95-3.29h.33l-.53-1.6c-1.63.22-3.08-.19-3.08-.19,0,0,.11.93.58,1.78.16,0,.34.02.53.03l1.4,4.2,1.43.87h0Z"/>
  <path class="st1" d="M126.78,43.18l.86,2.76-.63.61.55,1.7,1.56-1.31,1.63-.96.99-.37.6-1.32-.46-1.73-.57-.28.27-.59-.32-1.34-1.72-.63-1.41.6-2.56,1.77.46,1.39.76-.31h-.01ZM129.78,43.91l.25.05.16.4-.12.24-.69.39-.24-.71s.64-.37.64-.37ZM129.15,41.79l.24.05.12.47-.14.22-.68.4-.24-.74.7-.4Z"/>
  <path class="st1" d="M133.94,42.15l1.19,3.59h-.5c.25.78.47,1.45.57,1.82,0,0,1.69-.44,3.12.06l-.44-1.74-.76-.12s-.08-.42-.22-.99h.56l.53.23-.48-1.56-1.02-.24c-.1-.33-.2-.63-.3-.88.93.1,1.88.53,1.88.53l.15.53,1.47.46-.48-1.91s-1.87-1.47-6.3-1.3c0,0,.22.63.52,1.52h.52-.01Z"/>
</svg>