<?xml version="1.0" encoding="UTF-8"?>
<svg id="Layer_1" xmlns="http://www.w3.org/2000/svg" version="1.1" xmlns:xlink="http://www.w3.org/1999/xlink" viewBox="0 0 270 112">
  <!-- Generator: Adobe Illustrator 30.0.0, SVG Export Plug-In . SVG Version: 2.1.1 Build 123)  -->
  <defs>
    <style>
      .st0 {
        fill: #fff;
      }

      .st1 {
        fill: none;
      }

      .st2 {
        clip-path: url(#clippath-1);
      }

      .st3 {
        clip-path: url(#clippath);
      }
    </style>
    <clipPath id="clippath">
      <rect class="st1" x="113.28" y="23.33" width="43.43" height="65.34"/>
    </clipPath>
    <clipPath id="clippath-1">
      <rect class="st1" x="113.28" y="23.33" width="43.43" height="65.34"/>
    </clipPath>
  </defs>
  <rect class="st0" width="270" height="112" rx="29" ry="29"/>
  <g class="st3">
    <g class="st2">
      <g>
        <path d="M117.08,88.67c-.87,0-1.55-.24-2.04-.71-.49-.48-.73-1.15-.73-2.01v-4.5c0-.23.19-.42.42-.42h.35c.23,0,.42.19.42.42v4.5c0,1.08.47,1.55,1.59,1.55s1.59-.46,1.59-1.55v-4.5c0-.23.19-.42.42-.42h.36c.23,0,.42.19.42.42v4.5c0,.86-.25,1.54-.74,2.02-.49.47-1.17.71-2.04.71"/>
        <path d="M123.73,88.67c-.16,0-.31,0-.46-.02-.15-.01-.28-.03-.41-.05-.15-.02-.29-.04-.43-.07-.19-.04-.33-.21-.33-.41v-.35c0-.13.06-.25.15-.32.1-.08.23-.11.35-.08.11.02.23.04.36.06.24.04.49.06.77.06.41,0,.73-.08.94-.25.12-.09.27-.25.27-.64,0-.16-.04-.3-.13-.45-.11-.18-.26-.37-.43-.54-.19-.19-.4-.39-.62-.57-.23-.2-.46-.42-.67-.64-.22-.23-.41-.47-.55-.72-.17-.28-.25-.59-.25-.91,0-.75.35-1.16.65-1.36.38-.27.86-.4,1.43-.4h.26c.09,0,.17.01.24.02h.14c.23,0,.42.19.42.42v.35c0,.23-.19.42-.42.42-.09,0-.18,0-.27-.02-.06,0-.13-.01-.19-.02h-.19c-.46,0-.65.1-.72.16-.07.06-.16.17-.16.42,0,.13.04.26.13.39.11.17.26.35.44.53.19.19.4.39.62.57.24.21.46.42.67.65.22.24.41.49.55.75.16.29.25.61.25.94,0,.37-.07.69-.22.96-.14.27-.34.49-.57.66-.23.16-.49.28-.78.35-.27.07-.55.1-.83.1"/>
        <path d="M132.37,88.67c-.53,0-1.04-.09-1.51-.27-.48-.18-.9-.44-1.26-.77-.36-.34-.65-.74-.85-1.21-.2-.47-.31-1-.31-1.58s.11-1.11.32-1.58.5-.88.86-1.21c.35-.33.77-.59,1.23-.77.46-.18.95-.27,1.45-.27.28,0,.53.02.76.06.21.04.4.08.56.13.18.06.35.12.5.19.11.05.19.14.23.25s.02.24-.04.34l-.19.32c-.12.2-.37.27-.57.15-.08-.04-.18-.09-.3-.12-.12-.04-.25-.07-.41-.1s-.34-.04-.55-.04c-.41,0-.79.07-1.12.21s-.61.33-.84.56c-.23.24-.41.52-.53.84-.13.32-.19.68-.19,1.05s.06.73.19,1.05.31.6.54.83.52.42.86.56.73.21,1.16.21c.22,0,.41-.02.57-.05.16-.04.3-.08.41-.12.13-.05.23-.1.32-.16.1-.07.21-.09.33-.06.11.03.21.1.27.2l.19.32c.12.2.05.45-.15.57-.16.09-.33.18-.53.25-.18.06-.38.12-.61.16-.24.05-.51.08-.81.08"/>
        <path d="M142.8,88.63h-.37c-.17,0-.33-.11-.39-.27l-.15-.4h-3.83l-.15.4c-.06.16-.22.27-.39.27h-.37c-.14,0-.27-.07-.34-.18-.08-.11-.1-.26-.05-.39l2.58-6.77c.06-.16.22-.27.39-.27h.51c.17,0,.33.11.39.27l2.58,6.77c.05.13.03.27-.05.39-.08.11-.21.18-.34.18M138.49,86.81h2.96l-1.48-3.88-1.48,3.88h0Z"/>
        <path d="M146.3,88.63h-.35c-.23,0-.42-.19-.42-.42v-6.77c0-.23.19-.42.42-.42h1.51c.44,0,.85.05,1.23.15.39.11.74.27,1.03.49.3.23.54.52.71.88.16.35.25.76.25,1.22s-.08.87-.25,1.22c-.17.36-.41.65-.71.88-.29.22-.64.38-1.03.49-.38.1-.79.15-1.23.15h-.74v1.71c0,.23-.19.42-.42.42M146.72,85.35h.74c.29,0,.56-.03.82-.09.24-.05.45-.14.63-.27.17-.11.3-.26.4-.46.1-.2.15-.46.15-.77s-.05-.57-.15-.77c-.1-.2-.23-.35-.4-.46-.18-.12-.39-.21-.63-.27-.26-.06-.53-.09-.82-.09h-.74v3.17h0Z"/>
        <path d="M156.3,88.63h-3.02c-.23,0-.42-.19-.42-.42v-6.77c0-.23.19-.42.42-.42h3.02c.23,0,.42.19.42.42v.32c0,.23-.19.42-.42.42h-2.25v2.05h2.12c.23,0,.42.19.42.42v.32c0,.23-.19.42-.42.42h-2.12v2.09h2.25c.23,0,.42.19.42.42v.32c0,.23-.19.42-.42.42"/>
        <path d="M140.16,70.89c.13.03,10.41-3.95,10.41-13.42v-31.18h0v-1.43c0-.84-.68-1.53-1.53-1.53s-1.53.68-1.53,1.53v.02h0v31.78c0,5.99-3.29,11.15-7.35,14.24"/>
        <path d="M129.82,66.51c-4.28-1.46-7.39-5.6-7.39-10.41v-31.22h0v-.02c0-.85-.69-1.54-1.54-1.54s-1.54.69-1.54,1.54v1.44h0v29.77c0,12.21,10.34,10.46,10.47,10.43"/>
        <path d="M155.1,23.33c-.85,0-1.53.69-1.53,1.53v31.34c0,9.91-7.75,18.07-17.64,18.59-.32.02-.65.03-.97.03-4.33,0-8.31-1.51-11.47-4.02,1.67.62,3.47.96,5.34.96.27,0,.54,0,.81-.02.53-.03,1.05-.08,1.57-.16.71-.11,1.41-.27,2.09-.47,1.52-.45,2.94-1.14,4.22-2,.61-.41,1.19-.87,1.73-1.36,2.63-2.38,4.43-5.63,4.96-9.29.17-.72.27-1.47.27-2.25v-31.09h0v-.24c0-.85-.69-1.53-1.53-1.53s-1.53.69-1.53,1.53v1.44h0v29.89c0,.14,0,.29,0,.43-.22,3.37-3.03,6.04-6.45,6.04h-.12c-3.5-.06-6.35-3.07-6.35-6.7v-29.65h0v-1.44c0-.85-.69-1.53-1.53-1.53s-1.53.69-1.53,1.53v31.1c0,5.29,4.2,9.67,9.35,9.76h.18c.85,0,1.66-.11,2.44-.32-1.39,1.29-3.07,2.28-4.93,2.84-.56.17-1.13.3-1.72.39-.63.1-1.27.15-1.92.15h-.23c-.68-.01-1.34-.08-1.99-.2-.73-.13-1.43-.33-2.11-.59-3.94-1.48-6.96-4.93-7.93-9.14-.15-.95-.22-1.92-.22-2.92v-31.08c0-.85-.69-1.53-1.53-1.53s-1.53.69-1.53,1.53v1.44h0v29.64c0,.31.01.61.03.91.47,11.67,10.01,21.02,21.66,21.02.37,0,.75,0,1.12-.03,11.52-.6,20.54-10.11,20.54-21.64v-31.33c0-.85-.69-1.53-1.53-1.53"/>
      </g>
    </g>
  </g>
</svg>