<?xml version="1.0" encoding="UTF-8"?>
<svg id="Layer_1" xmlns="http://www.w3.org/2000/svg" version="1.1" viewBox="0 0 270 112">
  <!-- Generator: Adobe Illustrator 30.0.0, SVG Export Plug-In . SVG Version: 2.1.1 Build 123)  -->
  <defs>
    <style>
      .st0 {
        fill: #fff;
      }

      .st1 {
        fill: #00c8ff;
      }
    </style>
  </defs>
  <rect class="st0" width="270" height="112" rx="29" ry="29"/>
  <path class="st1" d="M64.69,29.48c-.86-.08-1.61.56-1.69,1.42l-3.47,39.62-3.54-39.62c-.08-.86-.83-1.49-1.69-1.41-.86.08-1.49.83-1.41,1.69l5.11,57.18c.07.8.75,1.42,1.55,1.42h0c.81,0,1.48-.62,1.55-1.42l5.01-57.18c.08-.86-.56-1.61-1.42-1.69h0Z"/>
  <path class="st1" d="M85.29,29.48c-.86-.08-1.61.56-1.69,1.42l-3.47,39.62-3.54-39.62c-.08-.86-.83-1.49-1.69-1.41s-1.49.83-1.41,1.69l5.11,57.18c.07.8.75,1.42,1.55,1.42h0c.81,0,1.48-.62,1.55-1.42l5.01-57.18c.08-.86-.56-1.61-1.42-1.69h0Z"/>
  <path class="st1" d="M69.89,29.47c-.86,0-1.56.7-1.56,1.56v57.16c0,.86.7,1.56,1.56,1.56s1.56-.7,1.56-1.56V31.03c0-.86-.7-1.56-1.56-1.56Z"/>
  <path class="st1" d="M100.6,86.71h-8.39v-13.85h4.28c.86,0,1.56-.7,1.56-1.56s-.7-1.56-1.56-1.56h-4.28v-37.1h8.3c.86,0,1.56-.7,1.56-1.56s-.7-1.56-1.56-1.56h-9.86c-.86,0-1.56.7-1.56,1.56v38.66h-.62c-.86,0-1.56.7-1.56,1.56s.7,1.56,1.56,1.56h.62v15.41c0,.86.7,1.56,1.56,1.56h9.95c.86,0,1.56-.7,1.56-1.56s-.7-1.56-1.56-1.56Z"/>
  <path class="st1" d="M169.13,29.53h-9.86c-.86,0-1.56.7-1.56,1.56v38.66h-.62c-.86,0-1.56.7-1.56,1.56s.7,1.56,1.56,1.56h.62v15.41c0,.86.7,1.56,1.56,1.56s1.56-.7,1.56-1.56v-15.41h4.28c.86,0,1.56-.7,1.56-1.56s-.7-1.56-1.56-1.56h-4.28v-37.1h8.3c.86,0,1.56-.7,1.56-1.56s-.7-1.56-1.56-1.56Z"/>
  <path class="st1" d="M184.68,86.71h-8.39v-13.85h4.28c.86,0,1.56-.7,1.56-1.56s-.7-1.56-1.56-1.56h-4.28v-37.1h8.3c.86,0,1.56-.7,1.56-1.56s-.7-1.56-1.56-1.56h-9.86c-.86,0-1.56.7-1.56,1.56v38.66h-.62c-.86,0-1.56.7-1.56,1.56s.7,1.56,1.56,1.56h.62v15.41c0,.86.7,1.56,1.56,1.56h9.95c.86,0,1.56-.7,1.56-1.56s-.7-1.56-1.56-1.56Z"/>
  <path class="st1" d="M215.56,86.71h-8.39v-13.85h4.28c.86,0,1.56-.7,1.56-1.56s-.7-1.56-1.56-1.56h-4.28v-37.1h8.3c.86,0,1.56-.7,1.56-1.56s-.7-1.56-1.56-1.56h-9.86c-.86,0-1.56.7-1.56,1.56v38.66h-.62c-.86,0-1.56.7-1.56,1.56s.7,1.56,1.56,1.56h.62v15.41c0,.86.7,1.56,1.56,1.56h9.95c.86,0,1.56-.7,1.56-1.56s-.7-1.56-1.56-1.56Z"/>
  <path class="st1" d="M127.11,86.64h-8.44V30.92c0-.86-.7-1.56-1.56-1.56s-1.56.7-1.56,1.56v57.28c0,.86.7,1.56,1.56,1.56h10c.86,0,1.56-.7,1.56-1.56s-.7-1.56-1.56-1.56Z"/>
  <path class="st1" d="M200.09,29.43h-9.76c-.86,0-1.56.7-1.56,1.56s.7,1.56,1.56,1.56h3.26v55.49c0,.86.7,1.56,1.56,1.56s1.56-.7,1.56-1.56v-55.49h3.38c.86,0,1.56-.7,1.56-1.56s-.7-1.56-1.56-1.56Z"/>
  <path class="st1" d="M139.22,31.02c-.07-.8-.74-1.42-1.55-1.42h0c-.81,0-1.48.62-1.55,1.42l-3.49,38.77h-.34c-.86,0-1.56.7-1.56,1.56s.7,1.56,1.56,1.56h.06l-1.35,15c-.08.86.56,1.62,1.41,1.69.86.08,1.62-.56,1.69-1.41l1.37-15.28h4.33l1.36,15.28c.07.81.75,1.42,1.55,1.42h.14c.86-.08,1.49-.83,1.42-1.69l-5.04-56.89h0ZM135.76,69.79l1.9-21.1,1.87,21.1h-3.77,0Z"/>
  <path class="st1" d="M178.11,26.77l1.9-1.2,1.99,1.22c.25.16.53.23.81.23.53,0,1.04-.27,1.33-.75.45-.73.22-1.69-.52-2.14l-2.82-1.72c-.51-.31-1.14-.3-1.65.01l-2.72,1.72c-.73.46-.94,1.42-.48,2.15s1.42.94,2.15.48h.01Z"/>
</svg>