<?xml version="1.0" encoding="UTF-8"?>
<svg id="Layer_1" xmlns="http://www.w3.org/2000/svg" version="1.1" viewBox="0 0 810 810">
  <!-- Generator: Adobe Illustrator 30.0.0, SVG Export Plug-In . SVG Version: 2.1.1 Build 123)  -->
  <defs>
    <style>
      .st0 {
        fill: #164f90;
      }
    </style>
  </defs>
  <path class="st0" d="M468.3,350.55c0,.76-.19,1.47-.57,2.12-.38.65-.89,1.17-1.55,1.55-.66.38-1.36.57-2.11.57s-1.45-.19-2.11-.57c-.66-.38-1.17-.9-1.55-1.55-.38-.65-.57-1.35-.57-2.1s.19-1.46.57-2.12c.38-.66.9-1.18,1.55-1.55.65-.38,1.36-.57,2.11-.57s1.45.19,2.11.56c.65.38,1.17.89,1.55,1.55.38.66.57,1.36.57,2.11M467.71,350.55c0-.65-.16-1.25-.49-1.82-.33-.57-.77-1.02-1.33-1.34-.56-.33-1.16-.49-1.81-.49s-1.26.16-1.83.49c-.57.33-1.01.77-1.34,1.34-.33.57-.49,1.18-.49,1.83s.16,1.26.49,1.82c.32.56.77,1.01,1.34,1.33.57.33,1.18.49,1.82.49s1.24-.16,1.81-.49c.56-.33,1.01-.77,1.33-1.33.33-.56.49-1.17.49-1.83M462.32,348.09h2.03c.47,0,.81.05,1.02.14.21.1.38.25.51.47.13.22.2.47.2.75,0,.25-.05.46-.14.64-.07.13-.23.28-.47.44.22.11.36.23.44.37.08.14.11.39.11.73v.55c0,.26.06.47.17.65l.08.13h-.86c-.06-.2-.1-.44-.12-.72l-.04-.6c-.02-.22-.05-.37-.11-.46-.06-.09-.13-.15-.24-.19-.1-.04-.31-.06-.61-.06h-1.22v2.03h-.77v-4.87ZM463.09,348.79v1.44h1.19c.36,0,.61-.04.74-.12.19-.12.28-.32.28-.6,0-.25-.07-.43-.2-.54-.14-.12-.39-.17-.77-.17h-1.24Z"/>
  <path class="st0" d="M96.46,440.2v-8.75c-5.58,6.6-15.99,11.04-24.74,11.04-19.79,0-34.13-16.62-34.13-37.93s14.85-37.17,35.27-37.17c9.89,0,19.67,5.84,23.34,11.29h.26v-8.88h15.48v70.41h-15.48ZM95.96,404.81c0-12.3-8.5-21.95-20.68-21.95s-20.8,9.9-20.8,22.46c0,11.8,9.01,21.69,20.93,21.69s20.55-10.15,20.55-22.2"/>
  <rect class="st0" x="120.38" y="346.33" width="16.87" height="93.88"/>
  <path class="st0" d="M145.68,463.67v-93.88h15.47v8.25h.26c5.96-7.48,13.57-10.66,22.83-10.66,20.68,0,35.27,17.38,35.27,37.3s-15.35,37.8-35.27,37.8c-9.01,0-14.97-2.41-21.69-9.01v30.19h-16.87ZM202.64,404.93c0-11.42-8.5-22.07-20.43-22.07s-20.68,9.89-20.68,22.07c0,14.84,11.67,22.07,20.55,22.07,11.54,0,20.55-10.4,20.55-22.07"/>
  <path class="st0" d="M273.48,440.2v-36.66c0-14.59-4.82-20.68-14.46-20.68s-14.21,6.85-14.21,20.93v36.41h-16.87v-93.88h16.87v28.42c5.2-4.95,11.04-7.36,18.27-7.36,8.5,0,27.27,5.96,27.27,29.81v43h-16.87Z"/>
  <path class="st0" d="M357.64,440.2v-8.75c-5.58,6.6-15.99,11.04-24.74,11.04-19.79,0-34.13-16.62-34.13-37.93s14.85-37.17,35.27-37.17c9.89,0,19.67,5.84,23.34,11.29h.26v-8.88h15.48v70.41h-15.48ZM357.14,404.81c0-12.3-8.5-21.95-20.68-21.95s-20.8,9.9-20.8,22.46c0,11.8,9.01,21.69,20.93,21.69s20.55-10.15,20.55-22.2"/>
  <path class="st0" d="M440.17,440.2v-8.63h-.26c-4.57,7.11-13.19,10.91-22.45,10.91-19.67,0-35.9-16.49-35.9-37.42,0-22.33,17.63-37.68,36.28-37.68,8.5,0,14.71,2.41,20.93,8.63v-29.69h16.87v93.88h-15.47ZM440.04,404.93c0-11.67-9.01-22.07-20.93-22.07-10.65,0-20.68,9.89-20.68,21.57,0,12.43,9.13,22.58,20.8,22.58s20.81-10.02,20.81-22.07"/>
  <path class="st0" d="M481.83,412.55c1.27,6.21,9.01,14.46,19.41,14.46,6.98,0,12.81-2.79,16.24-9.01h17.76c-4.57,14.21-19.03,24.49-34,24.49-21.18,0-37.17-16.49-37.17-37.3s15.61-37.8,37.04-37.8,36.41,16.11,36.41,36.66c0,2.66-.38,5.45-1.01,8.5h-54.68ZM520.27,398.97c-1.65-10.15-8.63-16.11-19.16-16.11-9.26,0-17.12,5.33-19.79,16.11h38.95Z"/>
  <polygon class="st0" points="540.7 440.2 540.7 424.73 571.91 385.27 544.25 385.27 544.25 369.8 592.08 369.8 592.08 385.27 560.88 424.73 594.24 424.73 594.24 440.2 540.7 440.2"/>
  <path class="st0" d="M602.67,346.33h16.87v15.48h-16.87v-15.48ZM602.67,369.8h16.87v70.41h-16.87v-70.41Z"/>
  <path class="st0" d="M673.65,440.2v-35.39c0-14.34-4.7-21.95-14.21-21.95-5.2,0-14.59,3.43-14.59,18.9v38.44h-16.87v-70.41h15.6v6.09c5.58-5.45,11.29-8.5,19.41-8.5,9.13,0,27.53,5.71,27.53,31.2v41.61h-16.87Z"/>
  <path class="st0" d="M716.71,412.55c1.27,6.21,9.01,14.46,19.41,14.46,6.98,0,12.81-2.79,16.24-9.01h17.76c-4.57,14.21-19.03,24.49-34,24.49-21.18,0-37.17-16.49-37.17-37.3s15.6-37.8,37.04-37.8,36.41,16.11,36.41,36.66c0,2.66-.38,5.45-1.01,8.5h-54.68ZM755.15,398.97c-1.65-10.15-8.63-16.11-19.16-16.11-9.26,0-17.12,5.33-19.79,16.11h38.95Z"/>
</svg>