<svg width="735" height="118" viewBox="0 0 735 118" fill="none" xmlns="http://www.w3.org/2000/svg">
<path d="M430.71 4.22977C430.71 4.98977 430.52 5.69979 430.14 6.34979C429.76 6.99979 429.25 7.51978 428.59 7.89978C427.93 8.27978 427.23 8.46979 426.48 8.46979C425.73 8.46979 425.03 8.27978 424.37 7.89978C423.71 7.51978 423.2 6.99979 422.82 6.34979C422.44 5.69979 422.25 4.99979 422.25 4.24979C422.25 3.49979 422.44 2.78979 422.82 2.12979C423.2 1.46979 423.72 0.949773 424.37 0.579773C425.02 0.199773 425.73 0.00976562 426.48 0.00976562C427.23 0.00976562 427.93 0.199794 428.59 0.569794C429.24 0.949794 429.76 1.45978 430.14 2.11978C430.52 2.77978 430.71 3.47977 430.71 4.22977ZM430.12 4.22977C430.12 3.57977 429.96 2.97979 429.63 2.40979C429.3 1.83979 428.86 1.38979 428.3 1.06979C427.74 0.739794 427.14 0.579773 426.49 0.579773C425.84 0.579773 425.23 0.739794 424.66 1.06979C424.09 1.39979 423.65 1.83979 423.32 2.40979C422.99 2.97979 422.83 3.58978 422.83 4.23978C422.83 4.88978 422.99 5.49978 423.32 6.05978C423.64 6.61978 424.09 7.06977 424.66 7.38977C425.23 7.71977 425.84 7.87979 426.48 7.87979C427.12 7.87979 427.72 7.71977 428.29 7.38977C428.85 7.05977 429.3 6.61978 429.62 6.05978C429.95 5.49978 430.11 4.88977 430.11 4.22977M424.73 1.76978H426.76C427.23 1.76978 427.57 1.81979 427.78 1.90979C427.99 2.00979 428.16 2.15979 428.29 2.37979C428.42 2.59979 428.49 2.84979 428.49 3.12979C428.49 3.37979 428.44 3.58978 428.35 3.76978C428.28 3.89978 428.12 4.04978 427.88 4.20978C428.1 4.31978 428.24 4.43977 428.32 4.57977C428.4 4.71977 428.43 4.96978 428.43 5.30978V5.85977C428.43 6.11977 428.49 6.32977 428.6 6.50977L428.68 6.63977H427.82C427.76 6.43977 427.72 6.19977 427.7 5.91977L427.66 5.31979C427.64 5.09979 427.61 4.94977 427.55 4.85977C427.49 4.76977 427.42 4.70977 427.31 4.66977C427.21 4.62977 427 4.60977 426.7 4.60977H425.48V6.63977H424.71V1.76978H424.73ZM425.5 2.46979V3.90979H426.69C427.05 3.90979 427.3 3.86976 427.43 3.78976C427.62 3.66976 427.71 3.46979 427.71 3.18979C427.71 2.93979 427.64 2.75978 427.51 2.64978C427.37 2.52978 427.12 2.47977 426.74 2.47977H425.5V2.46979Z" fill="#164F90"/>
<path d="M58.87 93.8793V85.1293C53.29 91.7293 42.88 96.1693 34.13 96.1693C14.34 96.1693 0 79.5493 0 58.2393C0 36.9293 14.85 21.0693 35.27 21.0693C45.16 21.0693 54.94 26.9093 58.61 32.3593H58.87V23.4793H74.35V93.8893H58.87V93.8793ZM58.37 58.4893C58.37 46.1893 49.87 36.5393 37.69 36.5393C25.51 36.5393 16.89 46.4393 16.89 58.9993C16.89 70.7993 25.9 80.6893 37.82 80.6893C49.74 80.6893 58.37 70.5393 58.37 58.4893Z" fill="#164F90"/>
<path d="M99.661 0.00976562H82.791V93.8898H99.661V0.00976562Z" fill="#164F90"/>
<path d="M108.09 117.35V23.4696H123.56V31.7196H123.82C129.78 24.2396 137.39 21.0596 146.65 21.0596C167.33 21.0596 181.92 38.4396 181.92 58.3596C181.92 78.2796 166.57 96.1596 146.65 96.1596C137.64 96.1596 131.68 93.7496 124.96 87.1496V117.34H108.09V117.35ZM165.05 58.6096C165.05 47.1896 156.55 36.5396 144.62 36.5396C132.69 36.5396 123.94 46.4296 123.94 58.6096C123.94 73.4496 135.61 80.6796 144.49 80.6796C156.03 80.6796 165.04 70.2796 165.04 58.6096" fill="#164F90"/>
<path d="M235.89 93.88V57.22C235.89 42.63 231.07 36.54 221.43 36.54C211.79 36.54 207.22 43.39 207.22 57.47V93.88H190.35V0H207.22V28.42C212.42 23.47 218.26 21.06 225.49 21.06C233.99 21.06 252.76 27.02 252.76 50.87V93.87H235.89V93.88Z" fill="#164F90"/>
<path d="M320.05 93.8793V85.1293C314.47 91.7293 304.06 96.1693 295.31 96.1693C275.52 96.1693 261.18 79.5493 261.18 58.2393C261.18 36.9293 276.03 21.0693 296.45 21.0693C306.34 21.0693 316.12 26.9093 319.79 32.3593H320.05V23.4793H335.53V93.8893H320.05V93.8793ZM319.55 58.4893C319.55 46.1893 311.05 36.5393 298.87 36.5393C286.69 36.5393 278.07 46.4393 278.07 58.9993C278.07 70.7993 287.08 80.6893 299 80.6893C310.92 80.6893 319.55 70.5393 319.55 58.4893Z" fill="#164F90"/>
<path d="M402.581 93.88V85.25H402.321C397.751 92.36 389.131 96.16 379.871 96.16C360.201 96.16 343.971 79.67 343.971 58.74C343.971 36.41 361.601 21.06 380.251 21.06C388.751 21.06 394.961 23.47 401.181 29.69V0H418.051V93.88H402.581ZM402.451 58.61C402.451 46.94 393.441 36.54 381.521 36.54C370.871 36.54 360.841 46.43 360.841 58.11C360.841 70.54 369.971 80.69 381.641 80.69C393.311 80.69 402.451 70.67 402.451 58.62" fill="#164F90"/>
<path d="M444.24 66.2293C445.51 72.4393 453.25 80.6893 463.65 80.6893C470.63 80.6893 476.46 77.8993 479.89 71.6793H497.65C493.08 85.8893 478.62 96.1693 463.65 96.1693C442.47 96.1693 426.48 79.6793 426.48 58.8693C426.48 38.0593 442.09 21.0693 463.52 21.0693C484.95 21.0693 499.93 37.1793 499.93 57.7293C499.93 60.3893 499.55 63.1793 498.92 66.2293H444.24ZM482.68 52.6493C481.03 42.4993 474.05 36.5393 463.52 36.5393C454.26 36.5393 446.4 41.8693 443.73 52.6493H482.68Z" fill="#164F90"/>
<path d="M503.109 93.8795V78.4095L534.319 38.9495H506.659V23.4795H554.489V38.9495L523.289 78.4095H556.649V93.8795H503.109Z" fill="#164F90"/>
<path d="M565.08 0.00976562H581.95V15.4898H565.08V0.00976562ZM565.08 23.4798H581.95V93.8898H565.08V23.4798Z" fill="#164F90"/>
<path d="M636.061 93.8796V58.4896C636.061 44.1496 631.361 36.5396 621.851 36.5396C616.651 36.5396 607.261 39.9696 607.261 55.4396V93.8796H590.391V23.4696H605.991V29.5596C611.571 24.1096 617.281 21.0596 625.401 21.0596C634.531 21.0596 652.931 26.7696 652.931 52.2596V93.8696H636.061V93.8796Z" fill="#164F90"/>
<path d="M679.119 66.2293C680.389 72.4393 688.129 80.6893 698.529 80.6893C705.509 80.6893 711.339 77.8993 714.769 71.6793H732.529C727.959 85.8893 713.499 96.1693 698.529 96.1693C677.349 96.1693 661.359 79.6793 661.359 58.8693C661.359 38.0593 676.959 21.0693 698.399 21.0693C719.839 21.0693 734.809 37.1793 734.809 57.7293C734.809 60.3893 734.429 63.1793 733.799 66.2293H679.119ZM717.559 52.6493C715.909 42.4993 708.929 36.5393 698.399 36.5393C689.139 36.5393 681.279 41.8693 678.609 52.6493H717.559Z" fill="#164F90"/>
</svg>
