<?xml version="1.0" encoding="UTF-8"?>
<svg id="Layer_1" xmlns="http://www.w3.org/2000/svg" version="1.1" viewBox="0 0 100 100">
  <!-- Generator: Adobe Illustrator 30.0.0, SVG Export Plug-In . SVG Version: 2.1.1 Build 123)  -->
  <defs>
    <style>
      .st0 {
        fill: #0054b9;
      }
    </style>
  </defs>
  <path class="st0" d="M61.94,10h-24.1c-6.52,0-11.81,5.29-11.81,11.81v28.72c0,6.52,5.29,11.81,11.81,11.81h24.1c6.52,0,11.81-5.29,11.81-11.81v-28.72c0-6.52-5.29-11.81-11.81-11.81ZM71.96,50.53c0,2.77-1.12,5.27-2.94,7.09-1.82,1.82-4.32,2.94-7.09,2.94h-24.1c-2.77,0-5.27-1.12-7.09-2.94-1.82-1.82-2.94-4.32-2.94-7.09v-28.72c0-2.77,1.12-5.27,2.94-7.09,1.82-1.82,4.32-2.94,7.09-2.94h24.1c2.77,0,5.27,1.12,7.09,2.94,1.82,1.82,2.94,4.32,2.94,7.09v28.72Z"/>
  <path class="st0" d="M39.42,23.64v1.53h11.37v-1.53s-11.27,0-11.37,0Z"/>
  <rect class="st0" x="39.42" y="28.17" width="18.53" height="1.53"/>
  <rect class="st0" x="39.42" y="32.33" width="18.7" height="1.53"/>
  <rect class="st0" x="39.42" y="36.42" width="12.31" height="1.53"/>
  <path class="st0" d="M43.49,39.59c-1.62,0-2.93,1.31-2.93,2.93v1.28h-.07c-.83,0-1.49.67-1.49,1.49v4.41c0,.83.67,1.49,1.49,1.49h5.94c.83,0,1.49-.67,1.49-1.49v-4.41c0-.83-.67-1.49-1.49-1.49h-.02v-1.28c0-1.62-1.31-2.93-2.93-2.93ZM41.84,42.52c0-.91.74-1.65,1.65-1.65.91,0,1.65.74,1.65,1.65v1.28h-3.3v-1.28ZM46.44,45.08c.12,0,.22.1.22.22v4.41c0,.12-.1.22-.22.22h-5.94c-.12,0-.22-.1-.22-.22v-4.41c0-.12.1-.22.22-.22h5.94Z"/>
  <path class="st0" d="M43.03,47.89v1.38h.87v-1.38c.37-.17.64-.54.64-.98,0-.59-.48-1.07-1.07-1.07s-1.07.48-1.07,1.07c0,.44.26.81.64.98Z"/>
  <path class="st0" d="M52.08,53.13h-16.07V19.31h18.59v6.92h6.71v8.74c.61.05,1.21.14,1.79.28v-10.27l-7.23-7.45h-21.65v37.4h19.79c-.71-.52-1.36-1.12-1.93-1.79ZM56.39,20.62l3.71,3.82h-3.71v-3.82Z"/>
  <path class="st0" d="M60.48,36.56c-5.2,0-9.41,4.21-9.41,9.41,0,5.2,4.21,9.41,9.41,9.41,5.2,0,9.41-4.21,9.41-9.41,0-5.2-4.21-9.41-9.41-9.41ZM65.87,51.37c-1.38,1.38-3.28,2.23-5.39,2.23-2.11,0-4.01-.85-5.39-2.23-1.38-1.38-2.23-3.28-2.23-5.39,0-2.11.85-4.01,2.23-5.39,1.38-1.38,3.28-2.23,5.39-2.23,2.11,0,4.01.85,5.39,2.23,1.38,1.38,2.23,3.28,2.23,5.39,0,2.11-.85,4.01-2.23,5.39Z"/>
  <polygon class="st0" points="59.07 47.64 56.64 45.5 55.46 46.84 59.15 50.09 65.63 43.61 64.37 42.35 59.07 47.64"/>
  <rect class="st0" x="62.64" y="71.4" width="1.12" height="7.87"/>
  <path class="st0" d="M60.02,78.26c.23-.34.34-.72.34-1.13,0-.49-.13-.89-.39-1.18-.26-.29-.57-.51-.93-.65-.36-.14-.84-.28-1.43-.43-.46-.1-.82-.2-1.08-.3-.27-.09-.49-.22-.67-.39-.18-.17-.27-.39-.27-.66,0-.37.16-.67.48-.9.32-.23.8-.35,1.43-.35.36,0,.73.05,1.1.16.37.11.73.27,1.06.48l.37-.9c-.32-.22-.71-.4-1.16-.52-.45-.12-.91-.18-1.37-.18-.67,0-1.23.1-1.68.3s-.79.47-1.01.81-.33.72-.33,1.14c0,.5.13.9.39,1.2s.57.52.93.66c.36.14.84.28,1.43.43.47.11.84.21,1.1.3.26.09.48.22.65.39.18.17.26.39.26.66,0,.37-.16.66-.48.88-.32.22-.81.33-1.46.33-.49,0-.98-.08-1.44-.25-.47-.17-.85-.39-1.15-.66l-.42.88c.31.29.75.53,1.3.71.55.18,1.12.28,1.71.28.67,0,1.23-.1,1.69-.3.46-.2.8-.47,1.02-.81Z"/>
  <path class="st0" d="M78.55,72.7c.48-.26,1.01-.39,1.61-.39.89,0,1.65.3,2.28.91l.7-.7c-.36-.4-.8-.7-1.31-.91-.51-.21-1.08-.31-1.71-.31-.8,0-1.52.17-2.16.52-.64.34-1.14.82-1.51,1.44-.36.61-.55,1.3-.55,2.07s.18,1.45.55,2.06.86,1.09,1.5,1.44c.64.35,1.35.52,2.15.52.56,0,1.1-.09,1.62-.26.52-.17.97-.42,1.36-.74v-3.07h-1.08v2.56c-.52.34-1.14.51-1.84.51-.59,0-1.13-.13-1.6-.39-.48-.26-.85-.62-1.12-1.08-.27-.46-.4-.98-.4-1.55s.14-1.1.4-1.56c.27-.46.64-.82,1.12-1.08Z"/>
  <polygon class="st0" points="72.41 77.27 67.69 71.4 66.77 71.4 66.77 79.28 67.89 79.28 67.89 73.41 72.62 79.28 73.54 79.28 73.54 71.4 72.41 71.4 72.41 77.27"/>
  <polygon class="st0" points="38.2 75.76 42.15 75.76 42.15 74.8 38.2 74.8 38.2 72.38 42.63 72.38 42.63 71.4 37.08 71.4 37.08 79.28 42.79 79.28 42.79 78.3 38.2 78.3 38.2 75.76"/>
  <polygon class="st0" points="22.25 78.3 17.98 78.3 17.98 71.4 16.86 71.4 16.86 79.28 22.25 79.28 22.25 78.3"/>
  <path class="st0" d="M30.3,72.71c.47-.26,1-.39,1.59-.39.88,0,1.62.31,2.21.93l.73-.71c-.36-.4-.79-.71-1.3-.92-.51-.21-1.07-.31-1.69-.31-.79,0-1.5.17-2.14.52-.64.35-1.14.83-1.5,1.44s-.54,1.3-.54,2.06.18,1.45.54,2.06.86,1.09,1.49,1.44c.63.35,1.34.52,2.13.52.61,0,1.18-.1,1.69-.31.51-.21.95-.52,1.31-.92l-.73-.71c-.6.63-1.34.94-2.21.94-.58,0-1.11-.13-1.59-.39-.47-.26-.84-.62-1.11-1.08-.27-.46-.4-.98-.4-1.55s.13-1.09.4-1.55c.27-.46.64-.82,1.11-1.08Z"/>
  <rect class="st0" x="24.18" y="71.4" width="1.12" height="7.87"/>
  <polygon class="st0" points="51.1 79.28 52.02 79.28 52.02 71.4 50.89 71.4 50.89 77.27 46.17 71.4 45.25 71.4 45.25 79.28 46.37 79.28 46.37 73.41 51.1 79.28"/>
  <path class="st0" d="M56.29,83.77c-.53-.29-1.12-.43-1.77-.43s-1.25.14-1.78.43c-.53.29-.94.69-1.24,1.2-.3.51-.45,1.08-.45,1.7s.15,1.19.45,1.7c.3.51.71.91,1.24,1.2.53.29,1.12.43,1.78.43s1.24-.14,1.77-.43c.53-.29.94-.69,1.24-1.19.3-.51.45-1.07.45-1.71s-.15-1.2-.45-1.71c-.3-.51-.71-.9-1.24-1.19ZM56.71,87.95c-.22.38-.52.68-.9.9-.38.22-.81.33-1.29.33s-.91-.11-1.3-.33c-.39-.22-.69-.52-.91-.9-.22-.38-.33-.81-.33-1.28s.11-.9.33-1.28c.22-.38.52-.68.91-.9.39-.22.82-.33,1.3-.33s.91.11,1.29.33c.38.22.68.52.9.9s.33.81.33,1.28-.11.9-.33,1.28Z"/>
  <path class="st0" d="M23.13,83.42l-2.95,6.51h.96l.72-1.63h3.46l.72,1.63h.98l-2.96-6.51h-.92ZM22.18,87.55l1.4-3.19,1.4,3.19h-2.81Z"/>
  <polygon class="st0" points="62.46 88.76 60.11 83.42 59.11 83.42 61.97 89.93 62.89 89.93 65.75 83.42 64.82 83.42 62.46 88.76"/>
  <path class="st0" d="M31.41,83.42h-2.54v6.51h.93v-1.97h1.61c.84,0,1.51-.2,1.99-.6.48-.4.73-.96.73-1.67s-.24-1.26-.73-1.66c-.48-.4-1.15-.61-1.99-.61ZM32.73,86.77c-.31.25-.76.38-1.35.38h-1.58v-2.92h1.58c.59,0,1.04.13,1.35.38.31.25.46.61.46,1.08s-.15.83-.46,1.08Z"/>
  <path class="st0" d="M48.8,86.97c.25-.35.37-.78.37-1.28,0-.71-.24-1.26-.73-1.66-.48-.4-1.15-.61-1.99-.61h-2.54v6.51h.93v-1.98h1.61c.1,0,.24,0,.41-.02l1.4,2h1.01l-1.54-2.19c.46-.16.81-.42,1.06-.77ZM46.43,87.15h-1.58v-2.93h1.58c.59,0,1.04.13,1.35.38.31.25.46.61.46,1.08s-.15.83-.46,1.09c-.31.25-.76.38-1.35.38Z"/>
  <path class="st0" d="M69.24,83.42l-2.95,6.51h.96l.72-1.63h3.46l.72,1.63h.98l-2.96-6.51h-.92ZM68.29,87.55l1.4-3.19,1.4,3.19h-2.81Z"/>
  <path class="st0" d="M38.94,83.42h-2.54v6.51h.93v-1.97h1.61c.84,0,1.51-.2,1.99-.6.48-.4.73-.96.73-1.67s-.24-1.26-.73-1.66c-.48-.4-1.15-.61-1.99-.61ZM40.26,86.77c-.31.25-.76.38-1.35.38h-1.58v-2.92h1.58c.59,0,1.04.13,1.35.38.31.25.46.61.46,1.08s-.15.83-.46,1.08Z"/>
  <polygon class="st0" points="75.91 83.42 74.98 83.42 74.98 89.93 79.44 89.93 79.44 89.12 75.91 89.12 75.91 83.42"/>
</svg>