<?xml version="1.0" encoding="UTF-8"?>
<svg id="Layer_1" xmlns="http://www.w3.org/2000/svg" version="1.1" viewBox="0 0 100 100">
  <!-- Generator: Adobe Illustrator 30.0.0, SVG Export Plug-In . SVG Version: 2.1.1 Build 123)  -->
  <defs>
    <style>
      .st0 {
        fill: #0054b9;
      }
    </style>
  </defs>
  <path class="st0" d="M49.1,54.71c3.57-4.34,7.17-9.71,10.63-13.96,1.72-2.12,3.41-3.96,4.99-5.22.79-.63,1.55-1.13,2.25-1.45.06-.03.11-.04.17-.07v.93c0,.42.27.81.67.95.4.14.85.01,1.12-.32l5.75-7.13c.32-.39.29-.97-.06-1.33l-6.24-6.44c-.29-.29-.72-.39-1.1-.23-.38.15-.63.52-.63.93v1.6c-.36.12-.76.26-1.21.42-2.27.8-5.57,2.2-9.33,5.7-2.52,2.34-4.91,5.37-7.4,8.69-2.49,3.33-5.06,6.95-7.89,10.49-2.49,3.11-4.71,4.69-6.36,5.5-.16.08-.31.14-.46.21.12-.36.03-.77-.26-1.05-.4-.38-1.04-.36-1.42.04l-6.05,6.44c-.36.38-.36.98,0,1.37l2.38,2.61c-.61.02-1.24.04-1.88.04h-8.06c-.62,0-1.18-.25-1.58-.66-.41-.41-.66-.96-.66-1.58v-17.94l2.75-3.13,3.26,3.41v12.29c0,.26.11.52.29.71s.45.29.71.29h3.39c.56,0,1.01-.45,1.01-1.01s-.45-1.01-1.01-1.01h-2.39v-9.19l.33.35c.38.4,1.02.42,1.42.03.4-.38.42-1.02.03-1.42h0l-1.79-1.87v-9.77h5.98c1.59,0,3.12.47,4.53,1.21,2.11,1.11,3.94,2.82,5.22,4.26.64.72,1.14,1.37,1.48,1.83.17.23.3.42.39.55.04.06.07.11.1.14l.02.03h0c.3.48.92.61,1.39.32.47-.3.61-.92.31-1.39h0s-1.41-2.23-3.76-4.44c-1.17-1.11-2.59-2.23-4.21-3.08-1.62-.85-3.47-1.44-5.46-1.44-2.61,0-4.35,0-5.44,0-1.09,0-1.53,0-1.54,0-.26,0-.52.11-.71.29s-.29.45-.29.71v8.67l-2.56-2.68c-.2-.21-.46-.32-.75-.31-.28,0-.55.13-.73.34l-1.96,2.23v-13.66c0-.62.25-1.18.66-1.58.41-.41.96-.66,1.58-.66h12.93c1.9,0,3.85.57,5.7,1.46,2.78,1.33,5.33,3.38,7.16,5.09.92.86,1.65,1.63,2.16,2.18.25.28.45.5.58.65.07.08.11.13.15.17l.04.04h0c.35.44.98.5,1.41.15.43-.35.49-.98.14-1.41h0s-2.1-2.57-5.28-5.14c-1.59-1.28-3.45-2.57-5.5-3.55-2.04-.98-4.27-1.66-6.57-1.66h-12.93c-2.35,0-4.25,1.9-4.25,4.25v15.96l-1.86,2.13c-.26.3-.32.72-.16,1.08.16.36.52.59.92.59h1.11v14.91c0,2.35,1.9,4.25,4.25,4.25h8.06c1.24,0,2.44-.04,3.62-.14l2.02,2.22c.28.31.72.41,1.11.26s.64-.52.64-.94v-2.07c1.41-.3,2.78-.73,4.15-1.31,3.65-1.57,7.14-4.29,10.81-8.76ZM37.5,61.62c-2.02.87-4.09,1.35-6.31,1.6l-2.82-3.09,3.27-3.48c.63-.02,1.95-.19,3.71-1.06,1.94-.95,4.4-2.74,7.04-6.05,2.87-3.59,5.46-7.24,7.93-10.54,2.46-3.3,4.81-6.24,7.16-8.43,2.36-2.19,4.46-3.47,6.23-4.3.88-.42,1.69-.72,2.4-.98.72-.25,1.35-.45,1.91-.66.34-.13.57-.44.62-.79l3.92,4.04-3.03,3.75c-.2-.02-.4-.04-.61-.04-.95,0-1.88.25-2.79.66-1.58.73-3.11,1.97-4.65,3.51-2.31,2.31-4.63,5.34-6.97,8.48-2.33,3.15-4.67,6.41-6.96,9.19-3.54,4.3-6.76,6.77-10.06,8.19Z"/>
  <path class="st0" d="M60.25,50.57c1.5,1.58,3.46,3.47,5.41,4.78.46.31,1.09.18,1.39-.28s.18-1.09-.28-1.39c-1.73-1.15-3.63-2.97-5.07-4.49-.72-.76-1.33-1.45-1.76-1.94-.21-.25-.38-.45-.5-.58-.06-.07-.1-.12-.13-.16l-.04-.05c-.35-.43-.98-.5-1.41-.15-.43.35-.5.98-.15,1.41h0s1.03,1.27,2.53,2.85Z"/>
  <path class="st0" d="M66.88,62.82c-7.2-2.17-12.67-9.37-12.73-9.46-.33-.44-.96-.54-1.41-.2-.44.33-.54.96-.2,1.41.31.42,7.24,9.56,16.37,10.75-.89-.93-1.62-1.91-2.03-2.49Z"/>
  <path class="st0" d="M74.03,24.75c6.12,1.75,11.64,8.21,11.64,19.98s-6.76,17.25-12.58,18.46c-.13-.06-.28-.1-.43-.1-.27,0-.51.11-.69.28-.22.02-.45.04-.66.05l-3.17-3.71,2.53-3.02c.05,0,.1,0,.16,0,1.46-.18,2.74-.54,3.84-1.15.82-.45,1.53-1.05,2.11-1.78.87-1.09,1.44-2.47,1.8-4.11.36-1.65.51-3.58.51-5.86,0-4.14-.98-7.01-1.99-8.85-1.01-1.84-2.05-2.65-2.15-2.72-.44-.33-1.07-.24-1.41.2-.33.44-.24,1.07.19,1.4h0s.85.67,1.68,2.23c.83,1.56,1.66,4.03,1.66,7.74,0,1.95-.12,3.59-.36,4.94-.18,1.01-.44,1.86-.77,2.56-.49,1.05-1.11,1.77-1.96,2.31-.1.06-.2.12-.31.18v-1.05c0-.42-.27-.8-.66-.94-.4-.14-.84-.02-1.11.3l-5.85,6.98c-.32.38-.31.93,0,1.3l5.85,6.83c.27.32.72.44,1.11.29.4-.15.66-.52.66-.94v-1.44c6.55-1.47,14.01-7.94,14.01-20.39,0-14.11-7.47-21.3-15.14-22.34.41.59.92,1.4,1.49,2.36Z"/>
  <path class="st0" d="M45.01,23.35h11.7c2.46,0,4.45-1.99,4.45-4.45v-.17c0-2.42-1.93-4.38-4.34-4.44-.28-1.09-.87-2.05-1.67-2.79-1.02-.94-2.38-1.51-3.87-1.51h0c-1.38,0-2.71.31-3.77,1.05-.53.37-.99.84-1.33,1.42-.18.31-.32.64-.43,1-.1,0-.21-.01-.3-.01-.92,0-1.72.16-2.39.48-.5.24-.93.56-1.27.94-.51.57-.81,1.23-.99,1.9-.18.66-.23,1.33-.23,1.96v.17c0,2.46,1.99,4.45,4.45,4.45ZM42.57,18.74c0-.45.04-.9.13-1.29.07-.3.16-.57.29-.8.19-.35.43-.61.79-.82.36-.2.88-.35,1.66-.35.29,0,.62.02.98.07.27.04.55-.04.76-.21.22-.17.35-.42.37-.7.04-.47.17-.84.35-1.15.27-.46.69-.82,1.26-1.08.57-.26,1.3-.4,2.11-.4h0c.97,0,1.85.37,2.51.98.66.61,1.1,1.45,1.19,2.4.05.52.48.91,1,.91h.73c.68,0,1.28.27,1.72.71.44.44.71,1.05.71,1.72v.17c0,.68-.27,1.28-.71,1.72-.44.44-1.05.71-1.72.71h-11.7c-.68,0-1.28-.27-1.72-.71-.44-.44-.71-1.05-.71-1.72v-.17Z"/>
  <path class="st0" d="M51.42,61.1l-2.46,7.31c-.13.39.08.82.47.95.39.13.82-.08.95-.47l2.46-7.31c.13-.39-.08-.82-.47-.95-.39-.13-.82.08-.95.47Z"/>
  <path class="st0" d="M47.68,62.04c-.3-.28-.78-.27-1.07.03h0s-2.21,2.36-2.21,2.36c-.26.28-.27.71-.03,1l2.26,2.69c.27.32.74.36,1.06.09.32-.27.36-.74.09-1.06l-1.83-2.18,1.75-1.87c.28-.3.27-.78-.03-1.07Z"/>
  <path class="st0" d="M54.23,68.21c.32.27.79.23,1.06-.09l2.26-2.69c.25-.29.23-.72-.03-1l-2.21-2.36c-.28-.3-.76-.32-1.07-.03-.3.28-.32.76-.03,1.07h0s1.75,1.87,1.75,1.87l-1.83,2.18c-.27.32-.23.79.09,1.06Z"/>
  <path class="st0" d="M24.69,80.01c-.86-.44-1.85-.66-2.96-.66h-4.44v10.53h4.44c1.11,0,2.1-.22,2.96-.66s1.53-1.06,2.01-1.86c.48-.8.72-1.71.72-2.75s-.24-1.95-.72-2.75c-.48-.8-1.15-1.42-2.01-1.86ZM25.38,86.68c-.35.6-.85,1.06-1.5,1.39-.65.33-1.4.5-2.25.5h-2.84v-7.92h2.84c.85,0,1.6.17,2.25.5.65.33,1.15.8,1.5,1.39.35.6.53,1.29.53,2.07s-.18,1.47-.53,2.07Z"/>
  <path class="st0" d="M60.22,79.92c-.85-.47-1.81-.7-2.86-.7s-2.02.23-2.87.7c-.85.47-1.52,1.11-2.01,1.93-.49.82-.73,1.74-.73,2.75s.24,1.93.73,2.75c.49.82,1.16,1.47,2.01,1.93.85.47,1.81.7,2.87.7s2.01-.23,2.86-.7c.85-.47,1.52-1.11,2-1.93.48-.82.72-1.74.72-2.76s-.24-1.94-.72-2.76c-.48-.82-1.15-1.46-2-1.93ZM60.9,86.68c-.36.62-.84,1.1-1.46,1.45-.62.35-1.31.53-2.08.53s-1.47-.18-2.1-.53c-.63-.35-1.12-.84-1.48-1.45-.36-.62-.53-1.31-.53-2.07s.18-1.45.53-2.07c.36-.62.85-1.1,1.48-1.45.63-.35,1.33-.53,2.1-.53s1.47.18,2.08.53c.62.35,1.1.84,1.46,1.45.36.62.53,1.31.53,2.07s-.18,1.45-.53,2.07Z"/>
  <polygon class="st0" points="32.08 85.17 37.36 85.17 37.36 83.89 32.08 83.89 32.08 80.65 38.01 80.65 38.01 79.34 30.57 79.34 30.57 89.88 38.22 89.88 38.22 88.57 32.08 88.57 32.08 85.17"/>
  <path class="st0" d="M73.43,80.32c-.78-.65-1.86-.98-3.22-.98h-4.11v10.53h1.51v-3.19h2.6c1.36,0,2.44-.33,3.22-.98s1.17-1.55,1.17-2.69-.39-2.04-1.17-2.69ZM72.35,84.77c-.5.41-1.23.61-2.18.61h-2.56v-4.73h2.56c.95,0,1.68.2,2.18.61.5.41.75.99.75,1.75s-.25,1.35-.75,1.75Z"/>
  <path class="st0" d="M83.21,84.55c-.48-.19-1.12-.38-1.91-.57-.61-.14-1.1-.27-1.45-.4-.36-.13-.65-.3-.9-.53s-.36-.52-.36-.88c0-.49.21-.89.64-1.2.43-.31,1.07-.47,1.92-.47.48,0,.97.07,1.48.22.5.15.97.36,1.41.64l.5-1.2c-.43-.3-.95-.53-1.55-.69-.6-.16-1.21-.24-1.84-.24-.89,0-1.64.14-2.24.41s-1.05.63-1.35,1.08-.44.96-.44,1.52c0,.67.17,1.21.52,1.6.35.4.76.69,1.25.88.49.19,1.13.38,1.92.57.63.15,1.12.29,1.47.41.35.12.64.29.87.52.24.23.35.52.35.88,0,.49-.22.89-.65,1.18s-1.08.44-1.96.44c-.66,0-1.31-.11-1.93-.34s-1.14-.52-1.54-.88l-.56,1.17c.42.39,1,.71,1.74.96.74.25,1.5.37,2.3.37.89,0,1.65-.13,2.26-.4s1.07-.63,1.37-1.08.45-.96.45-1.51c0-.66-.17-1.19-.52-1.58-.35-.39-.76-.68-1.24-.87Z"/>
  <polygon class="st0" points="45.18 88 41.39 79.34 39.77 79.34 44.4 89.88 45.89 89.88 50.51 79.34 49.01 79.34 45.18 88"/>
</svg>