<?xml version="1.0" encoding="UTF-8"?>
<svg id="Layer_1" xmlns="http://www.w3.org/2000/svg" version="1.1" viewBox="0 0 100 100">
  <!-- Generator: Adobe Illustrator 30.0.0, SVG Export Plug-In . SVG Version: 2.1.1 Build 123)  -->
  <defs>
    <style>
      .st0 {
        fill: #0054b9;
      }
    </style>
  </defs>
  <path class="st0" d="M32.03,71.37h4.28l-1.41-1.41h-2.87c-4.83,0-8.75-3.93-8.75-8.75V20.16c0-1.23.26-2.41.72-3.48-.13-.48-.2-.98-.2-1.49,0-.38.04-.76.11-1.12-1.28,1.7-2.04,3.8-2.04,6.09v41.04c0,5.6,4.56,10.16,10.16,10.16Z"/>
  <path class="st0" d="M77.93,20.16v41.04c0,4.83-3.93,8.75-8.75,8.75h-30.37l-1.41,1.41h31.78c5.6,0,10.16-4.56,10.16-10.16V20.16c0-1.71-.43-3.32-1.18-4.73.04.28.07.57.07.88,0,.81-.16,1.6-.45,2.33.09.5.14,1,.14,1.52Z"/>
  <path class="st0" d="M33.99,11.41h31.28c.9-.66,2.06-1.17,3.48-1.41h-36.58c.7.35,1.32.83,1.82,1.41Z"/>
  <path class="st0" d="M29.6,19.59c2.43,0,4.39-1.97,4.39-4.39,0-2.43-1.97-4.39-4.39-4.39-2.43,0-4.39,1.97-4.39,4.39,0,2.43,1.97,4.39,4.39,4.39ZM27.29,12.89c.59-.59,1.4-.96,2.31-.96.9,0,1.72.36,2.31.96.59.59.96,1.4.96,2.31,0,.9-.36,1.72-.96,2.31-.59.59-1.4.96-2.31.96-.9,0-1.72-.36-2.31-.96-.59-.59-.96-1.4-.96-2.31,0-.9.36-1.72.96-2.31Z"/>
  <path class="st0" d="M29.82,66.55c1.03,0,1.98-.35,2.74-.93l4.29,4.29.8-.8-4.28-4.28c.62-.78.99-1.76.99-2.82,0-2.51-2.03-4.54-4.54-4.54-2.51,0-4.54,2.03-4.54,4.54,0,2.51,2.03,4.54,4.54,4.54ZM27.41,59.6c.62-.62,1.47-1,2.41-1,.94,0,1.79.38,2.41,1,.62.62,1,1.47,1,2.41,0,.94-.38,1.79-1,2.41-.62.62-1.47,1-2.41,1-.94,0-1.79-.38-2.41-1-.62-.62-1-1.47-1-2.41,0-.94.38-1.79,1-2.41Z"/>
  <path class="st0" d="M64.14,16.31c0,.69.18,1.3.44,1.82.39.77.95,1.33,1.42,1.7.22.17.41.3.56.4,0,.02,0,.03,0,.05,0,.49-.05,1.45-.32,2.13-.08.21-.03.45.13.6s.4.2.61.12c.89-.36,1.57-.92,2.03-1.39.21-.21.37-.4.49-.55.61.12,1.19.18,1.73.18,1.74,0,3.16-.59,4.13-1.53.97-.94,1.48-2.21,1.48-3.52,0-.8-.23-1.53-.61-2.16-.57-.94-1.46-1.66-2.43-2.15-.98-.49-2.05-.75-3.04-.76-2.11,0-3.76.56-4.89,1.49-1.13.93-1.72,2.23-1.72,3.58ZM66.57,13.61c.88-.73,2.26-1.23,4.18-1.23,1.05,0,2.34.4,3.32,1.11.49.35.9.78,1.19,1.25.29.47.45.99.45,1.58,0,1.02-.39,1.99-1.13,2.71-.74.72-1.85,1.21-3.34,1.21-.56,0-1.17-.07-1.84-.23-.23-.05-.47.04-.6.24h0s-.23.34-.62.73c-.16.16-.35.32-.56.48.06-.47.07-.89.07-1.19,0-.25,0-.4,0-.41-.01-.2-.13-.38-.31-.47h0s-.59-.32-1.11-.85c-.26-.27-.51-.59-.69-.96-.18-.37-.3-.79-.3-1.27,0-1.03.42-1.97,1.31-2.7Z"/>
  <rect class="st0" x="34.57" y="18.18" width="1.13" height="4.92" transform="translate(-4.25 31.1) rotate(-45.3)"/>
  <path class="st0" d="M37.23,34.1c-2.19.02-3.96,1.81-3.96,4v3.39c0,2.2,1.78,3.99,3.98,4,.59,4.02,3.73,7.2,7.73,7.85v2.22c0,.96.78,1.74,1.74,1.74h7.88c.96,0,1.74-.78,1.74-1.74v-2.27c3.86-.76,6.86-3.89,7.43-7.81,2.2-.02,3.98-1.8,3.98-4v-3.39c0-2.2-1.77-3.98-3.96-4-.7-5.6-5.46-9.94-11.25-9.94h-4.05c-5.79,0-10.56,4.34-11.25,9.94ZM37.14,44.36c-.74-.03-1.41-.34-1.9-.83-.52-.52-.84-1.24-.84-2.03v-3.39c0-.8.32-1.51.84-2.03.49-.49,1.16-.8,1.91-.83,0,.09-.01.18-.01.27v8.61c0,.08,0,.15.01.23ZM65.77,36.07c.52.52.84,1.24.84,2.03v3.39c0,.8-.32,1.51-.84,2.03-.49.49-1.16.8-1.9.83,0-.08.01-.15.01-.23v-8.61c0-.09-.01-.18-.01-.27.74.03,1.41.34,1.91.83ZM54.59,56.18h-7.88c-.34,0-.61-.27-.61-.61v-2.11c.13,0,.26.02.39.02h8.02c.23,0,.46-.02.69-.03v2.12c0,.34-.27.61-.61.61ZM48.48,25.29h4.05c2.82,0,5.38,1.14,7.23,2.99,1.54,1.54,2.57,3.56,2.88,5.82.03.19.05.37.07.56.02.19.02.38.03.56,0,.09.01.19.01.28v8.61c0,.08,0,.16-.01.25,0,.19-.01.38-.03.56-.02.19-.05.38-.08.56-.29,1.72-1.1,3.26-2.29,4.45-1.08,1.08-2.46,1.86-4.01,2.2-.19.04-.37.07-.56.1-.41.06-.82.1-1.25.1h-8.02c-.32,0-.64-.02-.96-.06-.19-.02-.38-.05-.56-.09-1.66-.31-3.15-1.12-4.3-2.27-1.18-1.18-2-2.73-2.29-4.45-.03-.19-.06-.37-.08-.56-.02-.19-.02-.38-.03-.56,0-.08-.01-.16-.01-.25v-8.61c0-.1.01-.19.01-.28,0-.19.01-.38.03-.56.02-.19.04-.38.07-.56.31-2.26,1.35-4.28,2.88-5.82,1.85-1.85,4.4-2.99,7.23-2.99Z"/>
  <path class="st0" d="M51.16,22.35v-3.41c.87-.25,1.51-1.04,1.51-1.99,0-1.14-.93-2.07-2.07-2.07s-2.07.93-2.07,2.07c0,.95.64,1.74,1.51,1.99v3.41h1.13ZM49.65,16.96c0-.52.42-.94.94-.94s.94.42.94.94-.42.94-.94.94-.94-.42-.94-.94Z"/>
  <path class="st0" d="M57.67,23.82l.94-1.95c.71.15,1.47-.2,1.8-.88.39-.81.05-1.78-.76-2.17-.81-.39-1.78-.05-2.17.76-.33.69-.13,1.49.43,1.95l-.94,1.95.7.34ZM58.27,19.96c.18-.37.62-.52.99-.35.37.18.52.62.35.99-.18.37-.62.52-.99.35s-.52-.62-.35-.99Z"/>
  <path class="st0" d="M43.69,19.58c-.39-.81-1.36-1.15-2.17-.76-.81.39-1.15,1.36-.76,2.17.33.69,1.08,1.03,1.8.88l.94,1.95.7-.34-.94-1.95c.56-.47.76-1.27.43-1.95ZM42.55,20.95c-.37.18-.81.02-.99-.35-.18-.37-.02-.81.35-.99s.81-.02.99.35c.18.37.02.81-.35.99Z"/>
  <path class="st0" d="M50.03,58.31v3.41c-.87.25-1.51,1.04-1.51,1.99,0,1.14.93,2.07,2.07,2.07s2.07-.93,2.07-2.07c0-.95-.64-1.74-1.51-1.99v-3.41h-1.13ZM51.54,63.7c0,.52-.42.94-.94.94s-.94-.42-.94-.94.42-.94.94-.94.94.42.94.94Z"/>
  <path class="st0" d="M57.48,61.09c.39.81,1.36,1.15,2.17.76.81-.39,1.15-1.36.76-2.17-.33-.69-1.08-1.03-1.8-.88l-.94-1.95-.7.34.94,1.95c-.56.47-.76,1.27-.43,1.95ZM58.62,59.71c.37-.18.81-.02.99.35.18.37.02.81-.35.99-.37.18-.81.02-.99-.35-.18-.37-.02-.81.35-.99Z"/>
  <path class="st0" d="M43.49,56.85l-.94,1.95c-.71-.15-1.47.2-1.8.88-.39.81-.05,1.78.76,2.17.81.39,1.78.05,2.17-.76.33-.69.13-1.49-.43-1.95l.94-1.95-.7-.34ZM42.89,60.7c-.18.37-.62.52-.99.35s-.52-.62-.35-.99c.18-.37.62-.52.99-.35s.52.62.35.99Z"/>
  <path class="st0" d="M25.72,41.95c.95,0,1.74-.64,1.99-1.51h4.06v-1.13h-4.06c-.25-.87-1.04-1.51-1.99-1.51-1.14,0-2.07.93-2.07,2.07s.93,2.07,2.07,2.07ZM25.72,38.93c.52,0,.94.42.94.94s-.42.94-.94.94-.94-.42-.94-.94.42-.94.94-.94Z"/>
  <path class="st0" d="M26.54,32.87c-.42.83-.09,1.85.74,2.27.69.35,1.5.18,2-.36l2.95,1.5.42-.82-2.95-1.5c.14-.72-.2-1.48-.89-1.83-.83-.42-1.85-.09-2.27.74ZM28.74,33.99c-.19.38-.66.53-1.04.34-.38-.19-.53-.66-.34-1.04.19-.38.66-.53,1.04-.34.38.19.53.66.34,1.04Z"/>
  <path class="st0" d="M31.78,26.84c-.93-.68-2.24-.48-2.92.45-.68.93-.48,2.24.45,2.92.77.56,1.79.51,2.51-.05l3.3,2.41.67-.92-3.3-2.41c.31-.85.05-1.85-.72-2.41ZM31.32,29.09c-.31.42-.91.52-1.33.21s-.52-.91-.21-1.33.91-.52,1.33-.21.52.91.21,1.33Z"/>
  <path class="st0" d="M27.28,44.69c-.83.42-1.16,1.44-.74,2.27.42.83,1.44,1.16,2.27.74.69-.35,1.03-1.11.89-1.83l2.95-1.5-.42-.82-2.95,1.5c-.5-.54-1.31-.71-2-.36ZM28.4,46.89c-.38.19-.84.04-1.04-.34-.19-.38-.04-.84.34-1.04.38-.19.84-.04,1.04.34.19.38.04.84-.34,1.04Z"/>
  <path class="st0" d="M35.13,47.26l-3.3,2.41c-.72-.56-1.74-.61-2.51-.05-.93.68-1.13,1.99-.45,2.92s1.99,1.13,2.92.45c.77-.56,1.03-1.55.72-2.41l3.3-2.41-.67-.92ZM31.11,52.08c-.42.31-1.02.22-1.33-.21s-.22-1.02.21-1.33,1.02-.22,1.33.21.22,1.02-.21,1.33Z"/>
  <path class="st0" d="M73.7,39.31h-4.06v1.13h4.06c.25.87,1.04,1.51,1.99,1.51,1.14,0,2.07-.93,2.07-2.07s-.93-2.07-2.07-2.07c-.95,0-1.74.64-1.99,1.51ZM76.63,39.87c0,.52-.42.94-.94.94s-.94-.42-.94-.94.42-.94.94-.94.94.42.94.94Z"/>
  <path class="st0" d="M74.13,35.15c.83-.42,1.16-1.44.74-2.27-.42-.83-1.44-1.16-2.27-.74-.69.35-1.03,1.11-.89,1.83l-2.95,1.5.42.82,2.95-1.5c.5.54,1.31.71,2,.36ZM73.01,32.95c.38-.19.84-.04,1.04.34.19.38.04.84-.34,1.04-.38.19-.84.04-1.04-.34s-.04-.84.34-1.04Z"/>
  <path class="st0" d="M66.28,32.58l3.3-2.41c.72.56,1.74.61,2.51.05.93-.68,1.13-1.99.45-2.92-.68-.93-1.99-1.13-2.92-.45-.77.56-1.03,1.55-.72,2.41l-3.3,2.41.67.92ZM70.3,27.76c.42-.31,1.02-.22,1.33.21s.22,1.02-.21,1.33-1.02.22-1.33-.21-.22-1.02.21-1.33Z"/>
  <path class="st0" d="M74.13,44.69c-.69-.35-1.5-.18-2,.36l-2.95-1.5-.42.82,2.95,1.5c-.14.72.2,1.48.89,1.83.83.42,1.85.09,2.27-.74.42-.83.09-1.85-.74-2.27ZM74.05,46.55c-.19.38-.66.53-1.04.34s-.53-.66-.34-1.04c.19-.38.66-.53,1.04-.34.38.19.53.66.34,1.04Z"/>
  <path class="st0" d="M69.63,53c.93.68,2.24.48,2.92-.45.68-.93.48-2.24-.45-2.92-.77-.56-1.79-.51-2.51.05l-3.3-2.41-.67.92,3.3,2.41c-.31.85-.05,1.85.72,2.41ZM70.09,50.75c.31-.42.91-.52,1.33-.21s.52.91.21,1.33-.91.52-1.33.21-.52-.91-.21-1.33Z"/>
  <path class="st0" d="M45.28,40.6l-1.29,1.18h-1.28c-.17-.4-.57-.68-1.04-.68-.62,0-1.13.51-1.13,1.13,0,.62.51,1.13,1.13,1.13.58,0,1.06-.44,1.12-1.01h1.42l1.29-1.18h1.53v.4c0,.49.4.89.89.89h.59v3.63c-.49.13-.85.56-.85,1.09,0,.62.51,1.13,1.13,1.13.62,0,1.13-.51,1.13-1.13,0-.53-.36-.96-.85-1.09v-3.63h1.28v2.61h.56v-2.61h1.27v3.63c-.49.13-.85.56-.85,1.09,0,.62.51,1.13,1.13,1.13.62,0,1.13-.51,1.13-1.13,0-.53-.36-.96-.85-1.09v-3.63h.6c.49,0,.89-.4.89-.89v-.4h1.52l1.29,1.18h1.42c.06.57.53,1.01,1.12,1.01.62,0,1.13-.51,1.13-1.13,0-.62-.51-1.13-1.13-1.13-.46,0-.86.28-1.04.68h-1.28s-1.29-1.18-1.29-1.18h-1.74v-1.53h3.45c.13.49.56.85,1.09.85.62,0,1.13-.51,1.13-1.13,0-.62-.51-1.13-1.13-1.13-.53,0-.96.36-1.09.85h-3.45v-1.48h1.74l1.29-1.18h1.28c.17.4.57.68,1.04.68.62,0,1.13-.51,1.13-1.13,0-.06,0-.12-.02-.17-.03-.21-.13-.41-.26-.56-.21-.24-.51-.39-.85-.39-.34,0-.64.15-.85.39-.14.16-.23.35-.26.56,0,.02,0,.04,0,.06h-1.42l-1.29,1.18h-1.52s0-.14,0-.14c0-.49-.4-.89-.89-.89h-.6v-3.89c.49-.13.85-.56.85-1.09,0-.62-.51-1.13-1.13-1.13-.62,0-1.13.51-1.13,1.13,0,.53.36.96.85,1.09v3.89h-1.27v-2.86h-.56v2.86h-1.28v-3.89c.49-.13.85-.56.85-1.09,0-.62-.51-1.13-1.13-1.13-.62,0-1.13.51-1.13,1.13,0,.53.36.96.85,1.09v3.89h-.59c-.49,0-.89.4-.89.89v.14h-1.53l-1.29-1.18h-1.42s0-.04,0-.06c-.03-.21-.13-.41-.26-.56-.21-.24-.51-.39-.85-.39-.34,0-.64.15-.85.39-.14.16-.23.35-.26.56,0,.06-.02.11-.02.17,0,.62.51,1.13,1.13,1.13.46,0,.86-.28,1.04-.68h1.28l1.29,1.18h1.75v1.48h-3.46c-.13-.49-.56-.85-1.09-.85-.62,0-1.13.51-1.13,1.13,0,.62.51,1.13,1.13,1.13.53,0,.96-.36,1.09-.85h3.46v1.53h-1.75ZM41.67,42.79c-.31,0-.56-.25-.56-.56,0-.31.25-.56.56-.56.31,0,.56.25.56.56,0,.31-.25.56-.56.56ZM59.59,41.66c.31,0,.56.25.56.56,0,.31-.25.56-.56.56-.31,0-.56-.25-.56-.56,0-.31.25-.56.56-.56ZM58.78,38.22c.31,0,.56.25.56.56,0,.31-.25.56-.56.56-.31,0-.56-.25-.56-.56,0-.31.25-.56.56-.56ZM59.06,35.23c.07-.23.28-.39.53-.39.25,0,.46.17.53.39.02.05.03.11.03.17,0,.31-.25.56-.56.56-.31,0-.56-.25-.56-.56,0-.06.02-.12.03-.17ZM49.35,47.18c0,.31-.25.56-.56.56-.31,0-.56-.25-.56-.56,0-.31.25-.56.56-.56.31,0,.56.25.56.56ZM53.04,47.18c0,.31-.25.56-.56.56-.31,0-.56-.25-.56-.56,0-.31.25-.56.56-.56.31,0,.56.25.56.56ZM51.91,30.45c0-.31.25-.56.56-.56.31,0,.56.25.56.56,0,.31-.25.56-.56.56-.31,0-.56-.25-.56-.56ZM48.23,30.45c0-.31.25-.56.56-.56.31,0,.56.25.56.56,0,.31-.25.56-.56.56-.31,0-.56-.25-.56-.56ZM47.59,36.32c0-.18.15-.32.33-.33h5.44c.18,0,.32.15.33.33v5.24c0,.18-.15.32-.33.33h-5.44c-.18,0-.32-.15-.33-.33v-5.24ZM41.67,35.97c-.31,0-.56-.25-.56-.56,0-.06.02-.12.03-.17.07-.23.28-.39.53-.39.25,0,.46.17.53.39.02.05.03.11.03.17,0,.31-.25.56-.56.56ZM42.48,39.35c-.31,0-.56-.25-.56-.56,0-.31.25-.56.56-.56.31,0,.56.25.56.56,0,.31-.25.56-.56.56Z"/>
  <path class="st0" d="M44.25,31.86s.04,0,.06,0l2.17,2.25.36.37.39-.37.02-.02-2.35-2.43c.29-.2.48-.54.48-.92,0-.62-.51-1.13-1.13-1.13-.62,0-1.13.51-1.13,1.13,0,.62.51,1.13,1.13,1.13ZM44.25,30.16c.31,0,.56.25.56.56,0,.31-.25.56-.56.56-.31,0-.56-.25-.56-.56,0-.31.25-.56.56-.56Z"/>
  <path class="st0" d="M54.18,34.1l.39.37.36-.37,2.17-2.25s.04,0,.06,0c.62,0,1.13-.51,1.13-1.13,0-.62-.51-1.13-1.13-1.13-.62,0-1.13.51-1.13,1.13,0,.38.19.72.48.92l-2.35,2.43.02.02ZM57.16,30.16c.31,0,.56.25.56.56,0,.31-.25.56-.56.56-.31,0-.56-.25-.56-.56,0-.31.25-.56.56-.56Z"/>
  <path class="st0" d="M45.67,44.37l-.55.56-.55.56-.27.28s-.04,0-.06,0c-.62,0-1.13.51-1.13,1.13,0,.62.51,1.13,1.13,1.13.62,0,1.13-.51,1.13-1.13,0-.38-.19-.72-.48-.92l.47-.48.55-.56.55-.56.79-.82-.41-.39-1.17,1.21ZM44.25,47.47c-.31,0-.56-.25-.56-.56,0-.31.25-.56.56-.56.31,0,.56.25.56.56,0,.31-.25.56-.56.56Z"/>
  <path class="st0" d="M57.16,45.77s-.04,0-.06,0l-.27-.28-.55-.56-.55-.56-1.17-1.21-.41.39.79.82.55.56.55.56.47.48c-.29.2-.48.54-.48.92,0,.62.51,1.13,1.13,1.13.62,0,1.13-.51,1.13-1.13,0-.62-.51-1.13-1.13-1.13ZM57.16,47.47c-.31,0-.56-.25-.56-.56,0-.31.25-.56.56-.56.31,0,.56.25.56.56,0,.31-.25.56-.56.56Z"/>
  <rect class="st0" x="49.03" y="39.62" width=".79" height=".87"/>
  <rect class="st0" x="51.45" y="39.62" width=".79" height=".87"/>
  <rect class="st0" x="49.03" y="37.4" width=".79" height=".87"/>
  <rect class="st0" x="51.45" y="37.4" width=".79" height=".87"/>
  <path class="st0" d="M18.37,87.64h4.79l.99,2.25h1.35l-4.1-9.02h-1.28l-4.08,9.02h1.33l.99-2.25ZM20.77,82.19l1.94,4.42h-3.89l1.95-4.42Z"/>
  <polygon class="st0" points="63.77 88.78 58.51 88.78 58.51 85.86 63.04 85.86 63.04 84.77 58.51 84.77 58.51 82 63.59 82 63.59 80.88 57.23 80.88 57.23 89.9 63.77 89.9 63.77 88.78"/>
  <path class="st0" d="M48.85,82.37c.55-.3,1.16-.44,1.85-.44,1.02,0,1.89.35,2.62,1.04l.8-.8c-.41-.45-.91-.8-1.5-1.04-.59-.24-1.24-.35-1.96-.35-.92,0-1.75.2-2.48.59-.73.4-1.31.94-1.73,1.65-.42.7-.62,1.49-.62,2.37s.21,1.66.62,2.36c.42.7.99,1.25,1.72,1.65.73.4,1.55.6,2.46.6.64,0,1.26-.1,1.86-.3.59-.2,1.11-.48,1.56-.85v-3.52h-1.24v2.94c-.6.39-1.31.58-2.11.58-.68,0-1.29-.15-1.84-.45-.55-.3-.97-.71-1.28-1.24s-.46-1.12-.46-1.77.15-1.26.46-1.78c.31-.53.74-.94,1.28-1.24Z"/>
  <rect class="st0" x="27.59" y="80.88" width="1.29" height="9.02"/>
  <polygon class="st0" points="67.65 80.88 66.59 80.88 66.59 89.9 67.88 89.9 67.88 83.17 73.29 89.9 74.35 89.9 74.35 80.88 73.06 80.88 73.06 87.6 67.65 80.88"/>
  <polygon class="st0" points="76.48 82 79.58 82 79.58 89.9 80.85 89.9 80.85 82 83.94 82 83.94 80.88 76.48 80.88 76.48 82"/>
  <path class="st0" d="M43.25,89.9h1.35l-4.1-9.02h-1.28l-4.08,9.02h1.33l.99-2.25h4.79l.99,2.25ZM37.92,86.61l1.95-4.42,1.94,4.42h-3.89Z"/>
  <path class="st0" d="M71.28,61.06c-.05-.31-.17-.6-.34-.87h0c-.15-.24-.35-.44-.58-.62-.28-.21-.58-.35-.91-.42h0c-.33-.07-.64-.08-.97-.01-.26.05-.51.15-.76.3-.32.19-.59.45-.78.76h0c-.16.25-.27.52-.33.8h0c-.03.16-.05.32-.05.47,0,.2.03.41.1.65.08.27.19.5.33.71h0c.19.27.43.49.73.67h0c.29.17.61.28.96.32h.06c.06.02.13.02.19.02.17,0,.35-.02.55-.07h0c.32-.08.61-.21.87-.41h0c.21-.16.38-.33.52-.53h0c.21-.29.34-.63.4-.99h0c.02-.12.04-.24.04-.37,0-.14-.02-.27-.04-.41h0ZM70.72,61.74h0c-.04.28-.14.53-.3.76h0c-.1.15-.24.28-.4.4h0c-.2.15-.42.26-.66.31h0c-.2.05-.37.07-.54.04h-.08c-.26-.04-.51-.12-.73-.25h0c-.23-.14-.41-.31-.56-.51h0c-.11-.15-.19-.34-.25-.54-.05-.19-.08-.35-.08-.5,0-.12.01-.24.04-.36h0c.04-.21.13-.42.25-.61h0c.15-.24.35-.43.6-.58.19-.11.38-.19.58-.23.26-.05.48-.05.74.01h0c.25.05.48.16.69.32.18.13.32.29.44.47h0c.13.2.21.42.26.66h0c.02.1.03.2.03.31,0,.1-.02.19-.03.28Z"/>
  <path class="st0" d="M74.86,62.94c.16,0,.28-.13.28-.28v-2.32c0-.16-.13-.28-.28-.28h-1.39c-.09-.28-.2-.55-.34-.81l.94-1c.05-.05.08-.13.08-.2,0-.07-.03-.15-.09-.2l-1.69-1.59c-.05-.05-.13-.09-.2-.08-.07,0-.15.03-.2.09l-.9.95c-.19-.1-.39-.18-.6-.25v-1.3c0-.16-.13-.28-.28-.28h-2.32c-.16,0-.28.13-.28.28v1.24c-.3.09-.59.21-.86.35l-.88-.85c-.11-.11-.29-.1-.4,0l-1.61,1.67c-.05.05-.08.13-.08.2,0,.07.03.15.09.2l.86.83c-.12.23-.21.48-.29.73h-1.2c-.16,0-.28.13-.28.28v2.32c0,.16.13.28.28.28h1.22c.1.32.24.62.41.91l-.85.9c-.11.11-.1.29.01.4l1.69,1.59c.11.11.29.1.4-.01l.89-.95c.19.09.4.16.6.22v1.31c0,.16.13.28.28.28h2.32c.16,0,.28-.13.28-.28v-1.37c.26-.09.5-.2.75-.33l1,.96c.11.11.29.1.4,0l1.61-1.67c.05-.05.08-.13.08-.2,0-.07-.03-.15-.09-.2l-1.01-.98c.09-.19.17-.38.23-.59h1.41ZM72.97,62.58c-.09.31-.2.61-.35.87-.06.11-.04.25.05.34l.96.93-1.22,1.26-.95-.92c-.09-.09-.23-.11-.34-.04-.32.19-.65.34-1,.45-.12.04-.2.15-.2.27v1.3h-1.76v-1.25c0-.13-.09-.24-.21-.27-.31-.08-.61-.19-.89-.33-.11-.06-.25-.03-.33.06l-.84.89-1.28-1.2.8-.86c.09-.09.1-.24.03-.35-.23-.35-.4-.74-.52-1.15-.03-.12-.14-.21-.27-.21h-1.15v-1.76h1.13c.13,0,.24-.09.27-.21.09-.36.23-.69.4-1,.06-.11.04-.25-.05-.34l-.81-.78,1.22-1.26.83.8c.09.09.23.1.34.04.35-.2.72-.36,1.11-.45.13-.03.21-.14.21-.27v-1.17h1.76v1.22c0,.13.08.24.2.27.31.09.6.21.88.37.11.06.26.04.34-.05l.85-.91,1.28,1.2-.89.94c-.09.09-.1.23-.04.34.2.33.34.69.44,1.07.03.12.14.21.27.21h1.32v1.76h-1.34c-.13,0-.24.08-.27.21Z"/>
</svg>