<?xml version="1.0" encoding="UTF-8"?>
<svg id="Layer_1" xmlns="http://www.w3.org/2000/svg" version="1.1" viewBox="0 0 100 100">
  <!-- Generator: Adobe Illustrator 30.0.0, SVG Export Plug-In . SVG Version: 2.1.1 Build 123)  -->
  <defs>
    <style>
      .st0 {
        fill: #0054b9;
      }
    </style>
  </defs>
  <path class="st0" d="M40.64,89.88h1.58l1.18-2.68h5.7l1.18,2.68h1.61l-4.87-10.73h-1.52l-4.86,10.73ZM48.56,85.97h-4.63l2.31-5.26,2.31,5.26Z"/>
  <polygon class="st0" points="38.9 88.54 32.65 88.54 32.65 85.08 38.03 85.08 38.03 83.78 32.65 83.78 32.65 80.48 38.69 80.48 38.69 79.15 31.12 79.15 31.12 89.88 38.9 89.88 38.9 88.54"/>
  <polygon class="st0" points="57.46 89.88 57.46 80.48 61.14 80.48 61.14 79.15 52.27 79.15 52.27 80.48 55.95 80.48 55.95 89.88 57.46 89.88"/>
  <rect class="st0" x="63.69" y="79.15" width="1.53" height="10.73"/>
  <path class="st0" d="M11.95,90c.84,0,1.61-.14,2.31-.43.7-.29,1.29-.71,1.79-1.26l-1-.97c-.82.86-1.82,1.29-3.02,1.29-.8,0-1.52-.18-2.16-.54-.64-.36-1.15-.85-1.51-1.48s-.54-1.33-.54-2.11.18-1.48.54-2.11.87-1.12,1.51-1.48c.64-.36,1.36-.54,2.16-.54,1.21,0,2.21.42,3.02,1.27l1-.97c-.49-.55-1.08-.97-1.78-1.25-.7-.28-1.46-.42-2.3-.42-1.07,0-2.04.24-2.91.71-.87.48-1.55,1.13-2.04,1.96s-.74,1.77-.74,2.81.25,1.98.74,2.81c.49.83,1.17,1.49,2.03,1.96.86.48,1.83.71,2.9.71Z"/>
  <polygon class="st0" points="73.1 87.96 69.23 79.15 67.58 79.15 72.3 89.88 73.82 89.88 78.52 79.15 76.99 79.15 73.1 87.96"/>
  <polygon class="st0" points="88.33 80.48 88.33 79.15 80.76 79.15 80.76 89.88 88.55 89.88 88.55 88.54 82.29 88.54 82.29 85.08 87.67 85.08 87.67 83.78 82.29 83.78 82.29 80.48 88.33 80.48"/>
  <path class="st0" d="M27.15,85c.41-.58.61-1.29.61-2.12,0-1.16-.4-2.08-1.2-2.74-.8-.66-1.89-1-3.28-1h-4.18v10.73h1.53v-3.26h2.65c.16,0,.39,0,.67-.03l2.31,3.3h1.67l-2.54-3.6c.76-.27,1.34-.69,1.75-1.27ZM25.46,84.68c-.51.42-1.25.63-2.22.63h-2.61v-4.83h2.61c.97,0,1.71.21,2.22.62.51.41.77,1.01.77,1.79s-.26,1.37-.77,1.79Z"/>
  <rect class="st0" x="45.52" y="60.27" width="3.35" height="1.74"/>
  <path class="st0" d="M17.25,40.68c3,4.11,3.8,6.76,3.8,7.68v4.3h17.1v-4.3c0-.92.8-3.57,3.8-7.68.47-.64.94-1.24,1.39-1.81,2.3-2.93,4.28-5.46,4.28-10.97,0-5.21-2.99-12.23-9.28-15.73h26.4c7.29,0,11.86,2.81,13.59,8.34l2.07-.65c-2.02-6.45-7.44-9.87-15.67-9.87H29.6c-12.29,0-18.02,10.68-18.02,17.9,0,5.51,1.98,8.04,4.28,10.97.45.57.92,1.17,1.39,1.81ZM30.98,37.49v13h-2.67v-13c0-.23,0-.5,0-.8.39.02.8.03,1.22.03h0s.08,0,.08,0h.16s0,0,0,0c.42,0,.83,0,1.22-.03,0,.3,0,.57,0,.8ZM29.6,12.17c11.86,0,15.85,10.8,15.85,15.73s-1.6,6.8-3.82,9.63c-.47.59-.95,1.21-1.43,1.87-2.6,3.56-4.21,6.99-4.21,8.96v2.13h-3.14v-13c0-.31,0-.64.01-.97,2.54-.35,4.28-1.16,5.58-2.54.96-1.02,1.22-2.37.69-3.6-.56-1.29-1.88-2.15-3.29-2.15-3.58,0-4.52,3.66-4.77,6.6-.45.02-.92.04-1.42.04-.5,0-.98-.01-1.42-.04-.25-2.94-1.19-6.6-4.77-6.6-1.41,0-2.73.87-3.29,2.15-.53,1.23-.28,2.58.69,3.6,1.3,1.38,3.05,2.2,5.58,2.54,0,.33.01.65.01.97v13h-3.22v-2.13c0-1.96-1.62-5.4-4.22-8.96-.49-.67-.97-1.28-1.43-1.87-2.22-2.83-3.82-4.87-3.82-9.62s3.99-15.73,15.85-15.73ZM32.96,34.62c.25-2.39.95-4.54,2.87-4.54.68,0,1.31.41,1.58,1.03.14.32.27.94-.34,1.59-.93.99-2.23,1.61-4.11,1.92ZM26.32,34.62c-1.88-.31-3.18-.93-4.11-1.92-.61-.65-.47-1.27-.34-1.59.27-.62.9-1.03,1.58-1.03,1.92,0,2.62,2.15,2.87,4.54Z"/>
  <path class="st0" d="M33.16,16.98c.23.06,5.72,1.63,7.44,7.54.12.41.49.67.89.67.09,0,.17-.01.26-.04.49-.14.78-.66.63-1.15-2.03-6.94-8.47-8.74-8.75-8.81-.49-.13-1,.16-1.14.66-.13.5.16,1.01.65,1.14Z"/>
  <path class="st0" d="M29.62,16.89c.59,0,1.07-.48,1.07-1.07s-.48-1.07-1.07-1.07-1.07.48-1.07,1.07.48,1.07,1.07,1.07Z"/>
  <path class="st0" d="M29.51,65.98c2.81,0,5.13-2.16,5.37-4.97,1.55-.1,2.79-1.38,2.79-2.95v-2.43c0-.6-.49-1.09-1.09-1.09h-14.26c-.6,0-1.09.49-1.09,1.09v2.43c0,1.57,1.23,2.85,2.78,2.95.22,2.77,2.54,4.97,5.37,4.97h.12ZM24.27,58.86h-.07c-.44,0-.8-.36-.8-.8v-1.34h12.09v1.34c0,.44-.36.8-.8.8h-10.43ZM26.21,61.04h6.47c-.22,1.56-1.55,2.78-3.18,2.78h-.12c-1.61,0-2.93-1.19-3.17-2.78Z"/>
  <path class="st0" d="M50.05,53.29h14.08v-1.74h-14.08c-1.85,0-4.09-2.22-4.36-4.31-.04-.31-.24-.57-.52-.69-.28-.12-.61-.08-.86.1-.1.07-2.33,1.76-2.33,5.13s3.54,6.06,8.06,6.06h13.12c.67,0,1.22.55,1.22,1.22s-.55,1.22-1.22,1.22h-11.12v1.74h11.12c1.63,0,2.95-1.32,2.95-2.95s-1.32-2.95-2.95-2.95h-13.12c-3.49,0-6.32-1.94-6.32-4.32,0-1.16.35-2.05.72-2.66,1.02,2.3,3.39,4.17,5.61,4.17Z"/>
  <path class="st0" d="M80.45,56.5c-.32-1.42-1.04-2.4-1.04-2.4-3.45,9.35-8.57,10.14-13.51,10.14h-29.55c-.87,1.11-2.38,1.86-2.38,1.86h31.93c5.4,0,10.86-1.21,14.55-9.6Z"/>
  <path class="st0" d="M92.65,41.98l-3.92-1.76c-.85-.38-1.86-.05-2.32.76-4.3-3.38-6.86-10.1-7.56-12.15l13.02-7.87c.18-.11.3-.28.35-.48.05-.2.02-.41-.09-.59l-1.54-2.51c-.21-.35-.66-.47-1.02-.28l-14.27,7.37c-1.42-.48-7.56-2.52-9.29-2.52-1.84,0-3.76,1.93-6.43,4.61-.42.43-.86.87-1.32,1.32-2.63,2.6-2.73,3.62-2.57,4.77.02.13.04.26.04.4,0,.9-.04.95-.36,1.29-.17.18-.27.38-.33.59l-2.41,1.24c-.93-.09-4.06-.23-5.26,1.82-.17.29-.33.57-.48.85-.87,1.56-1.56,2.79-3.27,3.62-.27.13-.44.4-.44.7s.17.57.43.7c.12.06,2.9,1.42,5.4,1.42s5.19-1.97,6.2-4.47c.31-.06.76-.16,1.27-.3,0,.12-.03.28-.05.45-.1.73-.23,1.74.36,2.42.23.26.65.57,1.41.57.32,0,.65-.07.97-.18.41.86,1.17,1.92,2.43,1.92,1.62,0,2.65-3.3,3.26-6.34.08.03.16.05.24.08,1.22.41,2.36.79,2.71,1.14.31.31.89.81,1.69,1.36.25,1.2,1.28,4.98,4.66,5.75,3.2.73,5.32,1.82,7.09,2.92l-.54,1.01c-.23.43-.28.92-.14,1.39s.46.85.89,1.08l4.03,2.14c.27.14.56.21.85.21.18,0,.37-.03.55-.09.47-.15.85-.47,1.07-.91l5.58-10.95c.22-.44.26-.96.1-1.43-.16-.47-.52-.85-.97-1.05ZM89.65,18.8l.75,1.23-22.08,13.35.25.42c-1.16-.23-2.18-.49-2.84-.76-.88-.36-1.74-.55-2.52-.6l26.43-13.65ZM59.36,28.98c.46-.45.9-.9,1.33-1.33,2.13-2.14,4.14-4.15,5.33-4.15,1.01,0,4.51,1.03,7.37,1.96l-4.56,2.35-1.29-.77c-.69-.41-1.54-.37-2.18.12l-8.08,6.11c0-.07,0-.15,0-.23,0-.21-.02-.41-.05-.6-.08-.59-.16-1.2,2.13-3.46ZM49.02,43.72c-1.15,0-2.43-.36-3.37-.7,1.22-.96,1.9-2.16,2.6-3.42.15-.27.3-.55.47-.83.6-1.02,2.39-1.15,3.45-1.09.36,1.11,1.13,2.1,1.58,2.62-.8,1.86-2.91,3.42-4.73,3.42ZM54.92,39.28c-.34-.39-.92-1.12-1.22-1.91l1.61-.83c.27.57.67,1.11.97,1.54.22.3.31.54.34.78-.64.19-1.24.34-1.7.43ZM56.7,35.82l3.42-1.77c-.21.72-.16,1.73.12,3-.49.5-1.28.93-2.13,1.28-.09-.36-.26-.75-.57-1.17-.46-.64-.71-1.06-.85-1.34ZM59.84,41.31c-.5.67-1.11,1.07-1.64,1.07-.15,0-.23-.03-.24-.04-.13-.14-.03-.9.01-1.19.04-.27.07-.52.07-.75,0-.12.02-.26.04-.4.89-.32,1.81-.75,2.56-1.28.09.78-.22,1.79-.81,2.59ZM61.55,44.12c-.43-.05-.81-.67-1.05-1.22.21-.2.41-.42.59-.67.88-1.19,1.28-2.66,1.07-3.88.42.17.83.33,1.22.47-.51,2.56-1.33,4.93-1.84,5.3ZM74.51,46.14c-1.61-.37-2.51-1.8-3.01-3.01,1.59.86,3.57,1.69,5.83,2.12l.29-1.52c-4.46-.85-7.86-3.44-8.7-4.28-.61-.61-1.74-.99-3.32-1.51-1.19-.4-2.54-.85-3.9-1.49-.28-1.42-.12-2.03,0-2.17.33-.37,1.71-.5,3.46.2,2.05.83,6.76,1.51,9.29,1.71l.12-1.55c-1.17-.09-2.82-.3-4.42-.56l7.34-4.44c.88,2.53,3.57,9.24,8.17,12.71l-3.68,6.85c-1.8-1.12-4.11-2.3-7.48-3.06ZM92.15,43.76l-5.58,10.95c-.04.09-.12.12-.16.13-.04.01-.12.03-.2-.02l-4.03-2.14c-.09-.05-.12-.12-.13-.16-.01-.04-.03-.12.02-.2l5.69-10.58c.05-.09.14-.14.24-.14l.11.02,3.92,1.76c.09.04.13.11.14.15.01.04.03.12-.01.21Z"/>
  <path class="st0" d="M85.41,50.56c-.56,0-1.02.46-1.02,1.02s.46,1.02,1.02,1.02,1.02-.46,1.02-1.02-.46-1.02-1.02-1.02Z"/>
  <path class="st0" d="M80.59,29.72c.77,0,.97,2.14.97,2.14l.97-.08s-.23-2.7,1.26-4.07l-3.2,2Z"/>
</svg>