<?xml version="1.0" encoding="UTF-8"?>
<svg id="Layer_1" xmlns="http://www.w3.org/2000/svg" version="1.1" xmlns:xlink="http://www.w3.org/1999/xlink" viewBox="0 0 208 86">
  <!-- Generator: Adobe Illustrator 30.0.0, SVG Export Plug-In . SVG Version: 2.1.1 Build 123)  -->
  <defs>
    <style>
      .st0 {
        fill: #fff;
      }

      .st1 {
        mask: url(#mask);
      }
    </style>
    <mask id="mask" x="43" y="25.14" width="122" height="38" maskUnits="userSpaceOnUse">
      <g id="mask0_68_14205">
        <path class="st0" d="M165,25.14H43v38h122V25.14Z"/>
      </g>
    </mask>
  </defs>
  <g class="st1">
    <path d="M59.43,63.07c.3.05.59.07.89.07,10.32,0,18.69-8.5,18.69-18.99s-8.36-18.99-18.69-18.99c-.3,0-.59.02-.89.07l18.64,18.92-18.64,18.92ZM57.93,59.33c.3,0,.59-.02.89-.07l-14.87-15.11,14.87-15.11c-.3-.05-.59-.07-.89-.07-8.25,0-14.93,6.79-14.93,15.18s6.68,15.18,14.93,15.18ZM111.56,56.51h2.26v-25.85h-2.26v25.85ZM98.88,56.93c5.24,0,8.99-2.91,9.85-7.75h-2.29c-.76,3.48-3.75,5.59-7.56,5.59-5.3,0-8.54-4.13-8.54-10.63s3.38-10.63,8.45-10.63c3.94,0,6.98,2.53,7.66,6.11h2.29c-.64-4.87-4.64-8.27-9.94-8.27-6.52,0-10.83,5-10.83,12.78-.02,7.88,4.2,12.78,10.93,12.78ZM146.89,34.56c.87,0,1.56-.72,1.56-1.59s-.71-1.61-1.56-1.61-1.56.72-1.56,1.59.69,1.59,1.56,1.61ZM59.1,55.43c6.14,0,11.11-5.05,11.11-11.29s-4.97-11.29-11.11-11.29c-.3,0-.59.02-.89.07l11.03,11.21-11.03,11.21c.3.07.59.1.89.1ZM58.44,51.58c.3,0,.59-.02.89-.07l-7.24-7.36,7.24-7.36c-.3-.05-.59-.07-.89-.07-4.03,0-7.31,3.33-7.31,7.43s3.28,7.43,7.31,7.43ZM122.87,56.8c2.93,0,5.33-1.52,6.29-3.78h.1v3.51h2.12v-12.68c0-3.68-2.7-6.07-6.8-6.07s-6.73,2.33-6.9,5.56h2.16c.38-2.23,2.09-3.55,4.76-3.55,2.83,0,4.54,1.56,4.54,4.27v1.67l-5.57.35c-4.38.27-6.7,2.14-6.7,5.3-.03,3.23,2.5,5.4,5.99,5.42ZM158.17,56.8c3.93,0,6.83-2.09,6.83-5.2,0-2.46-1.37-4.17-5.02-5.04l-2.8-.65c-2.32-.55-3.38-1.49-3.38-3,0-1.94,1.84-3.13,4.23-3.13,2.6,0,4.26,1.36,4.48,3.48h2.16c-.17-3.23-2.83-5.49-6.64-5.49s-6.49,2.01-6.49,5.14c0,2.39,1.56,4.17,4.74,4.94l3.03.72c2.5.59,3.42,1.49,3.42,3.03,0,2.01-1.84,3.2-4.58,3.2s-4.58-1.32-4.89-3.43h-2.22c.26,3.1,3.08,5.42,7.11,5.44ZM135.4,56.51h2.27v-11.16c0-3.26,1.65-5.35,4.31-5.35.58,0,1.14.08,1.68.28v-2.26c-.49-.12-1-.17-1.5-.17-2.22,0-3.87,1.29-4.51,3.48h-.1v-3.31h-2.12v18.49h-.03ZM145.79,56.51h2.26v-18.49h-2.26v18.49ZM123.38,54.77c-2.53,0-4.23-1.32-4.23-3.4s1.61-3.26,4.68-3.48l5.3-.35v2.01c0,2.91-2.47,5.2-5.75,5.22Z"/>
  </g>
</svg>