<?xml version="1.0" encoding="UTF-8"?>
<svg id="Layer_1" xmlns="http://www.w3.org/2000/svg" version="1.1" viewBox="0 0 208 86">
  <!-- Generator: Adobe Illustrator 30.0.0, SVG Export Plug-In . SVG Version: 2.1.1 Build 123)  -->
  <defs>
    <style>
      .st0, .st1 {
        fill: #0d2f6a;
        fill-rule: evenodd;
      }

      .st1 {
        fill-opacity: .5;
      }
    </style>
  </defs>
  <path d="M96.38,390.2c-1.24.29-1.79.49-2.83,1.07-2.51,1.39-4.19,3.66-5.04,6.85-.22.77-.25,1.21-.25,3.11,0,2.02.03,2.32.3,3.32.86,3.29,2.81,5.74,5.61,7.07,1.56.73,2.49.92,4.66.91,2.29,0,3.14-.2,4.79-1.04,2.39-1.22,3.97-3.44,4.64-6.51l.07-.32h-6.8l-.14.34c-.18.48-.77,1.06-1.31,1.31-.68.33-2,.3-2.73-.06-.63-.29-1.4-1.08-1.75-1.78-.61-1.24-.82-3.63-.43-5.13.5-1.95,1.47-3,3.06-3.3,1.23-.24,2.63.37,3.11,1.37l.23.49h6.77s-.07-.32-.07-.32c-.45-2.15-1.3-3.76-2.63-5.05-1.14-1.12-2.35-1.8-4.07-2.27-1.09-.3-3.97-.34-5.18-.06h-.01Z"/>
  <path d="M113.44,401.29v10.97h6.83v-21.93h-6.83v10.97h0Z"/>
  <path d="M125.56,401.29v10.97h6.54l.02-5.45.03-5.44,3.87,5.44,3.87,5.45h5.52v-21.93h-6.49l-.02,5.07-.03,5.07-3.47-5.05-3.47-5.04-3.19-.03-3.18-.02v10.97h0Z"/>
  <path d="M150.41,393.24v2.92h4.15c3.33,0,4.15.03,4.15.15,0,.08-1.23,3.69-2.73,8.01-1.5,4.32-2.73,7.87-2.73,7.9,0,0,1.52.03,3.39.03h3.38l2.99-8.73,2.98-8.71v-4.49h-15.59v2.92h0Z"/>
  <path d="M68.47,403.88c-1.99,8.94-3.61,16.29-3.61,16.33,0,.08,3.52-1.6,3.67-1.76.06-.06,5.88-26.02,6.14-27.38.02-.13-2.41-3.41-2.55-3.42-.03-.01-1.68,7.3-3.66,16.23h.01Z"/>
  <path d="M59.25,421.36l-4.66-20.82h-3.92l4.24,18.29,4.35,2.54h0Z"/>
  <path d="M50.18,417.38l-3.73-16.42h-3.79l3.08,14.25s4.44,2.17,4.44,2.17Z"/>
  <path d="M62.53,400.97h-3.86l2.08,9.58,2.98-1.7-1.2-7.88Z"/>
  <path d="M51.24,385.81l-1.3,1.66,7.69.04,7.69.02-.06.27c-.03.14-.2.89-.38,1.66l-.31,1.4-8.67.03-8.66.02-1.32,1.69-1.31,1.69h19.13l-.07.43c-.05.23-.2,1.03-.38,1.75l-.3,1.32h-10.51c-6.09,0-10.51.05-10.51.1s.15.79.34,1.64c.18.85.34,1.56.34,1.59s4.39.06,9.76.07l9.77.03-.96,4.32c-.51,2.37-1.27,5.87-1.7,7.76-.41,1.89-.94,4.28-1.19,5.31-.24,1.03-.44,1.91-.44,1.98,0,.13,2.96,1.62,3.03,1.54.05-.05.93-4,5.16-23.06,1.76-7.92,3.23-14.52,3.26-14.68l.06-.26h-16.92l-1.29,1.67h.05Z"/>
  <path d="M77.33,394.59c-.2.71-4.83,21.79-4.79,21.84.02.03.88-.36,1.88-.86,1.33-.67,1.84-.97,1.88-1.14,1.64-7.15,3.69-16.69,3.61-16.8-.25-.33-2.34-3.06-2.41-3.15-.06-.05-.13,0-.16.12h0Z"/>
  <g>
    <path class="st0" d="M97.48,26.86c7.06,0,11.03,4.27,11.95,9.72h-8.46c-.48-1.44-1.7-2.35-3.49-2.35-3.05,0-4.75,2.75-4.75,6.45s1.7,6.45,4.75,6.45c1.79,0,3.01-.92,3.49-2.4h8.46c-.92,5.49-4.88,9.77-11.95,9.77-7.81,0-13.26-5.8-13.26-13.82s5.45-13.82,13.26-13.82Z"/>
    <path class="st0" d="M115.84,54.07h8.46v-26.77h-8.46v26.77Z"/>
    <path class="st0" d="M155.77,54.07h-6.93l-9.77-13.39v13.39h-8.15v-26.77h7.89l8.81,12.47v-12.47h8.15v26.77Z"/>
    <path class="st0" d="M173.96,54.07h-8.5l6.98-19.58h-10.42v-7.19h19.45v5.45l-7.5,21.32Z"/>
    <path class="st1" d="M42.24,62.29l4.26,2.05,1.24.6-6.52-28.57h-4.89l5.92,25.92Z"/>
    <path class="st1" d="M31.25,57l5.49,2.65-5.31-23.28h-4.89l4.71,20.63Z"/>
    <path class="st1" d="M54.05,49.79l-3.06-13.43h-4.89l5.51,24.14,2.44-10.71Z"/>
    <path class="st0" d="M59.84,61.59l-4.77,2.29,9.11-39.92,3.3,4.13-7.64,33.49Z"/>
    <path class="st0" d="M69.38,57l-4.77,2.3,6.18-27.06,3.3,4.14-4.71,20.63Z"/>
    <path class="st0" d="M39.73,19.82l-3.3,4.14h19.27l-.94,4.14h-21.63l-3.3,4.14h23.98l-.94,4.14h-26.34l.94,4.14h24.45l-5.44,23.83,3.82,1.84,10.58-46.35h-21.16Z"/>
  </g>
</svg>