<?xml version="1.0" encoding="UTF-8"?>
<svg id="Layer_1" xmlns="http://www.w3.org/2000/svg" version="1.1" viewBox="0 0 208 86">
  <!-- Generator: Adobe Illustrator 30.0.0, SVG Export Plug-In . SVG Version: 2.1.1 Build 123)  -->
  <defs>
    <style>
      .st0 {
        fill: red;
      }
    </style>
  </defs>
  <path class="st0" d="M115.76,32.75c-1.19,0-2.19-.81-2.5-1.91h6.59l.91-1.43h-7.5c.31-1.11,1.31-1.91,2.5-1.91h4.53l.9-1.43h-5.53c-2.21,0-4.01,1.81-4.01,4.06s1.8,4.05,4.01,4.05h4.76l.9-1.43h-5.56ZM96.88,34.18h4.76l.9-1.43h-5.56c-1.44,0-2.61-1.18-2.61-2.62s1.16-2.62,2.61-2.62h4.52l.92-1.44h-5.54c-2.22,0-4.02,1.81-4.02,4.06s1.8,4.05,4.02,4.05M67.58,32.75h-4.46c-1.44,0-2.6-1.18-2.6-2.62s1.16-2.62,2.6-2.62h4.45c1.44,0,2.61,1.17,2.61,2.62s-1.16,2.62-2.61,2.62M63.02,34.18h4.67c2.22,0,4-1.81,4-4.05s-1.79-4.05-4.01-4.05h-4.66c-2.22,0-4.02,1.81-4.02,4.06s1.8,4.05,4.02,4.05h0ZM79.27,31.56c1.51,0,2.71-1.23,2.71-2.74s-1.21-2.74-2.72-2.74h-6.75v8.11h1.54v-6.67h5.11c.72,0,1.3.59,1.3,1.31s-.58,1.32-1.3,1.32h-4.35l4.61,4.05h2.24l-3.09-2.62h.7M104.79,32.75v-6.68h-1.54v7.34c0,.2.09.4.23.54.14.15.35.24.56.24h7.03l.92-1.43h-7.2ZM85.9,31.33h4.11l-2.17-3.54-3.99,6.4h-1.82l4.86-7.69c.21-.31.57-.5.95-.5s.73.18.94.49l4.87,7.7h-1.82l-.85-1.43h-4.17l-.91-1.43h0Z"/>
  <path d="M70.39,54.44l-9.04-13.54-.04-.06h-2.31v17.87h2.47v-13.6l9.04,13.54.04.06h2.31v-17.87h-2.47s0,13.6,0,13.6Z"/>
  <path d="M93.67,56.63c-.17.02-.36.02-.54.02-1.11,0-1.64-.64-1.64-1.95v-6.84h2.71v-2.06h-2.71v-3.49h-1.53l-.87,3.47-2.18.73v1.34h2.16v6.87c0,1.39.3,2.43.9,3.1.62.67,1.57,1.01,2.83,1.01.26,0,.5,0,.73-.02.24-.02.48-.05.72-.1l.1-.02v-2.15h-.14c-.16.03-.34.05-.53.09h-.01Z"/>
  <path d="M118.9,54.14c-.33.84-.82,1.52-1.46,2.03-.63.5-1.31.75-2.03.75-.85,0-1.5-.28-1.93-.82-.44-.55-.67-1.37-.67-2.41v-7.89h-2.42v7.96c0,1.67.39,2.97,1.16,3.87.79.9,1.91,1.35,3.33,1.35.93,0,1.8-.22,2.58-.65.71-.38,1.31-.91,1.81-1.57l.35,1.95h1.71v-12.91h-2.42v8.34h-.01Z"/>
  <path d="M123.66,46.9l1.25.8v11.01h2.42v-12.91h-3.67v1.1Z"/>
  <path d="M127.3,41.61h-2.9v2.23h2.9v-2.23Z"/>
  <path d="M135.93,56.63c-.17.02-.36.02-.54.02-1.11,0-1.64-.64-1.64-1.95v-6.84h2.71v-2.06h-2.71v-3.49h-1.53l-.87,3.47-2.18.73v1.34h2.16v6.87c0,1.39.3,2.43.9,3.1.62.67,1.57,1.01,2.83,1.01.26,0,.5,0,.73-.02.24-.02.48-.05.71-.1l.1-.02v-2.15h-.14c-.16.03-.34.05-.53.09h0Z"/>
  <path d="M149,51.51c0-3.96-1.8-5.97-5.36-5.97-1.84,0-3.27.57-4.27,1.69-1,1.15-1.47,2.71-1.47,4.91s.52,3.94,1.54,5.1c1.04,1.15,2.59,1.74,4.6,1.74.88,0,1.71-.08,2.45-.25.76-.16,1.38-.39,1.84-.67l.06-.04v-2.12l-.18.09c-.66.3-1.31.53-1.94.67s-1.3.21-2.01.21c-1.26,0-2.21-.31-2.83-.93-.61-.61-.97-1.59-1.08-2.9h8.65v-1.54h0ZM140.35,51.06c.08-1.1.39-1.96.91-2.54.56-.61,1.36-.93,2.38-.93,1.07,0,1.84.28,2.3.83.46.54.69,1.42.71,2.64h-6.3Z"/>
  <path d="M80.69,45.53c-1.84,0-3.27.57-4.27,1.69-1,1.15-1.47,2.71-1.47,4.91s.52,3.94,1.55,5.1c1.04,1.15,2.59,1.74,4.6,1.74.88,0,1.71-.08,2.45-.25.76-.16,1.38-.39,1.84-.67l.06-.04v-2.12l-.18.09c-.66.3-1.31.53-1.94.67-.63.14-1.3.21-2.01.21-1.26,0-2.21-.31-2.83-.93-.61-.61-.97-1.59-1.08-2.9h8.65v-1.54c0-3.96-1.8-5.97-5.36-5.97h0ZM77.4,51.06c.08-1.1.39-1.96.91-2.54.56-.61,1.36-.93,2.38-.93,1.08,0,1.84.28,2.3.83.45.54.69,1.42.71,2.64h-6.3Z"/>
  <path d="M107.48,50.96c-.68-.8-1.85-1.53-3.46-2.17l-1.85-.73c-1.15-.46-1.96-.9-2.41-1.31-.44-.4-.65-.86-.65-1.43,0-1.72,1.24-2.55,3.78-2.55,1.35,0,2.85.35,4.46,1.05l.18.08v-2.27l-.07-.04c-.6-.33-1.33-.59-2.17-.76-.84-.2-1.66-.3-2.45-.3-1.91,0-3.43.43-4.54,1.29-1.12.86-1.68,2.05-1.68,3.54,0,1.05.35,1.97,1.04,2.75.7.75,1.84,1.45,3.41,2.07l1.85.73c1.19.46,2.03.92,2.47,1.35.44.42.66.97.66,1.62,0,.9-.36,1.59-1.09,2.1-.72.51-1.76.78-3.06.78-1.57,0-3.25-.36-4.99-1.08l-.18-.07v2.27l.07.04c.41.2.91.38,1.48.54.58.16,1.21.3,1.86.39.67.1,1.32.15,1.94.15,2.02,0,3.61-.45,4.73-1.34,1.15-.91,1.73-2.2,1.73-3.81,0-1.13-.36-2.1-1.06-2.9h0Z"/>
</svg>