<?xml version="1.0" encoding="UTF-8"?>
<svg id="Layer_1" xmlns="http://www.w3.org/2000/svg" version="1.1" viewBox="0 0 208 86">
  <!-- Generator: Adobe Illustrator 30.0.0, SVG Export Plug-In . SVG Version: 2.1.1 Build 123)  -->
  <defs>
    <style>
      .st0 {
        fill: #00d639;
      }
    </style>
  </defs>
  <path class="st0" d="M72.06,21.14c5.13,0,9.3,3.62,9.4,8.65.05,1.42-.96,2.2-2.06,2.2s-1.97-.78-2.01-2.1c-.05-2.83-2.4-4.93-5.37-4.93-2.78,0-4.89,2-4.89,4.74,0,2.98,1.97,4.3,6.04,5.81,4.36,1.61,8.34,3.52,8.34,9.18,0,4.93-3.79,8.89-9.06,8.89s-9.45-3.71-9.45-8.75c0-3.13,1.49-5.32,2.92-5.32,1.25,0,2.01.83,2.01,1.95,0,.98-.81,1.42-.81,3.18,0,3.13,2.49,5.13,5.32,5.13,2.97,0,4.94-2.1,4.94-4.64,0-3.13-1.97-4.45-6.04-5.91-4.55-1.66-8.34-3.66-8.34-9.19,0-4.98,3.93-8.89,9.06-8.89Z"/>
  <path class="st0" d="M92.99,53.58c-5.18,0-9.49-4.25-9.49-9.62s4.36-9.72,9.64-9.72c5.66,0,9.64,4.3,9.64,10.16v7.13c0,1.22-.96,2.05-2.06,2.05s-2.11-.83-2.11-2.05v-6.99c0-3.86-2.16-6.5-5.56-6.5-3.02,0-5.42,2.59-5.42,5.91,0,3.08,2.35,5.72,5.32,5.72,1.1,0,1.58-.29,2.25-.29.91,0,1.87.78,1.87,1.91,0,1.51-1.77,2.29-4.07,2.29h-.01Z"/>
  <path class="st0" d="M114.58,68.14c-5.37,0-9.83-3.91-9.83-8.99,0-1.71.96-2.49,2.06-2.49s2.01.73,2.06,2.15c.05,3.18,2.54,5.52,5.66,5.52,3.31,0,5.47-2.15,5.47-4.93,0-3.18-2.4-4.49-6.47-5.81-4.75-1.56-8.77-3.71-8.77-9.67,0-5.47,4.12-9.67,9.49-9.67s9.88,4.01,9.88,9.28c0,3.22-1.29,5.72-3.07,5.72-1.2,0-2.01-.88-2.01-1.95s.96-1.61.96-3.62c0-3.37-2.59-5.62-5.71-5.62s-5.42,2.34-5.42,5.42c0,3.47,2.44,4.93,6.47,6.3,4.65,1.56,8.77,3.52,8.77,9.23,0,5.13-3.98,9.13-9.54,9.13Z"/>
  <path class="st0" d="M135.89,53.58c-5.37,0-9.78-4.3-9.78-9.67s4.27-9.67,9.54-9.67,9.35,3.76,9.35,8.55c0,1.86-1.29,2.98-3.4,2.98h-5.51c-1.1,0-1.92-.78-1.92-1.81s.81-1.76,1.92-1.76h4.12c.38,0,.67-.2.67-.59,0-1.42-1.77-3.62-5.08-3.62-3.07,0-5.56,2.69-5.56,5.91s2.54,5.86,5.71,5.86c3.64,0,4.84-2.2,6.33-2.2,1.25,0,1.92.83,1.92,1.76,0,.88-.58,1.66-2.01,2.59-1.44.93-3.6,1.66-6.28,1.66h-.02Z"/>
</svg>