<?xml version="1.0" encoding="UTF-8"?>
<svg id="Layer_1" xmlns="http://www.w3.org/2000/svg" version="1.1" viewBox="0 0 208 86">
  <!-- Generator: Adobe Illustrator 30.0.0, SVG Export Plug-In . SVG Version: 2.1.1 Build 123)  -->
  <defs>
    <style>
      .st0 {
        fill: #fff;
      }

      .st1 {
        fill: #5e8e3e;
      }

      .st2 {
        fill: #95bf47;
      }
    </style>
  </defs>
  <path class="st2" d="M68.09,32.16c-.02-.18-.19-.26-.31-.26s-2.82-.2-2.82-.2c0,0-1.87-1.82-2.1-2-.21-.2-.6-.14-.76-.1-.02,0-.41.12-1.05.32-.64-1.78-1.73-3.41-3.68-3.41h-.19c-.54-.68-1.24-1-1.81-1-4.53,0-6.71,5.51-7.39,8.32-1.77.54-3.03.9-3.17.96-.99.3-1.01.32-1.13,1.22-.1.68-2.68,20.07-2.68,20.07l20.03,3.65,10.87-2.29s-3.79-25.1-3.81-25.28h0ZM59.94,30.19c-.49.14-1.09.32-1.69.52v-.36c0-1.08-.14-1.96-.41-2.67,1.03.12,1.67,1.22,2.1,2.51ZM56.58,27.91c.27.68.45,1.64.45,2.97v.2c-1.11.34-2.28.68-3.5,1.06.68-2.53,1.98-3.77,3.05-4.23ZM55.27,26.66c.21,0,.41.08.58.2-1.46.66-3.01,2.33-3.64,5.69-.97.3-1.89.56-2.78.84.74-2.57,2.59-6.74,5.85-6.74h-.01Z"/>
  <path class="st1" d="M67.78,31.85c-.12,0-2.82-.2-2.82-.2,0,0-1.87-1.82-2.1-2-.08-.08-.19-.12-.27-.12l-1.5,30.19,10.87-2.29s-3.81-25.1-3.83-25.28c-.08-.18-.23-.26-.35-.3Z"/>
  <path class="st0" d="M57.37,37.71l-1.32,3.87s-1.19-.62-2.61-.62c-2.12,0-2.22,1.3-2.22,1.62,0,1.76,4.73,2.45,4.73,6.6,0,3.27-2.12,5.37-4.98,5.37-3.46,0-5.19-2.08-5.19-2.08l.93-2.97s1.81,1.52,3.33,1.52c1.01,0,1.42-.76,1.42-1.32,0-2.31-3.87-2.41-3.87-6.21,0-3.19,2.35-6.27,7.1-6.27,1.77-.02,2.68.5,2.68.5h0Z"/>
  <path d="M84.58,44.98c-1.09-.56-1.65-1.06-1.65-1.72,0-.84.78-1.38,2-1.38,1.42,0,2.68.56,2.68.56l.99-2.95s-.91-.68-3.58-.68c-3.73,0-6.32,2.08-6.32,5.01,0,1.66,1.21,2.93,2.82,3.83,1.32.7,1.77,1.22,1.77,1.98s-.66,1.42-1.87,1.42c-1.79,0-3.5-.9-3.5-.9l-1.05,2.95s1.56,1.02,4.2,1.02c3.83,0,6.61-1.84,6.61-5.15-.04-1.8-1.42-3.05-3.09-3.99h0ZM99.85,38.77c-1.89,0-3.38.88-4.51,2.2l-.04-.02,1.65-8.34h-4.26l-4.16,21.25h4.26l1.42-7.26c.56-2.75,2.02-4.45,3.38-4.45.97,0,1.34.64,1.34,1.54,0,.56-.04,1.28-.19,1.84l-1.61,8.32h4.26l1.67-8.58c.19-.9.31-1.98.31-2.73-.02-2.39-1.28-3.79-3.52-3.79v.02ZM113.01,38.77c-5.15,0-8.54,4.51-8.54,9.54,0,3.21,2.04,5.81,5.87,5.81,5.04,0,8.44-4.39,8.44-9.54.02-2.99-1.75-5.81-5.76-5.81h-.01ZM110.91,50.96c-1.46,0-2.06-1.2-2.06-2.73,0-2.39,1.25-6.25,3.58-6.25,1.5,0,2.02,1.28,2.02,2.51,0,2.55-1.3,6.47-3.54,6.47ZM129.7,38.77c-2.88,0-4.51,2.49-4.51,2.49h-.04l.25-2.23h-3.79c-.18,1.5-.54,3.81-.86,5.51l-2.94,15.21h4.26l1.19-6.15h.1s.89.54,2.49.54c5.02,0,8.3-5.01,8.3-10.06-.02-2.81-1.32-5.31-4.45-5.31ZM125.62,51c-1.11,0-1.77-.62-1.77-.62l.7-3.87c.49-2.61,1.89-4.31,3.38-4.31,1.32,0,1.71,1.18,1.71,2.29.02,2.69-1.63,6.51-4.01,6.51h0ZM140.22,32.82c-1.36,0-2.45,1.06-2.45,2.41,0,1.22.8,2.08,2.02,2.08h.04c1.34,0,2.47-.88,2.49-2.41.02-1.22-.82-2.08-2.1-2.08ZM134.25,53.84h4.26l2.88-14.75h-4.28M152.26,39.07h-2.96l.14-.68c.25-1.42,1.11-2.67,2.55-2.67.76,0,1.36.22,1.36.22l.82-3.27s-.72-.36-2.33-.36c-1.5,0-3.03.42-4.18,1.38-1.46,1.2-2.14,2.95-2.47,4.71l-.12.68h-2l-.64,3.15h2l-2.26,11.63h4.26l2.26-11.63h2.94l.62-3.17h0ZM162.53,39.09s-2.68,6.56-3.85,10.14h-.04c-.08-1.16-1.05-10.14-1.05-10.14h-4.49l2.57,13.51c.04.3.02.48-.1.68-.49.94-1.34,1.84-2.33,2.51-.8.56-1.71.94-2.43,1.18l1.19,3.53c.86-.18,2.68-.88,4.18-2.27,1.94-1.76,3.75-4.51,5.6-8.24l5.21-10.92h-4.47v.02h0Z"/>
</svg>