<?xml version="1.0" encoding="UTF-8"?>
<svg id="Layer_1" xmlns="http://www.w3.org/2000/svg" version="1.1" viewBox="0 0 270 112">
  <!-- Generator: Adobe Illustrator 30.0.0, SVG Export Plug-In . SVG Version: 2.1.1 Build 123)  -->
  <defs>
    <style>
      .st0 {
        fill: #572a31;
      }

      .st1 {
        stroke-width: .12px;
      }

      .st1, .st2, .st3 {
        fill: none;
        stroke: #000;
      }

      .st2 {
        stroke-width: .5px;
      }

      .st4 {
        fill: #fff;
      }

      .st5 {
        fill: #231f20;
      }

      .st3 {
        stroke-width: .25px;
      }
    </style>
  </defs>
  <rect class="st4" width="270" height="112" rx="29" ry="29"/>
  <g>
    <path class="st4" d="M96.48,65.22c0,.52-.41.92-.93.92s-.94-.41-.94-.92.42-.91.94-.91.93.41.93.91ZM94.84,65.22c0,.41.3.73.71.73s.69-.32.69-.72-.29-.73-.7-.73-.7.33-.7.73ZM95.4,65.7h-.21v-.91c.08-.02.2-.03.35-.03.17,0,.25.03.32.07.05.04.09.11.09.2,0,.1-.08.18-.19.21h0c.09.04.14.11.17.23.03.14.04.19.07.23h-.23s-.04-.12-.07-.22c-.02-.1-.07-.14-.19-.14h-.1v.37ZM95.41,65.18h.1c.12,0,.21-.04.21-.13,0-.08-.06-.14-.19-.14-.06,0-.09,0-.12.01v.26Z"/>
    <g>
      <path class="st0" d="M21.5,38.31h29.72v11.22c0,5.14-1.92,16.04-14.75,24.16,0,0-13.91-5.8-14.97-24.16v-11.22Z"/>
      <path class="st2" d="M21.5,38.31h29.72v11.22c0,5.14-1.92,16.04-14.75,24.16,0,0-13.91-5.8-14.97-24.16v-11.22Z"/>
      <path class="st4" d="M44.27,53.19s-.26.84-1.45-.02l-4.05-.1s-.53.17-.6-.39c0,0,.1-1.11.05-1.2,0,0,.03-.32-.51-.32,0,0-.82.1-.84-.63,0,0-.14-.77.99-.75,0,0,.36.17.39-.29,0,0-.05-3.13-.03-3.37,0,0,.1-.29-.46-.34,0,0-.79.17-.89-.36,0,0-.05-.79.48-.84,0,0,.65.05.77-.12,0,0,.15.1.12-.48l.02-.99s.07-.26.48-.24c0,0,.75.05.84-.02,0,0,.17-.22.22-.31,0,0,.39-.03.46.07,0,0,.57.39,2.77.24,0,0,.34,0,.41.09,0,0,.41.32.65-.02,0,0,.36-.07,1.45-.05,0,0,1.18.31,2-.36l.26.05s.34.55.58.38c0,0,.72-.07.84.08,0,0,.24.36.12,1.3,0,0-.15.41.55.41,0,0,.79-.15.7.6,0,0,.22.84-1.11.72,0,0-.17.24-.15.41,0,0-.02,2.74-.05,3.06,0,0-.02.43.55.41,0,0,.77-.05.8.65,0,0,.09.92-1.02.75,0,0-.34.05-.38.27l-.05,1.2s.03.6-.65.46c-.09,0-3.75.07-4.07-.02,0,0-.17-.03-.22.07"/>
      <path class="st4" d="M36.45,57.28s.17-.07.22-.19c0,0,.5-.05.57-.12l1.59.12s1.56.12,2.24-.36c0,0,.24,0,.41.07,0,0,.34.07.43.22l.92-.03s.53.17.48.51v.43s-.1.87.14.92h.7s.58.27.51.6c0,0,.03.48-.48.58,0,0-.5.14-.67.12,0,0-.17.22-.19.48l-.07,3.16s-.05.34.46.29c0,0,.74-.07.96.34,0,0,.19.7-.19.82l-.29.14-.63.1s-.26.03-.29.48v.84s.03.58-.43.58l-.67.05s-.17.15-.5.05c0,0-4.09.07-4.24.03l-.48.1s-.53.48-.96.12l-.34-.26s-.24.05-.34.02c-.1-.02-4.53.05-4.53.05,0,0-.94.1-1.01-.21,0,0-.12-1.23-.07-1.38,0,0,0-.36-.22-.39,0,0-.94-.05-.96-.14,0,0-.51-.36-.36-.72,0,0,.17-.48.67-.53,0,0,.77.12.77-.1,0,0,.05-.15.05-.39,0,0,.05-2.87.02-3.06,0,0,.07-.36-.24-.36,0,0-.34.09-.55-.05,0,0-.58.02-.7-.44,0,0-.1-.29.05-.53,0,0,.27-.53,1.04-.36,0,0,.43.12.48-.19l-.02-1.16s-.1-.31.5-.48c0,0,.77.22,1.01-.17,0,0,.27-.53.48-.17,0,0,.46.43,1.71.39,0,0,2.17-.17,2.22-.07,0,0,.53.07.67.24l.15.02Z"/>
      <path class="st4" d="M29.87,53.25s-.27.84-1.45-.02l-4.05-.1s-.53.17-.6-.39c0,0,.1-1.11.05-1.2,0,0,.02-.31-.5-.31,0,0-.82.1-.84-.63,0,0-.14-.77.99-.75,0,0,.36.17.39-.29,0,0-.05-3.13-.02-3.37,0,0,.1-.29-.46-.34,0,0-.8.17-.89-.36,0,0-.05-.79.48-.84,0,0,.65.05.77-.12,0,0,.15.09.12-.48l.03-.99s.07-.27.48-.24c0,0,.75.05.84-.02,0,0,.17-.22.22-.31,0,0,.39-.03.46.07,0,0,.58.39,2.77.24,0,0,.34,0,.41.1,0,0,.41.31.65-.02,0,0,.36-.07,1.45-.05,0,0,1.18.31,2-.36l.27.05s.34.55.58.39c0,0,.72-.07.84.07,0,0,.24.36.12,1.3,0,0-.15.41.55.41,0,0,.79-.14.7.6,0,0,.22.84-1.11.72,0,0-.17.24-.15.41,0,0-.03,2.75-.05,3.06,0,0-.02.43.55.41,0,0,.77-.05.79.65,0,0,.1.92-1.01.74,0,0-.34.05-.39.27l-.05,1.2s.03.6-.65.46c-.09,0-3.76.07-4.07-.02,0,0-.17-.03-.22.07"/>
      <path d="M44.27,53.19s-.26.84-1.45-.02l-4.05-.1s-.53.17-.6-.39c0,0,.1-1.11.05-1.2,0,0,.03-.32-.51-.32,0,0-.82.1-.84-.63,0,0-.14-.77.99-.75,0,0,.36.17.39-.29,0,0-.05-3.13-.03-3.37,0,0,.1-.29-.46-.34,0,0-.79.17-.89-.36,0,0-.05-.79.48-.84,0,0,.65.05.77-.12,0,0,.15.1.12-.48l.02-.99s.07-.26.48-.24c0,0,.75.05.84-.02,0,0,.17-.22.22-.31,0,0,.39-.03.46.07,0,0,.57.39,2.77.24,0,0,.34,0,.41.09,0,0,.41.32.65-.02,0,0,.36-.07,1.45-.05,0,0,1.18.31,2-.36l.26.05s.34.55.58.38c0,0,.72-.07.84.08,0,0,.24.36.12,1.3,0,0-.15.41.55.41,0,0,.79-.15.7.6,0,0,.22.84-1.11.72,0,0-.17.24-.15.41,0,0-.02,2.74-.05,3.06,0,0-.02.43.55.41,0,0,.77-.05.8.65,0,0,.09.92-1.02.75,0,0-.34.05-.38.27l-.05,1.2s.03.6-.65.46c-.09,0-3.75.07-4.07-.02,0,0-.17-.03-.22.07"/>
      <path class="st3" d="M44.27,53.19s-.26.84-1.45-.02l-4.05-.1s-.53.17-.6-.39c0,0,.1-1.11.05-1.2,0,0,.03-.32-.51-.32,0,0-.82.1-.84-.63,0,0-.14-.77.99-.75,0,0,.36.17.39-.29,0,0-.05-3.13-.03-3.37,0,0,.1-.29-.46-.34,0,0-.79.17-.89-.36,0,0-.05-.79.48-.84,0,0,.65.05.77-.12,0,0,.15.1.12-.48l.02-.99s.07-.26.48-.24c0,0,.75.05.84-.02,0,0,.17-.22.22-.31,0,0,.39-.03.46.07,0,0,.57.39,2.77.24,0,0,.34,0,.41.09,0,0,.41.32.65-.02,0,0,.36-.07,1.45-.05,0,0,1.18.31,2-.36l.26.05s.34.55.58.38c0,0,.72-.07.84.08,0,0,.24.36.12,1.3,0,0-.15.41.55.41,0,0,.79-.15.7.6,0,0,.22.84-1.11.72,0,0-.17.24-.15.41,0,0-.02,2.74-.05,3.06,0,0-.02.43.55.41,0,0,.77-.05.8.65,0,0,.09.92-1.02.75,0,0-.34.05-.38.27l-.05,1.2s.03.6-.65.46c-.09,0-3.75.07-4.07-.02,0,0-.17-.03-.22.07Z"/>
      <path class="st4" d="M39.72,43.27s.05.48.05.6-.08,6.96-.08,6.96c0,0,.08.53-.38.79,0,0-.12.05-.14-.29l.04-7.22s.05-.89.51-.85"/>
      <path class="st1" d="M39.72,43.27s.05.48.05.6-.08,6.96-.08,6.96c0,0,.08.53-.38.79,0,0-.12.05-.14-.29l.04-7.22s.05-.89.51-.85Z"/>
      <path class="st4" d="M38.93,51.7s.04-6.79.02-6.91c-.02-.12.02.1.02.1,0,0-.07-1.18.24-1.66,0,0-.09-.41-.65.1l-.02.99s0,.55-.5.53c0,0-.58-.03-.84.24,0,0-.15.53.41.44,0,0,.87,0,.92.36l-.05,3.64s.19.6-.48.6c0,0-.82-.05-.8.46,0,0,.17.43.87.29,0,0,.5.1.48.58v.92s-.05.36.43.39h3.76s.19.02.19-.22c0,0-.03-.19-.31-.19l-3.13-.05s-.51.17-.55-.58"/>
      <path class="st4" d="M39.58,51.75s-.09.34.27.27h2.48l.67.14s.7-.17,0-.55c0,0-2.21.02-2.41-.03,0,0-.46-.12-.56-.15,0,0-.24-.1-.46.31"/>
      <path class="st1" d="M39.58,51.75s-.09.34.27.27h2.48l.67.14s.7-.17,0-.55c0,0-2.21.02-2.41-.03,0,0-.46-.12-.56-.15,0,0-.24-.1-.46.31Z"/>
      <path class="st4" d="M43.69,52.09s-.46,0-.43.6c0,0,.05.46.53.46,0,0,.43-.07.39-.55,0,0-.27-.6-.49-.5"/>
      <path class="st4" d="M44.03,51.85s.22-.24.36-.24c0,0,2.41.21,2.82-.08,0,0,.36-.07.46,0,0,0,.36.29.36.46,0,0-.03.22-.46.09,0,0-2.72.03-2.86.03,0,0-.75.17-.67-.27"/>
      <path class="st1" d="M44.03,51.85s.22-.24.36-.24c0,0,2.41.21,2.82-.08,0,0,.36-.07.46,0,0,0,.36.29.36.46,0,0-.03.22-.46.09,0,0-2.72.03-2.86.03,0,0-.75.17-.67-.27Z"/>
      <path class="st4" d="M44.42,52.57s0-.19.34-.19l3.37-.02s.32.17.32-.41c0,0,.12-2.62.14-5.52,0-.86.04-1.76,0-2.6,0,0-.08-.36-.17-.44,0,0,0-.39.41-.24,0,0,.36.03.27.58l.02.84s-.07.36.58.27c0,0,.65.1.67.34,0,0,.19.48-.58.44h-.55s-.24.14-.17.43l-.07,3.49s-.05.6.53.58c0,0,.6-.03.72.17,0,0,.41.6-.48.55,0,0-.55-.03-.67.07,0,0-.1.12-.17,1.25,0,0,.05.67-.46.6,0,0-3.35.05-3.66-.02,0,0-.34.1-.39-.17"/>
      <path class="st4" d="M40.08,43.05l-.07,7.73s-.02.36.58.43c0,0,.7.07.87,0,0,0,.46-.03,1.64.03,0,0,.29.29.32-.07,0,0,.19-6.26.1-7.56,0,0-.02-.55-.43-.58,0,0-1.83.14-2,0l-.73-.19s-.29.03-.26.22"/>
      <path class="st4" d="M43.89,43.44s-.07,3.64-.05,3.76l-.05,3.06-.1,1.06s.15.22.27.07c0,0,.77-.19,1.25-.12,0,0,1.54.14,1.85-.1,0,0,.24.12.31-.26,0,0,.09-6.74.05-6.86,0,0,.09-.97.04-1.06,0,0-.02-.21-.43-.02,0,0,.05.19-2.24.12,0,0-.87-.03-.92.36"/>
      <path class="st4" d="M47.72,43.34l-.02,7.61s.19.67.5.6c0,0,.05-.15.07-.39l.09-7.25s-.24-1.16-.65-.58"/>
      <path class="st1" d="M47.72,43.34l-.02,7.61s.19.67.5.6c0,0,.05-.15.07-.39l.09-7.25s-.24-1.16-.65-.58Z"/>
      <path d="M44.76,45.62c-.07-.19.41-.22.41-.22l.24.05c.17-.03.34.05.34.05.17.27-.12.41-.12.41l-.1.31c-.03.27,0,2.55,0,2.55.05.12.24.34.24.34,0,.22-.27.17-.27.17l-.7.03c-.21-.03-.14-.26-.14-.26.24-.12.31-.55.31-.55v-2.38l-.22-.48Z"/>
      <path d="M41.51,47.86l-.05.75.22.36c.15.19-.1.34-.1.34l-.77-.07c-.14-.08,0-.31,0-.31.19-.12.22-.43.22-.43l-.02-1.4.02-1.01c0-.12-.19-.34-.19-.34-.17-.02-.12-.24-.12-.24.05-.12.45-.05.45-.05h1.01c.97.31.82,1.01.82,1.01.07.7-.67.99-.67.99l-.05.38.7,1.11c.12.1.1.19.1.19-.1.26-.48,0-.48,0l-.87-1.35c-.07-.1-.22.08-.22.08M41.53,45.96c.02.53.02,1.25.02,1.25.46.36.72-.14.72-.14.6-.58,0-1.11-.1-1.25-.09-.14-.58-.03-.58-.03l-.07.17Z"/>
      <path d="M36.45,57.28s.17-.07.22-.19c0,0,.5-.05.57-.12l1.59.12s1.56.12,2.24-.36c0,0,.24,0,.41.07,0,0,.34.07.43.22l.92-.03s.53.17.48.51v.43s-.1.87.14.92h.7s.58.27.51.6c0,0,.03.48-.48.58,0,0-.5.14-.67.12,0,0-.17.22-.19.48l-.07,3.16s-.05.34.46.29c0,0,.74-.07.96.34,0,0,.19.7-.19.82l-.29.14-.63.1s-.26.03-.29.48v.84s.03.58-.43.58l-.67.05s-.17.15-.5.05c0,0-4.09.07-4.24.03l-.48.1s-.53.48-.96.12l-.34-.26s-.24.05-.34.02c-.1-.02-4.53.05-4.53.05,0,0-.94.1-1.01-.21,0,0-.12-1.23-.07-1.38,0,0,0-.36-.22-.39,0,0-.94-.05-.96-.14,0,0-.51-.36-.36-.72,0,0,.17-.48.67-.53,0,0,.77.12.77-.1,0,0,.05-.15.05-.39,0,0,.05-2.87.02-3.06,0,0,.07-.36-.24-.36,0,0-.34.09-.55-.05,0,0-.58.02-.7-.44,0,0-.1-.29.05-.53,0,0,.27-.53,1.04-.36,0,0,.43.12.48-.19l-.02-1.16s-.1-.31.5-.48c0,0,.77.22,1.01-.17,0,0,.27-.53.48-.17,0,0,.46.43,1.71.39,0,0,2.17-.17,2.22-.07,0,0,.53.07.67.24l.15.02Z"/>
      <path class="st3" d="M36.45,57.28s.17-.07.22-.19c0,0,.5-.05.57-.12l1.59.12s1.56.12,2.24-.36c0,0,.24,0,.41.07,0,0,.34.07.43.22l.92-.03s.53.17.48.51v.43s-.1.87.14.92h.7s.58.27.51.6c0,0,.03.48-.48.58,0,0-.5.14-.67.12,0,0-.17.22-.19.48l-.07,3.16s-.05.34.46.29c0,0,.74-.07.96.34,0,0,.19.7-.19.82l-.29.14-.63.1s-.26.03-.29.48v.84s.03.58-.43.58l-.67.05s-.17.15-.5.05c0,0-4.09.07-4.24.03l-.48.1s-.53.48-.96.12l-.34-.26s-.24.05-.34.02c-.1-.02-4.53.05-4.53.05,0,0-.94.1-1.01-.21,0,0-.12-1.23-.07-1.38,0,0,0-.36-.22-.39,0,0-.94-.05-.96-.14,0,0-.51-.36-.36-.72,0,0,.17-.48.67-.53,0,0,.77.12.77-.1,0,0,.05-.15.05-.39,0,0,.05-2.87.02-3.06,0,0,.07-.36-.24-.36,0,0-.34.09-.55-.05,0,0-.58.02-.7-.44,0,0-.1-.29.05-.53,0,0,.27-.53,1.04-.36,0,0,.43.12.48-.19l-.02-1.16s-.1-.31.5-.48c0,0,.77.22,1.01-.17,0,0,.27-.53.48-.17,0,0,.46.43,1.71.39,0,0,2.17-.17,2.22-.07,0,0,.53.07.67.24l.15.02Z"/>
      <path class="st4" d="M37.08,66.74s.29-.15.49-.1c.19.05,3.01-.03,3.01-.03,0,0,1.23.1,1.42-.07l.29-.1s.12-.14.12-.34.03-.84.03-.84l.07-.24s-.03-.24,0-6.67c0,0,.1-.51-.22-.82,0,0,0-.19.09-.17.1.03.05.03.05.03,0,0,.43-.12.51.05,0,0,.19.58.02.92,0,0-.05.7.32.7,0,0,.14.15.43.07,0,0,.63.08.63.27,0,0,0,.44-.43.36l-.58.05s-.38.07-.34.53c.05.46-.03,3.74-.03,3.74,0,0,0,.39.6.36,0,0,.75-.03.75.19,0,0,.19.48-.34.5,0,0-1.01-.02-.94.26,0,0-.07.67-.12.8,0,0,.1.55-.03.65,0,0-.07.31-.72.27,0,0-4.14-.02-4.79.02,0,0-.39-.05-.29-.38"/>
      <path class="st4" d="M36.33,66.29s.41.07.41.46.03.6-.22.65c-.24.05-.5-.02-.58-.34-.07-.31.05-.7.39-.77"/>
      <path class="st4" d="M36.81,66.09s.43-.29.6-.24c0,0,2.19.14,2.87.03.67-.12.27-.03.27-.03,0,0,.57,0,.75-.22,0,0,.17-.05.26.12l.36.39s.03.24-.39.22c0,0-3.92,0-4.04.03,0,0-.75.12-.67-.29"/>
      <path class="st1" d="M36.81,66.09s.43-.29.6-.24c0,0,2.19.14,2.87.03.67-.12.27-.03.27-.03,0,0,.57,0,.75-.22,0,0,.17-.05.26.12l.36.39s.03.24-.39.22c0,0-3.92,0-4.04.03,0,0-.75.12-.67-.29Z"/>
      <path class="st4" d="M31.11,57.54s.17,0,.14.29l-.05,7.27s.07.48-.34.79c0,0-.22.27-.22-.14l.1-7.42s.02-.55.36-.79"/>
      <path class="st1" d="M31.11,57.54s.17,0,.14.29l-.05,7.27s.07.48-.34.79c0,0-.22.27-.22-.14l.1-7.42s.02-.55.36-.79Z"/>
      <path class="st4" d="M30.72,57.59s-.29.53-.27.65l-.03,1.61s-.02,1.04,0,1.16c.03.12-.02,3.15-.02,3.15,0,0-.03.58,0,.77v1.3s-.05.58.39.43c0,0,4.24-.09,4.5-.02,0,0,.39.07.24.27,0,0,0,.17-.26.12,0,0-2,.19-3.81.12,0,0-1.2.07-1.28-.07,0,0-.19-.03-.19-.72,0,0,0-.65-.05-.77,0,0,.05-.34-.56-.41,0,0-.84.14-.87-.36,0,0,.12-.36.94-.32,0,0,.6.1.48-.38l.07-3.56s.08-.63-.33-.65c0,0-.38-.02-.51.02,0,0-.7,0-.65-.41,0,0,.24-.43.94-.34,0,0,.53.09.55-.51,0,0-.02-1.23.27-1.28,0,0,.6.02.43.19"/>
      <path class="st4" d="M31.44,65.56s.34.36.89.34l3.27.05s.36.03.34.22c0,0-.05.29-.48.19l-3.95-.05-.43.03s-.29-.05.17-.6l.19-.17Z"/>
      <path class="st1" d="M31.44,65.56s.34.36.89.34l3.27.05s.36.03.34.22c0,0-.05.29-.48.19l-3.95-.05-.43.03s-.29-.05.17-.6l.19-.17Z"/>
      <path class="st4" d="M41.56,65.25s.29.55.44.63c0,0,.26.31.19-.24l.05-6.94s-.07-.24,0-.62l-.29-.53s-.31-.24-.31.14l-.05,7.39-.02.17Z"/>
      <path class="st1" d="M41.56,65.25s.29.55.44.63c0,0,.26.31.19-.24l.05-6.94s-.07-.24,0-.62l-.29-.53s-.31-.24-.31.14l-.05,7.39-.02.17Z"/>
      <path class="st4" d="M36.21,61.95s.02.58-.05,1.13c-.04.3.1,1.71-.03,2.43,0,0-.02.24-.53.03,0,0-3.08.07-3.18-.03,0,0-.84.03-.92-.41,0,0,.12-3.3.05-3.42,0,0-.05-1.8,0-1.97,0,0,.07-1.66.03-1.86,0,0,.03-.39-.05-.58,0,0,0-.24.41-.1,0,0,.14.27.94.15,0,0,.58.1,1.13.03,0,0,1.23-.1,1.54,0,0,0,.48-.1.62.43l-.02,1.49.14.48.17-.12.07-.36.02-1.59s.1-.29.48-.34c0,0,.6-.08.7-.03.1.05,1.39.12,1.76.05.36-.07.43.24,1.52-.31,0,0,.29.03.29.22,0,0-.1,2.05,0,2.43,0,0,0,3.76-.07,4.02l.05,1.2s.05.53-.8.58c0,0,.53.07-2.8-.03,0,0-.53-.02-1.11.24,0,0-.12-.03-.12-.34,0,0,.1-1.13,0-2.24l-.05-1.23-.22.02Z"/>
      <path d="M34.04,60.24s.08,1.78,0,2.02l-.02.39s.1.26.24.36c0,0,.12.34-.17.31,0,0-.6-.05-.75-.03,0,0-.34,0,0-.43,0,0,.12-.17.09-.6,0,0,0-2.02.05-2.14,0,0,.05-.27-.13-.34l-.29.03-.36.34s-.07.36-.24-.03v-.19l.22-.58.14-.02s.21.14.41.19h1.13l.41-.19s.17.02.12.24c0,0,.07.55-.24.63,0,0-.19-.07-.29-.34,0,0-.31-.17-.34.39"/>
      <path d="M39.36,59.59s-.91-.08-.94.91c0,0-.1.68.92,1.11,0,0,.75.36.7.82,0,0-.1.82-.89.41,0,0-.38-.19-.36-.41,0,0-.12-.27-.27-.22,0,0-.17.05-.1.84,0,0,0,.31.36,0l.19.05s.65.53,1.2-.12c0,0,.6-.55.17-1.23,0,0-.31-.48-.87-.72,0,0-.53-.24-.65-.65,0,0,.17-.72.82-.34,0,0,.24.29.39.34,0,0,.19,0,.14-.43l-.05-.36s-.05-.27-.39,0c0,0-.31.12-.39,0"/>
      <path d="M36.43,59.08c.17.12.19.36.19.36.48,1.27.89,3.13.89,3.13.12.24.34.43.34.43.41.15,0,.27,0,.27-.17.07-.72-.02-.72-.02-.29-.05-.17-.14-.17-.14.12-.12.03-.6.03-.6-.03-.19-.24-.51-.24-.51-.1-.05-.27.17-.27.17,0,0-.26.09-.29,0-.03-.1-.19-.19-.19-.19-.29,0-.41.72-.41.72.17.6,0,.51,0,.51-.14.19-.6.05-.6.05-.21-.05-.07-.22-.07-.22.26-.05.34-.34.34-.34.12-.17.89-3.3.89-3.3.08-.15.12-.44.29-.31M36.04,60.67c-.02.12-.19.79-.19.79l.14.24s.39.03.53.03.17-.12.17-.24-.27-.84-.27-.84l-.12-.14-.26.17Z"/>
      <path d="M29.87,53.25s-.27.84-1.45-.02l-4.05-.1s-.53.17-.6-.39c0,0,.1-1.11.05-1.2,0,0,.02-.31-.5-.31,0,0-.82.1-.84-.63,0,0-.14-.77.99-.75,0,0,.36.17.39-.29,0,0-.05-3.13-.02-3.37,0,0,.1-.29-.46-.34,0,0-.8.17-.89-.36,0,0-.05-.79.48-.84,0,0,.65.05.77-.12,0,0,.15.09.12-.48l.03-.99s.07-.27.48-.24c0,0,.75.05.84-.02,0,0,.17-.22.22-.31,0,0,.39-.03.46.07,0,0,.58.39,2.77.24,0,0,.34,0,.41.1,0,0,.41.31.65-.02,0,0,.36-.07,1.45-.05,0,0,1.18.31,2-.36l.27.05s.34.55.58.39c0,0,.72-.07.84.07,0,0,.24.36.12,1.3,0,0-.15.41.55.41,0,0,.79-.14.7.6,0,0,.22.84-1.11.72,0,0-.17.24-.15.41,0,0-.03,2.75-.05,3.06,0,0-.02.43.55.41,0,0,.77-.05.79.65,0,0,.1.92-1.01.74,0,0-.34.05-.39.27l-.05,1.2s.03.6-.65.46c-.09,0-3.76.07-4.07-.02,0,0-.17-.03-.22.07"/>
      <path class="st3" d="M29.87,53.25s-.27.84-1.45-.02l-4.05-.1s-.53.17-.6-.39c0,0,.1-1.11.05-1.2,0,0,.02-.31-.5-.31,0,0-.82.1-.84-.63,0,0-.14-.77.99-.75,0,0,.36.17.39-.29,0,0-.05-3.13-.02-3.37,0,0,.1-.29-.46-.34,0,0-.8.17-.89-.36,0,0-.05-.79.48-.84,0,0,.65.05.77-.12,0,0,.15.09.12-.48l.03-.99s.07-.27.48-.24c0,0,.75.05.84-.02,0,0,.17-.22.22-.31,0,0,.39-.03.46.07,0,0,.58.39,2.77.24,0,0,.34,0,.41.1,0,0,.41.31.65-.02,0,0,.36-.07,1.45-.05,0,0,1.18.31,2-.36l.27.05s.34.55.58.39c0,0,.72-.07.84.07,0,0,.24.36.12,1.3,0,0-.15.41.55.41,0,0,.79-.14.7.6,0,0,.22.84-1.11.72,0,0-.17.24-.15.41,0,0-.03,2.75-.05,3.06,0,0-.02.43.55.41,0,0,.77-.05.79.65,0,0,.1.92-1.01.74,0,0-.34.05-.39.27l-.05,1.2s.03.6-.65.46c-.09,0-3.76.07-4.07-.02,0,0-.17-.03-.22.07Z"/>
      <path class="st4" d="M25.32,43.33s.05.48.05.6-.07,6.96-.07,6.96c0,0,.07.53-.39.79,0,0-.12.05-.15-.29l.05-7.23s.05-.89.5-.84"/>
      <path class="st1" d="M25.32,43.33s.05.48.05.6-.07,6.96-.07,6.96c0,0,.07.53-.39.79,0,0-.12.05-.15-.29l.05-7.23s.05-.89.5-.84Z"/>
      <path class="st4" d="M24.52,51.76s.05-6.79.03-6.91c-.03-.12.02.1.02.1,0,0-.07-1.18.24-1.66,0,0-.1-.41-.65.1l-.02.99s0,.55-.5.53c0,0-.58-.02-.84.24,0,0-.14.53.41.44,0,0,.87,0,.92.36l-.05,3.64s.19.6-.48.6c0,0-.82-.05-.79.46,0,0,.17.43.87.29,0,0,.5.1.48.58v.92s-.05.36.43.39h3.76s.19.02.19-.22c0,0-.03-.19-.31-.19l-3.13-.05s-.51.17-.56-.58"/>
      <path class="st4" d="M25.17,51.81s-.09.34.27.26h2.48l.67.14s.7-.17,0-.55c0,0-2.22.03-2.41-.02,0,0-.46-.12-.56-.14,0,0-.24-.1-.46.31"/>
      <path class="st1" d="M25.17,51.81s-.09.34.27.26h2.48l.67.14s.7-.17,0-.55c0,0-2.22.03-2.41-.02,0,0-.46-.12-.56-.14,0,0-.24-.1-.46.31Z"/>
      <path class="st4" d="M29.3,52.15s-.46,0-.44.6c0,0,.05.46.53.46,0,0,.43-.07.39-.55,0,0-.27-.6-.48-.5"/>
      <path class="st4" d="M29.63,51.91s.22-.24.36-.24c0,0,2.41.22,2.82-.07,0,0,.36-.08.45,0,0,0,.36.29.36.45,0,0-.02.22-.45.1,0,0-2.72.03-2.87.03,0,0-.75.17-.68-.27"/>
      <path class="st1" d="M29.63,51.91s.22-.24.36-.24c0,0,2.41.22,2.82-.07,0,0,.36-.08.45,0,0,0,.36.29.36.45,0,0-.02.22-.45.1,0,0-2.72.03-2.87.03,0,0-.75.17-.68-.27Z"/>
      <path class="st4" d="M30.02,52.63s0-.19.34-.19l3.37-.03s.31.17.31-.41c0,0,.12-2.63.14-5.52,0-.86.04-1.76,0-2.6,0,0-.07-.36-.17-.44,0,0,0-.39.41-.24,0,0,.36.02.26.58l.02.84s-.07.36.58.26c0,0,.65.09.67.34,0,0,.19.48-.58.43h-.55s-.24.14-.17.43l-.07,3.49s-.05.6.53.58c0,0,.6-.02.72.17,0,0,.41.6-.48.55,0,0-.55-.02-.67.07,0,0-.1.12-.17,1.25,0,0,.05.68-.46.6,0,0-3.35.05-3.66-.02,0,0-.34.1-.39-.17"/>
      <path class="st4" d="M25.68,43.11l-.07,7.73s-.02.36.58.43c0,0,.7.07.87,0,0,0,.46-.02,1.64.03,0,0,.29.29.31-.07,0,0,.19-6.26.1-7.56,0,0-.03-.55-.44-.58,0,0-1.83.14-2,0l-.72-.19s-.29.02-.27.22"/>
      <path class="st4" d="M33.32,43.4l-.02,7.61s.19.67.5.6c0,0,.05-.14.07-.39l.1-7.25s-.24-1.16-.65-.58"/>
      <path class="st1" d="M33.32,43.4l-.02,7.61s.19.67.5.6c0,0,.05-.14.07-.39l.1-7.25s-.24-1.16-.65-.58Z"/>
      <path class="st4" d="M29.49,43.47s-.07,3.64-.05,3.76l-.05,3.06-.1,1.06s.14.22.26.08c0,0,.77-.19,1.25-.12,0,0,1.54.15,1.85-.1,0,0,.24.12.31-.26,0,0,.09-6.74.05-6.86,0,0,.1-.96.05-1.06,0,0-.02-.22-.43-.03,0,0,.05.19-2.24.12,0,0-.87-.02-.92.36"/>
      <path d="M28.74,45.7l-.22.46s-.53,2.34-.82,2.81c0,0-.05.48-.46.1,0,0-.94-2.96-.99-3.06l-.31-.22s-.19-.26.14-.29l.89.03s.29.24-.09.5c0,0,.05.39.55,1.86,0,0,.14.55.31.14l.48-1.71-.14-.51s-.14-.24.08-.27c0,0,.5-.05.58.15"/>
      <path d="M30.14,46.08l-.03,2.55-.07.19s-.24.31-.08.34c0,0-.21.15,1.54.17,0,0,.68.12.5-.75,0,0-.07-.31-.31.15,0,0-.07.39-.94.26,0,0-.19-.17-.19-.36v-1.06s-.03-.26.38-.24c0,0,.46.29.53.17,0,0,.17-.39,0-.63,0,0-.22-.02-.24.07,0,0-.15.29-.55.12,0,0-.19-.39-.08-.7,0,0-.05-.6.36-.55,0,0,.48.1.53.24,0,0,.12.29.24-.05l-.12-.41s-.07-.17-.19-.12c0,0-.82.12-.92.02l-.65.07s-.1.24.19.36c0,0,.08.05.08.15"/>
      <path d="M145.63,46.24c-.53-1.17-1.34-2.02-2.72-2.32v-.68c.85,0,3.7.1,4.35.1.6,0,3.18-.1,4.05-.1v.66c-.78.15-1.67.59-1.67,1.39,0,.57.35,1.35,1,2.81l6.24,14.18,5.89-14.2c.47-1.15.8-2.03.8-2.71,0-.76-.69-1.27-1.67-1.47v-.66c.78,0,2.68.1,3.28.1.55,0,2.8-.1,3.66-.1v.68c-1.47.4-2.37,1.21-3.18,3.13l-8.68,20.46h-1.82l-9.53-21.26Z"/>
      <path d="M61.4,66.72c1.13-.26,1.93-.77,1.93-2.05v-18.75c0-1.23-.75-1.75-1.93-2.06v-.67c.59,0,3.16.1,3.78.1.72,0,3.44-.1,4.03-.1v.67c-1.13.26-1.98.77-1.98,2.06v7.84h13.98v-7.84c0-1.29-.74-1.8-1.92-2.06v-.67c.59,0,3.26.1,3.98.1.62,0,3.23-.1,3.83-.1v.67c-1.13.26-1.98.77-1.98,2.06v18.75c0,1.23.79,1.75,1.98,2.05v.62c-.59,0-3.21-.05-3.83-.05-.72,0-3.39.05-3.98.05v-.62c1.13-.26,1.92-.77,1.92-2.05v-8.86h-13.98v8.86c0,1.29.79,1.75,1.98,2.05v.62c-.59,0-3.31-.05-4.03-.05-.62,0-3.18.05-3.78.05v-.62ZM90.93,66.72c1.52-.36,2.36-1.35,2.92-2.67l7.72-18.6c.33-.77.71-2.35.71-2.35h2.16s.39,1.58.71,2.35l8.17,18.65c.58,1.28,1.21,2.21,2.83,2.62v.62c-.89,0-3.64-.05-4.26-.05s-3.24.05-4.13.05v-.62c1.19-.29,1.57-.9,1.57-1.49,0-.5-.2-1.05-.45-1.64l-1.73-3.95h-9.05s-1.58,3.97-1.58,3.97c-.18.45-.4,1.1-.4,1.54,0,.67.35,1.21,1.7,1.57v.62c-.81,0-2.91-.05-3.41-.05l-3.5.05v-.62ZM106.31,57.69l-3.84-8.96-3.58,8.96h7.42ZM90.93,66.72c1.52-.36,2.36-1.35,2.92-2.67l7.72-18.6c.33-.77.71-2.35.71-2.35h2.16s.39,1.58.71,2.35l8.17,18.65c.58,1.28,1.21,2.21,2.83,2.62v.62c-.89,0-3.64-.05-4.26-.05s-3.24.05-4.13.05v-.62c1.19-.29,1.57-.9,1.57-1.49,0-.5-.2-1.05-.45-1.64l-1.73-3.95h-9.05s-1.58,3.97-1.58,3.97c-.18.45-.4,1.1-.4,1.54,0,.67.35,1.21,1.7,1.57v.62c-.81,0-2.91-.05-3.41-.05l-3.5.05v-.62ZM106.31,57.69l-3.84-8.96-3.58,8.96h7.42ZM167.51,66.72c1.52-.36,2.37-1.35,2.92-2.67l7.73-18.6c.32-.77.71-2.35.71-2.35h2.17s.39,1.58.71,2.35l8.16,18.65c.58,1.28,1.22,2.21,2.84,2.62v.62c-.89,0-3.64-.05-4.26-.05s-3.25.05-4.13.05v-.62c1.2-.29,1.57-.9,1.57-1.49,0-.5-.21-1.05-.45-1.64l-1.73-3.95h-9.05s-1.58,3.97-1.58,3.97c-.18.45-.39,1.1-.39,1.54,0,.67.35,1.21,1.7,1.57v.62c-.8,0-2.84-.05-3.34-.05l-3.56.05v-.62ZM182.9,57.69l-3.84-8.96-3.58,8.96h7.42ZM223.36,66.72c1.45-.26,2.24-.83,2.24-2.16v-18.65c0-1.29-.79-1.8-2.18-2.06v-.67c.81,0,3.47.1,4.19.1,1.18,0,4.52-.25,7.08-.25,8.6,0,13.82,4.79,13.82,12.1s-5.43,12.36-14.29,12.36c-2.55,0-5.65-.2-6.84-.2-.72,0-3.2.1-4.01.1v-.67ZM229.51,65.49c.87.15,2.49.25,3.77.25,7.22,0,10.98-4.34,10.98-10.41s-3.96-10.71-10.72-10.71c-1.38,0-3.11.1-4.03.26v20.6Z"/>
      <path d="M125.84,64.5c0,1.24.79,1.92,2.24,2.23v.67c-.81,0-3.44-.1-4.19-.1-.65,0-3.23.1-4.03.1v-.67c1.35-.26,2.14-.93,2.14-2.23v-18.52c0-1.14-.61-1.86-2.14-2.12v-.67c.81,0,3.36.1,4.08.1,1.18,0,4.53-.19,5.85-.19,5.78,0,9,2.39,9,6.48,0,3.22-2.4,5.39-6.08,6.29,0,0,.83.49,1.67,1.47,1.02,1.2,3.84,5.23,4.98,6.61,1.14,1.38,2.6,2.96,4.15,3.03v.5c-.74.17-1.94.3-2.85.3-1.97,0-3.54-.69-5.06-2.53-1.31-1.6-3.61-5.01-4.93-6.68-.84-1.07-1.85-1.91-3.71-2.21-.37-.06-.71-.11-1.12-.16v8.3ZM125.84,54.66c.76.1,1.9.15,3.02.15,4.52,0,5.94-2.6,5.94-4.9,0-3.27-2.18-5.29-6.14-5.29-.81,0-2,.11-2.82.26v9.77Z"/>
      <path d="M202.05,64.5c0,1.24.79,1.92,2.24,2.23v.67c-.81,0-3.44-.1-4.19-.1-.64,0-3.23.1-4.03.1v-.67c1.34-.26,2.14-.93,2.14-2.23v-18.52c0-1.14-.62-1.86-2.13-2.12v-.67c.81,0,3.36.1,4.08.1,1.18,0,4.54-.19,5.86-.19,5.78,0,9,2.39,9,6.48,0,3.22-2.4,5.39-6.08,6.29,0,0,.83.49,1.67,1.47,1.03,1.2,3.84,5.23,4.98,6.61,1.14,1.38,2.6,2.96,4.16,3.03v.5c-.75.17-1.94.3-2.86.3-1.97,0-3.54-.69-5.06-2.53-1.31-1.6-3.61-5.01-4.92-6.68-.84-1.07-1.85-1.91-3.71-2.21-.37-.06-.71-.11-1.12-.16v8.3ZM202.05,54.66c.77.1,1.9.15,3.02.15,4.52,0,5.94-2.6,5.94-4.9,0-3.27-2.17-5.29-6.14-5.29-.81,0-2,.11-2.83.26v9.77Z"/>
    </g>
    <path class="st5" d="M248.37,66.62c0,.65-.51,1.16-1.18,1.16s-1.18-.51-1.18-1.16.53-1.15,1.18-1.15,1.18.51,1.18,1.15ZM246.3,66.62c0,.51.38.92.9.92s.88-.41.88-.91-.37-.93-.88-.93-.89.41-.89.92ZM247.01,67.22h-.27v-1.15c.11-.02.25-.04.44-.04.22,0,.32.04.4.08.06.05.11.14.11.25,0,.13-.1.22-.24.27h0c.11.06.18.14.21.29.04.18.06.25.08.29h-.29s-.06-.15-.09-.28c-.02-.13-.09-.18-.24-.18h-.13v.46ZM247.02,66.57h.13c.15,0,.27-.05.27-.17,0-.11-.08-.18-.25-.18-.07,0-.12,0-.15.01v.33Z"/>
    <path class="st5" d="M47.13,69.67c0,.65-.51,1.16-1.18,1.16s-1.18-.51-1.18-1.16.53-1.15,1.18-1.15,1.18.51,1.18,1.15ZM45.07,69.67c0,.51.38.92.9.92s.88-.41.88-.91-.37-.93-.88-.93-.89.41-.89.92ZM45.77,70.27h-.27v-1.15c.11-.02.25-.04.44-.04.22,0,.32.04.4.08.06.05.11.14.11.25,0,.13-.1.22-.24.27h0c.11.06.18.14.21.29.04.18.06.25.08.29h-.29s-.06-.15-.09-.28c-.02-.13-.09-.18-.24-.18h-.13v.46ZM45.78,69.62h.13c.15,0,.27-.05.27-.17,0-.11-.08-.18-.25-.18-.07,0-.12,0-.15.01v.33Z"/>
  </g>
</svg>