<?xml version="1.0" encoding="UTF-8"?>
<svg id="Layer_1" xmlns="http://www.w3.org/2000/svg" version="1.1" viewBox="0 0 270 112">
  <!-- Generator: Adobe Illustrator 30.0.0, SVG Export Plug-In . SVG Version: 2.1.1 Build 123)  -->
  <defs>
    <style>
      .st0 {
        fill: #fff;
      }

      .st1 {
        fill: #a32035;
      }

      .st2 {
        fill: #006853;
      }
    </style>
  </defs>
  <rect class="st0" width="270" height="112" rx="29" ry="29"/>
  <g>
    <g>
      <g>
        <g>
          <path class="st0" d="M141.03,47.45c.26.17.54.34.82.5,0,0,0,0,.01,0h7.27l8.58,8.57v24.39l-9.87,9.5h-25.95l-9.86-9.51v-13.01h13.06s.01-.07.02-.11c.05-.15.12-.28.22-.4h-13.71v13.79s10.19,9.82,10.19,9.82h26.38l10.19-9.81v-24.85l-8.9-8.89h-8.46Z"/>
          <path class="st0" d="M148.19,21h-26.38l-10.19,9.79v25.92l8.89,8.91h3.92c-.01-.23.05-.43.11-.59h-3.93l-8.58-8.59v-25.46l9.87-9.48h25.94l9.87,9.49v14.21h-12.98c.05.23.02.43-.02.58h13.66v-14.98l-10.19-9.81Z"/>
        </g>
        <polygon class="st0" points="132.32 63.85 121.1 63.85 113.21 55.96 113.21 31.49 122.38 22.68 147.37 22.68 156.54 31.5 156.54 44.04 136.53 44.04 136.53 49.13 148.65 49.13 156.54 57.01 156.54 80.42 147.37 89.23 122.38 89.23 113.21 80.4 113.22 69.07 126.13 69.07 132.29 69.07 132.32 63.85"/>
        <polygon class="st0" points="132.1 65.03 120.61 65.03 112.04 56.45 112.04 30.98 121.9 21.5 147.85 21.5 157.71 31 157.71 45.21 136.53 45.21 136.53 47.95 149.13 47.95 157.71 56.53 157.71 80.92 147.85 90.41 121.9 90.41 112.04 80.9 112.04 67.89 132.3 67.89 132.1 65.03"/>
        <g>
          <path class="st1" d="M138.44,57.2c.34.39,2.26,1.64,2.92,1.94,1.45.66,2.21,1.74,2.66,3.11.43,1.29-.04,1.01-.38.85-.35-.16-.44-.51-1.3-.49-.86.02-1.35-.04-1.96-.52-.16-.12-.29-.26-.4-.38,0,0-.01,0-.02-.01-.59-.44-.47,1.03-.35,1.27.42.84.71.5,3.16,1.78,1.16.61,1.44,1.43,1.56,1.77.2.56.4.72-1.38.47-.57-.08-1.6-.43-2.08-.76-.47-.32-1.41-.06-1.33.63.44,1.06,1.57,1.72,2.65,1.85.94.12,1.37.32,1.54.53.52.58-.44,1.42-.44,1.42-.48.54.04,1.18.39,1.37.57.29,1.69.94,2.06,1.88,1.93,4.89.06,3.49-.86,2.93-.92-.56-2.67-2-4.26-1.87-1.6.12-2.13.21-3.07-.53-.95-.74-.85.46-.85.46v5.89c.06,1.32.3,2.58,1.37,3.65.88.88,1.54.71,2.78,2.19.57.68,2.43,1.42,3.67,1.43h2.38s8.46-8.14,8.46-8.14v-22.41l-7.2-7.2h-4.69c.4.64.62,1.48.79,2.7,0,.74-.99.38-1.31.19-.23-.15-.52-.29-.91-.38-.72-.17-2.44-.91-2.91-1.08-.48-.17-.83.18-.88.31h0c-.12.22.13.68.13.68.68,1.5,1.92,1.43,3.29,2.38,1.88,1.32.87,1.6.49,1.4-.38-.2-1.01-.07-1.01-.07-1.52.41-1.98-.21-2.86-.44-.89-.23-.16.85.16,1.21Z"/>
          <path class="st1" d="M129.86,84.78c.59-.91,1.62-1.68,2.28-2.34.69-.69.82-2.27.84-3.98v-3.57.04c0-.36,0-.64,0-.85h0v-.57s0-.07,0-.13v-1.54c0-.36-.42-.38-1.34.59-.92.97-2.47.9-3.37.97-.89.08-3.47,1.39-4.21,2.34-.46.59-1.1.11-.84-1.05h0c.12-.52.35-1.22.72-2.15.51-1.29,2.42-2.04,2.42-2.04,0,0,.2-.09.37-.25h-1.61s0,0,0,0h-10.71v9.66s8.45,8.14,8.45,8.14h2.72c2.56-.12,3.51-2.06,4.29-3.26Z"/>
          <path class="st1" d="M122.85,23.86l-8.46,8.13v23.49l7.2,7.21h6.76c1.16-.5,1.4-.46,1.72-1.09.05-.1.1-.39.1-.68.02-.08.16-.94-.26-.73-.72.36-2.18-.58-3.27-.03-1.09.55-.29-.73-.14-.95,0,0,.59-.76,1.47-1.26.03-.02.06-.04.09-.05.09-.05.17-.09.27-.13.67-.31,2.58-1.56,2.92-1.94.2-.23.57-.74.58-1.03.06-.25.11-.64-.14-.8-.36-.23-.66.23-1.23.48-.57.25-1,.35-1.51.37-.49.02-.95-.17-1.25-.12-.29.05-.47-.17.07-.7.24-.24.35-.35.46-.43,1.28-.8,2.42-.81,3.06-2.23,0,0,.5-1.28-.46-.74-.53.3-.82.74-2.32.74s-2.09.7-2.35,1c0,0-1.02,1.41-.77-.56.26-1.97.64-2.97,1.59-3.73.81-.66,2.83-1.54,3.56-2.51.38-.37,1.31-1.42.77-2.31-.23-.37-.79.6-1.37.72h0c-.66.17-1.5.38-2.14.26-.79-.16-1.3.14-1.6.27-.29.13-.86-.29-.17-1.06.92-1.03,3.14-2.37,4.64-3.18.21-.08.71-.3,1.17-.59,0,0,.02,0,.03-.01.11-.05.28-.15.38-.27.33-.27.55-.57.47-.87-.07-.28-.21-.37-.65-.42-.35-.04-.93.36-1.42.33-.75-.06-1.84.11-1.48-.41.34-.49.89-.8,1.05-.88.31-.14.72-.32,1.33-.58.95-.42.82-1.48.45-1.52-.58-.06-2.12.43-1.03-.8,0,0,.52-.51,1.04-.84.41-.23.75-.33,1.16-.47.26-.09.92-.67-.66-.73,0,0-.88.02-.71-.37.14-.26.91-.74.91-.74,0,0,.63-.42.88-.67.24-.23.42-.41.4-.62-.01-.24-.63-.53-.89-.85-.19-.24-.03-.32.08-.35.06-.01.12-.02.2-.02.64,0,.82-.62,1.19-2.26.11-.49.12-.6.28-.6h0s.02,0,.03,0c0,0,.16.83.39,1.75.19.51.41.73.79.72.08,0,.15,0,.2.02.1.03.27.11.08.35-.14.18-.58.47-.61.65-.13.51.36.69.87.73.71.05.42.48-.35,1.04-.74.54,1.16,1.7,1.16,1.7,1.08.82.31,1.04.09,1.15-.22.11-.83.48-.22.71.61.23,1.45,1.06,1.45,1.06,1.09,1.22-.46.74-1.03.8-.37.04-.5,1.1.45,1.52,1.45.64,1.77.75,2.29,1.13.96.7.45,1.29-.75,1.08,0,0-.77-.19-1.3-.09-.33.06-.57.14-.72.22-.08.12-.27.61,1.39,1.11.8.24,1.78.83,2.66,1.5l13.66-.02v-10.86l-8.46-8.14h-24.05Z"/>
          <path class="st1" d="M157.71,31l-9.87-9.49h-25.94l-9.87,9.48v25.46l8.58,8.59h3.93c-.1.26-.22.66.05,1.05.3.43.81.43,1,.43.23,0,.55-.03,1.05-.09h0s.21.18-.42.38h0c-.51.18-.96.48-1.12.98-.01.04-.01.07-.02.11h-13.05v13.01s9.86,9.51,9.86,9.51h25.95l9.87-9.5v-24.39l-8.58-8.57h-7.27s0,0-.01,0c-.32-.19-.65-.38-.95-.58l-.11-.07h-.02c-.16-.11-.33-.23-.52-.39-.16-.13-.3-.25-.4-.37l-.03-.03c-.19-.2-.36-.39-.49-.55,1.14.32,2.37.4,2.96.42h.07s.08,0,.11,0h.05c.14.02.25.04.32.06.08.03.15.06.21.09l.31.11c.07.02.15.02.23.02.45,0,.86-.27,1.05-.68.07-.14.16-.43.09-.79h12.98s0-14.21,0-14.21ZM156.54,44.04h-13.52c.28.29.52.57.68.83.61.73.08,1.12-.21,1,0,0-.22-.11-.37-.16-.14-.04-.72-.11-.8-.11-.72-.02-2.65-.15-3.83-.82-.46-.26-.51.37-.31.87.11.27.52.86,1.07,1.42.14.15.31.31.5.46.22.19.46.36.7.5,0,0,0,0,0,0,.62.4,1.31.77,1.82,1.1h6.37s7.89,7.88,7.89,7.88v23.4l-9.17,8.82h-24.99l-9.16-8.83v-11.34h12.27s0,0,0,0h1.21c-.14-.16-.34-.34-.61-.52,0,0-1.07-.91,1.41-1.21,1.08-.13,2.21-.79,2.65-1.85.08-.69-.86-.95-1.33-.63-.48.32-1.51.68-2.08.76-1.78.24-1.58.09-1.38-.47.09-.26.27-.78.84-1.28h-5.09s-7.89-7.9-7.89-7.9v-24.47l9.16-8.81h24.99l9.17,8.82v12.54Z"/>
        </g>
      </g>
      <g>
        <path class="st2" d="M146.9,88.39h-2.37c-1.19-.01-3.04-.82-3.6-1.49-.74-.88-1.29-1.2-1.78-1.47-.34-.19-.66-.37-1.01-.72-1.09-1.09-1.29-2.37-1.34-3.58v-6.24c0-.11,0-.41.11-.54.03-.04.08-.06.13-.06.08,0,.22.04.45.22.61.47,1.06.63,1.79.63.32,0,.68-.03,1.13-.06l.22-.02c1.28-.1,2.65.82,3.64,1.49.21.14.4.27.56.37l.17.1c.38.24.85.53,1.2.53.16,0,.29-.06.37-.18.18-.26.29-.9-.74-3.5-.38-.96-1.48-1.62-2.11-1.93-.21-.12-.47-.4-.52-.69-.04-.19.02-.37.15-.52.02-.02.59-.53.62-1.06.01-.19-.05-.36-.17-.5-.22-.27-.75-.45-1.6-.56-.95-.12-2.11-.71-2.57-1.78-.02-.15.03-.29.12-.39.14-.15.38-.25.62-.25.16,0,.32.04.43.12.52.34,1.56.7,2.12.77.57.08.92.11,1.14.11.24,0,.37-.04.43-.13.08-.12.03-.27-.05-.46-.01-.04-.03-.08-.05-.14-.13-.36-.42-1.19-1.6-1.81-1-.52-1.65-.78-2.08-.95-.64-.25-.81-.32-1.05-.79-.08-.16-.15-.91,0-1.16.03-.05.06-.05.07-.05.02,0,.06,0,.14.07h.01c.11.12.24.27.4.39.66.51,1.17.55,2.02.54h.06c.53,0,.73.15.92.3.08.06.17.13.28.18l.06.03c.13.06.26.12.38.12.1,0,.16-.05.19-.09.08-.1.12-.31-.12-1.02-.51-1.55-1.37-2.55-2.71-3.16-.66-.3-2.55-1.54-2.89-1.92-.31-.35-.62-.89-.55-1.04,0,0,.02-.04.11-.04.05,0,.11,0,.19.03.24.06.45.16.66.25.37.16.75.33,1.31.33.29,0,.6-.04.94-.14,0,0,.19-.04.42-.04s.41.03.54.1c.09.04.19.07.31.07.22,0,.39-.1.44-.25.1-.32-.28-.78-1.13-1.38-.48-.34-.96-.55-1.38-.74-.81-.37-1.45-.65-1.88-1.61-.09-.16-.2-.45-.13-.58l.02-.04c.06-.09.25-.26.52-.26.07,0,.15.01.23.04.14.05.39.15.7.27.72.29,1.72.69,2.23.81.33.07.62.2.88.37.18.11.57.27.9.27.18,0,.32-.05.42-.15.09-.09.14-.23.14-.41-.17-1.23-.49-2.33-.81-2.75-.2-.26-.72-.9-1.23-1.2-.24-.14-1.1-.64-1.8-1.09l-.03-.02c-.22-.13-.45-.29-.68-.49-.19-.15-.36-.3-.49-.45-.54-.55-.95-1.13-1.05-1.39-.12-.29-.14-.62-.06-.75.05-.07.12-.06.23,0,1.19.67,3.11.8,3.88.83.08,0,.64.06.76.1.14.06.36.16.37.16.2.08.47-.03.57-.25.07-.14.12-.45-.25-.9-.16-.25-.39-.53-.69-.84,0,0-.67-.68-1.32-1.17-.55-.41-1.9-1.28-2.69-1.52-1.06-.32-1.31-.62-1.36-.77-.03-.08-.01-.14,0-.18.16-.07.38-.14.67-.2.1-.02.22-.03.35-.03.45,0,.91.11.92.12.7.12,1.23-.02,1.34-.36.05-.15.05-.48-.52-.89-.43-.32-.74-.45-1.64-.85-.19-.08-.41-.18-.66-.29-.61-.27-.7-.79-.66-1.06.02-.16.1-.27.18-.28.13-.02.31,0,.51.02.15.01.31.03.46.03.2,0,.43-.02.51-.2.08-.18-.04-.42-.38-.81-.03-.03-.87-.85-1.49-1.08-.13-.05-.2-.11-.2-.16,0-.09.17-.25.43-.38.02-.01.04-.02.07-.03.16-.07.42-.19.45-.45.03-.24-.17-.51-.61-.84-.35-.21-1.26-.86-1.28-1.29,0-.1.04-.17.13-.24.79-.58.83-.83.79-.97-.06-.22-.38-.24-.48-.25-.37-.03-.63-.12-.74-.27-.06-.09-.08-.2-.04-.34.01-.08.21-.25.33-.37.1-.09.19-.17.25-.25.1-.12.13-.23.1-.32-.03-.09-.11-.15-.23-.18-.06-.02-.14-.02-.23-.02-.32,0-.51-.18-.69-.65-.23-.91-.39-1.74-.39-1.75l-.02-.08h-.11c-.23,0-.26.15-.35.55l-.03.12c-.37,1.62-.55,2.18-1.11,2.18-.07,0-.14,0-.22.02-.15.04-.21.12-.22.18-.03.09,0,.2.1.32.12.15.3.29.48.42.17.13.39.29.39.38,0,.15-.13.31-.38.55-.24.24-.86.65-.86.65-.08.05-.8.5-.95.79-.06.13-.02.22.01.28.14.21.58.23.76.23h.02c.85.03.92.21.92.24.02.1-.17.25-.29.3-.08.03-.16.06-.24.08-.31.1-.6.2-.94.4-.52.33-1.03.83-1.06.86-.34.38-.46.63-.38.81.08.17.31.2.51.2.14,0,.3-.01.46-.03.2-.02.38-.03.51-.02.08,0,.16.12.18.28.04.26-.05.79-.66,1.05-.29.13-.53.23-.74.33-.23.1-.42.18-.59.26-.27.14-.76.45-1.08.91-.09.13-.11.24-.06.34.11.21.52.21,1.03.21.2,0,.4,0,.59.02.28.02.59-.09.85-.19.22-.08.42-.16.56-.14.42.04.51.12.56.34.06.23-.09.49-.46.79-.08.1-.23.2-.34.24l-.04.02c-.48.3-1,.52-1.16.58-1.68.9-3.78,2.21-4.66,3.2-.42.47-.37.8-.3.95.1.22.38.35.59.25l.1-.05c.24-.11.56-.26,1.02-.26.14,0,.28.01.43.04.14.03.29.04.45.04.59,0,1.28-.18,1.73-.3.29-.06.55-.3.79-.51.16-.14.34-.3.42-.3,0,0,.03,0,.05.04.5.82-.36,1.81-.76,2.2-.45.6-1.42,1.18-2.28,1.68-.49.29-.96.57-1.26.81-.93.75-1.36,1.75-1.62,3.79-.08.58-.05.92.08,1.07.05.06.12.09.19.09.28,0,.61-.44.67-.52.24-.29.8-.97,2.28-.97,1.25,0,1.7-.3,2.09-.57.09-.06.18-.12.28-.18.34-.19.39-.12.41-.09.08.12,0,.48-.09.7-.43.95-1.07,1.24-1.88,1.6-.37.17-.75.34-1.15.59-.11.08-.21.18-.43.4l-.04.04c-.31.3-.43.54-.36.72.05.12.19.18.37.15.13-.02.31.01.51.05.2.04.43.08.66.08h.07c.53-.02.96-.12,1.54-.38.21-.09.38-.21.53-.31.25-.17.42-.29.6-.17.2.13.14.49.09.71-.01.24-.34.73-.56.97-.34.38-2.24,1.62-2.89,1.92-.09.04-.18.09-.29.14-.02.01-.04.03-.07.04-.89.5-1.47,1.25-1.5,1.28-.02.03-.57.82-.41,1.12.02.04.08.12.22.12.11,0,.26-.05.46-.15.22-.11.48-.17.79-.17.37,0,.75.08,1.11.16.55.12,1.06.19,1.37.04.08-.04.09-.03.11,0,.08.09.06.42.02.65,0,.3-.05.56-.09.63-.24.47-.41.53-1.05.79-.17.07-.38.15-.63.26-.07.03-1.68.76-2.19,1.19-.5.43-.76,1.01-.87,1.32l-.04.12c-.07.19-.13.34-.05.46.06.09.19.13.44.13.23,0,.57-.03,1.14-.11.56-.08,1.61-.43,2.12-.77.11-.08.27-.12.43-.12.25,0,.49.1.62.25.1.11.14.24.12.4-.45,1.07-1.61,1.66-2.56,1.78-1.04.13-1.59.37-1.7.74-.1.34.23.63.25.65.28.19.46.37.59.51.14.15.29.4.27.64-.01.15-.09.4-.58.63-.48.23,0,0,0,0-.08.03-1.95.78-2.47,2.1-.35.88-.59,1.61-.72,2.16l-.02.12h0c-.09.47-.03.87.16,1.11.22.28.61.25.88-.09.73-.93,3.31-2.23,4.14-2.3.13-.01.28-.02.44-.03.92-.05,2.18-.12,2.99-.97.69-.73,1-.79,1.08-.79.03,0,.1,0,.1.13v1.54c0,.06,0,.1,0,.13v5.29c-.03,1.63-.14,3.24-.82,3.91-.19.19-.42.39-.65.61-.57.51-1.22,1.09-1.64,1.75-.07.11-.15.23-.23.36-.73,1.16-1.72,2.84-3.98,2.95h-2.72s24.05.01,24.05.01Z"/>
        <path class="st0" d="M146.9,88.65h-21.32s-.01-.01-.01-.01h-2.72s0-.52,0-.52h2.72c2.07-.1,3.02-1.63,3.71-2.74l.05-.08c.08-.13.15-.25.23-.36.44-.68,1.1-1.27,1.68-1.8.23-.21.46-.41.64-.6.61-.61.72-2.23.73-3.73v-5.29s0-.08,0-.13v-1.34c-.14.08-.38.26-.73.63-.88.93-2.2,1-3.16,1.05-.16,0-.3.02-.43.03-.77.07-3.28,1.33-3.96,2.2-.35.45-.96.49-1.28.09-.19-.24-.28-.59-.25-1.01h-.02l.08-.43c.14-.57.38-1.31.74-2.21.54-1.37,2.36-2.14,2.61-2.24.27-.13.41-.27.43-.41.01-.15-.09-.33-.2-.44-.13-.14-.3-.3-.55-.47-.04-.03-.51-.42-.36-.93.15-.49.76-.78,1.92-.93.87-.11,1.92-.64,2.34-1.58,0-.06-.02-.11-.06-.16-.14-.16-.54-.21-.72-.09-.55.37-1.63.73-2.23.82-.59.08-.94.12-1.18.12s-.5-.03-.65-.24c-.16-.23-.07-.48.02-.7l.05-.12c.12-.33.4-.96.94-1.43.5-.43,1.96-1.1,2.24-1.23.26-.11.47-.19.65-.26.62-.25.72-.28.91-.66.01-.04.06-.25.06-.52.02-.13.03-.24.04-.33-.32.08-.85,0-1.32-.09-.62-.13-1.3-.23-1.73-.01-.53.27-.87.21-1.02-.08-.2-.39.18-1.04.43-1.39.03-.04.64-.83,1.58-1.36l.07-.05c.11-.06.2-.11.3-.15.68-.31,2.51-1.52,2.81-1.86.25-.28.49-.69.49-.82.07-.34.04-.46.02-.48-.07,0-.2.09-.31.17-.15.1-.34.23-.57.34-.62.27-1.08.38-1.64.4h-.07c-.26,0-.51-.04-.71-.08-.16-.03-.27-.05-.37-.05-.09.01-.13.01-.17.01-.25,0-.44-.12-.53-.32-.17-.42.27-.85.42-1,.26-.26.37-.37.5-.46.44-.27.82-.45,1.2-.62.79-.36,1.36-.62,1.75-1.47.04-.1.07-.21.08-.3-.01,0-.03.02-.05.03-.09.05-.18.11-.26.17-.41.27-.91.61-2.24.61s-1.84.59-2.08.87c-.13.18-.49.62-.87.62-.15,0-.29-.06-.38-.17-.19-.21-.23-.6-.14-1.28.28-2.12.73-3.16,1.72-3.96.32-.26.79-.54,1.29-.83.84-.5,1.79-1.06,2.21-1.62.35-.34,1.02-1.1.83-1.74-.05.05-.12.11-.16.14-.26.23-.56.49-.91.57-.58.15-1.61.39-2.29.26-.55-.11-.99.06-1.28.2l-.1.05c-.35.15-.78-.04-.94-.38-.09-.21-.17-.65.35-1.23.9-1.01,3.04-2.34,4.74-3.25.21-.09.7-.3,1.15-.57l.06-.03c.1-.05.21-.12.25-.17.3-.26.44-.45.41-.57-.02-.1-.03-.12-.34-.15h0c-.1,0-.29.07-.44.13-.3.11-.58.21-.88.21h-.09c-.18-.02-.38-.02-.57-.02-.6,0-1.08,0-1.26-.35-.07-.13-.11-.34.08-.6.35-.5.89-.84,1.17-.99.16-.07.31-.14.5-.22l.85-.37c.58-.26.51-.76.51-.78,0-.03-.01-.05-.02-.07-.11,0-.23,0-.37.02-.19.02-.36.03-.51.03-.16,0-.59,0-.75-.35-.16-.36.12-.75.42-1.09.02-.02.56-.55,1.11-.91.38-.21.69-.32,1-.42l.19-.07c-.11-.02-.27-.04-.51-.05h0c-.35,0-.8-.06-.99-.35-.1-.15-.11-.34-.03-.52.17-.34.79-.75,1.05-.91.11-.07.62-.42.81-.62.19-.18.26-.27.29-.31-.07-.07-.2-.17-.27-.22-.19-.14-.39-.29-.53-.47-.19-.24-.18-.43-.14-.56.03-.1.12-.28.4-.35.12-.02.21-.03.29-.03.33,0,.49-.35.86-1.98l.03-.12c.09-.4.17-.75.6-.75h.32s.06.28.06.28c0,.02.16.83.39,1.74.17.45.31.45.44.45.11,0,.21.01.29.03.21.05.36.18.41.35.04.13.05.33-.14.57-.06.08-.16.17-.27.26-.08.07-.25.22-.28.28-.01.06,0,.09.01.1.04.05.19.14.55.17.4.03.64.17.72.43.1.36-.15.72-.88,1.25-.02.23.53.74,1.13,1.11.35.26.78.64.73,1.09-.04.4-.42.57-.6.65l-.18-.2.12.23c-.07.03-.12.07-.17.1.68.3,1.48,1.1,1.49,1.11.31.35.6.74.44,1.1-.16.35-.59.35-.75.35-.15,0-.31-.01-.47-.03-.18-.02-.3-.02-.4-.03,0,.02-.01.04-.02.07,0,.02-.08.52.51.78l.6.27c.98.43,1.29.56,1.75.9.7.51.69.96.61,1.18-.15.47-.8.68-1.63.54-.12-.03-.8-.16-1.18-.09-.19.04-.33.08-.44.11.1.09.37.3,1.14.53.87.26,2.27,1.18,2.77,1.56.64.48,1.28,1.12,1.35,1.2.32.33.56.62.73.89.44.53.36.95.26,1.15-.15.33-.58.51-.91.38-.03-.01-.23-.11-.36-.16-.07-.02-.58-.08-.67-.08-.77-.03-2.65-.15-3.9-.8,0,.1.03.23.09.36.08.21.45.75,1,1.31.13.14.28.29.47.43.22.19.44.34.65.47.7.45,1.51.92,1.82,1.11.53.31,1.04.93,1.3,1.27.35.45.68,1.58.86,2.87,0,.28-.07.48-.21.63-.15.15-.35.22-.6.22-.41,0-.86-.2-1.03-.31-.24-.16-.51-.27-.8-.34-.53-.13-1.53-.53-2.26-.82-.32-.13-.56-.22-.69-.27-.23-.08-.42.09-.45.13,0,.03.04.2.12.35.4.88.97,1.14,1.76,1.5.44.2.92.42,1.42.77.98.69,1.37,1.22,1.23,1.67-.09.27-.35.44-.69.44-.15,0-.3-.03-.42-.1-.05-.03-.18-.07-.42-.07-.19,0-.34.03-.36.03-.35.1-.68.14-.99.14-.61,0-1.03-.19-1.41-.36-.17-.08-.34-.15-.53-.21.09.16.25.4.43.6.29.33,2.13,1.55,2.81,1.86,1.41.64,2.31,1.7,2.85,3.32.23.69.25,1.03.08,1.26-.19.26-.6.19-.89.05-.19-.09-.29-.17-.38-.23-.18-.14-.32-.25-.77-.25h-.32c-.73,0-1.28-.09-1.92-.59-.11-.08-.21-.18-.29-.26-.02.24.01.59.06.69.19.37.28.41.91.66.44.17,1.09.43,2.1.96,1.26.66,1.59,1.56,1.72,1.95l.05.14c.08.22.18.47.02.7-.15.22-.41.24-.65.24s-.59-.03-1.18-.12c-.6-.08-1.68-.45-2.23-.81-.18-.12-.58-.07-.72.09-.04.05-.06.1-.06.16.42.95,1.48,1.48,2.34,1.58.94.12,1.5.32,1.77.65.17.19.25.42.23.68-.04.6-.6,1.13-.71,1.23-.06.07-.09.17-.07.28.04.21.23.42.39.51.65.32,1.81,1.02,2.22,2.07,1.05,2.67.95,3.39.71,3.74-.13.19-.34.3-.58.3-.42,0-.93-.32-1.33-.57l-.17-.1c-.16-.1-.34-.22-.54-.35-.99-.67-2.31-1.55-3.51-1.47l-.22.02c-1.58.13-2.18.1-3.1-.62-.12-.1-.21-.14-.25-.15-.02.07-.04.2-.03.3v6.26c.05,1.15.24,2.36,1.27,3.39.33.33.62.49.95.68.51.29,1.08.61,1.85,1.53.48.58,2.25,1.37,3.39,1.39h2.38v.52ZM127.44,88.12h14.94c-.71-.29-1.35-.68-1.66-1.05-.71-.85-1.24-1.15-1.71-1.41-.34-.19-.69-.39-1.06-.77-1.16-1.16-1.37-2.49-1.42-3.75v-6.25s-.03-.48.18-.71c.2-.21.52-.18.93.14.82.64,1.3.63,2.74.51l.22-.02c1.34-.12,2.78.84,3.8,1.53.23.15.4.27.56.36l.17.1c.33.21.79.49,1.06.49.09,0,.13-.04.15-.07.12-.18.19-.85-.76-3.26-.35-.88-1.39-1.5-1.98-1.8-.28-.15-.59-.5-.66-.88-.05-.27.02-.53.21-.74.2-.18.54-.57.56-.9,0-.12-.03-.22-.11-.31-.13-.16-.48-.36-1.44-.48-1.03-.13-2.28-.77-2.77-1.94l-.02-.07c-.02-.22.04-.43.19-.59.31-.35,1.01-.44,1.4-.17.48.32,1.49.66,2.01.73,1.04.14,1.33.08,1.34.08,0-.01-.05-.13-.08-.21l-.05-.15c-.12-.33-.39-1.09-1.48-1.66-.98-.51-1.63-.77-2.05-.94-.66-.26-.9-.36-1.18-.91-.11-.22-.2-1.07.01-1.41.13-.2.35-.24.59-.06.16.15.28.28.42.39.53.41.96.48,1.6.48h.32c.62,0,.88.19,1.08.35.08.06.15.11.23.15l.06.03c.09.04.21.1.27.1,0-.01.04-.16-.17-.78-.48-1.47-1.3-2.43-2.57-3.01-.63-.29-2.59-1.55-2.98-1.98,0,0-.78-.9-.59-1.32.04-.1.22-.26.6-.15.26.07.48.16.69.26.36.16.71.31,1.2.31.27,0,.55-.04.88-.13.03-.01.25-.05.48-.05.27,0,.49.04.66.13.12.06.36.03.38-.04,0-.01.08-.31-1.03-1.09-.46-.32-.92-.53-1.33-.72-.84-.38-1.55-.7-2.02-1.74-.04-.07-.28-.53-.12-.81l.04-.06c.1-.14.36-.38.73-.38.11,0,.21.02.31.06.14.05.38.14.67.26.75.3,1.73.69,2.23.81.36.08.68.22.96.41.2.12.83.32.99.16.02-.02.06-.06.06-.22-.16-1.14-.47-2.22-.76-2.6-.19-.25-.68-.86-1.15-1.13-.32-.18-1.13-.66-1.81-1.09-.25-.15-.5-.32-.74-.53-.2-.16-.37-.32-.51-.48-.56-.57-.98-1.17-1.1-1.47-.13-.32-.19-.75-.03-.99.12-.17.32-.21.57-.08,1.14.65,3.01.77,3.76.8h0c.09,0,.68.06.83.11.17.06.4.17.4.18h0c.09,0,.19-.04.22-.13.03-.07.08-.28-.21-.62-.17-.26-.39-.53-.68-.83-.07-.07-.69-.69-1.29-1.14-.52-.39-1.86-1.25-2.61-1.48-.9-.27-1.4-.58-1.53-.93-.05-.13-.04-.27.02-.38l.04-.08.08-.04c.18-.08.42-.16.73-.22.45-.08,1.21.05,1.38.09.14.02.28.04.41.04.38,0,.59-.11.63-.23.04-.11-.06-.33-.43-.6-.41-.3-.71-.43-1.59-.82l-.66-.29c-.75-.33-.87-.99-.81-1.33.04-.28.21-.48.41-.5.12-.01.31,0,.51.02.2.02.35.03.48.03.23,0,.27-.04.28-.04,0,0,.03-.12-.34-.53-.2-.2-.9-.83-1.39-1.02-.24-.09-.36-.22-.37-.39-.01-.26.3-.49.57-.62l.09-.04c.11-.05.29-.13.3-.24,0-.05-.02-.23-.51-.61-.12-.07-1.36-.84-1.39-1.49,0-.13.03-.31.24-.46.7-.51.69-.69.69-.69,0,0-.04-.04-.25-.06-.45-.03-.77-.16-.93-.38-.11-.15-.14-.34-.09-.55.02-.13.14-.26.41-.5.1-.09.17-.15.22-.21.04-.05.05-.08.05-.09-.09,0-.14-.01-.21-.01-.55,0-.78-.41-.93-.82-.15-.58-.27-1.13-.34-1.47-.01.05-.02.11-.04.16l-.03.12c-.34,1.49-.54,2.39-1.36,2.39-.06,0-.11,0-.18.02-.02,0,0,.04.03.09.1.13.27.25.43.38.3.22.48.37.5.57.02.28-.2.51-.46.75-.26.26-.9.68-.9.69-.42.26-.78.55-.85.68.02.05.19.13.55.13.51.02,1.14.09,1.2.47.04.28-.28.51-.46.58l-.24.08c-.29.1-.57.19-.9.38-.5.32-1,.81-1,.82-.36.4-.33.52-.33.52,0,0,.04.04.27.04.14,0,.29-.01.43-.03.25-.02.42-.04.56-.02.2.02.37.22.41.5.05.34-.06,1-.81,1.33l-.85.38c-.18.08-.34.15-.47.21-.23.12-.69.41-.98.82-.04.06-.04.08-.04.08.07.05.51.05.8.06.21,0,.42,0,.61.02h0c.27,0,.54-.1.74-.17.22-.08.43-.16.61-.16h.07c.44.05.69.15.79.54.12.5-.38.92-.54,1.05-.08.11-.26.22-.4.28-.47.29-.96.5-1.21.6-1.63.88-3.71,2.17-4.57,3.13-.34.38-.29.6-.26.68.04.08.13.13.2.13l.14-.05c.24-.11.61-.29,1.12-.29.16,0,.32.02.48.05.56.11,1.51-.11,2.06-.25.23-.05.47-.26.68-.45.26-.23.42-.37.6-.37h.15l.13.16c.42.69.13,1.61-.8,2.52-.46.61-1.45,1.2-2.33,1.72-.49.29-.95.56-1.23.79-.87.71-1.27,1.65-1.53,3.63-.09.7,0,.84.02.87.06,0,.27-.16.45-.42.27-.33.89-1.07,2.49-1.07,1.17,0,1.56-.27,1.95-.52.1-.07.19-.13.3-.19.2-.11.34-.16.46-.16.09,0,.21.03.3.16.18.26,0,.78-.06.93-.47,1.05-1.18,1.37-2.01,1.74-.36.16-.73.33-1.12.58-.08.06-.18.15-.38.36l-.05.05c-.31.3-.3.43-.3.43h.09c.15-.03.34,0,.57.04.21.04.43.08.64.08h.06c.49-.02.89-.12,1.44-.35.19-.08.35-.19.49-.29.31-.21.61-.36.89-.18.25.16.32.49.2.99-.01.31-.42.87-.62,1.09-.39.44-2.35,1.7-2.98,1.98-.09.04-.17.08-.27.14-.01,0-.04.03-.07.05-.84.48-1.41,1.21-1.41,1.21-.25.36-.41.75-.39.85.02-.03.11-.04.33-.15.56-.29,1.4-.18,2.07-.04.47.1.99.17,1.2.06.05-.03.12-.06.19-.06h.12l.11.11c.16.2.11.62.07.86,0,.25-.05.57-.11.7-.28.56-.53.66-1.18.92-.17.07-.38.15-.63.26-.61.28-1.75.83-2.12,1.15-.45.39-.69.93-.79,1.21l-.05.12c-.03.08-.07.19-.07.23.01,0,.07.01.22.01.22,0,.55-.03,1.11-.11.52-.07,1.54-.41,2.01-.73.39-.26,1.08-.17,1.39.17.15.16.21.37.19.59l-.02.07c-.49,1.16-1.75,1.81-2.77,1.94-1.24.15-1.45.44-1.49.56-.05.18.17.37.17.37.28.19.48.38.62.53.09.09.38.43.34.84-.03.35-.27.63-.73.84l-.03-.06.03.06-.26.11c-.52.25-1.7.9-2.08,1.85-.34.85-.57,1.56-.71,2.09l-.02.14c-.07.39-.03.72.11.9.12.15.32.1.47-.09.78-1,3.43-2.32,4.32-2.4.14-.01.29-.02.45-.03.88-.05,2.08-.11,2.82-.89.54-.57.97-.87,1.26-.87.22,0,.36.15.36.39v1.54c0,.06,0,.12,0,.15v5.27c-.03,1.95-.19,3.39-.89,4.09-.19.2-.42.4-.66.62-.56.5-1.19,1.07-1.59,1.69-.07.11-.15.23-.22.35l-.05.08c-.49.79-1.15,1.85-2.28,2.47Z"/>
      </g>
    </g>
    <g>
      <path class="st1" d="M155.45,87.36c-1,0-1.82.81-1.82,1.82s.81,1.82,1.82,1.82,1.82-.81,1.82-1.82-.81-1.82-1.82-1.82ZM155.45,90.61c-.79,0-1.43-.64-1.43-1.43s.64-1.43,1.43-1.43,1.43.64,1.43,1.43-.64,1.43-1.43,1.43Z"/>
      <path class="st1" d="M156.2,88.76c0-.34-.28-.62-.62-.62h-.88v2.08h.39v-.84h.28l.39.84h.43l-.41-.88c.24-.09.41-.31.41-.58ZM155.58,88.98h-.49v-.45h.49c.13,0,.23.1.23.23s-.1.23-.23.23Z"/>
    </g>
  </g>
</svg>