<?xml version="1.0" encoding="UTF-8"?>
<svg id="Layer_1" xmlns="http://www.w3.org/2000/svg" version="1.1" viewBox="0 0 270 112">
  <!-- Generator: Adobe Illustrator 30.0.0, SVG Export Plug-In . SVG Version: 2.1.1 Build 123)  -->
  <defs>
    <style>
      .st0 {
        fill: #fff;
      }

      .st1 {
        fill: #002856;
      }
    </style>
  </defs>
  <rect class="st0" width="270" height="112" rx="29" ry="29"/>
  <g>
    <path class="st1" d="M206.47,59.74c0-8.04-9.42-5.51-9.42-8.62,0-1.02.88-1.41,1.85-1.41,2.1,0,3.76,1.18,4.85,1.97l1.99-5.39c-2.12-1.38-4.4-2.01-6.86-2.01-4.71,0-9.39,3.05-9.39,8.47,0,7.3,9.27,5.49,9.27,7.72,0,1.38-.57,1.76-2.19,1.76-2.87,0-5.53-2.51-5.53-2.51l-2.3,6.07c2.44,1.32,5.6,2.1,8.33,2.1,4.68,0,9.4-2.7,9.4-8.16Z"/>
    <polygon class="st1" points="179.16 67.56 187.05 67.56 187.05 44.66 179.19 44.66 179.16 67.56"/>
    <polygon class="st1" points="166.63 57.35 163.13 44.67 154.94 44.67 163.3 67.56 169.96 67.56 178.35 44.67 170.14 44.67 166.63 57.35"/>
    <path class="st1" d="M142.99,44.66l-7.49,22.89h8.33l.63-2.87h5.95l.78,2.87h8.33l-7.79-22.89h-8.74ZM145.88,59.26l1.57-7.98c.14.97,1.58,7.98,1.58,7.98h-3.15Z"/>
    <path class="st1" d="M123.12,44.66h-8.07v22.89h10.02c6.4,0,10.97-4.34,10.97-11.12,0-8.41-5.6-11.78-12.92-11.78ZM123.52,60.98h-.54v-9.58h.5c2.9,0,4.64,1.79,4.64,5.01,0,2.99-1.96,4.57-4.6,4.57Z"/>
    <path class="st1" d="M110.13,62.78c-1.08,2.95-5.04,3.59-7.11,3.59-5.77,0-8.04-5.68-8.04-10.42,0-6.61,3.34-10.33,8.38-10.31,1.66.01,4.12.84,5.11,1.58.2.16.98,2.22,1.15,2.66.32.86.65,1.83,1.04,2.01.63.29.12-1.86.02-2.75l-.42-3.75c-2.13-.81-4.4-1.21-6.66-1.29-8.97-.34-14.76,3.56-14.76,12.98,0,5.42,3.22,10.85,12.52,10.85,2.93,0,6.27-.43,8.88-1.73.21-.11.25-.94.93-3.66.14-.57.45-1.64.21-1.9-.32-.36-.77.83-1.26,2.16Z"/>
    <path class="st1" d="M88.91,44.65c-5.37.45-7.52.05-7.52.05,0,0-.61.13-.11.57l1.49.52c1,.43,1.15.11,1.08,1.24v12.06c-.01,1.27-.07,6.96-6.65,6.96-4.77,0-6.31-3.7-6.31-6.68l-.04-12.18c.03-1.4-.15-.93,1.22-1.54l1.73-.5c.34-.38-.18-.5-.18-.5-5.92.43-8.47.05-10.23-.03-.65-.03-.28.48-.28.48l2.15.81c.72.25.49.19.49,2.35v12.35c0,7.32,8.44,7.32,9.31,7.32,1.81,0,11.09.21,11.09-8.91v-11.67c0-1.25,0-.97,1.16-1.47l1.76-.75c.32-.38-.14-.47-.14-.47Z"/>
    <path class="st1" d="M206.3,66.43c0-.22-.18-.41-.41-.41h-.58v1.37h.26v-.55h.18l.26.55h.28l-.27-.58c.16-.06.27-.21.27-.38ZM205.89,66.58h-.32v-.3h.32c.08,0,.15.07.15.15s-.07.15-.15.15Z"/>
    <path class="st1" d="M205.8,65.51c-.66,0-1.2.54-1.2,1.2s.54,1.2,1.2,1.2,1.2-.54,1.2-1.2-.54-1.2-1.2-1.2ZM205.8,67.64c-.52,0-.94-.42-.94-.94s.42-.94.94-.94.94.42.94.94-.42.94-.94.94Z"/>
  </g>
</svg>