<?xml version="1.0" encoding="UTF-8"?>
<svg id="Layer_1" xmlns="http://www.w3.org/2000/svg" version="1.1" viewBox="0 0 270 112">
  <!-- Generator: Adobe Illustrator 30.0.0, SVG Export Plug-In . SVG Version: 2.1.1 Build 123)  -->
  <defs>
    <style>
      .st0 {
        fill: #774d28;
      }

      .st1 {
        fill: #231f20;
      }

      .st2 {
        fill: #fff;
      }

      .st3 {
        fill: #9f662d;
      }

      .st4 {
        fill: #702e3e;
      }

      .st5 {
        fill: #888b8d;
      }
    </style>
  </defs>
  <rect class="st2" x="0" width="270" height="112" rx="29" ry="29"/>
  <g>
    <g>
      <path class="st5" d="M110.65,36.43v.2s0,4.03,0,4.03c0,0,.23-.07.43-.13.08-.03.16-.05.21-.06,0,.5,0,2.76,0,2.98-.06.02-.14.05-.21.07-.15.06-.31.11-.31.11,0,0-.24.09-.46.17,0-.62.01-10.01.01-10.41.23-.02.59-.06.59-.06,0,0,.2-.02.4-.04,0,.08,0,.88,0,1.26,0,.12,0,.2,0,.2l.73-.1,1.61-.23v-.21s.01-3.97.01-3.97v-1.29s-3.92,0-3.92,0c-.72,0-1.21.38-1.57,1.18-.36.81-.49,1.83-.49,3.87v11.04c0,2.14.26,3.2.87,3.56.09.05.18.09.28.11.29.06.62-.01,1-.22.88-.46,1.86-.91,2.8-1.35l1.05-.49v-.15s.03-9.42.03-9.42v-1.27s-2.63.52-2.63.52l-.43.08ZM111.14,36.83c.29-.06,1.67-.33,2.09-.41,0,.54-.03,9.65-.03,9.94-.2.09-.77.35-.77.35-.91.42-1.94.89-2.83,1.36-.36.19-.63.23-.81.12-.42-.25-.63-1.31-.63-3.15v-11.04c0-1.97.12-2.93.45-3.68.27-.63.61-.9,1.12-.9h3.44c0,.42-.01,4.2-.01,4.56-.27.04-1.03.14-1.38.19,0-.28,0-1.44,0-1.44l-.93.09-1.03.1v.22s-.01,11.32-.01,11.32l1.1-.4.85-.3v-.17s0-3.8,0-3.8c0,0-.48.15-.64.2,0-.51,0-2.85,0-3.18Z"/>
      <path class="st5" d="M121.06,39.66c0-.06,0-.63,0-.63,0-.08,0-.16,0-.23,0-.35,0-.6-.03-.8-.02-.18-.05-.33-.09-.46-.03-.08-.06-.16-.1-.24-.15-.31-.33-.51-.58-.65.63-.6.83-1.21.84-2.34,0,0,0-1.23,0-1.25,0-.29-.02-.56-.05-.79-.08-.62-.27-1.07-.57-1.37-.32-.32-.76-.46-1.33-.45,0,0-4.48.15-4.48.15v.23s-.01,3.28-.01,3.28c0,0,.42-.09.55-.11,0,.54-.03,7.19-.03,7.52-.16.05-.54.17-.54.17v.18s-.01,3.38-.01,3.38l.35-.18c.1-.05.2-.09.3-.14.75-.37,1.52-.72,2.31-1.04l.15-.06s.03-4.87.03-5.21c.19-.05.46-.11.73-.18,0,.19,0,.67,0,1.21,0,.96-.01,2.11-.01,2.12,0,.7.06,1.12.34,1.32.06.04.13.07.19.09.22.06.47,0,.72-.1l1.85-.59v-.18s.02-1.63.02-1.63v-1.19s-.03.01-.08.03c-.13.04-.37.11-.45.14ZM121.1,42.14c-.28.09-1.53.49-1.53.49-.33.12-.44.09-.47.07-.1-.07-.14-.41-.14-1l.02-3.87-1.71.42v.19s-.03,4.81-.03,5.08c-.72.3-1.44.62-2.13.96,0-.42,0-2.15,0-2.42.16-.05.54-.17.54-.17v-.18s.03-8.29.03-8.29c0,0-.42.09-.55.11,0-.44,0-2.1,0-2.45.42-.01,4.01-.14,4.01-.14.44,0,.76.09.98.31.33.32.48.94.48,1.88v1.19c-.02,1.14-.22,1.62-.97,2.23l-.38.31.47.12c.35.09.51.22.66.54.15.31.18.52.17,1.52v1.29s.42-.13.53-.17c0,.29-.01,1.71-.01,1.98Z"/>
      <path class="st5" d="M117.2,33v.22l-.02,2.89,1.71-.3v-.2s.02-2.76.02-2.76h-.27s-1.44.16-1.44.16ZM118.41,34.61c0,.35,0,.66,0,.79-.05,0-.11.02-.18.03-.17.03-.37.06-.56.1,0-.4.01-1.84.01-2.09.21-.02.48-.05.74-.08,0,.22,0,.77,0,1.25Z"/>
      <path class="st5" d="M122.13,30.61l-.02,2.74s.25-.03.43-.06c.05,0,.09-.01.12-.02,0,.12,0,.6,0,1.25-.01,1.73-.03,4.62-.04,4.89-.16.03-.55.09-.55.09v.21s-.02,2.79-.02,2.79l.31-.09s.08-.02.12-.03c.98-.27,1.98-.51,3-.71l.19-.04v-1.68s.02-1.14.02-1.14c0,0-.06.02-.15.03-.12.03-.28.07-.33.08,0-.54.04-5.38.04-5.81.02,0,.48,0,.48,0v-1.54s.02-1.27.02-1.27l-3.61.07v.24ZM122.62,30.85c.37,0,2.26-.04,2.64-.05,0,.35-.01,1.48-.01,1.82h-.48s-.05,6.91-.05,6.91c0,0,.4-.09.48-.11,0,.42-.01,1.54-.01,1.81-.9.18-1.79.4-2.65.63,0-.43.01-1.64.01-1.94.16-.03.55-.09.55-.09v-.21s.05-6.91.05-6.91c0,0-.41.06-.55.08,0-.34.01-1.64.01-1.94Z"/>
      <path class="st5" d="M129.85,37.36v.23s0,.57,0,.84c-.18.02-.35.03-.63.06.79-1.75,1.64-3.57,2.73-5.85l.02-.05v-1.07s0-1.26,0-1.26l-5.69.05v.24s-.02,3.31-.02,3.31l.3-.02,1.86-.1v-.23s0-.51,0-.54c.15,0,.25,0,.46-.02-.32.69-.62,1.35-.92,2.01-.64,1.41-1.24,2.75-1.8,4.06l-.02.05-.02,2.58.29-.05s0,0,.01,0c1.75-.33,3.55-.55,5.36-.66h.23s0-2.58,0-2.58v-1.11s-1.59.09-1.59.09l-.59.03ZM131.54,40.46c-1.66.11-3.31.31-4.92.6,0-.43.01-1.88.01-1.9.86-1.99,1.79-4.07,2.86-6.36l.17-.36-1.72.06s0,.66,0,.78c-.28.02-.88.05-1.19.07,0-.32.01-2.2.02-2.56.41,0,4.3-.04,4.72-.04,0,.37,0,1.64,0,1.73-1.16,2.43-2.05,4.34-2.89,6.19l-.17.38,1.9-.18v-.22s0-.56,0-.84c.28-.02.9-.05,1.21-.07,0,.4,0,2.37,0,2.71Z"/>
      <path class="st5" d="M138.48,39.71v-2.45s-1.8-.06-1.8-.06h-.39s0,.24,0,.24c0,0,0,.32,0,.56,0,.11,0,.2,0,.24-.04,0-.08,0-.11,0-.16,0-.31,0-.53,0,.21-.43.62-1.28.62-1.28l2.04-4.21.08-.16v-2.33s-5.7,0-5.7,0v.24s0,3.12,0,3.12h.1s2.06-.02,2.06-.02v-.24s0-.28,0-.5c.16,0,.25,0,.46,0-.13.27-.28.59-.28.59l-.65,1.34-1.78,3.72v.05s0,1.16,0,1.16v1.2s.1,0,.1,0h.15c1.79-.11,3.6-.1,5.38.02h.18s.05.01.05.01h.03s0-.57,0-.57v-.66ZM133.07,40.41c0-.38,0-1.71,0-1.8.05-.1,2.38-4.96,2.38-4.96l.62-1.28h-1.72s0,.24,0,.24c0,0,0,.28,0,.5-.29,0-.89,0-1.19.01,0-.37,0-2.02,0-2.39.42,0,4.31,0,4.72,0,0,.28,0,1.63,0,1.73-.05.1-2.06,4.26-2.06,4.26l-.96,1.97,1.9.02v-.25s0-.66,0-.79c.3.01.92.03,1.21.04,0,.28,0,2.32,0,2.71-1.63-.1-3.29-.11-4.93-.03Z"/>
      <path class="st5" d="M142.56,36.78v.28s0,.44.01.87c0,.33,0,.65,0,.72-.08,0-.15-.02-.21-.03-.08,0-.16-.02-.25-.03,0-.25-.01-2.8-.02-4.38,0-.62,0-1.09,0-1.22.07,0,.21.02.33.03.11.01.21.02.21.02v-.27s-.02-2.48-.02-2.48h-.24s-3.44-.04-3.44-.04v.25s0,1.02,0,1.02v1.41s.41-.01.55-.02c0,.44.02,4.98.02,5.43-.03,0-.07,0-.12-.01-.18-.02-.44-.05-.44-.05v.28s0,.81,0,.81v1.58s.23.02.23.02c1.89.14,3.76.41,5.58.78h0s.29.06.29.06l-.03-4.73-2.47-.29ZM139.45,40.5c0-.3,0-1.32,0-1.68.14.02.55.07.55.07v-.29s-.02-6.19-.02-6.19c0,0-.4.01-.55.02,0-.3,0-1.38,0-1.68.38,0,2.33.02,2.7.02,0,.33,0,1.37,0,1.74-.14-.01-.54-.05-.54-.05l.04,6.56,1.44.17v-.27s0-1.25,0-1.59c.35.04,1.21.14,1.5.18,0,.36.02,3.24.02,3.71-1.67-.33-3.39-.58-5.13-.72Z"/>
      <path class="st5" d="M148.65,39.63c0-.27-.02-3.26-.04-5.02,0-.64,0-1.13,0-1.25.01,0,.04,0,.06,0,.14.02.42.06.42.06v-.29s-.02-2.75-.02-2.75l-3.61-.07v.25s0,1.02,0,1.02v1.57s.55,0,.56,0c0,.42.04,5.38.04,5.92-.06-.01-.2-.05-.32-.08-.12-.03-.23-.06-.23-.06v.31s0,.83,0,.83v1.71s.2.05.2.05c1.02.22,2.03.49,3.02.78.03,0,.07.02.1.03l.32.1-.02-3.05s-.34-.06-.48-.08ZM146.02,41.41c0-.26,0-1.42-.01-1.85.12.03.55.13.55.13v-.31s-.05-6.71-.05-6.71c0,0-.54,0-.55,0,0-.34-.01-1.51-.01-1.86.39,0,2.27.05,2.64.05,0,.31.01,1.65.01,1.99-.1-.01-.48-.07-.48-.07l.05,7.25s.34.06.48.08c0,.23.01,1.56.01,1.98-.87-.26-1.75-.49-2.65-.69Z"/>
      <path class="st5" d="M153.91,39.35l-.36-.12v.34s0,.13,0,.31c0,.17,0,.39,0,.59,0,.2,0,.37,0,.45-.21-.07-.39-.13-.55-.18-.05-.02-.1-.03-.14-.05,0-.13,0-.55,0-.99,0-.47,0-.98,0-1.21.22.06.67.18,1.04.27.31.08.57.15.57.15v-.32s0-1.97,0-1.97v-.65s-1.03-.2-1.48-.28c-.06-.01-.11-.02-.14-.03,0-.12,0-.41,0-.73,0-.47,0-1.01,0-1.24.25.03.48.06.69.08,0,.31,0,1.44,0,1.44l1.64.29.61.11v-.29s-.01-4.72-.01-4.72l-6.09-.2v.25s.01,1.02.01,1.02v1.76s.41,0,.56.01c0,.41.04,5.91.04,6.47-.08-.03-.31-.1-.45-.15-.06-.02-.1-.03-.1-.03v.34s0,.85,0,.85v1.87s.18.05.18.05c1.84.59,3.64,1.32,5.34,2.17.09.04.17.08.26.13l.35.18-.02-5.33-1.97-.64ZM150.26,42.44c0-.26-.01-1.57-.01-2.04.11.04.55.18.55.18v-.34s-.05-7.27-.05-7.27c0,0-.39,0-.55-.01,0-.35-.01-1.81-.01-2.06.44.01,4.7.15,5.11.17,0,.33.01,3.49.01,3.96-.35-.06-1.02-.18-1.28-.22,0-.3,0-1.47,0-1.47l-1.66-.19v.27s.02,2.64.02,2.64c0,0,1.31.25,1.61.31,0,.29,0,1.48,0,1.91-.41-.11-1.62-.42-1.62-.42v.32s.02,2.87.02,2.87l1.65.56v-.34s0-1.12,0-1.36c.39.13,1.13.37,1.35.44,0,.3.01,3.56.01,4.19-1.65-.81-3.38-1.52-5.15-2.1Z"/>
      <path class="st5" d="M160.3,36.45s-.93-.19-1.34-.27c0-.05,0-.16,0-.31,0-.21,0-.51,0-.82,0-.16,0-.32,0-.48,0-.56,0-1.1,0-1.27.25.03.51.06.72.08,0,.23,0,1.58,0,1.58l1.6.25.79.13v-.28s0-6.1,0-6.1h-3.69c-.98,0-1.48.57-1.72,1.65-.15.67-.2,1.54-.2,2.6,0,.04,0,2.32,0,2.32,0,2.97.51,4.23,1.85,4.63,0,0,.97.3,1.36.41,0,.29,0,2.64,0,3.2-.29-.12-.56-.23-.72-.29,0-.27,0-1.79,0-1.79h0s-.16-.06-.16-.06l-2.25-.76v.34s0,.9,0,.9v4.59s.15.07.15.07c1.11.53,2.26,1.1,3.4,1.71.39.21.74.33,1.06.24.19-.05.36-.18.53-.4.43-.57.6-1.51.6-3.25v-3.97c0-2.92-.62-4.34-2.01-4.63ZM161.83,45.05c0,1.61-.15,2.49-.5,2.96-.21.27-.37.36-.98.03-1.1-.59-2.2-1.14-3.28-1.66,0-.27-.01-4.32-.01-4.84.4.14,1.21.41,1.43.49,0,.28,0,1.77,0,1.77l1.69.69v-.36s0-3.92,0-3.92l-1.71-.52c-.92-.28-1.5-1.07-1.5-4.17v-2.21c-.02-3.25.49-3.87,1.42-3.88h3.21c0,.42,0,4.84,0,5.33-.36-.06-1.15-.18-1.42-.23,0-.23,0-1.6,0-1.6l-1.7-.18v.27s0,3.54,0,3.54l1.73.35c1.13.23,1.63,1.51,1.63,4.15v3.97Z"/>
      <path class="st5" d="M117.87,29.23v-3.35c.15.38.37.9.57,1.39.3.74.58,1.41.58,1.41,0,0,.03-.09.09-.22.21-.52.75-1.82,1.05-2.57v3.35h2.27v-2.07s-.31.02-.41.02v-4.14c.1,0,.41.02.41.02v-2.07h-2.17s-.82,2.04-1.17,2.91c-.03.08-.06.15-.08.21-.16-.39-.54-1.36-.84-2.12-.22-.56-.4-1-.4-1h-2.18v2.07s.31-.02.41-.02v4.14c-.1,0-.41-.02-.41-.02v2.07h2.27ZM115.98,27.57c.1,0,.41.02.41.02v-4.96s-.31.02-.41.02v-1.27h1.53c.09.23,1.49,3.77,1.49,3.77,0,0,1.42-3.55,1.51-3.77h1.52v1.27c-.1,0-.41-.02-.41-.02v4.96s.31-.02.41-.02v1.27h-1.5v-4.93s-1.26,3.08-1.53,3.74c-.27-.66-1.53-3.74-1.53-3.74v4.93h-1.5v-1.27Z"/>
      <path class="st5" d="M126.97,28.58c.21-.34.29-.73.29-1.46v-4.01c0-.18,0-.35-.02-.49-.03-.43-.12-.72-.27-.97-.26-.43-.67-.64-1.21-.64h-1.38c-.54,0-.95.22-1.22.64-.21.34-.29.73-.29,1.47v4.01c0,.73.08,1.13.29,1.47.05.08.11.15.17.22.26.28.61.43,1.05.43h1.38c.54,0,.95-.22,1.22-.64ZM125.75,28.84h-1.38c-.4,0-.69-.15-.89-.46-.17-.27-.23-.61-.23-1.26v-4.01c0-.65.06-.99.23-1.26.19-.31.48-.46.89-.46h1.38c.41,0,.7.15.89.46.17.27.23.61.23,1.26v4.01c0,.65-.06.99-.23,1.26-.19.31-.48.46-.89.46Z"/>
      <path class="st5" d="M124.43,27.58h1.26v-4.94h-1.26v4.94ZM124.82,23.03h.49v4.16h-.49v-4.16Z"/>
      <path class="st5" d="M129.97,29.23v-2.94c.41,1.1,1.09,2.94,1.09,2.94h2.18v-2.07s-.17.01-.3.02c-.04,0-.08,0-.1,0v-4.14c.1,0,.4.02.4.02v-2.07h-2.24v2.97c-.41-1.1-1.1-2.97-1.1-2.97h-2.2v2.07s.13,0,.25-.01c.06,0,.12,0,.16,0v4.14c-.1,0-.41-.02-.41-.02v2.07h2.26ZM128.09,27.57c.1,0,.41.02.41.02v-4.96s-.31.02-.41.02v-1.27h1.54c.09.24,1.75,4.74,1.75,4.74v-4.74h1.46v1.27c-.1,0-.4-.02-.4-.02v4.96s.3-.02.4-.02v1.27h-1.52c-.09-.24-1.74-4.72-1.74-4.72v4.72h-1.49v-1.27Z"/>
      <path class="st5" d="M135.01,24.27v-1.23h.21v4.15c-.1,0-.41-.02-.41-.02v2.07h2.76v-2.07s-.3.02-.4.02v-4.15h.2v1.23h1.5v-3.27h-5.36v3.27h1.5ZM133.89,21.39h4.59v2.49h-.73v-1.23h-.98v4.95s.3-.02.4-.02v1.27h-1.98v-1.27c.1,0,.41.02.41.02v-4.95h-.99v1.23h-.72v-2.49Z"/>
      <path class="st5" d="M140.81,29.23s.05-.53.1-1.04c.04-.38.07-.74.08-.86h.54c.03.29.19,1.9.19,1.9h2.24v-2.07s-.32.02-.44.03c-.05-.33-.88-6.19-.88-6.19h-2.82s-.8,5.85-.85,6.19c-.11,0-.43-.03-.43-.03v2.07h2.25ZM140.46,28.84h-1.52v-1.27c.1,0,.38.02.38.02,0,0,.81-5.89.85-6.21h2.15c.04.31.88,6.21.88,6.21,0,0,.28-.02.38-.02v1.27h-1.51c-.03-.29-.19-1.9-.19-1.9h-1.25s-.15,1.62-.18,1.9Z"/>
      <path class="st5" d="M141.07,22.67l-.36,3.29h1.13l-.38-3.3h-.38ZM141.14,25.57c.02-.15.06-.59.13-1.16.07.57.12,1.01.13,1.16h-.26Z"/>
      <path class="st5" d="M149.76,28.03v-.87s-.3.02-.4.02v-4.14c.1,0,.4.02.4.02v-2.07h-2.24v2.97c-.11-.29-.23-.64-.36-.98-.36-.97-.73-1.98-.73-1.98h-2.2v2.07s.31-.02.41-.02v4.14c-.06,0-.18-.01-.27-.02-.07,0-.13,0-.13,0v2.07h2.26v-2.94c.41,1.1,1.09,2.94,1.09,2.94h2.18v-1.2ZM149.37,28.84h-1.52c-.09-.24-1.74-4.72-1.74-4.72v4.72h-1.49v-1.27c.1,0,.41.02.41.02v-4.96s-.31.02-.41.02v-1.27h1.54c.09.24,1.75,4.74,1.75,4.74v-4.74h1.46v1.27c-.1,0-.4-.02-.4-.02v4.96s.3-.02.4-.02v1.27Z"/>
      <path class="st5" d="M152.29,29.23s.05-.53.1-1.04c.04-.38.07-.74.08-.86h.54c.03.29.19,1.9.19,1.9h2.24v-2.07s-.32.02-.44.03c-.05-.33-.88-6.19-.88-6.19h-2.82s-.06.4-.14,1c-.23,1.69-.68,4.94-.71,5.19-.07,0-.23-.01-.34-.02-.06,0-.1,0-.1,0v2.07h2.25ZM150.42,27.57c.1,0,.38.02.38.02,0,0,.81-5.89.85-6.21h2.15c.04.31.88,6.21.88,6.21,0,0,.28-.02.38-.02v1.27h-1.51c-.03-.29-.19-1.9-.19-1.9h-1.25s-.15,1.62-.18,1.9h-1.52v-1.27Z"/>
      <path class="st5" d="M152.93,22.66h-.38s-.36,3.3-.36,3.3h1.13l-.38-3.3ZM152.62,25.57c.02-.15.06-.59.13-1.16.07.58.12,1.01.14,1.16h-.26Z"/>
    </g>
    <g>
      <path class="st3" d="M127.6,51.63l.18.06c.1-.01.11-.12.1-.2.24-.07.3.36.52.17.08-.03.11.09.17.15.18.03.37.17.54.09.33.03.49.37.61.62.1.07.25.12.36.05.03-.1-.12-.2-.03-.33.06-.08.15-.17.25-.13.06.08.1-.01.16-.02.16-.11-.01-.26-.02-.38v-.57c-.11-.11-.21.15-.31.07l-.08-.37c-.16-.05-.24.13-.33.21-.18-.09-.37-.22-.56-.35-.07.01-.11-.02-.13.05.02.15.21.21.24.35-.31-.05-.55-.34-.9-.29.01.18.24.18.27.31-.19-.01-.36-.25-.56-.1-.02.06-.01.15-.07.17-.3-.03-.7-.17-.92.07.1.2.44.22.53.4Z"/>
      <path class="st3" d="M131.95,47.71c.35-.45.75-.68,1.11-1.07v-.13c-.47.12-.85.49-1.25.77-.1.12-.15.28-.07.43.08.01.11-.03.2,0Z"/>
      <path class="st3" d="M130.56,48.45c.24.13.38.36.58.47.16-.12.28-.35.49-.41.01.01.03.02.02.05.01.1-.03.28.1.29l.57-.49c.12-.12.42-.17.38-.38-.08.01-.17.06-.22,0,.17-.34.43-.66.71-.95v-.08c0-.07-.07-.08-.12-.07-.44.22-.72.59-1.05.98-.24-.03-.27.21-.45.27l-.06-.06-.06-.54-.03-.02c-.09.07-.04.2-.1.28-.04.13.05.34-.07.44-.12-.2-.24-.4-.31-.63-.03-.04-.1-.01-.11.02-.02.22.1.49.06.74-.17-.09-.35-.15-.52-.22-.07.15.11.22.19.33Z"/>
      <path class="st3" d="M132.72,49.18c.09.09.21.08.33.12.15-.19.53-.21.46-.55.07-.12.21-.19.31-.29.09-.12.33-.1.33-.28h-.09c-.42.13-.76.43-1.12.71-.09.09-.24.15-.21.29Z"/>
      <path class="st3" d="M137.91,49.73c.07-.04.19-.1.12-.2-.15-.1-.31.03-.47.04-.15-.01-.35.08-.43-.01.02-.04.07-.09.04-.16-.25-.02-.49.11-.74.1.04-.12.18-.08.26-.15.03-.06,0-.11-.02-.16-.22.05-.45.18-.66.17.01-.06.08-.1.12-.15.09-.09.28-.09.29-.22-.24.03-.49.1-.71.17.01-.06.09-.08.13-.12.11-.13.37-.12.38-.33.01-.05-.04-.07-.09-.07-.25.19-.53.29-.79.44-.17.03-.26.25-.45.22-.07-.03-.11-.09-.12-.15-.09.03-.19.03-.26.1-.25.34-.54.64-.68,1.03l.1.02c.17-.1.27-.28.46-.36.07.02,0,.07,0,.1-.02.07-.02.19.06.2.16-.16.34-.29.56-.35.07.06.06.17.16.22.1.02.18-.02.25-.08.01.02.03.02.03.04.33-.06.58.16.93.12.47-.25,1.01-.34,1.52-.51Z"/>
      <path class="st3" d="M132.9,50.25c.27-.43.68-.86,1.11-1.2v-.12c-.8.43-1.34,1.15-1.94,1.8v.13c.01.1.09.17.19.17,0,.06-.03.1-.07.14.06.34-.31.56-.15.87.03.01.07.01.08-.02.07-.11.15-.02.24-.01.07.03.07.12.04.2.04.09.18.08.26.12.08-.18.2-.31.38-.45.06.02.04.09.07.13.27-.03.47-.25.75-.28.09-.36.48-.33.72-.52.26-.13.57-.16.85-.24.06-.12-.07-.18-.13-.26-.2-.13-.46.01-.67.07-.02-.07.05-.15.06-.21-.21-.1-.36.18-.53.25-.09.08-.13-.07-.17-.13-.2.16-.4.3-.61.45-.03-.3.3-.45.34-.74-.02-.05-.08-.03-.12-.05-.38.31-.65.69-.96,1.07-.03.02-.08.03-.1-.01.21-.52.61-1,.98-1.41.03-.08.03-.16,0-.25l-.7.65c-.13.21-.24.47-.42.65-.02-.02-.09-.04-.07-.1.18-.22.38-.49.57-.7Z"/>
      <path class="st3" d="M136.89,50.2c-.06.09.04.15.07.21.24-.04.5-.04.73-.13.12-.09.36.08.4-.09l-.04-.09c-.37-.01-.81-.01-1.16.1Z"/>
      <path class="st3" d="M137.47,50.51l-.03.08c.11.21.34.07.52.15.07-.02.28.1.26-.08-.16-.24-.49-.12-.74-.15Z"/>
      <path class="st3" d="M130.78,51.74c.1-.19.11-.4.21-.59-.09-.04-.26-.02-.35.03-.1.15-.03.36-.06.54.02.09.13.06.19.02Z"/>
      <path class="st3" d="M134.34,53.49c.07-.01.18-.01.2-.08-.03-.06-.1-.06-.16-.06-.04.03-.08.09-.04.13Z"/>
      <path class="st3" d="M128.09,53.67c.11,0,.2.04.29.09.03-.01.06-.05.04-.09-.03-.17-.3-.17-.34,0Z"/>
      <path class="st3" d="M127.6,54.12s-.02-.12-.04-.2c-.16.01-.3-.13-.45-.02,0,.01.01.01.01.02.07.02.16-.01.2.06.11.01.2.09.28.15Z"/>
      <path class="st3" d="M128.87,54.85c.11-.16.26-.35.29-.54-.15-.01-.24-.16-.36-.21-.01-.09.07-.16.07-.22l-.11.11c-.27.07-.47.25-.75.27.03.02.08.06.08.1-.11.15-.28.2-.46.22-.16.09-.29.12-.43.21.45-.1.98-.1,1.29-.48.06-.07.09-.18.2-.17.06.01.12.07.1.15-.19.2-.4.43-.63.61v.08h.07s.61-.66.61-.66l.13-.06c.06.04.02.1.03.16-.15.2-.37.39-.4.63.13.01.18-.12.27-.19Z"/>
      <path class="st3" d="M137.25,55.23c-.03.09-.13.18-.11.28.33.07.65-.1.98-.16.04-.02.09-.09.07-.13-.3,0-.6-.01-.93.01Z"/>
      <path class="st3" d="M129.13,55.39c-.18.03-.16.26-.27.37-.02.12-.18.2-.13.34.21-.16.33-.43.43-.66l-.02-.04Z"/>
      <path class="st3" d="M129.08,57.1s.07-.06.11-.1c0-.05.03-.15-.03-.19-.07.08-.09.19-.08.29Z"/>
      <path class="st3" d="M135.01,59.35s-.06.01-.07-.01c.06-.63.09-1.35-.13-1.93-.01-.13.02-.29-.08-.4-.05-.21-.15-.46-.07-.69.03-.01.06.02.08.02v-.08c-.18-.12-.17-.33-.2-.54.1-.13.25.04.4,0,.02-.16-.2-.18-.26-.33-.24-.01-.3-.35-.55-.3-.06.18.17.17.21.3-.01.28.15.49.17.76.01.1.09.25-.02.31-.16-.22-.24-.5-.38-.74-.07-.1-.13.03-.2.03-.01.19.17.39.03.56-.03,0-.09.01-.12-.01-.03.17.09.34-.01.48-.05,0-.1.01-.12-.03,0-.35-.25-.57-.3-.9.03-.07.11-.04.16-.09-.04-.17-.28-.29-.21-.49.03-.06.09-.11.16-.11-.02-.2-.11-.37-.16-.56-.01-.12.13-.07.2-.09v-.02s-.02-.03-.05-.02c-.11-.03-.17-.15-.16-.26,0-.06.03-.13.11-.12.36.13.52.58.9.7.05.03.11.08.15.02-.09-.24-.36-.31-.53-.51-.04-.08-.22.01-.21-.13.13-.15.3-.09.47-.07.1-.12.27.02.39-.07.2.22.46.39.75.47.06-.04.03-.08.01-.13-.17-.12-.45-.09-.56-.3.07-.08.13-.13.22-.13.27.16.53.19.83.25l.09-.09s-.09-.01-.13-.02c-.16-.02-.23-.22-.39-.22-.08,0-.07-.09-.1-.13.24-.1.47.06.7-.09,0-.09-.16-.04-.22-.09-.2.02-.42.04-.58.09-.17.27-.46.33-.74.36-.2-.11-.46-.08-.63-.27.01-.09.14-.13.09-.25h-.02c-.28.03-.08.27-.19.41-.26.18-.6.05-.82.28-.34,0-.08-.47-.38-.52-.26.06-.37-.22-.55-.31l-.19.25-.27.02c-.03.24-.19-.02-.29.11l-.06-.13c-.06-.01-.09.02-.12.04-.02.09-.06.22.06.27-.03.12.01.28-.1.36-.11.06-.21-.02-.3-.09-.15-.09.03-.22-.01-.31-.1-.13-.22,0-.33.03h.09s-.1.09-.16.13c-.22.34-.38.71-.48,1.09-.09.18-.27.33-.29.53h.06c.12-.21.3-.4.4-.64.03.01.07,0,.1.02.03.21-.06.41-.09.62-.06.18-.16.37-.11.55.11-.09.14-.24.24-.35.02-.02.08-.03.1.01.03.22-.13.45-.07.7-.12.36-.12.84-.52.99-.21-.03.01-.2-.08-.32-.1.07-.22.18-.27.28.16.16-.12.22-.07.38-.28.52-.26,1.18-.26,1.77.15.61-.12,1.3.43,1.74.1.04.24-.02.31.06.25-.03.55.05.74-.12.07-.25.15-.51.09-.76-.24-.38-.79-.42-.94-.86-.35-.91.16-1.8.83-2.41.13-.08.13.15.25.11.06-.12.16-.3.31-.31.12.06.02.21.11.25.15-.11.19-.42.44-.34.06.21.11.42.11.64-.01.16-.11.21-.26.17-.64.28-1.3.76-1.43,1.49.01.3.19.57.43.75.24-.03.22.3.44.25-.07-.12-.24-.26-.22-.4.11.08.28,0,.39.07.21.17.32-.11.45-.24.01-.2.16-.49-.06-.63-.07.1.01.25-.01.36-.02.05-.06.08-.11.07-.07-.04-.1-.11-.15-.17-.08-.02-.17-.12-.25-.08-.01.07.04.09.07.15.1.16-.1.2-.14.3l-.41-.02c-.13-.1-.39-.1-.34-.35-.02-.24.13-.4.24-.58.31-.31.57-.75,1.04-.83.63-.04,1.27-.18,1.83.09l.39.4c.3.24.42.59.47.93.02.11-.1.19-.16.26-.19.05-.45.17-.58-.05-.06-.01-.08.06-.12.08-.21.04-.39-.1-.57-.21-.11-.16-.12-.34-.1-.53h-.03c-.15.21-.29.51-.13.76.19.06.49.03.62.25.1.24-.18.31-.18.5.08-.02.16-.02.22-.06.2-.22.52-.31.79-.46.09-.03.12-.18.22-.13.19-.26.29-.6.49-.83l.07.07c.17.44-.07.86-.38,1.14-.24.22-.64.25-.74.61.07.17.02.4.2.51-.27.18-.62-.07-.9.11.31.07.64.13.95.15.27,0,.52-.13.77-.21.49-.3.25-.89.47-1.32.02-.13-.07-.32.02-.44.31-.09.26.3.52.37.06-.28-.26-.5-.39-.72-.04.05-.04.1-.06.16ZM131.79,54.15c-.16-.16-.54.17-.42-.21.21-.11.46-.19.7-.13l.03.05c-.02.17-.24.17-.31.3ZM132.18,54.25c-.06-.13.02-.29.12-.42.06-.05.16-.07.24-.03.02.16-.01.35-.17.44-.07.01-.12.02-.19.01ZM134.28,58.93c-.03.06-.09.1-.1.16h-.04c-.12-.33-.29-.61-.53-.89-.26-.13-.44-.42-.74-.4-.17-.07-.39-.09-.47-.27-.06-.17,0-.37,0-.56.06-.06.12-.01.18.01.04.04.08.15.16.16.08-.08-.06-.37.17-.28.12.17.26.36.42.49.1-.11-.1-.21.02-.31l.13.02c.15.17.32.34.46.52.05-.02.1-.01.15-.02.21.4.52.93.2,1.38Z"/>
      <path class="st3" d="M137.88,59.22c-.1-.24-.31-.44-.54-.55-.34-.03-.58-.3-.91-.36-.07.01-.1.09-.07.16.18.19.45.28.67.43.38.11.53.54.59.88.05.08,0,.22.09.26.17-.02.09-.22.12-.34.09-.16,0-.3.03-.47Z"/>
      <path class="st3" d="M136.57,59.24c.1.26.17.53.26.79.04.2.21.02.31,0-.02-.31-.27-.66-.57-.79Z"/>
      <path class="st3" d="M137.1,60.55c-.24.21-.13.56-.1.83.2-.13.26-.39.23-.63-.05-.07-.02-.19-.12-.2Z"/>
      <path class="st3" d="M135.84,60.67l-.02.08c.09.27-.02.56.09.82.03.03.08,0,.1-.02.06-.22.16-.49.07-.72-.02-.1-.13-.17-.24-.16Z"/>
      <path class="st3" d="M133.5,62.46c-.07.03-.14.02-.18-.03v-.63c-.01-.06-.07-.14-.13-.1-.18.27-.22.62-.49.83-.06-.09-.19-.06-.27-.1-.16,0-.19.13-.29.2l-.16-.16c-.09-.03-.2-.05-.26.06-.1-.19-.31-.07-.47-.16-.09-.1-.24-.02-.29.07-.11-.19-.18-.41-.2-.65-.04-.06-.02-.18-.12-.19-.13.22-.19.48-.16.77,0,.05.02.15.09.1.11-.02.07.13.15.18.16.12.31-.07.47-.08.18.16.47.15.71.16.29-.03.59-.02.89-.12.08.05.21.08.17.2-.05.12-.19.19-.28.25-.12.27-.44.19-.67.2-.27-.07-.45.13-.75.08-.15-.15-.35-.2-.53-.3-.27-.07-.3-.46-.61-.4l.31.63c.26.2.44.54.67.75.25.38.77.28,1.18.25.12-.06.33-.03.37-.18.42-.44.72-.95,1.02-1.47.03-.1.06-.25.02-.35-.1-.02-.12.14-.18.2Z"/>
    </g>
    <g>
      <path class="st0" d="M128.23,42.73c-.2.09-.35.26-.5.39v.55s.01.01.01.01c.18-.3.34-.63.49-.95Z"/>
      <path class="st0" d="M135.61,42.4c-.06-.1-.16-.02-.21.02-.09.08-.26.16-.26.28.11,0,.19-.06.27-.13.07-.07.21-.03.2-.17Z"/>
      <path class="st0" d="M151.98,60.36l-.29-.61c-.11-.12-.2-.36-.38-.31.17.36.39.74.67.99v-.07Z"/>
      <path class="st0" d="M138.86,40.31c-.13.02-.26.03-.39.06v.58s-.03,0-.03,0c0,0,.01.02.01.02.02.07-.02.12-.06.16v.05c.16-.03.31-.08.47-.14v-.73Z"/>
      <path class="st0" d="M155.38,60.2c.13-.8-.13-1.6-.29-2.36-.06-.17-.08-.38-.18-.5-.03.09-.06.18-.11.25-.07.01-.12-.02-.15-.07l-.17-.57c-.29-.21-.24-.64-.58-.81-.2-.52-.71-.77-1.12-1.08-.11-.26.25-.16.35-.28-.15-.19-.18-.43-.4-.55-.26,0-.44-.28-.71-.18-.2-.29-.37-.62-.67-.84-.12-.26-.42-.45-.67-.5l.13.44c-.01.11-.01.27.07.37.04.08-.02.18-.11.16-.25-.19-.43-.45-.72-.52.06.3.21.56.16.89-.01.06-.08.09-.12.1-.07-.04-.18-.09-.15-.18l-.03.02c-.26-.09-.53-.22-.66-.51-.08-.11-.1-.26.03-.35.01-.19-.2-.33-.35-.43-.08-.07-.2,0-.26-.1-.03-.07.01-.15.06-.2.29-.02.56.01.83-.08.01-.1-.13-.11-.2-.17-.02-.24-.31-.19-.46-.34-.08-.06-.21-.02-.27-.13-.03-.04,0-.1.03-.15.12-.16.31-.19.5-.19,0-.02.01-.07-.01-.09-.47-.13-.74-.67-1.28-.66-.05-.16.18-.16.27-.26.12-.06.31-.03.36-.17-.36-.63-1.04-.93-1.71-1.11-.06-.03-.07-.11-.04-.17.2-.17.47-.24.67-.38l-.34-.36c-.4-.4-.94-.5-1.43-.77-.05-.02-.13-.05-.12-.13.02-.05.08-.03.11-.06.27-.22.62-.35.93-.54l-.03-.07c-.25-.21-.54-.4-.83-.55-.53-.28-.91-.48-1.12-.59.15-.17.41-.17.56-.36h-.02c-.46-.55-1.14-.7-1.78-.86-.08-.04.01-.1.02-.16.09-.15.33-.19.31-.38-.45-.26-.98-.35-1.48-.46-.19-.07-.41-.07-.57-.18.09-.24.34-.3.5-.45-.13-.19-.34-.28-.55-.34-.17-.02-.34-.04-.51-.06-.07,0-.14,0-.19-.02-.48-.06-.96-.11-1.45-.15-.04.12-.18.2-.27.28-.54.04-1.03.15-1.53.34-.03-.05-.06-.09-.02-.14.26-.25.62-.28.97-.36.25-.05.51-.08.77-.13-.09,0-.18-.02-.27-.02l-.22-.02v-.14c-.16.02-.32.05-.47.09v.06h-.15c-.07.01-.13.04-.19.07-.34.02-.62.25-.9.37-.1-.01-.09-.1-.09-.17-.15.01-.25.1-.38.13-.08.06-.21.09-.22.16h.01c.17.09.36-.1.54.01.06.13-.11.2-.14.27.62-.02,1.2-.06,1.83-.02.04.02.08.07.08.12,0,.04-.05.07-.07.1-1.02.1-1.91.51-2.77.97-.26-.18.1-.39-.06-.59-.24.04-.44.15-.59.35-.12,0-.09-.15-.11-.21-.08.01-.18-.04-.18-.17-.12.04-.21.19-.27.3-.02.12-.17.13-.22.02-.07-.27.19-.45.21-.71h-.07c-.3.22-.68.42-.84.79-.06.01-.11.01-.15-.05.09-.26.21-.52.26-.77-.02-.01-.03.02-.06.03-.11.12-.19-.06-.22-.12-.19.35-.28.77-.38,1.18l-.07.09c-.24.06-.17-.24-.35-.27l-.12.14s-.1,0-.13-.03c.02-.63.43-1.1.47-1.71h-.03c-.19.28-.37.56-.49.86-.19.54-.33,1.25-.03,1.77.12.01.13-.15.19-.22.17-.12.18.17.31.16.19-.15.43-.24.6-.4.1-.03.21-.18.31-.09.01.19-.12.38-.1.57h.05c.25-.25.56-.37.83-.56.1.02.08.15.1.21.46-.15.94-.24,1.4-.39.04.04.06.09.04.13-.12.19-.3.34-.3.56.12-.05.26-.06.39-.11.44,0,.82-.09,1.26-.08l.07.03c-.01.06.03.12-.03.16-.15.06-.35.12-.4.28.24.13.53.03.77-.01.18-.02.36-.31.52-.07.59-.18,1.23-.26,1.75-.63.1.07.09.18.11.27.26-.02.49-.26.75-.31.12.08.06.28.13.42.13.06.29-.01.4-.11.43-.07,0,.44.3.53.37.3.45.76.61,1.17.1.01.15-.1.22-.16.03-.03.09,0,.14.02.01.27-.12.46-.2.67.04.04.12-.02.16.06.03.15-.07.26-.12.38-.09.15-.2.3-.27.44.05.03.11,0,.15.03.01.57-.63.93-.97,1.3l-.02.08c.22.16.46.28.63.53.06.42-.37.17-.56.31l.36.62c-.1.16-.3-.02-.4.06.02.56.39,1.01.32,1.57-.13.33-.29-.15-.48-.12-.11-.25-.42-.29-.59-.45-.09-.35-.35-.63-.52-.94.02-.09.12-.11.19-.16.01-.53-.44-.83-.81-1.11-.16-.28-.54-.12-.75-.3.01-.15.16-.22.27-.34-.26-.5-.76-.86-1.26-1.08-.08.07-.01.18-.09.24-.11.06-.18-.03-.26-.1-.46-.58-1.12-1.13-1.91-1.01-.07,0-.03-.06-.05-.1.24-.26.62-.29.94-.28,0-.11-.09-.18-.13-.27-.35-.09-.68-.22-1.07-.11-.13-.07.04-.18,0-.27-.56-.06-1.21-.07-1.72.2-.11.03-.26.12-.33-.04-.2,0-.36.16-.54.24-.18.09-.3.31-.53.3-.22.11-.39.43-.65.38-.03-.21.17-.34.27-.49.06-.13-.08-.1-.13-.17-.04-.01-.15-.03-.13.06-.08.15-.25.01-.37.01-.31-.15-.68-.15-1.01-.26-.06.04-.12.06-.18-.01-.33-.05-.7-.12-1.01-.09-.31-.06-.66.04-1,.07.01.09.13.1.18.16.02.02.07.09.01.12-.27.16-.66.11-.98.18-.06.02-.17.03-.16.13l.4.31c.21.02.18-.34.43-.34.1.13.22.3.2.46-.22.01-.38.15-.61.11-.53.2-1.05.44-1.55.7.02.1.11.22.02.31-.65.33-1.42.45-1.94,1.03-.1.16.13.19.12.34-.68.58-1.5,1.26-1.9,2.08.09.12.25-.02.33.08.02.07-.04.09-.04.13-.29.31-.6.65-.75,1.04-.01.08-.09.19-.04.25.27-.37.68-.75,1.05-1.09.43-.19.68-.58.91-.97-.11-.15-.3.08-.42-.1.08-.27.37-.32.53-.52l-.09-.07c-.02-.08.02-.11.07-.17.28-.16.55-.33.85-.43v-.03s-.08-.03-.13-.02c-.04-.02-.08-.07-.07-.13.36-.25.76-.35,1.17-.47-.01-.08-.11-.17-.02-.25.56-.09,1.21-.12,1.73.09.34.19.73.26,1.03.52.03.06.12.15.03.19-.1,0-.19.12-.27.03-.38,0-.77-.11-1.13-.17l-.13.06s.05.05.05.08c-.21.1-.49.14-.67.28l.02.03c.29-.02.61-.13.92-.06,0,.03-.01.05-.02.07-.46.24-.95.4-1.43.62-.03.14.16.02.13.15-.3.26-.73.37-1.07.58-.05.01-.15.07-.11.13.24,0,.48-.1.72-.12.02.01.06.03.06.06-.38.3-.85.52-1.28.76v.09c.07-.01.15.02.19-.04.08-.03.18,0,.22.07-.31.33-.63.61-.95.92-.04.06-.13.15-.08.24.08-.03.17-.07.21-.16.09,0,.17-.11.26-.06.01.2-.21.26-.31.4-.09.36-.54.4-.54.79.11-.02.19-.09.3-.11.08,0,.12-.11.21-.11.03.07.13.08.13.17-.12.1-.03.28-.19.33-.3.47-.45,1.01-.59,1.56l.05.06c.11-.05.24-.16.35-.06.03.44-.16.77-.15,1.22.3-.24.38-.63.75-.8.03.03.07.07.06.11-.17.28-.29.58-.35.89.28-.24.53-.52.83-.73.06.02.04.08.04.12-.25.35-.35.76-.47,1.17-.03.16-.06.34-.03.47.37-.48.79-.93,1.31-1.24.08-.07.12.06.1.12-.25.46-.49.92-.63,1.43.03.01.06-.02.08-.03.03-.17.22-.27.27-.44.4-.77,1.27-1.32,1.26-2.26-.26.13-.52.28-.73.46-.06.01-.12.11-.16.01.05-.28.2-.53.31-.79.04-.1.15-.18.12-.29-.17.09-.39.04-.53.2-.06.01-.11-.06-.09-.13l.58-.71c.24-.21.46-.4.68-.66.07,0,.16-.03.19-.11h-.03s-.01-.08-.02-.11v.1c-.21-.06-.42.02-.59-.07-.32.1-.61-.06-.92-.07-.08-.11.17-.11.2-.21-.17-.06-.45.02-.56-.18.05-.05.1-.06.15-.09-.08-.09-.21-.03-.28-.15-.02-.09-.02-.21.06-.26.31-.01.7.2.97.02-.09-.04-.19-.1-.28-.16-.02-.05-.07-.12-.01-.18.22-.11.43-.27.67-.35-.07-.22-.39-.13-.46-.35.16-.13.44-.12.68-.12v-.02c-.07-.02-.15-.03-.2-.1-.02-.35.34-.06.52-.15.01-.04-.04-.17.06-.2.2,0,.4.11.61.17l.03-.04c.02-.07,0-.13-.02-.18-.09-.19-.44-.21-.53-.4.22-.24.62-.1.92-.07.06-.02.04-.11.07-.17.2-.15.37.09.56.1-.03-.14-.26-.14-.27-.31.35-.05.58.25.9.29-.02-.13-.21-.2-.24-.35.02-.07.07-.03.13-.05.19.12.38.26.56.35.09-.08.17-.26.33-.21l.08.37c.1.08.2-.18.31-.07v.57c.01.12.18.27.02.38-.06.01-.1.1-.16.02-.1-.03-.19.06-.25.13-.09.12.07.22.03.33-.11.08-.26.02-.36-.05-.11-.25-.28-.58-.61-.62-.17.08-.36-.06-.54-.09-.06-.06-.09-.18-.17-.15-.21.19-.28-.24-.52-.17.01.08,0,.19-.1.2-.02.07.04.09.07.15.17.1.21.4.44.38v-.06s.05-.13.12-.13c.15.16.29-.06.43-.06.15.25.3.48.4.73.16.16.38.28.61.2.43.12.79-.12,1.13-.29.08-.09.06-.24.15-.33.03,0,.08-.01.1.01.04.21-.02.44-.04.65.46-.1.06-.7.35-.95.42-.16.16.42.33.55.1-.09.2-.19.33-.21.16.1.08.35.12.52.16.31.35-.19.56-.01l.51-.5c.17.08.01.25.02.37.12-.03.19-.12.26-.24.11-.13.24-.24.39-.3.03.02.03.07.04.1.15-.08.1-.34.3-.31.08.03-.01.08.03.12.18-.01.16-.22.27-.33.19-.19.45-.28.7-.33-.01.16-.28.21-.25.37.35-.1.66-.25,1.06-.25l.03.04c.03.17-.19.16-.29.21-.16.11-.42.16-.46.33.42-.07.85-.17,1.34-.12.04,0,.08.05.09.08-.13.17-.44.06-.57.21h.16c.21.08.57-.02.63.26-.13.1-.37.03-.47.16.18.08.39.21.43.43.19.03.33-.08.49-.1.18-.06.34-.19.49-.26.1.2-.29.31-.11.56-.04.16-.25.18-.31.3.1.07.18-.07.27.01-.11.13-.28.25-.46.27-.12.15-.35.11-.46.25.22.01.4-.12.61-.09-.07.12-.25.16-.3.28.15.07.3-.08.43.01,0,.05.01.1-.03.12-.33.15-.71.15-1.05.21-.26.02-.53-.09-.76-.01,0,.07.1.11.16.15.31.12.59.36.94.34.08.03.09.1.08.18-.19.16-.48.18-.71.23.24.29.62.37.94.52.06.02.15.09.15.17-.12.17-.4.09-.55.07-.29.08-.52-.19-.76-.02-.05.12.09.21.16.3.24.13.45.31.71.39.2.17.55.15.64.45-.07.07-.17.1-.26.1-.48-.06-.92-.22-1.38-.37v.08c.2.2.36.5.64.61.4.3.96.27,1.38.55.25.16.3.45.46.64.08-.05.02-.13.1-.18-.01-.22-.09-.43-.17-.62-.08-.25-.41-.45-.28-.72.18.04.42.07.48.27.22.16.3.43.46.61.07-.47-.26-.85-.35-1.29-.02-.04-.03-.16.06-.13.07.02.12.1.15.18.03.04.1.04.14-.02.04-.31.07-.57.03-.91.2.08.22.31.3.48.19-.43-.2-.86-.08-1.29.12.07.28.22.34.37.02.03.06.03.09,0-.09-.35-.17-.72-.36-1.02-.03-.09-.08-.22.01-.29.12-.02.25.24.33.06-.2-.58-.42-1.16-.63-1.73.02-.02.05-.09.1-.07.22.26.56.4.73.72.18.52.47,1.01.45,1.59-.05.07-.12.01-.17.03.06.41.19.84.27,1.27.02.28.07.57.03.85-.06.16-.19.01-.21-.02-.01.44.09,1.01-.02,1.5-.06.18-.19.01-.28.04-.07.53-.11,1.01-.38,1.44-.24.06-.04-.27-.16-.36-.11.52-.18,1.04-.52,1.47-.3.09-.02-.34-.19-.45-.2.67-.39,1.35-.89,1.9-.1.12-.08.3-.22.38-.04.05-.13.05-.17,0-.06-.02,0-.09-.03-.12.12-.3.35-.58.31-.94l-.07.04c-.25.45-.52.86-.84,1.27-.18.11-.16-.13-.21-.19-.3.45-.47.98-.77,1.44-.17.31-.47.61-.53.95.5-.15.87-.55,1.31-.85.16-.22.31-.48.47-.7.11-.01.11.12.15.19.02,0,.06.01.07-.01.19-.19.37-.46.53-.69.07-.09.18-.3.32-.17.35-.41.58-.94.88-1.43l.13-.03c.09.02.01.17.11.18.29-.54.56-1.09.76-1.68.03-.09-.03-.21.03-.29.18-.1.19.16.27.2.25-.64.35-1.34.44-2.04.01-.15-.06-.31.04-.44.14-.01.16.13.27.15.08-.37.18-.74.18-1.16.03-.28-.15-.54,0-.81.09-.02.15.06.21.05-.01-.58-.11-1.13-.22-1.68.04-.18.21-.01.33-.05-.17-.63-.31-1.28-.61-1.85-.01-.15-.21-.21-.17-.38.02-.13.17-.07.26-.11.49.24.81.73,1.08,1.19.17.41.35.84.53,1.26-.03.09-.12.07-.19.09.04.5.33.94.33,1.48.01.1.08.27-.05.35-.15.03-.17-.13-.22-.21-.06-.04-.15-.03-.17.04-.03.11.01.22.04.31.04.67.19,1.35.08,2.02l-.06.1c-.1.08-.17-.08-.21-.13-.07.36-.08.74-.15,1.1-.21.53-.21,1.13-.53,1.6-.3.13-.1-.29-.26-.34-.16.64-.36,1.27-.68,1.83-.2.1-.18-.18-.29-.24-.3,1.07-.76,2.08-1.29,3.05-.11.19-.25.43-.26.59.48-.4.77-.91,1.2-1.38.03-.02.08,0,.11.03-.08.51-.34.94-.47,1.44.25-.16.47-.44.64-.68.04-.02.15-.02.15.06-.01.17-.1.38-.02.53.55-.49.8-1.19,1.1-1.82.09-.17.08-.38.21-.53.15,0,.09.19.18.2.12-.25.18-.54.29-.81.1-.2,0-.52.19-.66.1.05.08.19.12.28.19-.35.29-.77.4-1.18.02-.1-.04-.22.07-.3.18-.01.1.26.26.3.29-.67.31-1.47.36-2.22.07-.25-.17-.55.06-.7.03.03.04.07.06.1.07.06.16.13.22.13.18-.54.01-1.17-.02-1.73.04-.4-.25-.66-.25-1.04.19-.13.25.19.43.2-.1-.74-.46-1.37-.72-2.04-.02-.06-.03-.16.04-.2.21.07.35.31.5.4h.01c.06-.56-.2-1.11-.2-1.66,0-.04.03-.12.09-.11.1.12.15.3.2.45.72,1.45,1.17,3.03,1.18,4.76.01.52-.02.95-.03,1.46l-.1.11c-.29-.21-.17-.65-.37-.91l-.02.03.08,1.59c-.15.88-.24,1.76-.46,2.59l-.05.08c-.26.03-.08-.3-.2-.38-.12.76-.18,1.51-.43,2.24-.02.08-.1.11-.17.13-.16.62-.27,1.26-.53,1.83-.08.09-.06.29-.22.27-.12-.07-.11-.25-.12-.37-.02-.09,0-.26-.12-.27-.2.62-.52,1.18-.75,1.77-.11.24-.27.51-.48.64-.12-.06-.06-.19-.07-.3-.04-.1-.01-.28-.13-.3l-.12.31c-.21.42-.39.84-.64,1.23-.56.61-.9,1.35-1.46,1.95-.3.13-.09-.21-.25-.29-.19.13-.35.37-.35.6v-.02c.06-.03.12,0,.15.06v.79c.08-.01.09-.11.16-.17.04.01.11-.02.13.03.01.22-.12.43-.03.64.12-.17.19-.4.37-.52.13.19-.01.43-.02.64l.02.03c.22-.17.33-.41.49-.61.03-.02.11-.06.15.01-.15.79-.29,1.57-.19,2.41h.02c.19-.49.29-1.03.44-1.52.03-.01.11-.02.15.01.09.31.02.71.08,1.03.16-.35.25-.71.33-1.08.04-.03.11-.02.15.03.03.26-.01.55.05.8.09-.15.16-.31.19-.48.16-.16.06-.44.24-.57l.03.03c.05.06.06.16.03.24,0,.18-.07.45.03.58.17-.34.27-.71.45-1.03.07-.1.02-.29.19-.3.16.16-.01.4.1.58.09-.1.15-.25.22-.37.26-.54.4-1.16.55-1.73.03-.05.13-.06.15.02.06,1.22.13,2.49-.37,3.55-.07.07-.07.22-.2.21-.09-.09-.07-.26-.08-.39h-.03c-.15.42-.35.83-.59,1.21-.03.03-.07-.01-.1-.01-.03-.19,0-.42-.03-.58-.24.38-.38.82-.63,1.2-.03.06-.1.18-.2.13-.08-.08-.07-.19-.08-.29-.16.11-.25.29-.35.44h-.09c-.11-.07-.06-.21-.09-.33-.09.05-.17-.01-.26-.03-.11.45-.24.9-.56,1.23-.09.05-.15-.02-.2-.07-.29-.74-.38-1.62-.45-2.42-.03.06-.15.12-.16.2-.05.45-.13.86-.13,1.32.07,0,.07-.15.17-.12.08-.01.11.07.12.12-.03.92-.2,1.85-.27,2.75.3-.29.29-.74.48-1.1.05-.01.11-.02.13.02.06,1.07-.4,2.1-.38,3.13.31-.33.3-.8.52-1.18.06-.04.1.01.13.05.01.73-.09,1.45-.29,2.09.14-.08.2-.28.28-.43.08-.1.09-.27.24-.29.02,0,.06.03.07.07-.11.56-.24,1.06-.45,1.57.15-.12.26-.33.33-.52.04.01.11-.02.15.03l-.02.37c-.09.46-.32.86-.37,1.32h.05c.09-.15.22-.27.3-.45.11-.13.1-.38.27-.45.28.43-.06.88-.02,1.35.01.18.22.17.36.15.03.04.11.07.09.15-.21.31-.44.63-.8.76-.11-.01-.06-.19-.18-.17-.17.16-.38.2-.57.3-.18.04-.35.25-.53.16-.08-.31.26-.46.34-.72l-.08.02c-.26.31-.59.49-1,.52-.06-.08-.02-.24-.03-.32-.1.08-.2.17-.34.19-.11.08-.28.13-.34.27.16.11.08.33.06.48.33-.09.67-.27,1.02-.39.06.06.04.13.04.2-.36.27-.73.49-1.03.84.34-.11.64-.3.99-.38.26-.05.55-.2.8-.07-.01.22-.27.15-.4.23-.33.19-.71.29-.93.63.09.08.18.02.29.05.73-.25,1.37-.71,2.17-.81.11.05.01.16.02.24l.52-.26c.09.09.03.18.08.29.47-.19,1.01-.25,1.36-.67.36-.19.59-.61.85-.92h.09c.08-.02.09.07.1.12.02.07.09.1.15.03.24-.4.31-.88.35-1.37l.07-.08c.24.13.13.46.25.68.33-.29.63-.7.71-1.14.07-.15.24-.06.34-.12.07-.25.08-.47.15-.73.26-.53.52-1.07.61-1.66-.02-.28.13-.62-.08-.83-.22.65-.56,1.26-.8,1.91-.11.18-.19.46-.44.48-.11-.1-.07-.28-.1-.42h-.03c-.11.3-.35.53-.57.77-.18.2-.37.37-.58.46-.07-.05-.06-.1-.04-.16.37-.68.81-1.36,1.01-2.12.06-.36.15-.72.31-1.03.12-.07.13.1.24.14.15-.38.17-.81.19-1.25.08-.12.05-.3.13-.43.16.02.25.2.28.34.08.02.07-.11.11-.16.04-.54.18-1.08.09-1.64,0-.15-.11-.3-.01-.45.03,0,.08-.01.11.01.1.13.15.35.35.35l.07-.72c.01-.27-.15-.58.02-.83.2-.03.16.24.31.27.1-.55.16-1.13.08-1.69.05-.12-.11-.31.08-.38.34.08.19.49.34.65.13-.33.18-.72.18-1.09,0-.21.02-.44.19-.54.13.01.07.17.15.24.2,1.14-.04,2.24-.06,3.4l-.28,1.29-.18.2c-.2.09-.12-.21-.2-.25-.1.2-.03.47-.1.67-.1.24-.07.6-.37.67-.01.21-.03.44.01.65.02.06.01.15.09.16.09-.12.09-.28.15-.43.33-.27.44-.64.7-.95l.06-.22c.25-.46.44-.98.47-1.5.03-.22.07-.48.22-.63.13.02.15.16.2.25.06.02.08-.02.11-.05.17-.73.3-1.54.09-2.31-.19-.08-.11-.34-.17-.51-.03-.33-.17-.63-.13-.94.04-.01.11-.09.15,0,.12.24.35.42.47.66h.05c.04-.35-.05-.64-.09-.98-.09-.33-.42-.57-.38-.94.12-.09.19.07.29.11.35.13.52.52.68.81h.04c.03-.15.03-.3,0-.45.08-.49-.31-.85-.34-1.3.01-.06.07-.11.13-.1.19.11.36.35.44.54.31.35.44.79.63,1.19.02-.77-.29-1.48-.46-2.21-.01-.21-.16-.42-.08-.63.03-.03.09,0,.13.02.11.2.27.4.43.55.09-.35-.15-.7-.21-1.04-.11-.37-.22-.88.06-1.2.03-.03.08.01.11.01.13.35.26.7.44,1.02.02.02.02.1.07.06-.03-.43-.19-.83-.28-1.25-.08-.29-.45-.49-.3-.81.19-.07.22.2.37.27.01-.02.04-.04.03-.09.06-.17-.03-.37.06-.52.04-.03.1-.01.13.02.1.27.26.53.33.81l.07.07c.02-.55-.1-1.08-.26-1.57-.09-.11-.21-.21-.21-.36.07-.37-.11-.71-.17-1.05.04-.11.16-.02.25-.05.1,0,.19.18.27.08.07-.48-.1-.88-.18-1.3-.01-.28-.12-.53-.13-.8.17-.12.36.04.52.06-.02-.63-.2-1.26-.36-1.86-.07-.06-.21-.18-.06-.27.16-.02.31.05.44.06.11-.75-.3-1.35-.44-2.03.08-.07.16-.13.26-.17.04.03.02.08.07.11.02.09.12.16.21.13-.06-.49-.29-.94-.54-1.37-.02-.1-.1-.19.01-.27.07-.04.1-.07.2-.06-.07-.21-.2-.4-.33-.59-.07-.12-.24-.25-.15-.4.1,0,.19.01.27.05.07.02.11.15.18.11-.19-.75-.88-1.21-1.32-1.82-.07-.06-.21-.07-.19-.2.21-.08.01-.45.28-.4.22.13.45.27.67.39.48.49.95,1.11,1.1,1.81.36.48.49,1.07.56,1.67.02.42.25.74.38,1.1.25.42.45.87.63,1.32.01.46.37.84.19,1.31.09.65.12,1.34.19,1.99-.01.12.01.25-.07.34.06.73-.14,1.46-.31,2.14h.04c.12-.16.19-.33.36-.44l.09.07c-.02.31-.21.56-.25.86.27-.03.33-.34.54-.48.07-.09.06-.22.16-.3.03-.03.09.01.12.03.08.67-.1,1.35-.37,1.92-.06.18-.19.35-.21.51.59-.09.89-.71,1.24-1.12l.08-.03s.08.06.08.1c-.13,1.16-.2,2.38-.42,3.51l-.08.11-.1-.07c-.06-.57.07-1.16-.1-1.69-.13.93-.17,1.86-.47,2.72-.05.04-.09.03-.13.01l-.03-.63c-.03-.15.02-.33-.09-.45v.02c-.07.37-.02.85-.11,1.23-.2.43-.24.95-.14,1.44.07.27-.15.45-.06.69.12-.09.26-.26.33-.4.28-.06.07.28.19.42.06.01.1-.03.16-.01.18.01.06.2.11.29l.19-.02c.12.1.05.3.08.44h.09c.09.05.22.1.26.21.03.35.08.72-.03,1.04-.26.38-.33.95-.8,1.14-.11-.05-.07-.18-.1-.27l-.21-.03c-.11-.3.21-.55.1-.84l-.07.06-.3,1.19c-.07.19-.19.37-.19.57.27-.17.49-.48.76-.62.06.03.03.09.04.13-.22.35-.46.7-.67,1.04.17-.03.21-.25.4-.27.03.03.07.06.07.1.43-.31.9-.72.93-1.28.33-.62.61-1.23.74-1.92.03-.14.01-.29.1-.42.09-.53.06-1.1.29-1.59.06-.09-.07-.22.07-.28-.05-.08-.01-.19-.09-.26.02-.6-.21-1.11-.17-1.68.08-.12.2-.03.3-.08-.11-.47-.1-.99-.27-1.44-.18-1.12.4-2.09.31-3.16.03-.55.15-1.09.24-1.6.09-.43.18-.9-.03-1.29.03-.3.11-.66.04-.99.2-.54.13-1.23.11-1.78ZM138.83,43.5c-.4.22-.88.39-1.38.27-.12.03-.3.03-.43,0-.01-.07-.03-.11,0-.18.53-.22,1.14-.33,1.69-.42.12,0,.25.05.33.12,0,.14-.15.12-.21.2ZM125.23,55.17c.22-.22.52-.46.86-.49l.03.03c-.15.39-.56.53-.88.75-.06.06-.12.15-.21.12-.02-.17.12-.28.19-.42ZM127.59,48.08c.45.03.98-.11,1.34.18v.07c-.27.24-.57.02-.85.03-.16-.12-.4-.08-.55-.2.01-.03.01-.09.07-.08ZM129.02,49.02c-.02.19-.15.33-.33.42-.19-.08-.42-.16-.61-.3-.08-.07.08-.2-.09-.21-.3.08-.56-.19-.86-.13-.13-.09-.33-.15-.48-.16-.04-.03-.04-.11,0-.15.39-.18.79-.06,1.22-.06.44.17.97.15,1.32.43.01.12-.12.1-.18.17ZM134.05,48.17h.09c0,.19-.24.17-.33.29-.1.1-.25.17-.31.29.07.34-.31.36-.46.55-.11-.04-.24-.03-.33-.12-.02-.15.12-.2.21-.29.36-.28.71-.57,1.12-.72ZM131.82,47.28c.39-.28.77-.65,1.25-.77v.13c-.36.38-.76.62-1.11,1.07-.09-.03-.12.01-.2,0-.08-.15-.03-.3.07-.43ZM130.78,51.74c-.06.03-.17.07-.19-.02.02-.18-.04-.39.06-.54.09-.06.26-.08.35-.03-.1.19-.11.4-.21.59ZM131.76,48.85c-.13-.01-.09-.19-.1-.29.01-.02-.01-.03-.02-.05-.21.07-.34.29-.49.41-.2-.11-.35-.34-.58-.47-.08-.1-.26-.18-.19-.33.17.08.35.14.52.22.04-.25-.08-.52-.06-.74.01-.03.08-.07.11-.02.08.22.19.43.31.63.11-.1.02-.3.07-.44.06-.08.01-.21.1-.28l.03.02.06.54.06.06c.18-.06.21-.3.45-.27.34-.38.62-.75,1.05-.98.06-.01.12,0,.12.07v.08c-.28.29-.54.62-.71.95.06.06.15.01.22,0,.03.21-.26.26-.38.38l-.57.49ZM135.43,50.98c-.28.08-.59.1-.85.24-.24.19-.63.16-.72.52-.28.03-.48.25-.75.28-.02-.04-.01-.11-.07-.13-.18.13-.3.27-.38.45-.08-.04-.21-.03-.26-.12.02-.08.02-.17-.04-.2-.09-.01-.17-.1-.24.01-.01.03-.05.03-.08.02-.17-.31.2-.54.15-.87.03-.03.07-.08.07-.14-.1,0-.18-.07-.19-.17v-.13c.61-.65,1.14-1.37,1.94-1.8v.12c-.43.34-.84.77-1.11,1.2-.19.2-.39.47-.57.7-.02.06.04.08.07.1.18-.18.28-.44.42-.65l.7-.65c.03.09.03.17,0,.25-.37.42-.76.9-.98,1.41.02.04.07.03.1.01.31-.38.58-.75.96-1.07.05.01.1,0,.12.05-.03.29-.37.44-.34.74.2-.15.4-.29.61-.45.03.07.08.21.17.13.17-.07.31-.35.53-.25-.01.07-.08.15-.06.21.21-.06.47-.2.67-.07.07.08.19.13.13.26ZM136.4,50.24c-.35.03-.61-.18-.93-.12,0-.02-.02-.02-.03-.04-.07.06-.15.1-.25.08-.1-.06-.09-.17-.16-.22-.22.06-.4.19-.56.35-.08-.01-.08-.13-.06-.2,0-.03.07-.08,0-.1-.19.08-.29.26-.46.36l-.1-.02c.15-.39.44-.7.68-1.03.07-.07.17-.07.26-.1.01.06.06.11.12.15.19.02.28-.19.45-.22.26-.15.54-.25.79-.44.05,0,.1.02.09.07-.01.2-.27.19-.38.33-.04.04-.12.07-.13.12.21-.07.47-.13.71-.17-.01.13-.2.13-.29.22-.05.05-.11.09-.12.15.21.01.44-.12.66-.17.02.05.06.1.02.16-.08.07-.21.02-.26.15.25.01.49-.12.74-.1.02.07-.02.11-.04.16.08.09.28,0,.43.01.16-.01.33-.15.47-.04.07.1-.06.16-.12.2-.51.17-1.04.26-1.52.51ZM136.96,50.42c-.02-.07-.12-.12-.07-.21.35-.11.79-.11,1.16-.1l.04.09c-.04.17-.28,0-.4.09-.22.09-.49.09-.73.13ZM138.11,55.35c-.32.06-.65.23-.98.16-.02-.1.08-.19.11-.28.34-.02.63-.01.93-.01.02.04-.02.11-.07.13ZM137.96,50.73c-.18-.08-.4.07-.52-.15l.03-.08c.25.02.58-.09.74.15.02.18-.19.06-.26.08ZM140.31,86.3c-.12.05-.22.13-.38.1-.08-.1-.18-.2-.14-.35.06-.15.2.02.27-.11l.71-.63s.07.01.09.03c.12.41-.33.7-.55.95ZM146.33,68.09c-.08.03-.11.1-.2.06-.06-.02-.11-.15-.17-.06-.3.82-.42,1.73-.93,2.45-.26.01-.18-.27-.33-.39-.21.49-.39.99-.65,1.46h-.08c-.04-.19-.06-.38-.15-.54-.11.17-.13.39-.22.58-.08.18-.2.33-.2.54-.04.02-.09.06-.12.02-.19-.37-.07-.88-.31-1.22-.13-.3.17-.44.24-.68l.08-.09c.09.04.02.25.16.26.21-.52.35-1.08.4-1.67.07-.08.21-.03.3-.01.15.05.02.3.16.3.17-.52.21-1.11.28-1.68.03-.03.08-.03.12-.03.21.36.22.82.31,1.22.07,0,.09-.09.11-.15.12-.73.27-1.44.19-2.22.03-.06.03-.1.11-.12.03.06.12.03.13-.03.02-.21.1-.4.16-.61.2-.07.19.19.27.29-.01.11.12.18.07.3h.01c.18-.18.13-.49.22-.73.07-.46,0-.98.16-1.4.07-.08.19-.13.29-.11v.18c-.11.04.01.28-.16.27,0,.02.03.04.06.07.03.01.08-.01.07-.06,0-.05-.02-.1.03-.13.08,1.36-.02,2.68-.41,3.95Z"/>
      <path class="st0" d="M131.53,43.17l-.02-.03c-.07.05-.12.11-.13.18-.09.4-.03.81.08,1.18.05-.43.08-.89.08-1.32Z"/>
      <path class="st0" d="M139.54,46.01c.06-.09.01-.27.06-.37-.54.03-1.06.21-1.4.61l-.05.45c0,.12.07.21.2.22.34-.35.8-.59,1.19-.91Z"/>
      <path class="st0" d="M123.89,46.02c.16.15.31.34.46.48.08-.06.1-.16.21-.15.24.13.19.4.26.62.11-.05.22-.08.31-.17.13-.04.21.09.29.17.1.06.2-.01.28-.08.09-.09.27-.08.28-.21-.29-.11-.52-.33-.76-.48-.59-.12-1.14-.41-1.75-.44.03.11.07.22.13.33.1.1.18-.07.28-.07Z"/>
      <path class="st0" d="M121.92,51.48v-.13c-.31.16-.57.45-.76.74.27-.05.35-.27.58-.37-.09-.17.15-.11.18-.24Z"/>
      <path class="st0" d="M121.73,54.7c.09.01.16-.08.21-.13.16-.21.35-.39.52-.62.24-.3.53-.59.64-.95l-.02-.07c-.27.22-.62.5-.82.82-.09.15-.28.29-.25.48.15.3-.29.21-.28.47Z"/>
      <path class="st0" d="M120.99,53.4c-.05.07-.1.17-.05.25l.3-.24c.02-.13.1-.26.04-.4-.13.09-.22.25-.3.39Z"/>
      <path class="st0" d="M122.57,54.71c-.29.19-.47.56-.72.82l-.04.16c.13.14-.03.28-.06.42-.03.11-.1.25-.06.35l.24-.42c.39-.34.53-.84.64-1.33Z"/>
      <path class="st0" d="M139.53,56.86c-.07.19,0,.44.06.62.12-.12.04-.37.07-.56-.01-.06-.07-.06-.12-.06Z"/>
      <path class="st0" d="M125.76,59.15h.02c.71-.58,1.21-1.38,1.41-2.24-.09-.02-.15.08-.21.11-.52.64-1.1,1.32-1.22,2.13Z"/>
      <path class="st0" d="M122.13,57.06c-.24.31-.12.77-.13,1.19.01,0,.03,0,.03-.02.08-.3.5-.67.13-.95l-.03-.21Z"/>
      <path class="st0" d="M126.24,59.56v.08s.21-.09.21-.09c.2-.18.43-.24.56-.49.22-.31.4-.65.47-1.03h-.03c-.37.52-.76,1.02-1.21,1.54Z"/>
      <path class="st0" d="M122.71,60.02c-.01-.33-.18-.62-.08-.94-.03-.1.03-.47-.16-.27-.18.43-.06.98.21,1.27l.02-.06Z"/>
      <path class="st0" d="M133.4,68.29c-.1-.01-.07-.12-.09-.19.29-.73.68-1.39,1.02-2.1.38-.39.66-.92.85-1.45.02-.16.16-.3.1-.47-.08-.02-.08.07-.13.1-.16.43-.56.81-.95.98-.07-.03-.09-.12-.08-.21.12-.7.55-1.29.57-2.03,0-.11.13-.1.2-.08.24-.37.28-.87.27-1.32,0-.18.02-.45-.11-.61-.13.31-.12.68-.29.99-.17.09-.16-.16-.27-.19-.08.34-.06.7-.17,1.02-.59.84-1.12,1.73-1.28,2.75-.13.33.12.9-.27,1.08-.06-.01-.06-.1-.11-.11v.04c0,.08-.1.13-.16.11-.15-.16-.34-.24-.54-.27-.08.18.02.36.01.54-.09.17-.21-.05-.33.02-.06.33.03.63.08.93.07.14.05.33.16.43.03-.02.02-.06.07-.08.04-.01.13-.03.17.05.01.36.03.72.08,1.08l-.07.11c-.16.07-.28-.12-.38-.03.13.53.18,1.11.48,1.57.15-.01.12-.26.22-.36.03-.02.1-.03.13.01l.06.75.09.1c.21-.72.19-1.53.43-2.22.17-.43.4-.78.55-1.21-.16.02-.12.27-.31.28ZM133.79,64.62c.12-.48.25-.97.4-1.44.08.02.18,0,.22.08.07.44-.25.76-.3,1.18-.12.19-.22.4-.35.57-.11-.11.03-.25.02-.39Z"/>
      <path class="st0" d="M151.51,61.05h-.03c.19.58.27,1.22.63,1.72,0-.01,0-.02.01-.03,0-.64.09-1.4-.61-1.68Z"/>
      <path class="st0" d="M123.5,62.03c-.13.75.02,1.57.12,2.31.07.32.11.68.29.94.04-.74-.04-1.49,0-2.24.09-.39-.28-.68-.42-1.01Z"/>
      <path class="st0" d="M151.41,62.43c.07.77.01,1.6.04,2.39h.05c.18-.27.28-.57.39-.88-.12-.54-.09-1.13-.46-1.58l-.02.07Z"/>
      <path class="st0" d="M127.94,67.11c-.06,0-.1-.01-.13-.07l-.43-1.18c.02-.47-.16-.9-.2-1.36l-.09-.09c-.08.16.03.37-.08.52-.13-.01-.13-.19-.21-.27-.08-.31-.17-.62-.27-.92l-.08.09c-.03.35.12.66.2.99.07.15.06.34.21.44.27.98.82,1.86,1.44,2.65l.02-.06c-.15-.27-.17-.61-.3-.85l-.08.11Z"/>
      <path class="st0" d="M125.03,65.22c-.19-.22-.22-.49-.34-.75-.08-.08-.08-.27-.25-.22-.02.45.03.91.17,1.31.15.42.26.91.54,1.2-.01-.15-.11-.31-.02-.46-.03-.36-.02-.73-.1-1.08Z"/>
      <path class="st0" d="M138.7,64.33c-.67,1.23-1.59,2.38-2.27,3.63-.03.15-.19.27-.17.43.29-.16.54-.53.75-.75.73-.85,1.29-1.87,1.69-2.91-.02-.13.17-.31-.01-.39Z"/>
      <path class="st0" d="M131.21,65.03c-.01-.1-.2-.2-.25-.05.01.27.11.57.27.77l-.02-.73Z"/>
      <path class="st0" d="M132.39,65.12c-.07.08-.1.21-.07.34.09.3.07.65.31.9-.04-.34-.09-.81-.07-1.27-.05-.09-.11.03-.18.03Z"/>
      <path class="st0" d="M129.63,65.34c-.11.39-.07.74.01,1.13.01.06.02.13.1.13.09-.34.11-.77.08-1.14-.03-.08-.11-.11-.19-.12Z"/>
      <path class="st0" d="M126.1,67.51c-.06-.35-.15-.67-.17-1.04-.07-.31.11-.79-.16-1.01-.13.72-.03,1.47.33,2.05Z"/>
      <path class="st0" d="M130.92,66.51c-.06-.17-.17-.37-.36-.43-.2.58.07,1.13.19,1.67.01.12.08.22.15.3.05-.47.01-1.03.02-1.55Z"/>
      <path class="st0" d="M126.61,67.37c-.08-.29-.15-.6-.34-.86-.04.35.13.64.16.97.1.4.15.86.41,1.18l-.24-1.28Z"/>
      <path class="st0" d="M138.72,69.19c.23-.26.35-.59.53-.9.2-.2.15-.5.31-.73.07-.21.19-.48.1-.7-.31.45-.7.8-1.03,1.22-.07.12-.19.2-.31.24-.09-.14,0-.36.03-.54l-.06.05c-.27.55-.54,1.09-.75,1.66v.13-.02c.24-.2.29-.53.51-.72.06,0,.09.07.1.11-.12.3-.36.57-.39.9.53-.51.72-1.19,1.2-1.73.03-.01.06.02.08.05-.14.31-.24.66-.33.98h.01Z"/>
      <path class="st0" d="M129.7,67.48c-.02.36.13.66.21,1,.02.1.11.24.19.25,0-.36-.11-.75-.22-1.11-.04-.06-.08-.19-.18-.14Z"/>
      <path class="st0" d="M135.79,67.96l-.16.15c-.1.07-.19,0-.27-.06-.47.62-.8,1.32-1.08,2.03h.03c.53-.64,1.2-1.23,1.47-2,0-.04.06-.1,0-.12Z"/>
      <path class="st0" d="M129.39,68.17c-.1.12-.06.34-.04.49.12.29.26.6.46.84-.06-.35-.17-.71-.26-1.07-.02-.1-.04-.27-.16-.27Z"/>
      <path class="st0" d="M127.88,68.85c-.13-.16-.17-.39-.34-.5.21.67.36,1.4.81,1.96-.07-.51-.09-1.08-.47-1.46Z"/>
      <path class="st0" d="M133.5,70.43c.07-.01.08-.09.13-.13.21-.52.39-1.07.43-1.64l-.15.25c-.18.49-.38.98-.42,1.53Z"/>
      <path class="st0" d="M131.23,69.63c-.12.64.18,1.18.42,1.71.02.08.12.13.17.15-.07-.35-.19-.72-.27-1.08-.1-.26-.17-.55-.31-.77Z"/>
      <path class="st0" d="M130.01,71.8c.06.04.18.07.09.16h.06c.01-.39-.07-.76-.19-1.09-.22-.12-.43-.37-.62-.59h-.11c.19.54.49,1.02.77,1.53Z"/>
      <path class="st0" d="M131.44,72.19c-.18-.36-.28-.77-.58-1.05-.1.1-.03.29,0,.41.09.19-.02.43.16.58.06.36.34.63.55.89.09.04.07.25.2.16-.06-.19-.1-.39-.21-.56.08-.16-.16-.25-.11-.43Z"/>
      <path class="st0" d="M125.83,71.59c-.04.11-.03.27-.02.4.16.74.3,1.49.71,2.14h.02c.02-.46-.11-.99-.21-1.44-.25-.34-.21-.81-.49-1.11Z"/>
      <path class="st0" d="M127.41,74.25s.03-.11.04-.17c-.11-.59-.17-1.3-.58-1.78l-.02.03.22.82c.1.37.18.76.34,1.1Z"/>
      <path class="st0" d="M137.16,74.14c.17-.59.45-1.16.43-1.78-.32.48-.46,1.07-.49,1.67.02.03,0,.12.07.11Z"/>
      <path class="st0" d="M129.63,79.63c.1-.11.18.04.28.03v-.07c-.42-.86-.92-1.69-1.19-2.61l-.07-.04c0,.34.16.61.2.93,0,.03-.03.07-.07.06-.35-.57-.56-1.18-.86-1.76l-.06-.02c-.03.25.06.51.11.74.06.22.33.41.22.65-.03,0-.08.01-.11-.01-.25-.37-.48-.75-.67-1.14-.17-.09-.34-.19-.49-.3l-.55-1.03c-.09-.04-.2,0-.27,0l-.27-.41c-.2-.11-.07.17-.18.22-.05,0-.09.01-.12-.02-.17-.38-.3-.8-.45-1.18-.08.17-.09.4-.05.59-.02.15.1.35-.06.44-.11,0-.21-.09-.28-.2-.33-.56-.66-1.17-.81-1.82l-.07-.07c-.02.15.01.31-.08.43-.19.07-.16-.17-.28-.19l.03.89-.08.12c-.19.11-.17-.17-.28-.24-.15-.19-.2-.45-.37-.61-.03.19-.03.38,0,.57-.03.25.09.53-.04.74-.15.01-.17-.17-.25-.24,0,.46.25.85.35,1.3.08.28.38.51.33.81-.22.01-.33-.28-.54-.27.08.51.3.95.48,1.41-.09.24-.24-.06-.39-.01.02.28.1.54.2.8h.04s.02-.07.06-.09c.06-.02.11,0,.16.03l.34.81c.1-.01.09-.18.18-.25.06-.01.11-.05.16.03.05.46.27.85.38,1.29l.07.07c.01-.48-.1-1.06.09-1.52.05-.06.1.02.12.06.08.94.31,1.81.79,2.59-.09-.37-.15-.73-.33-1.05.02-.15-.08-.42.13-.47.18.02.09.26.15.35.42.92.67,1.98,1.54,2.66l.09.02c.03-.09-.01-.18-.07-.25-.36-.38-.59-.83-.77-1.31-.04-.2-.18-.43.01-.59.12-.06.18.04.27.11.18.45.42.85.73,1.26.35.21.68.45,1.08.58l.02-.02c-.24-.68-.55-1.33-.82-2,.01-.05.03-.11.09-.11.3.29.47.65.74.98.27.27.43.64.77.81.19,0-.03-.19.03-.33.02-.05,0-.18.11-.13.28.12.54.34.84.36.09-.22-.12-.47.03-.7.16.03.3.1.46.15.02-.02,0-.06.01-.09-.27-.43-.48-.88-.73-1.31-.06-.11-.12-.27-.06-.41ZM124.22,74.98c-.18-.56-.55-1.09-.48-1.72.01-.07.13-.06.17-.02.17.58.43,1.13.42,1.77-.05.04-.06-.04-.1-.03ZM127.71,82.04s-.1.03-.13.01c-.37-.42-.65-.93-.91-1.43v-.29c.76.25.84,1.08,1.04,1.71ZM129.46,79.52l-.11-.04c-.26-.36-.52-.71-.73-1.09-.01-.1.01-.21.11-.27.11-.01.23.08.27.17.16.35.27.72.47,1.04,0,.06.03.13-.01.19Z"/>
      <path class="st0" d="M136.51,72.79l-.04.07c-.03.25-.1.49-.11.75.03-.03.09,0,.11.02.03-.29.09-.57.04-.84Z"/>
      <path class="st0" d="M135.68,73.29c-.08.56-.19,1.12-.11,1.68.02-.02.06-.01.07-.02.16-.53.26-1.13.29-1.72l-.04-.27c-.17,0-.12.22-.2.33Z"/>
      <path class="st0" d="M136.33,74.35c.12-.17.11-.44.13-.67-.05,0-.08.09-.13.08-.02.2-.02.39,0,.59Z"/>
      <path class="st0" d="M127.91,73.89c-.03.29.03.61.15.88.03.02.11.01.12-.05,0-.24-.06-.45-.11-.67-.05-.06-.08-.15-.16-.16Z"/>
      <path class="st0" d="M129.64,77.73l-.03.12c.06.27.09.54.28.75.03.05.11.05.15,0-.04-.28-.16-.56-.27-.83-.02-.06-.09-.01-.12-.04Z"/>
    </g>
    <g>
      <path class="st4" d="M111.14,40.01c.17-.05.64-.2.64-.2v3.8s0,.17,0,.17l-.85.3-1.1.4.02-11.32v-.22s1.03-.1,1.03-.1l.93-.09s0,1.15,0,1.44c.35-.05,1.1-.15,1.38-.19,0-.37.01-4.14.01-4.56h-3.44c-.51,0-.85.27-1.12.9-.33.74-.45,1.71-.45,3.68v11.04c0,1.84.21,2.9.63,3.15.18.11.45.07.81-.12.89-.47,1.92-.94,2.83-1.36,0,0,.57-.26.77-.35,0-.28.03-9.39.03-9.94-.42.08-1.8.35-2.09.41,0,.32,0,2.66,0,3.18Z"/>
      <path class="st4" d="M120.58,39.03c0-1.01-.03-1.22-.17-1.52-.15-.32-.31-.45-.66-.54l-.47-.12.38-.31c.75-.61.96-1.08.96-2.23v-1.19c.02-.94-.14-1.56-.47-1.88-.22-.22-.54-.32-.98-.31,0,0-3.59.12-4.01.14,0,.35,0,2.01,0,2.45.13-.03.55-.11.55-.11l-.03,8.29v.18s-.38.12-.54.17c0,.28,0,2,0,2.42.7-.34,1.41-.66,2.13-.96,0-.26.03-5.08.03-5.08v-.19s1.71-.42,1.71-.42l-.02,3.87c0,.6.04.93.14,1,.03.02.14.04.47-.07,0,0,1.25-.4,1.53-.49,0-.27.01-1.69.01-1.98-.11.03-.54.17-.54.17v-1.29ZM118.89,35.6v.2s-1.71.3-1.71.3l.02-2.89v-.22l1.44-.15h.27s-.02,2.75-.02,2.75Z"/>
      <path class="st4" d="M122.6,32.8c.14-.02.55-.08.55-.08l-.05,6.91v.21s-.39.06-.55.09c0,.3-.01,1.51-.01,1.94.87-.24,1.75-.45,2.65-.63,0-.28,0-1.4.01-1.81-.08.02-.48.11-.48.11l.05-6.92h.48c0-.34,0-1.47.01-1.82-.39,0-2.27.04-2.64.05,0,.31-.01,1.61-.01,1.94Z"/>
      <path class="st4" d="M130.33,38.65v.22s-1.91.18-1.91.18l.17-.38c.84-1.86,1.73-3.77,2.89-6.19,0-.09,0-1.36,0-1.73-.42,0-4.31.04-4.72.04,0,.36-.01,2.24-.02,2.56.31-.02.91-.05,1.19-.07,0-.12,0-.78,0-.78l1.72-.06-.17.36c-1.07,2.29-2,4.37-2.86,6.36,0,.01,0,1.47-.01,1.9,1.61-.29,3.26-.49,4.92-.6,0-.34,0-2.31,0-2.71-.31.02-.93.05-1.21.07,0,.28,0,.84,0,.84Z"/>
      <path class="st4" d="M136.78,37.69c0,.14,0,.79,0,.79v.25s-1.9-.02-1.9-.02l.96-1.97s2.02-4.17,2.06-4.26c0-.1,0-1.45,0-1.73-.42,0-4.31,0-4.72,0,0,.37,0,2.02,0,2.39.3,0,.9-.01,1.19-.01,0-.22,0-.5,0-.5v-.24s1.72,0,1.72,0l-.62,1.28s-2.34,4.86-2.38,4.96c0,.09,0,1.42,0,1.8,1.64-.08,3.29-.07,4.93.03,0-.39,0-2.42,0-2.71-.29,0-.9-.03-1.21-.04Z"/>
      <path class="st4" d="M143.05,37.33c0,.33,0,1.59,0,1.59v.27s-1.44-.17-1.44-.17l-.04-6.56s.4.04.54.05c0-.37,0-1.41,0-1.74-.37,0-2.32-.02-2.7-.02,0,.29,0,1.38,0,1.68.15,0,.55-.02.55-.02l.02,6.19v.29s-.41-.05-.55-.07c0,.37,0,1.38,0,1.68,1.73.14,3.45.38,5.13.72,0-.48-.02-3.35-.02-3.71-.28-.03-1.14-.13-1.5-.18Z"/>
      <path class="st4" d="M148.17,40.04l-.05-7.25s.38.06.48.07c0-.34-.01-1.68-.01-1.99-.37,0-2.25-.05-2.64-.05,0,.35.01,1.52.01,1.86,0,0,.55,0,.55,0l.05,6.71v.31s-.43-.1-.55-.13c0,.43.01,1.58.01,1.85.89.2,1.78.43,2.65.69,0-.42-.01-1.75-.01-1.98-.13-.02-.48-.08-.48-.08Z"/>
      <path class="st4" d="M154.04,39.91c0,.24,0,1.36,0,1.36v.34s-1.65-.56-1.65-.56l-.02-2.87v-.32s1.21.32,1.61.42c0-.43,0-1.62,0-1.91-.3-.06-1.61-.31-1.61-.31l-.02-2.64v-.27s1.66.19,1.66.19c0,0,0,1.17,0,1.47.26.05.93.16,1.28.22,0-.47-.01-3.63-.01-3.96-.41-.01-4.67-.15-5.11-.17,0,.25.01,1.71.01,2.06.15,0,.55.01.55.01l.05,7.27v.34s-.44-.14-.54-.18c0,.47.01,1.78.01,2.04,1.77.58,3.5,1.28,5.15,2.1,0-.63-.01-3.89-.01-4.19-.22-.07-.97-.31-1.35-.44Z"/>
      <path class="st4" d="M160.2,36.93l-1.73-.35v-3.54s0-.27,0-.27l1.7.18s0,1.37,0,1.6c.27.04,1.07.17,1.42.23,0-.49,0-4.91,0-5.33h-3.21c-.94,0-1.44.63-1.43,3.88v2.21c.02,3.09.59,3.89,1.51,4.17l1.71.52v3.92s0,.36,0,.36l-1.69-.69s0-1.49,0-1.77c-.22-.08-1.03-.35-1.43-.49,0,.52.01,4.57.01,4.84,1.08.51,2.18,1.07,3.28,1.66.62.33.77.24.98-.03.35-.47.5-1.35.5-2.96v-3.97c0-2.65-.5-3.93-1.63-4.15Z"/>
      <path class="st4" d="M119.01,25.16s-1.4-3.55-1.49-3.77h-1.53v1.27c.1,0,.41-.02.41-.02v4.96s-.31-.02-.41-.02v1.27h1.5v-4.93s1.26,3.08,1.53,3.74c.27-.66,1.53-3.74,1.53-3.74v4.93h1.5v-1.27c-.1,0-.41.02-.41.02v-4.96s.31.02.41.02v-1.27h-1.52c-.09.23-1.51,3.77-1.51,3.77Z"/>
      <path class="st4" d="M126.87,27.12v-4.01c0-.65-.06-.99-.23-1.26-.19-.31-.48-.46-.89-.46h-1.38c-.4,0-.69.15-.89.46-.17.27-.23.61-.23,1.26v4.01c0,.65.06.99.23,1.26.19.31.48.46.89.46h1.38c.41,0,.69-.15.89-.46.17-.27.23-.61.23-1.26ZM125.69,27.58h-1.26v-4.94h1.26v4.94Z"/>
      <path class="st4" d="M131.38,26.13s-1.67-4.51-1.75-4.74h-1.54v1.27c.1,0,.41-.02.41-.02v4.96s-.31-.02-.41-.02v1.27h1.49v-4.72s1.66,4.48,1.74,4.72h1.52v-1.27c-.1,0-.4.02-.4.02v-4.96s.3.02.4.02v-1.27h-1.46v4.74Z"/>
      <path class="st4" d="M133.89,23.88h.72v-1.23h.99v4.95s-.31-.02-.41-.02v1.27h1.98v-1.27c-.1,0-.4.02-.4.02v-4.95h.98v1.23h.73v-2.49h-4.59v2.49Z"/>
      <path class="st4" d="M140.64,26.94h1.25s.16,1.62.19,1.9h1.51v-1.27c-.1,0-.38.02-.38.02,0,0-.83-5.89-.88-6.21h-2.15c-.04.32-.85,6.21-.85,6.21,0,0-.28-.02-.38-.02v1.27h1.52c.03-.29.18-1.9.18-1.9ZM141.07,22.67h.38s.38,3.29.38,3.29h-1.13l.36-3.29Z"/>
      <path class="st4" d="M147.91,26.13s-1.67-4.51-1.75-4.74h-1.54v1.27c.1,0,.41-.02.41-.02v4.96s-.31-.02-.41-.02v1.27h1.49v-4.72s1.66,4.48,1.74,4.72h1.52v-1.27c-.1,0-.4.02-.4.02v-4.96s.3.02.4.02v-1.27h-1.46v4.74Z"/>
      <path class="st4" d="M152.12,26.94h1.25s.16,1.62.19,1.9h1.51v-1.27c-.1,0-.38.02-.38.02,0,0-.83-5.89-.88-6.21h-2.15c-.04.32-.85,6.21-.85,6.21,0,0-.28-.02-.38-.02v1.27h1.52c.03-.29.18-1.9.18-1.9ZM152.55,22.67h.38s.38,3.29.38,3.29h-1.13l.36-3.29Z"/>
    </g>
    <g>
      <path class="st1" d="M131.79,54.15c.08-.13.29-.13.31-.3l-.03-.05c-.24-.06-.48.02-.7.13-.12.38.26.06.42.21Z"/>
      <path class="st1" d="M126.68,80.33v.29c.25.49.53,1.01.9,1.43.03.02.11.03.13-.01-.2-.63-.28-1.46-1.03-1.71Z"/>
      <path class="st1" d="M123.74,73.26c-.07.63.3,1.16.48,1.72.04-.01.06.08.1.03.01-.64-.25-1.19-.42-1.77-.03-.03-.16-.04-.17.02Z"/>
      <path class="st1" d="M129,78.29c-.04-.09-.16-.18-.27-.17-.1.06-.12.17-.11.27.21.38.47.73.73,1.09l.11.04c.05-.06.01-.13.01-.19-.2-.32-.31-.7-.47-1.04Z"/>
      <path class="st1" d="M125.25,55.47c.31-.22.73-.36.88-.75l-.03-.03c-.35.03-.64.27-.86.49-.07.13-.21.25-.19.42.09.02.16-.07.21-.12Z"/>
      <path class="st1" d="M132.39,56.97c0,.19-.06.39,0,.56.08.18.3.2.47.27.3-.01.48.27.74.4.24.28.4.56.53.89h.04c.01-.06.07-.1.1-.16.31-.45.01-.98-.2-1.38-.05.01-.1,0-.15.02-.13-.18-.31-.35-.46-.52l-.13-.02c-.12.1.08.2-.02.31-.16-.13-.29-.33-.42-.49-.22-.09-.09.2-.17.28-.08-.01-.11-.11-.16-.16-.06-.02-.12-.07-.18-.01Z"/>
      <path class="st1" d="M132.37,54.24c.16-.09.19-.28.17-.44-.08-.03-.18-.01-.24.03-.1.12-.18.28-.12.42.07.01.12,0,.19-.01Z"/>
      <path class="st1" d="M137.03,43.59c-.03.07-.01.11,0,.18.12.03.3.03.43,0,.5.12.98-.04,1.38-.27.07-.08.21-.07.21-.2-.08-.08-.2-.12-.33-.12-.55.09-1.17.19-1.69.42Z"/>
      <path class="st1" d="M128.92,48.33v-.07c-.36-.29-.89-.15-1.34-.18-.06-.01-.06.04-.07.08.15.12.39.08.55.2.28-.01.58.2.85-.03Z"/>
      <path class="st1" d="M140.77,85.31l-.71.63c-.07.13-.21-.03-.27.11-.04.15.06.25.14.35.16.03.26-.06.38-.1.22-.26.67-.54.55-.95-.02-.02-.06-.05-.09-.03Z"/>
      <path class="st1" d="M146.71,64.27s-.03.07-.07.06c-.02-.02-.06-.04-.06-.07.17.01.05-.23.16-.27v-.18c-.1-.02-.22.03-.29.11-.16.43-.09.94-.16,1.4-.09.24-.04.55-.22.74h-.01c.06-.13-.08-.2-.07-.31-.08-.1-.07-.36-.27-.29-.06.2-.13.39-.16.61-.01.07-.1.09-.13.03-.08.02-.08.07-.11.12.08.79-.07,1.49-.19,2.22-.02.06-.05.15-.11.15-.09-.4-.1-.86-.31-1.22-.04,0-.09,0-.12.03-.07.57-.11,1.17-.28,1.68-.13,0-.01-.26-.16-.3-.09-.02-.24-.07-.3.01-.06.59-.19,1.16-.4,1.67-.13-.01-.07-.21-.16-.26l-.08.09c-.07.25-.37.38-.24.68.25.35.12.85.31,1.22.03.03.08,0,.12-.02,0-.21.12-.36.2-.54.09-.19.11-.41.22-.58.09.16.1.35.15.53h.08c.26-.46.44-.95.65-1.45.15.12.07.4.33.39.52-.72.63-1.63.93-2.45.06-.09.11.03.17.06.09.04.12-.02.2-.06.39-1.27.49-2.59.41-3.95-.06.03-.03.09-.03.13Z"/>
      <path class="st1" d="M134.42,63.26c-.05-.08-.15-.06-.22-.08-.16.47-.28.95-.4,1.44.01.15-.13.28-.02.39.12-.17.22-.38.35-.57.06-.42.37-.74.3-1.18Z"/>
      <path class="st1" d="M126.66,48.49s-.04.11,0,.15c.16.01.35.07.48.16.3-.06.56.21.86.13.17.01.01.15.09.21.19.15.42.22.61.3.18-.09.3-.23.33-.42.06-.07.19-.05.18-.17-.36-.28-.89-.26-1.32-.43-.44,0-.83-.12-1.22.06Z"/>
      <path class="st1" d="M155.97,57.21c-.1-.56-.7-.85-.95-1.34-.12-.16-.39-.24-.47-.43.15-.02.19.07.32.09.12-.03-.01-.13.01-.22-.26-.3-.33-.72-.66-.99-.08-.13.18-.11.07-.27-.44-.61-1.09-.97-1.63-1.45l.07-.08c-.13-.11-.21-.31-.37-.44.02-.26-.43-.22-.3-.49l-.08.09c-.19-.13-.39-.26-.56-.4-.66-.36-1.39-.79-1.89-1.4-.21-.31-.53-.58-.8-.83.08-.17.43.07.39-.2-.34-.65-1.02-1.08-1.53-1.59.13-.17.32.08.43-.16-.11-.31-.37-.58-.64-.8-.22-.3-.63-.52-.85-.84.07-.08.2-.02.27-.06.06-.02.02-.09.03-.13-.39-.53-.88-.99-1.41-1.32-.14-.09-.31-.09-.4-.24.02-.03.04-.04.09-.04.11.01.12-.12.09-.2-.33-.27-.76-.31-1.04-.63.05-.05.11-.05.17-.06.02-.02.02-.04.03-.06.05.01.1.02.15.03l.29.06v-1.06s-.01,0-.01,0c-1.82-.38-3.69-.64-5.58-.78l-.22-.02v-1.58c-.06,0-.1-.01-.1-.01v.27s0,.09,0,.09h-.39v.66c.13-.02.26-.04.39-.06v.73c-.15.06-.3.11-.46.14v-.05s.08-.09.06-.16c0,0,0-.02-.01-.02h-.05s-.18-.01-.18-.01c-1.78-.12-3.6-.12-5.38-.03h-.15s-.11.01-.11.01v-1.2c-.13.07-.28.15-.44.23v-1.61s-.11,0-.11,0v2.56s-.23.01-.23.01c-1.81.11-3.61.33-5.36.66v1.06s.28-.05.28-.05c.56-.1,1.12-.19,1.69-.28-.13.1-.25.2-.38.31l.02-.24-.29.18c-.02.14-.04.29-.06.43-.18.06-.13.25-.25.35-.39.37-.36.95-.67,1.35h-.02c-.06-.11.03-.34-.13-.3-.13.44-.31.82-.36,1.3l-.07.07c-.28.01-.43-.21-.66-.33-.46-.35-1.08-.34-1.55-.68-.15-.09-.12.11-.16.18-.08.06-.08-.05-.13-.07-.22-.05-.37-.28-.59-.31-.08.06,0,.2-.12.26-.15.1-.25-.11-.37-.13-.19.09-.18.33-.24.5-.03.18-.17.01-.26,0-.16.11-.18.31-.24.47-.06.21-.29.15-.38.29-.33.42-.28.98-.24,1.49-.09.09-.22.03-.3.15.02.31.34.35.53.56-.06.08-.11.14-.2.17-.1.1-.36.13-.35.3.22.01.47-.03.67.1-.01.24-.46.21-.31.42.16-.01.3.11.45.16v.03c-.15.16-.34.26-.51.42-.17.21-.43.37-.45.65.08-.01.15,0,.22.01.05.05.15.02.12.12l-.61.68c-.22.34-.62.62-.62,1.02h.29c.07,0,.06.07.06.11-.26.4-.42.88-.65,1.3-.02.08-.07.19-.01.27.15-.02.25-.15.39-.16.02.02.03.06.06.08-.1.65-.25,1.29-.34,1.94.07.3.28-.12.44,0-.1.7-.36,1.4-.29,2.1.11.1.17-.09.28-.08l.04.08c0,.55-.12,1.17-.06,1.72l.08.09c.11.06.18-.16.28-.12.11.73.08,1.47.45,2.1.22.27-.08.57-.15.85-.25.71-.57,1.38-.66,2.15.07.11.3.03.33.21-.18.95-.31,1.9-.46,2.84-.02.26.19.06.29.11-.08.57-.26,1.1-.36,1.66-.02.52-.24,1.04-.13,1.57.12.01.22-.26.37-.18-.11.82-.17,1.62-.1,2.47.06.53.03,1.04.22,1.51.17-.01.15-.2.25-.29.09.5.08,1.08.21,1.58.18.1.21-.2.38-.15.13,1.02.2,2,.43,3,.25.12.26-.22.43-.31l.06.06c.16.81.47,1.55.82,2.26.07.09.07.28.24.2l.03-.21s.08-.15.16-.1c.36.79.51,1.69,1.14,2.37.1-.07.1-.24.2-.33.02,0,.06,0,.08.01.36.7.76,1.4,1.37,1.94.15.06.11-.18.24-.2.39.49.8,1.11,1.31,1.5l.12.03c.08-.03.02-.16.08-.21.11.06.2.12.27.22.44.19.83.47,1.29.56.13.07.35.03.37-.15.33-.06.66.02,1.01.01.56-.08,1.09-.13,1.62-.31.58-.31,1.17-.62,1.67-1.13.48-.52.77-1.12.91-1.8.13-.44.02-.9-.21-1.28-.08.01-.17-.07-.22.01-.05.25.03.47-.07.71-.1.3-.27.61-.52.81-.04-.02-.03-.07-.06-.1.11-.31.18-.66.2-1.02-.05-.25-.05-.57-.3-.67-.03.04-.08.09-.1.13,0,.35-.08.65-.24.93-.09.05-.18.18-.27.06,0-.38.26-.75.15-1.14-.04-.09-.1-.27-.25-.18-.17.34-.11.79-.53,1-.06.02-.13.01-.18-.04-.25-.3-.43-.66-.7-.94-.06-.34-.29-.62-.37-.95.02-.25-.15-.58.09-.75.08-.01.21-.04.27.02-.02.31-.27.74.01.98.26-.19.3-.57.61-.72.1-.03.21-.04.3.01-.01.25-.15.49-.1.76.03.09.15.18.25.15.19-.47.72-.65,1.19-.75.42.15-.07.53.03.82.03.04.06.08.12.07.09-.13.2-.22.27-.35.51-.58,1.38-.55,2.09-.66.16.04.27-.2.42-.04-.03.21-.09.4-.16.59-.05.09-.11.27.01.33.1-.01.08-.12.13-.18.03-.01.11-.1.15-.01-.03.35-.12.68-.24,1-.09.25-.27.46-.3.74h.2c.1,0,.03.12.06.16-.11.31-.25.65-.4.95-.06.08-.07.26.05.29-.25.42-.54.76-.92,1.11-.1.15.12.13.12.25-.46.34-.74.78-1.19,1.14-.71.31-1.53.36-2.12.95-.26.17-.44.42-.58.63-.02.08-.08.24.05.27.1.04.2.03.28-.05.1-.38.49-.43.8-.54.21-.02.51-.19.68-.02-.39.16-.65.52-.82.88-.09.22-.33.49-.13.72.33-.03.34-.4.63-.54.28-.19.58-.4.93-.48.13-.03.29-.08.42-.05.02.02.01.05,0,.07-.56.36-.96,1-.86,1.68.09,0,.19.1.26-.01.21-.65.94-1.05,1.55-1.28.07,0,.22-.07.22.06-.45.31-.83.79-.94,1.34-.07.07.09.17-.03.18-.02.09.03.13.06.2.06.02.16.03.21-.01.39-.66,1.04-1.17,1.76-1.37.12-.05.33-.05.4.06-.28.24-.61.54-.79.9-.1.22-.17.48-.2.74.06.01.07.1.13.07.44-.35.8-.71,1.24-1.02.29-.5.84-.11,1.28-.2l1.13-.48c.08-.03.19-.12.28-.03.15.04.28-.04.4-.13.68-.13,1.12-.75,1.72-1.1.13-.09.11.13.2.1.68-.63,1.28-1.41,1.72-2.22.13-.16.12-.55.44-.47.11-.24.26-.46.44-.67.34-.76.68-1.51.81-2.38,0-.13.11-.12.22-.12.28-.44.49-.9.65-1.38.17-.81.27-1.67.66-2.38.06.03.09.25.2.11.19-.48.3-1,.47-1.49.3-.73.25-1.6.52-2.35l.09-.11.02.03c.05.61.27,1.17.34,1.75.06.53-.15,1.03-.55,1.37-.08.17-.36.18-.34.4-.61.58-1.03,1.28-1.05,2.12l.04.05c.07.03.21.07.27-.02.06-.27.29-.54.55-.63.11.34-.13.72.16.98.09.1.2,0,.3-.01.11-.27.11-.65.39-.83.02.03.03.08.05.11-.03.3.08.62,0,.91.06.08,0,.25.16.22.37-.08.26-.49.36-.76.22-.16.27-.4.48-.57.03,0,.08-.06.11,0-.12.4-.27.74-.25,1.19.03.1.12.15.24.16.12,0,.1-.16.15-.24.12-.31.24-.64.46-.91.07.08.15.08.24.04.06.02.02.08.03.12-.11.25-.13.57-.1.84.01.09.07.15.15.18.45-.18.41-.7.64-1.03.16-.37.5-.53.81-.76.44-.12.73-.45,1.13-.68.44-.28.56-.81.89-1.18.28-.28.31-.68.54-1,.01-.81.08-1.63.13-2.47l.06-.07s.03.03.03.06c.05.02.12.01.14-.02.06-.51.1-1.07.19-1.59.07-.28-.02-.61.02-.86.08-.01.07.07.13.06.24-.64-.09-1.34-.02-2.03-.12-.52-.09-1.14-.13-1.66.07-.08.09.06.16.06.09-.13.06-.38.03-.55-.24-.84-.1-1.64.03-2.48.08-.18.03-.42.04-.63.06-.27-.07-.57.11-.83.06-.02.12.06.17-.02l.08-1.03c.01-.82.11-1.6.07-2.41-.07-.92-.07-1.91-.2-2.81ZM135.4,42.43c.06-.05.16-.12.21-.02.01.13-.13.1-.2.17-.08.08-.16.13-.27.13,0-.12.17-.2.26-.28ZM131.37,43.31c.01-.07.07-.13.13-.18l.02.03c0,.44-.03.9-.08,1.32-.11-.37-.17-.77-.08-1.18ZM127.72,43.12c.16-.13.3-.3.5-.39-.16.33-.31.65-.49.95h-.02s.01-.56.01-.56ZM125.22,46.2c.25.16.47.37.76.48-.01.13-.19.12-.28.21-.08.07-.18.13-.28.08-.08-.08-.16-.21-.29-.17-.09.09-.2.12-.31.17-.07-.21-.02-.48-.26-.62-.11-.01-.13.09-.21.15-.15-.15-.3-.34-.46-.48-.1,0-.18.17-.28.07-.07-.1-.1-.21-.13-.33.61.02,1.16.31,1.75.44ZM121.25,53.41l-.3.24c-.06-.08,0-.18.05-.25.08-.15.17-.3.3-.39.06.15-.02.27-.04.4ZM121.16,52.09c.19-.29.45-.58.77-.74v.13c-.04.12-.28.07-.19.24-.24.1-.31.33-.58.37ZM122.01,54.23c-.03-.19.16-.34.25-.48.2-.31.55-.59.82-.82l.02.07c-.11.36-.4.65-.64.95-.17.22-.36.4-.52.62-.06.06-.12.15-.21.13-.01-.26.43-.17.28-.47ZM121.93,56.04l-.24.42c-.04-.1.02-.24.06-.35.02-.13.19-.28.06-.42l.04-.16c.25-.26.43-.63.72-.82-.11.48-.25.99-.64,1.33ZM122.03,58.23s-.02.02-.03.02c.01-.42-.1-.88.13-1.19l.03.21c.37.28-.06.65-.13.95ZM122.47,58.81c.19-.2.12.17.16.27-.1.33.07.62.08.94l-.02.06c-.27-.29-.39-.84-.21-1.27ZM130.4,81.44c-.16-.05-.3-.11-.46-.15-.16.22.06.47-.03.7-.3-.02-.56-.24-.84-.36-.11-.04-.09.09-.11.13-.07.13.16.33-.03.33-.35-.17-.51-.54-.77-.81-.27-.33-.44-.68-.74-.98-.06,0-.08.07-.09.11.27.66.58,1.31.82,2l-.02.02c-.39-.14-.73-.37-1.08-.58-.31-.4-.55-.81-.73-1.26-.09-.07-.15-.17-.27-.11-.19.17-.06.39-.01.59.18.48.42.93.77,1.31.06.07.1.16.07.25l-.09-.02c-.86-.68-1.12-1.74-1.54-2.66-.06-.09.03-.33-.15-.35-.21.06-.11.32-.13.47.18.33.24.68.33,1.05-.47-.79-.71-1.65-.79-2.59-.02-.03-.08-.11-.12-.06-.19.46-.08,1.03-.09,1.52l-.07-.07c-.11-.44-.34-.83-.38-1.29-.04-.08-.1-.05-.16-.03-.09.07-.08.24-.18.25l-.34-.81s-.1-.06-.16-.03c-.03.02-.04.06-.06.09h-.04c-.1-.26-.18-.52-.2-.8.16-.05.3.25.39.01-.18-.46-.4-.91-.48-1.41.21-.01.31.28.54.27.06-.3-.25-.53-.33-.81-.1-.45-.35-.84-.35-1.3.08.07.1.25.25.24.13-.21.01-.49.04-.74-.03-.19-.03-.38,0-.57.17.16.22.42.37.61.11.07.09.35.28.24l.08-.12-.03-.89c.12.02.09.26.28.19.09-.11.06-.28.08-.43l.07.07c.15.65.48,1.26.81,1.82.07.11.17.2.28.2.16-.09.03-.29.06-.44-.04-.19-.03-.43.05-.59.15.38.28.8.45,1.18.03.03.08.02.12.02.11-.06-.02-.34.18-.22l.27.41c.07,0,.18-.04.27,0l.55,1.03c.16.11.33.21.49.3.19.39.43.77.67,1.14.03.02.08.01.11.01.1-.24-.17-.43-.22-.65-.06-.24-.15-.49-.11-.74l.06.02c.3.58.52,1.19.86,1.76.03.01.07-.02.07-.06-.04-.33-.2-.59-.2-.93l.07.04c.27.92.77,1.75,1.19,2.61v.07c-.1.01-.18-.15-.28-.03-.07.15,0,.3.06.41.25.44.46.89.73,1.31-.01.03.01.07-.01.09ZM123.92,65.28c-.18-.26-.22-.62-.29-.94-.1-.74-.26-1.56-.12-2.31.13.33.51.62.42,1.01-.04.75.04,1.5,0,2.24ZM125.15,66.75c-.28-.29-.39-.79-.54-1.2-.13-.4-.19-.86-.17-1.31.17-.04.17.15.25.22.11.26.15.53.34.75.08.35.07.72.1,1.08-.09.15.01.31.02.46ZM128,54.25c.28-.02.48-.2.75-.27l.11-.11c0,.07-.08.13-.07.22.12.06.21.2.36.21-.03.19-.18.38-.29.54-.09.07-.13.2-.27.19.03-.24.26-.43.4-.63-.01-.06.02-.11-.03-.16l-.13.06-.61.65h-.07s0-.07,0-.07c.22-.18.44-.4.63-.61.02-.08-.05-.13-.1-.15-.11-.01-.15.1-.2.17-.31.38-.84.38-1.29.48.13-.09.27-.12.43-.21.18-.02.35-.08.46-.22,0-.05-.04-.08-.08-.1ZM128.09,53.67c.03-.17.3-.17.34,0,.01.04-.01.08-.04.09-.09-.05-.18-.09-.29-.09ZM129.27,57.49c.04-.1.17-.21.27-.28.09.12-.13.29.08.32.39-.15.39-.63.52-.99-.07-.25.1-.47.07-.7-.02-.05-.08-.03-.1-.01-.1.11-.12.26-.24.35-.04-.18.06-.37.11-.55.03-.2.12-.4.09-.62-.03-.02-.07-.01-.1-.02-.1.24-.28.43-.4.64h-.06c.02-.2.2-.35.29-.53.1-.38.26-.75.48-1.09.06-.05.12-.09.16-.13h-.09c.1-.03.22-.17.33-.03.04.09-.13.22.01.31.09.07.19.15.3.09.11-.08.07-.24.1-.36-.11-.04-.08-.18-.06-.27.03-.02.07-.06.12-.04l.06.13c.1-.13.26.12.29-.11l.27-.02.19-.25c.18.09.29.37.55.31.3.04.04.52.38.52.22-.24.56-.1.82-.28.11-.15-.09-.38.19-.41h.02c.05.11-.08.16-.09.25.17.19.43.16.63.27.28-.03.57-.09.74-.36.17-.04.38-.07.58-.09.07.04.22,0,.22.09-.22.15-.46-.01-.7.09.03.05.02.13.1.13.17,0,.24.2.39.22.04.01.11-.02.13.02l-.09.09c-.3-.06-.56-.09-.83-.25-.09,0-.16.06-.22.13.11.21.39.18.56.3.02.06.05.09-.01.13-.29-.08-.55-.25-.75-.47-.12.09-.29-.06-.39.07-.17-.02-.34-.08-.47.07-.01.15.17.06.21.13.17.19.44.27.53.51-.03.06-.1.01-.15-.02-.38-.11-.54-.56-.9-.7-.08-.01-.11.07-.11.12-.01.11.04.22.16.26.02-.01.03.01.05.02v.02c-.07.02-.21-.03-.2.09.04.19.13.36.16.56-.07,0-.12.06-.16.11-.07.2.17.33.21.49-.04.05-.12.02-.16.09.06.33.3.55.3.9.02.04.08.03.12.03.1-.15-.02-.31.01-.48.03.02.09.01.12.01.13-.17-.04-.37-.03-.56.07,0,.13-.13.2-.03.15.24.22.52.38.74.11-.07.03-.21.02-.31-.02-.27-.18-.48-.17-.76-.04-.13-.27-.12-.21-.3.25-.04.31.29.55.3.06.15.28.17.26.33-.16.04-.3-.13-.4,0,.03.21.02.42.21.54v.08s-.06-.03-.09-.02c-.08.22.02.47.07.69.1.11.07.27.08.4.22.58.19,1.3.13,1.93.01.02.04.03.07.01.01-.06.01-.11.06-.16.13.21.45.44.39.72-.26-.07-.2-.46-.52-.37-.09.11,0,.3-.02.44-.22.44.02,1.02-.47,1.32-.26.08-.51.21-.77.21-.31-.01-.64-.08-.95-.15.28-.18.63.07.9-.11-.18-.1-.14-.34-.2-.51.1-.36.5-.38.74-.61.31-.28.55-.71.38-1.14l-.07-.07c-.2.24-.3.57-.49.83-.1-.05-.14.1-.22.13-.27.15-.58.24-.79.46-.07.03-.15.03-.22.06,0-.19.28-.27.18-.5-.12-.21-.43-.19-.62-.25-.16-.26-.01-.55.13-.76h.03c-.02.19-.01.37.1.53.18.11.36.26.57.21.05-.02.07-.09.12-.08.13.21.39.09.58.05.06-.07.18-.14.16-.26-.06-.34-.17-.7-.47-.93l-.39-.4c-.56-.27-1.2-.13-1.83-.09-.47.08-.73.52-1.04.83-.1.18-.26.35-.24.58-.06.25.2.25.34.35l.41.02c.03-.1.24-.15.14-.3-.02-.06-.08-.08-.07-.15.08-.05.17.06.25.08.05.06.08.12.15.17.06.01.09-.02.11-.07.02-.11-.06-.26.01-.36.21.13.07.43.06.63-.12.12-.24.4-.45.24-.11-.07-.28.01-.39-.07-.01.15.16.28.22.4-.21.06-.2-.28-.44-.25-.24-.18-.42-.45-.43-.75.12-.73.79-1.21,1.43-1.49.15.05.25-.01.26-.17,0-.22-.06-.43-.11-.64-.25-.08-.29.22-.44.34-.09-.03.01-.19-.11-.25-.16.01-.26.19-.31.31-.11.03-.11-.19-.25-.11-.67.62-1.18,1.5-.83,2.41.16.45.71.48.94.86.06.26-.02.52-.09.76-.19.17-.49.09-.74.12-.08-.08-.21-.01-.31-.06-.55-.44-.28-1.13-.43-1.74,0-.6-.02-1.26.26-1.77-.06-.16.22-.22.07-.38ZM134.39,53.36c.06,0,.12,0,.16.06-.02.07-.13.07-.2.08-.03-.04,0-.1.04-.13ZM135.84,60.67c.1-.01.21.06.24.16.09.22-.01.49-.07.72-.02.02-.07.06-.1.02-.11-.26,0-.55-.09-.82l.02-.08ZM130.01,71.8c-.28-.5-.58-.99-.77-1.54h.11c.19.24.39.48.62.61.12.33.2.7.19,1.09h-.06c.09-.09-.03-.11-.09-.16ZM130.03,78.6s-.11.05-.15,0c-.19-.21-.22-.48-.28-.75l.03-.12s.1-.01.12.04c.11.27.22.55.27.83ZM129.81,69.5c-.2-.25-.34-.55-.46-.84-.01-.16-.06-.37.04-.49.11,0,.14.17.16.27.09.36.2.72.26,1.07ZM129.63,65.34c.08.01.16.05.19.12.03.37.01.81-.08,1.14-.08,0-.09-.08-.1-.13-.08-.39-.12-.74-.01-1.13ZM129.91,68.48c-.08-.34-.24-.64-.21-1,.1-.06.13.08.18.14.11.36.22.75.22,1.11-.08-.01-.17-.15-.19-.25ZM129.19,57s-.07.07-.11.1c-.01-.1.01-.21.08-.29.07.04.03.15.03.19ZM128.72,56.09c-.04-.13.11-.21.13-.34.11-.11.09-.34.27-.37l.02.04c-.1.24-.21.51-.43.66ZM127.54,68.35c.17.11.2.35.34.5.38.38.4.95.47,1.46-.45-.56-.59-1.29-.81-1.96ZM128.18,74.72c-.01.06-.09.07-.12.05-.11-.27-.18-.58-.15-.88.08.01.11.1.16.16.06.22.11.44.11.67ZM126.43,67.47c-.02-.33-.2-.62-.16-.97.19.27.26.57.34.86l.24,1.28c-.27-.31-.31-.77-.41-1.18ZM126.53,74.14h-.02c-.4-.65-.55-1.4-.71-2.14-.01-.13-.02-.29.02-.4.28.3.25.77.49,1.11.1.45.24.98.21,1.44ZM126.23,59.64v-.08c.46-.52.85-1.02,1.22-1.54h.03c-.07.38-.25.72-.47,1.03-.13.26-.36.31-.56.49l-.22.09ZM126.87,72.3c.42.48.47,1.19.58,1.78-.01.06,0,.12-.04.17-.16-.34-.24-.73-.34-1.1l-.22-.82.02-.03ZM126.86,65.26c-.16-.1-.15-.29-.21-.44-.08-.33-.24-.64-.2-.99l.08-.09c.1.3.19.61.27.92.08.08.08.26.21.27.11-.15,0-.36.08-.52l.09.09c.05.46.22.89.2,1.36l.43,1.18c.03.06.08.07.13.07l.08-.11c.13.25.16.58.3.85l-.02.06c-.62-.79-1.17-1.67-1.44-2.65ZM127.6,54.12c-.08-.06-.17-.13-.28-.15-.04-.07-.13-.03-.2-.06,0-.01-.01-.01-.01-.02.15-.11.29.03.45.02.02.08.09.16.04.2ZM127.2,56.9c-.2.86-.71,1.66-1.41,2.24h-.02c.12-.81.71-1.49,1.22-2.13.07-.03.12-.13.21-.11ZM125.77,65.45c.27.22.09.7.16,1.01.02.37.11.7.17,1.04-.36-.58-.46-1.34-.33-2.05ZM130.1,62.62c.3-.06.34.34.61.4.18.1.38.16.53.3.3.06.48-.15.75-.08.24-.01.55.07.67-.2.09-.06.23-.12.28-.25.05-.12-.09-.16-.17-.2-.29.1-.6.09-.89.12-.24-.01-.53,0-.71-.16-.16.01-.31.2-.47.08-.08-.05-.03-.2-.15-.18-.07.04-.09-.06-.09-.1-.03-.29.02-.55.16-.77.1.01.08.13.12.19.02.24.09.46.2.65.06-.09.2-.17.29-.07.16.09.37-.03.47.16.06-.1.17-.09.26-.06l.16.16c.1-.07.13-.2.29-.2.08.05.21.01.27.1.27-.21.31-.56.49-.83.07-.03.12.04.13.1v.63c.04.06.11.07.18.03.06-.07.08-.22.18-.2.03.1.01.25-.02.35-.3.52-.61,1.03-1.02,1.47-.04.15-.25.12-.37.18-.4.03-.93.13-1.18-.25-.24-.21-.42-.55-.67-.75l-.31-.63ZM132.64,66.35c-.25-.25-.22-.59-.31-.9-.03-.12,0-.26.07-.34.07,0,.13-.12.18-.03-.02.46.02.93.07,1.27ZM131.23,65.76c-.16-.2-.26-.5-.27-.77.05-.16.24-.06.25.05l.02.73ZM130.56,66.08c.19.06.3.26.36.43-.01.52.02,1.08-.02,1.55-.07-.08-.13-.18-.15-.3-.12-.54-.39-1.09-.19-1.67ZM131.56,73.02c-.21-.26-.49-.53-.55-.89-.18-.16-.07-.39-.16-.58-.03-.12-.1-.31,0-.41.3.28.4.7.58,1.05-.04.18.19.27.11.43.11.17.16.37.21.56-.13.09-.11-.11-.2-.16ZM131.65,71.33c-.24-.53-.54-1.07-.42-1.71.15.22.21.52.31.77.08.36.2.73.27,1.08-.04-.01-.15-.07-.17-.15ZM133.64,70.3c-.06.04-.07.12-.13.13.03-.55.24-1.03.42-1.53l.15-.25c-.03.57-.21,1.12-.43,1.64ZM133.31,68.1c.02.07-.01.18.09.19.19-.01.16-.26.31-.28-.15.43-.38.79-.55,1.21-.24.7-.21,1.5-.43,2.22l-.09-.1-.06-.75s-.1-.03-.13-.01c-.1.1-.08.35-.22.36-.3-.46-.35-1.04-.48-1.57.1-.09.22.1.38.03l.07-.11c-.05-.36-.07-.72-.08-1.08-.03-.08-.12-.06-.17-.05-.04.02-.03.06-.07.08-.11-.1-.09-.29-.16-.43-.04-.3-.13-.61-.08-.93.11-.07.24.15.33-.02.01-.18-.09-.36-.01-.54.2.03.39.11.54.27.06.02.16-.03.16-.11v-.04c.06.01.06.1.11.11.39-.18.13-.75.27-1.08.16-1.02.68-1.91,1.28-2.75.11-.33.09-.68.17-1.02.11.03.1.28.27.19.17-.3.16-.67.29-.99.13.16.11.43.11.61.01.45-.03.95-.27,1.32-.07-.02-.2-.03-.2.08-.02.74-.45,1.34-.57,2.03-.01.09.01.18.08.21.39-.17.8-.55.95-.98.06-.03.06-.12.13-.1.06.17-.08.31-.1.47-.19.53-.47,1.05-.85,1.45-.34.71-.73,1.37-1.02,2.1ZM134.32,70.08h-.03c.28-.71.61-1.41,1.08-2.03.08.06.17.12.27.06l.16-.15c.06.02,0,.08,0,.12-.27.76-.94,1.36-1.47,2ZM135.63,74.95s-.05,0-.07.02c-.08-.56.03-1.12.11-1.68.08-.1.03-.33.2-.33l.04.27c-.03.58-.13,1.19-.29,1.72ZM136.33,74.35c-.02-.2-.02-.39,0-.59.06.01.09-.08.13-.08-.02.24-.01.51-.13.67ZM136.46,73.63s-.08-.06-.11-.02c.01-.26.08-.5.11-.75l.04-.07c.05.27-.01.55-.04.84ZM136.26,68.38c-.02-.16.13-.28.17-.43.67-1.25,1.59-2.39,2.27-3.63.18.08-.01.26.01.39-.4,1.03-.97,2.05-1.69,2.91-.21.22-.46.59-.75.75ZM138.96,68.17c-.48.54-.67,1.22-1.2,1.73.03-.33.27-.59.39-.9-.01-.05-.04-.11-.1-.11-.21.19-.27.52-.49.72v.02s-.01-.13-.01-.13c.21-.57.48-1.11.75-1.66l.06-.05c-.03.18-.12.4-.03.54.12-.03.25-.11.31-.24.34-.43.72-.77,1.03-1.22.09.21-.03.48-.1.7-.17.22-.11.53-.31.73-.18.3-.3.64-.53.9h-.01c.09-.31.19-.66.33-.98-.02-.02-.05-.06-.08-.05ZM137.59,72.35c.02.63-.26,1.19-.43,1.78-.07.01-.05-.08-.07-.11.03-.61.17-1.19.49-1.67ZM151.5,64.82h-.05c-.03-.79.02-1.62-.04-2.39l.02-.07c.37.45.34,1.04.46,1.58-.11.3-.21.61-.39.88ZM151.31,59.44c.18-.04.27.19.38.31l.29.61v.07c-.28-.25-.5-.63-.67-.99ZM152.12,62.74s-.01.02-.01.03c-.36-.49-.44-1.13-.63-1.72h.03c.7.28.61,1.04.61,1.68ZM155.27,61.99c.07.32-.01.68-.04.99.21.39.12.86.03,1.29-.09.52-.2,1.05-.24,1.6.09,1.08-.49,2.04-.31,3.16.17.45.16.96.27,1.44-.1.04-.22-.04-.3.08-.04.57.19,1.09.17,1.68.08.07.05.18.09.26-.13.06-.01.19-.07.28-.24.49-.2,1.07-.29,1.59-.09.12-.07.28-.1.42-.13.68-.42,1.3-.74,1.92-.03.56-.5.96-.93,1.28,0-.04-.03-.07-.07-.1-.19.02-.24.24-.4.27.21-.35.45-.69.67-1.04-.01-.05.01-.1-.04-.13-.27.13-.49.45-.76.62,0-.2.12-.38.19-.57l.3-1.19.07-.06c.11.29-.21.54-.1.84l.21.03c.03.09-.01.22.1.27.47-.19.54-.76.8-1.14.11-.33.07-.7.03-1.04-.03-.11-.17-.17-.26-.22h-.09c-.03-.12.04-.33-.08-.43l-.19.02c-.06-.09.07-.28-.11-.29-.06-.02-.1.02-.16.01-.12-.14.09-.47-.19-.42-.07.15-.2.31-.33.4-.09-.25.12-.43.06-.69-.1-.48-.07-1.01.14-1.44.09-.38.04-.86.1-1.23v-.02c.12.12.07.3.1.45l.03.63s.09.03.13-.01c.3-.85.34-1.78.47-2.72.17.54.05,1.12.1,1.69l.1.07.08-.11c.21-1.13.28-2.36.42-3.51,0-.05-.03-.09-.08-.1l-.08.03c-.36.42-.65,1.03-1.24,1.12.02-.16.16-.33.21-.51.27-.57.45-1.25.37-1.92-.03-.02-.09-.07-.12-.03-.1.08-.09.21-.16.3-.21.15-.27.45-.54.48.03-.3.22-.55.25-.86l-.09-.07c-.17.11-.24.28-.36.44h-.04c.18-.68.37-1.41.31-2.14.08-.09.06-.21.07-.34-.07-.65-.1-1.34-.19-1.99.18-.47-.18-.85-.19-1.31-.18-.45-.38-.91-.63-1.32-.13-.36-.36-.68-.38-1.1-.07-.61-.2-1.19-.56-1.67-.15-.7-.62-1.31-1.1-1.81-.22-.12-.45-.26-.67-.39-.27-.04-.07.33-.28.4-.02.13.12.15.19.2.45.61,1.13,1.07,1.32,1.82-.07.03-.11-.09-.18-.11-.08-.03-.17-.05-.27-.05-.09.16.08.28.15.4.12.19.26.38.33.59-.1-.01-.14.01-.2.06-.11.08-.03.17-.01.27.25.43.48.88.54,1.37-.09.02-.19-.04-.21-.13-.04-.03-.02-.08-.07-.11-.1.03-.18.1-.26.17.13.69.55,1.28.44,2.03-.12-.01-.28-.08-.44-.06-.16.09-.01.21.06.27.16.61.34,1.23.36,1.86-.16-.01-.35-.18-.52-.06.01.27.12.52.13.8.08.43.25.82.18,1.3-.08.1-.17-.08-.27-.08-.09.02-.2-.07-.25.05.06.35.24.68.17,1.05,0,.15.12.25.21.36.16.49.28,1.02.26,1.57l-.07-.07c-.07-.28-.22-.54-.33-.81-.03-.03-.09-.06-.13-.02-.09.15,0,.35-.06.52.01.05-.02.07-.03.09-.15-.07-.18-.34-.37-.27-.15.31.22.52.3.81.09.42.25.82.28,1.25-.04.04-.04-.03-.07-.06-.18-.33-.3-.67-.44-1.02-.03,0-.08-.04-.11-.01-.28.32-.17.83-.06,1.2.07.35.3.7.21,1.04-.16-.15-.31-.35-.43-.55-.04-.02-.1-.06-.13-.02-.08.21.07.42.08.63.17.73.48,1.44.46,2.21-.19-.4-.31-.84-.63-1.19-.08-.19-.25-.43-.44-.54-.07-.01-.12.04-.13.1.02.45.42.81.34,1.3.03.15.03.3,0,.45h-.04c-.17-.29-.34-.67-.68-.81-.1-.04-.17-.2-.29-.11-.03.37.29.62.38.94.04.34.13.63.09.98h-.05c-.12-.25-.35-.43-.47-.66-.03-.09-.1-.01-.15,0-.03.31.1.62.13.94.06.17-.02.43.17.51.21.77.08,1.58-.09,2.31-.03.02-.06.07-.11.05-.06-.09-.07-.22-.2-.25-.16.15-.19.4-.22.63-.03.53-.22,1.04-.47,1.5l-.06.22c-.26.31-.37.68-.7.95-.06.15-.06.3-.15.43-.08-.01-.07-.1-.09-.16-.05-.21-.02-.44-.01-.65.3-.08.27-.44.37-.67.07-.2,0-.47.1-.67.08.03,0,.34.2.25l.18-.2.28-1.29c.01-1.16.26-2.26.06-3.4-.08-.07-.01-.22-.15-.24-.17.1-.19.33-.19.54,0,.37-.04.76-.18,1.09-.15-.16,0-.57-.34-.65-.19.07-.03.26-.08.38.08.56.02,1.14-.08,1.69-.16-.03-.11-.3-.31-.27-.17.25-.01.56-.02.83l-.07.72c-.2,0-.25-.21-.35-.35-.03-.02-.08-.01-.11-.01-.1.15.01.3.01.45.09.56-.05,1.1-.09,1.64-.04.04-.03.18-.11.16-.03-.13-.12-.31-.28-.34-.09.12-.06.3-.13.43-.02.44-.04.86-.19,1.25-.1-.03-.11-.2-.24-.14-.17.31-.26.67-.31,1.03-.2.76-.64,1.44-1.01,2.12-.01.06-.02.11.04.16.21-.09.4-.26.58-.46.22-.25.46-.47.57-.77h.03c.03.13-.01.31.1.42.25-.02.32-.3.44-.48.24-.65.57-1.26.8-1.91.21.21.06.55.08.83-.09.59-.35,1.13-.61,1.66-.07.26-.08.48-.15.73-.1.07-.27-.02-.34.12-.08.45-.38.85-.71,1.14-.11-.22-.01-.55-.25-.68l-.07.08c-.03.49-.11.96-.35,1.37-.06.07-.12.03-.15-.03-.01-.06-.02-.15-.1-.13h-.09c-.26.33-.49.74-.85.93-.35.43-.89.48-1.36.67-.04-.11.01-.2-.08-.29l-.52.26c-.01-.08.09-.19-.02-.24-.8.1-1.44.56-2.17.81-.11-.02-.2.03-.29-.05.22-.34.61-.44.93-.63.13-.09.39-.01.4-.23-.25-.14-.54.02-.8.07-.35.08-.65.27-.99.38.3-.35.67-.57,1.03-.84,0-.07.01-.15-.04-.2-.35.12-.7.3-1.02.39.02-.16.1-.37-.06-.48.06-.13.23-.19.34-.27.13-.02.24-.11.34-.19.01.09-.02.25.03.32.4-.02.74-.2,1-.52l.08-.02c-.08.26-.41.4-.34.72.18.09.35-.11.53-.16.19-.1.4-.15.57-.3.12-.02.07.16.18.17.36-.13.58-.45.8-.76.02-.08-.06-.1-.09-.15-.13.02-.35.03-.36-.15-.03-.47.3-.92.02-1.35-.17.07-.16.31-.27.45-.08.18-.21.3-.3.45h-.05c.05-.46.28-.86.37-1.32l.02-.37c-.03-.06-.1-.02-.15-.03-.07.19-.18.39-.33.52.21-.52.34-1.01.45-1.57-.01-.03-.04-.07-.07-.07-.15.02-.16.19-.24.29-.08.15-.15.35-.28.43.2-.64.3-1.36.29-2.09-.03-.03-.08-.09-.13-.05-.21.38-.2.85-.52,1.18-.02-1.03.44-2.06.38-3.13-.02-.04-.09-.03-.13-.02-.19.36-.18.81-.48,1.1.07-.9.24-1.83.27-2.75-.01-.06-.05-.14-.12-.12-.1-.02-.1.12-.17.12,0-.46.09-.88.13-1.32.01-.08.12-.15.16-.2.07.81.16,1.68.45,2.42.06.04.11.11.2.07.33-.34.45-.78.56-1.23.09.02.17.08.26.03.03.11-.02.26.09.33h.09c.1-.15.19-.33.35-.44.01.1,0,.21.08.29.1.04.17-.08.2-.13.25-.38.39-.82.63-1.2.03.17,0,.39.03.58.03,0,.07.04.1.01.25-.38.45-.8.59-1.22h.03c.01.15-.01.31.08.4.14.01.14-.15.2-.21.5-1.05.43-2.32.37-3.55-.01-.08-.11-.07-.15-.02-.15.57-.29,1.19-.55,1.73-.08.12-.13.27-.22.37-.11-.18.06-.43-.1-.58-.17.01-.12.2-.19.3-.18.33-.28.7-.45,1.03-.1-.13-.03-.4-.03-.58.02-.08.01-.18-.03-.24l-.03-.03c-.18.13-.08.41-.24.57-.03.17-.1.34-.19.48-.06-.25-.01-.54-.05-.8-.03-.06-.1-.07-.15-.03-.08.37-.17.73-.33,1.08-.06-.33.01-.72-.08-1.03-.03-.03-.11-.02-.15-.01-.15.48-.25,1.02-.44,1.52h-.02c-.1-.84.04-1.63.19-2.41-.03-.07-.11-.03-.15-.01-.17.19-.27.44-.49.61l-.02-.03c.01-.21.16-.45.02-.64-.18.11-.25.35-.37.52-.09-.21.04-.41.03-.64-.02-.06-.09-.02-.13-.03-.07.06-.08.16-.16.17v-.79c-.02-.06-.09-.09-.13-.06v.02c-.01-.23.15-.46.34-.6.16.08-.06.43.25.29.56-.61.9-1.35,1.46-1.95.25-.39.43-.82.64-1.23l.12-.31c.12.02.09.2.13.3.01.11-.06.25.07.3.21-.13.37-.4.48-.64.24-.59.55-1.16.75-1.77.12.01.1.18.12.27.01.12,0,.3.12.37.17.02.15-.18.22-.27.26-.57.37-1.21.53-1.83.07-.02.15-.06.17-.13.25-.73.3-1.48.43-2.24.12.08-.06.41.2.38l.05-.08c.22-.83.31-1.72.46-2.59l-.08-1.59.02-.03c.2.26.08.7.37.91l.1-.11c.01-.5.04-.94.03-1.46-.01-1.73-.46-3.31-1.18-4.76-.06-.15-.1-.33-.2-.45-.06-.01-.09.07-.09.11,0,.55.26,1.1.2,1.66h-.01c-.16-.09-.29-.34-.5-.4-.08.04-.07.15-.04.2.26.67.62,1.3.72,2.04-.18-.01-.24-.34-.43-.2,0,.38.29.64.25,1.04.03.56.2,1.19.02,1.73-.07,0-.16-.08-.22-.13-.01-.03-.02-.07-.06-.1-.22.15.01.45-.06.7-.04.75-.07,1.55-.36,2.22-.16-.04-.08-.31-.26-.3-.11.08-.04.2-.07.3-.11.4-.21.83-.4,1.18-.04-.09-.02-.24-.12-.28-.19.15-.09.46-.19.66-.11.27-.17.56-.29.81-.09-.01-.03-.2-.18-.2-.13.15-.12.36-.21.53-.3.63-.55,1.32-1.1,1.82-.08-.15.01-.36.02-.53,0-.08-.1-.08-.15-.06-.17.25-.39.53-.64.68.13-.49.39-.93.47-1.44-.03-.03-.08-.06-.11-.03-.43.47-.72.98-1.2,1.38.01-.17.15-.4.26-.59.53-.98.99-1.99,1.29-3.05.11.06.09.34.29.24.33-.56.53-1.19.68-1.83.16.05-.04.47.26.34.31-.47.31-1.08.53-1.6.07-.36.08-.74.15-1.1.05.06.11.21.21.13l.06-.1c.11-.67-.03-1.35-.08-2.02-.03-.09-.08-.2-.04-.31.02-.08.11-.09.17-.04.06.08.08.25.22.21.12-.08.06-.25.05-.35,0-.54-.28-.98-.33-1.48.07-.02.16,0,.19-.09-.18-.42-.36-.84-.53-1.26-.27-.46-.58-.95-1.08-1.19-.09.04-.24-.02-.26.11-.05.17.16.24.17.38.29.57.44,1.22.61,1.85-.11.03-.28-.13-.33.05.11.55.21,1.1.22,1.68-.07.01-.12-.07-.21-.05-.15.27.03.53,0,.81,0,.42-.1.79-.18,1.16-.11-.01-.13-.16-.27-.15-.1.12-.03.29-.04.44-.09.71-.19,1.4-.44,2.04-.08-.05-.09-.3-.27-.2-.07.08,0,.2-.03.29-.2.59-.47,1.14-.76,1.68-.1-.01-.02-.16-.11-.18l-.13.03c-.29.48-.53,1.01-.88,1.43-.15-.13-.26.08-.32.17-.16.22-.34.49-.53.69-.01.02-.05.01-.07.01-.03-.07-.03-.2-.15-.19-.16.21-.31.47-.47.7-.44.3-.81.71-1.31.85.06-.35.36-.64.53-.95.3-.46.47-.99.77-1.44.06.06.03.3.21.19.33-.4.59-.82.84-1.27l.07-.04c.03.36-.19.64-.31.94.03.03-.02.1.03.12.03.05.12.05.17,0,.15-.08.12-.26.22-.38.49-.55.68-1.22.89-1.9.17.11-.11.54.19.45.34-.43.4-.95.52-1.47.11.09-.08.42.16.36.27-.43.31-.91.38-1.44.09-.03.22.13.28-.04.11-.49.01-1.07.02-1.5.02.03.16.18.21.02.03-.28-.01-.57-.03-.85-.08-.43-.21-.85-.27-1.27.05-.02.12.03.17-.03.02-.58-.27-1.08-.45-1.59-.17-.31-.5-.46-.73-.72-.06-.02-.08.04-.1.07.21.57.43,1.14.63,1.73-.08.18-.2-.08-.33-.06-.09.07-.04.2-.01.29.19.3.27.67.36,1.02-.03.03-.07.03-.09,0-.06-.15-.21-.3-.34-.37-.12.43.27.86.08,1.29-.08-.17-.1-.4-.3-.48.03.34.01.59-.03.91-.03.07-.1.07-.14.02-.02-.08-.08-.16-.15-.18-.09-.02-.08.09-.06.13.09.44.42.82.35,1.29-.16-.18-.24-.45-.46-.61-.07-.2-.3-.22-.48-.27-.13.27.2.47.28.72.08.19.16.39.17.62-.08.04-.02.13-.1.18-.16-.19-.21-.48-.46-.64-.42-.28-.98-.25-1.38-.55-.28-.1-.44-.4-.64-.61v-.08c.46.15.9.31,1.38.37.09,0,.19-.03.26-.1-.09-.3-.44-.28-.64-.45-.26-.08-.47-.26-.71-.39-.07-.09-.2-.18-.16-.3.25-.17.47.1.76.02.15.02.43.1.55-.07,0-.08-.09-.15-.15-.17-.33-.15-.71-.22-.94-.52.22-.05.52-.07.71-.23.01-.08,0-.15-.08-.18-.35.02-.63-.21-.94-.34-.06-.03-.16-.08-.16-.15.24-.08.51.03.76.01.35-.07.73-.07,1.05-.21.04-.02.03-.08.03-.12-.12-.09-.28.06-.43-.01.06-.12.24-.16.3-.28-.2-.03-.38.1-.61.09.11-.14.34-.1.46-.25.18-.02.35-.13.46-.27-.09-.08-.17.06-.27-.01.07-.12.27-.15.31-.3-.18-.25.21-.36.11-.56-.16.07-.31.2-.49.26-.17.02-.3.13-.49.1-.03-.21-.25-.35-.43-.43.1-.12.34-.06.47-.16-.06-.28-.42-.18-.63-.25h-.16c.13-.17.44-.06.57-.22-.01-.03-.05-.08-.09-.08-.48-.04-.92.06-1.34.12.04-.17.3-.21.46-.33.1-.06.33-.05.29-.21l-.03-.04c-.39,0-.71.15-1.06.25-.03-.16.24-.21.25-.37-.25.05-.51.13-.7.33-.11.1-.09.31-.27.33-.05-.04.04-.09-.03-.12-.2-.02-.16.24-.3.31-.01-.03-.01-.08-.04-.1-.16.07-.28.17-.39.3-.07.11-.13.2-.26.24-.01-.12.15-.29-.02-.37l-.51.5c-.21-.18-.4.33-.56.01-.04-.17.03-.42-.12-.52-.12.02-.22.12-.33.21-.17-.13.09-.71-.33-.55-.29.26.11.85-.35.95.02-.21.09-.44.04-.65-.02-.02-.07-.01-.1-.01-.09.09-.07.24-.15.33-.35.17-.71.42-1.13.29-.22.08-.45-.04-.61-.2-.1-.25-.26-.48-.4-.73-.13,0-.28.21-.43.06-.08,0-.09.09-.12.13v.06c-.22.02-.27-.28-.44-.38-.02-.06-.09-.08-.07-.15l-.18-.06s.03.11.02.18l-.03.04c-.2-.06-.4-.17-.61-.17-.1.03-.04.16-.06.2-.18.09-.54-.2-.52.15.06.07.13.08.2.1v.02c-.25,0-.53-.01-.68.12.07.21.39.12.46.35-.25.08-.45.24-.67.35-.06.06-.01.13.01.18.09.06.19.11.28.16-.27.18-.65-.03-.97-.02-.08.05-.08.17-.06.26.07.11.2.06.28.15-.04.03-.1.05-.15.09.11.2.39.12.56.18-.03.1-.28.1-.2.21.31.01.6.17.92.07.18.09.38.01.58.07v-.1s-.01.09.03.11h.03c-.03.08-.12.11-.19.11-.22.26-.45.45-.68.66l-.58.71c-.02.08.03.15.09.13.13-.16.36-.11.53-.2.02.11-.08.19-.12.29-.11.26-.27.51-.31.79.03.1.1,0,.16-.01.21-.18.47-.33.73-.46.01.93-.85,1.48-1.26,2.26-.04.17-.24.27-.27.44-.02.01-.05.05-.08.03.13-.51.38-.96.63-1.43.02-.07-.02-.19-.1-.12-.53.31-.94.76-1.31,1.24-.02-.13,0-.31.03-.47.12-.4.22-.82.47-1.17,0-.04.01-.1-.04-.12-.3.21-.55.49-.83.73.06-.3.18-.61.35-.89.01-.05-.02-.08-.06-.11-.37.17-.45.56-.75.8-.01-.45.18-.79.15-1.22-.11-.1-.24.01-.35.06l-.05-.06c.15-.55.29-1.09.59-1.56.16-.05.07-.22.19-.33,0-.09-.1-.1-.13-.17-.09,0-.13.11-.21.11-.11.02-.19.09-.3.11,0-.38.45-.43.54-.79.1-.15.33-.2.31-.4-.09-.06-.17.06-.26.06-.05.09-.13.12-.21.16-.06-.09.03-.18.08-.24.33-.31.64-.6.95-.92-.04-.07-.15-.1-.22-.07-.04.07-.12.03-.19.04v-.09c.43-.25.9-.46,1.28-.76,0-.02-.03-.04-.06-.06-.24.02-.48.12-.72.12-.03-.07.07-.12.11-.13.34-.21.76-.33,1.07-.58.02-.12-.17-.01-.13-.15.47-.21.97-.38,1.43-.62.01-.02.02-.03.02-.07-.31-.08-.63.03-.92.06l-.02-.03c.18-.15.46-.18.67-.28,0-.03-.06-.03-.05-.08l.13-.06c.36.06.75.17,1.13.17.08.09.17-.03.27-.03.09-.04,0-.13-.03-.19-.3-.26-.7-.33-1.03-.52-.52-.21-1.17-.18-1.73-.09-.09.08.01.17.02.25-.4.12-.81.22-1.17.47-.01.07.02.11.07.13.06-.01.09.02.13.02v.03c-.3.1-.57.27-.85.43-.05.06-.09.09-.07.17l.09.07c-.16.19-.45.25-.53.52.11.18.3-.04.42.1-.22.38-.48.77-.91.97-.37.34-.79.72-1.05,1.09-.04-.06.03-.17.04-.25.16-.39.46-.73.75-1.04,0-.04.07-.07.04-.13-.08-.1-.24.05-.33-.08.39-.82,1.21-1.49,1.9-2.08.01-.15-.22-.18-.12-.34.52-.58,1.29-.71,1.94-1.03.09-.09,0-.21-.02-.31.49-.26,1.02-.49,1.55-.7.22.03.38-.1.61-.11.02-.16-.1-.33-.2-.46-.25,0-.21.36-.43.34l-.4-.31c-.01-.1.1-.11.16-.13.31-.07.71-.02.98-.18.06-.03.01-.1-.01-.12-.05-.06-.17-.07-.18-.16.34-.02.68-.12,1-.07.31-.03.68.04,1.01.09.06.07.12.06.18.01.33.11.7.11,1.01.26.12,0,.29.14.37-.01-.01-.09.09-.07.13-.06.06.07.19.03.13.17-.1.16-.3.28-.27.49.26.04.43-.27.65-.38.22.01.35-.21.53-.3.18-.08.34-.24.54-.24.07.17.21.08.33.04.5-.27,1.16-.26,1.72-.2.04.09-.13.2,0,.27.38-.11.72.02,1.07.11.04.09.13.16.13.27-.33-.01-.71.02-.94.28.01.05-.02.1.05.1.79-.12,1.45.43,1.91,1.01.08.07.15.16.26.1.08-.06.01-.17.09-.24.49.21,1,.57,1.26,1.08-.11.11-.26.19-.27.34.21.18.59.02.75.3.37.28.82.58.81,1.11-.07.05-.17.07-.19.16.17.31.43.59.52.94.18.16.48.2.59.45.19-.02.35.45.48.12.07-.56-.3-1.01-.32-1.57.1-.08.3.1.4-.06l-.36-.62c.19-.15.62.1.56-.31-.17-.25-.4-.37-.63-.53l.02-.08c.34-.37.98-.73.97-1.3-.03-.03-.1,0-.15-.03.07-.14.18-.29.27-.44.06-.12.16-.24.12-.38-.03-.08-.11-.01-.16-.06.08-.21.21-.4.2-.67-.05-.02-.1-.06-.14-.02-.08.06-.12.17-.22.16-.16-.4-.24-.86-.61-1.17-.3-.09.12-.59-.3-.53-.11.1-.27.17-.4.11-.08-.13-.01-.34-.13-.42-.26.06-.49.29-.75.31-.02-.09-.01-.2-.11-.27-.52.37-1.16.45-1.75.63-.16-.25-.34.05-.52.07-.25.04-.54.15-.77.01.06-.16.26-.22.4-.28.07-.03.02-.1.03-.16l-.07-.03c-.44-.01-.82.08-1.26.08-.13.06-.27.07-.39.11,0-.22.18-.37.3-.56.01-.05,0-.09-.04-.13-.46.16-.94.25-1.4.39-.02-.07,0-.19-.1-.21-.27.19-.58.31-.83.56h-.05c-.02-.19.11-.38.1-.57-.1-.09-.21.06-.31.09-.17.17-.4.26-.6.4-.13.01-.15-.28-.31-.16-.06.08-.07.24-.19.22-.29-.53-.16-1.23.03-1.77.12-.3.3-.58.49-.86h.03c-.04.61-.45,1.08-.47,1.71.03.03.09.07.13.03l.12-.14c.18.03.11.33.35.27l.07-.09c.1-.4.19-.83.38-1.18.03.07.11.25.22.12.02-.01.03-.04.06-.03-.04.26-.17.52-.26.77.03.06.09.06.15.05.16-.37.54-.56.84-.79h.07c-.02.26-.28.44-.21.71.06.11.2.1.22-.02.06-.11.15-.26.27-.3,0,.12.1.18.18.17.02.07-.01.21.11.21.16-.2.36-.3.59-.35.16.2-.2.41.06.59.86-.46,1.75-.86,2.77-.97.02-.03.07-.06.07-.1,0-.06-.03-.1-.08-.12-.63-.03-1.21,0-1.83.02.02-.07.19-.13.14-.27-.18-.11-.37.08-.54-.02h-.01c.01-.06.15-.09.22-.15.13-.03.24-.12.38-.13,0,.07-.01.16.09.17.28-.12.56-.35.9-.37.06-.03.13-.06.19-.08h.15s0-.05,0-.05c.15-.04.31-.06.47-.09v.14s.22.02.22.02c.09,0,.18.02.27.02-.26.05-.52.08-.77.13-.35.08-.71.11-.97.36-.03.04-.01.09.02.14.49-.19.99-.29,1.53-.34.09-.08.23-.16.27-.28.48.04.96.09,1.45.15.06.03.12.03.19.02.17.02.34.04.51.06.21.06.42.15.55.34-.17.15-.41.21-.5.45.16.11.38.11.57.18.5.11,1.03.2,1.48.46.01.19-.22.24-.31.38-.01.06-.1.11-.02.16.64.17,1.32.31,1.78.85h.02c-.15.2-.41.2-.56.37.21.11.59.31,1.12.59.29.15.58.34.83.55l.03.07c-.31.19-.66.31-.93.54-.03.02-.09.01-.11.06-.01.09.08.11.12.13.48.27,1.02.37,1.43.77l.34.36c-.2.15-.47.21-.67.38-.02.06-.01.13.04.17.66.18,1.35.48,1.71,1.11-.05.13-.24.11-.36.17-.09.1-.31.1-.27.26.54-.01.81.53,1.28.66.02.02.01.07.01.09-.19,0-.38.03-.5.19-.03.04-.07.1-.03.15.06.11.19.08.27.13.15.15.44.1.46.34.07.06.21.07.2.17-.27.09-.54.06-.83.08-.05.06-.09.13-.06.2.06.1.18.03.26.1.15.1.36.24.35.43-.13.09-.11.24-.03.35.13.28.4.42.66.51l.03-.02c-.03.09.08.13.15.18.05-.01.11-.04.12-.1.06-.33-.1-.58-.16-.89.29.07.47.32.72.52.09.02.16-.08.11-.16-.08-.1-.08-.26-.07-.37l-.13-.44c.26.06.55.25.67.5.3.22.47.55.67.84.27-.1.45.18.71.18.22.12.26.36.4.55-.1.12-.46.02-.35.28.42.3.92.56,1.12,1.08.35.17.29.59.58.81l.17.57s.08.08.15.07c.06-.07.08-.16.11-.25.1.12.12.34.18.5.16.75.43,1.56.29,2.36.02.55.09,1.25-.11,1.78ZM137.84,59.7c-.03.11.04.31-.12.34-.09-.03-.04-.18-.09-.26-.07-.34-.21-.76-.59-.88-.22-.15-.49-.24-.67-.43-.03-.07,0-.15.07-.16.33.06.57.33.91.36.22.11.44.31.54.55-.03.17.06.31-.03.47ZM137.1,60.55c.1.01.08.13.12.2.03.24-.02.49-.23.63-.03-.27-.13-.62.1-.83ZM136.82,60.02c-.09-.26-.16-.53-.26-.79.3.12.55.47.57.79-.1.02-.27.2-.31,0ZM139.58,57.47c-.06-.18-.12-.43-.06-.62.06,0,.11,0,.12.06-.02.19.06.44-.07.56ZM138.15,46.69l.05-.45c.35-.39.86-.57,1.4-.61-.05.1,0,.28-.06.37-.39.31-.85.56-1.19.91-.13-.01-.2-.1-.2-.22Z"/>
      <path class="st1" d="M113.71,37.1l-.03,9.42v.15s-1.05.49-1.05.49c-.95.44-1.92.89-2.8,1.35-.39.21-.72.28-1,.22.13.36.31.6.54.74.33.2.74.16,1.25-.11.85-.45,1.8-.89,2.72-1.32l1.02-.47v-.15s.03-10.44.03-10.44l-.66.13Z"/>
      <path class="st1" d="M114.32,35.15v-4.9s-.65,0-.65,0v3.97s-.01.21-.01.21l-1.61.23c0,.34,0,1.02,0,1.02l2.28-.32v-.2Z"/>
      <path class="st1" d="M111.08,43.52c0-.79,0-1.86,0-2.99-.2.06-.43.13-.43.13v-4.03s0-.2,0-.2l.43-.08c0-.98,0-1.67,0-1.77.07,0,.14-.01.22-.02,0-.38,0-1.18,0-1.26-.19.02-.4.04-.4.04,0,0-.36.03-.59.06,0,.39-.01,9.78-.01,10.41.23-.08.46-.17.46-.17,0,0,.15-.05.31-.11Z"/>
      <path class="st1" d="M120.22,44.05l1.79-.57v-.17s.03-2.76.03-2.76c0,0-.28.09-.44.14v1.63s-.02.18-.02.18l-1.85.59c-.25.09-.5.15-.72.1.03.44.11.73.32.88.25.18.57.1.88,0Z"/>
      <path class="st1" d="M121.06,39.66c.08-.02.32-.1.45-.14-.01-.57-.07-.82-.21-1.12-.08-.16-.16-.29-.26-.4.02.2.03.45.03.8,0,.07,0,.15,0,.23,0,0,0,.56,0,.63Z"/>
      <path class="st1" d="M120.85,37.3c.04.08.07.16.1.24.44-.52.6-1.1.6-2.06,0,0,0-1.2,0-1.22,0-.94-.16-1.58-.49-1.99.03.24.05.5.05.79,0,.02,0,1.25,0,1.25,0,1.13-.21,1.73-.84,2.34.26.14.44.34.58.65Z"/>
      <path class="st1" d="M118.23,35.43c0-.36,0-.69,0-.8.06,0,.12-.01.18-.02,0-.48,0-1.03,0-1.25-.25.03-.52.06-.74.08,0,.24,0,1.69-.01,2.09.19-.03.39-.07.56-.1Z"/>
      <path class="st1" d="M117.73,43.82l-.15.06c-.78.32-1.56.67-2.31,1.04v1.24s.34-.17.34-.17c.81-.41,1.66-.8,2.52-1.15l.15-.06s.03-4.76.03-5.09c.05-.01.11-.03.18-.04,0-.54,0-1.02,0-1.21-.27.07-.55.13-.73.18,0,.34-.03,5.21-.03,5.21Z"/>
      <path class="st1" d="M122.54,33.3v1.25s.04,0,.11-.02c0-.65,0-1.13,0-1.25-.03,0-.07,0-.12.02Z"/>
      <path class="st1" d="M122.47,43.49l.3-.09c.98-.28,2-.52,3.02-.73l.19-.04.02-2.76s-.18.04-.32.07v1.68s-.21.04-.21.04c-1.02.2-2.03.44-3,.71v1.1Z"/>
      <path class="st1" d="M126.06,31.58h-.24s-.08,0-.08,0v1.54s-.47,0-.49,0c0,.43-.04,5.27-.04,5.81.05-.01.21-.05.33-.08.01-1.59.03-4.23.03-4.54.09,0,.46,0,.46,0l.02-2.73Z"/>
      <path class="st1" d="M128.42,33.74l-1.86.1v1.2s1.4-.08,1.4-.08c.3-.65.6-1.32.92-2.01-.21,0-.3.01-.46.02,0,.03,0,.54,0,.54v.23Z"/>
      <path class="st1" d="M132.07,33.84l.02-.05v-2.28s-.11,0-.11,0v1.07s-.03.05-.03.05c-1.09,2.28-1.94,4.11-2.73,5.85.28-.03.45-.04.63-.06,0-.28,0-.84,0-.84v-.23s.59-.03.59-.03c.49-1.06,1.02-2.19,1.63-3.48Z"/>
      <path class="st1" d="M134.84,33.6l-2.06.02v1.19s1.59-.02,1.59-.02l.65-1.34s.15-.31.28-.59c-.21,0-.3,0-.46,0,0,.22,0,.5,0,.5v.24Z"/>
      <path class="st1" d="M138.31,33.79v-1.05s-2.04,4.21-2.04,4.21c0,0-.42.85-.62,1.28.22,0,.37,0,.53,0,.06-.12.1-.2.1-.2l.02-.03c0-.24,0-.56,0-.56v-.25s.39.01.39.01l1.63-3.41Z"/>
      <path class="st1" d="M142.36,38.62c.06,0,.13.02.21.03,0-.07,0-.39,0-.72l-.22-.03v.27s0,.2,0,.45Z"/>
      <path class="st1" d="M138.93,31.52h-.1s0,.24,0,.24v2.37s.4-.01.54-.02c0,.31.01,2.74.02,4.21.05,0,.09.01.12.01,0-.45-.02-4.99-.02-5.43-.15,0-.55.02-.55.02v-1.41Z"/>
      <path class="st1" d="M142.41,33.02c-.12-.01-.26-.03-.33-.03,0,.13,0,.6,0,1.22.15.02.33.03.33.03v-.26s0-.96,0-.96Z"/>
      <path class="st1" d="M145.74,39c.12.03.26.06.32.08,0-.54-.04-5.49-.04-5.92,0,0-.55,0-.55,0v-1.57s-.32,0-.32,0v.24s.02,2.53.02,2.53c0,0,.52,0,.53,0,0,.31.02,3.03.03,4.65Z"/>
      <path class="st1" d="M145.23,42.8l.18.04c1.02.23,2.04.49,3.02.79l.31.09v-1.1c-.99-.3-2.01-.56-3.03-.78l-.19-.05v-1.71c-.16-.04-.32-.08-.32-.08v.3s.02,2.49.02,2.49Z"/>
      <path class="st1" d="M148.67,33.36s-.05,0-.06,0c0,.13,0,.61,0,1.25.04,0,.06,0,.06,0v-1.25Z"/>
      <path class="st1" d="M149.77,42.79v-1.87c-.18-.05-.44-.14-.44-.14v.33s.02,2.66.02,2.66l.16.05c1.87.61,3.7,1.36,5.43,2.24l.34.18v-1.23c-1.71-.85-3.51-1.58-5.35-2.17l-.17-.05Z"/>
      <path class="st1" d="M153.02,40.63s0,.05,0,.12c.15.05.34.12.55.18,0-.08,0-.25,0-.45l-.55-.18v.33Z"/>
      <path class="st1" d="M153.91,38.76c-.37-.1-.83-.22-1.04-.27,0,.24,0,.74,0,1.21.23.06.49.13.68.18,0-.18,0-.31,0-.31v-.34s.35.12.35.12v-.59Z"/>
      <path class="st1" d="M153.53,33.77c-.2-.02-.44-.05-.69-.08,0,.23,0,.78,0,1.24.05,0,.1.01.14.02,0,.01,0,.38,0,.74.45.09,1.47.28,1.47.28v.65s.71.12.71.12v-.28s0-.96,0-.96l-1.64-.29s0-1.13,0-1.44Z"/>
      <path class="st1" d="M149.85,39.76c.14.05.37.12.45.15,0-.55-.04-6.06-.04-6.47-.15,0-.55-.01-.55-.01v-1.76s-.44-.01-.44-.01v.25s.02,2.72.02,2.72c0,0,.38,0,.53.01,0,.3.02,3.36.03,5.13Z"/>
      <path class="st1" d="M160.12,48.47c-1.14-.61-2.29-1.19-3.4-1.71l-.14-.07v-4.59s-.64-.22-.64-.22v.33s.02,5.36.02,5.36l.13.06c1.08.52,2.19,1.08,3.29,1.67.61.33,1.1.43,1.55-.16.1-.13.18-.28.25-.45-.32.09-.67-.02-1.06-.24Z"/>
      <path class="st1" d="M157.64,41.19s.94.29,1.32.41c0,0,0,.04,0,.09h0s0,1.53,0,1.79c.16.06.43.18.72.29,0-.56,0-2.91,0-3.2-.39-.12-1.36-.41-1.36-.41-1.34-.4-1.84-1.66-1.85-4.63,0,0,0-2.28,0-2.32,0-1.06.05-1.93.2-2.6-.66.58-.82,1.87-.82,3.8,0,.04,0,2.27,0,2.27,0,2.9.49,4.13,1.79,4.52Z"/>
      <path class="st1" d="M159.68,34.96s0-1.35,0-1.58c-.21-.02-.47-.05-.72-.08,0,.17,0,.7,0,1.27h0c0,.07,0,.26,0,.48,0,.31,0,.61,0,.82l2.32.37v-.28s0-.75,0-.75l-1.6-.25Z"/>
      <path class="st1" d="M120.16,27.99v-2.12c-.31.75-.84,2.05-1.05,2.57.24.59.43,1.07.43,1.07,0,0,.3-.75.62-1.53Z"/>
      <path class="st1" d="M119.1,23.91c-.35-.89-.75-1.91-.75-1.91h-.17c.3.75.68,1.73.84,2.12.02-.06.05-.13.08-.21Z"/>
      <path class="st1" d="M122.85,28.02s-.3.02-.4.02v-4.04c.1,0,.4.02.4.02v-2.03h-.43v1.07s-.31-.02-.41-.02v4.14c.1,0,.41-.02.41-.02v2.07h-1.79v.82h2.21v-2.03Z"/>
      <path class="st1" d="M118.43,27.27c-.2-.49-.41-1.01-.57-1.39v3.35h-1.65v.82h2.21v-2.78Z"/>
      <path class="st1" d="M124.73,30.05h1.34c.53,0,.93-.21,1.18-.63.2-.33.28-.72.28-1.43v-3.92c0-.72-.08-1.1-.28-1.43,0,0,0,0,0-.01.01.15.02.31.02.49v4.01c0,.73-.08,1.13-.29,1.46-.26.43-.67.64-1.22.64h-1.38c-.44,0-.79-.14-1.05-.43.04.25.12.44.22.62.26.42.66.63,1.18.63Z"/>
      <path class="st1" d="M125.17,23.99h.14v-.96h-.49v4.16h.35v-3.2Z"/>
      <path class="st1" d="M130.16,27.2c.4,1.08,1.04,2.85,1.04,2.85h2.12v-2.03s-.04,0-.09,0v1.2h-2.18s-.68-1.85-1.09-2.94v2.94h-2.01v.82h2.21v-2.85Z"/>
      <path class="st1" d="M132.94,24.01c.09,0,.39.02.39.02v-2.03h-.09v1.07s-.3-.02-.4-.02v4.14s.06,0,.1,0v-3.17Z"/>
      <path class="st1" d="M128.11,23.04s-.1,0-.16,0v.97s.07,0,.16,0v-.97Z"/>
      <path class="st1" d="M137.32,25.2h1.46v-.93h-1.42v-1.23h-.2v.96h.15v1.21Z"/>
      <path class="st1" d="M135.04,23.99h.18v-.96h-.21v1.23h-1.43v.93h1.46v-1.21Z"/>
      <rect class="st1" x="134.84" y="29.23" width="2.69" height=".82"/>
      <path class="st1" d="M141.26,24.41c-.06.57-.11,1.01-.13,1.16h.26c-.02-.15-.07-.59-.13-1.16Z"/>
      <path class="st1" d="M141.54,30.05h2.19v-.82h-2s-.16-1.62-.19-1.9h-.54c-.01.12-.05.49-.08.86h.45c.03.29.18,1.86.18,1.86Z"/>
      <path class="st1" d="M140.74,29.23h-2.19v-1.2s-.09,0-.09,0v2.03h2.2s.04-.39.08-.82Z"/>
      <path class="st1" d="M147.52,22h-.36v.99c.13.35.26.69.36.98v-1.97Z"/>
      <path class="st1" d="M149.34,30.05v-.82h-1.76s-.68-1.85-1.09-2.94v1.79c.35.96.72,1.98.72,1.98h2.12Z"/>
      <path class="st1" d="M146.17,29.23h-1.94v-1.19c-.11,0-.24-.01-.26-.01v1.21h0v.82h2.2v-.82Z"/>
      <path class="st1" d="M144.36,27.17c.1,0,.22.01.27.02v-4.14c-.1,0-.41.02-.41.02v-1.07h-.26v2.03s.3-.02.39-.02v3.16Z"/>
      <path class="st1" d="M151.87,29.23h-1.83v-1.36c-.01.09-.02.15-.02.18-.05,0-.16,0-.26-.01v1.2h-.17v.82h2.2s.04-.39.08-.82Z"/>
      <path class="st1" d="M152.67,30.05h2.19v-.82h-1.64s-.16-1.62-.19-1.9h-.54c-.01.12-.05.49-.08.86h.09c.03.29.19,1.86.19,1.86Z"/>
      <path class="st1" d="M151.19,22h-.35s-.47,3.48-.7,5.17c.1,0,.27.02.34.02.03-.25.48-3.5.71-5.19Z"/>
      <path class="st1" d="M152.75,24.41c-.06.58-.11,1.01-.13,1.16h.26c-.02-.15-.07-.59-.14-1.16Z"/>
      <path class="st1" d="M148.08,82.43s0-.01,0-.02v-.06c0-.07-.02-.12-.06-.15-.02-.02-.06-.03-.1-.04.05,0,.09-.02.12-.05.03-.03.05-.07.05-.13,0-.08-.03-.13-.09-.16-.04-.02-.08-.03-.14-.04,0,0-.06,0-.14,0-.09,0-.15,0-.19,0v.69h.18v-.24h.08s.05,0,.06.01c.02,0,.04.03.05.05,0,.01,0,.04.01.08,0,.04,0,.07.01.1h.17v-.02s-.01-.01-.01-.02ZM147.88,82.08s-.06.03-.1.03h-.07v-.2h.04s.08,0,.1.01c.04.01.06.04.06.08s-.01.07-.04.08Z"/>
      <path class="st1" d="M147.8,81.5c-.16,0-.31.06-.43.17-.13.12-.19.27-.19.45s.06.32.18.44c.12.12.27.18.44.18s.32-.06.44-.18c.12-.12.19-.27.19-.45s-.06-.32-.18-.44c-.12-.12-.27-.18-.44-.18ZM148.16,82.49c-.1.1-.22.15-.36.15s-.26-.05-.36-.15c-.1-.1-.15-.22-.15-.37s.05-.26.15-.36c.1-.1.22-.16.37-.16s.26.05.36.16c.1.1.15.22.15.36s-.05.26-.15.37Z"/>
    </g>
  </g>
</svg>