<?xml version="1.0" encoding="UTF-8"?>
<svg id="Layer_1" xmlns="http://www.w3.org/2000/svg" version="1.1" viewBox="0 0 270 112">
  <!-- Generator: Adobe Illustrator 30.0.0, SVG Export Plug-In . SVG Version: 2.1.1 Build 123)  -->
  <defs>
    <style>
      .st0 {
        fill: #fff;
      }

      .st1 {
        fill: #900;
      }

      .st2 {
        fill: #011f5b;
      }
    </style>
  </defs>
  <rect class="st0" width="270" height="112" rx="29" ry="29"/>
  <g>
    <path class="st2" d="M108.11,48.68c2.41.84,3.81.93,6.59.93,7.89,0,12.9-4.27,12.9-11.51,0-5.66-3.16-13.27-12.9-13.27h-6.59v23.85h0ZM108.11,65.95c0,6.59,1.58,8.45,6.03,8.45v1.58h-19.12v-1.58c3.71,0,6.03-1.21,6.03-8.26v-33.32c0-6.5-1.58-8.45-6.03-8.45v-1.58h19.4c14.67,0,20.61,7.8,20.61,15.13,0,8.82-6.68,13.74-18.75,13.74-2.32,0-4.27-.09-8.17-.56v14.85h0Z"/>
    <path class="st2" d="M154.15,54.34c.28-7.24-4.64-10.21-8.82-10.21-5.48,0-8.72,4.08-9.1,10.21h17.91ZM136.23,55.92c-.19,14.76,8.63,18.47,13.09,18.47s6.87-1.58,11.6-6.87v2.41c-3.99,5.11-7.8,7.05-13.55,7.05-10.3,0-17.73-7.15-17.73-17.08s7.24-17.73,16.52-17.73c7.61,0,14.67,6.13,14.2,13.74h-24.13Z"/>
    <path class="st2" d="M196.01,68.82c0,4.27.93,5.57,5.57,5.57v1.58h-17.54v-1.58c4.46,0,5.66-1.02,5.66-4.08v-17.17c0-5.29-3.81-7.52-7.33-7.52-3.25,0-6.13,2.04-9.37,6.4v16.06c0,5.01.65,6.31,5.57,6.31v1.58h-17.36v-1.58c4.36,0,5.48-.37,5.48-6.31v-18.47c0-3.99-1.02-4.83-5.48-4.83v-1.58l10.21-1.02h1.58v6.59c3.9-4.46,7.7-6.59,11.88-6.59,5.48,0,11.14,3.9,11.14,11.79v14.85h0Z"/>
    <path class="st2" d="M236.2,68.82c0,4.27.93,5.57,5.57,5.57v1.58h-17.54v-1.58c4.45,0,5.66-1.02,5.66-4.08v-17.17c0-5.29-3.8-7.52-7.33-7.52-3.25,0-6.13,2.04-9.38,6.4v16.06c0,5.01.65,6.31,5.57,6.31v1.58h-17.36v-1.58c4.36,0,5.48-.37,5.48-6.31v-18.47c0-3.99-1.02-4.83-5.48-4.83v-1.58l10.21-1.02h1.58v6.59c3.9-4.46,7.7-6.59,11.88-6.59,5.48,0,11.14,3.9,11.14,11.79v14.85h0Z"/>
    <path class="st2" d="M96.91,85.41c0,1.47.4,2.6,1.97,2.6,1.44,0,2.2-.97,2.2-2.65v-2.93c0-.22-.04-.4-.06-.57-.05-.38-.41-.53-.91-.58v-.27h2.48v.27c-.51.05-.85.2-.91.58-.02.17-.06.35-.06.57v2.97c0,2.26-1.44,3.11-2.8,3.11-2.24,0-2.94-1.14-2.94-3.04v-3.14c0-.98.04-.93-.91-1.04v-.27h2.83v.27c-.95.12-.91.06-.91,1.04v3.09h0Z"/>
    <path class="st2" d="M108.56,88.38c-1.29-1.53-2.63-3.13-3.96-4.69v3.59c0,.17.03.31.05.44.04.29.32.41.85.45v.21h-1.99v-.21c.39-.04.66-.15.7-.45.02-.13.05-.27.05-.44v-3.83c-.23-.29-.48-.55-.94-.55v-.21h1.48c1.21,1.47,2.47,2.97,3.68,4.44h.02v-3.34c0-.17-.03-.31-.05-.44-.04-.29-.32-.41-.85-.45v-.21h1.99v.21c-.38.04-.66.15-.7.45-.02.13-.05.27-.05.44v4.59h-.28Z"/>
    <path class="st2" d="M112.72,87.36c0,.76-.03.71.7.8v.21h-2.19v-.21c.73-.09.7-.05.7-.8v-3.66c0-.76.03-.71-.7-.8v-.21h2.19v.21c-.73.09-.7.05-.7.8v3.66h0Z"/>
    <path class="st2" d="M116.88,82.9c-.45,0-.77.13-.5.91.32.96.79,2.36,1.21,3.59.52-1.24,1.02-2.49,1.52-3.74.2-.51,0-.76-.56-.76v-.21h1.76v.21c-.24,0-.5.08-.67.49-.68,1.66-1.37,3.32-2.06,4.99h-.41c-.5-1.4-1.05-2.97-1.54-4.35-.3-.87-.55-1.12-.94-1.12v-.21h2.21v.21h0Z"/>
    <path class="st2" d="M121.56,88.17c.73-.09.7-.05.7-.8v-3.66c0-.76.03-.71-.7-.8v-.21h3.63v1.31h-.21c-.08-.6-.24-1.05-.83-1.05h-1.11v2.32h.68c.51,0,.73-.2.75-.71h.21v1.73h-.21c-.02-.48-.2-.76-.75-.76h-.68v1.84c0,.69.32.75,1.05.75,1.18,0,1.12-.33,1.5-1.2h.21l-.24,1.46h-4v-.21h0Z"/>
    <path class="st2" d="M128.53,85.6h.67c.71,0,1.03-.54,1.03-1.45s-.49-1.19-1.08-1.19h-.63v2.65h0ZM127.04,82.69h2.36c.82,0,1.64.43,1.64,1.38,0,.84-.51,1.41-1.14,1.66l.8,1.21c.41.59.86,1.16,1.14,1.33v.11h-.84c-.48,0-.74-.89-1.72-2.52h-.76v1.5c0,.76-.03.71.7.8v.21h-2.19v-.21c.73-.09.7-.05.7-.8v-3.66c0-.76.03-.71-.7-.8v-.21h0Z"/>
    <path class="st2" d="M135.87,83.9c-.07-.57-.37-1.02-1.02-1.02-.47,0-.89.24-.89.84,0,.57.57.91,1.38,1.52.86.64,1.14,1.05,1.14,1.73,0,.97-.99,1.5-1.97,1.5-.52,0-.97-.1-1.39-.26-.03-.02-.06-.05-.06-.11v-1.17h.21c.09.9.68,1.26,1.31,1.26.58,0,1.05-.44,1.05-1.03,0-.53-.28-.96-1.5-1.76-.44-.29-.98-.61-.98-1.5,0-.73.81-1.31,1.75-1.31.35,0,.81.04,1.14.15.05.02.06.05.06.09v1.06h-.21Z"/>
    <path class="st2" d="M139.42,87.36c0,.76-.03.71.7.8v.21h-2.19v-.21c.73-.09.7-.05.7-.8v-3.66c0-.76.03-.71-.7-.8v-.21h2.19v.21c-.73.09-.7.05-.7.8v3.66h0Z"/>
    <path class="st2" d="M144.13,87.36c0,.76-.03.71.7.8v.21h-2.19v-.21c.73-.09.7-.05.7-.8v-4.41h-.73c-.71,0-.87.45-1.14.98h-.2l.22-1.24h4.49l.22,1.24h-.2c-.27-.54-.43-.98-1.14-.98h-.73v4.41h0Z"/>
    <path class="st2" d="M148.57,88.17c.73-.09.7-.05.7-.8v-1.25l-1.25-2.48c-.27-.53-.5-.73-.87-.73v-.21h2.07v.21c-.62,0-.56.31-.36.73l.98,2.04,1.12-2.04c.28-.5.02-.73-.46-.73v-.21h1.67v.21c-.23,0-.45.11-.67.5l-1.36,2.46c-.08.16-.1.39-.1.59v.91c0,.76-.03.71.7.8v.21h-2.19v-.21h0Z"/>
    <path class="st2" d="M159.56,84.38c0-1.1-.66-1.14-.83-1.14-1.14,0-1.89,2.04-1.89,3.41,0,.55.1,1.54.87,1.54,1.2,0,1.84-1.98,1.84-3.81h0ZM155.88,86.43c0-1.38,1.19-3.44,2.95-3.44,1.4,0,1.71.95,1.71,1.9,0,1.16-.93,3.62-2.94,3.62-1.35,0-1.72-1.08-1.72-2.07h0Z"/>
    <path class="st2" d="M165.83,83.33l-.25.22h-1.38c-.52,2.5-1.36,5.84-1.96,7.44h-.48l1.51-7.44h-1l.09-.44h.99c.56-2.24,2.41-2.48,2.85-2.48.24,0,.75.04.91.19l-.13.69-.26.13c-.15-.28-.48-.61-.93-.61-.63,0-1.11.43-1.36,1.57l-.11.51h1.55l-.04.22h0Z"/>
    <path class="st2" d="M172.25,87.06c0,.98-.04.93.9,1.04v.27h-2.83v-.27c.95-.12.91-.06.91-1.04v-4.74c0-.98.04-.93-.91-1.04v-.27h2.76c1.75,0,2.61.69,2.61,1.96,0,1.52-1.37,2.34-2.98,2.24v-.21c1.32.02,1.93-.77,1.93-1.93s-.57-1.73-1.75-1.73h-.64v5.72h0Z"/>
    <path class="st2" d="M177.15,88.17c.73-.09.7-.05.7-.8v-3.66c0-.76.03-.71-.7-.8v-.21h3.63v1.31h-.21c-.08-.6-.24-1.05-.83-1.05h-1.11v2.32h.68c.51,0,.73-.2.75-.71h.21v1.73h-.21c-.02-.48-.2-.76-.75-.76h-.68v1.84c0,.69.32.75,1.05.75,1.18,0,1.12-.33,1.5-1.2h.21l-.24,1.46h-4v-.21h0Z"/>
    <path class="st2" d="M187.84,88.38c-1.29-1.53-2.63-3.13-3.96-4.69v3.59c0,.17.03.31.05.44.04.29.32.41.85.45v.21h-1.99v-.21c.39-.04.66-.15.7-.45.02-.13.05-.27.05-.44v-3.83c-.23-.29-.48-.55-.94-.55v-.21h1.48c1.21,1.47,2.47,2.97,3.68,4.44h.02v-3.34c0-.17-.03-.31-.05-.44-.04-.29-.32-.41-.85-.45v-.21h1.99v.21c-.38.04-.66.15-.7.45-.02.13-.05.27-.05.44v4.59h-.28Z"/>
    <path class="st2" d="M195.12,88.38c-1.29-1.53-2.63-3.13-3.96-4.69v3.59c0,.17.03.31.05.44.04.29.32.41.85.45v.21h-1.99v-.21c.39-.04.66-.15.7-.45.02-.13.05-.27.05-.44v-3.83c-.23-.29-.48-.55-.94-.55v-.21h1.48c1.21,1.47,2.47,2.97,3.68,4.44h.02v-3.34c0-.17-.03-.31-.05-.44-.04-.29-.32-.41-.85-.45v-.21h1.99v.21c-.38.04-.66.15-.7.45-.02.13-.05.27-.05.44v4.59h-.28Z"/>
    <path class="st2" d="M200.41,83.9c-.06-.57-.37-1.02-1.02-1.02-.47,0-.89.24-.89.84,0,.57.57.91,1.38,1.52.86.64,1.14,1.05,1.14,1.73,0,.97-.99,1.5-1.97,1.5-.52,0-.97-.1-1.39-.26-.03-.02-.06-.05-.06-.11v-1.17h.21c.09.9.68,1.26,1.31,1.26.58,0,1.05-.44,1.05-1.03,0-.53-.28-.96-1.5-1.76-.44-.29-.98-.61-.98-1.5,0-.73.81-1.31,1.75-1.31.35,0,.81.04,1.14.15.05.02.06.05.06.09v1.06h-.21Z"/>
    <path class="st2" d="M203.68,88.17c.73-.09.7-.05.7-.8v-1.25l-1.25-2.48c-.27-.53-.5-.73-.87-.73v-.21h2.07v.21c-.62,0-.56.31-.36.73l.98,2.04,1.12-2.04c.28-.5.02-.73-.46-.73v-.21h1.67v.21c-.23,0-.45.11-.67.5l-1.36,2.46c-.08.16-.1.39-.1.59v.91c0,.76-.03.71.7.8v.21h-2.19v-.21h0Z"/>
    <path class="st2" d="M208.62,88.17c.73-.09.7-.05.7-.8v-3.66c0-.76.03-.71-.7-.8v-.21h2.19v.21c-.73.09-.7.05-.7.8v3.79c0,.57.32.63,1.04.63,1.18,0,1.13-.33,1.5-1.2h.2l-.24,1.46h-3.99v-.21h0Z"/>
    <path class="st2" d="M215.69,82.9c-.45,0-.77.13-.5.91.32.96.79,2.36,1.21,3.59.52-1.24,1.02-2.49,1.52-3.74.2-.51,0-.76-.56-.76v-.21h1.76v.21c-.24,0-.5.08-.67.49-.68,1.66-1.37,3.32-2.06,4.99h-.41c-.5-1.4-1.05-2.97-1.54-4.35-.3-.87-.55-1.12-.94-1.12v-.21h2.21v.21h0Z"/>
    <path class="st2" d="M222.43,86.18l-.86-2.64h-.02l-.97,2.64h1.84ZM220.46,86.49l-.37,1.09c-.11.32.05.58.41.58v.21h-1.48v-.21c.22,0,.46-.14.59-.41.35-.71,1.3-3.37,1.97-5.17h.46c.55,1.63,1.38,4.14,1.66,4.86.18.46.31.71.66.71v.21h-1.89v-.21c.51,0,.56-.27.43-.63l-.35-1.05h-2.07Z"/>
    <path class="st2" d="M230.6,88.38c-1.29-1.53-2.63-3.13-3.96-4.69v3.59c0,.17.03.31.05.44.04.29.32.41.85.45v.21h-1.99v-.21c.39-.04.66-.15.7-.45.02-.13.05-.27.05-.44v-3.83c-.23-.29-.48-.55-.94-.55v-.21h1.48c1.21,1.47,2.47,2.97,3.68,4.44h.02v-3.34c0-.17-.03-.31-.05-.44-.04-.29-.32-.41-.85-.45v-.21h1.99v.21c-.38.04-.66.15-.7.45-.02.13-.05.27-.05.44v4.59h-.28Z"/>
    <path class="st2" d="M234.44,87.36c0,.76-.03.71.7.8v.21h-2.18v-.21c.73-.09.7-.05.7-.8v-3.66c0-.76.03-.71-.7-.8v-.21h2.18v.21c-.73.09-.7.05-.7.8v3.66h0Z"/>
    <path class="st2" d="M239.8,86.18l-.86-2.64h-.02l-.97,2.64h1.84ZM237.84,86.49l-.37,1.09c-.11.32.05.58.41.58v.21h-1.48v-.21c.22,0,.45-.14.58-.41.35-.71,1.3-3.37,1.98-5.17h.46c.55,1.63,1.38,4.14,1.66,4.86.18.46.31.71.66.71v.21h-1.89v-.21c.51,0,.56-.27.43-.63l-.35-1.05h-2.07Z"/>
    <g>
      <path class="st0" d="M88.57,21H28.23s0,29.92,0,30.07c-.04,13.09,7.22,22.57,13.31,28.22,6.7,6.21,14.09,9.8,16.56,10.33l.3.06.3-.06c2.47-.54,9.85-4.12,16.56-10.33,6.09-5.65,13.35-15.13,13.31-28.22,0-.37,0-30.08,0-30.08h0Z"/>
      <path class="st1" d="M84.85,33.59h0c.09.07.18.14.24.24.07.1.1.22.1.35,0,.12-.03.24-.1.34-.06.1-.16.17-.24.24-.14.11-.27.21-.27.38v1.07h-6.33s-6.33,0-6.33,0v-1.07c0-.18-.13-.28-.27-.38-.09-.07-.18-.14-.24-.24-.07-.1-.1-.22-.1-.35,0-.12.03-.24.1-.34.06-.1.16-.17.24-.24.14-.11.27-.21.27-.38v-3.5c0-.18-.13-.28-.27-.38-.09-.07-.18-.14-.24-.24-.07-.1-.1-.22-.1-.35,0-.12.03-.24.1-.34.06-.1.16-.17.24-.24.14-.11.27-.21.27-.38v-1.1h.16c.74,0,1.39-.02,1.84-.21.18-.08.35-.19.54-.3.39-.24.83-.52,1.48-.52.53,0,1.02.2,1.45.37.31.12.6.24.81.24h.09c.22,0,.5-.12.81-.24.43-.17.92-.37,1.45-.37.66,0,1.1.28,1.49.52.18.11.35.22.53.3.45.19,1.1.21,1.84.21h.16v1.1c0,.18.13.28.27.38.08.07.18.14.24.24.07.1.1.22.1.35,0,.12-.03.24-.1.34-.06.1-.16.17-.24.24-.14.11-.27.21-.27.38v3.5c0,.18.13.28.27.38h0ZM69.34,35.42c-.98,1.56-2.87,1.95-2.94,1.96-.37.07-.75.1-1.14.1h0c-1.97,0-3.79-.86-5.64-1.81-.21-.11-.44-.23-.69-.37-1.18-.65-2.83-1.55-4.22-1.55-.41,0-.79.08-1.13.26l-.06.03v.06c-.01.18-.05.35-.11.51-.22.59-.95,1.23-1.3,1.48-.81.58-1.81,1.18-3.05,1.18-.19,0-.36-.03-.51-.08-.22-.08-.41-.21-.55-.39-.07-.09-.13-.19-.17-.3-.04-.09-.06-.17-.07-.28v-.07s-.08-.02-.08-.02c-.48-.14-.77-.46-.77-.84,0-.29.21-.54.42-.79.32-.38.6-.71.15-1.14-.04-.04-.09-.08-.14-.11-.07-.05-.13-.09-.18-.16-.4-.43-.16-1.31-.02-1.84l.02-.06c.15-.58.39-1.18.71-1.83.44-.88.98-1.88,1.73-2.51.02-.01.03-.02.05-.02.02,0,.04.01.05.03.02.02.1.15.22.35l.13.21.08-.23c.21-.63.55-1.03,1.03-1.2.51-.19.98.07,1.21.25l.1.07.06-.1c.15-.25.43-.54.9-.56.51-.02.93.33,1.13.54l.07.08.08-.07c.23-.19.83-.63,1.43-.55.57.08.78.57.85.78l.04.13.12-.06c.27-.13.79-.31,1.28,0,.31.2.35.54.33.79v.15s.13-.02.13-.02c.37-.06,1.04-.1,1.45.31.32.32.34.74.3,1.03l-.02.14.14-.02c.32-.04.76,0,.99.35.16.25.1.59.05.78l-.03.11.11.03c.19.05.52.16.62.43.07.2.05.53-.06.92l-.03.1.1.04c.16.07.46.23.62.54.16.31.15.7-.02,1.15l-.03.07.06.05c.42.37.84.72,1.26,1.02.84.61,2.16.94,3.05.2.34-.28.49-.78.37-1.26-.1-.42-.38-.71-.76-.8-.67-.15-1.21.49-1.64,1.14-.01.02-.04.03-.06.03-.03,0-.05-.02-.06-.04-.4-.95-.42-1.75-.06-2.36.31-.52.9-.88,1.62-.99l.1-.02v-.1c-.01-1.13.26-1.96.8-2.45.33-.3.94-.63,1.97-.49.02,0,.04.02.05.03.01.02.01.04,0,.06-.75,1.81-.57,2.49-.16,3.98.04.13.07.27.11.41h0c.38,1.41.26,2.62-.34,3.59h0ZM45.13,33.59h0c.09.07.18.14.24.24.07.1.1.22.1.35,0,.12-.03.24-.1.34-.06.1-.16.17-.24.24-.14.11-.27.21-.27.38v1.07h-6.33s-6.33,0-6.33,0v-1.07c0-.18-.13-.28-.27-.38-.09-.07-.18-.14-.24-.24-.07-.1-.1-.22-.1-.35,0-.12.03-.24.1-.34.06-.1.16-.17.24-.24.14-.11.27-.21.27-.38v-3.5c0-.18-.13-.28-.27-.38-.09-.07-.18-.14-.24-.24-.07-.1-.1-.22-.1-.35,0-.12.03-.24.1-.34.06-.1.16-.17.24-.24.14-.11.27-.21.27-.38v-1.1h.16c.74,0,1.39-.02,1.84-.21.18-.08.35-.19.54-.3.39-.24.83-.52,1.48-.52.53,0,1.02.2,1.45.37.31.12.6.24.81.24h.09c.22,0,.51-.12.81-.24.43-.17.92-.37,1.45-.37.66,0,1.1.28,1.49.52.18.11.35.22.53.3.45.19,1.1.21,1.84.21h.16v1.1c0,.18.13.28.27.38.08.07.18.14.24.24.07.1.1.22.1.35,0,.12-.03.24-.1.34-.06.1-.16.17-.24.24-.14.11-.27.21-.27.38v3.5c0,.18.13.28.27.38h0ZM29.76,22.59s.08,17.48,0,17.39h57.29v-17.39H29.76Z"/>
      <path class="st2" d="M49.49,32.84c.2,0,.39.05.58.21.06.05.12.1.17.15.13.13.12.34-.02.45-.14.12-.3.23-.4.3-.23.16-.63.45-.91.22-.14-.12.14-.31.02-.79-.1-.38.28-.55.57-.55h0Z"/>
      <path class="st2" d="M49.59,27.2c-.64.6-1.11,1.49-1.51,2.29-.32.64-.55,1.22-.7,1.78l-.02.06c-.11.42-.34,1.28-.04,1.6.04.04.09.08.15.13.05.04.11.08.16.13.62.59.19,1.11-.13,1.48-.19.22-.36.43-.36.62,0,.44.53.59.69.63.08.02.14.08.14.16,0,.13.02.22.07.32.04.09.08.17.14.24.11.14.26.25.44.31.13.04.27.07.43.07,1.17,0,2.13-.57,2.91-1.13.47-.33,1.05-.92,1.21-1.36.04-.12.07-.24.08-.38l-.82-.14s-.01,0-.02,0c-.09-.03-.14-.09-.16-.17-.03-.16.12-.26.41-.46.09-.06.17-.12.26-.18.43-.32.78-.57.98-.71-.23-.25-.42-.55-.58-.79-.12-.19-.23-.35-.32-.45-.41-.44-1.12-.7-1.71-.34-.24.15-.44.33-.66.52-.18.16-.36.32-.56.46-.08.06-.18.04-.25-.03-.06-.07-.05-.18.01-.25.03-.03.06-.05.09-.09.27-.25.89-.83.89-1.25,0-.96-.92-2.54-1.24-3.07h0ZM54.72,33.49c1.43,0,3.05.89,4.33,1.59.24.13.48.26.68.37,2.17,1.12,4.31,2.1,6.62,1.69.02,0,1.86-.38,2.78-1.85.57-.91.67-2.05.31-3.39-.04-.14-.08-.28-.11-.41-.38-1.39-.6-2.18.08-3.91-.79-.05-1.26.21-1.53.45-.52.47-.76,1.28-.72,2.42,0,.1-.07.18-.16.19-.71.07-1.3.41-1.59.89-.28.47-.29,1.08-.05,1.81.35-.48.95-1.13,1.71-.96.47.1.83.47.95.98.14.57-.05,1.17-.46,1.51-1,.82-2.44.47-3.35-.2-1.08-.79-2.15-1.78-3.28-3.05-.2-.22-.39-.45-.58-.67-.71-.82-1.44-1.67-2.32-2.35-1.37-1.06-2.99-1.23-4.11-1.19-.76.03-2.29.24-3.32.86.31.65.6,1.4.6,1.98,0,.1-.02.21-.06.31.74-.44,1.63-.12,2.13.42.11.12.23.3.36.5.19.3.41.63.68.88.04.04.06.09.06.14,0,.05-.03.1-.08.14,0,0-.48.34-1.14.83-.09.07-.19.13-.27.19-.02.01-.03.02-.05.03l.59.1c.4-.22.85-.32,1.31-.32h0ZM65.26,37.6c-1.97,0-3.82-.86-5.7-1.83-.21-.11-.44-.24-.69-.37-1.51-.83-3.77-2.06-5.25-1.29-.01.19-.05.38-.11.55-.23.62-.98,1.27-1.34,1.53-.83.59-1.84,1.2-3.12,1.2-.2,0-.38-.03-.55-.09-.24-.08-.45-.23-.61-.43-.07-.1-.14-.2-.19-.32-.04-.1-.07-.2-.08-.31-.53-.16-.85-.51-.85-.95,0-.33.23-.6.45-.86.36-.42.51-.64.15-.98-.04-.04-.08-.07-.13-.1-.07-.05-.14-.1-.2-.17-.44-.47-.2-1.39-.05-1.95l.02-.06c.15-.59.39-1.19.72-1.85.45-.89.99-1.9,1.76-2.55.04-.03.09-.05.14-.04.05,0,.1.04.13.08.03.04.33.51.66,1.13,1.34-.8,3.25-.89,3.47-.9,1.18-.04,2.89.14,4.35,1.27.91.7,1.65,1.56,2.37,2.4.19.22.38.44.58.66,1.11,1.25,2.16,2.23,3.22,3,.81.59,2.06.9,2.91.21.3-.25.44-.71.33-1.14-.09-.38-.34-.64-.68-.71-.61-.13-1.11.48-1.52,1.09-.04.06-.1.09-.17.08-.07,0-.12-.05-.15-.11-.41-.99-.43-1.82-.05-2.46.32-.54.95-.93,1.7-1.05-.01-1.17.27-2.02.84-2.54.35-.32.99-.66,2.06-.52.06,0,.11.04.13.09.03.05.03.11.01.16-.74,1.78-.55,2.44-.15,3.9.04.13.07.27.11.41.39,1.44.27,2.68-.36,3.68-1,1.61-2.94,2-3.02,2.01-.39.07-.78.1-1.16.1h0Z"/>
      <path class="st2" d="M48.36,36.34c-.17,0-.35-.01-.52-.03-.1-.01-.17-.1-.16-.2.01-.1.1-.17.2-.16.83.1,2.04-.01,3.09-1.1.07-.07.19-.07.26,0,.07.07.07.19,0,.26-.79.82-1.78,1.24-2.87,1.24h0Z"/>
      <path class="st2" d="M62.96,33.61s-.05,0-.07-.01c-.09-.04-.13-.14-.09-.22.19-.44.22-.8.08-1.08-.19-.37-.63-.48-.63-.48-.05-.01-.09-.04-.11-.09-.02-.04-.03-.09-.01-.14.06-.17.21-.67.12-.92-.08-.21-.48-.3-.62-.32-.05,0-.1-.04-.13-.08-.03-.05-.03-.1-.01-.15.06-.14.17-.54.04-.75-.27-.42-.98-.21-.98-.21-.06.02-.13,0-.17-.05-.04-.05-.06-.11-.04-.17,0,0,.2-.64-.19-1.05-.46-.47-1.46-.2-1.47-.19-.06.02-.13,0-.17-.05-.04-.05-.06-.11-.04-.17,0-.02.17-.55-.19-.78-.57-.36-1.21.1-1.22.11-.05.04-.11.04-.17.02-.06-.02-.09-.08-.1-.14,0-.03-.1-.72-.71-.8-.66-.09-1.36.59-1.36.6-.03.03-.08.05-.13.05-.05,0-.09-.03-.12-.07,0,0-.47-.61-1.05-.58-.56.03-.79.6-.79.6-.02.05-.07.09-.12.11-.06.01-.11,0-.16-.04,0,0-.56-.54-1.14-.33-.72.26-.93,1.15-.99,1.44h0c-.02.1-.11.16-.2.14-.09-.02-.15-.11-.13-.2h0c.08-.34.31-1.36,1.21-1.69.55-.2,1.06.07,1.32.26.14-.24.45-.59.99-.62.56-.03,1.01.36,1.22.57.26-.22.88-.66,1.51-.57.56.07.83.51.94.86.3-.15.85-.33,1.39,0,.37.23.41.63.38.9.39-.07,1.11-.11,1.55.34.36.36.37.84.33,1.13.31-.04.82-.02,1.1.41.18.28.12.64.06.87.23.06.58.19.69.5.11.3,0,.75-.06.99.2.08.51.25.68.6.19.37.17.83-.07,1.37-.03.06-.09.1-.16.1h0Z"/>
      <path class="st2" d="M62.11,35.95s-.01,0-.02,0c-.09-.01-.16-.1-.15-.19.08-.65-.3-.77-.64-.87-.09-.03-.17-.05-.23-.09-.18-.1-.19-.32-.19-.55,0-.24-.02-.52-.2-.72-.32-.35-.94-.12-.95-.12-.06.02-.12.01-.17-.03-.05-.04-.07-.1-.06-.16,0,0,.1-.69-.3-1.03-.34-.29-.97-.22-1.19-.17-.05.01-.11,0-.15-.04-.04-.04-.06-.09-.06-.14.03-.43-.14-.79-.47-1-.28-.18-.61-.2-.87-.06-.71.38-.99.41-1.74-.12-.23-.17-.47-.22-.69-.16-.29.07-.55.33-.74.72-.04.08-.14.12-.23.08-.08-.04-.12-.14-.08-.23.24-.48.58-.8.96-.9.32-.08.66,0,.97.21.63.45.77.43,1.39.1.37-.2.84-.17,1.22.08.37.24.6.64.62,1.1.31-.04.89-.05,1.28.27.37.31.43.8.43,1.09.29-.05.76-.07,1.08.28.27.3.28.67.29.94,0,.09,0,.23.03.27.03.02.09.04.15.05.32.1.99.31.88,1.24-.01.09-.08.15-.17.15h0Z"/>
      <path class="st2" d="M45.24,34.18c0,.08-.02.14-.06.21-.04.06-.12.12-.19.18-.16.12-.36.28-.36.57v.78h-12.17v-.78c0-.29-.2-.45-.36-.57-.08-.06-.15-.12-.19-.18-.04-.06-.06-.13-.06-.21h0c0-.09.02-.16.06-.22.04-.06.12-.12.19-.18.16-.12.36-.28.36-.57v-3.5c0-.29-.2-.45-.36-.57-.08-.06-.15-.12-.19-.18-.04-.06-.06-.13-.06-.21h0c0-.09.02-.16.06-.22.04-.06.12-.12.19-.18.16-.12.36-.28.36-.57v-.81s.02,0,.03,0c.32,0,.62,0,.92-.03v8.04h4.43c.08.32.37.55.72.55s.63-.23.72-.55h4.43v-8.04c.29.02.6.03.91.03,0,0,.02,0,.03,0v.81c0,.29.2.45.36.57.08.06.15.12.19.18.04.06.06.13.06.21h0s0,.01,0,.01c0,.08-.02.15-.06.21-.04.06-.12.12-.19.18-.16.12-.36.28-.36.57v3.5c0,.29.2.45.36.57.08.06.15.12.19.18.04.06.06.13.06.21h0s0,.01,0,.01h0ZM34.33,26.73c.21-.09.39-.21.58-.32.39-.24.76-.48,1.33-.48.47,0,.93.19,1.34.35.29.12.54.22.77.25v7.03s-.03,0-.04,0c-.34.03-.82.18-1.37.36-.18.06-.36.11-.54.17-.53.16-1.08.16-1.62.16-.35,0-.68,0-.98.05v-7.43c.19-.03.37-.08.54-.16h0ZM39.51,26.29c.41-.16.87-.35,1.34-.35.57,0,.94.23,1.33.48.18.11.37.23.58.32.17.07.35.12.54.16v7.43c-.3-.05-.64-.05-.98-.05-.53,0-1.09,0-1.62-.16-.18-.05-.36-.11-.54-.17-.55-.18-1.03-.33-1.37-.36,0,0-.01,0-.02,0v-7.04c.23-.04.47-.13.75-.25h0ZM45.2,33.5c-.14-.11-.22-.18-.22-.29v-3.5c0-.11.08-.18.22-.29.09-.07.19-.15.27-.26.08-.12.12-.26.12-.41,0-.15-.04-.29-.12-.41-.07-.11-.18-.19-.27-.26-.14-.11-.22-.18-.22-.29v-1.22h-.28c-.65,0-1.34,0-1.79-.2-.18-.08-.34-.18-.52-.29-.4-.25-.86-.54-1.55-.54-.55,0-1.05.2-1.49.38-.3.12-.58.23-.77.23h-.09c-.19,0-.47-.11-.77-.23-.44-.18-.94-.38-1.49-.38-.69,0-1.15.29-1.55.54-.18.11-.34.22-.52.29-.45.19-1.15.2-1.79.2h-.28v1.22c0,.11-.08.18-.22.29-.09.07-.19.15-.27.26-.08.12-.12.26-.12.41,0,.15.04.29.12.41.07.11.18.19.27.26.14.11.22.18.22.29v3.5c0,.11-.08.18-.22.29-.09.07-.19.15-.27.26-.08.12-.12.26-.12.41,0,.15.04.29.12.41.07.11.18.19.27.26.14.11.22.18.22.29v1.19s0,0,0,0h0s6.44,0,6.44,0h6.44s0,0,0,0h0v-.02s0-1.17,0-1.17c0-.11.08-.18.22-.29.09-.07.19-.15.27-.26.08-.12.12-.26.12-.41,0-.15-.04-.29-.12-.41-.07-.11-.18-.19-.27-.26h0Z"/>
      <path class="st2" d="M84.96,34.18c0,.08-.02.14-.06.21-.04.06-.12.12-.19.18-.16.12-.36.28-.36.57v.78h-12.17v-.78c0-.29-.2-.45-.36-.57-.08-.06-.15-.12-.19-.18-.04-.06-.06-.13-.06-.21h0s0-.01,0-.01c0-.08.02-.14.06-.21.04-.06.12-.12.19-.18.16-.12.36-.28.36-.57v-3.5c0-.29-.2-.45-.36-.57-.08-.06-.15-.12-.19-.18-.04-.06-.06-.13-.06-.21h0s0-.01,0-.01c0-.08.02-.15.06-.21.04-.06.12-.12.19-.18.16-.12.36-.28.36-.57v-.81s.02,0,.03,0c.32,0,.62,0,.92-.03v8.04h4.43c.08.32.37.55.72.55s.63-.23.72-.55h4.43v-8.04c.29.02.6.03.91.03,0,0,.02,0,.03,0v.81c0,.29.2.45.36.57.08.06.15.12.19.18.04.06.06.13.06.21h0c0,.09-.02.16-.06.22-.04.06-.12.12-.19.18-.16.12-.36.28-.36.57v3.5c0,.29.2.45.36.57.08.06.15.12.19.18.04.06.06.13.06.21h0ZM74.05,26.73c.21-.09.39-.21.58-.32.39-.24.76-.48,1.33-.48.47,0,.93.19,1.34.35.29.12.54.22.77.25v7.03s-.03,0-.04,0c-.34.03-.82.18-1.37.36-.18.06-.36.11-.54.17-.53.16-1.08.16-1.62.16-.35,0-.68,0-.98.05v-7.43c.19-.03.37-.08.54-.16h0ZM79.23,26.29c.41-.16.87-.35,1.34-.35.57,0,.94.23,1.33.48.18.11.37.23.58.32.17.07.35.12.54.16v7.43c-.3-.05-.64-.05-.98-.05-.53,0-1.09,0-1.62-.16-.18-.05-.36-.11-.54-.17-.55-.18-1.03-.33-1.37-.36,0,0-.01,0-.02,0v-7.04c.23-.04.47-.13.75-.25h0ZM84.92,33.5c-.14-.11-.22-.18-.22-.29v-3.5c0-.11.08-.18.22-.29.09-.07.19-.15.27-.26.08-.12.12-.26.12-.41,0-.15-.04-.29-.12-.41-.07-.11-.18-.19-.27-.26-.14-.11-.22-.18-.22-.29v-1.22h-.28c-.65,0-1.34,0-1.79-.2-.18-.08-.34-.18-.52-.29-.4-.25-.86-.54-1.55-.54-.55,0-1.05.2-1.49.38-.3.12-.58.23-.77.23h-.09c-.19,0-.47-.11-.77-.23-.44-.18-.94-.38-1.49-.38-.69,0-1.15.29-1.55.54-.18.11-.34.22-.52.29-.45.19-1.15.2-1.79.2h-.28v1.22c0,.11-.08.18-.22.29-.09.07-.19.15-.27.26-.08.12-.12.26-.12.41,0,.15.04.29.12.41.07.11.18.19.27.26.14.11.22.18.22.29v3.5c0,.11-.08.18-.22.29-.09.07-.19.15-.27.26-.08.12-.12.26-.12.41,0,.15.04.29.12.41.07.11.18.19.27.26.14.11.22.18.22.29v1.19s0,0,0,0h0s6.44,0,6.44,0h6.44s0,0,0,0h0v-.02s0-1.17,0-1.17c0-.11.08-.18.22-.29.09-.07.19-.15.27-.26.08-.12.12-.26.12-.41,0-.15-.04-.29-.12-.41-.07-.11-.18-.19-.27-.26h0Z"/>
      <path class="st2" d="M83.4,65.27l-25-24.11-25,24.11c-1.94-4.08-3.23-8.82-3.22-14.19,0-.16,0-5.02,0-10.69h56.43c0,5.67,0,10.54,0,10.69.02,5.37-1.28,10.11-3.22,14.19h0ZM75.42,67.79c-1.94,1.94-5.09,1.94-7.03,0-1.94-1.94-1.94-5.09,0-7.03,1.94-1.94,5.09-1.94,7.03,0,1.94,1.94,1.94,5.09,0,7.03h0ZM53.43,51.94c0-2.74,2.23-4.97,4.97-4.97s4.97,2.23,4.97,4.97-2.23,4.97-4.97,4.97-4.97-2.23-4.97-4.97h0ZM73.93,77.87c-6.71,6.22-13.67,9.36-15.53,9.83-1.86-.47-8.82-3.61-15.53-9.83-.16-.15-.33-.31-.49-.46l16.02-17.01,16.02,17.01c-.16.16-.33.31-.49.46h0ZM41.38,67.79c-1.94-1.94-1.94-5.09,0-7.03,1.94-1.94,5.09-1.94,7.03,0,1.94,1.94,1.94,5.09,0,7.03-1.94,1.94-5.09,1.94-7.03,0h0ZM86.62,22.95c0,1.85,0,9.69,0,16.63H30.19c0-6.94,0-14.78,0-16.63h56.43ZM87.42,22.14H29.38s0,28.55,0,28.93c-.04,12.68,7.02,21.89,12.94,27.38,6.46,5.99,13.74,9.56,16.02,10.05h.06s.06,0,.06,0c2.29-.5,9.56-4.06,16.02-10.05,5.93-5.49,12.98-14.7,12.94-27.38,0-.38,0-28.93,0-28.93h0Z"/>
    </g>
  </g>
</svg>