<?xml version="1.0" encoding="UTF-8"?>
<svg id="Layer_1" xmlns="http://www.w3.org/2000/svg" version="1.1" viewBox="0 0 270 112">
  <!-- Generator: Adobe Illustrator 30.0.0, SVG Export Plug-In . SVG Version: 2.1.1 Build 123)  -->
  <defs>
    <style>
      .st0 {
        fill: #fff;
      }

      .st1 {
        fill: #7badd3;
      }
    </style>
  </defs>
  <rect class="st0" width="270" height="112" rx="29" ry="29"/>
  <g>
    <path class="st1" d="M168.99,60.81c-.29-.29-.68-.45-1.08-.45-.06,0-.12,0-.18.01-.46.05-.88.32-1.12.71-.65,1.05-1.5,2.06-2.53,3.03-.35-2.66-.52-5.37-.52-8.11s.17-5.46.52-8.11c1.04.97,1.88,1.98,2.53,3.03.25.4.66.66,1.12.71.06.01.12.01.18.01.4,0,.79-.16,1.08-.45l8.58-8.58c.55-.55.6-1.43.11-2.04-2.43-3.01-5.53-5.73-9.25-8.07.66-1.4,1.37-2.73,2.14-3.96.22-.35.28-.77.19-1.17-.1-.4-.36-.74-.71-.95-3.46-2.03-7.27-3.75-11.32-5.1-.16-.05-.32-.08-.49-.08-.53,0-1.04.28-1.32.76-.82,1.4-1.6,2.88-2.32,4.41-5.89-1.7-12.14-2.55-18.6-2.55-5.69,0-11.25.67-16.54,2l-3.84-4.33c-.29-.33-.71-.52-1.14-.52-.16,0-.31.03-.47.07-4.33,1.39-8.39,3.19-12.06,5.35-.39.23-.66.63-.74,1.08-.06.41.04.82.28,1.15.74,1.2,1.43,2.49,2.07,3.85-9.57,6.06-15.03,14.56-15.03,23.5s5.46,17.44,15.03,23.5c-.66,1.4-1.37,2.72-2.14,3.95-.22.35-.28.78-.18,1.17.1.4.36.74.71.95,3.46,2.03,7.27,3.75,11.32,5.1.16.05.32.08.49.08.53,0,1.04-.28,1.32-.76.82-1.41,1.6-2.88,2.32-4.4,5.88,1.69,12.13,2.55,18.6,2.55,5.7,0,11.26-.67,16.54-2l3.84,4.33c.3.33.71.51,1.14.51.16,0,.31-.02.47-.07,4.33-1.39,8.39-3.19,12.06-5.35.4-.23.66-.63.74-1.08.06-.41-.04-.82-.28-1.15-.74-1.2-1.43-2.49-2.07-3.85,3.72-2.35,6.82-5.06,9.25-8.07.49-.61.44-1.49-.11-2.04l-8.58-8.58ZM107.91,64.12c-2.14-2.01-4.07-4.75-4.07-8.12s1.93-6.11,4.07-8.12c.35,2.66.52,5.37.52,8.12s-.18,5.46-.52,8.12ZM135.99,72.84c-4.77,0-9.51-.57-13.81-1.66,1.03-4.92,1.56-10.02,1.56-15.19,0-.77-.01-1.54-.03-2.31l16.85,18.97c-1.51.11-3.04.17-4.56.17ZM148.28,58.31l-16.85-18.98c1.51-.11,3.03-.17,4.56-.17,4.77,0,9.51.57,13.81,1.66-1.03,4.91-1.56,10.02-1.56,15.18,0,.77.01,1.54.03,2.3Z"/>
    <path class="st1" d="M176.78,77.51c2.14,0,3.93,1.71,3.93,3.92s-1.79,3.92-3.93,3.92-3.93-1.72-3.93-3.92,1.79-3.92,3.93-3.92ZM176.78,86.11c2.62,0,4.69-2.07,4.69-4.68s-2.07-4.68-4.69-4.68-4.69,2.07-4.69,4.68,2.07,4.68,4.69,4.68ZM177.59,81.67c.7-.02,1.4-.41,1.4-1.44,0-1.11-.86-1.39-1.81-1.39h-2.21v5.26h.76v-2.43h.98l1.35,2.43h.87l-1.33-2.43ZM177.05,79.59c.63,0,1.19.05,1.19.71,0,.72-.98.59-1.69.59h-.81v-1.31h1.31Z"/>
  </g>
</svg>