<?xml version="1.0" encoding="UTF-8"?>
<svg id="Layer_1" xmlns="http://www.w3.org/2000/svg" version="1.1" viewBox="0 0 270 112">
  <!-- Generator: Adobe Illustrator 30.0.0, SVG Export Plug-In . SVG Version: 2.1.1 Build 123)  -->
  <defs>
    <style>
      .st0 {
        fill: #fff;
      }

      .st1 {
        fill: #011e41;
      }
    </style>
  </defs>
  <rect class="st0" width="270" height="112" rx="29" ry="29"/>
  <g>
    <path class="st1" d="M128.76,25.31c-1.01.38-1.37,1.47-1.95,2.25-2.02,4.15-3.24,8.63-3.9,13.36h.13c2.35-4,6.05-8.73,10.5-10.58.05-.43-.3-.68-.48-1.04-1.29-1.39-2.1-3.85-4.3-4Z"/>
    <path class="st1" d="M186.5,56c0-19.33-23.06-35-51.5-35s-51.5,15.67-51.5,35c0,7.65,3.61,14.73,9.74,20.49-.48-.62-5.33-7.02-5.33-16.8,0-24.11,29.96-29.47,29.96-29.47h.61c-3.39,2.55-23.01,11.04-23.01,30.97,0,22.63,24.2,28.2,26.99,28.77,4.01.68,8.2,1.04,12.52,1.04,28.44,0,51.5-15.67,51.5-35ZM154.7,74.37l.23.19c5.32-1.8,10.61-3.62,15.79-5.69-.53,1.82-1.52,3.69-2.35,5.52-1.19,1.87-2.14,5.81-8.28,5.04l-15.11-2.35c-7.26,1.8-14.27,4.48-22.3,4-2.89-.28-5.57-1.67-7.24-4.25-1.06-1.92-1.72-4.1-1.52-6.51.38.28.66.81.99,1.21,7.14,8.15,19.79,6.66,29.38,4.76,6.6-2.18,13.01-4.81,19.08-8.2,2.35-1.64,3.9-4.02,3.64-6.93-.51-5.97-7.06-9.52-11.72-11.72-3.75-1.32-7.64-2.45-11.92-2.3l9.41-4.25c.66-.18.96.48,1.22.91.35.94.43,2.13-.18,2.96,1.75.42,2.76.66,4.13.99,5.29,1.85,10.83,4.45,14.15,9.64.91,1.67,1.11,3.82.56,5.72l.13.18c2.66-.91,3.61-3.2,4.38-5.95-.07-3.14-3.34-4.98-5.46-6.86-3.44-2.56-7.09-4.58-10.63-6.88-2.23-1.32-2.99-4.2-5.37-5.16-4.28-1.37-9.39-.56-13.97-.36-7.95.86-15.36,3.01-21.79,7.54.71-5.77,2.02-11.41,4-16.7.94-2.15,2.02-4.86,4.51-5.72,3.82.13,5.41,4.48,7.47,6.99,7.16,1.29,13.94,3.49,20.6,6.07,2.15,1.06,3.11,3.59,4.96,5.29,5.52,4.48,12.3,6.66,16.83,12.68,1.62,2.93-.04,5.95-1.75,8.32-3.36,2.94-7.29,4.46-11.01,6.5-3.67,1.72-7.34,3.42-11.11,4.86-.28.15.08.29.25.47Z"/>
    <path class="st1" d="M178.34,80.75c-1.15,0-2.08.93-2.08,2.08s.93,2.08,2.08,2.08,2.08-.93,2.08-2.08-.93-2.08-2.08-2.08ZM178.34,84.46c-.9,0-1.63-.73-1.63-1.63s.73-1.63,1.63-1.63,1.63.73,1.63,1.63-.73,1.63-1.63,1.63Z"/>
    <path class="st1" d="M179.19,82.35c0-.39-.32-.7-.7-.7h-1s0,2.37,0,2.37h.44v-.97h.32l.45.97h.49l-.47-1.01c.27-.1.47-.36.47-.66ZM178.48,82.61h-.56v-.52h.56c.14,0,.26.12.26.26s-.12.26-.26.26Z"/>
  </g>
</svg>