<?xml version="1.0" encoding="UTF-8"?>
<svg id="Layer_1" xmlns="http://www.w3.org/2000/svg" version="1.1" viewBox="0 0 270 112">
  <!-- Generator: Adobe Illustrator 30.0.0, SVG Export Plug-In . SVG Version: 2.1.1 Build 123)  -->
  <defs>
    <style>
      .st0 {
        fill: #fff;
      }

      .st1 {
        fill: #231f20;
      }

      .st2 {
        fill: #bbb;
      }

      .st3 {
        fill: #005837;
      }
    </style>
  </defs>
  <rect class="st0" width="270" height="112" rx="29" ry="29"/>
  <g>
    <path class="st2" d="M167.95,72.09l5.33-6.14-4.95-5.11,5.26-5.82-5.05-5.32,5.1-5.57-5.31-5.5,9.59-10.55-38.28-7.03v20.08c-.8-.13-3.56-.17-4.58-.19-1.22-.03-3.51.16-4.66.27v-20.21l-38.3,7.09,9.6,10.55-5.31,5.5,5.51,5.57-5.31,5.32,5.46,5.82-5.53,5.11,5.55,6.14-10.94,15.03,39.24-6.22.05-18.05c.96-.27,3.72-.43,4.65-.43,1.03,0,3.55.11,4.57.38l.05,18.15,39.21,6.16-10.94-15.03h0Z"/>
    <path class="st1" d="M165.15,71.92l5.16-5.91-5.33-5.33,5.33-5.67-5.08-5.3,5.18-5.69-5.28-5.43,8.4-9.39-31.7-5.96v20.17c-1.59-.14-4.21-.41-6.79-.43-1.54-.01-4.96.27-6.88.43v-20.17l-31.7,5.96,8.4,9.39-5.28,5.43,5.18,5.69-5.08,5.3,5.33,5.67-5.33,5.33,5.16,5.91-8.94,12.5,32.39-5.31.03-17.97c2.69-.54,5.55-.58,6.71-.6,1.45-.03,4.91.16,6.62.6l.03,17.97,32.39,5.31-8.94-12.5h0Z"/>
    <path class="st0" d="M162.18,71.9l5.2-5.89-5.2-5.2c0-.2,5.2-5.79,5.2-5.79l-5.2-5.2c0-.2,5.2-5.79,5.2-5.79l-5.21-5.39,7.27-8.05-23.68-4.29v19.95c-2.86-.47-8.24-.98-10.72-.95-2.81.03-6.98.25-10.82.96v-19.95l-23.68,4.29,7.28,8.05-5.21,5.39s5.2,5.59,5.2,5.79l-5.2,5.2s5.2,5.6,5.2,5.79l-5.2,5.2,5.2,5.89-7.43,9.67,23.83-3.92v-18.42c2.64-.69,8.47-1.14,10.83-1.08,2.01.05,7.88.46,10.72,1.07,0,1.72.04,18.41.04,18.41l23.8,3.92-7.43-9.67h0Z"/>
    <path class="st3" d="M161.01,37.89v34.66s5.7,7.33,5.7,7.33l-19.73-3.24-.04-18.37c-3.14-.75-9.03-1.27-11.89-1.29-2.69-.02-8.89.39-11.98,1.3l-.04,18.37-19.73,3.25,5.69-7.33v-34.66s-5.92-6.49-5.92-6.49l20-3.71v19.79c3.96-.85,9.04-1.11,11.99-1.09,2.27.02,8.71.48,11.89,1.08v-19.79s20,3.71,20,3.71l-5.93,6.49h0ZM158.3,50.11v-9.97l-4.85,4.98,4.85,4.99h0ZM158.3,59.99v-9.97l-4.85,4.98,4.85,4.99h0ZM158.3,69.95v-9.97l-4.85,4.99,4.85,4.99h0ZM111.7,50.12l4.85-4.99-4.85-4.99v9.97h0ZM111.7,60l4.85-4.99-4.85-4.99v9.97h0ZM111.7,69.96l4.85-4.99-4.85-4.99v9.97h0Z"/>
    <path class="st1" d="M172.63,90.54c-.3.3-.67.46-1.1.46s-.8-.15-1.1-.46c-.3-.3-.45-.67-.45-1.1s.15-.79.45-1.1c.3-.3.67-.45,1.09-.45s.8.15,1.1.45c.3.3.45.67.45,1.1s-.15.8-.45,1.1h0ZM170.58,88.5c-.26.26-.39.57-.39.94s.13.69.39.95c.26.26.58.39.95.39s.69-.13.95-.39c.26-.26.39-.58.39-.95s-.13-.68-.39-.94c-.26-.26-.58-.39-.95-.39s-.68.13-.94.39h0ZM171.5,88.59c.21,0,.37.02.47.06.18.07.27.22.27.43,0,.15-.06.27-.17.34-.06.04-.14.07-.25.08.13.02.23.08.29.17.06.09.09.18.09.26v.12s0,.08,0,.13c0,.05,0,.07.01.09v.02s-.27,0-.27,0c0,0,0-.01,0-.02,0,0,0-.01,0-.02v-.05s0-.13,0-.13c0-.2-.05-.33-.16-.39-.06-.04-.18-.05-.34-.05h-.24v.67h-.3v-1.7h.6ZM171.82,88.87c-.08-.04-.2-.06-.37-.06h-.26v.61h.27c.13,0,.22-.01.29-.04.12-.05.18-.13.18-.26s-.04-.2-.11-.25h0Z"/>
  </g>
</svg>