<?xml version="1.0" encoding="UTF-8"?>
<svg id="Layer_1" xmlns="http://www.w3.org/2000/svg" version="1.1" viewBox="0 0 270 112">
  <!-- Generator: Adobe Illustrator 30.0.0, SVG Export Plug-In . SVG Version: 2.1.1 Build 123)  -->
  <defs>
    <style>
      .st0, .st1 {
        fill: #ce0e2d;
      }

      .st2 {
        fill: #221f1f;
      }

      .st3 {
        isolation: isolate;
      }

      .st3, .st4 {
        fill: #a21e21;
      }

      .st5 {
        fill: #fff;
      }

      .st6 {
        fill: #919396;
      }

      .st7 {
        fill: none;
      }

      .st1 {
        font-family: Helvetica-Bold, 'Helvetica Bold';
        font-size: 1.59px;
        font-weight: 700;
      }

      .st8 {
        fill: #aa182c;
      }

      .st9 {
        fill: #e6e6e6;
      }
    </style>
  </defs>
  <rect class="st5" width="270" height="112" rx="29" ry="29"/>
  <g>
    <g>
      <rect class="st3" x="104.09" y="75.12" width="58.33" height="8.97"/>
      <path class="st8" d="M103.71,74.73v9.75h59.1v-9.75h-59.1Z"/>
    </g>
    <rect class="st0" x="104.85" y="75.73" width="56.82" height="7.75"/>
    <g>
      <path class="st0" d="M104.33,65.27h3.32v-29.87h-3.32v-7.25h22.42l4.49,4.39v11.95l-3.22,3.22,3.22,3.32v16.9l-4.54,4.6h-22.37v-7.25ZM114.9,44.64h9.09v-9.24h-9.09v9.24ZM114.9,51.95v13.33h9.09v-13.33h-9.09Z"/>
      <path class="st8" d="M103.71,27.52v8.51h3.32v28.62h-3.32v8.51h23.26l4.91-4.97v-17.41s-2.32-2.39-2.96-3.06c.65-.65,2.96-2.96,2.96-2.96v-12.47l-4.87-4.76h-23.3ZM126.5,28.78c.32.31,3.79,3.7,4.12,4.03v11.42c-.33.33-3.47,3.47-3.47,3.47,0,0,3.15,3.25,3.47,3.58v16.39c-.32.32-3.85,3.9-4.18,4.23h-21.48v-6h3.32v-31.13h-3.32v-6h21.53Z"/>
      <path class="st4" d="M114.28,34.77v10.5h10.35v-10.5h-10.35ZM123.37,36.03v7.99h-7.83v-7.99h7.83Z"/>
      <path class="st4" d="M114.28,51.32v14.58h10.35v-14.58h-10.35ZM123.37,52.57v12.07h-7.83v-12.07h7.83Z"/>
    </g>
    <g>
      <path class="st0" d="M134.36,28.15h13.89v7.25h-3.32v29.87h10.16v-29.87h-3.32v-7.25h13.89v7.25h-3.32v32.68l-4.44,4.44h-15.68l-4.54-4.44v-32.68h-3.32v-7.25Z"/>
      <path class="st8" d="M151.15,27.52v8.51h3.32v28.62h-8.91v-28.62h3.32v-8.51h-15.14v8.51h3.32v32.32l4.92,4.81h16.19l4.81-4.81v-32.31h3.32v-8.51h-15.14ZM165.04,28.78v6h-3.32v33.05c-.32.32-3.75,3.75-4.07,4.08h-15.16c-.32-.32-3.84-3.75-4.17-4.08v-33.04h-3.32v-6h12.63v6h-3.32v31.13h11.42v-31.13h-3.32v-6h12.63Z"/>
    </g>
    <g>
      <path class="st5" d="M106.62,81.14h.32v-2.84h-.32v-.69h2.13l.43.42v1.14l-.31.31.31.32v1.61l-.43.44h-2.13v-.69ZM107.63,79.18h.86v-.88h-.86v.88ZM107.63,79.87v1.27h.86v-1.27h-.86Z"/>
      <path class="st5" d="M109.96,78.07l.45-.46h1.36l.44.46v3.31l-.45.46h-1.37l-.42-.46v-3.31ZM110.65,78.3v2.84h.87v-2.84h-.87Z"/>
      <path class="st5" d="M113.36,77.61h1.54l.39.38v.81h-.69v-.49h-.92v1.01h1.22l.39.4v1.61l-.51.52h-1.34l-.46-.45v-.75h.69v.51h.92v-1.15h-1.22l-.39-.39v-1.62l.37-.37Z"/>
      <path class="st5" d="M116.06,77.61h2.88v1.51h-.67v-.82h-.43v2.84h.32v.69h-1.32v-.69h.32v-2.84h-.43v.82h-.67v-1.51Z"/>
      <path class="st5" d="M119.72,78.07l.45-.46h1.36l.44.46v3.31l-.45.46h-1.37l-.42-.46v-3.31ZM120.41,78.3v2.84h.86v-2.84h-.86Z"/>
      <path class="st5" d="M122.74,81.14h.32v-2.84h-.32v-.69h.94l1.02,2.44v-1.75h-.32v-.69h1.32v.69h-.32v3.53h-.63l-1.01-2.36v1.67h.32v.69h-1.32v-.69Z"/>
      <path class="st5" d="M128.24,77.61h1.32v.69h-.32v2.84h.97v-2.84h-.32v-.69h1.32v.69h-.32v3.11l-.42.42h-1.49l-.43-.42v-3.11h-.32v-.69Z"/>
      <path class="st5" d="M131.99,81.14h.32v-2.84h-.32v-.69h.94l1.02,2.44v-1.75h-.32v-.69h1.32v.69h-.32v3.53h-.63l-1.01-2.36v1.67h.32v.69h-1.32v-.69Z"/>
      <path class="st5" d="M135.73,81.14h.32v-2.84h-.32v-.69h1.32v.69h-.32v2.84h.32v.69h-1.32v-.69Z"/>
      <path class="st5" d="M137.83,77.61h1.32v.69h-.32l.54,2.31.55-2.31h-.34v-.69h1.35v.69h-.32l-.86,3.53h-.75l-.89-3.53h-.29v-.69Z"/>
      <path class="st5" d="M142.03,81.14v-2.84h-.32v-.69h2.56v1.27h-.69v-.58h-.86v.86h.86v.69h-.86v1.28h.86v-.87h.69v1.56h-2.56v-.69h.32Z"/>
      <path class="st5" d="M147.25,77.61l.36.35v1.82l-.36.37h-.23l.51,1h.29v.69h-.7l-.83-1.69h-.24v1h.32v.69h-1.32v-.69h.32v-2.84h-.32v-.69h2.2ZM146.05,78.3v1.16h.87v-1.16h-.87Z"/>
      <path class="st5" d="M148.97,77.61h1.54l.39.38v.81h-.69v-.49h-.92v1.01h1.22l.39.4v1.61l-.51.52h-1.34l-.46-.45v-.75h.69v.51h.92v-1.15h-1.22l-.39-.39v-1.62l.38-.37Z"/>
      <path class="st5" d="M151.67,81.14h.32v-2.84h-.32v-.69h1.32v.69h-.32v2.84h.32v.69h-1.32v-.69Z"/>
      <path class="st5" d="M153.77,77.61h2.88v1.51h-.67v-.82h-.43v2.84h.32v.69h-1.32v-.69h.32v-2.84h-.43v.82h-.67v-1.51Z"/>
      <path class="st5" d="M157.43,77.61h1.38v.69h-.34l.5.98.48-.98h-.3v-.69h1.29v.69h-.26l-.85,1.7v1.14h.32v.69h-1.32v-.69h.32v-1.13l-.9-1.71h-.31v-.69Z"/>
    </g>
    <g>
      <path class="st2" d="M138.65,76.01l-1.12-.52s-1.01,1.42-1.63,2.03c-.62.62-1.74.36-2.12.11-.38-.25-1.72-1.42-3.31-2.2-1.59-.79-3.38-2.25-3.38-2.25-.29-.26-2.01-1.94-2.06-3.86-.05-2.1.13-3.8,2.15-4.12l.16-.37-1.47-1.67,2.11.31.37-.7s.21-.16.49-.02c.28.15.52.27.52.27l1.05-1.89s-.35-.75-1.01-1.58c-.66-.83-.92-1.61-.77-2.56.15-.95.56-2.54,1.04-3.13.13.11-2.47-1.86-1.25-3.59,1.55-2.19,2.69-2.79,4.66-4.22,1.97-1.43,1.93-1.05,1.87-.45-.07.61-.84,1.26-1.51,1.72.06-.21-.72,1.81-1.22,2.21.01.16-.37,1.09-.46,1.14,0,0,1.96-1.68,3.4-1.32,1.44.36,3.03,1.51,3.03,1.51,0,0,.61.04.77.1,0,0-.76-.82.16-1.82.63-.69,1.49-1.32,3.26-1.98.26-.1.48.03.03.64-.44.61-.6.49-.6.49,0,0-.3.87-.6,1.35-.08.12-.25.96-.61,1.88,0,0,3.08,1.84,3.85,3.81.31.8.12,1.51-.9,2.69,0,0,.06.93-.3,1.59,0,0,.76.41,1.19.85,0,0,1.42.33,1.62.7.2.37.61,2.4.02,3.94-.59,1.54-1.42,2.41-2.05,2.43,0,0-.38.44-.64.49-.27.06-.43-.04-.55.09-.13.14-.38.54-.84.53-.45-.02-.59-.06-.59-.06,0,0-1.28.63-1.71.71,0,0,2.31,1.68,2.5,5.77.08,1.82-1.1,1.71-1.78,1.52-.59-.16-1.54-.49-1.78-.57Z"/>
      <path class="st5" d="M135.85,49.93s3.5,3.43,3.77,4.88c.06.36.06.82-.33.53-.39-.29-1.94-1.25-2.22-1.38-.29-.13-.39-.13-.21.2.18.33.76,1.41,2.23,2.68,1.47,1.28,1.78,1.55,1.85,1.81.08.26-.15,1.16-.26,1.32-.11.16-.6.19-.98.25-.38.06-1.35.48-2.17,1.4-.18.2-.37.24-.85.42-.48.18-1.52.84-1.77,1.9,0,0-.94-1.46-1.71-1.71-.78-.26-.91-.44-1.33.06-.42.5-.91,1.29-.95,2.28-.04.99.14,2.05.68,2.63.54.59.86.9,1.07.87.21-.03,1.2-1.08,1.45-1.17,0,0-.32.35-.33.49,0,0,.88-.43,1.63-.29,0,0-.06-.54-.05-.66,0,0-.75-.15-1.23.05-.49.2-1.27.54-1.58.55-.31.01-.7-.25-.89-.69-.19-.45-.2-.65-.2-.65,0,0,.25.69.53.86,0,0-.55-1.39.18-3.25,0,0-.43.39-.68.98,0,0,.26-1.14,1-1.57.35-.2.61-.08.53-.01-.07.06-.2.13-.2.13,0,0,.39.25.53.45.14.19.19.16.38.21.19.05.48.68.67.96.19.28.51.52.7.61.19.09.36.33.36.33,0,0,0-.61.25-.79,0,0-.27,1.1-.12,1.92.15.82.66,2.31,1.79,2.5,1.13.19,2.66.09,3.78-.68,1.12-.77,1.98-1.73,2.68-3.3,0,0-.07.8-.66,1.48-.06.07-.05.24.11.32.16.07.74.29.74.29,0,0,.23.03.56-.26.33-.29,1.31-1.28,1.49-3.01.18-1.73-.14-2.56-.44-2.69-.3-.13-1.26-.6-2.49-.57-1.23.02-2.61.16-2.61.16,0,0,1.18-.41,3.26-.35,0,0-.81-.45-2.42-.68,0,0,.03-.95.19-1.3.16-.35.72-.99.96-1.55.23-.56.52-1.67.53-1.89.01-.22-.08-.43-.18-.15-.1.28-.4,1.03-.5,1.13-.1.1-.23.06-.28-.13s-.36-1.52-.95-2.5c-.59-.98-1.42-2-2.59-2.12,0,0,1.26,1,1.44,1.48,0,0-1.2-1.16-2.48-1.92-1.28-.76-1.69-.88-1.69-.88Z"/>
      <path class="st2" d="M130.19,53.68s.76-1.91,3.29-3.67c.83-.58,1.65-.46,2.81.66,1.16,1.13,2.39,2.73,2.95,4.01.14.32.23.61-.16.31-.38-.3-1.92-1.2-2.24-1.32-.32-.12-.58-.19-.46.33.12.52,1.3,2.26,3.03,3.55.66.49,1.31,1,1.25,1.4-.06.4-.28.93-.28.93,0,0-1.93.21-5.06-2.56-1.48-1.31-2.09-2.07-3.03-1.78-.43.13-.59.34-.68.55,0,0,.49-.64,1.65-.08,0,0-.87-.13-1.42.28,0,0,1.22-.29,1.65.11.27.25.25.51.25.51,0,0-.71.66-.75,1.97,0,0,.3-1.42.67-1.62,0,0-.49,1.39-.51,2.38,0,0,.04.77-.11.78-.15.02-1.08-.08-1.25.16,0,0,.64-.05.79.23,0,0-.61.16-.85.06-.25-.1-1.86-2.01-1.78-3.72.08-1.71,1.06-2.77,1.06-2.77,0,0-.6.42-.78.65-.07.09-.22.16-.13-.24.09-.4.51-1.45,1.13-2.01,0,0-.43.17-1.02.88Z"/>
      <path class="st6" d="M135.06,57.4l1.05.74s.29.39.23.87c-.07.56-.17,1.25-.69,1.51l-.97.38s-.65-.71-.62-1.48c.03-.76.38-1.73,1-2.02Z"/>
      <path class="st0" d="M140.02,51.64s-.04-.3.1-.57c0,0-.2.23-.21.44,0,0-.27-.59-.14-.86.13-.27.77-1.1.77-1.1,0,0,.07.55-.07,1.02-.14.47-.28,1.01-.46,1.08Z"/>
      <path class="st2" d="M140.65,49.38s.09.88-.19,1.64c0,0,.24-.49.32-1.04,0,0,.06.19.04.31,0,0,.13-.69.16-1.01,0,0,.35-.22.48-1.07,0,0,.66-.4.81-.68,0,0-1.02.44-2.01,1.22-.95.75-1.21,1.43-1.21,1.43,0,0-.06.39.36.91,0,0,.23-.53.58-1,.35-.47.84-1.02.98-1.14,0,0-.29.37-.31.41Z"/>
      <path class="st9" d="M139.8,49.31s.98-1.05,2.01-1.47c0,0-.1.14-.16.18-.07.04-1.21.72-1.85,1.29Z"/>
      <path class="st0" d="M130.04,52.59s-.09-1.87.32-2.43c.41-.55,1.28-1.24,1.28-1.24,0,0-.17,1.61-1.17,3.26,0,0,.04-.6.13-.8,0,0-.32.46-.41,1.02l-.15.18Z"/>
      <path class="st2" d="M131.84,48.79s-.2,1.38-.96,2.9c0,0,.72-.89.91-2.04,0,0,.87-1.19,1.09-2.12,0,0,.04.46-.07.72,0,0,.37-.97.46-1.08.09-.11.88-.61,1-.92.12-.32.15-.43-.17-.23-.33.2-3.47,2.33-4.66,3.69,0,0,1.24-1.02,1.48-1.12,0,0-2.53,2.02-1.92,3.34,0,0,.07-.58.24-.8,0,0-.15,1.36.36,1.87l.11-.14s-.1-1.9.44-2.66c.54-.75,1.63-1.85,2.27-2.06l-.59.65Z"/>
      <path class="st5" d="M136.51,58.5s1.65,1.2,2.14,1.27c0,0-1.7.35-2.3.52,0,0,.34-.88.16-1.79Z"/>
      <path class="st5" d="M134.87,57.2s-.95.89-.98,2.01c-.03,1.11.46,1.81.46,1.81l-.2.06s-.85-.86-.75-1.95c.1-1.09.61-1.83.98-2.1.14-.1.24-.07.33,0,.09.07.16.18.16.18Z"/>
      <path class="st2" d="M135.29,58.88c.06.16.21.96-.07,1.49-.28.53-.62.2-.69.06-.07-.14-.19-.73,0-1.2.19-.46.6-.83.76-.35Z"/>
      <path class="st9" d="M135.59,59.72s.14-.26.14-.94c0,0,.27.39.07,1.21,0,0,.39-.87.11-1.78,0,0-.59-.41-.71-.51-.11-.1-.3-.05-.41.05-.1.1-.49.5-.58.98l.11-.11s-.2.51-.11,1.08c0,0,.29-1.35.71-1.48.39-.11.54.18.62.45.08.27.03,1.04.03,1.04Z"/>
      <path class="st9" d="M136.57,59.18s.37.15.64.34c.27.19.57.44.57.44l.87-.18s-.47-.05-2.14-1.27c0,0,.08.53.06.67Z"/>
      <path class="st9" d="M134.41,57.76s-.12-.27-.43-.31c0,0,.27-.38.46-.45.18-.07.25-.01.43.21,0,0-.33.34-.46.55Z"/>
      <path class="st2" d="M132.76,57.79s-.22.37-.19,1.12c0,0,.09-.78.3-1.02l-.11-.1Z"/>
      <path class="st9" d="M133.18,57.41s-.51.73-.57,1.79h.15s.04-.9.43-1.79Z"/>
      <path class="st9" d="M133.42,57.86s-.27.9-.33,1.8c0,0-.09-.06-.09-.17s.17-1.26.43-1.63Z"/>
      <path class="st7" d="M132.76,55.08s.61-.06.83.11c.23.17.86.87.95.98,0,0-.87-.83-1.15-.93-.28-.1-.59-.1-.59-.1l-.04-.05Z"/>
      <path class="st2" d="M136.81,57.98s.68.68,3.21,1.39l.11-.25.11-.02s-.03.36-.1.47c-.07.11-.17.06-.17.06,0,0-2.28-.68-3.16-1.66Z"/>
      <path class="st5" d="M142.77,58.92s.15.27-.02.67h.14s.3-.51.06-.86l-.18.18Z"/>
      <path class="st6" d="M142.7,59.02l-.1.12s0,.3-.09.36c-.08.07-.17-.02-.17-.16l-.12.08s0,.14.08.15c.08,0,.32,0,.32,0,0,0,.21-.21.09-.56Z"/>
      <path class="st2" d="M142.29,59.69l.03.09s.74.14,1.42.42c0,0-.15-.37-1.09-.51-.14-.02-.36,0-.36,0Z"/>
      <path class="st2" d="M143.24,58.51s0,.75-.24,1.13l.14.03s.32-.3.26-1.27l-.16.1Z"/>
      <path class="st9" d="M130.93,52.7s1.66-2.1,2.77-2.64c1.11-.54,2.03.28,2.39.59.36.31,1.82,1.79,2.93,3.85,0,0-2.33-3.52-3.35-3.69-1.02-.17-1.39.07-1.39.07,0,0,.23-.35.93-.3,0,0-.79-.47-2.34.64-1.56,1.11-1.82,1.51-1.82,1.51l-.13-.03Z"/>
      <path class="st9" d="M132.38,54.96s.96-.13,1.4.32c.44.46,1.05,1.19,1.05,1.19,0,0-1.11-1.23-1.84-1.27-.73-.04-1.45,0-1.93,1.1,0,0,1.05-1.18,1.96-.84.91.34,1.52,1.13,1.88,1.45.37.31,1.74,1.48,2.6,1.95.15.08.69.29.96.34,0,0-1.97-.97-3.01-2.33-.17-.23-1.4-2.03-2.21-2.07-.81-.04-.87.16-.87.16Z"/>
      <path class="st9" d="M140.01,59.37s-3.12-.78-3.9-2.13c0,0,1.26,1.02,2.89,1.43.36.09.85.21,1.1.22,0,0,.08.18-.09.48Z"/>
      <path class="st9" d="M140.23,59.67h.1s.28-.6.25-.79c-.05-.3-.49-.66-2.19-2.04,0,0,1.5,1.53,1.76,1.83.23.26.28.51.08,1Z"/>
      <path class="st5" d="M134.53,59.47c.04-.22.1-.39.15-.38.05,0,.06.19.03.41-.04.22-.1.39-.15.38-.05,0-.06-.19-.03-.41Z"/>
      <path class="st2" d="M140.39,51.71s1.55,2.13,1.76,3.26c.1.55.06,1.06.23.72.18-.34.45-1.25.6-1.24.15,0,.33.18.31.52-.01.35-.37,2.37-1.46,3.54,0,0,.02.72-.13,1.02,0,0,1.69-1.21,2.37-2.5.72-1.35-.15-2.41-.93-3.22-1.39-1.46-2.75-2.1-2.75-2.1Z"/>
      <path class="st9" d="M140.64,51.91s.79,1.1,1.09,1.81c0,0-.22-.75-.42-1.05,0,0,1.35.81,2.28,1.96,0,0-.82-1.44-2.95-2.72Z"/>
      <path class="st9" d="M142.08,58.74v-.17s1.26-.98,1.56-1.38c.3-.4.48-.85.44-1.59,0,0,.34.68-.09,1.42-.43.73-.79,1.13-1.62,1.87l-.26.04-.03-.19Z"/>
      <path class="st2" d="M142.12,58.9s.61-.5,1.28-1.24c0,0-.65.95-1.32,1.52,0,0-.14.07-.15.02,0-.06.02-.25.08-.37l.07-.08.04.16Z"/>
      <path class="st2" d="M131.6,61.45s.43-.62,1.55-.38c0,0,.45.51,1,.32.55-.19,2.1-.76,2.69-.73,0,0-1.6.55-2.14,1.14,0,0,1.59-.77,2.19-.77l.24.11-.24.23s-1.4.32-1.96,1.35c0,0-.16-.58-.97-.91,0,0,.83.73.91,1.26l-.03.5s-.84-1.56-2.32-1.77c-.53-.07-1.23.32-2.02,2.13,0,0,.24-1.57,1.33-2.31.46-.31,1.14-.01,1.2,0,.06.01-.59-.42-1.42-.15Z"/>
      <path class="st9" d="M136.16,60.84s-.88.3-1.94.88c0,0,.32-.39.77-.55.45-.16,1.17-.33,1.17-.33Z"/>
      <path class="st9" d="M134.75,62.12s1.23-.94,1.97-1.02l.25.03-.31.16s-.9.23-1.91.82Z"/>
      <path class="st9" d="M131.73,61.39s.39-.28.89-.17c.5.11,1.04.46,1.31.68.27.23.85.89.85,1.24,0,0-.54-.97-1.28-1.18-.74-.21-1.03-.37-1.41-.21-.38.16-.73.45-1.13,1.1,0,0,.26-.69.86-1.14.6-.44,1.68.11,1.68.11,0,0-.39-.38-.84-.45-.44-.08-.67-.06-.93.02Z"/>
      <path class="st9" d="M140.58,62.11s-.07.15.39.39c.46.24.97.53,1.02.77.05.24.8.8,1.02.92.22.12.02.41.22.43.2.02.53-.14.58-.39.05-.25-1.02-1.65-1.02-1.65l-2.21-.48Z"/>
      <path class="st2" d="M142.42,63.25s.41.32.6.53c.19.21.54.53.71.53s.3-.15.59-.48c.28-.33.35-.48.45-.73.1-.25.35-.76.48-.9.13-.14.26-.4.03-.59-.23-.19-.9-.51-1.79-.52-.88-.01-1.99.06-2.62.39-.63.33-.52.73.07.85.58.12,1.34.42,1.63.68.11.1.32.27.12.24-.2-.02-.27,0-.27,0Z"/>
      <path class="st2" d="M144.14,63.12s.23-.95.14-1.41c-.04-.22-.28-.33.13-.27.41.05.76.29.68.55-.04.15-.13.29-.15.08-.02-.21-.3-.11-.39.02-.09.13-.1.22-.11.41-.01.19-.31.63-.31.63Z"/>
      <path class="st2" d="M144.14,62.51s.16-.82-.35-1.21c0,0-.84-.16-2.09.11-.61.13-1.22.46-1.01.66.21.2.97.25,1.31.44.34.19,1.38.57,1.02.88,0,0,.39.12.33-.07-.07-.19-.61-.71-1.41-.98-.8-.27-.86-.33-.87-.4,0,0,.56.16.92.15.37-.01.63.19,1.02.15.4-.03.78-.12.8-.44,0,0,.37.36.34.7Z"/>
      <path class="st5" d="M144.36,61.72l-.09-.24s.61.03.76.36c.03.06,0,.18,0,.18,0,0-.07-.16-.34-.24-.27-.09-.33-.05-.33-.05Z"/>
      <path class="st5" d="M144.07,61.99s-.03-.38-.32-.61c0,0-.86-.12-1.81.05-.95.18-1.24.47-1.22.53.02.06.35.2.61.27,0,0-.38-.2-.34-.32l.09-.07.42.12s.47-.3,1.06-.34c.58-.04,1.11,0,1.21.1l-.02-.13s.27.19.33.4Z"/>
      <path class="st9" d="M135.08,65.41s-.12.46-.07.75c0,0,.23-.32.37-.34v-.1s-.24-.28-.3-.3Z"/>
      <path class="st9" d="M135.16,66.22s.1-.16.22-.21v.28s-.16-.06-.22-.07Z"/>
      <path class="st5" d="M134.92,65.33s-.09.47-.04.85c0,0-.51.02-.8.17,0,0,.33-.86.84-1.02Z"/>
      <path class="st5" d="M134.76,65.25s-.68.44-.9.98c0,0-.57-1-.05-2.31,0,0,.44.98.75,1.2.07.05.21.13.21.13Z"/>
      <path class="st5" d="M133.48,64.21s-.26,1.31.22,2.24c0,0-.67.5-1.31.42,0,0-.14-.05-.05-.4.09-.36.36-1.46,1.14-2.25Z"/>
      <path class="st5" d="M133.36,63.68s.27.02.3.1c0,0-1.29,1.25-1.5,2.66,0,0-.6-1.66.34-3.37,0,0,.16-.12.27-.05.11.08.49.46.58.65Z"/>
      <path class="st9" d="M132.39,63.29s.07-.14.11-.22c0,0,.16-.12.27-.05.11.08.49.46.58.65,0,0,.27.02.3.1,0,0-.7.68-1.15,1.6,0,0,0-.99.5-1.51,0,0-.61-.42-.62-.58Z"/>
      <path class="st9" d="M133.25,66.38c-.09-.22-.06-1.41-.06-1.41-.18.14-.61.69-.61.69.17-.46.45-1,.89-1.45,0,0-.26,1.31.22,2.24,0,0-.12.09-.31.19,0,0-.05-.04-.14-.26Z"/>
      <path class="st9" d="M134.21,65.09c-.16-.07-.16-.39-.31-.49-.15-.1-.3.12-.3.12.03-.25.09-.52.2-.8,0,0,.44.98.75,1.2.07.05.21.13.21.13,0,0-.68.44-.9.98l-.04-.09c-.07-.56.4-1.05.4-1.05Z"/>
      <path class="st9" d="M134.65,65.49c.08-.07.17-.12.27-.15,0,0-.09.47-.04.85l-.27.03c-.06-.27.04-.72.04-.72Z"/>
      <path class="st9" d="M138.58,51.24s1.94,1.53,2.27,2.7c0,0-.16-1.43-.78-1.99-.62-.56-1.18-.7-1.49-.72Z"/>
      <path class="st9" d="M140.19,56.2s-.06.23.07.32c.13.1.9.66,1.14.66s.46-.33.46-.33l-.12-.22s-.26.17-.5.12c-.24-.05-1.06-.54-1.06-.54Z"/>
      <path class="st2" d="M140.04,56.38s1.08.95,1.4.91c.32-.04.49-.5.49-.5,0,0-.35.36-.49.34-.14-.02-.36-.07-1.4-.75Z"/>
      <path class="st7" d="M140.66,60.78h-.09s.02,0,.07-.01"/>
      <path class="st9" d="M140.63,60.76c.28-.08,1.4-.38,3.19-.33,0,0-.81-.45-2.42-.68,0,0,.03-.95.19-1.3.16-.35.72-.99.96-1.55.23-.56.52-1.67.53-1.89.01-.22-.08-.43-.18-.15l-.02.05-.14.58c-.06.59-.71,2.03-1.18,2.35-.46.32-.87-.09-1.01-.22-.14-.13-1.87-1.59-2.62-2.43-.75-.84-.12-.55.11-.46.23.09.74.27.74.27-.61-.4-1.51-.95-1.72-1.05-.29-.13-.39-.13-.21.2.18.33.76,1.41,2.23,2.68,1.47,1.28,1.78,1.55,1.85,1.81.08.26-.15,1.16-.26,1.32-.11.16-.6.19-.98.25-.3.05-.97.32-1.63.88,0,0,1.14-.8,3.11-.89l.75.07s-1.09.09-1.77.5l.49-.03Z"/>
      <path class="st9" d="M140.12,56.98s-.1-.24-.1-.34c0,0,.88.79,1.29.75.41-.04.46-.23.46-.23h.33s-.21.38-.21.38l-.44.29-.43-.16-.9-.68Z"/>
      <path class="st2" d="M139.87,56.8s1.07,1.15,1.62,1.11c0,0,.42-.08.61-.74,0,0-.36.6-.64.58-.28-.02-.75-.3-1.59-.95Z"/>
      <path class="st2" d="M141.41,58.69s-.06.87-.18,1.14l-.21.05s.28-.71.39-1.2Z"/>
      <path class="st2" d="M140.91,60.27s.81-.2,1.83-.15l.3.09s-1.58-.02-2.13.06Z"/>
      <path class="st9" d="M143.87,64.65c-.25.76-.87,1.67-1.23,2.09-.36.42-.89.94-2.05,1.53-1.17.59-2.16.44-2.16.44l-.05-.24c-.52.07-1.28-.77-1.28-.77,0,0,.14-.12.27-.19.14-.07.12-.17,0-.23-.6-.31-1.01-1.24-1.01-1.24.14.06.41-.04.41-.04-.39-.14-.45-.66-.43-.92.02-.26-.31-.6-.36-.75-.05-.16.18-.59.18-.59-.62.2-.99,1.01-.99,1.01,0,0-.07-.05-.46-.4-.39-.35-.41-.63-.53-.81-.12-.18-.58-.24-.6-.31-.03-.12-.47-.47-.47-.47.06-.11-.07-.22-.27-.21-1.03.05-1.34,1.77-1.34,1.77-.03-.39-.01-.86.47-1.59.48-.73,1.08-.54,1.08-.54-.65-.23-.79-.35-1.18.11-.42.5-.91,1.29-.95,2.28-.04.99.14,2.05.68,2.63.54.59.86.9,1.07.87.21-.03,1.2-1.08,1.45-1.17,0,0-.32.35-.33.49,0,0,.88-.43,1.63-.29,0,0-.06-.54-.05-.66,0,0-.75-.15-1.23.05-.49.2-1.27.54-1.58.55-.31.01-.7-.25-.89-.69-.19-.45-.2-.65-.2-.65,0,0,.25.69.53.86,0,0-.55-1.39.18-3.25,0,0-.43.39-.68.98,0,0,.26-1.14,1-1.57.35-.2.61-.08.53-.01-.07.06-.2.13-.2.13,0,0,.39.25.53.45.14.19.19.16.38.21.19.05.48.68.67.96.19.28.51.52.7.61.19.09.36.33.36.33,0,0,0-.61.25-.79,0,0-.27,1.1-.12,1.92.15.82.66,2.31,1.79,2.5,1.13.19,2.66.09,3.78-.68,1.11-.76,1.97-1.72,2.68-3.27l.03-.45Z"/>
      <polyline class="st7" points="143.84 65.1 143.85 65.07 143.85 65.1"/>
      <path class="st5" d="M132.41,67.27s.08.54.42.41c.34-.13.55-.51.55-.51,0,0-.47.13-.65.12-.18,0-.33-.01-.33-.01Z"/>
      <path class="st5" d="M134.09,67.15s.1-.31.43-.36c.32-.05.49.02.49.02,0,0-.25.18-.43.2-.18.02-.49.13-.49.13Z"/>
      <path class="st9" d="M146.1,63.79c-.29,1.33-.84,1.98-1.16,2.37-.32.39-.68.63-1.11.52-.43-.11-.37-.51-.37-.51-.08.12-.16.25-.27.37-.06.07-.05.24.11.32.16.07.74.29.74.29,0,0,.23.03.56-.26.33-.29,1.31-1.28,1.49-3.01v-.1Z"/>
      <path class="st9" d="M137.74,67.16s-.25-.06-.17-.19c.08-.12.2-.11.28-.16.08-.05-.05-.16.09-.17.15,0,.16.13.14.25-.02.12-.03.24-.03.24l-.18.06-.14-.05Z"/>
      <path class="st2" d="M137.74,67s.09.18.2.14c.12-.04.12-.21.12-.21,0,0,.17.22-.03.31s-.28-.04-.29-.09c-.02-.05,0-.15,0-.15Z"/>
      <path class="st9" d="M137.43,65.84s-.31-.04-.19-.19c.11-.15.15-.27.21-.3.07-.03.26.02.2.22-.07.2-.22.26-.22.26Z"/>
      <path class="st2" d="M137.5,65.52s.26.19.11.35c-.15.16-.37,0-.38-.05,0,0,.21,0,.27-.05.05-.06,0-.25,0-.25Z"/>
      <path class="st9" d="M130.63,61.58l-1.33,2.43s.54.8.77.98c0,0,.12-1.52.58-2.17.46-.65-.02-1.24-.02-1.24Z"/>
      <path class="st5" d="M130.48,61.87s-.54,1.13-.57,1.75c-.03.63-.06,1.11-.06,1.11l-.55-.72,1.17-2.15Z"/>
      <path class="st5" d="M135.91,68.21s-.11-.49-.31-.55c-.2-.07-1.48-.28-2.1.2,0,0,.89.33,1.57.36.68.03.84,0,.84,0Z"/>
      <path class="st9" d="M134.27,67.58c-.29.04-.56.12-.77.28,0,0,.89.33,1.57.36.68.03.84,0,.84,0l-.08-.25c-.93.09-1.57-.39-1.57-.39Z"/>
      <path class="st0" d="M129.29,63.3l-.19.3s-.11-.05-.12-.18c0,0-.18.02.11.59.28.57,1.5,2.46,2.14,3.09l-.3.12s-.54-.61-.66-.68c0,0,.11-.62-.71-1.21-.57-.41-1.18.09-1.18.09,0,0-.42-.12-.77-.16l1-2.05s.11-.39.69.09Z"/>
      <path class="st5" d="M128.3,65.05s-.1-.32.37-.55c0,0-.37-.19-.76.62l-.14-.03.94-1.84s.06-.12.22-.08c0,0-.17.23-.08.5.1.27.27.66.93,1.68,0,0-.24-.2-.54-.3,0,0-.24-.43-.4-.38-.16.05-.48.24-.55.38Z"/>
      <polygon class="st5" points="126.39 63.45 127.96 63.71 127.71 64.11 126.89 63.6 127.63 64.25 127.53 64.48 126.39 63.45"/>
      <path class="st5" d="M128.6,65.53s.4-.38.89-.02c.48.36.47.79.47.79l-.25-.13s-.05-.37-.4-.6c0,0,.2.35.2.42,0,0-.76-.45-.91-.47Z"/>
      <path class="st5" d="M131.13,67.46s.17-.12.31-.06l.41.52s0,.34-.04.41c0,0-.54-.74-.68-.87Z"/>
      <path class="st9" d="M131.94,68.03l-.03.43.08.22s.25-.11.14-.52l-.19-.13Z"/>
      <path class="st0" d="M132.19,69.05s.32-.18.21-.61c0,0,.48.33.93-.35,0,0,1.26.55,2.69.35,0,0,.32.6.95.78,0,0-.48,0-.62.41-.14.41,0,.84.25.91l.97-.03s-.89.56-1.94.55l-.38-.26-.82-2.03s-.3-.4-.99-.02c-.28.16-.28.68-.19.82l.26.25-1.09-.3-.23-.47Z"/>
      <path class="st5" d="M134.47,70.31l-.41-.21-.59-.78s-.13-.37.29-.49c.42-.12.59.07.67.3.08.23.6,1.5.6,1.5l-.41-.25-.66-1.05s-.17-.32.03-.41c0,0-.31,0-.26.28.02.14.74,1.13.74,1.13Z"/>
      <path class="st5" d="M138.93,70.15l-1.99.11s-.49.08-.49-.26c0-.35.27-.61.46-.62.19,0,2.02.77,2.02.77Z"/>
      <path class="st2" d="M125.28,68.14s.06-1.27.96-1.72c0,0-1.06,1.68-.33,3.89.53,1.59,1.9,2.37,1.9,2.37,0,0,.05-2.48.92-2.99.86-.51,2.24-.6,3.25-.31,0,0-.67-2.5-3.25-3.58-2.58-1.08-3.29,1.04-3.33,1.33-.04.29-.12,1.02-.12,1.02Z"/>
      <path class="st9" d="M131.34,69.24s.43.07.63.13c0,0-.67-2.5-3.25-3.58-2.08-.87-2.94.34-3.22.99,0,0,.56-1.13,2.01-.99,0,0-.91.2-1.15.86,0,0,.83-1.08,2.17-.35,1.34.73,2.59,2.07,2.81,2.94Z"/>
      <path class="st9" d="M136,71.24s1.1.75,1.38,1.07c0,0,1.33-.3,1.54-.3,0,0-1.07-1.03-1.51-1.07-.45-.05-.63.16-.77.19-.14.02-.63.12-.63.12Z"/>
      <path class="st5" d="M137.75,72.23s-.39-.51-.6-.64c-.21-.12.07-.24.31-.17.24.07,1.11.64,1.11.64l-.82.17Z"/>
      <path class="st2" d="M136.72,72.95s1.34-.87,2.63-.71c0,0-.13.87-.12,1.18,0,0-.33.11-.42.14,0,0-1-.22-1.55-.12-.14.03-.31.16-.36.11-.04-.06.21-.23.21-.29s-.05-.14-.16-.19c-.11-.04-.24-.12-.24-.12Z"/>
      <path class="st9" d="M138.96,72.21s-.13.05-.03.24c.11.2.11.32-.03.34-.14.02-1.12,0-1.37.14-.25.14-.32.21-.32.21,0,0-.15-.1-.14-.21,0-.11.09-.24.09-.24,0,0,1.11-.52,1.81-.49Z"/>
      <path class="st2" d="M136.27,73.26s.08,1.71-1.08,2.34c-1.16.63-2.07.61-2.51.44,0,0,1.63,1.59,2.4,1.07.77-.52,2.84-3.06,3.42-3.28,0,0-1.03-.26-1.51-.14-.22.06-.36-.12-.25-.25.09-.11.29-.29.04-.29-.26,0-.33,0-.33,0l-.17.09Z"/>
      <path class="st2" d="M139.21,73.85s-.56.53-.99,1.03c0,0,1.82,1.21,2.95,1.13.63-.04.65-.53.65-1.17s.01-2.5-1.23-4.21c-.73-.99-1.33-1.23-1.33-1.23,0,0-.95.14-1.52.06l1.72.73-1.33.29s.77.48,1.31,1.29c0,0,.24-.85.73-1.01,0,0-.39.77-.39,1.25,0,0,.35-.65.81-.71,0,0-.86,1.02-.77,2.31.02.28.07.57-.19.57s-.47-.23-.43-.33Z"/>
      <path class="st9" d="M139.81,70.08h-.18c.18.16.62.67.62.67-.13.23-.23.72-.23.72,0,0,.13-.3.21-.43.08-.13.19.02.35.12.15.1.09.21.09.21-.6.62-.71,1.68-.71,1.68.08-.44.39-.89.57-1.16.24-.36.39.05.58.64.46,1.43.02,2.91.02,2.91,0,.35.51.38.51.38.16-.21.17-.55.17-.96,0-.65.01-2.5-1.23-4.21-.73-.99-1.33-1.23-1.33-1.23.14,0,.55.67.55.67Z"/>
      <path class="st5" d="M137.11,72.39c.21,0-1.61-1.49-3.66-2.29-2.05-.8-2.8-.9-4.17-.51-.68.19-1.21,1.29-1.19,1.9,0,0-.04.68.06,1.17.1.49.49.6.49.6h.23s.03-.42.16-.52c0,0-.04-2.21,1.43-2.83,0,0-1.26.92-1.06,2.41,0,0-.03.5.1,1.03.12.53.63.63.63.63,0,0,.21.09.45.09,0,0-.19-2.7,1.53-3.3,0,0-1.7,1.33-1.1,3.01,0,0,.28.04.43.41.16.37.43.65.35.8,0,0,1.08,1.15,2.74.33,1.66-.82,1.39-2.54,1.39-2.54,0,0-.32-.87-.43-1.01,0,0,.46.5.66.99,0,0,.75-.37.96-.37Z"/>
      <path class="st9" d="M134.92,70.86c.22.14,1.37,1.27,1.37,1.27-.08-.01-.49.02-.49.02.13.17.26.39.34.6,0,0,.75-.37.96-.37.15,0-.73-.76-1.99-1.48l-.2-.04Z"/>
      <path class="st7" d="M135.75,72.33c-.09-.24-.21-.5-.26-.57,0,0,.15.17.32.4"/>
      <path class="st7" d="M131.43,71.48s-.06.09-.09.13"/>
      <path class="st7" d="M132.06,70.8c-.11.09-.37.33-.62.68"/>
      <path class="st7" d="M132.05,70.78l.05-.02s-.02.01-.05.04"/>
      <path class="st9" d="M131.34,71.61c-.36.54-.58,1.41-.38,2.25,0,0,.06.2.2.58.1.28.66.68.66.68,0,0,1.05,1.01,2.71.2,1.66-.82,1.39-2.54,1.39-2.54,0,0-.08-.21-.16-.44,0,0,.16,1.71-1.07,2.33-1.23.63-1.82.38-2.1.34-.28-.04-.49-.31-.69-.44,0,0-.23-.3-.3-.45-.06-.12-.2-.56-.2-.56,0,0-.21-.8-.15-1.21.06-.42.11-.72.11-.72Z"/>
      <path class="st7" d="M130.25,70.01c.07-.04.13-.07.21-.11,0,0-.08.06-.21.18"/>
      <path class="st9" d="M129.3,70.66c-.32.32-.57.7-.57.7-.41.71-.65,0-.65,0-.07.26-.05.77-.03,1.19.03.5.52.77.52.77l.53.26s-.08-.59-.07-.85c0,0-.04-1.99,1.22-2.73,0,0-.63.34-.95.66Z"/>
      <path class="st9" d="M130.93,71.42c-.46.4-.74,1.29-.74,1.29-.39.41-.78-.24-.78-.24-.03.18.01.5.04.64.11.71.61,1.01.61,1.01,0,0,.28.12.52.12,0,0-.19-2.82,1.48-3.46,0,0-.66.25-1.12.64Z"/>
      <path class="st5" d="M141.76,68.35s1.13-1.16,1.28-1.48c0,0,.24.23.49.3.25.07.3.24.22.31-.08.07-.55.36-1.03.4-.18.02-.39.34-.52.41-.13.07-.43.07-.43.07Z"/>
      <path class="st9" d="M143.36,67.53c.1-.08,0-.12-.2-.16-.26-.04-.72.26-.72.26.27-.3.54-.61.6-.76,0,0,.24.23.49.3.25.07.3.24.22.31-.08.07-.55.36-1.03.4,0,0-.02,0-.02,0,0,0,.56-.27.66-.35Z"/>
      <path class="st9" d="M137.99,66.22s-.31-.04-.19-.19c.11-.15.15-.27.21-.3.07-.03.26.02.2.22-.07.2-.22.26-.22.26Z"/>
      <path class="st2" d="M137.8,66.1s.1.24.28.19c.18-.05.28-.29.05-.41,0,0,.02.23-.09.25-.11.02-.24-.03-.24-.03Z"/>
      <path class="st9" d="M138.27,65.72s-.25-.06-.17-.19c.08-.12.2-.11.28-.16.08-.05-.05-.16.09-.17.15,0,.16.13.14.25-.02.12-.03.24-.03.24l-.18.07-.14-.05Z"/>
      <path class="st2" d="M138.35,65.73s.21.07.28,0c.07-.06.05-.28-.15-.33,0,0,.06.17.03.22-.04.05-.16.1-.16.1Z"/>
      <path class="st9" d="M137.99,65.24s-.24-.02-.16-.12c.09-.1.12-.17.17-.19.05-.02.21.01.16.14-.05.13-.17.17-.17.17Z"/>
      <path class="st2" d="M137.94,65.24s.21.1.3-.04c.09-.13-.12-.31-.24-.28,0,0,.13.11.1.19-.04.08-.16.12-.16.12Z"/>
      <polygon class="st9" points="126.89 63.6 127.63 64.25 127.53 64.48 126.39 63.45 126.89 63.6"/>
      <path class="st9" d="M128.62,65.51s.38-.35.87,0c.49.36.47.79.47.79l-.25-.13s-.05-.36-.38-.58c0,0-.35-.14-.71-.08Z"/>
      <path class="st9" d="M133.95,68.91c-.08.01-.25.07-.22.27.02.14.74,1.13.74,1.13l-.41-.21-.59-.78s-.13-.4.29-.49c.44-.1.52.06.52.06-.28-.01-.34.03-.34.03Z"/>
      <path class="st9" d="M138.93,70.15l-1.99.11s-.49.08-.49-.26c0-.35.26-.61.46-.62,0,0-.17.18-.19.34-.02.16.1.21.6.24.5.03,1.07.05,1.07.05l.55.13Z"/>
      <path class="st2" d="M136.78,69.58s-.1.28.1.3c.2.02,1.55.15,1.55.15l-1.53-.02s-.27.01-.22-.18c.04-.19.11-.26.11-.26Z"/>
      <path class="st5" d="M134.24,59.67s.4-1.89,1.31-1.6l-.47-.3s-.83.34-.84,1.91Z"/>
    </g>
    <text class="st1" transform="translate(160.65 73.19)"><tspan x="0" y="0">TM</tspan></text>
  </g>
</svg>