<?xml version="1.0" encoding="UTF-8"?>
<svg id="Layer_1" xmlns="http://www.w3.org/2000/svg" version="1.1" viewBox="0 0 270 112">
  <!-- Generator: Adobe Illustrator 30.0.0, SVG Export Plug-In . SVG Version: 2.1.1 Build 123)  -->
  <defs>
    <style>
      .st0 {
        fill: #fff;
      }

      .st1 {
        fill: #011e41;
      }

      .st2 {
        fill: #f3c300;
      }
    </style>
  </defs>
  <rect class="st0" width="270" height="112" rx="29" ry="29"/>
  <g>
    <g>
      <path class="st2" d="M176.46,64.84h17.35v-18.21h-18.6v-9.9h5.69v-14.47h-30.32c-.54.95-9.84,17.37-13.81,24.38h-3.54c-3.97-7-13.27-23.42-13.81-24.38h-30.32v14.47h5.69v9.9h-18.6v18.21h18.6v10.23h-7.11v14.27h32.49v-14.27h-7.04v-10.23h8.15c4.29,7.4,12.33,21.26,13.71,23.65,1.39-2.39,9.43-16.26,13.71-23.65h8.15v10.23h-7.04v14.27h32.49v-14.27h-7.11v-10.23h1.25ZM151.31,23.51h28.33v11.96h-5.7v11.16h-35.73c4.61-8.14,12.61-22.26,13.1-23.12ZM90.35,35.47v-11.96h28.33c.49.86,8.49,14.98,13.1,23.12h-35.73v-11.16h-5.7ZM118.92,76.33v11.75h-29.98v-11.75h7.11v-11.48h15.83v11.48h7.04ZM135,85.99c-1.28-2.22-8.05-13.88-12.26-21.15h24.52c-4.21,7.27-10.98,18.93-12.26,21.15ZM77.75,63.28v-15.09h114.5v15.09h-114.5ZM181.06,76.33v11.75h-29.98v-11.75h7.04v-11.48h15.83v11.48h7.11Z"/>
      <polygon class="st2" points="174.8 56.62 170.24 51.78 168.29 51.78 168.29 59.7 170.42 59.7 170.42 54.63 175.14 59.7 176.93 59.7 176.93 51.78 174.8 51.78 174.8 56.62"/>
      <path class="st2" d="M115.24,55.73c0-1.4,1.28-2.4,3.09-2.4,1.05,0,2,.32,2.95.81v-1.76c-.84-.46-1.9-.69-3.09-.69-3.27,0-5.14,1.97-5.14,4.08s1.66,4.04,4.98,4.04c1.27,0,2.16-.22,3.36-.79v-1.73c-1.23.55-1.98.87-3.1.87-1.78,0-3.04-1.01-3.04-2.42Z"/>
      <rect class="st2" x="137.83" y="51.78" width="2.13" height="7.91"/>
      <polygon class="st2" points="131.6 54.96 127.34 54.96 127.34 51.78 125.21 51.78 125.21 59.7 127.34 59.7 127.34 56.49 131.6 56.49 131.6 59.7 133.73 59.7 133.73 51.78 131.6 51.78 131.6 54.96"/>
      <rect class="st2" x="107.18" y="51.78" width="2.13" height="7.91"/>
      <path class="st2" d="M149.02,56.95h1.24v.93c-.63.23-.89.28-1.42.28-1.77,0-2.96-.93-2.96-2.33,0-1.17.82-2.49,3.13-2.49,1.05,0,2.1.24,3.2.73v-1.73c-.86-.38-2.09-.65-3.37-.65-3.05,0-5.15,1.66-5.15,4.07s2.12,4.05,5.1,4.05c1.38,0,2.95-.45,3.59-1.07v-3.24h-3.37v1.45Z"/>
      <polygon class="st2" points="100.82 51.78 98.49 56.27 96.16 51.78 94.31 51.78 93.07 59.7 95.2 59.7 96.03 55.37 98.33 59.51 98.66 59.51 100.96 55.37 101.79 59.7 103.92 59.7 102.68 51.78 100.82 51.78"/>
      <path class="st2" d="M158.9,51.78l-3.45,7.91h2.26l.64-1.57h3.82l.7,1.57h2.3l-3.8-7.91h-2.47ZM158.91,56.75l1.25-3.07,1.38,3.07h-2.63Z"/>
    </g>
    <g>
      <path class="st1" d="M150.58,22.26h30.32v14.47h-5.69v9.9h1.25v-8.65h5.7v-16.98h-32.31l-14.52,25.63h1.45c3.96-7,13.27-23.42,13.81-24.38Z"/>
      <path class="st1" d="M114.39,64.84h-1.26v10.23h7.04v14.27h-32.49v-14.27h7.11v-10.23h-1.25v8.97h-7.11v16.78h35v-16.78h-7.04v-8.97Z"/>
      <path class="st1" d="M148.71,64.84c-4.29,7.4-12.33,21.26-13.71,23.65-1.38-2.39-9.43-16.26-13.71-23.65h-1.45l15.17,26.16,15.17-26.16h-1.45Z"/>
      <path class="st1" d="M93.54,46.63h1.25v-9.9h-5.69v-14.47h30.32c.54.95,9.84,17.37,13.81,24.38h1.44l-14.52-25.63h-32.31v16.98h5.7v8.65Z"/>
      <path class="st1" d="M176.46,64.84h-1.25v10.23h7.11v14.27h-32.49v-14.27h7.04v-10.23h-1.26v8.97h-7.04v16.78h35v-16.78h-7.11v-8.97Z"/>
      <path class="st1" d="M131.78,46.63c-4.61-8.14-12.61-22.26-13.1-23.12h-28.33v11.96h5.7v11.16h35.73Z"/>
      <path class="st1" d="M147.26,64.84h-24.52c4.21,7.27,10.98,18.93,12.26,21.15,1.28-2.22,8.05-13.88,12.26-21.15Z"/>
      <path class="st1" d="M179.65,23.51h-28.33c-.49.86-8.48,14.98-13.1,23.12h35.73v-11.16h5.7v-11.96Z"/>
      <path class="st1" d="M96.05,64.84v11.48h-7.11v11.75h29.98v-11.75h-7.04v-11.48h-15.83Z"/>
      <path class="st1" d="M158.12,64.84v11.48h-7.04v11.75h29.98v-11.75h-7.11v-11.48h-15.83Z"/>
      <path class="st1" d="M77.75,48.19v15.09h114.5v-15.09h-114.5ZM101.79,59.7l-.83-4.32-2.3,4.14h-.33l-2.3-4.14-.83,4.32h-2.13l1.24-7.91h1.86l2.33,4.49,2.33-4.49h1.85l1.24,7.91h-2.13ZM109.31,59.7h-2.13v-7.91h2.13v7.91ZM121.38,59.01c-1.19.57-2.09.79-3.36.79-3.32,0-4.98-2-4.98-4.04s1.87-4.08,5.14-4.08c1.19,0,2.25.23,3.09.69v1.76c-.94-.49-1.89-.81-2.95-.81-1.82,0-3.09,1-3.09,2.4s1.26,2.42,3.04,2.42c1.12,0,1.87-.32,3.1-.87v1.73ZM133.73,59.7h-2.13v-3.2h-4.26v3.2h-2.13v-7.91h2.13v3.18h4.26v-3.18h2.13v7.91ZM139.96,59.7h-2.13v-7.91h2.13v7.91ZM152.38,58.73c-.64.61-2.22,1.07-3.59,1.07-2.99,0-5.1-1.68-5.1-4.05s2.1-4.07,5.15-4.07c1.28,0,2.52.27,3.37.65v1.73c-1.09-.49-2.14-.73-3.2-.73-2.32,0-3.13,1.32-3.13,2.49,0,1.41,1.19,2.33,2.96,2.33.52,0,.79-.05,1.42-.28v-.93h-1.24v-1.45h3.37v3.24ZM162.87,59.7l-.7-1.57h-3.82l-.64,1.57h-2.26l3.45-7.91h2.47l3.8,7.91h-2.3ZM176.93,59.7h-1.79l-4.72-5.07v5.07h-2.13v-7.91h1.95l4.56,4.84v-4.84h2.13v7.91Z"/>
      <polygon class="st1" points="158.91 56.75 161.54 56.75 160.16 53.67 158.91 56.75"/>
      <path class="st1" d="M187.68,85.95c-1.28,0-2.32,1.04-2.32,2.32s1.04,2.32,2.32,2.32,2.32-1.04,2.32-2.32-1.04-2.32-2.32-2.32ZM187.68,90.1c-1.01,0-1.82-.82-1.82-1.82s.82-1.82,1.82-1.82,1.82.82,1.82,1.82-.82,1.82-1.82,1.82Z"/>
      <path class="st1" d="M188.64,87.73c0-.44-.35-.79-.79-.79h-1.12v2.65h.5v-1.08h.36l.5,1.08h.55l-.52-1.12c.31-.11.52-.4.52-.74ZM187.85,88.03h-.62v-.58h.62c.16,0,.29.13.29.29s-.13.29-.29.29Z"/>
    </g>
  </g>
</svg>