<?xml version="1.0" encoding="UTF-8"?>
<svg id="Layer_1" xmlns="http://www.w3.org/2000/svg" version="1.1" viewBox="0 0 270 112">
  <!-- Generator: Adobe Illustrator 30.0.0, SVG Export Plug-In . SVG Version: 2.1.1 Build 123)  -->
  <defs>
    <style>
      .st0 {
        fill: #ce0e2d;
      }

      .st1 {
        fill: #fff;
      }
    </style>
  </defs>
  <rect class="st1" width="270" height="112" rx="29" ry="29"/>
  <g>
    <g>
      <path class="st0" d="M169.26,86.04c-1,0-1.79.78-1.79,1.77s.8,1.76,1.77,1.76,1.76-.79,1.76-1.76-.79-1.77-1.74-1.77ZM169.24,89.22c-.78,0-1.42-.64-1.42-1.41s.63-1.42,1.43-1.42,1.4.65,1.4,1.41-.64,1.41-1.41,1.41Z"/>
      <path class="st0" d="M168.53,86.74h.62c.26,0,.36.02.47.07.18.09.28.27.28.5,0,.16-.05.31-.15.42-.06.07-.12.11-.25.17l-.05.02.48.95h-.35l-.46-.9h-.24v.9h-.35v-2.12ZM169.07,87.67s.12,0,.16,0c.17-.04.26-.15.26-.33,0-.14-.06-.23-.18-.27-.05-.02-.06-.02-.26-.02h-.17v.63h.19Z"/>
    </g>
    <path class="st0" d="M137.87,22.43v19.88h4.42v10.95l-19.55-30.83h-23.74v19.88h4.42v27.39h-4.42v19.88h28.27v-19.88h-4.42v-10.94l19.55,30.82h23.74v-19.88h-4.42v-27.39h4.42v-19.88h-28.27ZM165.26,41.42h-4.42v29.15h4.42v18.11h-22.37l-20.92-32.98v14.87h4.42v18.11h-26.5v-18.11h4.42v-29.15h-4.42v-18.11h22.37l20.92,32.98v-14.87h-4.42v-18.11h26.5v18.11Z"/>
    <path class="st1" d="M138.76,23.31v18.11h4.42v14.87l-20.92-32.98h-22.37v18.11h4.42v29.15h-4.42v18.11h26.5v-18.11h-4.42v-14.87l20.92,32.98h22.37v-18.11h-4.42v-29.15h4.42v-18.11h-26.5ZM125.06,71.9h0v15.46h-23.85v-15.46h4.42v-31.8h-4.42v-15.46h20.32l22.97,36.22v-20.76h-4.42v-15.46h23.85v15.46h-4.42v31.8h4.42v15.46h-20.32l-22.97-36.22v20.76h4.42Z"/>
    <path class="st0" d="M144.5,60.86h0s-22.97-36.22-22.97-36.22h-20.32v15.46h4.42v31.8h-4.42v15.46h23.85v-15.46h-4.42v-20.76l22.97,36.22h20.32v-15.46h-4.42v-31.8h4.42v-15.46h-23.85v15.46h4.42v20.76Z"/>
  </g>
</svg>