<?xml version="1.0" encoding="UTF-8"?>
<svg id="Layer_1" xmlns="http://www.w3.org/2000/svg" version="1.1" viewBox="0 0 270 112">
  <!-- Generator: Adobe Illustrator 30.0.0, SVG Export Plug-In . SVG Version: 2.1.1 Build 123)  -->
  <defs>
    <style>
      .st0 {
        fill: #fff;
      }

      .st1 {
        fill: #ffcd00;
      }
    </style>
  </defs>
  <rect class="st0" width="270" height="112" rx="29" ry="29"/>
  <g>
    <path class="st1" d="M146.22,83.71c-2.03,0-3.64,1.63-3.64,3.66s1.61,3.64,3.64,3.64,3.64-1.63,3.64-3.64-1.62-3.66-3.64-3.66ZM146.22,90.14c-1.59,0-2.77-1.16-2.77-2.77s1.18-2.79,2.77-2.79,2.77,1.16,2.77,2.79-1.21,2.77-2.77,2.77Z"/>
    <path class="st1" d="M148.07,86.58c0-1-.6-1.16-1.47-1.16h-1.84v3.78h.84v-1.6h.59l.85,1.6h.92l-.92-1.6c.67-.05,1.03-.33,1.03-1.03ZM146.62,87.04h-1.01v-.96h.82c.37,0,.85,0,.85.39,0,.48-.24.57-.66.57Z"/>
    <path class="st1" d="M178.91,48.3c-5.12,1.75-18.2,13.15-22.6,21.4,8.19-5.03,27.85-.92,25.72,14.25,13.51-8.9,9.29-31.09-3.12-35.65Z"/>
    <path class="st1" d="M135.22,45.39c-.24,5.35,3.89,9.88,9.24,10.13,5.35.24,9.88-3.9,10.13-9.25.09-2.01-.43-3.91-1.41-5.5,1.78.3,3.75,1.58,5.16,3.84,2.27,3.64,4,5.82,6.91,6.42,5.45,1.11,9.25-3.47,8.9-7.83-.3-3.52-2.26-6.1-4.04-7.82-9.39-9.08-20.52-13.32-36.35-14.21-40.88-2.32-54.34,21.43-54.14,33.52,1.96-2.23,4.92-4.55,6.75-5.29-3.58,5.18-5.09,9.74-5.1,15.15,2-2.52,3.56-3.58,5.59-4.42-3.03,5.77-3.08,9.54-2.91,14.76,1.94-2.38,3.48-3.8,5.13-4.5,0,0-2.77,6.83-1.31,13.98,12.88-24.67,33.24-41.44,49.15-43.9-.75,1.3-1.64,3.32-1.71,4.93Z"/>
    <path class="st1" d="M164.47,77.69c-3.43-1.04-8.52-1.94-9.93-2.06.11,5.83,4.72,10.64,10.63,10.91,2.69.12,5.2-.74,7.19-2.24-6.38,1.16-9.11-2.96-7.88-6.61Z"/>
    <path class="st1" d="M144.19,61.6c-7.62-.35-13.71-6.03-14.87-13.28,0,0-2.57.75-6.14,3.35-4,2.91-4.45,4.89-4.45,4.89,5.28-2.35,9.6-.69,10.94,2.22,1.35,2.91-.91,6.86-7.65,9.61-5.69,2.31-10.1,5.82-10.42,11.04-.29,4.68,2.36,9.95,10.04,11.3,14.53,2.55,30.02-13.88,30.36-30.58-2.12.91-5.37,1.55-7.82,1.44Z"/>
  </g>
</svg>