<?xml version="1.0" encoding="UTF-8"?>
<svg id="Layer_1" xmlns="http://www.w3.org/2000/svg" version="1.1" viewBox="0 0 270 112">
  <!-- Generator: Adobe Illustrator 30.0.0, SVG Export Plug-In . SVG Version: 2.1.1 Build 123)  -->
  <defs>
    <style>
      .st0 {
        fill: #fff;
      }

      .st1 {
        fill: #ff8300;
      }
    </style>
  </defs>
  <rect class="st0" width="270" height="112" rx="29" ry="29"/>
  <g>
    <path class="st1" d="M170,21v23.63h-8.75c0-4.35-4.31-7.88-9.63-7.88-3.88,0-7.23,1.88-8.75,4.59v29.53c0,6.27,4.88,11.36,10.91,11.37h.03v8.75h-37.63v-8.75h.03c6.03-.01,10.91-5.1,10.91-11.37v-29.53c-1.52-2.71-4.87-4.59-8.75-4.59-5.32,0-9.63,3.52-9.63,7.88h-8.75v-23.63h70Z"/>
    <path class="st1" d="M159.05,85.04c1.48,0,2.72,1.18,2.72,2.71s-1.24,2.71-2.72,2.71-2.72-1.19-2.72-2.71,1.24-2.71,2.72-2.71ZM159.05,91c1.81,0,3.25-1.44,3.25-3.24s-1.44-3.24-3.25-3.24-3.25,1.44-3.25,3.24,1.44,3.24,3.25,3.24ZM159.61,87.92c.49-.02.97-.28.97-1,0-.77-.59-.97-1.25-.97h-1.53v3.65h.53v-1.68h.68l.93,1.68h.6l-.92-1.68ZM159.23,86.49c.44,0,.83.03.83.49,0,.49-.68.41-1.17.41h-.56v-.91h.91Z"/>
  </g>
</svg>