<?xml version="1.0" encoding="UTF-8"?>
<svg id="Layer_1" xmlns="http://www.w3.org/2000/svg" version="1.1" viewBox="0 0 270 112">
  <!-- Generator: Adobe Illustrator 30.0.0, SVG Export Plug-In . SVG Version: 2.1.1 Build 123)  -->
  <defs>
    <style>
      .st0 {
        fill: #fff;
      }

      .st1 {
        fill: #8a1e41;
      }

      .st2 {
        fill: #ee7623;
      }
    </style>
  </defs>
  <rect class="st0" width="270" height="112" rx="29" ry="29"/>
  <g>
    <g>
      <path class="st2" d="M158.08,78.52v-2.64h11.55v2.64h-4.4v12.34h-2.75v-12.34h-4.41Z"/>
      <path class="st2" d="M181.54,90.85h-9.61v-14.97h9.61v2.62h-6.87v3.49h5.58v2.62h-5.58v3.61h6.87v2.62Z"/>
      <path class="st2" d="M186.09,83.36c0,.68.13,1.31.39,1.91.26.6.62,1.11,1.07,1.56.45.44.97.79,1.57,1.05.6.26,1.23.39,1.91.39.52,0,1.01-.08,1.48-.24.46-.16.89-.37,1.29-.64.15-.1.32-.17.5-.23.18-.06.36-.08.56-.08.31,0,.58.05.8.15.22.1.42.24.61.42l.64.64c-.39.42-.81.79-1.26,1.13-.45.33-.93.62-1.43.86-.5.24-1.01.42-1.55.54-.53.13-1.08.19-1.63.19-1.06,0-2.05-.2-2.98-.6-.93-.4-1.74-.95-2.44-1.63-.7-.69-1.25-1.5-1.65-2.42-.4-.93-.6-1.92-.6-2.98,0-.7.09-1.38.27-2.03.18-.65.44-1.26.77-1.82.33-.56.73-1.08,1.2-1.55.47-.47.98-.87,1.55-1.2.57-.33,1.18-.59,1.83-.77.65-.18,1.33-.27,2.04-.27.56,0,1.1.06,1.63.19.53.13,1.05.31,1.55.54.5.24.97.52,1.43.86.45.33.87.71,1.26,1.13l-.64.64c-.18.18-.39.33-.62.43-.23.11-.5.16-.79.16-.38,0-.73-.11-1.05-.33-.4-.27-.84-.48-1.3-.64-.46-.15-.95-.23-1.47-.23-.68,0-1.31.13-1.91.39-.6.26-1.12.61-1.57,1.05-.45.44-.8.96-1.07,1.55-.26.59-.39,1.23-.39,1.9Z"/>
      <path class="st2" d="M212.74,90.85h-2.75v-6.2h-7.35v6.2h-2.74v-14.97h2.74v6.14h7.35v-6.14h2.75v14.97Z"/>
      <path class="st2" d="M58.17,86.31s1.35-3.1,2.02-4.64c.67-1.54,1.35-3.08,2.03-4.64.15-.36.39-.64.72-.84.32-.21.68-.31,1.07-.31h1.7l-6.53,14.97h-2.49l-6.53-14.97h1.69c.19,0,.37.03.56.08.18.06.36.14.52.24.16.1.3.23.43.37.13.14.22.29.29.46l4.04,9.27.24.54.23-.53Z"/>
      <path class="st2" d="M70.76,90.85h-2.75v-14.97h2.75v14.97Z"/>
      <path class="st2" d="M101.53,82.84v6.28c-.38.38-.78.69-1.22.93-.44.24-.9.44-1.38.58-.48.14-.98.24-1.5.29-.52.05-1.04.08-1.57.08-1.06,0-2.05-.2-2.98-.6-.93-.4-1.74-.95-2.43-1.63-.7-.69-1.25-1.5-1.65-2.42-.4-.93-.6-1.92-.6-2.98,0-.7.09-1.38.27-2.03.18-.65.44-1.26.77-1.82.33-.56.73-1.08,1.2-1.55.47-.47.98-.87,1.55-1.2.57-.33,1.18-.59,1.83-.77.65-.18,1.33-.27,2.03-.27.56,0,1.1.06,1.64.19.54.13,1.05.31,1.55.54.49.24.97.52,1.42.86.45.33.87.71,1.26,1.13l-.63.64c-.19.2-.41.35-.63.45-.23.1-.49.15-.78.15-.39,0-.75-.11-1.07-.33-.4-.27-.83-.48-1.29-.64-.46-.15-.96-.23-1.48-.23-.67,0-1.3.13-1.9.39-.6.26-1.12.61-1.57,1.05-.45.44-.8.96-1.06,1.55-.26.59-.39,1.23-.39,1.9s.14,1.33.41,1.93c.27.6.64,1.11,1.1,1.56.46.44.99.79,1.6,1.04.61.25,1.25.38,1.92.38.33,0,.66-.03.99-.08.29-.04.59-.11.92-.2.33-.09.63-.22.9-.39v-2.11c-.29,0-.58-.01-.86-.02-.28,0-.53-.06-.75-.16-.22-.1-.4-.28-.53-.53-.13-.25-.2-.61-.2-1.1v-.84h5.1Z"/>
      <path class="st2" d="M108.7,90.85h-2.75v-14.97h2.75v14.97Z"/>
      <path class="st2" d="M115.95,79.66v11.2h-2.74v-14.97h2.41c.33,0,.63.05.88.15.25.1.45.25.6.45,1.04,1.48,6.65,9.41,6.65,9.41v-10.01h2.74v14.97h-2.54l-8.01-11.2Z"/>
      <path class="st2" d="M133.77,90.85h-2.75v-14.97h2.75v14.97Z"/>
      <path class="st2" d="M145.08,75.89h-2.48l-6.54,14.97h1.7c.19,0,.37-.03.56-.08.18-.06.36-.13.52-.23.16-.1.3-.22.43-.36s.22-.29.29-.46l.88-2.03h0l1.58-3.64h.01l1.8-4.18,2.19,5.08h-1.24c-.93,0-1.77.55-2.14,1.41l-.58,1.34h5.18l.89,2.03c.16.36.4.63.72.84.32.2.68.3,1.07.3h1.7l-6.54-14.97Z"/>
      <path class="st2" d="M78.02,90.85h-2.74v-14.97h5.62c.72,0,1.38.14,1.97.41.59.27,1.09.63,1.51,1.08.42.45.74.96.97,1.53.23.57.34,1.16.34,1.77,0,.44-.06.87-.18,1.28-.12.42-.29.81-.52,1.18-.23.37-.51.71-.85,1.02-.33.31-.72.57-1.15.79.73,1,1.46,1.98,2.18,2.96.72.98,1.45,1.96,2.19,2.95h-2.14c-.15,0-.32-.03-.51-.09-.2-.06-.4-.16-.61-.3-.21-.14-.43-.31-.66-.53-.23-.22-.45-.48-.66-.79l-2.73-3.68h-2.05v5.39ZM80.98,82.72c.26,0,.52-.06.76-.17.24-.11.45-.26.63-.45.18-.19.32-.41.42-.65.1-.25.16-.5.16-.77s-.05-.53-.16-.78c-.1-.25-.24-.46-.42-.65-.18-.19-.39-.34-.63-.45-.24-.11-.49-.17-.76-.17h-2.97v4.08h2.97Z"/>
    </g>
    <path class="st2" d="M217.93,87.05c1.05,0,1.9.85,1.9,1.9s-.85,1.9-1.9,1.9-1.9-.85-1.9-1.9.85-1.9,1.9-1.9ZM217.93,90.68c.95,0,1.73-.77,1.73-1.73s-.77-1.72-1.73-1.72-1.73.77-1.73,1.72.77,1.73,1.73,1.73ZM218.2,89.13l.51.72s0,.06-.05.06h-.18s-.06-.01-.08-.04l-.5-.71h-.36v.71s-.02.04-.05.04h-.18s-.05-.01-.05-.04v-1.83s.02-.05.05-.05h.66c.32,0,.66.13.66.58,0,.32-.2.5-.42.56ZM217.96,88.92c.26,0,.39-.12.39-.35,0-.24-.15-.33-.4-.33h-.41v.68h.42Z"/>
    <path class="st1" d="M137.66,21c-6.1,0-11.72,3.35-14.62,8.71l-3.58,6.61-.42.77-.4.74h0l-10.8,19.97-17.64-32.97h7.84l6.32,11.74,3.31,6.16,3.42-6.1,6.62-11.8h5.72c1.38-1.54,3-2.83,4.77-3.84h-12.75l-7.72,13.77-7.4-13.77h-16.56l24.03,44.92,13.38-24.73,2.22-4.1.42-.77,2.57-4.75c.14-.26.29-.51.44-.76,1.72-2.71,4.37-4.66,7.41-5.5.83-.23,1.68-.38,2.56-.44.29-.02.58-.03.88-.03h35.02l-3.54,6.59h-16.21l-1.08,2.04-14.99,28.17h-7.95l13.15-24.42,3.05-5.67h-15.78c-.9,1.42-2.19,3.84-2.19,3.84h11.54l-16.2,30.09h16.69l16.08-30.21h16.2l7.66-14.28h-41.48Z"/>
  </g>
</svg>