<?xml version="1.0" encoding="UTF-8"?>
<svg id="Layer_1" xmlns="http://www.w3.org/2000/svg" version="1.1" viewBox="0 0 270 112">
  <!-- Generator: Adobe Illustrator 30.0.0, SVG Export Plug-In . SVG Version: 2.1.1 Build 123)  -->
  <defs>
    <style>
      .st0 {
        fill: #fff;
      }

      .st1 {
        fill: #fdd756;
      }

      .st2 {
        fill: #ffc629;
      }

      .st3 {
        fill: #aa182c;
      }

      .st4 {
        fill: #8a2432;
      }
    </style>
  </defs>
  <rect class="st0" width="270" height="112" rx="29" ry="29"/>
  <g>
    <polygon class="st2" points="145.71 74.12 145.71 37.87 152.77 37.87 155.48 21 114.17 21 116.88 37.87 123.97 37.87 123.97 74.12 116.98 74.12 114.28 91 155.4 91 152.69 74.12 145.71 74.12"/>
    <polygon class="st3" points="150.58 35.3 152.47 23.57 117.19 23.57 119.07 35.3 126.54 35.3 126.54 76.69 119.17 76.69 117.29 88.43 152.38 88.43 150.5 76.69 143.14 76.69 143.14 35.3 150.58 35.3"/>
    <g>
      <polygon class="st4" points="146.39 82.45 137.36 82.45 143.14 76.69 143.14 35.3 150.58 35.3 152.47 23.57 146.39 29.43 134.84 29.43 134.84 82.45 123.41 82.45 117.29 88.43 152.38 88.43 150.5 76.69 146.39 82.45"/>
      <polygon class="st4" points="132.69 29.43 123.41 29.43 119.07 35.3 126.54 35.3 132.69 29.43"/>
    </g>
    <g>
      <g>
        <path class="st4" d="M97.76,56.91c-2.31.62-4.61,1.31-6.89,2.06-.11.04-.2-.03-.2-.14v-2.75c0-.11.09-.23.19-.27,1.62-.57,3.26-1.11,4.9-1.62-.04.85-.09,1.7-.13,2.55,2.1-.65,4.21-1.25,6.33-1.79.15-2.94.31-5.87.46-8.81-4.44,1.12-8.83,2.48-13.16,4.07-2.83,1.04-5.1,3.85-5.1,7.27v4.01c0,2.91,2.27,4.73,5.1,3.76,2.27-.78,4.56-1.5,6.87-2.15.11-.03.2.03.2.14v2.9c0,.11-.09.22-.19.26-1.79.55-3.58,1.14-5.36,1.76.04-.85.09-1.7.13-2.56-2.08.73-4.14,1.52-6.19,2.35-.15,2.96-.3,5.92-.44,8.88,4.43-1.83,8.93-3.41,13.49-4.74,2.88-.84,5.24-3.19,5.24-6.7v-4.51c0-2.91-2.36-4.76-5.24-3.98Z"/>
        <path class="st4" d="M118.7,61.6v-12.32c.53-.07,1.07-.13,1.6-.19-.05.84-.09,1.68-.13,2.53,2.17-.24,4.35-.43,6.53-.57.16-2.91.31-5.82.47-8.73-7.94.47-15.85,1.65-23.62,3.55.15,2.86.31,5.73.46,8.59,2.14-.51,4.28-.97,6.44-1.38-.04-.83-.09-1.66-.13-2.49.53-.1,1.06-.2,1.59-.29v12.32c-.66.12-1.32.24-1.98.37-.33,2.13-.66,4.26-1,6.38,4.14-.83,8.31-1.46,12.5-1.89-.34-2.03-.67-4.06-1.01-6.08-.57.06-1.14.13-1.71.2Z"/>
        <path class="st4" d="M142.98,51.03c2.18.13,4.36.32,6.53.55-.04-.84-.09-1.68-.13-2.53.53.06,1.07.12,1.6.18v12.32c-.57-.07-1.14-.13-1.71-.2-.33,2.03-.67,4.05-1.01,6.09,4.2.42,8.38,1.04,12.53,1.86-.33-2.13-.66-4.26-1-6.38-.67-.13-1.33-.25-2-.36v-12.32c.54.09,1.07.19,1.61.29-.04.83-.09,1.66-.13,2.49,2.16.4,4.3.85,6.44,1.36.15-2.86.31-5.73.46-8.59-7.79-1.88-15.71-3.04-23.65-3.49.16,2.91.31,5.82.47,8.73Z"/>
        <path class="st4" d="M179.18,65.64c.04.85.08,1.7.11,2.55-1.11-.39-2.22-.77-3.34-1.13v-3.1c1.39.45,2.78.93,4.17,1.43.48-1.89.96-3.77,1.45-5.66-1.86-.69-3.73-1.35-5.61-1.96v-3.03c1.12.36,2.23.74,3.34,1.13-.04.82-.08,1.65-.11,2.47,2.09.74,4.16,1.53,6.22,2.37.15-2.84.3-5.68.44-8.52-6.18-2.56-12.5-4.63-18.91-6.22.33,2.15.66,4.29.99,6.44.46.12.92.24,1.38.36v3.03c-.84-.22-1.69-.44-2.53-.65.41,2.16.82,4.33,1.23,6.5.44.11.87.23,1.3.34v3.1c-.65-.17-1.31-.34-1.97-.51-.33,1.98-.66,3.96-.99,5.95,6.61,1.6,13.12,3.72,19.48,6.36-.14-2.96-.28-5.92-.43-8.88-2.06-.84-4.13-1.63-6.22-2.37Z"/>
        <path class="st4" d="M146.53,55.86c-1.05-.09-2.1-.17-3.15-.24-1.2-4.5-2.4-8.99-3.6-13.46-3.28-.12-6.57-.11-9.85.01-1.6,6.23-3.19,12.49-4.78,18.78-1.05.08-2.11.17-3.16.27.3,2.03.6,4.07.9,6.1,2.69-.24,5.38-.41,8.07-.49.4-1.76.79-3.51,1.18-5.26,1.83-.04,3.67-.04,5.5,0,.4,1.75.79,3.51,1.18,5.26,2.69.08,5.38.24,8.07.48.3-2.04.6-4.07.9-6.1-.66-.06-1.32-.12-1.98-.18.23-1.72.47-3.45.7-5.17ZM136.12,55.37c-.81,0-1.63,0-2.44,0,.41-1.49.81-2.98,1.22-4.47.41,1.49.81,2.97,1.22,4.46Z"/>
      </g>
      <g>
        <path class="st1" d="M144.14,49.82c1.36.09,2.71.21,4.07.34-.05-.84-.09-1.68-.13-2.53,1.4.14,2.8.3,4.2.48v14.89c-.63-.08-1.27-.16-1.9-.24-.2,1.18-.39,2.37-.59,3.55,3.17.35,6.33.82,9.48,1.41-.19-1.24-.39-2.48-.58-3.72-.73-.13-1.46-.26-2.2-.38v-14.89c1.4.23,2.8.48,4.2.76-.05.83-.09,1.66-.13,2.49,1.34.26,2.68.55,4.01.85.11-2.02.22-4.04.33-6.06-6.95-1.6-14-2.64-21.07-3.11.11,2.05.22,4.1.33,6.15Z"/>
        <path class="st1" d="M180.42,67.37c.04.85.08,1.7.12,2.56-1.94-.71-3.89-1.37-5.85-1.98v-5.67c1.49.47,2.97.96,4.44,1.48.28-1.11.56-2.21.85-3.31-1.76-.63-3.52-1.22-5.29-1.78v-5.61c1.96.61,3.91,1.27,5.85,1.98-.04.82-.08,1.65-.12,2.47,1.3.47,2.59.96,3.87,1.48.1-2,.21-4,.31-6.01-5.3-2.13-10.7-3.91-16.17-5.33.19,1.26.38,2.51.58,3.77.52.14,1.05.28,1.57.43v5.61c-.72-.2-1.44-.39-2.16-.58.19,1.25.38,2.51.58,3.77.53.14,1.06.28,1.59.43v5.67c-.72-.2-1.43-.39-2.15-.58-.19,1.16-.38,2.31-.58,3.47,5.67,1.45,11.26,3.27,16.75,5.48-.1-2.08-.2-4.17-.3-6.25-1.29-.51-2.58-1.01-3.87-1.48Z"/>
        <path class="st1" d="M143.32,60.53c.39.03.78.05,1.16.08.18-1.19.35-2.39.53-3.58-.88-.07-1.76-.12-2.64-.17-1.2-4.49-2.4-8.97-3.6-13.43-2.6-.07-5.21-.07-7.81,0-1.6,6.22-3.21,12.47-4.81,18.74-.89.06-1.77.13-2.65.2.18,1.19.35,2.38.53,3.57,1.96-.16,3.93-.28,5.9-.36.58-2.41,1.16-4.81,1.73-7.21.31.64.61,1.27.92,1.91,2-.04,4.01-.03,6.01.03.42,1.76.85,3.51,1.27,5.27,1.97.07,3.93.19,5.9.35.18-1.19.35-2.38.53-3.57-.88-.08-1.76-.14-2.64-.2-.11-.54-.22-1.09-.33-1.63ZM134.48,47c.28,0,.56,0,.85,0,.8,3.22,1.59,6.45,2.39,9.68-1.87-.04-3.75-.04-5.63,0,.8-3.24,1.59-6.46,2.39-9.68Z"/>
        <path class="st1" d="M105.14,52.9c1.33-.31,2.67-.59,4.01-.86-.04-.83-.09-1.66-.13-2.49,1.39-.28,2.78-.53,4.17-.76v14.89c-.73.12-1.45.25-2.17.38-.19,1.24-.39,2.48-.58,3.73,3.13-.59,6.29-1.07,9.45-1.43-.2-1.18-.39-2.37-.59-3.55-.63.07-1.27.15-1.9.24v-14.89c1.4-.19,2.8-.35,4.2-.49-.05.84-.09,1.68-.14,2.53,1.35-.14,2.71-.26,4.07-.35.11-2.05.22-4.1.33-6.15-7.07.49-14.11,1.54-21.04,3.16.11,2.02.22,4.04.32,6.05Z"/>
        <path class="st1" d="M97.77,58.2c-2.31.62-4.61,1.31-6.89,2.06-.8.26-1.45-.18-1.45-1.01v-2.72c0-.82.65-1.72,1.45-2,2.04-.72,4.09-1.39,6.16-2-.04.85-.09,1.7-.13,2.55,1.31-.39,2.62-.76,3.93-1.11.11-2.07.21-4.14.32-6.21-4,1.05-7.97,2.3-11.89,3.74-2.14.78-3.86,3.28-3.86,5.48v4.4c0,2.2,1.72,3.33,3.86,2.6,2.27-.78,4.56-1.5,6.87-2.15.81-.23,1.47.26,1.47,1.08v2.87c0,.82-.66,1.68-1.46,1.92-2.21.68-4.41,1.41-6.6,2.21.06-.86.12-1.72.17-2.58-1.3.47-2.6.97-3.89,1.48-.1,2.08-.21,4.16-.31,6.25,4.03-1.62,8.12-3.03,12.26-4.24,2.18-.64,3.96-2.88,3.96-5.09v-4.55c0-2.2-1.78-3.58-3.96-2.99Z"/>
      </g>
      <g>
        <g>
          <path class="st2" d="M152.28,48.12c.64-.52,1.27-1.03,1.9-1.55-2.74-.4-5.5-.71-8.25-.94.01.02.03.04.04.05-.01-.01-.03-.02-.04-.04.04.74.08,1.48.12,2.22-.64.65-1.27,1.3-1.91,1.95,1.36.09,2.71.21,4.07.34-.05-.84-.09-1.68-.13-2.53,1.4.14,2.8.3,4.2.48Z"/>
          <path class="st2" d="M162.8,48.14c-.05.76-.1,1.52-.15,2.28-.7.51-1.4,1.03-2.1,1.56,1.34.26,2.68.55,4.01.85.11-2.02.22-4.04.33-6.06-.69.45-1.39.9-2.08,1.36Z"/>
          <path class="st2" d="M156.83,65.49c-.07-.01-1.09-.18-1.99-.32.55-.52,1.1-1.04,1.65-1.55v-14.89c1.4.23,2.8.48,4.2.76.7-.47,1.4-.92,2.09-1.38-2.79-.6-5.58-1.1-8.39-1.51v18.51c-.94-.14-1.97-.28-2.63-.36-.65.52-1.31,1.04-1.96,1.57,3.17.35,6.33.82,9.48,1.41-.19-1.24-.39-2.48-.58-3.72-.62.49-1.24.99-1.86,1.49Z"/>
        </g>
        <g>
          <path class="st2" d="M113.19,48.79c.63-.71,1.27-1.41,1.9-2.11-2.74.42-5.47.92-8.19,1.51.01.01.03.03.04.04-.01,0-.03-.02-.04-.02.04.73.08,1.46.12,2.18-.63.83-1.25,1.67-1.88,2.51,1.33-.31,2.67-.59,4.01-.86-.04-.83-.09-1.66-.13-2.49,1.39-.28,2.78-.53,4.17-.76Z"/>
          <path class="st2" d="M123.75,45.67c-.05.78-.1,1.55-.15,2.33-.71.72-1.42,1.45-2.13,2.19,1.35-.14,2.71-.26,4.07-.35.11-2.05.22-4.1.33-6.15-.71.66-1.41,1.32-2.12,1.99Z"/>
          <path class="st2" d="M117.43,64.86c-.07,0-.79.1-1.68.23.55-.68,1.1-1.36,1.65-2.04v-14.89c1.4-.19,2.8-.35,4.2-.49.7-.67,1.41-1.34,2.12-2.01-2.82.24-5.63.57-8.43.99v18.51c-.94.14-2.26.35-2.91.47-.65.71-1.3,1.44-1.95,2.16,3.13-.59,6.29-1.07,9.45-1.43-.2-1.18-.39-2.37-.59-3.55-.62.68-1.24,1.36-1.86,2.04Z"/>
        </g>
        <g>
          <path class="st2" d="M184.29,68.85c-.61.36-1.23.73-1.85,1.1.05.85.1,1.7.15,2.55-2.49-1.08-11.6-3.96-12.82-4.19-.64.43-1.29.86-1.93,1.3,5.67,1.45,11.26,3.27,16.75,5.48-.1-2.08-.2-4.17-.3-6.25Z"/>
          <path class="st2" d="M180.42,57.51c.68-.42,1.36-.83,2.03-1.23.05-.75.1-1.51.15-2.26.67-.35,1.34-.7,2.01-1.04-.1,2-.21,4-.31,6.01-1.29-.51-2.58-1.01-3.87-1.48Z"/>
          <path class="st2" d="M170.58,51.84c.62-.43,1.24-.86,1.86-1.28-.53-.16-1.07-.31-1.6-.46-.61.43-1.22.87-1.83,1.31.52.14,1.05.28,1.57.43Z"/>
          <path class="st2" d="M170.58,61.06c.62-.43,1.24-.86,1.86-1.28-.53-.16-1.07-.31-1.6-.46-.61.43-1.23.87-1.85,1.31.53.14,1.06.28,1.59.43Z"/>
          <path class="st2" d="M180.54,55.04c.69-.35,1.38-.7,2.06-1.04-3.29-1.26-6.61-2.39-9.96-3.38,0,6.17,0,12.34,0,18.51.69-.31,1.37-.61,2.05-.9v-5.95c1.49.47,2.97.96,4.44,1.48.28-1.11.56-2.21.85-3.31-.64.37-1.27.75-1.91,1.14-1.12-.38-2.25-.75-3.38-1.11v-7.41c1.96.61,3.91,1.27,5.85,1.98Z"/>
        </g>
        <g>
          <path class="st2" d="M144.36,64.02c-.87-.06-1.74-.11-2.61-.16-.63.57-1.26,1.15-1.89,1.72,1.97.07,3.93.19,5.9.35.18-1.19.35-2.38.53-3.57-.64.55-1.29,1.1-1.93,1.66Z"/>
          <path class="st2" d="M141.87,63.76c.59-.54,1.19-1.07,1.78-1.6-.11-.54-.22-1.09-.33-1.63.39.03.78.05,1.16.08.18-1.19.35-2.39.53-3.58-.63.55-1.26,1.11-1.89,1.68-3.14-.19-6.28-.27-9.42-.24-.37.61-.75,1.21-1.12,1.82,2.82-.05,5.63-.01,8.44.12.28,1.12.56,2.24.84,3.36Z"/>
          <path class="st2" d="M135.32,47c.58-.6,1.16-1.2,1.74-1.8-1.37-.02-2.74-.02-4.11,0-1.56,6.19-3.13,12.42-4.69,18.66-.77.04-1.53.08-2.3.14-.64.65-1.29,1.3-1.93,1.95,1.96-.16,3.93-.28,5.9-.36,1.51-6.23,3.03-12.42,4.54-18.6.28,0,.56,0,.85,0Z"/>
          <path class="st2" d="M140.51,58.48c.62-.54,1.24-1.09,1.86-1.62-1.2-4.49-2.4-8.97-3.6-13.43-.57.59-1.14,1.18-1.71,1.78,1.15,4.41,2.3,8.83,3.45,13.27Z"/>
        </g>
        <g>
          <path class="st2" d="M89.71,67.33c-.06.86-.12,1.72-.17,2.58-.68.85-1.35,1.71-2.02,2.58.04-.89.09-1.79.13-2.68.69-.83,1.37-1.65,2.06-2.47Z"/>
          <path class="st2" d="M101.72,65.74v-4.55c0-1.18-.52-2.13-1.34-2.66-.53.57-1.06,1.15-1.58,1.73.51.42.82,1.06.82,1.87v3.08c0,1.93-1.56,3.72-3.46,4.3-2.91.89-5.79,1.88-8.65,2.97-.67.85-1.34,1.71-2.01,2.58,4.03-1.62,8.12-3.03,12.26-4.24,2.18-.64,3.96-2.88,3.96-5.09Z"/>
          <path class="st2" d="M90.68,52.78c-1.88.67-3.21,2.55-3.21,4.48v2.68c0,.95.27,1.56.86,1.93.49-.59.97-1.18,1.46-1.77-.23-.19-.37-.48-.37-.86v-2.72c0-.82.65-1.72,1.45-2,2.04-.72,4.09-1.39,6.16-2,.69-.81,1.37-1.62,2.06-2.41-2.82.79-5.63,1.68-8.41,2.67Z"/>
          <path class="st2" d="M96.33,60.16c-1.93.54-3.85,1.13-5.76,1.76-.88.29-1.67.29-2.27,0-.53.65-1.05,1.3-1.57,1.96.68.36,1.56.42,2.54.09,2.27-.78,4.56-1.5,6.87-2.15.45-.13.84-.03,1.11.22.52-.6,1.04-1.19,1.57-1.77-.58-.43-1.26-.47-2.47-.11Z"/>
          <path class="st2" d="M96.9,55.08c.67-.81,1.34-1.62,2.02-2.43.06-.84.11-1.68.17-2.51.69-.8,1.38-1.59,2.06-2.38-.11,2.07-.21,4.14-.32,6.21-1.31.35-2.62.72-3.93,1.11Z"/>
        </g>
      </g>
    </g>
    <path class="st2" d="M159.72,87.62h-.81v2.23h-.77v-2.23h-.81v-.62h2.4v.62ZM163.78,89.85h-.76v-2.23h-.08l-.7,1.56h-.53l-.71-1.59h-.1v2.25h-.72v-2.85h1.24l.57,1.39.6-1.39h1.2v2.85Z"/>
  </g>
</svg>