<?xml version="1.0" encoding="UTF-8"?>
<svg id="Layer_1" xmlns="http://www.w3.org/2000/svg" version="1.1" viewBox="0 0 270 112">
  <!-- Generator: Adobe Illustrator 30.0.0, SVG Export Plug-In . SVG Version: 2.1.1 Build 123)  -->
  <defs>
    <style>
      .st0 {
        fill: #231f20;
      }

      .st1 {
        fill: #fff;
      }

      .st2 {
        fill: none;
      }

      .st3 {
        fill: #c43139;
      }
    </style>
  </defs>
  <rect class="st1" width="270" height="112" rx="29" ry="29"/>
  <g>
    <path class="st3" d="M136.57,59.72v8.53c2.29-.27,4.47-.74,6.41-1.56,1-.42,1.88-.9,2.65-1.46l-1.05-14.26h-17.49v-7.36h-11.89s1.18,16.09,1.18,16.09v.02h20.19"/>
    <polygon class="st3" points="127.08 33.71 127.08 28.51 136.03 28.51 136.03 43.55 133.67 45.98 144.46 45.98 147.19 21 113.63 21 114.44 33.71 127.08 33.71"/>
    <path class="st3" d="M146.38,76.1c-3.17.79-6.51,1.27-9.81,1.47v5.74h-11.87v-14.55s2.97-2.3,2.97-2.3h-11.29l-2.75,24.51h33.74l-.98-14.87"/>
    <path class="st0" d="M111.37,55.7l-1.39-13.44h24.51s0-7.22,0-7.22l-38.28.02,3.96,16.79c-.35-.04-.68-.07-.96-.07-.96,0-1.87.44-2.09.69-.03.03-.14-.02-.28-.12-.44-.38-1.14-.6-1.95-.6-.73,0-1.42.18-1.91.49-.18.07-.36.1-.53.1-.22,0-.71-.14-.71-.14h0c-.27-.08-.58-.17-.93-.17,0,0-.71-.01-1.07-.02h0s-1.94-.02-2.16,0c-.12.02-2.5-.1-3.15.56-.31.32-.44.83-.39,1.56.03.49.13.97.2,1.24.53,1.83,1.2,2.24,1.67,2.27.24.04,1.98-.11,3.41-.15.67-.02,1.17.03,1.49.08.07.02.18.04.32.04.31,0,.78-.1,1.27-.59h.02c.52.66,1.5.71,1.7.71h1.88c1.41,0,3.16,0,4.45,0l-4.22,18.63h17.51l.72-6.39h-4.46l1.4-14.26M179.39,51.32l-1.09,1.11-.2-.07-.2-1.48-4.13-1.01-.9,1.63h-.27s-.76-1.55-.76-1.55l-2.94.48-1.87,2.02h-3.37c-1.51-7.82-8.44-12.76-16.69-15.29l-.86,7.85c3.09,1.96,5.18,5.24,5.18,10.71,0,13.63-13.34,14.26-22.25,14.26h-2.81v6.39h6.4c14.36,0,29.2-5.18,31.14-17.77,0,0,.06-.37.12-.88l2.96.02,1.98,1.87,3.13.46.65-1.55.23-.03,1.06,1.47,4.12-1.05.12-1.54.25-.08,1.15,1.14c.31-.07,6.44-3.23,6.42-3.62-.02-.42-6.59-3.46-6.59-3.46"/>
    <path class="st0" d="M152.5,89.32c0,.94-.74,1.68-1.7,1.68s-1.71-.74-1.71-1.68.76-1.66,1.71-1.66,1.7.74,1.7,1.66M149.51,89.32c0,.74.55,1.33,1.3,1.33s1.27-.59,1.27-1.32-.54-1.34-1.28-1.34-1.29.6-1.29,1.33M150.54,90.19h-.39v-1.66c.15-.03.37-.05.64-.05.31,0,.46.05.58.12.09.07.16.2.16.37,0,.18-.14.32-.35.38v.02c.16.06.25.18.3.41.05.25.08.35.12.41h-.42c-.05-.06-.08-.21-.13-.4-.03-.18-.13-.26-.35-.26h-.18v.67ZM150.55,89.24h.18c.21,0,.39-.07.39-.24,0-.15-.11-.25-.36-.25-.1,0-.17.01-.21.02v.48Z"/>
    <rect class="st2" x="84.02" y="21" width="101.96" height="70"/>
  </g>
</svg>