<?xml version="1.0" encoding="UTF-8"?>
<svg id="Layer_1" xmlns="http://www.w3.org/2000/svg" version="1.1" viewBox="0 0 270 112">
  <!-- Generator: Adobe Illustrator 30.0.0, SVG Export Plug-In . SVG Version: 2.1.1 Build 123)  -->
  <defs>
    <style>
      .st0 {
        fill: #0a2240;
      }

      .st1 {
        fill: #fff;
      }

      .st2 {
        fill: #cb9700;
      }

      .st3 {
        fill: #00833e;
      }
    </style>
  </defs>
  <rect class="st1" width="270" height="112" rx="29" ry="29"/>
  <g>
    <g>
      <path class="st1" d="M178.44,83.3c-.51-.62-1.25-.67-1.73-.71l-.34-.04c-.11-.01-.32-.02-.43,0-1.35.29-2.12,1.31-2.65,2.19-.54-.16-1.17-.35-1.17-.35-.05-.01-.1-.02-.15-.03-1.25-.18-2.35-.01-3.42.15-.98.15-1.91.29-2.86.14-1.49-.17-2.81-.54-4.21-.92l-2.93-.73c-.75-.23-1.57-.31-2.39-.36.04-.07.08-.15.11-.2l.17-.3c1.2-.98,2.64-1.73,4.17-2.53l.76-.4c.06-.04.29-.13.29-.13.38-.13,1.02-.36,1.32-1.05.02-.05.04-.11.06-.16.03-.12.05-.24.05-.36,0-.46-.23-.87-.69-1.23-.03-.02-.14-.11-.17-.13l-1.97-1.29-2.7-1.75s-.71-.52-1.59-1.16c.79.1,2.35.3,2.35.3.38,0,.98,0,1.39-.46.23-.27.33-.62.27-.97,0,.05.01.1.01.15,0,0-.02-2.83-.03-4.04.37-.06.75-.19,1.03-.61.11-.17.17-.34.17-.53,0-.03,0-.05,0-.08l-.14-1.75s-.02-.18-.03-.3c.97-.05,2.92-.16,2.92-.16,2.73-.14,5.55-.28,8.31-.6.09-.01.17-.03.26-.06.59-.23,1.41-.63,1.75-1.55.01-.04.02-.08.03-.11.08-.34.12-.67.12-.98,0-.61-.12-1.17-.24-1.69l-.17-.92c-.01-.07-.08-.43-.14-.69.46,0,.95-.01,1.42-.18.28-.09.51-.3.63-.58.13-.29.18-.58.18-.86,0-.43-.11-.84-.21-1.17l-.54-2.14-.72-2.63c-.09-.33-.11-.43-.42-.54l-.98-.37s-.04-.01-.05-.02c-.01-.18-.08-1.08-.08-1.08-.12-1.85-.25-3.96-1.76-5.53,0-.01-.08-.07-.09-.08l-2.12-2.06-1.45-1.47s-.05-.05-.09-.08c-.49-.37-.9-.85-1.34-1.36-.63-.74-1.28-1.5-2.26-2.06-1.59-.75-4.48-1.77-6.79-.6-.1.05-.18.11-.26.18-.73.69-.79,1.63-.84,2.32,0,0-.03.29-.04.41-.06.15-.31.81-.31.81-.33.83-.71,1.77-.71,2.84,0,.09,0,.17,0,.25v.03c0,.1-.03.11-.03.13,0,.01.02.03.08.1l.85.99.16.11s.18.13.22.15l1.21.62c1.48.75,3,1.52,4.39,2.41,1.26.74,2.5,1.1,3.82,1.1.41.74.64,1.42.72,2.06-.17.09-.35.19-.35.19-.31.16-.44.42-.44.72,0,.14.03.3.08.45.26.77.33,1.65.4,2.57l.16,1.62c.01.13.15.37.21.49h0s0,.42,0,.42c0,0,0,.06,0,.11-.27.69-.58,1.33-1.02,1.39-1.58.14-3.18.1-4.88.06,0,0-.88-.01-1.6-.03-.04-.46-.09-.91-.09-1.38,0-.62.02-1.25.05-1.9,0,0,.03-2.75.03-2.88.06-.53.1-1.12.1-1.79,0-.33,0-.68-.02-1.04,0-.06,0-.11-.02-.16-.38-1.9-2.3-2.64-2.94-2.89-.04-.01-1.15-.5-1.15-.5-.88-.43-1.89-.91-3.2-.88-.1,0-.19.02-.29.05-1.63.5-2.04,1.79-2.34,2.74,0,0-.39.96-.39.97-.63.55-1.14,1.26-1.39,2.05-.13.32-.2.62-.2.9,0,1.1.85,1.9,1.36,2.38l.12.12c.51.39.67.89.89,1.67.19.68.44,1.48,1.02,2.17-1.37-.04-2.82-.09-2.82-.09,0,0-1.52-.04-3.04-.09.14-.3.35-.7.35-.7l-.39-.9c-.1-.23-.19-.31-.31-.35-.01-.02,0-.05-.02-.08-.16-.22-.36-.34-.6-.39-.1-.34-.29-.59-.33-.63-.14-.12-.31-.15-.48-.19-.15-.25-.34-.49-.63-.57-.25-.08-.44-.09-.67.02,0,0-1.28.61-1.9.9,0,0,0-.01-.01-.02.14-.1.29-.17.41-.34.07-.1.12-.21.15-.33.06-.22.08-.43.08-.64,0-.81-.4-1.51-.77-2.05-.04-.06-.08-.11-.13-.16-.2-.19-.41-.29-.63-.36.13-.09.29-.19.29-.19l1.43-.99c.15-.1.21-.2.29-.36.15-.31.21-.59.21-.85,0-.2-.09-.35-.15-.53,1.43.39,3.17.4,4.83-.01.06-.01.22-.05.22-.05.37-.06,1.24-.21,1.5-1.09.03-.1.05-.21.05-.31,0-.22-.07-.44-.21-.63-.65-.89-1.63-1.12-2.41-1.3,0,0-.99-.32-.99-.32,0,0-1.75-1.24-1.75-1.24-.01,0-.4-.26-.4-.26-.11-.07-.12-.09-.18-.14.17-.72.5-2.17.5-2.17,0-.02.63-2.41.63-2.41.49-1.72,1-3.48,1-5.37,0-.64-.06-1.3-.2-1.98-.02-.12-.07-.24-.13-.34-1.34-2.2-3.49-3.99-5.2-5.3-.1-.06-.7-.44-.7-.44-1.14-.71-2.44-1.52-4.01-1.83-.69-.21-1.5-.12-2.21-.04l-.5.05c-.08,0-.18.03-.25.05-2.92,1-5.86,2.35-8.73,4.01,0,0,0,0,0,0,0,0-.81.45-.81.45,0,0-.31.16-.58.3-.2-.12-.41-.23-.63-.41-.51-.4-1.09-.86-1.91-1.05-.08-.02-.16-.03-.24-.03-.74,0-1.24.54-1.46,1.04-.56,1.29-.88,2.62-1.02,4.04-.91.23-1.76.48-2.54.77-3.96,1.8-7.33,4.45-10.73,7.23-1.2,1.04-2.91,1.58-4.42,2-.39.11-.68.43-.75.82l-.03.19s0,.09-.02.14c-.2.08-.32.19-.43.37l-.11.16c-.15.22-.28.46-.28.7,0,.08.01.16.05.24.01.03.03.05.05.08-.03.11-.1.2-.1.31h0c0,.47.31.93.76,1.06.2.06.41.05.62.1,0,.04,0,.07.02.11.11.4.61.51,1.02.57.81.11,1.71-.02,2.7-.32.41.53.82,1,1.4,1.47-.01-.01,2.29,1.9,2.29,1.9,4.37,3.61,8.88,7.35,12.4,11.64.14.24.59.99.59.99.4.62.75,1.16.81,1.72,0,.05.12.35.13.4l.2.75s.11.45.17.71c.06.63.1,1.23.1,1.82,0,1.78-.29,3.37-.87,4.76-.52,1.33-1.61,2.53-2.66,3.69l-.72.8c-.22.26-.59.48-.98.71,0,0-.4.25-.61.39-.57.2-1.28.22-2.04.24,0,0-.63.02-.79.03-1.76-.15-3.58-.35-5.06-1.03-.16-.11-.41-.29-.41-.29-.26-.17-.5-.35-.63-.5-.05-.19-.09-.39-.09-.6,0-.58.19-1.19.66-1.61,1.72-1.66,4.39-2.01,7.03-2.16.13,0,.26-.04.38-.09l.21-.09c.38-.17.62-.55.62-.96,0-.47-.16-1.15-.91-1.73l-2.3-1.71-2.65-2c-.27-.2-.66-.3-.98-.2l-1.07.32c-.08.02-.16.06-.24.1-.49.29-.97.59-1.45.9-.1-.37-.41-.82-1.3-.94-.03,0-.13-.02-.16-.02l-2.59-.08-2.83-.11s-.24,0-.22,0l-.63-.07c-.64-.11-1.61-.28-2.38.5-.05.05-.09.1-.13.16-1.45,2.15-2.03,4.26-1.77,6.46.35,2.06,1.56,3.71,2.59,4.93.07.07.23.24.23.24,2.27,2.24,4.62,4.55,7.84,5.82,1.24.36,2.51.37,3.73.38l1.5.04c1.22.08,2.27-.25,3.2-.54,0,0,.18-.05.36-.11.47.28,1.11.65,1.11.65.51.27.97.55,1.38.85-.15.02-.3.03-.46.05-.03,0-2.99.72-2.99.72-1.63.41-3.16.81-4.8,1.06-.93.17-1.82.02-2.76-.14l-1.99-.25c-1.08-.08-2.03.16-2.91.42-.13-.21-.48-.75-.48-.75-.56-.65-1.57-1.8-3.17-1.4-.02,0-.08.03-.13.05h-.12c-.3.04-1.1.12-1.43.94-.05.12-.07.26-.07.39,0,1.07.83,1.61,1.32,1.93,0,0,.02.02.04.03.37.43.65,1,.93,1.61.57,1.23,1.28,2.76,3.18,3.37.1.03.21.05.32.05l13.84.03c.13,0,.19,0,.32-.05l1.45-.56c.82-.34,1.54-.63,2.32-.67.07.29.13.56.13.56.1.41.02.26.43.34l1.5.27.83.12s.48.07.53.07h1.68s1.31.03,1.5.03c1.09.13,1.97-.25,2.75-.7.26-.15.44-.4.51-.7.11-.52.17-1.07.17-1.62,0-.87-.14-1.76-.42-2.56-.35-1.31-1.69-1.96-2.67-2.43,0,0-.12-.06-.23-.11-.08-.07-.14-.24-.22-.54,0,0-.13-.34-.26-.65,0-.08.03-.17.03-.24,0-.38-.08-.72-.14-.99-.06-.24-.07-.34-.07-.42,1.56-.64,3.21-1.11,4.93-1.36,2.36-.53,4.87-.59,7.03-.59l2.69.03c3.05.16,6.19.52,9.03,1.03,0,0,.57.16.57.16,1.05.28,2.01.59,2.79,1.13,0,.19.01.38.01.38,0,.07.01.14.01.21,0,.55-.2,1.02-.43,1.56,0,0-.07.18-.14.36-.14.07-.28.14-.28.14-.77.36-1.64.77-2.28,1.57-.04.05-.07.1-.1.16-.49.9-.73,1.95-.73,3.12,0,.55.05,1.12.16,1.72.07.42.39.75.81.85.03,0,.08.04.13.1.19.2.4.32.68.33l3.4.16s3.59-.1,3.59-.1c.05,0,.1,0,.14-.01.42-.07,1.06-.37,1.22-1.26,0,0,.33.02.51.03.52.09,1.05.33,1.61.59.69.32,1.48.69,2.39.81.05,0,.1,0,.15,0l10.03-.1h1.1l2.26-.07c.11,0,.13-.02.24-.06,1.81-.67,2.47-2.07,3-3.2.28-.59.54-1.14.94-1.59.08-.06.22-.16.22-.16.44-.3,1.18-.79,1.23-1.8,0-.02,0-.04,0-.05,0-.25-.09-.48-.24-.67ZM176.49,85.22c-1.39,1.53-1.32,3.73-3.56,4.56-1.1.13-2.21.03-3.24.06l-10.03.1c-1.46-.19-2.6-1.18-3.98-1.4-.5,0-.99-.13-1.46-.03-.46.35.14,1.15-.6,1.27l-3.6.1c-1.1.04-2.2-.06-3.27-.16-.18-.19-.39-.35-.68-.41-.25-1.4-.21-2.9.47-4.15.64-.8,1.64-1.11,2.56-1.6.32-.93.89-1.82.78-2.91,0-.29,0-.67-.04-.99-1.17-1.02-2.7-1.31-4.2-1.72-2.99-.54-6.15-.9-9.21-1.05l-2.7-.03c-2.41,0-4.91.1-7.18.61-1.96.28-3.84.83-5.55,1.56-.71.83.14,1.73-.11,2.62.39.64.29,1.47.92,1.95.96.49,2.24.96,2.52,2.02.39,1.11.46,2.46.22,3.61-.61.35-1.32.7-2.17.57-1.21.06-2.17-.19-3.38-.03-.71-.28-1.63-.09-2.31-.38-.21-.29.17-.9-.36-.99-1.78-.2-3.17.8-4.7,1.27l-13.84-.04c-2.31-.74-2.31-3.25-3.7-4.76-.47-.32-1.03-.61-1.03-1.18.14-.35.64-.2.96-.35,1-.25,1.64.51,2.14,1.08.36.39.39.77.71,1.18l.15.06c1.03-.33,2.06-.67,3.27-.58,1.67.06,3.2.7,4.94.38,2.7-.42,5.2-1.22,7.83-1.79,1.18-.23,2.42-.2,3.67-.23l.1-.06c-.1-.28-.39-.54-.67-.67-.43-.06-1.03.36-1.28-.13-.89-1.21-2.68-1.76-3.92-2.65-1.18.32-2.28.83-3.63.74-1.64-.1-3.45.06-4.91-.34-3.09-1.22-5.41-3.55-7.65-5.76-1.07-1.27-2.06-2.71-2.34-4.37-.25-2.17.46-4.06,1.6-5.75.61-.61,1.57-.03,2.39-.12,1.74.16,3.7.06,5.44.19.21.03.53.03.53.25-1.28,1.06-3.06,1.95-4.13,3.23-.78,1.02-1.53,2.14-1.71,3.42-.11,1.02.17,1.95.46,2.81.53,1.5,2.13,2.11,3.6,2.81,1.34.55,2.84.8,4.34.99.14-.03.11-.19.04-.22-1.57-.96-3.13-2.55-4.2-4.02-.61-1.06-1.25-2.14-.92-3.48.14-.83.43-1.63,1-2.27,1.14-1.5,2.85-2.62,4.52-3.61l1.07-.32c1.6,1.34,3.38,2.46,4.98,3.74.29.22.5.51.5.89l-.21.1c-2.88.16-5.76.58-7.68,2.43-.96.86-1.21,2.26-.86,3.44.32.54,1,.86,1.53,1.28,1.64.77,3.6.99,5.52,1.15,1.14-.06,2.31.03,3.31-.35.68-.48,1.46-.8,1.96-1.38,1.25-1.43,2.85-2.97,3.56-4.78.92-2.21,1.1-4.69.85-7.12-.21-.61-.18-1.28-.5-1.85-.14-1.22-1.06-2.14-1.6-3.23-4.2-5.14-9.67-9.38-14.87-13.73-.71-.58-1.14-1.11-1.64-1.82h-.18c-.85.32-1.85.57-2.81.45.14-.31.64-.25.85-.54-.75.12-1.6.03-2.35-.2l.04-.1c.46-.16,1-.22,1.42-.47v-.04c-.42-.12-.99,0-1.35-.19l.11-.16c.5-.22,1.1-.35,1.56-.6v-.06c-.36-.03-.68-.06-.96-.23l.03-.19c1.71-.48,3.48-1.05,4.8-2.2,3.2-2.62,6.58-5.3,10.42-7.06,1.03-.39,2.06-.67,3.17-.92.14-.1-.04-.22,0-.36.11-1.44.43-2.78,1-4.09.07-.16.25-.42.5-.42,1.1.26,1.7,1.25,2.73,1.63.71-.22,1.32-.74,1.96-1.02,2.7-1.56,5.55-2.9,8.54-3.92.78-.07,1.67-.26,2.41-.03,1.64.32,2.96,1.27,4.27,2.07,1.92,1.47,3.77,3.1,4.94,5.01.68,3.32-.78,6.29-1.43,9.32l-.64,2.74c.25.45.68.61,1.14.93l1.82,1.28c.96.57,2.38.38,3.09,1.34-.11.34-.64.31-.96.41-1.42.35-2.98.38-4.38,0-.67-.13-1.31-.32-2.06-.32-.18.1,0,.25.03.39.32.63,1.21,1.08.82,1.88-.68.54-1.42.96-2.2,1.49-.36.33-.43.74-.46,1.19.25.54,1.1.06,1.49.44.36.51.71,1.15.54,1.82-.25.36-.79.26-1.14.48.29.57.6.95.99,1.43.15.2.43.33.64.2.75-.42,1.46-.77,2.24-1.06.21.06.07.32,0,.45-.07.1-.25.22-.21.35.32.03.64-.16.92-.25.18.16-.11.35-.18.52l-.53.54c.46.06.93-.22,1.39-.19-.18.38-.64.58-1,.83-.28.19-.64.28-.85.5.85-.03,1.56-.6,2.42-.76.14.13-.03.32-.14.41-.61.64-1.53.92-2.35,1.31l.03.06c3.81.04,7.69.28,11.49.35.21,0,.18-.22.18-.35-.25-.54-1.03-.67-1.46-1.12-1.39-1.12-.89-3.19-2.31-4.27-.6-.58-1.46-1.28-1.03-2.27.21-.71.67-1.37,1.28-1.82.74-1.08.5-2.78,2.17-3.29,1.57-.03,2.63.86,3.95,1.31,1.07.41,2.07,1.02,2.28,2.1.04.89.04,1.88-.07,2.78.11,2.37-.28,4.76.07,7.12l.18.1c2.52,0,4.94.2,7.44-.03,1.1-.16,1.6-1.34,1.92-2.2,0-.52.1-.99-.22-1.41-.21-1.46-.14-2.99-.6-4.37.25-.19.68-.23.85-.51,0-1.25-.5-2.43-1.14-3.48l-.29-.16c-1.42.1-2.63-.29-3.7-.92-1.81-1.15-3.77-2.08-5.69-3.07-.28-.25-.61-.31-.71-.64-.07-1.31.6-2.43.99-3.61.11-.77,0-1.66.57-2.2,1.78-.89,4.16-.19,5.8.58,1.46.83,2.17,2.36,3.48,3.35,1.28,1.22,2.28,2.46,3.63,3.58,1.53,1.6,1.35,3.96,1.56,6.1-.14.9.96.71,1.49,1.05.46,1.34.71,2.78,1.1,4.19.11.61.46,1.28.21,1.85-.64.22-1.42.12-2.14.16-.28.26-.03.64-.03.96l.18.86c.11,1.06.6,2.08.32,3.23-.18.48-.64.74-1.14.92-3.95.45-8,.55-11.96.8-.14.03-.32.16-.28.32.07.92.21,1.85.25,2.77-.21.33-.74.17-1.06.13l-.14.16.04,4.94c.03.23-.32.23-.5.23-2.02-.23-4.06-.54-6.08-.76-.14.03-.04.16.03.22l4.62,3.36c1.6.99,3.06,2.01,4.66,3.03.14.12.43.28.35.58-.18.41-.78.44-1.14.66-1.81.96-3.59,1.82-5.16,3.1-.46.44-.46,1.24-1.24,1.37l-.68.73.11.09c1.53.1,3.06.04,4.45.45,2.42.48,4.63,1.37,7.19,1.66,2.2.35,4.09-.61,6.29-.29l1.82.54.21-.06c.5-.89,1.1-2.04,2.31-2.3.5.1,1.14,0,1.46.39-.03.64-.68.86-1.14,1.25Z"/>
      <path class="st1" d="M152.26,65.26c.07-.64.07-1.44,0-2.07l-.11-.2c-1.96.2-3.84.39-5.8.48l-.14.1c1.5.61,3.13.89,4.66,1.44.43.13.89.35,1.39.25Z"/>
      <path class="st1" d="M158.81,38.1c.32,0,.22-.32.25-.51,0-.68.1-1.31.46-1.88,0-.23-.36-.23-.6-.23-.18.04-.32.1-.43.26-.32.6-.14,1.4-.43,2.04.07.32.5.25.75.32Z"/>
      <path class="st1" d="M160.59,38.16c.18-.77.18-1.6.89-2.17-.18-.19-.64-.28-.96-.19-.25.38-.57.7-.71,1.11-.11.39-.18.96.07,1.25.18.06.49.13.71,0Z"/>
      <path class="st1" d="M168.62,48.99l2.67.03c.04-.1,0-.23-.07-.29-.14-1.4-.32-2.71-.57-4.05-.14-1.15-1.28-1.79-1.89-2.68-1.99-1.4-3.59-3.54-5.37-5.23-.36-.35-1-.64-1.5-.25-.42.28-.56.7-.56,1.15.03.64-.46,1.21-.11,1.82.39.28.67.7,1.17.74.14-.09.36-.19.39-.39-.1-.45-.6-.99-.14-1.46.04-.1.18-.13.28-.06.04.35.36.44.64.63.11.13.11.39-.07.42-.18.16.03.35.07.54.04.54-.46.67-.71,1.06-.82.13-1.28-.52-1.89-.86-.28-.12-.35.1-.5.22-.64.35-1.53.44-2.21.16,0-.16-.21-.25-.03-.38.64-.06,1.53,0,1.81-.67,0-.19.21-.49-.03-.61-.82-.06-1.53-.1-2.24-.32l-.28.1c-.29.48-.47,1.02-.64,1.54-.03.63.78.89,1.32,1.11,2.14.76,3.7,2.3,5.87,3.06.93.29,2.03.26,3.03.42.28.07.5-.12.78-.09.03.35-.29.5-.5.74.5.76.78,1.65,1,2.55.14.36.04.77.28,1.09ZM165.32,44c-.86.03-1.53-.77-1.85-1.37-.22-.38-.25-.89-.25-1.31l.07-.09c.43.16.46.7.78.99.32.55.78,1.11,1.25,1.53v.25Z"/>
      <path class="st1" d="M130.52,44.64c.46.25,1.1.16,1.6.06.35-.22-.15-.39-.22-.64-.32-.41-.24-1.02-.14-1.5-.21-.32-.61-.13-.96-.19-.57.12-.61.67-.75,1.08-.07.48.1.93.46,1.19Z"/>
      <path class="st1" d="M132.44,43.62c.07-.03.11-.06.11-.12.04-.17-.03-.32-.21-.36-.07.04-.1.1-.1.16.04.12.07.29.21.32Z"/>
      <path class="st1" d="M154.5,58.98l.11.16,2.13.1c.28,0,.14-.25.18-.41,0-.45-.14-.96-.03-1.38.07-3.09,0-6.35.07-9.58,0-.38-.35-.66-.64-.96-1.03-.61-2.2-1.08-3.38-1.53-.36-.03-.68-.36-1.07-.2-.68.61-.64,1.54-1.04,2.27-.07.19-.17.41,0,.58.43.03.86.16,1.32.03.39-.06.25-.48.43-.7.39,0,.64.22.78.5.11.26-.03.48-.18.67-.78.55-1.96.39-2.92.29-.36.06-.86.1-.92.51-.57.99.75,1.24,1.21,1.82,1.17,1.38.68,3.67,2.63,4.6,1.28.55,1.32,2.05,1.32,3.23Z"/>
      <path class="st1" d="M122.91,55.43l-.17-.19c-.25-.26-.5.1-.78.1-.22-.1.07-.26-.04-.39-.25-.06-.5.13-.78.2-.21-.16.18-.29.14-.51-.25-.22-.43.16-.67.1-.29,0-.68,0-.79-.28l-.46-.03c.14-.39.57-.74.57-1.18-.17.03-.25.23-.42.26-.21-.06-.57.1-.64-.16.39-.32.64-.8.64-1.34h-.32c-.15-.04-.47.03-.43-.22.53-.52.43-1.34.43-2.01-.07-.76-.22-1.5-.54-2.11-.07,0-.25.06-.32,0-.11-.35.1-.99-.29-1.25-.25.26-.39.64-.75.77-.28-.1.07-.42.04-.64,0-.23.22-.48-.04-.67-.18.16-.39.32-.64.36-.1-.07-.32-.17-.25-.33.22-.25.42-.64.32-1.02-.25,0-.43.22-.71.16-.14-.06-.39-.16-.32-.35.22-.29.43-.61.43-1.02.11-.8-.5-1.47-1.32-1.82-.75-.16-1.39.15-1.96.38-1.17.45-1.7,1.66-1.75,2.77-.07,1.47.72,3.04,2.14,3.64.64.23,1.53.36,2.1-.09.68-.32.43-1.18.35-1.79-.07-.06.07-.13.11-.13.39.51.71,1.15.53,1.82-.11.52-.6.74-1.07.9-1.03.38-2.42.19-3.2-.51-1.35-1.15-2.03-2.97-1.53-4.69.07-.48.5-.92.46-1.37-.25.09-.46.25-.74.22v-.38c-.39.07-.68.45-1.04.48-.14-.1.11-.28-.07-.38-.39.16-.82.32-1.25.28v-.32l-.78.16c-.32-.1.11-.33-.07-.45l-1.06.48c-.29-.09,0-.39,0-.55-.46,0-.75.42-1.18.39.04-.42.36-.67.47-1.06-.47.13-.89.58-1.39.74l-.21-.26-.92.58-.04.16c1.67,1.76,3.81,3.39,5.66,4.91,3.06,2.78,6.12,5.39,8.72,8.4.35.25.53.82,1.06.89,1.21-.93,2.99-1.19,4.63-1.5l.14-.13ZM114.23,46.4c-.61.03-.93-.48-1.14-.86v-.1c.32.35.95.41,1.38.63.07.2-.07.32-.24.32ZM115.01,45.51c-.18.22-.57.16-.82.13-.57-.22-1.03-.86-1.1-1.41.28.13.49.42.81.58.32.35,1.28,0,1.1.7Z"/>
      <path class="st1" d="M167.81,50.35c.15,1.08.25,2.18.32,3.26l.14.41c1.49-.25,3.1,0,4.41.45.35.19.75.35,1.1.44v-.19c-.35-1.34-.75-2.68-.89-4.12l-.14-.23c-.57-.28-1.28-.38-1.92-.5-1,0-2.38-.32-3.02.47Z"/>
      <path class="st1" d="M135.18,52.56c.68-.42,1.67-.42,2.49-.67.21,0,.28-.22.25-.42-.03-.22-.11-.47-.35-.57-3.06,0-5.8.92-8.4,1.95l-.11-.03c-.07-.22.25-.28.36-.45,1.6-.86,3.38-1.56,5.23-1.95.42-.09.92-.09,1.31-.28l.22-1.21c.35-1.06,1.49-1.44,2.38-2.14l.04-.16c-.36-.55-.71-1.12-.96-1.72-.43-.77.32-1.34.39-2.01-.71-.77-1.71-1.34-2.49-2.01-5.65-3.87-11.77-6.8-17.93-9.96l-.43-.03c-2.17.74-4.41,1.41-6.22,2.72,0,.29.39-.19.61.06-.11.35-.61.45-.64.79.39-.06.82-.34,1.25-.28v.1c-.21.25-.54.45-.64.76l1.28-.35c.25.16-.11.28-.11.47l.39.07-.07.35.32.06c.11.13-.07.29-.11.38.18.16.46-.06.71.03.18.16-.1.26-.14.39.14.12.43.03.64.09.18.13-.18.19-.07.38.22.03.46-.03.64.06.04.16-.21.22-.14.36.32.1.96.06.96.44l-.82.19v.03c.53.23,1.24.23,1.78.54.21.12.61.29.57.58-.61,0-1.18-.26-1.82-.26l-.07.06c.25.13.61.13.89.23.46.22,1.14.41,1.35.86-.35.16-.78,0-1.14-.06-.67-.16-1.56-.36-2.17-.13,1.28.23,2.74.13,3.63,1.06.1.19-.11.29-.25.35-.07.06-.18.16-.11.22.18-.03.36-.32.54-.19,0,.58-.54,1.02-.54,1.56.29-.23.36-.74.79-.9.18.25-.04.61-.04.9.18.25.22-.29.47-.23.14.38-.04.93.07,1.31.25-.09.29-.45.53-.48l.04.13-.04.86c-.14,2.58,2.1,4.3,2.17,6.86.07.1.04.29.18.22.18-.35-.07-.79.14-1.12.25.33.43.74.5,1.12.14.29,0,.7.21.86.21-.03.04-.38.32-.38.11,1.05,1.21,1.69,2.1,2.01.04-.03,0-.12-.04-.16,0-.06-.14-.22.04-.26,1.57,1.03,3.45,1.73,5.48,1.92.22.03.07-.16.04-.22.07-.03.11-.06.18-.06,2.03.19,4.2.35,6.19.03.43-.1.89-.2,1.18-.42-.5-.7-1.07-1.34-1.49-2.04-.5-.16-1.11.09-1.5-.22ZM131.02,46.62h-.24v-.22c.5-.22.99-.64,1.56-.57-.21.52-1.03.42-1.32.8ZM137.11,47c-.07.17-.36,0-.5.17-.42.19-.57.57-1.1.54-.39-.06-.68-.25-.85-.57-.25-.48-.11-1.09.21-1.5.25-.22.53-.35.89-.39.35.04.75.13.93.42l-.11.1c-.43-.03-.93-.35-1.35-.03-.25.25-.54.61-.32.99.64.73,1.63-.64,2.21.28ZM130.63,41.29c.18-.12.04-.31-.04-.44-.43-.48-1.1-.39-1.56-.67.11-.12.25-.1.39-.16.07-.23-.29-.23-.32-.39.17-.16.57.12.64-.13-.17-.22-.6-.13-.64-.38.39-.17.82.09,1.21.13.25-.16-.18-.55.11-.67.25.12.32.51.6.38.11-.12-.03-.35.11-.47.85,1.63,1.75,3.55,3.49,4.56.64.29,1.64.38,2.21-.09-.36.67-1.21.99-2.03,1.18-1.32.64-2.66,1.63-4.37,1.22-.72-.36-1.46-.86-1.32-1.7.11-.39.11-.74.07-1.12-.36-.1-.36-.48-.39-.73.39-.58,1.22-.42,1.85-.51ZM127.36,54.26c-.35.03-.67-.26-.89-.55-.18-.25-.21-.61-.03-.9,1.21-1.08,2.63-2.01,3.95-2.96l-.07.19c-.78.92-1.85,1.85-2.71,2.72-.21.47-.43.99-.25,1.5Z"/>
      <path class="st1" d="M132.09,57.35c-1.32.03-2.46-.44-3.64-.76,0,.25.43.32.32.64-.53-.03-.92-.32-1.38-.51-.5-.25-.96-.25-1.46-.48-2.31-.22-4.59.1-6.62.74-.32.22-.82.31-.89.76l1.07,1.44.11.06c.89-.83,2.13-1.24,3.34-1.47,3.42-.32,6.48.64,9.46,1.53.32,0,.64.32.96.16.07-.54-.07-1.05-.07-1.62-.25-.36-.82-.29-1.2-.48Z"/>
      <path class="st1" d="M153.19,60.16c0,1.11.11,2.4.07,3.54l.11.13c2.03-.13,3.91.29,5.55,1.05.11.04.17-.06.21-.16-.18-1.37-.46-2.71-.53-4.12l-.11-.09c-1.39-.33-2.85-.58-4.37-.52-.29.07-.68-.03-.93.16Z"/>
      <path class="st1" d="M119.64,82.54c.14-.06.39-.06.43-.28l-.07-.12c-.74-.04-1.35.34-2.06.41-.18-.03-.22.13-.14.23.61.19,1.25-.1,1.85-.23Z"/>
      <path class="st1" d="M150.55,82.38c.14.28.57.32.89.41.5.07,1.03.26,1.45.1.07-.03.07-.2,0-.23-.75-.13-1.45-.41-2.2-.51-.07.06-.18.13-.14.22Z"/>
      <path class="st1" d="M118.6,84.07c0,.09-.03.19.07.25.5.26,1.17.22,1.82.16.11-.09.43-.13.35-.35l-.14-.25c-.68.06-1.46,0-2.1.19Z"/>
      <path class="st1" d="M151.94,84.42c.03-.06.17-.22.03-.29-.64-.1-1.28-.22-1.99-.19-.18.09-.22.25-.18.41.53.36,1.53.39,2.14.06Z"/>
      <path class="st1" d="M94.95,84.33c.36.51.68,1.02,1.03,1.47-.21-.51-.46-1.22-1.03-1.47Z"/>
      <path class="st1" d="M174.46,86.3c-.43.64-.65,1.66-1.57,1.86-4.63.19-9.5.28-14.09-.03-1.14-.29-2.2-.6-3.38-.76-2.81-.42-5.62.73-8.29-.17l-.18.1c.07.45-.36,1.21.28,1.43,1.71.29,3.56.22,5.3.07l.39-.84c.29-.53,1.03-.44,1.64-.53,2.1.19,3.81,1.11,5.73,1.66,2.67.06,5.26-.1,7.79-.03,1.49-.03,3.09.16,4.55-.03.92-.6,1.42-1.5,1.92-2.46.36-.74.82-1.41,1.32-2.08-.75.2-1.07,1.19-1.42,1.82Z"/>
      <path class="st1" d="M117.79,87.2c-2.21-.25-4.16.36-6.12.8-3.98.19-8,.19-11.92.07-1.07-.03-2.35.16-2.95-.77-.18-.45-.54-.99-.75-1.41.28,1.12,1.03,2.17,2.03,2.84.89.09,1.92.03,2.85.03,2.95-.06,6.22.04,9.17.1,1.5-.19,2.81-.99,4.31-1.31.92-.19,2.21-.48,3.06.03.42.25.35.77.64,1.08,1.18.16,2.46.22,3.74.19.64-.1,1.39.03,1.85-.41l-.03-1.18-.11-.07c-1.85.42-3.91.23-5.76,0Z"/>
      <path class="st0" d="M163.31,79.3c-1.03,0-1.87.84-1.87,1.87s.84,1.87,1.87,1.87,1.87-.84,1.87-1.87-.84-1.87-1.87-1.87ZM163.31,82.64c-.81,0-1.47-.66-1.47-1.47s.66-1.47,1.47-1.47,1.47.66,1.47,1.47-.66,1.47-1.47,1.47Z"/>
      <path class="st0" d="M164.07,80.74c0-.35-.28-.63-.63-.63h-.9v2.14h.4v-.87h.29l.41.87h.44l-.42-.9c.25-.09.42-.32.42-.6ZM163.44,80.97h-.5v-.47h.5c.13,0,.24.1.24.23s-.11.23-.24.23Z"/>
    </g>
    <g>
      <path class="st2" d="M138.71,58.4c-.28-.1-.57-.28-.82-.51-.18-.06-.42-.29-.64-.16.1.42.46.73.71,1.12,1.39.35,2.38,1.4,2.88,2.59.28.83,1.42.73,2.17,1.08l.07-.06c-1.18-1.34-2.46-2.43-3.91-3.57l-.46-.48Z"/>
      <path class="st2" d="M134.26,59.07c.03.32-.07.8.39.83.49.13.96.41,1.49.32-.14-.8-1.1-1.08-1.74-1.49-.18.03-.15.22-.15.35Z"/>
      <path class="st2" d="M150.87,72.58c-.36-.9-1.14-1.72-1.71-2.56l-.29-.12c-3.27-.44-6.47-1.18-9.82-1.54l-.14.13c.1.7.21,1.5.25,2.23-.04.41.28.93-.04,1.31-.11.14-.28.03-.43,0-.96-.7-2.13-1.09-3.27-1.47-2.17-.89-4.98-.67-7.37-.42l-.18.13c3.38,1.15,6.62,2.55,9.89,3.9l.53.1c1.5-1.57,3.06-3.29,4.84-4.56.32-.22.61.12.89.19,1.71.99,3.74,1.53,5.55,2.36.42.13.82.41,1.28.32Z"/>
      <path class="st2" d="M119.53,83.53c.18-.03.28-.19.5-.13.11-.03.36-.03.32-.22,0-.12-.14-.22-.32-.19-.5.22-1.14.22-1.71.38v.1c.21.32.81.06,1.21.06Z"/>
      <path class="st2" d="M150.3,83.21c-.11.35.43.25.68.38.43.07.89.26,1.35.07.03-.1.11-.19,0-.26-.61-.1-1.21-.19-1.78-.35l-.25.16Z"/>
      <path class="st2" d="M121.77,84.74c-.82.09-1.63.38-2.52.28-.53-.06-.96-.48-1.49-.48-1.39-.1-2.74-.07-4.09.16-2.28.12-4.27.89-6.37,1.43-1.42.45-3.06.39-4.59.32l-1.71-.32c-1.21-.32-2.42.09-3.48.39v.13c.18.32.39.57.78.67l4.23.16c2.95.16,5.8-.12,8.75.04,1.82-.26,3.38-1.05,5.37-.93,1.88.22,3.84.63,5.83.31.32-.22,1.03-.12,1.03-.64-.28-.76-.96-1.15-1.74-1.53Z"/>
      <path class="st2" d="M172.25,86.47c-1.96-.73-3.84.41-5.91.35-1.6-.25-3.2-.41-4.66-.96-1.61-.48-3.17-.95-4.91-1.05-1.67-.16-3.63-.52-5.13.25-.93.26-1.81-.09-2.67-.28-.74.35-1.88.9-1.82,1.76,1.92.86,4.45.54,6.48.19l1.49.03c1.39.28,2.85.48,4.2.92,1.85-.09,3.7.06,5.55.06,2.35,0,4.91-.06,7.15-.03.6,0,.96-.45,1.17-.9-.25-.19-.64-.22-.96-.35Z"/>
      <path class="st2" d="M139.13,40.4c.22-.09.22-.35.25-.58.21-2.01,1.39-3.83,1.21-5.93-1.35-1.82-2.99-3.45-5.06-4.73-.03.29.07.54-.11.8-.11.39-.57.52-.78.74.21.16.6.09.85.29.29.19.5.45.57.73.18.8-.75.92-1.14,1.38-.46.64-.71,1.4-1.75,1.43-.71-.16-1.32-.7-1.42-1.37-.07-.13-.07-.38-.32-.35-.46.29-.89.96-1.56.73-.18-.6-1.39-.96-.82-1.69.18-.16.53-.13.53-.38-.5,0-.92-.16-1.35-.32-.39-.19-.68-.52-.68-.9.15-.39.43-.74.82-.96.36-.48.36-1.19,1.07-1.47.35-.06.99-.16,1.28.16.18.19.32.39.54.48l.04-.7c.07-.38.78-.42.7-.77-1.53-.89-3.24-1.66-5.05-1.95-1.68.89-3.52,1.69-5.16,2.78l-.07.19c4.59,3.23,9,6.51,13.59,9.71,1.32.89,2.45,1.88,3.81,2.68Z"/>
    </g>
    <g>
      <path class="st3" d="M139.63,31.61c.39.36.71.83,1.21,1.15.28-.16.28-.51.32-.83.03-.58.18-1.12.21-1.69.04-1.25-1.28-1.82-1.88-2.75-2.06-1.95-4.62-3.67-7.47-4.47-1.24.22-2.28.86-3.45,1.24-.18.06-.46.13-.39.32.89.29,1.75.58,2.6.92,3.3,1.72,6.26,3.48,8.85,6.1Z"/>
      <path class="st3" d="M125.04,33.4c2.49,1.6,5.44,3.1,7.97,4.7,2.7,1.98,5.62,3.57,8.08,5.84.1.1.03.25-.11.22-.43-.13-.81-.22-1.21-.35-.36,0-.53-.45-.85-.19-.03.48.67.32,1.06.48,1,0,1.89.51,2.92.35-.25-.35-.89-.58-1.28-.83l-3.66-2.75c-4.41-3.26-9.18-6.36-13.48-9.52-2.02-1.4-4.2-3-6.33-4.28-.28.42-.35.89-.53,1.34-.07.41-.36.83-.18,1.24,2.52,1.14,5.12,2.49,7.61,3.73Z"/>
      <path class="st3" d="M130.59,31.87c-.17.2-.5.26-.6.48.03.16.14.35.32.42.6-.32.92-.79,1.24-1.37.07-.12.25-.25.43-.16.61.7.18,1.85,1.18,2.36.75.29.78-.64,1.17-.99.25-.32.89-.38.96-.83-.64-.7-1.96-.06-2.74-.6-.14-.19-.11-.45,0-.64.54-.58,1.68-.19,2.1-.89.07-.51-.61-.51-.93-.77l-1.07-.8c-.14-.06-.36-.13-.46,0-.25.74.18,1.69-.46,2.3-.14.06-.35.19-.5.06-.61-.58-.5-1.41-1.07-2.01-.64-.03-.67.63-.85,1.02-.18.35-.82.44-.82.89.04.13.18.25.32.25.78.51,1.78-.28,2.42.38.07.41-.36.64-.64.89Z"/>
      <path class="st3" d="M172.04,59.84l-.46-4.63-.11-.23c-.85-.35-1.81-.44-2.81-.41l-.15.1c-.07,1.44-.46,2.87-1.95,3.55-1.89.51-4.13.32-6.16.38-.78.06-1.49-.13-2.24-.04-.22.17-.07.46-.11.68.07.42.6.22.86.48.99.28.53,1.34.92,1.95.78.03,1.67-.03,2.49-.09,3.13-.26,6.37-.29,9.47-.64l.21-.16c.22-.25.18-.64.04-.92Z"/>
      <path class="st3" d="M136.04,57.51c-.32-.03-.71-.28-.96.03.07.35-.39.22-.5.39.64.35,1.18.77,1.89,1.05.18,0,.36-.06.43-.19-.25-.45-.5-.93-.85-1.28Z"/>
      <path class="st3" d="M139.52,57.83c.32.51.96.79,1.39,1.15,1.32,1.02,2.46,2.29,3.49,3.45l.64.06c2.42-.13,4.69-.26,7.11-.45.08-.66.08-1.53.15-2.23.18-.35.57-.35.85-.48.5-.06.28-.54.32-.8-.14-.41-.78-.16-1.14-.29-4.16-.16-8.4-.16-12.59-.44l-.22.03Z"/>
      <path class="st3" d="M153.33,65.39c-.14.8,1.06.76,1.28,1.44,0,.12.03.38-.07.44-.4-.22-.78-.5-1.21-.67-2.32-.64-4.63-1.21-6.9-1.88-4.63-1.4-9.25-2.87-13.91-4.28-2.07-.83-4.23-1.33-6.51-1.68-1-.26-2.03,0-2.99.06-1.1.29-2.6.41-2.74,1.69.5,2.07,1.18,4.18.86,6.51-.11,2.05-1.07,3.83-1.82,5.56h.11c.64-.41,1.32-.9,1.99-1.18,1.53-.93,3.3-1.38,5.02-1.94,2.06-.45,4.16-.64,6.44-.52,1.85.13,3.49.7,5.09,1.28.11-.16-.07-.38.03-.54-.14-.54-.03-1.21-.46-1.6-2.42-.41-4.8-.8-7.25-1.08l-.18-.16c0-.13.22-.1.29-.2-.04-.19-.43-.09-.53-.28l.04-.03c.78-.12,1.56-.06,2.38-.06,2.21.41,4.44.76,6.69,1.05,2.7.39,5.34.92,8.08,1.22.46.09.92.22,1.42.16,1.14.26,2.31.47,3.49.63,1.85.48,3.95.35,5.76.83l.13-.09c-.07-1.5-.07-3-.13-4.5l-.21-.16c-1.28-.44-2.56-.86-3.95-.99l-.22.06c-.14.29,0,.64,0,.93Z"/>
      <path class="st3" d="M138.53,60.77c-.53-.13-.85-.8-1.39-1.02-.15.38.11.77.35,1.05.78.32,1.56.58,2.42.77-.17-.54-.67-1.25-1.28-1.44,0,.16.07.26.11.39.04.16-.11.22-.21.25Z"/>
      <path class="st3" d="M101.78,73.12c.17-.52.25-1.02.53-1.5,1.35-2.52,4.52-3.26,7.36-3.67v-.07c-1.07-.93-2.17-1.72-3.31-2.59l-.25-.1c-2.28,1.18-4.06,2.46-5.16,4.69-.32.92-.03,1.91.36,2.71.14.16.18.52.46.52Z"/>
      <path class="st3" d="M96.44,65.3c-.47,0-1.07-.06-1.49-.03-.53.48-.71,1.18-1.03,1.79-.75,1.72-.46,3.96.43,5.52.47.61,1.11,1.34,1.64,1.79l.04-.06c-.29-.93-.39-1.88-.43-2.88.39-2.4,1.89-4.41,3.99-5.75.03-.06.25-.16.11-.28l-3.24-.1Z"/>
      <path class="st3" d="M151.41,71.34c.28.57.6,1.08.99,1.59.18.45.64.99.28,1.47-.39,0-.78-.09-1.14-.22-2.07-.86-4.23-1.69-6.3-2.65-.53-.22-1.07-.58-1.67-.61-1.89,1.34-3.45,3.13-5.09,4.73l-.25.06c-.18,0-.25-.2-.32-.32-3.41-1.47-6.83-2.94-10.39-4.18-.64-.23-1.25-.48-1.96-.48-3.24.96-5.52,2.87-8.18,4.63-1.6,1.47-3.38,2.68-5.34,3.9l-.03.13c.99.7,2.1,1.08,3.09,1.72.39.32.57.86,1.24.64,1.25-.19,2.49-.48,3.45-1.18-.21-.8-.32-1.82.57-2.34,2.78-1.37,6.01-1.97,9.25-2.29,5.69-.29,11.63.1,17,1.21,1.53.39,3.06.83,4.2,1.91.58.55,0,1.31.15,1.98.89.48,1.95.76,3.09.79.5-.22.53-.79.96-1.06,1.63-1.18,3.48-2.23,5.27-3.25v-.2c-2.88-1.94-5.87-3.96-8.61-5.93-.07-.03-.21-.16-.28-.06Z"/>
      <path class="st3" d="M108.61,78.1v-.1c-.68-.06-1.24-.32-1.92-.35l-.07.03c.46.54,1.28.54,1.99.41Z"/>
      <path class="st3" d="M99.96,77.81l-.07.03c1,.77,2.02,1.31,3.23,1.73,1.56.22,3.31.12,4.91.25.99-.22,1.88-.61,2.81-.99v-.06c-.22,0-.39.03-.53.06-3.48.86-7.26.09-10.35-1.02Z"/>
    </g>
    <g>
      <path class="st0" d="M127.36,54.26c-.18-.52.04-1.03.25-1.5.85-.86,1.92-1.79,2.71-2.72l.07-.19c-1.32.96-2.74,1.88-3.95,2.96-.18.28-.14.64.03.9.22.28.54.58.89.55Z"/>
      <path class="st0" d="M134.9,46.72c-.21-.38.07-.74.32-.99.42-.32.92,0,1.35.03l.11-.1c-.18-.28-.57-.38-.93-.42-.36.04-.64.16-.89.39-.32.41-.46,1.02-.21,1.5.18.32.46.51.85.57.53.03.68-.35,1.1-.54.14-.17.43,0,.5-.17-.58-.93-1.57.45-2.21-.28Z"/>
      <path class="st0" d="M130.78,46.62h.24c.29-.38,1.11-.28,1.32-.8-.57-.06-1.06.35-1.56.57v.22Z"/>
      <path class="st0" d="M129.17,42.53c.04.38.04.73-.07,1.12-.14.83.6,1.34,1.32,1.7,1.71.41,3.06-.58,4.37-1.22.82-.19,1.67-.51,2.03-1.18-.57.47-1.57.38-2.21.09-1.74-1.02-2.64-2.93-3.49-4.56-.14.13,0,.35-.11.47-.28.13-.35-.25-.6-.38-.29.12.14.51-.11.67-.39-.03-.82-.29-1.21-.13.04.25.46.16.64.38-.07.25-.46-.03-.64.13.04.16.39.16.32.39-.15.06-.29.03-.39.16.46.29,1.13.19,1.56.67.07.13.22.32.04.44-.64.1-1.46-.06-1.85.51.04.25.04.64.39.73ZM132.34,43.14c.18.04.25.19.21.36,0,.06-.03.09-.11.12-.14-.03-.18-.2-.21-.32,0-.06.04-.13.1-.16ZM130.06,43.46c.14-.41.18-.96.75-1.08.35.06.74-.13.96.19-.1.48-.18,1.09.14,1.5.07.25.57.42.22.64-.5.1-1.14.19-1.6-.06-.36-.25-.53-.7-.46-1.19Z"/>
      <path class="st0" d="M113.1,45.44v.1c.21.38.53.89,1.14.86.17,0,.32-.12.24-.32-.43-.22-1.06-.28-1.38-.63Z"/>
      <path class="st0" d="M113.91,44.8c-.32-.16-.53-.45-.81-.58.07.55.53,1.19,1.1,1.41.25.03.64.1.82-.13.18-.7-.78-.36-1.1-.7Z"/>
      <path class="st0" d="M176.17,83.59c-1.21.26-1.81,1.41-2.31,2.3l-.21.06-1.82-.54c-2.21-.32-4.09.64-6.29.29-2.56-.29-4.77-1.18-7.19-1.66-1.39-.42-2.92-.35-4.45-.45l-.11-.09.68-.73c.78-.13.78-.93,1.24-1.37,1.57-1.28,3.35-2.14,5.16-3.1.36-.22.96-.26,1.14-.66.07-.3-.21-.46-.35-.58-1.6-1.02-3.06-2.04-4.66-3.03l-4.62-3.36c-.07-.06-.18-.19-.03-.22,2.03.22,4.06.54,6.08.76.18,0,.53,0,.5-.23l-.04-4.94.14-.16c.32.03.85.19,1.06-.13-.03-.92-.17-1.85-.25-2.77-.04-.16.14-.28.28-.32,3.95-.25,8-.35,11.96-.8.5-.19.96-.44,1.14-.92.28-1.15-.21-2.17-.32-3.23l-.18-.86c0-.32-.25-.7.03-.96.71-.03,1.5.06,2.14-.16.25-.57-.11-1.24-.21-1.85-.39-1.4-.64-2.84-1.1-4.19-.53-.35-1.64-.16-1.49-1.05-.22-2.13-.03-4.5-1.56-6.1-1.35-1.12-2.35-2.36-3.63-3.58-1.32-.99-2.03-2.52-3.48-3.35-1.63-.76-4.02-1.47-5.8-.58-.57.55-.46,1.44-.57,2.2-.39,1.18-1.07,2.3-.99,3.61.1.32.43.38.71.64,1.92.99,3.88,1.91,5.69,3.07,1.07.63,2.28,1.02,3.7.92l.29.16c.64,1.05,1.14,2.23,1.14,3.48-.18.28-.6.32-.85.51.46,1.38.39,2.91.6,4.37.32.42.22.9.22,1.41-.33.86-.82,2.04-1.92,2.2-2.49.23-4.91.03-7.44.03l-.18-.1c-.36-2.36.04-4.75-.07-7.12.11-.89.11-1.88.07-2.78-.21-1.09-1.21-1.69-2.28-2.1-1.32-.45-2.38-1.35-3.95-1.31-1.67.51-1.42,2.2-2.17,3.29-.61.45-1.07,1.11-1.28,1.82-.43.99.43,1.69,1.03,2.27,1.42,1.08.92,3.15,2.31,4.27.43.45,1.21.58,1.46,1.12,0,.13.03.35-.18.35-3.8-.06-7.68-.31-11.49-.35l-.03-.06c.82-.39,1.74-.67,2.35-1.31.11-.1.28-.28.14-.41-.86.16-1.57.73-2.42.76.21-.22.57-.31.85-.5.36-.25.82-.45,1-.83-.46-.03-.92.25-1.39.19l.53-.54c.07-.17.36-.36.18-.52-.29.1-.61.28-.92.25-.04-.13.14-.25.21-.35.07-.12.21-.39,0-.45-.78.29-1.49.64-2.24,1.06-.22.12-.5,0-.64-.2-.39-.47-.71-.86-.99-1.43.36-.22.89-.13,1.14-.48.18-.67-.18-1.31-.54-1.82-.39-.38-1.24.1-1.49-.44.03-.45.1-.86.46-1.19.78-.54,1.53-.96,2.2-1.49.39-.8-.5-1.25-.82-1.88-.03-.14-.21-.29-.03-.39.75,0,1.39.19,2.06.32,1.39.38,2.95.35,4.38,0,.32-.1.86-.07.96-.41-.71-.96-2.13-.77-3.09-1.34l-1.82-1.28c-.46-.32-.89-.48-1.14-.93l.64-2.74c.64-3.03,2.1-6,1.43-9.32-1.17-1.92-3.02-3.54-4.94-5.01-1.32-.8-2.63-1.76-4.27-2.07-.75-.23-1.64-.04-2.41.03-2.99,1.02-5.84,2.36-8.54,3.92-.64.29-1.25.8-1.96,1.02-1.03-.38-1.63-1.37-2.73-1.63-.25,0-.43.26-.5.42-.57,1.31-.89,2.65-1,4.09-.04.13.14.26,0,.36-1.1.25-2.13.54-3.17.92-3.84,1.76-7.22,4.44-10.42,7.06-1.32,1.14-3.1,1.72-4.8,2.2l-.03.19c.28.17.6.2.96.23v.06c-.46.25-1.07.38-1.56.6l-.11.16c.36.19.93.06,1.35.19v.04c-.42.25-.96.31-1.42.47l-.04.1c.75.23,1.6.32,2.35.2-.22.28-.71.22-.85.54.96.13,1.96-.12,2.81-.45h.18c.5.71.93,1.25,1.64,1.82,5.2,4.35,10.67,8.59,14.87,13.73.54,1.08,1.46,2.01,1.6,3.23.32.57.29,1.24.5,1.85.25,2.43.07,4.91-.85,7.12-.71,1.82-2.31,3.35-3.56,4.78-.5.58-1.28.9-1.96,1.38-.99.38-2.17.29-3.31.35-1.92-.16-3.88-.38-5.52-1.15-.53-.42-1.21-.73-1.53-1.28-.36-1.18-.11-2.58.86-3.44,1.92-1.85,4.8-2.27,7.68-2.43l.21-.1c0-.39-.21-.67-.5-.89-1.6-1.28-3.38-2.4-4.98-3.74l-1.07.32c-1.67.99-3.38,2.1-4.52,3.61-.57.64-.85,1.44-1,2.27-.32,1.34.32,2.42.92,3.48,1.07,1.47,2.63,3.07,4.2,4.02.07.03.1.19-.04.22-1.49-.19-2.99-.44-4.34-.99-1.46-.7-3.06-1.3-3.6-2.81-.29-.86-.57-1.79-.46-2.81.17-1.28.92-2.4,1.71-3.42,1.07-1.27,2.84-2.17,4.13-3.23,0-.22-.32-.22-.53-.25-1.74-.13-3.7-.03-5.44-.19-.82.09-1.78-.48-2.39.12-1.14,1.69-1.85,3.58-1.6,5.75.28,1.66,1.28,3.1,2.34,4.37,2.24,2.21,4.56,4.53,7.65,5.76,1.46.41,3.27.25,4.91.34,1.35.09,2.45-.41,3.63-.74,1.24.89,3.02,1.44,3.92,2.65.25.48.85.06,1.28.13.28.13.57.39.67.67l-.1.06c-1.25.03-2.49,0-3.67.23-2.63.57-5.13,1.37-7.83,1.79-1.75.32-3.28-.32-4.94-.38-1.21-.09-2.24.25-3.27.58l-.15-.06c-.32-.42-.35-.8-.71-1.18-.5-.57-1.14-1.34-2.14-1.08-.32.16-.82,0-.96.35,0,.57.57.86,1.03,1.18,1.38,1.5,1.38,4.02,3.7,4.76l13.84.04c1.53-.48,2.92-1.47,4.7-1.27.53.09.14.7.36.99.68.29,1.6.09,2.31.38,1.21-.16,2.17.1,3.38.03.86.13,1.57-.22,2.17-.57.25-1.15.17-2.49-.22-3.61-.28-1.06-1.56-1.53-2.52-2.02-.64-.47-.53-1.3-.92-1.95.25-.89-.61-1.79.11-2.62,1.71-.73,3.6-1.27,5.55-1.56,2.28-.51,4.77-.61,7.18-.61l2.7.03c3.06.16,6.23.51,9.21,1.05,1.5.41,3.03.7,4.2,1.72.04.32.04.7.04.99.11,1.09-.47,1.98-.78,2.91-.92.48-1.92.8-2.56,1.6-.68,1.25-.71,2.75-.47,4.15.28.07.5.22.68.41,1.07.1,2.17.19,3.27.16l3.6-.1c.74-.12.14-.92.6-1.27.47-.1.96.03,1.46.03,1.39.22,2.53,1.21,3.98,1.4l10.03-.1c1.03-.03,2.13.07,3.24-.06,2.24-.83,2.17-3.03,3.56-4.56.46-.38,1.1-.6,1.14-1.25-.32-.39-.96-.28-1.46-.39ZM102.31,71.62c-.29.48-.36.99-.53,1.5-.29,0-.32-.36-.46-.52-.39-.8-.68-1.79-.36-2.71,1.1-2.23,2.88-3.51,5.16-4.69l.25.1c1.14.86,2.24,1.66,3.31,2.59v.07c-2.84.41-6.01,1.14-7.36,3.67ZM95.98,74.37c-.53-.44-1.17-1.18-1.64-1.79-.89-1.57-1.17-3.8-.43-5.52.33-.61.5-1.31,1.03-1.79.43-.03,1.03.03,1.49.03l3.24.1c.14.13-.07.22-.11.28-2.1,1.34-3.6,3.35-3.99,5.75.04.99.14,1.95.43,2.88l-.04.06ZM106.69,77.65c.68.03,1.24.29,1.92.35v.1c-.71.12-1.53.12-1.99-.41l.07-.03ZM110.85,78.83c-.92.38-1.82.77-2.81.99-1.6-.13-3.35-.04-4.91-.25-1.21-.42-2.24-.96-3.23-1.73l.07-.03c3.1,1.11,6.87,1.88,10.35,1.02.14-.03.32-.06.53-.06v.06ZM172.75,50.39l.14.23c.14,1.44.53,2.78.89,4.12v.19c-.35-.09-.75-.25-1.1-.44-1.32-.45-2.92-.7-4.41-.45l-.14-.41c-.07-1.08-.17-2.17-.32-3.26.64-.8,2.03-.47,3.02-.47.64.13,1.35.22,1.92.5ZM159.8,36.91c.15-.41.46-.73.71-1.11.32-.09.78,0,.96.19-.71.57-.71,1.4-.89,2.17-.22.13-.53.06-.71,0-.25-.29-.18-.86-.07-1.25ZM158.49,35.73c.11-.16.25-.22.43-.26.25,0,.6,0,.6.23-.36.57-.46,1.21-.46,1.88-.04.19.07.51-.25.51-.25-.06-.68,0-.75-.32.28-.64.11-1.44.43-2.04ZM167.34,45.35c.21-.23.53-.39.5-.74-.29-.03-.5.16-.78.09-1-.16-2.1-.12-3.03-.42-2.17-.76-3.73-2.3-5.87-3.06-.53-.22-1.35-.48-1.32-1.11.18-.52.36-1.06.64-1.54l.28-.1c.71.22,1.42.25,2.24.32.25.13.03.42.03.61-.28.67-1.17.6-1.81.67-.18.13.03.22.03.38.68.28,1.57.19,2.21-.16.14-.13.21-.35.5-.22.61.35,1.07.99,1.89.86.25-.39.75-.52.71-1.06-.04-.19-.25-.38-.07-.54.18-.03.18-.29.07-.42-.29-.19-.6-.28-.64-.63-.11-.07-.25-.03-.28.06-.46.47.04,1.02.14,1.46-.03.19-.25.29-.39.39-.5-.03-.78-.45-1.17-.74-.36-.61.14-1.18.11-1.82,0-.45.14-.86.56-1.15.5-.39,1.14-.1,1.5.25,1.78,1.7,3.38,3.83,5.37,5.23.61.89,1.75,1.54,1.89,2.68.25,1.33.43,2.65.57,4.05.07.06.11.2.07.29l-2.67-.03c-.25-.32-.14-.74-.28-1.09-.21-.89-.5-1.79-1-2.55ZM158.17,58.55c.75-.09,1.46.1,2.24.04,2.03-.06,4.27.13,6.16-.38,1.49-.67,1.88-2.1,1.95-3.55l.15-.1c1-.03,1.96.06,2.81.41l.11.23.46,4.63c.14.28.18.67-.04.92l-.21.16c-3.09.35-6.33.38-9.47.64-.82.06-1.7.13-2.49.09-.39-.61.07-1.66-.92-1.95-.25-.26-.79-.06-.86-.48.04-.22-.11-.51.11-.68ZM158.49,60.51l.11.09c.07,1.4.36,2.75.53,4.12-.04.1-.11.19-.21.16-1.64-.76-3.53-1.18-5.55-1.05l-.11-.13c.04-1.15-.07-2.43-.07-3.54.25-.19.64-.1.93-.16,1.53-.06,2.98.19,4.37.52ZM150.55,51.15c-.46-.58-1.78-.83-1.21-1.82.07-.41.57-.45.92-.51.96.1,2.13.26,2.92-.29.14-.19.29-.41.18-.67-.14-.28-.39-.5-.78-.5-.18.22-.04.64-.43.7-.46.13-.89,0-1.32-.03-.17-.17-.07-.39,0-.58.39-.73.36-1.66,1.04-2.27.39-.16.71.17,1.07.2,1.18.44,2.35.92,3.38,1.53.29.29.64.58.64.96-.07,3.23,0,6.49-.07,9.58-.11.42.03.92.03,1.38-.03.16.11.41-.18.41l-2.13-.1-.11-.16c0-1.18-.03-2.68-1.32-3.23-1.96-.92-1.46-3.22-2.63-4.6ZM139.74,57.8c4.2.29,8.43.29,12.59.44.35.12,1-.13,1.14.29-.04.26.18.74-.32.8-.28.13-.67.13-.85.48-.07.7-.07,1.57-.15,2.23-2.42.19-4.69.32-7.11.45l-.64-.06c-1.03-1.16-2.17-2.43-3.49-3.45-.43-.36-1.07-.64-1.39-1.15l.22-.03ZM152.26,65.26c-.5.1-.96-.12-1.39-.25-1.53-.55-3.17-.83-4.66-1.44l.14-.1c1.96-.09,3.84-.28,5.8-.48l.11.2c.07.63.07,1.43,0,2.07ZM139.17,58.89c1.46,1.14,2.74,2.23,3.91,3.57l-.07.06c-.75-.35-1.88-.25-2.17-1.08-.5-1.19-1.49-2.24-2.88-2.59-.25-.39-.61-.7-.71-1.12.22-.13.46.1.64.16.25.22.53.41.82.51l.46.48ZM138.63,60.12c.61.19,1.11.9,1.28,1.44-.86-.19-1.64-.45-2.42-.77-.25-.28-.5-.67-.35-1.05.53.22.85.89,1.39,1.02.11-.03.25-.1.21-.25-.03-.13-.11-.23-.11-.39ZM128.57,24.27c1.17-.38,2.21-1.02,3.45-1.24,2.85.8,5.41,2.52,7.47,4.47.61.93,1.92,1.5,1.88,2.75-.03.57-.18,1.11-.21,1.69-.04.32-.04.67-.32.83-.5-.32-.82-.79-1.21-1.15-2.59-2.62-5.55-4.37-8.85-6.1-.85-.35-1.71-.63-2.6-.92-.07-.19.21-.25.39-.32ZM132.55,31.17c.78.54,2.1-.1,2.74.6-.07.45-.71.51-.96.83-.39.35-.42,1.28-1.17.99-1-.51-.57-1.66-1.18-2.36-.17-.09-.36.03-.43.16-.32.58-.64,1.05-1.24,1.37-.18-.06-.29-.26-.32-.42.1-.22.43-.28.6-.48.28-.26.72-.48.64-.89-.64-.67-1.64.13-2.42-.38-.14,0-.28-.12-.32-.25,0-.45.64-.54.82-.89.18-.39.22-1.05.85-1.02.57.6.46,1.43,1.07,2.01.15.12.35,0,.5-.06.64-.61.21-1.57.46-2.3.11-.13.32-.06.46,0l1.07.8c.32.26.99.26.93.77-.43.7-1.56.32-2.1.89-.11.19-.14.45,0,.64ZM121.81,27.82c1.64-1.09,3.48-1.89,5.16-2.78,1.81.28,3.52,1.05,5.05,1.95.08.35-.63.38-.7.77l-.04.7c-.22-.09-.36-.29-.54-.48-.29-.32-.93-.22-1.28-.16-.71.28-.71.99-1.07,1.47-.39.22-.67.57-.82.96,0,.38.29.7.68.9.42.16.85.32,1.35.32,0,.25-.36.22-.53.38-.57.74.64,1.09.82,1.69.68.23,1.1-.44,1.56-.73.25-.04.25.22.32.35.11.67.71,1.21,1.42,1.37,1.03-.04,1.28-.8,1.75-1.43.39-.45,1.32-.58,1.14-1.38-.07-.28-.28-.54-.57-.73-.25-.2-.64-.13-.85-.29.21-.22.67-.35.78-.74.18-.26.07-.51.11-.8,2.07,1.28,3.71,2.91,5.06,4.73.18,2.1-1,3.92-1.21,5.93-.04.23-.04.48-.25.58-1.35-.8-2.49-1.79-3.81-2.68-4.59-3.19-9-6.48-13.59-9.71l.07-.19ZM117.61,28.43c.18-.45.25-.93.53-1.34,2.13,1.28,4.31,2.87,6.33,4.28,4.3,3.16,9.07,6.26,13.48,9.52l3.66,2.75c.39.25,1.03.48,1.28.83-1.04.16-1.93-.35-2.92-.35-.39-.16-1.1,0-1.06-.48.32-.26.49.19.85.19.39.12.78.22,1.21.35.15.03.22-.13.11-.22-2.46-2.27-5.37-3.86-8.08-5.84-2.53-1.59-5.48-3.1-7.97-4.7-2.49-1.24-5.09-2.59-7.61-3.73-.18-.41.11-.83.18-1.24ZM110.96,33.6c1.81-1.31,4.05-1.98,6.22-2.72l.43.03c6.16,3.16,12.28,6.1,17.93,9.96.79.67,1.78,1.24,2.49,2.01-.07.68-.82,1.25-.39,2.01.25.61.6,1.18.96,1.72l-.04.16c-.89.71-2.03,1.08-2.38,2.14l-.22,1.21c-.39.19-.89.19-1.31.28-1.85.39-3.63,1.08-5.23,1.95-.11.17-.43.23-.36.45l.11.03c2.6-1.02,5.34-1.95,8.4-1.95.25.1.32.34.35.57.04.2-.03.42-.25.42-.82.25-1.81.25-2.49.67.39.31,1,.06,1.5.22.43.7.99,1.34,1.49,2.04-.29.22-.75.32-1.18.42-1.99.32-4.16.16-6.19-.03-.07,0-.11.03-.18.06.04.06.18.25-.04.22-2.03-.19-3.91-.89-5.48-1.92-.18.03-.04.19-.04.26.04.03.07.12.04.16-.89-.32-1.99-.96-2.1-2.01-.28,0-.11.34-.32.38-.21-.16-.07-.57-.21-.86-.07-.38-.25-.79-.5-1.12-.21.33.04.77-.14,1.12-.15.07-.11-.13-.18-.22-.07-2.56-2.31-4.28-2.17-6.86l.04-.86-.04-.13c-.25.03-.28.39-.53.48-.1-.38.07-.93-.07-1.31-.25-.06-.29.48-.47.23,0-.29.22-.64.04-.9-.43.16-.5.67-.79.9,0-.55.54-.99.54-1.56-.18-.13-.36.16-.54.19-.07-.06.04-.16.11-.22.14-.06.35-.16.25-.35-.89-.92-2.35-.83-3.63-1.06.6-.22,1.49-.03,2.17.13.36.06.79.22,1.14.06-.21-.45-.89-.64-1.35-.86-.28-.1-.64-.1-.89-.23l.07-.06c.64,0,1.21.26,1.82.26.04-.29-.36-.46-.57-.58-.53-.32-1.24-.32-1.78-.54v-.03l.82-.19c0-.38-.64-.35-.96-.44-.07-.13.17-.2.14-.36-.18-.1-.42-.03-.64-.06-.11-.19.25-.25.07-.38-.21-.06-.5.03-.64-.09.03-.13.32-.23.14-.39-.25-.1-.53.13-.71-.03.04-.09.22-.25.11-.38l-.32-.06.07-.35-.39-.07c0-.19.35-.31.11-.47l-1.28.35c.1-.31.43-.51.64-.76v-.1c-.43-.06-.86.22-1.25.28.04-.34.53-.44.64-.79-.21-.26-.61.23-.61-.06ZM134.58,57.92c.11-.16.57-.03.5-.39.25-.32.64-.06.96-.03.35.35.61.83.85,1.28-.07.12-.25.19-.43.19-.71-.29-1.24-.71-1.89-1.05ZM136.15,60.22c-.54.1-1-.19-1.49-.32-.46-.03-.36-.51-.39-.83,0-.13-.03-.32.15-.35.64.41,1.6.7,1.74,1.49ZM117.08,56.17c-2.6-3.01-5.66-5.63-8.72-8.4-1.85-1.53-3.99-3.16-5.66-4.91l.04-.16.92-.58.21.26c.5-.16.92-.6,1.39-.74-.11.39-.43.64-.47,1.06.43.03.72-.39,1.18-.39,0,.16-.29.45,0,.55l1.06-.48c.18.12-.25.36.07.45l.78-.16v.32c.43.04.85-.12,1.25-.28.17.1-.07.28.07.38.36-.03.64-.41,1.04-.48v.38c.28.04.5-.12.74-.22.04.44-.39.89-.46,1.37-.5,1.72.18,3.55,1.53,4.69.78.7,2.18.89,3.2.51.46-.16.96-.38,1.07-.9.18-.67-.14-1.31-.53-1.82-.04,0-.18.06-.11.13.07.61.32,1.47-.35,1.79-.57.45-1.46.33-2.1.09-1.42-.6-2.2-2.17-2.14-3.64.04-1.11.57-2.33,1.75-2.77.57-.22,1.21-.54,1.96-.38.82.35,1.42,1.02,1.32,1.82,0,.41-.22.74-.43,1.02-.07.19.18.28.32.35.28.06.47-.16.71-.16.1.38-.11.76-.32,1.02-.07.16.15.26.25.33.25-.04.46-.2.64-.36.25.19.04.45.04.67.04.22-.32.54-.04.64.36-.13.5-.52.75-.77.39.26.18.9.29,1.25.07.06.25,0,.32,0,.32.61.46,1.34.54,2.11,0,.67.1,1.5-.43,2.01-.04.25.28.19.43.22h.32c0,.54-.25,1.02-.64,1.34.07.25.42.09.64.16.18-.03.25-.22.42-.26,0,.45-.42.8-.57,1.18l.46.03c.1.28.5.28.79.28.24.06.42-.32.67-.1.04.22-.35.35-.14.51.28-.07.53-.26.78-.2.11.13-.18.29.04.39.28,0,.53-.36.78-.1l.17.19-.14.13c-1.64.32-3.42.58-4.63,1.5-.53-.07-.71-.64-1.06-.89ZM119.61,59.23l-.11-.06-1.07-1.44c.07-.45.57-.54.89-.76,2.03-.64,4.31-.96,6.62-.74.5.23.96.23,1.46.48.46.2.86.48,1.38.51.11-.32-.32-.39-.32-.64,1.18.32,2.32.8,3.64.76.39.19.96.13,1.2.48,0,.57.14,1.08.07,1.62-.32.16-.64-.16-.96-.16-2.98-.89-6.04-1.85-9.46-1.53-1.21.23-2.45.64-3.34,1.47ZM121.13,67.02c.32-2.33-.36-4.43-.86-6.51.14-1.28,1.64-1.4,2.74-1.69.96-.06,1.99-.32,2.99-.06,2.27.35,4.44.86,6.51,1.68,4.66,1.41,9.28,2.88,13.91,4.28,2.27.67,4.58,1.25,6.9,1.88.43.17.81.45,1.21.67.11-.06.07-.32.07-.44-.22-.68-1.42-.64-1.28-1.44,0-.29-.14-.64,0-.93l.22-.06c1.39.13,2.66.55,3.95.99l.21.16c.07,1.5.07,3,.13,4.5l-.13.09c-1.82-.48-3.92-.34-5.76-.83-1.18-.16-2.35-.38-3.49-.63-.5.06-.96-.06-1.42-.16-2.74-.29-5.37-.83-8.08-1.22-2.24-.29-4.48-.64-6.69-1.05-.82,0-1.6-.06-2.38.06l-.04.03c.11.19.5.09.53.28-.07.1-.29.07-.29.2l.18.16c2.45.28,4.84.68,7.25,1.08.43.38.32,1.05.46,1.6-.11.16.07.38-.03.54-1.6-.57-3.24-1.15-5.09-1.28-2.28-.13-4.38.06-6.44.52-1.71.57-3.49,1.02-5.02,1.94-.68.28-1.35.77-1.99,1.18h-.11c.75-1.72,1.71-3.51,1.82-5.56ZM139.17,70.72c-.04-.73-.14-1.54-.25-2.23l.14-.13c3.35.35,6.55,1.09,9.82,1.54l.29.12c.57.83,1.35,1.66,1.71,2.56-.46.1-.85-.19-1.28-.32-1.81-.83-3.85-1.38-5.55-2.36-.28-.06-.57-.41-.89-.19-1.78,1.27-3.34,3-4.84,4.56l-.53-.1c-3.27-1.34-6.51-2.75-9.89-3.9l.18-.13c2.38-.25,5.2-.48,7.37.42,1.14.38,2.31.77,3.27,1.47.14.03.32.14.43,0,.32-.38,0-.89.04-1.31ZM94.95,84.33c.57.26.82.96,1.03,1.47-.35-.45-.67-.96-1.03-1.47ZM123.66,87.27l.03,1.18c-.46.44-1.21.32-1.85.41-1.28.03-2.56-.03-3.74-.19-.28-.32-.21-.83-.64-1.08-.85-.51-2.14-.22-3.06-.03-1.49.32-2.81,1.12-4.31,1.31-2.95-.06-6.22-.16-9.17-.1-.93,0-1.96.06-2.85-.03-1-.67-1.75-1.72-2.03-2.84.21.41.57.96.75,1.41.6.93,1.89.73,2.95.77,3.92.13,7.93.13,11.92-.07,1.96-.44,3.91-1.05,6.12-.8,1.85.23,3.91.42,5.76,0l.11.07ZM121.77,84.74c.78.38,1.46.76,1.74,1.53,0,.51-.71.42-1.03.64-1.99.32-3.95-.09-5.83-.31-1.99-.13-3.56.67-5.37.93-2.95-.16-5.8.13-8.75-.04l-4.23-.16c-.39-.1-.6-.36-.78-.67v-.13c1.07-.29,2.28-.71,3.48-.39l1.71.32c1.53.06,3.17.13,4.59-.32,2.1-.54,4.09-1.31,6.37-1.43,1.35-.23,2.7-.26,4.09-.16.53,0,.96.42,1.49.48.89.1,1.71-.19,2.52-.28ZM119.64,82.54c-.61.13-1.25.42-1.85.23-.07-.1-.03-.26.14-.23.71-.06,1.32-.44,2.06-.41l.07.12c-.04.22-.28.22-.43.28ZM120.35,83.18c.04.19-.21.19-.32.22-.21-.06-.32.09-.5.13-.39,0-1,.26-1.21-.06v-.1c.57-.16,1.21-.16,1.71-.38.18-.03.32.07.32.19ZM120.84,84.14c.08.22-.24.25-.35.35-.64.07-1.32.1-1.82-.16-.11-.06-.07-.16-.07-.25.64-.19,1.43-.13,2.1-.19l.14.25ZM146.64,77.14c-5.37-1.11-11.31-1.5-17-1.21-3.24.32-6.47.92-9.25,2.29-.89.52-.78,1.54-.57,2.34-.96.7-2.21.99-3.45,1.18-.68.23-.85-.32-1.24-.64-1-.64-2.1-1.03-3.09-1.72l.03-.13c1.96-1.22,3.74-2.43,5.34-3.9,2.67-1.76,4.94-3.67,8.18-4.63.71,0,1.32.25,1.96.48,3.56,1.24,6.97,2.72,10.39,4.18.07.12.14.32.32.32l.25-.06c1.63-1.6,3.2-3.39,5.09-4.73.61.03,1.14.39,1.67.61,2.06.95,4.23,1.79,6.3,2.65.35.13.75.22,1.14.22.35-.47-.11-1.02-.28-1.47-.39-.51-.71-1.02-.99-1.59.07-.1.21.03.28.06,2.74,1.98,5.73,3.99,8.61,5.93v.2c-1.78,1.02-3.63,2.07-5.27,3.25-.43.26-.46.83-.96,1.06-1.14-.03-2.21-.32-3.09-.79-.15-.67.43-1.44-.15-1.98-1.13-1.08-2.66-1.53-4.2-1.91ZM151.45,82.79c-.32-.1-.75-.13-.89-.41-.04-.1.07-.16.14-.22.75.09,1.45.38,2.2.51.07.03.07.2,0,.23-.43.16-.96-.03-1.45-.1ZM152.33,83.66c-.46.19-.92,0-1.35-.07-.26-.12-.79-.03-.68-.38l.25-.16c.57.16,1.17.25,1.78.35.11.06.03.16,0,.26ZM149.98,83.95c.71-.03,1.35.09,1.99.19.14.06,0,.22-.03.29-.61.32-1.6.29-2.14-.06-.04-.16,0-.32.18-.41ZM148.99,84.77c.85.19,1.74.54,2.67.28,1.49-.77,3.45-.41,5.13-.25,1.74.1,3.3.57,4.91,1.05,1.45.54,3.06.7,4.66.96,2.06.06,3.95-1.08,5.91-.35.32.13.71.16.96.35-.21.45-.57.9-1.17.9-2.24-.04-4.81.03-7.15.03-1.85,0-3.7-.16-5.55-.06-1.35-.45-2.82-.64-4.2-.92l-1.49-.03c-2.03.35-4.55.67-6.48-.19-.07-.86,1.07-1.41,1.82-1.76ZM174.56,86.56c-.5.96-.99,1.85-1.92,2.46-1.46.2-3.06,0-4.55.03-2.53-.07-5.12.09-7.79.03-1.92-.54-3.63-1.47-5.73-1.66-.6.1-1.35,0-1.64.53l-.39.84c-1.74.15-3.59.22-5.3-.07-.64-.22-.21-.99-.28-1.43l.18-.1c2.67.9,5.48-.25,8.29.17,1.18.16,2.24.47,3.38.76,4.59.32,9.46.22,14.09.03.92-.2,1.14-1.22,1.57-1.86.35-.63.67-1.62,1.42-1.82-.5.67-.96,1.34-1.32,2.08Z"/>
      <path class="st0" d="M163.29,41.23l-.07.09c0,.42.03.93.25,1.31.32.6.99,1.4,1.85,1.37v-.25c-.47-.42-.92-.99-1.25-1.53-.32-.29-.36-.83-.78-.99Z"/>
    </g>
  </g>
</svg>