<?xml version="1.0" encoding="UTF-8"?>
<svg id="Layer_1" xmlns="http://www.w3.org/2000/svg" version="1.1" viewBox="0 0 270 112">
  <!-- Generator: Adobe Illustrator 30.0.0, SVG Export Plug-In . SVG Version: 2.1.1 Build 123)  -->
  <defs>
    <style>
      .st0 {
        fill: #fff;
      }

      .st1 {
        fill: #006937;
      }

      .st2 {
        fill: #ff4713;
      }

      .st3 {
        fill: #002f87;
      }
    </style>
  </defs>
  <rect class="st0" width="270" height="112" rx="29" ry="29"/>
  <g>
    <g>
      <path class="st0" d="M189.79,35.72c-.76-1.62-2.31-2.81-4.28-3.27-.79-.18-1.28-.88-2-2.01-.5-.78-1.02-1.59-1.79-2.24-1.07-.9-2.42-1.37-3.9-1.37-1.06,0-2.19.24-3.28.71-.59.25-1.17.56-1.77.93-.23-.08-.48-.15-.74-.21-.54-.12-1.13-.18-1.75-.18s-1.3.06-2.06.18c-1.4.22-3.49,1.06-4.57,1.52h-.02c-7.43-3.06-16.01-4.93-24.85-5.44-1.4-1.05-2.75-1.85-3.93-2.33-1.64-.67-3.4-1.01-5.22-1.01-2.78,0-5.49.81-7.73,2.3-2.26-1.02-4.87-1.58-7.43-1.58-1.99,0-3.95.34-5.64.98-3.88,1.47-7,4.64-8.47,8.55-6.04,2.92-11.08,6.65-14.6,10.82-3.99,4.73-6.09,10.1-6.09,15.52,0,6.28,2.78,12.37,8.03,17.63,4.77,4.77,11.48,8.74,19.41,11.49,8.07,2.8,17.27,4.28,26.63,4.28,20.05,0,38.33-6.77,47.74-17.68.1-.1,1.44-1.89,1.44-1.89,1.3-1.72,2.31-3.43,3.07-5.2,2.35-5.46,2.39-11.48.11-16.95.27-.36.54-.75.79-1.15.56-.9,1.01-1.85,1.34-2.81.36-1.03.59-2.09.69-3.17.1-.13.2-.26.28-.39.25-.37.46-.78.63-1.19.66-1.6.64-3.36-.05-4.84ZM180.81,71.91c-.08.11-.19.26-.32.42-8.79,10.25-26.44,17.27-46.74,17.27-9.2,0-18.25-1.45-26.17-4.2-7.73-2.68-14.26-6.54-18.88-11.16-4.99-4.99-7.62-10.74-7.62-16.64,0-5.09,1.99-10.14,5.76-14.62,3.49-4.14,8.56-7.85,14.65-10.71,1.23-3.78,4.16-6.87,7.84-8.26,3.85-1.46,8.83-1.1,12.71.91,3.43-2.62,8.24-3.26,12.28-1.61,1.16.47,2.53,1.31,3.95,2.41,8.95.46,17.46,2.32,24.82,5.35-.18.08-.55.26-1.13.7,0,0,0,0,0,0,0,0,0,0,0,0-.38.29-.86.68-1.43,1.22-1.18.72-2.68,1.14-4.34,1.36,0,0,0,0,0,0-4.3.55-9.68-.29-13.3-.85-1.04-.16-1.95-.3-2.65-.38-.97-.41-2.09-1.2-3.18-2.05h0c-.5-.39-.99-.8-1.47-1.19-1.23-1.01-2.3-1.89-3.07-2.2-3.08-1.26-6.98-.29-8.76,2.09-.63-.02-2.01-.06-2.85,0-2.67-1.92-6.89-2.5-9.95-1.33-3.03,1.15-4.94,4.21-4.94,7.7,0,.06,0,.11,0,.16,0,.2.01.41.03.61-2.65.65-4.81,1.79-5.59,2.39-1.07.83-1.68,2.2-1.68,3.63,0,.41.05.82.15,1.23.09.38.25.8.44,1.24-1.31.23-2.55.59-3.29.98-1.48.77-2.3,2.15-2.3,3.79,0,.3.03.61.08.93.14.78.47,1.93.84,2.94-1.36.83-2.99,2.14-3.64,2.95-.87,1.09-1.14,2.11-1.14,2.97,0,.91.3,1.63.52,2.01.64,1.18,2.67,3.81,4.77,5.08,2.51,9.26,14.96,14.08,22.72,13.41,3.55,2.24,13.28,2.47,19.94.44.99-.3,1.43-.89,1.63-1.38,4.5.39,9.79-.43,11.88-1.48.37-.19.69-.47.94-.81,3.39.22,10.58.23,13.68-3.2,1.51-.02,3.07-.01,3.77.17h0s.02,0,.03,0c3.24.89,5.98.27,8.06-.59-.01.01-.03.02-.04.04.02-.02.04-.03.05-.04.91-.46,1.6-.69,2.5-1.33.15-.11.32-.24.49-.38,0,.01-.02.03-.04.05ZM188.55,40.02c-.14.33-.47.93-.83,1.4-.14.18-.15.26-.17.5-.08,1-.49,4.1-3.05,7.13.1.21.19.42.28.64,2.17,5.13,2.14,10.85-.06,15.97-.51,1.18-1.13,2.29-1.82,3.36-2.2,2.35-4.7,3.77-7.12,4.42-.78.19-3.42.75-5.69.13-.77-.21-1.88-.25-4.34-.23-.74.85-1.92,1.88-4.65,2.59-1.07.28-4.49.95-9.09.59-.35.55-.66,1.06-2.82,1.57-.15.04-4.6,1.22-10.12.7-.14.73-.23,1.42-3.75,2.05-.04,0-3.77.77-7.02.75-.53,0-6.88.25-10.16-1.84-5.33.51-10.74-1.76-10.83-1.8-4.05-1.55-9.96-5.28-11.5-11.38-1.31-.84-4.84-3.76-5.19-6.42,0,0,0,0,0,0,0-.12-.12-1.78,1.32-3.18.52-.51,2.21-2,3.6-2.71-.96-2.49-1.03-3.65-1.03-3.68-.27-2.66,1.7-3.6,2.29-3.87.87-.36,2.23-.71,3.58-.88-.62-1.16-1.02-2.53-.82-3.79.13-.71.57-1.76,1.48-2.4.36-.25,2.09-1.45,5.77-2.32-.33-2.19.39-4.08.41-4.14.58-1.64,1.64-2.66,1.66-2.68.96-.96,2.19-1.58,3.51-1.89,2.61-.57,5.83-.06,8.41,1.73,1.21-.09,3.33,0,3.33,0,0-.01,1.95-3.12,6.46-2.58,1.21.14,1.94.24,4.62,2.51,1.79,1.51,4.09,3.18,4.86,3.37,1.54.21,6.06,1.07,10.35,1.36,1.46.06,3.58.3,6.58-.18,2.17-.35,3.28-.98,3.63-1.19.94-.55,1.4-1.51,3.07-2.43.86-.47,3.04-1.37,4.76-1.61,1.08-.15,2.78-.44,4.47.42.81-.58,1.58-.98,2.18-1.24,1.88-.8,4.09-.93,5.73.45,1.59,1.34,2.14,4.03,4.38,4.55,1.41.33,2.7,1.16,3.33,2.5.54,1.17.5,2.53.02,3.71Z"/>
      <path class="st0" d="M134.18,60.39c-.5-.4-1.54-1.08-1.38.14.09.69-.08,1.45-.24,2.12-.18.75-.41,1.55-.84,2.21,1.33-1.06,2.97-1.62,4.5-2.31-.42-.88-1.31-1.56-2.05-2.15Z"/>
      <path class="st0" d="M144.79,58.43c-.48-.57-1-1.17-1.61-1.62-.46-.33-1.23-.58-1.04.29.29,1.31-.51,3.14-1.53,3.94.96-.25,2.04-.21,3.02-.12,1.15.11,2.41.33,3.38,1-.14-.58-.5-1.13-.82-1.63-.42-.65-.89-1.28-1.4-1.88Z"/>
      <path class="st0" d="M153.52,58.76c-.4-.61-.76-.25-.9.31-.13.46-.35.9-.61,1.3-.62,1-1.55,2-2.74,2.28.89.33,1.78.68,2.65,1.06.94.41,1.94.84,2.74,1.48.25-1.11.01-2.36-.21-3.45-.2-.97-.39-2.14-.94-2.98Z"/>
      <path class="st0" d="M114.07,60.56c-.01-.3-.06-.67-.39-.79-.71-.25-1.4.88-1.69,1.36-.48.81-.85,1.75-.89,2.7,1.32-.38,3.06-.64,4.39-.16-.6-.53-.95-1.37-1.19-2.11-.1-.32-.2-.66-.22-1Z"/>
      <path class="st0" d="M119.31,61.29c0-.39.23-1.58-.59-1.18-.54.26-.86,1-1.09,1.51-.34.75-.6,1.59-.57,2.41.47.15.93.39,1.37.62.61.32,1.22.67,1.8,1.06.38.25.83.53,1.1.91,0-.68-.43-1.43-.8-1.97-.63-.91-1.21-2.23-1.21-3.35Z"/>
      <path class="st0" d="M126.12,62.56c-.21-.28-.5-.66-.88-.65-.37.01-.49.4-.41.71.19.69-.21,1.59-.54,2.17-.39.7-1.05.98-1.58,1.53-.14.14-.25.31-.33.49-.12.28,0,.34.21.51.3.23.63.4.99.51.69.21,1.43.18,2.14.04.32-.07,1.68-.34,1.7-.73.04-.78-.08-1.57-.28-2.32-.21-.79-.52-1.59-1.01-2.26Z"/>
      <path class="st0" d="M175.11,61.84c-.54.2-.91,1.06-1.24,1.51.04.88-.09,1.79-.2,2.66.65.04,1.33-.08,1.96-.2.17-.03.33-.86.36-1,.09-.42.15-.85.14-1.27,0-.49-.24-1.99-1.03-1.69Z"/>
      <path class="st0" d="M172.18,60.76c-.46-.25-.86.56-1,.86-.46.97-1.32,1.82-2.09,2.55-.94.9-2.01,1.79-3.23,2.28,1.21.17,2.45.2,3.67.16.61-.02,1.21-.06,1.81-.14.26-.04.51-.08.76-.14.33-.08.31-.18.35-.49.19-1.23.29-2.51.19-3.75-.03-.4-.06-1.1-.47-1.32Z"/>
      <path class="st0" d="M178.93,61.74c-.38-.1-.5.47-.64.7-.29.5-.68.96-1.08,1.38-.05.58-.24,1.17-.4,1.73.75.04,1.73-.05,2.36-.52.57-.43.48-1.76.35-2.38-.07-.32-.22-.83-.58-.92Z"/>
      <path class="st0" d="M164.32,60.6c-.41-.12-.75.53-.88.81-.52,1.12-1.56,1.99-2.56,2.68-1.07.74-2.27,1.36-3.52,1.71,1.13.41,2.39.52,3.58.6.67.05,1.34.07,2.01.08.28,0,.56,0,.84,0,.23,0,.6.09.66-.15.34-1.42.3-2.92.26-4.38,0-.35.07-1.22-.38-1.36Z"/>
      <path class="st0" d="M117.59,53.07c.11-.2.12-.21-.09-.31-.1-.05-.21-.09-.32-.12-.26-.07-.54-.1-.81-.12-1.16-.05-2.66.12-3.62.83.17,1.48.82,3.06,2.04,3.99.35.27,1.23.81,1.58.26.18-.3.07-.74.1-1.07.03-.41.11-.83.22-1.23.21-.78.53-1.52.92-2.23Z"/>
      <path class="st0" d="M176.73,44.26c0-.2-.02-.4-.06-.59-.05-.25-.11-.23-.36-.21-.49.04-.97.19-1.43.35-.92.33-1.69.81-2.5,1.33-.55.35-1.12.69-1.71.96-.28.13-.57.24-.86.33.05.25.1.5.13.75.16,1.16.16,2.34.09,3.51-.05,1.02-.16,2.05-.36,3.05-.08.38-.31.91-.05,1.26.23.31.71.18,1,.05,1.06-.47,1.98-1.54,2.72-2.41.71-.83,1.27-1.74,1.75-2.73.83-1.7,1.67-3.73,1.64-5.66Z"/>
      <path class="st0" d="M178.06,43.37c.27,1.45-.11,3.01-.53,4.4-.44,1.43-1.03,2.83-1.76,4.14-.28.5-.22,1.03.45.72.51-.23.94-.65,1.32-1.06.98-1.04,1.78-2.26,2.47-3.51.78-1.4,1.45-2.89,1.84-4.46-1.15-.38-2.6-.41-3.79-.24Z"/>
      <path class="st0" d="M183.06,43.81c-.14,1.49-.92,2.97-1.64,4.26-.34.61-.73,1.18-1.09,1.77-.46.76.31.77.83.5,1.41-.73,2.47-2.21,3.29-3.52.75-1.19,1.66-2.72,1.66-4.18-.52.05-.96.53-1.37.83-.47.34-1.14.42-1.69.34Z"/>
      <path class="st0" d="M148.7,47.58c-.15-.04-.31-.07-.47-.08-.36-.02-.72.03-1.07.1-1.4.31-2.95,1.07-3.97,2.09.73.63,1.31,1.45,1.5,2.4.07.33.08.68.04,1.02-.03.25-.1.62.14.8.53.41,1.58-.5,1.93-.85.63-.63,1.11-1.4,1.47-2.21.39-.88.65-1.85.63-2.82,0-.23.04-.38-.2-.45Z"/>
      <path class="st0" d="M126.84,55.05c-1.33-.11-2.86-.47-4.07-1.05.07.99-.42,2.06-.87,2.91-.16.31-.56.72-.57,1.07-.02.45.59.4.87.33,1.72-.4,3.85-1.62,4.63-3.27Z"/>
      <path class="st0" d="M138.22,52.56c-.75.42-1.53.82-2.32,1.16.54.82.87,1.93.8,2.91-.02.33-.32.86.06,1.09.43.27.94-.21,1.23-.49,1.53-1.45,2.66-3.87,2.22-6.01-.57.55-1.3.95-1.99,1.34Z"/>
      <path class="st0" d="M133.16,54.65c-1.16.42-2.6.67-3.83.56.13.94,0,1.95-.22,2.87-.09.37-.29.68-.4,1.04-.13.42.29.51.61.42,1.01-.28,1.99-1.28,2.62-2.07.63-.8,1.15-1.78,1.22-2.81Z"/>
      <path class="st0" d="M164.19,49.32c-.98.33-2.04.63-3.08.65.59,1.14.62,2.65.51,3.91-.04.45-.29,1.01-.14,1.45.21.66,1.02.31,1.4.04,2.37-1.66,3.82-4.72,4.19-7.53-.75.75-1.89,1.15-2.87,1.48Z"/>
      <path class="st0" d="M152.45,48.16c.39,1.12.37,2.42.29,3.58-.03.47-.08.95-.2,1.41-.11.4-.24.89.28,1.06.97.31,2.34-.79,3.03-1.35.98-.8,1.92-1.85,2.19-3.12-1.91-.32-3.76-.98-5.6-1.57Z"/>
      <path class="st0" d="M118.49,42.16c1.84.3,3.35.08,4.4-1.53,0,0-1.72-.67-2.12-1.07-.4.64-1.34,1.21-2.01,1.31-.89.14-1.04-.21-.46-.75.38-.35.86-1.15.78-1.69-.29-.4-1.91-1.69-2.55-1.83-1.29,3.04-.22,5.21,1.96,5.56Z"/>
    </g>
    <g>
      <path class="st2" d="M169.8,74.17s-.02,0-.03,0h0c-8.47,6.07-21.48,9.97-36.07,9.97-25.52,0-46.22-11.9-46.22-26.58,0-7.18,4.95-13.68,12.99-18.46-.23.14-.46.27-.69.41.23-.14.46-.28.7-.41.22-.13.44-.27.67-.4.01,0,.02-.01.03-.02.36-.21.74-.41,1.11-.61-.24.13-.48.26-.72.39.38-.21.76-.42,1.15-.63-.15.08-.28.16-.43.24.15-.08.29-.16.44-.24.02-.01.04-.02.06-.03.48-.25.96-.49,1.46-.72.09-.04.18-.09.27-.13.49-.23.99-.46,1.5-.68,0-.05,0-.11,0-.16,0-3.49,1.91-6.55,4.94-7.7,3.06-1.16,7.28-.58,9.95,1.33.84-.06,2.22-.02,2.85,0,1.78-2.38,5.68-3.34,8.76-2.09.77.31,1.84,1.19,3.07,2.2.48.39.97.8,1.47,1.19h0s0,0,0,0c6.91.29,13.4,1.45,19.14,3.29h0s0,0,0,0c1.66-.21,3.16-.63,4.34-1.36.58-.54,1.05-.94,1.43-1.22,0,0,0,0,0,0-7.03-2.76-15.25-4.52-24.1-4.93h0c-.07-.05-.13-.1-.19-.15-.03-.03-.07-.05-.1-.08-.16-.12-.32-.24-.48-.36,0,0-.01,0-.02-.01-.15-.11-.31-.22-.46-.33-.01,0-.02-.02-.04-.03-.15-.1-.29-.2-.44-.29-.02-.01-.04-.03-.06-.04-.14-.09-.27-.18-.41-.26-.03-.02-.06-.03-.09-.05-.13-.08-.25-.15-.37-.22-.04-.02-.08-.04-.12-.06-.11-.06-.22-.13-.33-.18-.06-.03-.11-.06-.17-.09-.09-.04-.18-.09-.27-.13-.15-.07-.29-.13-.43-.19-.98-.4-2-.64-3.04-.75-.52-.05-1.04-.07-1.56-.06-.3,0-.59.03-.89.06-.09,0-.18.02-.27.04-.21.03-.41.06-.62.09-.1.02-.2.04-.3.06-.2.04-.4.09-.61.14-.08.02-.17.04-.26.07-.56.16-1.11.36-1.63.6-.08.04-.16.08-.25.12-.18.09-.35.18-.53.27-.09.05-.18.1-.27.15-.17.1-.33.2-.49.31-.08.05-.16.11-.24.16-.2.15-.4.3-.59.46-.02.02-.04.03-.07.05h0c-.12,0-.25,0-.37,0-3.58-2.02-8.45-2.5-12.21-1.08,0,0,0,0,0,0-.26.1-.51.21-.75.32-.02,0-.03.02-.05.02-.24.12-.48.24-.71.37-.64.36-1.24.77-1.81,1.23h0c-.56.47-1.08.98-1.55,1.54h0c-.13.16-.26.31-.38.47-.01.02-.02.03-.03.05-.11.15-.22.3-.33.46-.02.03-.04.06-.07.1-.1.14-.19.29-.28.43-.03.05-.06.1-.09.16-.08.13-.16.27-.23.4-.04.08-.08.15-.12.23-.06.12-.12.23-.18.35-.05.11-.1.22-.15.33-.04.09-.08.18-.12.27-.07.17-.13.34-.2.52-.01.03-.03.07-.04.11-.08.22-.15.44-.21.67-12.29,5.64-20.22,14.53-20.22,24.52,0,.34.01.68.03,1.02,0,.09.01.18.02.27.02.29.05.57.08.86,0,.05,0,.11.02.17.04.33.09.66.15.99.02.08.03.17.05.25.05.27.11.53.17.8.02.08.03.16.06.23.08.33.17.65.27.97.02.07.04.13.06.2.08.26.17.53.27.79.03.09.06.17.09.26.12.31.24.63.38.94.02.04.03.07.05.11.12.28.25.56.39.83.04.09.09.18.13.26.14.28.28.55.43.82.02.04.04.07.06.11.17.3.35.6.53.9.05.08.11.17.16.25.15.24.31.48.47.72.05.07.09.13.14.2.2.29.41.57.63.86.06.07.12.15.17.22.18.23.36.45.54.68.07.08.13.16.19.23.24.28.48.55.72.83.05.05.1.11.15.16.21.23.43.45.64.68.08.08.16.16.24.24.26.26.52.52.79.77.02.02.05.05.07.07.27.25.55.5.83.75.09.08.18.15.27.23.24.21.49.42.75.63.06.05.12.1.19.16.31.24.62.49.94.73.09.07.19.14.28.21.25.19.51.38.77.56.09.06.18.13.27.19.33.23.67.46,1.02.69.09.06.17.11.26.17.28.18.56.36.85.53.11.07.22.14.33.2.36.22.72.43,1.09.65.06.03.12.07.18.1.32.18.65.37.99.54.12.06.24.13.36.19.33.18.67.35,1.01.52.06.03.13.06.19.1.39.2.79.39,1.2.58.12.06.25.11.37.17.32.15.65.29.98.44l.32.14c.41.18.83.35,1.26.52.12.05.24.1.36.14.34.13.67.26,1.01.39.13.05.26.1.39.15.44.16.88.32,1.32.47.1.04.2.07.3.1.37.12.73.24,1.1.36.15.05.29.09.44.14.43.13.86.26,1.3.39.06.02.13.04.19.06.46.13.92.26,1.39.38.16.04.31.08.47.12.46.12.93.24,1.4.35.05.01.1.03.15.04.66.15,1.32.3,1.99.44.08.02.16.03.25.05.65.13,1.31.26,1.98.37.11.02.23.04.34.06.65.11,1.31.22,1.97.31.13.02.26.04.38.06.66.09,1.32.18,1.99.26.13.01.26.03.39.04.67.08,1.35.14,2.04.21.12.01.24.02.36.03.7.06,1.4.11,2.11.15.1,0,.2,0,.3.02.73.04,1.47.07,2.21.09.06,0,.12,0,.19,0,.78.02,1.57.03,2.36.03,2.29,0,4.55-.09,6.77-.27.03,0,.05,0,.07,0,.97-.08,1.93-.17,2.88-.28.15-.02.31-.04.46-.05.49-.06.98-.12,1.46-.19.06,0,.11-.01.16-.02.45-.06.9-.13,1.35-.2.09-.01.18-.03.27-.04.21-.03.42-.07.63-.11.06,0,.11-.02.17-.03.27-.05.54-.09.8-.14.38-.07.77-.15,1.14-.22.15-.03.3-.06.44-.08.4-.08.81-.17,1.21-.26.11-.02.21-.05.32-.07.38-.08.75-.17,1.11-.26.15-.03.29-.07.43-.1.29-.07.58-.15.87-.23.21-.05.42-.11.63-.16.3-.08.6-.17.9-.25.2-.06.4-.11.6-.17.32-.09.64-.19.95-.29.17-.05.35-.1.52-.16.3-.09.59-.19.88-.29.18-.06.36-.12.54-.18.26-.09.51-.18.76-.27.2-.07.41-.15.61-.22.26-.1.52-.2.78-.29.21-.08.42-.16.62-.24.26-.1.51-.21.77-.31.19-.08.39-.16.58-.24.02-.01.05-.02.07-.03.2-.09.4-.17.59-.26.21-.09.42-.18.63-.28.26-.12.5-.23.75-.35.17-.08.35-.16.52-.24.22-.11.43-.21.64-.32.21-.1.41-.2.62-.31.24-.12.47-.25.71-.37.16-.09.33-.18.49-.26.11-.06.21-.12.31-.17.08-.05.17-.1.25-.14.21-.12.42-.24.63-.36.06-.03.12-.07.17-.1.16-.09.31-.18.46-.28.17-.1.33-.2.49-.3.22-.13.43-.27.64-.41.16-.1.31-.2.47-.3.1-.06.19-.13.28-.19.08-.06.16-.11.25-.17.18-.12.36-.24.53-.37.2-.14.4-.28.59-.43.14-.1.29-.21.43-.31.19-.14.38-.29.57-.44.14-.11.28-.22.42-.33.19-.15.38-.3.56-.46.13-.11.26-.22.39-.33.18-.16.36-.31.54-.47.12-.11.24-.21.36-.32.19-.17.36-.34.55-.51.14-.13.29-.27.42-.41.01-.01.02-.02.04-.04-2.07.86-4.81,1.48-8.06.59Z"/>
      <path class="st2" d="M185.29,57.6c0-2.64-.57-5.25-1.61-7.67-.89.87-2.35,2.17-3.72,2.04-.16-.02-.41.96-.48,1.15-.11.28-.11.37-.04.66.05.22.11.45.15.68.18.91.29,1.83.31,2.75.02.98-.05,1.96-.21,2.93-.04.23-.08.45-.13.68-.05.25.09.27.25.45.2.23.36.51.48.8.31.78.39,1.69.3,2.52.61-.24,1.4-.45,2.04-.21.79.29.67,1.24.58,1.91,1.32-2.7,2.08-5.67,2.08-8.69Z"/>
      <path class="st2" d="M115.73,58.72c-1.95-.24-3.51-2.39-4.03-4.16-3.3,1.6-3.35,6.23-2.74,9.32.32-.06,1.05-.21,1.05-.21,0-.47.15-.97.22-1.16.37-1.1.99-2.24,1.82-3.06.78-.77,2.39-1.23,2.8.16.35,1.18.35,2.44,1.33,3.33.09-.5.24-.98.43-1.45.37-.88.98-1.95,1.94-2.29.84-.3,1.76.17,1.78,1.12,0,.65-.04,1.21.14,1.85.16.6.42,1.17.72,1.72.17.31.35.62.55.91.16.25.23.53.54.4.43-.18.79-.52,1.04-.9.27-.41.45-.88.52-1.37.06-.47-.03-.93.13-1.39.28-.83,1.11-.81,1.79-.48,2.06,1,2.36,3.49,2.69,5.5,1.58-.58,2.47-2.14,2.93-3.68.21-.7.35-1.43.42-2.16.06-.62.03-1.51.74-1.78.73-.27,1.6.26,2.18.66.67.46,1.28,1.01,1.85,1.6.14.14.28.29.41.43.03.03.76-.34.85-.38.57-.23,1.25-.33,1.73-.73.77-.63,1.24-1.6,1.44-2.57.15-.73-.16-1.74.49-2.27.82-.67,1.96.05,2.65.58.94.71,1.73,1.61,2.4,2.57.37.53.71,1.09,1.01,1.66.13.26.25.52.37.79.08.19.15.68.36.62,1.08-.3,2-1.13,2.64-2.03.29-.42.55-.88.68-1.38.11-.43.3-.9.69-1.15.7-.45,1.56.06,2.06.58.68.73.99,1.92,1.24,2.86.34,1.27.58,2.62.52,3.94,1.48-.31,2.87-1.04,4.09-1.91,1.13-.81,1.96-1.75,2.7-2.91-2.67-.98-5.14-2.38-7.77-3.46-2.34-.97-4.84-2.04-7.37-2.41-.31-.04-.38-.02-.64.18-.25.18-.51.35-.78.5-.38.21-.79.38-1.22.42-.59.05-1.09-.24-1.35-.77-.12-.23-.18-.49-.21-.74-.01-.12-.39-.09-.5-.1-.38-.04-.76-.07-1.14-.11-.09,0-.5-.11-.57-.06-.19.94-.61,1.84-1.11,2.65-.61,1-1.49,2.14-2.6,2.62-.79.34-1.83.13-2.02-.83-.1-.52.13-1.05.09-1.58-.03-.49-.16-1.05-.52-1.41-.2-.04-.65.23-.84.29-.22.08-.38.98-.49,1.22-.43.97-1.09,1.84-1.88,2.55-.61.55-1.31,1.05-2.07,1.37-.67.28-1.86.39-2.2-.46-.22-.55.2-1.09.36-1.59.18-.54.26-1.12.27-1.69,0-.14.06-.69-.05-.81-.27-.28-.9.6-1.07.76-.89.83-1.91,1.54-3,2.08-.84.42-1.98.97-2.94.71-.4-.11-.74-.39-.84-.81-.11-.49.13-.9.33-1.32.38-.77.7-1.64.75-2.51.03-.41-1.89-.8-2.24-.88-.05-.01-.62-.18-.65-.13-.12.18-.23.37-.33.57-.49.92-.9,1.96-.89,3.02,0,.48.03.91-.38,1.24-.36.28-.85.35-1.29.29Z"/>
      <path class="st2" d="M166.09,64.85c1.34-.66,2.5-1.8,3.43-2.94-1.21-.28-2.41-.61-3.6-.97.26,1.27.28,2.62.17,3.92Z"/>
    </g>
    <g>
      <path class="st1" d="M184.08,34.64c-1.08-.52-2.02-1.04-2.75-2.02-.41-.55-.61-1.23-1.08-1.74-1.55-1.68-4.21-.69-5.79.41.66.47,1.14,1.23,1.65,1.84.55.66,1.13,1.35,1.9,1.76.89.47,1.7-.2,2.59-.03.53.1.31.43.23.79-.06.23.34.39.41.62.26.8-2.03.09-2.33-.01-1.02-.34-1.99-.86-2.87-1.48-.8-.56-1.48-1.22-2.18-1.9-.46-.45-.95-.89-1.55-1.15-1.82-.81-4.2-.34-5.96.37-1.76.71-3.63,1.74-4.97,3.12-.7.72-1.34,1.46-2.14,2.08-.49.38-1.02.73-1.58,1-.42.21-1.1.56-1.59.49-.53-.08.04-.45.21-.55.31-.17.59-.39.87-.6.66-.5,1.45-1.07,1.89-1.79-1.37.53-2.99.59-4.44.66-1.9.1-3.82.08-5.71-.1-1.78-.18-3.54-.56-5.31-.84-2.57-.41-5.16-.74-7.76-.92-1.38-.1-2.76-.05-4.14-.15-1.01-.07-1.89-.81-2.82-1.15-1.92-.71-4.1-1.2-6.16-1.14.63,1.22,1.88,2.14,2.96,2.93.48.35.97.68,1.47,1,.24.15,1.13.54.94.89-.25.47-1.38-.15-1.66-.29-.72-.35-1.39-.79-2.03-1.26-1.32-.96-2.5-2.08-3.75-3.13-1.63-1.38-3.44-2.2-5.61-2.2-1.99,0-4.39.68-5.53,2.44-1.07,1.64-1.1,3.94-.54,5.76.14.45.32.88.55,1.28.13.21.5.69.36.96-.23.44-1.58-.89-1.77-1.08-.81,1.37-1.57,2.94-1.43,4.58.07.8.36,1.55.79,2.21.13.2.96,1.1.68,1.39-.27.27-1.07-.43-1.25-.57-.19-.16-.83-.96-1.04-.84-1.01.57-1.95,1.27-2.8,2.06-3.2,2.97-5.02,7.15-5.62,11.43-.31,2.23-.41,4.56.25,6.74.59,1.94,1.7,3.68,3.09,5.15,3.06,3.21,7.35,5.16,11.65,6.04,2.12.44,4.2.52,6.34.24,2.3-.3,4.56-.89,6.74-1.68,1.98-.72,3.94-1.6,5.69-2.78.37-.25.72-.6,1.12-.78.5-.23,1.1-.24,1.64-.23.88.02,1.76.07,2.64.08,4.35.05,8.71-.12,13.04-.5.91-.08,1.83-.17,2.73-.29,1.17-.15,2.26-.12,3.42.04,2.1.28,4.24.29,6.36.29,1.76,0,3.54-.1,5.3-.03,1.17.05,2.33.16,3.5.24,1,.07,2.03.15,3.02,0,2.1-.33,4.19-1.4,5.81-2.77.74-.63,1.43-1.38,1.81-2.28.16-.38.64-1.79-.17-1.77-.46.01-.89.31-1.3.5-.38.17-.76.32-1.15.46-.9.32-1.83.57-2.76.77-2.12.46-4.29.71-6.46.84-4.09.25-8.31.16-12.34-.61-1.98-.38-3.88-1.22-5.72-2.01-1.79-.78-3.55-1.66-5.37-2.37-2.22-.88-4.88-.89-7.17-.26-1.7.46-3.25,1.44-4.77,2.31-1.75,1-3.48,2.04-5.27,2.98-.67.35-1.36.72-2.08.96-1.28.44-2.65.45-3.94.05-1.89-.58-3.17-1.97-4.81-2.96-2.01-1.22-4.36-1.4-6.65-1.04-1.03.16-2.04.44-2.95.95-.91.5-1.53,1.28-2.31,1.96-.75.65-2.13,1.54-2.77.26-.21-.42-.12-.94-.23-1.39-.11-.42-.33-.8-.52-1.2-1-2.03-1.51-4.32-.59-6.48.44-1.04,1.05-2.02,1.71-2.94.33-.46.68-.9,1.06-1.32.19-.21.61-.71.95-.54.4.19-.82,1.97-.98,2.25-.45.83-.9,1.67-1.29,2.54-1.05,2.31.48,4.92,1.47,6.97.43-.37.87-.75,1.31-1.11.31-.25.62-.51.94-.75.2-.15.08-.3.03-.54-.05-.24-.1-.48-.15-.72-.31-1.75-.32-3.58.16-5.31.83-2.96,3.13-5.24,6.11-6.04,1.91-.51,3.79-.33,5.69.09,1.13.25,2.26.56,3.36.93,1.09.36,2.13.8,3.26,1.02,1.34.25,2.72.31,4.09.22,1.11-.07,2.28-.19,3.34-.56,1.58-.55,3.05-1.46,4.47-2.33,1.6-.97,3.15-2,4.72-3.03,1.51-1,2.96-1.95,4.8-2.25,2.35-.38,4.51.36,6.73,1.03,2.44.72,5.02,1.49,7.58,1.13,1.56-.22,2.93-.84,4.32-1.54,1.68-.85,3.34-1.76,5.01-2.62,1.34-.7,2.71-1.47,4.16-1.94,1.02-.33,2.13-.36,3.19-.34,1.29.01,2.57.13,3.84.31,1.88.26,3.86-1.42,4.58-3.04.9-2.04-1.04-3.35-2.65-4.13ZM126.79,40.47l-1.61.32c-2.53,3.22-6.07,4.83-10.01,4.27-.99-.14-1.05-.65.08-.65s2.9-.16,3.78-1.13c-4.19-.08-5.07-3.87-3.86-7.81-.49-.16-1.33.26-2.02.56-.72.32-.8-.11-.32-.62,1.26-1.33,2.69-2.04,4.08-1.4,1.4.65,2.45,2.67,3.98,3.86,2.47,1.93,4.08,1.93,5.8,1.61.85-.16,1.18.65.11.97ZM174.52,38.37c-1.69,0-3.14-.72-3.95-1.37-.81-.64-1.05-.48-1.45-.08-.4.4-1.85,1.61-2.9,1.77-1.05.16-1.53-.64-.81-1.53.52-.64,2.29-1.81,3.06-1.93.97-.16,2.1-.08,2.5.48.96,1.37,2.26,1.77,3.62,2.01.96.17.97.64-.08.64Z"/>
      <path class="st1" d="M94.31,57.03c-.68.53-1.42,1.09-1.83,1.87-.56,1.05-.11,1.96.55,2.82.69.91,1.5,1.76,2.41,2.45,0-.19-.01-.37-.01-.56,0-2.73.34-5.48,1.17-8.09-.82.39-1.57.95-2.29,1.5Z"/>
      <path class="st1" d="M104.15,45.21c.08-.07.46-.31.47-.42.01-.27.02-.54.03-.81.03-.71.08-1.3.29-1.99.29-.98.65-1.98,1.16-2.87-1.43.4-3.04.99-4.23,1.91-1.83,1.42-.19,4.1.78,5.49.52-.41.99-.88,1.49-1.31Z"/>
      <path class="st1" d="M101.68,47.35c-1.37.05-2.8.29-4.09.78-1.11.42-1.69,1.33-1.48,2.53.21,1.14.59,2.28,1.04,3.34,1.01-2.51,2.54-4.81,4.53-6.65Z"/>
      <path class="st1" d="M131.65,32.83c.26.16.38.16.68.16.22,0,.44,0,.65,0,1.48.05,2.97.22,4.44.43-.59-.1-1.19-.57-1.67-.9-.76-.52-1.49-1.08-2.19-1.68-1.01-.86-2.26-1.45-3.6-1.48-1.37-.02-2.66.56-3.71,1.42,1.24.25,2.45.59,3.61,1.1.62.27,1.22.59,1.8.93Z"/>
      <path class="st1" d="M148.98,74.13c-.28-.15-.57-.27-.87-.36-.32-.09-.61-.05-.94-.02-.58.04-1.15.08-1.73.12-1.29.08-2.58.14-3.87.19-2.45.09-4.9.16-7.35.06-.31-.01-.67-.15-.83.16-.08.15-.12.32-.1.49.05.47.44.85.8,1.11.91.66,2.15,1.07,3.24,1.32,2.32.55,4.78.53,7.13.34,1.75-.14,3.53-.38,5.2-.92.42-.14,1.6-.45,1.08-1.02-.52-.57-1.06-1.1-1.76-1.47Z"/>
      <path class="st1" d="M155.23,73.2c-.34-.04-.69-.1-1.03-.16-.27-.05-.56.04-.83.08-.6.09-1.2.17-1.8.24-.41.05-1.04,0-1.33.36-.25.31.06.66.35.79,2.25,1.06,4.97,1.12,7.39.87,1.98-.21,4.46-.62,6.02-2-2.91.07-5.87.18-8.76-.18Z"/>
      <path class="st1" d="M136.76,78.13c-.52-.19-1.05-.38-1.57-.56-1.37-.46-2.78-.88-4.21-1.02-.75-.08-1.38-.06-2.07.24-.92.41-1.85.77-2.8,1.09-1.89.65-3.84,1.16-5.81,1.53,2.66,1.06,5.84,1.06,8.65.94,1.54-.07,3.08-.22,4.6-.47.78-.13,1.56-.29,2.32-.47.52-.13,1.39-.21,1.8-.56.43-.36-.67-.63-.92-.72Z"/>
    </g>
    <g>
      <path class="st3" d="M177.87,73.57s-.03.03-.05.04c-.14.14-.28.27-.42.41-.18.17-.36.34-.55.51-.12.11-.24.22-.36.32-.18.16-.36.32-.54.47-.13.11-.26.22-.39.33-.19.15-.37.31-.56.46-.14.11-.28.22-.42.33-.19.15-.37.29-.57.44-.14.1-.28.21-.43.31-.2.14-.39.29-.59.43-.17.12-.35.24-.53.37-.08.06-.17.11-.25.17-.09.06-.19.13-.28.19-.15.1-.31.2-.47.3-.21.14-.43.27-.64.41-.16.1-.33.2-.49.3-.15.09-.3.18-.46.28-.06.03-.11.07-.17.1-.21.12-.42.24-.63.36-.08.05-.17.09-.25.14-.1.06-.2.12-.31.17-.16.09-.33.18-.49.26-.23.13-.47.25-.71.37-.2.11-.41.21-.62.31-.22.11-.43.21-.64.32-.17.08-.35.16-.52.24-.25.12-.5.24-.75.35-.21.09-.42.18-.63.28-.2.09-.39.17-.59.26-.02.01-.05.02-.07.03-.19.08-.38.16-.58.24-.25.11-.51.21-.77.31-.21.08-.41.16-.62.24-.26.1-.51.2-.78.29-.2.08-.41.15-.61.22-.25.09-.5.18-.76.27-.18.06-.36.12-.54.18-.29.1-.59.2-.88.29-.17.06-.34.11-.52.16-.31.1-.63.2-.95.29-.2.06-.4.12-.6.17-.3.09-.6.17-.9.25-.21.06-.42.11-.63.16-.29.08-.58.15-.87.23-.14.04-.29.07-.43.1-.37.09-.74.18-1.11.26-.11.02-.21.05-.32.07-.4.09-.8.18-1.21.26-.15.03-.3.06-.44.08-.38.08-.76.15-1.14.22-.27.05-.53.09-.8.14-.06,0-.11.02-.17.03-.21.04-.42.07-.63.11-.09.01-.18.03-.27.04-.45.07-.9.14-1.35.2-.06,0-.11.02-.16.02-.49.07-.97.13-1.46.19-.15.02-.3.03-.46.05-.95.11-1.91.2-2.88.28-.03,0-.05,0-.07,0-2.22.17-4.48.27-6.77.27-.79,0-1.58-.01-2.36-.03-.06,0-.12,0-.19,0-.74-.02-1.48-.05-2.21-.09-.1,0-.2-.01-.3-.02-.71-.04-1.41-.09-2.11-.15-.12,0-.24-.02-.36-.03-.68-.06-1.36-.13-2.04-.21-.13-.01-.26-.03-.39-.04-.67-.08-1.33-.17-1.99-.26-.13-.02-.25-.04-.38-.06-.66-.1-1.32-.2-1.97-.31-.11-.02-.22-.04-.34-.06-.66-.12-1.32-.24-1.98-.37-.08-.02-.16-.04-.25-.05-.67-.14-1.33-.29-1.99-.44-.05-.01-.1-.02-.15-.04-.47-.11-.94-.23-1.4-.35-.16-.04-.31-.08-.47-.12-.46-.12-.93-.25-1.39-.38-.06-.02-.13-.04-.19-.06-.44-.13-.87-.26-1.3-.39-.15-.05-.29-.09-.44-.14-.37-.12-.74-.24-1.1-.36-.1-.03-.2-.07-.3-.1-.44-.15-.88-.31-1.32-.47-.13-.05-.26-.1-.39-.15-.34-.13-.68-.26-1.01-.39-.12-.05-.24-.09-.36-.14-.42-.17-.84-.34-1.26-.52l-.32-.14c-.33-.14-.66-.29-.98-.44-.13-.06-.25-.12-.37-.17-.41-.19-.81-.38-1.2-.58-.07-.03-.13-.06-.19-.1-.34-.17-.68-.34-1.01-.52-.12-.06-.24-.13-.36-.19-.33-.18-.66-.36-.99-.54-.06-.03-.12-.07-.18-.1-.37-.21-.73-.43-1.09-.65-.11-.07-.22-.13-.33-.2-.29-.17-.57-.35-.85-.53-.09-.06-.18-.11-.26-.17-.34-.22-.68-.46-1.02-.69-.09-.06-.18-.13-.27-.19-.26-.18-.52-.37-.77-.56-.09-.07-.19-.14-.28-.21-.32-.24-.63-.49-.94-.73-.07-.05-.13-.1-.19-.16-.25-.21-.5-.41-.75-.63-.09-.08-.18-.15-.27-.23-.28-.25-.56-.5-.83-.75-.02-.02-.05-.05-.07-.07-.27-.25-.53-.51-.79-.77-.08-.08-.16-.16-.24-.24-.22-.23-.43-.45-.64-.68-.05-.05-.1-.11-.15-.16-.25-.27-.49-.55-.72-.83-.06-.08-.13-.16-.19-.23-.18-.23-.37-.45-.54-.68-.06-.07-.12-.15-.17-.22-.22-.28-.43-.57-.63-.86-.05-.07-.09-.13-.14-.2-.16-.24-.32-.47-.47-.72-.05-.08-.11-.17-.16-.25-.18-.3-.36-.6-.53-.9-.02-.04-.04-.08-.06-.11-.15-.27-.29-.54-.43-.82-.04-.09-.09-.18-.13-.26-.14-.28-.26-.55-.39-.83-.02-.04-.03-.07-.05-.11-.14-.31-.26-.63-.38-.94-.03-.09-.06-.17-.09-.26-.09-.26-.18-.52-.27-.79-.02-.07-.04-.14-.06-.2-.1-.32-.19-.64-.27-.97-.02-.08-.04-.15-.06-.23-.06-.26-.12-.53-.17-.8-.02-.08-.03-.17-.05-.25-.06-.33-.11-.66-.15-.99,0-.06-.01-.11-.02-.17-.03-.28-.06-.57-.08-.86,0-.09-.01-.18-.02-.27-.02-.34-.03-.68-.03-1.02,0-9.99,7.93-18.88,20.22-24.52.07-.23.14-.45.21-.67.01-.04.03-.08.04-.11.06-.18.13-.34.2-.52.04-.09.08-.18.12-.27.05-.11.1-.22.15-.33.06-.12.12-.23.18-.35.04-.08.08-.15.12-.23.07-.13.15-.27.23-.4.03-.05.06-.1.09-.16.09-.15.18-.29.28-.43.02-.03.04-.07.07-.1.11-.15.22-.31.33-.46.01-.01.02-.03.03-.05.12-.16.25-.32.38-.47h0c.47-.56.99-1.07,1.55-1.54h0c.56-.46,1.17-.88,1.81-1.23.23-.13.47-.25.71-.37.02,0,.03-.02.05-.02.25-.11.5-.22.75-.32,0,0,0,0,0,0,3.75-1.42,8.63-.95,12.21,1.08.12,0,.25,0,.37,0h0s.05-.04.07-.05c.19-.16.39-.31.59-.46.08-.06.16-.11.24-.16.16-.11.32-.21.49-.31.09-.05.18-.1.27-.15.17-.1.35-.19.53-.27.08-.04.16-.08.25-.12.52-.24,1.07-.44,1.63-.6.09-.02.17-.05.26-.07.2-.05.4-.1.61-.14.1-.02.2-.04.3-.06.21-.04.41-.07.62-.09.09-.01.18-.03.27-.04.29-.03.59-.05.89-.06.52-.02,1.04,0,1.56.06,1.04.1,2.06.35,3.04.75.14.06.28.12.43.19.09.04.18.09.27.13.06.03.11.06.17.09.11.06.22.12.33.18.04.02.08.04.12.06.12.07.25.15.37.22.03.02.06.03.09.05.14.08.27.17.41.26.02.01.04.02.06.04.14.09.29.19.44.29.01.01.03.02.04.03.15.11.31.22.46.33,0,0,.01,0,.02.01.16.12.32.24.48.36.03.03.07.05.1.08.06.05.12.1.19.15h0c8.85.42,17.07,2.18,24.1,4.93,0,0,0,0,0,0,.58-.44.95-.62,1.13-.7-7.37-3.03-15.87-4.88-24.82-5.35-1.42-1.1-2.79-1.93-3.95-2.41-4.04-1.65-8.85-1.01-12.28,1.61-3.88-2.01-8.85-2.37-12.71-.91-3.68,1.39-6.6,4.48-7.84,8.26-6.09,2.86-11.16,6.56-14.65,10.71-3.77,4.48-5.76,9.53-5.76,14.62,0,5.9,2.64,11.65,7.62,16.64,4.62,4.62,11.15,8.48,18.88,11.16,7.92,2.75,16.97,4.2,26.17,4.2,20.3,0,37.95-7.02,46.74-17.27.13-.16.24-.31.32-.42.01-.02.03-.04.04-.05-.17.14-.33.26-.49.38-.9.64-1.58.87-2.5,1.33Z"/>
      <path class="st3" d="M188.53,36.31c-.62-1.34-1.92-2.17-3.33-2.5-2.25-.52-2.79-3.21-4.38-4.55-1.64-1.38-3.85-1.25-5.73-.45-.6.26-1.37.66-2.18,1.24-1.69-.86-3.38-.57-4.47-.42-1.72.24-3.91,1.14-4.76,1.61-1.67.91-2.13,1.87-3.07,2.43-.36.21-1.46.84-3.63,1.19-3,.48-5.12.24-6.58.18-4.29-.29-8.81-1.15-10.35-1.36-.78-.2-3.07-1.86-4.86-3.37-2.68-2.27-3.41-2.37-4.62-2.51-4.51-.53-6.46,2.57-6.46,2.58,0,0-2.11-.09-3.33,0-2.58-1.79-5.8-2.3-8.41-1.73-1.33.31-2.55.93-3.51,1.89-.02.02-1.08,1.04-1.66,2.68-.02.06-.75,1.95-.41,4.14-3.68.86-5.4,2.06-5.77,2.32-.91.63-1.34,1.69-1.48,2.4-.2,1.26.2,2.63.82,3.79-1.35.17-2.72.52-3.58.88-.58.27-2.55,1.21-2.29,3.87,0,.02.08,1.19,1.03,3.68-1.39.7-3.08,2.2-3.6,2.71-1.44,1.39-1.33,3.06-1.32,3.18,0,0,0,0,0,0,.35,2.65,3.88,5.57,5.19,6.42,1.55,6.1,7.45,9.83,11.5,11.38.1.04,5.5,2.3,10.83,1.8,3.28,2.09,9.63,1.84,10.16,1.84,3.25.02,6.99-.75,7.02-.75,3.52-.63,3.61-1.32,3.75-2.05,5.52.52,9.97-.67,10.12-.7,2.16-.51,2.47-1.02,2.82-1.57,4.6.36,8.02-.32,9.09-.59,2.73-.7,3.92-1.74,4.65-2.59,2.46-.02,3.57.02,4.34.23,2.26.62,4.91.07,5.69-.13,2.41-.65,4.92-2.07,7.12-4.42.69-1.07,1.31-2.17,1.82-3.36,2.2-5.12,2.23-10.84.06-15.97-.09-.22-.19-.43-.28-.64,2.56-3.03,2.97-6.14,3.05-7.13.02-.24.03-.32.17-.5.37-.47.7-1.07.83-1.4.48-1.18.53-2.54-.02-3.71ZM129.95,29.38c1.34.02,2.59.62,3.6,1.48.7.6,1.43,1.16,2.19,1.68.48.33,1.08.8,1.67.9-1.47-.21-2.95-.38-4.44-.43-.22,0-.44-.01-.65,0-.3,0-.41,0-.68-.16-.58-.34-1.18-.66-1.8-.93-1.15-.51-2.37-.85-3.61-1.1,1.04-.86,2.33-1.45,3.71-1.42ZM101.87,41.03c1.19-.93,2.79-1.52,4.23-1.91-.51.89-.87,1.89-1.16,2.87-.2.69-.26,1.28-.29,1.99-.01.27-.02.54-.03.81,0,.11-.39.35-.47.42-.5.44-.97.9-1.49,1.31-.97-1.39-2.62-4.07-.78-5.49ZM95.43,63.61c0,.19,0,.37.01.56-.91-.69-1.72-1.54-2.41-2.45-.66-.86-1.11-1.77-.55-2.82.41-.78,1.15-1.34,1.83-1.87.71-.56,1.47-1.11,2.29-1.5-.83,2.61-1.17,5.36-1.17,8.09ZM96.11,50.66c-.21-1.2.37-2.11,1.48-2.53,1.29-.48,2.72-.73,4.09-.78-2,1.84-3.52,4.14-4.53,6.65-.45-1.06-.83-2.21-1.04-3.34ZM137.67,78.85c-.41.36-1.28.44-1.8.56-.77.19-1.54.34-2.32.47-1.52.25-3.06.41-4.6.47-2.82.12-5.99.12-8.65-.94,1.97-.37,3.91-.88,5.81-1.53.95-.33,1.88-.69,2.8-1.09.69-.31,1.32-.32,2.07-.24,1.44.14,2.85.56,4.21,1.02.53.18,1.05.37,1.57.56.25.09,1.35.37.92.72ZM149.67,76.62c-1.67.54-3.45.78-5.2.92-2.36.19-4.82.21-7.13-.34-1.09-.26-2.33-.67-3.24-1.32-.37-.26-.76-.64-.8-1.11-.02-.17.02-.34.1-.49.16-.31.53-.17.83-.16,2.45.1,4.91.03,7.35-.06,1.29-.05,2.58-.11,3.87-.19.58-.04,1.15-.07,1.73-.12.32-.02.62-.07.94.02.3.09.59.21.87.36.69.37,1.23.89,1.76,1.47.52.58-.65.89-1.08,1.02ZM157.98,75.38c-2.42.26-5.14.2-7.39-.87-.29-.13-.6-.48-.35-.79.29-.36.92-.32,1.33-.36.6-.07,1.2-.14,1.8-.24.27-.04.56-.14.83-.08.34.07.69.12,1.03.16,2.9.37,5.85.25,8.76.18-1.55,1.37-4.03,1.79-6.02,2ZM185.29,57.6c0,3.02-.75,5.98-2.08,8.69.09-.68.2-1.62-.58-1.91-.64-.24-1.44-.04-2.04.21.09-.84,0-1.74-.3-2.52-.12-.29-.27-.56-.48-.8-.15-.18-.3-.2-.25-.45.05-.23.09-.45.13-.68.16-.97.23-1.95.21-2.93-.02-.92-.13-1.84-.31-2.75-.04-.23-.1-.45-.15-.68-.07-.29-.07-.38.04-.66.07-.19.32-1.16.48-1.15,1.37.13,2.83-1.17,3.72-2.04,1.03,2.42,1.61,5.03,1.61,7.67ZM154.34,57.95c-.49-.52-1.36-1.04-2.06-.58-.39.25-.59.71-.69,1.15-.13.5-.38.96-.68,1.38-.64.9-1.56,1.72-2.64,2.03-.21.06-.29-.43-.36-.62-.11-.27-.24-.53-.37-.79-.3-.58-.63-1.14-1.01-1.66-.68-.96-1.47-1.86-2.4-2.57-.69-.53-1.83-1.25-2.65-.58-.65.53-.35,1.54-.49,2.27-.19.97-.66,1.93-1.44,2.57-.48.4-1.16.5-1.73.73-.09.03-.83.4-.85.38-.13-.15-.27-.29-.41-.43-.57-.58-1.18-1.14-1.85-1.6-.58-.4-1.45-.93-2.18-.66-.71.27-.68,1.16-.74,1.78-.07.73-.21,1.46-.42,2.16-.46,1.53-1.35,3.1-2.93,3.68-.34-2.01-.63-4.5-2.69-5.5-.68-.33-1.51-.35-1.79.48-.15.46-.07.92-.13,1.39-.06.49-.25.96-.52,1.37-.26.39-.61.72-1.04.9-.32.13-.38-.15-.54-.4-.2-.3-.38-.6-.55-.91-.3-.55-.56-1.12-.72-1.72-.18-.64-.13-1.2-.14-1.85-.01-.95-.94-1.42-1.78-1.12-.95.34-1.57,1.41-1.94,2.29-.19.47-.35.95-.43,1.45-.99-.89-.98-2.15-1.33-3.33-.41-1.39-2.02-.93-2.8-.16-.84.82-1.46,1.96-1.82,3.06-.06.19-.21.69-.22,1.16,0,0-.72.15-1.05.21-.62-3.09-.56-7.72,2.74-9.32.53,1.76,2.08,3.92,4.03,4.16.44.05.93,0,1.29-.29.41-.33.39-.76.38-1.24,0-1.06.4-2.1.89-3.02.1-.19.21-.39.33-.57.03-.05.6.12.65.13.35.08,2.27.47,2.24.88-.05.87-.37,1.74-.75,2.51-.2.42-.45.83-.33,1.32.1.41.44.7.84.81.96.25,2.1-.3,2.94-.71,1.09-.54,2.11-1.25,3-2.08.17-.16.79-1.04,1.07-.76.11.12.05.66.05.81,0,.57-.09,1.14-.27,1.69-.16.5-.58,1.05-.36,1.59.34.85,1.53.74,2.2.46.76-.32,1.46-.81,2.07-1.37.78-.72,1.44-1.58,1.88-2.55.11-.24.27-1.15.49-1.22.19-.07.65-.33.84-.29.36.36.49.92.52,1.41.04.53-.19,1.07-.09,1.58.19.96,1.23,1.17,2.02.83,1.11-.47,1.98-1.62,2.6-2.62.5-.81.92-1.71,1.11-2.65.07-.05.48.05.57.06.38.04.76.07,1.14.11.11.01.48-.02.5.1.03.25.1.51.21.74.26.53.76.81,1.35.77.43-.03.85-.21,1.22-.42.27-.15.53-.32.78-.5.27-.19.33-.22.64-.18,2.53.37,5.02,1.44,7.37,2.41,2.62,1.09,5.09,2.48,7.77,3.46-.74,1.17-1.56,2.1-2.7,2.91-1.22.87-2.61,1.6-4.09,1.91.06-1.32-.18-2.67-.52-3.94-.25-.93-.55-2.13-1.24-2.86ZM154.67,65.2c-.81-.64-1.81-1.07-2.74-1.48-.87-.38-1.76-.73-2.65-1.06,1.19-.27,2.12-1.28,2.74-2.28.25-.4.48-.84.61-1.3.15-.56.51-.92.9-.31.55.85.75,2.01.94,2.98.22,1.09.45,2.34.21,3.45ZM142.14,57.1c-.19-.87.59-.62,1.04-.29.61.45,1.13,1.04,1.61,1.62.5.6.97,1.22,1.4,1.88.32.5.68,1.04.82,1.63-.97-.67-2.23-.89-3.38-1-.98-.09-2.06-.14-3.02.12,1.02-.81,1.81-2.64,1.53-3.94ZM132.8,60.52c-.16-1.22.88-.53,1.38-.14.74.59,1.63,1.28,2.05,2.15-1.53.69-3.16,1.25-4.5,2.31.43-.65.66-1.45.84-2.21.16-.67.33-1.42.24-2.12ZM124.82,62.62c-.08-.3.05-.7.41-.71.39,0,.68.37.88.65.49.67.8,1.46,1.01,2.26.2.75.32,1.54.28,2.32-.02.39-1.37.66-1.7.73-.7.14-1.44.16-2.14-.04-.36-.11-.7-.28-.99-.51-.22-.17-.33-.23-.21-.51.08-.18.19-.35.33-.49.53-.55,1.19-.83,1.58-1.53.33-.59.73-1.48.54-2.17ZM120.52,64.63c.37.54.8,1.3.8,1.97-.27-.38-.72-.65-1.1-.91-.58-.39-1.18-.73-1.8-1.06-.44-.23-.89-.47-1.37-.62-.03-.83.24-1.66.57-2.41.23-.51.55-1.25,1.09-1.51.83-.4.6.79.59,1.18,0,1.11.58,2.44,1.21,3.35ZM115.48,63.67c-1.33-.48-3.07-.22-4.39.16.05-.95.41-1.89.89-2.7.29-.48.99-1.6,1.69-1.36.33.12.38.49.39.79.02.34.11.68.22,1,.24.74.6,1.58,1.19,2.11ZM116.36,57.6c-.34.55-1.23,0-1.58-.26-1.22-.92-1.87-2.51-2.04-3.99.96-.7,2.46-.88,3.62-.83.27.01.54.04.81.12.11.03.22.07.32.12.21.1.2.11.09.31-.39.7-.71,1.45-.92,2.23-.11.4-.19.81-.22,1.23-.02.33.09.78-.1,1.07ZM122.77,54c1.21.58,2.74.94,4.07,1.05-.78,1.65-2.91,2.87-4.63,3.27-.29.07-.89.12-.87-.33.01-.36.4-.76.57-1.07.45-.85.94-1.92.87-2.91ZM129.34,55.21c1.23.1,2.67-.14,3.83-.56-.07,1.04-.59,2.01-1.22,2.81-.63.79-1.61,1.8-2.62,2.07-.31.09-.74,0-.61-.42.12-.36.31-.67.4-1.04.22-.91.35-1.93.22-2.87ZM135.9,53.72c.79-.33,1.57-.73,2.32-1.16.68-.39,1.41-.79,1.99-1.34.44,2.14-.68,4.56-2.22,6.01-.29.28-.79.76-1.23.49-.38-.23-.08-.76-.06-1.09.07-.99-.27-2.09-.8-2.91ZM144.69,52.09c-.19-.95-.77-1.77-1.5-2.4,1.02-1.02,2.57-1.78,3.97-2.09.35-.08.71-.12,1.07-.1.16,0,.32.03.47.08.24.07.19.22.2.45.02.97-.24,1.94-.63,2.82-.36.81-.84,1.59-1.47,2.21-.35.35-1.4,1.26-1.93.85-.23-.18-.17-.55-.14-.8.04-.34.03-.69-.04-1.02ZM152.45,48.16c1.84.59,3.68,1.25,5.6,1.57-.27,1.27-1.21,2.33-2.19,3.12-.69.56-2.07,1.65-3.03,1.35-.52-.16-.39-.66-.28-1.06.12-.46.16-.94.2-1.41.08-1.17.1-2.46-.29-3.58ZM160.89,64.09c1-.69,2.03-1.56,2.56-2.68.13-.28.47-.93.88-.81.45.14.37,1.01.38,1.36.05,1.46.08,2.96-.26,4.38-.06.24-.43.15-.66.15-.28,0-.56,0-.84,0-.67,0-1.34-.04-2.01-.08-1.19-.08-2.45-.19-3.58-.6,1.26-.35,2.45-.97,3.52-1.71ZM162.88,55.37c-.39.27-1.19.63-1.4-.04-.14-.44.1-.99.14-1.45.1-1.25.07-2.76-.51-3.91,1.04-.03,2.1-.33,3.08-.65.98-.33,2.13-.73,2.87-1.48-.37,2.81-1.81,5.87-4.19,7.53ZM165.92,60.93c1.19.36,2.39.69,3.6.97-.93,1.15-2.09,2.29-3.43,2.94.1-1.29.09-2.64-.17-3.92ZM169.09,64.16c.77-.73,1.63-1.58,2.09-2.55.14-.3.54-1.11,1-.86.41.22.44.91.47,1.32.1,1.24,0,2.53-.19,3.75-.05.32-.03.41-.35.49-.25.06-.5.11-.76.14-.6.09-1.21.12-1.81.14-1.22.04-2.46,0-3.67-.16,1.22-.5,2.29-1.38,3.23-2.28ZM170.61,55.05c-.29.13-.77.26-1-.05-.26-.35-.03-.88.05-1.26.2-1,.31-2.03.36-3.05.07-1.16.07-2.35-.09-3.51-.04-.25-.08-.5-.13-.75.29-.09.58-.2.86-.33.59-.27,1.16-.61,1.71-.96.81-.52,1.59-1,2.5-1.33.46-.16.94-.31,1.43-.35.25-.02.31-.04.36.21.04.19.06.39.06.59.03,1.93-.81,3.95-1.64,5.66-.48.98-1.04,1.9-1.75,2.73-.74.86-1.66,1.93-2.72,2.41ZM173.87,63.34c.33-.44.7-1.3,1.24-1.51.79-.3,1.03,1.21,1.03,1.69,0,.42-.05.85-.14,1.27-.03.14-.2.97-.36,1-.64.12-1.31.24-1.96.2.11-.87.25-1.78.2-2.66ZM175.77,51.91c.73-1.31,1.32-2.71,1.76-4.14.43-1.38.8-2.94.53-4.4,1.19-.17,2.64-.14,3.79.24-.39,1.56-1.06,3.05-1.84,4.46-.69,1.24-1.49,2.47-2.47,3.51-.38.41-.81.82-1.32,1.06-.68.31-.73-.22-.45-.72ZM177.21,63.83c.4-.42.8-.88,1.08-1.38.13-.24.26-.8.64-.7.36.09.52.61.58.92.13.61.23,1.95-.35,2.38-.62.47-1.6.56-2.36.52.16-.56.35-1.15.4-1.73ZM184.45,46.82c-.82,1.31-1.88,2.79-3.29,3.52-.52.27-1.29.26-.83-.5.36-.59.75-1.16,1.09-1.77.71-1.29,1.5-2.77,1.64-4.26.56.08,1.23,0,1.69-.34.4-.3.84-.78,1.37-.83,0,1.46-.91,2.99-1.66,4.18ZM186.73,38.77c-.72,1.62-2.71,3.31-4.58,3.04-1.27-.18-2.56-.3-3.84-.31-1.06-.01-2.17.02-3.19.34-1.45.46-2.82,1.24-4.16,1.94-1.67.87-3.33,1.77-5.01,2.62-1.39.71-2.76,1.32-4.32,1.54-2.57.36-5.15-.4-7.58-1.13-2.22-.66-4.38-1.4-6.73-1.03-1.84.3-3.29,1.25-4.8,2.25-1.56,1.03-3.12,2.06-4.72,3.03-1.42.86-2.89,1.78-4.47,2.33-1.05.37-2.23.48-3.34.56-1.36.09-2.74.03-4.09-.22-1.13-.21-2.17-.65-3.26-1.02-1.1-.37-2.23-.68-3.36-.93-1.91-.42-3.78-.6-5.69-.09-2.98.8-5.27,3.07-6.11,6.04-.48,1.72-.48,3.55-.16,5.31.04.24.09.48.15.72.05.23.17.39-.03.54-.32.24-.63.49-.94.75-.44.36-.88.74-1.31,1.11-.99-2.06-2.52-4.66-1.47-6.97.39-.86.84-1.7,1.29-2.54.15-.28,1.38-2.06.98-2.25-.34-.17-.76.34-.95.54-.38.41-.73.86-1.06,1.32-.66.92-1.27,1.89-1.71,2.94-.92,2.16-.41,4.45.59,6.48.19.39.42.77.52,1.2.12.45.02.97.23,1.39.65,1.28,2.03.39,2.77-.26.78-.68,1.39-1.45,2.31-1.96.91-.51,1.93-.79,2.95-.95,2.29-.35,4.64-.18,6.65,1.04,1.64,1,2.93,2.39,4.81,2.96,1.29.39,2.67.39,3.94-.05.72-.25,1.41-.61,2.08-.96,1.78-.94,3.52-1.98,5.27-2.98,1.52-.87,3.07-1.85,4.77-2.31,2.29-.62,4.95-.61,7.17.26,1.82.71,3.58,1.6,5.37,2.37,1.84.79,3.74,1.64,5.72,2.01,4.03.77,8.25.85,12.34.61,2.17-.13,4.33-.37,6.46-.84.93-.2,1.86-.45,2.76-.77.39-.14.78-.29,1.15-.46.41-.19.84-.48,1.3-.5.81-.03.33,1.39.17,1.77-.39.9-1.08,1.65-1.81,2.28-1.61,1.38-3.7,2.44-5.81,2.77-.99.15-2.03.07-3.02,0-1.17-.08-2.33-.19-3.5-.24-1.76-.07-3.54.03-5.3.03-2.12,0-4.26-.01-6.36-.29-1.16-.15-2.25-.19-3.42-.04-.91.12-1.82.21-2.73.29-4.33.38-8.69.55-13.04.5-.88,0-1.76-.06-2.64-.08-.54-.01-1.14,0-1.64.23-.4.18-.75.53-1.12.78-1.75,1.18-3.71,2.06-5.69,2.78-2.18.79-4.44,1.38-6.74,1.68-2.14.28-4.22.2-6.34-.24-4.3-.88-8.59-2.83-11.65-6.04-1.39-1.46-2.5-3.21-3.09-5.15-.66-2.18-.56-4.51-.25-6.74.6-4.28,2.42-8.46,5.62-11.43.85-.79,1.79-1.48,2.8-2.06.21-.12.85.68,1.04.84.18.15.98.84,1.25.57.28-.29-.55-1.19-.68-1.39-.44-.66-.73-1.42-.79-2.21-.13-1.64.62-3.21,1.43-4.58.19.19,1.54,1.52,1.77,1.08.14-.28-.23-.75-.36-.96-.24-.4-.42-.84-.55-1.28-.55-1.83-.53-4.12.54-5.76,1.14-1.75,3.54-2.44,5.53-2.44,2.17,0,3.98.82,5.61,2.2,1.24,1.05,2.43,2.17,3.75,3.13.64.47,1.31.91,2.03,1.26.28.14,1.4.76,1.66.29.19-.36-.7-.75-.94-.89-.5-.31-.99-.65-1.47-1-1.08-.79-2.34-1.72-2.96-2.93,2.06-.06,4.24.43,6.16,1.14.93.35,1.82,1.09,2.82,1.15,1.38.09,2.76.05,4.14.15,2.6.18,5.19.51,7.76.92,1.77.28,3.53.67,5.31.84,1.9.19,3.81.2,5.71.1,1.45-.07,3.07-.13,4.44-.66-.43.72-1.22,1.29-1.89,1.79-.28.21-.57.42-.87.6-.17.1-.74.47-.21.55.48.07,1.17-.29,1.59-.49.56-.27,1.09-.62,1.58-1,.8-.62,1.44-1.36,2.14-2.08,1.33-1.38,3.21-2.41,4.97-3.12,1.76-.71,4.14-1.19,5.96-.37.6.27,1.09.7,1.55,1.15.69.68,1.37,1.34,2.18,1.9.88.62,1.85,1.13,2.87,1.48.3.1,2.6.81,2.33.01-.07-.23-.47-.39-.41-.62.09-.36.31-.69-.23-.79-.9-.17-1.71.5-2.59.03-.77-.41-1.35-1.1-1.9-1.76-.51-.61-.99-1.37-1.65-1.84,1.58-1.1,4.24-2.1,5.79-.41.47.51.67,1.19,1.08,1.74.73.99,1.67,1.51,2.75,2.02,1.61.77,3.55,2.09,2.65,4.13Z"/>
      <path class="st3" d="M178.83,82.53c0-.82-.63-1.03-1.33-1.03h-1.63v3.88h.56v-1.79h.72l.99,1.79h.64l-.98-1.79c.52-.02,1.03-.3,1.03-1.06ZM177.02,83.03h-.6v-.97h.97c.46,0,.88.03.88.53,0,.53-.72.44-1.25.44Z"/>
      <path class="st3" d="M177.2,79.97c-1.93,0-3.46,1.53-3.46,3.45s1.53,3.45,3.46,3.45,3.46-1.53,3.46-3.45-1.53-3.45-3.46-3.45ZM177.2,86.31c-1.58,0-2.89-1.26-2.89-2.89s1.31-2.89,2.89-2.89,2.9,1.26,2.9,2.89-1.32,2.89-2.9,2.89Z"/>
      <path class="st3" d="M102.72,37.83c-.39.2-.77.42-1.15.63.24-.13.48-.26.72-.39.15-.08.28-.16.43-.24Z"/>
      <path class="st3" d="M100.45,39.27c.78-.61,2.94-1.74,5.59-2.39-.02-.21-.03-.41-.03-.61-.51.22-1.01.44-1.5.68-.09.04-.18.09-.27.13-.49.24-.98.47-1.46.72-.02.01-.04.02-.06.03-.15.08-.29.16-.44.24-.37.2-.75.4-1.11.61-.01,0-.02.01-.03.02-.23.13-.45.26-.67.4-.23.14-.47.27-.7.41.22-.14.46-.27.69-.41-8.03,4.78-12.99,11.29-12.99,18.46,0,14.68,20.69,26.58,46.22,26.58,14.59,0,27.61-3.89,36.07-9.97-.7-.18-2.27-.19-3.77-.17-3.09,3.43-10.29,3.42-13.68,3.2-.25.34-.57.62-.94.81-2.09,1.04-7.38,1.87-11.88,1.48-.2.49-.64,1.07-1.63,1.38-6.66,2.03-16.39,1.79-19.94-.44-7.75.67-20.2-4.15-22.72-13.41-2.1-1.27-4.13-3.9-4.77-5.08-.21-.39-.52-1.1-.52-2.01,0-.85.27-1.88,1.14-2.97.65-.81,2.28-2.12,3.64-2.95-.37-1.02-.7-2.17-.84-2.94-.06-.32-.08-.63-.08-.93,0-1.64.82-3.02,2.3-3.79.74-.39,1.97-.75,3.29-.98-.19-.44-.35-.86-.44-1.24-.1-.41-.15-.82-.15-1.23,0-1.43.61-2.8,1.68-3.63Z"/>
      <path class="st3" d="M101.15,38.69s.02-.01.03-.02c.13-.07.26-.14.39-.22-.14.08-.28.15-.42.23Z"/>
      <path class="st3" d="M137.05,31.04c1.09.86,2.21,1.65,3.18,2.05.7.08,1.6.22,2.65.38,3.62.57,9,1.4,13.3.85h0c-5.73-1.84-12.23-3-19.14-3.29h0Z"/>
      <path class="st3" d="M126.68,39.5c-1.72.32-3.33.32-5.8-1.61-1.53-1.19-2.58-3.22-3.98-3.86-1.39-.64-2.82.07-4.08,1.4-.48.51-.4.94.32.62.68-.3,1.53-.72,2.02-.56-1.21,3.95-.32,7.73,3.86,7.81-.89.97-2.66,1.13-3.78,1.13s-1.07.51-.08.65c3.95.56,7.49-1.05,10.01-4.27l1.61-.32c1.07-.32.73-1.12-.11-.97ZM118.49,42.16c-2.18-.35-3.25-2.52-1.96-5.56.64.13,2.25,1.42,2.55,1.83.08.54-.4,1.34-.78,1.69-.59.54-.44.89.46.75.67-.11,1.61-.67,2.01-1.31.4.4,2.12,1.07,2.12,1.07-1.05,1.61-2.56,1.83-4.4,1.53Z"/>
      <path class="st3" d="M174.6,37.73c-1.37-.24-2.66-.64-3.62-2.01-.4-.57-1.53-.64-2.5-.48-.77.13-2.54,1.3-3.06,1.93-.73.89-.24,1.69.81,1.53,1.04-.16,2.5-1.37,2.9-1.77.4-.4.64-.56,1.45.08.8.65,2.25,1.37,3.95,1.37,1.05,0,1.04-.47.08-.64Z"/>
    </g>
  </g>
</svg>