<?xml version="1.0" encoding="UTF-8"?>
<svg id="Layer_1" xmlns="http://www.w3.org/2000/svg" version="1.1" viewBox="0 0 270 112">
  <!-- Generator: Adobe Illustrator 30.0.0, SVG Export Plug-In . SVG Version: 2.1.1 Build 123)  -->
  <defs>
    <style>
      .st0 {
        fill: #fff;
      }

      .st1 {
        fill: #7f2346;
      }

      .st2 {
        fill: #ffc629;
      }
    </style>
  </defs>
  <rect class="st0" width="270" height="112" rx="29" ry="29"/>
  <g>
    <path class="st2" d="M154.68,84.77l-7.08-8.26,2.49-2.5.2.2s4.07,3.93,7.81,5.69c-2.15-1.99-6.73-6.22-8.34-7.81-.35.36-3.01,3.05-3.01,3.05l-.21.21s-3.25-3.36-3.44-3.56c-.1.01-.29.05-.5.26-.4.4-.44.61-.44.67.08.09,3.3,3.58,3.3,3.58,0,0-3.15,2.77-3.57,3.14,2.97,2.61,5.5,6.39,6.78,8.48-1.12-3.73-4.34-8.21-4.38-8.27l-.15-.21,2.32-2.08,7.49,7.89s-.55.32-.79.45c.77.28,2.13.79,3.05,1.22-.36-.76-.88-1.93-1.2-2.92-.07.15-.34.75-.34.75"/>
    <path class="st2" d="M123.22,51.62c-.17.16-.19.29-.2.35.14.15,13.18,14.27,15.24,16.5.33-.29.71-.5,1.05-.66-1.67-1.74-15.51-16.14-15.73-16.37-.12.03-.27.09-.36.17"/>
    <path class="st2" d="M115.31,42.86c-.46-.46-.76-.45-.8-.41-.05.05-.03.34.35.72l2.45,2.6c-.02-.29-.02-.57-.02-.84l-1.98-2.08Z"/>
    <path class="st2" d="M142,35.9c-.91,0-.91.1-.91.1,0-2.72-.68-4.42-1.5-5.47-.1.29-.2.59-.29.89.1.03.2.08.3.15.57.39,1.03,1.27,1.2,2.3.26,1.58-.22,2.96-1.08,3.15-.27.06-.56,0-.83-.19-.57-.39-1.03-1.27-1.2-2.3-.01-.08-.02-.17-.03-.25-.63-.1-.89-.61-.89-1.69h.06s.12.31.48.31c.23,0,.33-.61.46-1.32.12-.67.26-1.51.57-2.19-.69-.43-1.3-.53-1.51-.53-.58,0-1.25.38-1.25,1.34s.38,1.58.38,1.58c-.77-.67-1.29-1.53-2.97-1.53-2.78,0-4.21,2.39-4.21,4.69,0,2.16.53,4.5,2.78,5.37,0,0-2.73-.05-2.73,3.26s3.64,5.99,5.85,5.99,2.25.1,2.25.1c0,1.63-.53,2.06-.53,2.06.18,0,.35-.04.52-.1l.98-2.19c0,1.04-.48,1.75-.8,2.1.24-.12.47-.29.69-.49l.76-1.82c0,.65-.28,1.21-.51,1.58.73-.76,1.23-1.72,1.23-1.72,2.49-1.72,5.03-5.51,5.03-9.44,0-3.07-1.39-3.74-2.3-3.74M137.74,38.58c-.17.11-.38.23-.38.59,0,.49.66.41,1.04.41,2.41,0,2.26-1.28,2.26-1.28,0-.55-.53-.64-.87-.73-.36-.1-.71-.13-.91-.13-.34,0-.19-.19-.04-.19s.2-.01.82-.01,1.62.04,1.62.92-.2,1.2-.2,1.2c.8,0,1.27-1.7,1.27-1.7,0,2.38-1.19,3.44-2.11,3.44-.4,0-.73-.48-.73-.67s-.2-.13-.2-.01-.03.35-.03.67-.44.77-1.11.77c-2.28,0-3.09-1.4-3.09-1.4.26.17,1.37.26,1.81.26s.91-.05.91-.05c0,0-1.19-.42-1.19-1.28s.77-1.14,1.04-1.19c.48-.08.26.29.1.4M137.34,37.65v.19c-.17,0-.24.13-.37.37-.19.36-.44.86-1.34.86v-.19c.28,0,.45-.24.66-.52.25-.33.52-.71,1.04-.71M130.7,32.53c-.41,0-.79.09-.9.21,0,0-.01,0-.02-.02,0,0,0,.01-.02.02l-.05-.04c.45-.61.84-1.04,1.77-1.04s2.62,1.64,3.4,2.5c.25.27.45.37.61.29.25-.14.29-.71.23-.91l.05-.02c.04.06.96,1.45.48,2.16-.12.18-.27.3-.44.37.15.44.23.87.23,1.25,0,.55-.16,1-.47,1.25-.22.17-.5.23-.81.17-.64-.13-1.36-.77-1.87-1.68-.75-1.34-.84-2.79-.21-3.36-.57-.62-1.24-1.15-1.98-1.15M130.93,43.93l-.17.08s-.64-.83-.64-1.74c0-.52.17-.91.5-1.15.75-.53,2.08-.15,2.62.04v.19s-.13,0-.13,0c-.42,0-1.42-.03-1.93.59-.35.43-.43,1.09-.24,1.98M140.89,46.73c-.68,1.16-2.64,2.12-3.47,2.12s-1.38-.32-1.38-.32c-.64-.3-.29-.7-.02-.61.61.19.59.22,1.27.22,1.56,0,2.94-1.21,3.27-1.59.2-.24.59-.24.34.19M143.25,41.34c-.19-.43-.7-.99-.72-.46-.07,2.2-2.54,6.32-5.51,6.32-1.82,0-3.45-1.53-4.98-3.64-1.53-2.11.19-1.82.82-1.58.62.24,2.25.72,4.65.72s4.31-1.97,4.74-2.92c.43-.96.5-.74.79-.26.43.72.22,1.82.22,1.82"/>
    <path class="st0" d="M140.42,33.93c-.15-.92-.56-1.72-1.04-2.05-.06-.04-.13-.07-.19-.1-.02.09-.05.18-.07.26-.3,1.11-.56,2.08-1.08,2.23,0,.06.02.13.03.19.11.67.36,1.28.67,1.68-.04-.1-.06-.2-.08-.32-.05-.33.03-.76.13-.98l.41.55.24-.65c.14.17.36.53.4.83.07.44,0,.85-.18,1.07.5-.13.83-.94.83-1.93,0-.25-.02-.51-.06-.78"/>
    <path class="st0" d="M135.33,38.25c.05-.04.09-.09.13-.15-.26.03-.61-.22-.85-.65-.16-.29-.23-.73-.23-.98l.56.34-.02-.72c.18.1.5.35.64.61.02.03.03.06.04.09-.04-.22-.1-.46-.18-.7-.52-.04-1.05-.46-1.35-.73l-.59-.7c-.17-.22-.36-.46-.56-.7-.48.44-.36,1.74.29,2.88.45.8,1.09,1.39,1.61,1.49.2.04.37,0,.5-.1"/>
    <path class="st0" d="M132.99,43.61c.42.53.85,1.18,1.44,1.72v-2.18c-.61-.12-1.06-.24-1.17-.3-.29-.14-1.17-.38-.26.77"/>
    <path class="st0" d="M139.85,42.96c-.63.28-1.39.53-2.04.55v2.89c.85-.13,1.56-.7,2.12-1.36h-.08v-2.09Z"/>
    <path class="st0" d="M134.91,45.71c.6.42,1.37.71,2.42.72v-2.93c-.83-.03-1.7-.14-2.42-.27v2.47Z"/>
    <path class="st0" d="M140.93,42.37c-.12.09-.33.22-.6.36v1.8c.58-.84.92-1.68.96-1.85.15-.6.07-.65-.36-.31"/>
    <path class="st1" d="M133.11,41.36h.13s0-.19,0-.19c-.54-.19-1.87-.57-2.62-.04-.33.24-.5.62-.5,1.15,0,.91.62,1.7.64,1.74l.17-.08c-.19-.88-.11-1.55.24-1.98.52-.63,1.51-.6,1.93-.59"/>
    <path class="st1" d="M150.1,74.82c.99.94,5.47,5.02,9.25,6.2l1.22.38-.94-.87c-.08-.07-7.85-7.23-9.67-9.05l-.2-.2s-2.84,2.89-3.21,3.25c-.21-.22-1.28-1.32-2.12-2.2.09-.27.15-.58.15-.94,0-2.25,1.1-9.53,1.1-9.53.72,5.65,5.51,8.86,7.09,8.86s2.59-3.4,3.07-5.17c.48-1.77,2.35-2.49,2.35-7.52s-2.59-6.04-2.59-6.04c.19,2.73-2.3,2.92-3.64,7.9-.41,1.54-.67,3.74-.67,3.74-.24-.53-.82-1.48-.82-5.32s-4.65-2.97-4.65-2.97v-3.74c0-7.76-1.58-6.42-1.58-7.19s1.1-1.53,1.1-4.5c0-5.22-3.5-5.22-3.5-5.22-.12-2.04-.91-3.77-1.81-5.11.29-.43.65-.71,1.14-.71h.04l-.02-.04s-.31-.74-1.2-.74c-.36,0-.65.1-.9.27-1.03-1.2-1.95-1.87-1.95-1.87,0-4.84-4.74-5.51-4.74-5.51,0,0,.48.86.48,2.16s-1.1,2.25-1.1,2.25c-1.82-.1-4.02,1.39-4.02,1.39-1.2-.58-.96-4.07-.96-4.07-1.44.91-2.83,2.73-2.83,5.36s1.2,4.6,1.2,4.6c-.14,4.07,2.11,8,2.11,8-1.29-1.53-4.93-4.79-5.85-5.6-.91-.81-1.92-1.97-2.78.67-.64,1.97-1.13,4.38-1.26,7.16h0s-.06.66-.06.66c0,.03-.02.24-.04.56l-1.6-1.68c-.7-.7-1.32-.71-1.62-.41-.28.28-.3.89.35,1.53,0,0,2.69,2.86,2.94,3.13.02.14.05.28.08.41.01.05.03.09.04.14,0,.03,0,.06,0,.1.33,3.63,2.4,5.8,4.41,6.28.64.15,1.19.05,1.64-.21l3.95,4.28c-.05.33-.08.53-.08.53-.96-.62-2.87-1.49-7.04-2.78-4.17-1.29-6.37-3.45-6.37-3.45l1.29-.38c-1.34-.05-5.89-6.04-5.89-6.04.38,7.33,2.44,9.01,2.44,9.01l.14-1.34c.91.96,6.23,3.69,9.34,4.79,3.12,1.1,5.32,3.45,5.32,3.45-.72,1.05-2.87,5.32-3.74,4.12-2-2.78-.48-8.48-4.55-6.08-3.92,2.3-6.95,5.7-7.19,8.62-.1,1.29.96,2.73.96,2.73-.14-1.29,3.11-2.64,4.79-4.46.64-.7,1.58-1.77,1.72,0,.15,1.77.77,6.23,3.4,5.94,2.88-.31,4.5-1.68,8.96-4.65,1.21-.81,2.53-1.5,3.8-2.1l3.02,3.27c-.29.39-.49.87-.49,1.51v.07l.03-.03c.03,2.14,2.93,3.75,3.98,3.75.32,0,.75-.05,1.18-.18.79.86,1.88,2.03,2.09,2.27-.39.34-3.62,3.19-3.62,3.19l.25.22c4.32,3.66,7.76,10.01,7.79,10.07l.67,1.26-.14-1.42c-.35-3.69-3.92-8.94-4.7-10.04.27-.24,1.22-1.1,1.52-1.37.35.37,6.14,6.48,6.6,6.96-.3.17-1.23.7-1.23.7l.59.21c1,.36,3.73,1.37,4.29,1.78l.96.7-.53-1.06s-1.42-2.86-1.75-4.34l-.18-.84s-.51,1.13-.65,1.43c-.52-.61-5.83-6.8-6.14-7.17.28-.28,1.43-1.43,1.72-1.72M114.85,43.17c-.38-.38-.4-.66-.35-.72.04-.04.34-.05.8.41l1.98,2.08c0,.26,0,.55.02.84l-2.45-2.6ZM139.13,32.05c.02-.09.05-.17.07-.26.06.02.12.05.19.1.48.32.88,1.13,1.04,2.05.04.27.06.53.06.78,0,.99-.33,1.8-.83,1.93.17-.22.25-.63.18-1.07-.05-.3-.26-.66-.4-.83l-.24.65-.41-.55c-.09.23-.18.65-.13.98.02.11.05.22.08.32-.31-.41-.56-1.01-.67-1.68,0-.06-.02-.13-.03-.19.52-.15.79-1.12,1.08-2.23M132.99,30.25c1.68,0,2.21.86,2.97,1.53,0,0-.38-.62-.38-1.58s.67-1.34,1.25-1.34c.21,0,.81.11,1.51.53-.31.68-.45,1.52-.57,2.19-.12.71-.23,1.32-.46,1.32-.36,0-.47-.3-.48-.32h-.06c0,1.09.26,1.6.89,1.7,0,.08.02.17.03.25.17,1.03.63,1.92,1.2,2.3.27.18.56.25.83.19.86-.19,1.34-1.57,1.08-3.15-.17-1.04-.63-1.92-1.2-2.3-.1-.07-.2-.11-.3-.15.09-.31.18-.61.29-.89.82,1.06,1.5,2.75,1.5,5.47,0,0,0-.1.91-.1s2.3.67,2.3,3.74c0,3.93-2.54,7.71-5.03,9.44,0,0-.5.96-1.23,1.72.24-.36.51-.93.51-1.58l-.76,1.82c-.22.2-.45.37-.69.49.32-.36.8-1.07.8-2.1l-.98,2.19c-.17.06-.34.1-.52.1,0,0,.53-.43.53-2.06,0,0-.05-.1-2.25-.1s-5.85-2.68-5.85-5.99,2.73-3.26,2.73-3.26c-2.25-.86-2.78-3.21-2.78-5.37,0-2.31,1.44-4.69,4.21-4.69M141.32,55.88s-.82.29-1.44.48c0,0-.34-.77,1.34-2.44l.1,1.96ZM121.31,47.49s.09-2.16.14-3.07c.05-.91.24-2.87,1.39-1.68,2.46,2.57,4.36,7.52,4.79,9.82.14.74.17,1.59.15,2.41l-2.95-3.07c.21-.48.33-.99.36-1.45.1-1.53-1.68-2.83-2.35-2.92-.67-.09-1.53-.05-1.53-.05M138.25,68.47c-2.06-2.23-15.1-16.35-15.24-16.5,0-.07.03-.19.2-.35.09-.09.24-.14.36-.17.22.23,14.05,14.62,15.73,16.37-.34.16-.72.37-1.05.66M140.28,67.42l-.02-.02-.39.17-2.8-2.91c2.45-.96,4.35-1.45,4.35-1.45,0,2.82-.52,3.88-1.15,4.21M154.68,84.77s.27-.6.34-.75c.32.99.84,2.16,1.2,2.92-.92-.42-2.27-.94-3.05-1.22.24-.13.79-.45.79-.45l-7.49-7.89-2.32,2.08.15.21c.04.05,3.26,4.53,4.38,8.27-1.28-2.09-3.81-5.87-6.78-8.48.42-.37,3.57-3.14,3.57-3.14,0,0-3.22-3.49-3.3-3.58,0-.06.04-.26.44-.67.21-.21.4-.25.5-.26.19.2,3.44,3.56,3.44,3.56l.21-.21s2.65-2.7,3.01-3.05c1.61,1.58,6.19,5.82,8.34,7.81-3.74-1.76-7.76-5.64-7.81-5.69l-.2-.2-2.49,2.5,7.08,8.26Z"/>
    <path class="st1" d="M132.67,33.68c-.63.57-.55,2.02.21,3.36.51.91,1.23,1.55,1.87,1.68.31.06.59,0,.81-.17.32-.25.47-.7.47-1.25,0-.38-.08-.81-.23-1.25.17-.07.32-.19.44-.37.48-.71-.44-2.1-.48-2.16l-.05.02c.06.19.01.77-.23.91-.15.08-.36-.01-.61-.29-.77-.86-2.48-2.5-3.4-2.5s-1.32.43-1.77,1.04l.05.04s.01-.01.02-.02c0,0,.02.02.02.02.11-.12.49-.21.9-.21.74,0,1.41.53,1.98,1.15M133.49,34.67l.59.7c.29.27.83.69,1.35.73.08.24.15.47.18.7-.01-.03-.03-.06-.04-.09-.15-.27-.46-.51-.64-.61l.02.72-.56-.34c0,.25.07.69.23.98.24.43.59.68.85.65-.04.06-.08.11-.13.15-.13.1-.3.14-.5.1-.53-.11-1.16-.69-1.61-1.49-.65-1.14-.77-2.44-.29-2.88.2.24.39.48.56.7"/>
    <path class="st1" d="M140.55,46.54c-.33.39-1.71,1.59-3.27,1.59-.68,0-.66-.02-1.27-.22-.27-.09-.61.31.02.61,0,0,.54.32,1.38.32s2.8-.96,3.47-2.12c.25-.43-.13-.43-.34-.19"/>
    <path class="st1" d="M135.64,38.88v.19c.89,0,1.15-.5,1.34-.86.12-.25.2-.37.37-.37v-.19c-.52,0-.8.38-1.04.71-.21.28-.38.52-.66.52"/>
    <path class="st1" d="M137.5,42.7c-2.39,0-4.02-.48-4.65-.72-.62-.24-2.35-.53-.82,1.58,1.53,2.11,3.16,3.64,4.98,3.64,2.97,0,5.44-4.12,5.51-6.32.02-.53.53.02.72.46,0,0,.22-1.1-.22-1.82-.29-.48-.36-.69-.79.26-.43.96-2.28,2.92-4.74,2.92M134.43,45.33c-.59-.54-1.01-1.19-1.44-1.72-.91-1.15-.02-.91.27-.77.12.06.56.18,1.17.3v2.18ZM137.33,46.44c-1.05-.02-1.82-.31-2.42-.72v-2.47c.72.13,1.59.24,2.42.27v2.93ZM137.81,46.41v-2.89c.64-.02,1.41-.27,2.03-.55v2.09h.08c-.56.66-1.27,1.22-2.12,1.36M141.28,42.68c-.04.18-.38,1.01-.96,1.85v-1.8c.27-.14.48-.27.6-.36.43-.34.51-.29.36.31"/>
    <path class="st1" d="M136.6,39.38c0,.86,1.19,1.28,1.19,1.28,0,0-.47.05-.91.05s-1.54-.1-1.81-.26c0,0,.82,1.4,3.09,1.4.67,0,1.11-.44,1.11-.77s.03-.55.03-.67.2-.18.2.01.33.67.73.67c.92,0,2.11-1.05,2.11-3.44,0,0-.47,1.7-1.27,1.7,0,0,.2-.31.2-1.2s-1.01-.92-1.62-.92-.66.01-.82.01-.3.19.04.19c.2,0,.55.04.91.13.34.09.87.18.87.73,0,0,.15,1.28-2.26,1.28-.38,0-1.04.08-1.04-.41,0-.36.21-.48.38-.59.17-.11.38-.48-.1-.4-.27.05-1.04.32-1.04,1.19"/>
    <path class="st1" d="M156.31,70.26c0,.61.5,1.11,1.11,1.11s1.11-.5,1.11-1.11-.5-1.11-1.11-1.11-1.11.5-1.11,1.11M158.26,70.26c0,.52-.37.89-.84.89s-.84-.37-.84-.89.37-.89.84-.89.84.38.84.89"/>
    <path class="st1" d="M156.99,70.89h.23v-.54h.14l.32.54h.24l-.34-.55c.21-.02.33-.12.33-.34,0-.27-.16-.37-.46-.37h-.47v1.25ZM157.22,69.81h.21c.12,0,.25.03.25.17,0,.17-.12.19-.26.19h-.21v-.36Z"/>
  </g>
</svg>