<?xml version="1.0" encoding="UTF-8"?>
<svg id="Layer_1" xmlns="http://www.w3.org/2000/svg" version="1.1" viewBox="0 0 270 112">
  <!-- Generator: Adobe Illustrator 30.0.0, SVG Export Plug-In . SVG Version: 2.1.1 Build 123)  -->
  <defs>
    <style>
      .st0 {
        fill: #231f20;
      }

      .st1 {
        fill: #fff;
      }

      .st2 {
        fill: #a32035;
      }
    </style>
  </defs>
  <rect class="st1" width="270" height="112" rx="29" ry="29"/>
  <g>
    <path class="st1" d="M194.27,64.06c-.56.36-1.63.76-2.14,1.01.68-1,.67-1.65.42-2.07-.57.36-1.67.78-2.17,1.02.64-1.23.53-1.93.19-2.33-.55.49-1.73,1.13-2.09,1.41-.19.16-.21.95.6,1.31.47.21.79.12,1.01-.04-.06.3.03.78.53,1.1.54.35.95.19,1.17,0-.05.3.05.75.54,1.07.68.44,1.15.06,1.32-.16.85-1.14.86-1.86.6-2.31"/>
    <path class="st1" d="M181.48,51.66c2.09,2.51,2.38,6.77,2.13,9.96-.06.78.23,1.97,1.35,1.88,1.55-.13,1.66-1.35,1.48-2.48-1.2-7.58-4.96-9.36-4.96-9.36"/>
    <path class="st1" d="M189.51,58.58c.34-3.18.03-1.99.59-5.05,0,0-2.13,1.26-3.26,3.95-.44,1.05-.5,2.29,1,2.71,1.08.3,1.59-.82,1.67-1.6"/>
    <path class="st1" d="M181.69,58.34c-.4.58-1.39,1.45-1.65,1.8-.15.19.09.94,1.01,1.09.86.14,1.12-.36,1.17-.63.27-1.32-.06-1.96-.52-2.26"/>
    <path class="st1" d="M181.29,48.11s-.02-.06-.06-.16c-.19-.12-.37-.25-.54-.38-.21.5-.71.85-1.28.85-.77,0-1.4-.62-1.4-1.4,0-.55.32-1.02.77-1.25-.12-.13-.23-.26-.35-.39-.49-.1-1.05-.09-1.7.06,0,0,.18,5.08,4.57,2.66"/>
    <path class="st1" d="M179.51,57.8c-.41.58-1.39,1.45-1.66,1.8-.15.19.08.94,1.01,1.09.85.14,1.12-.37,1.17-.63.27-1.32-.06-1.96-.52-2.26"/>
    <path class="st1" d="M127.85,68.31l-1.47.73c2.98,1.56,6.72,1.85,12.42,2.15-3.46-.68-7.03-1.25-11.12-3.85l.18.97Z"/>
    <path class="st2" d="M69.63,54.52c.12.33.26.62.38.88-1.89.45-3.92.17-5.4-.36.39-.03,4.49-.98,5.02-.52M64.68,52.44c.18-.03.36-.03.57-.03,1.48,0,2.79.48,3.74.97-.48.07-1.08.19-1.81.35l-.67-.44c-.54-.35-1.19-.63-1.83-.85M63.48,55.17c1.71,1.11,5.27,1.74,8.2.68-.63-.79-1.06-1.71-1.26-2.69-1-.67-2.88-1.67-5.18-1.67s-3.19,1.25-3.19,1.25c0,0,2.53.36,3.96,1.31,0,0-1.7.37-2.68.06-.97-.31-3.44-1.31-5.29.91,0,0,2.31.09,3.86,1.28,1.55,1.19,3.87,1.86,6.54.79,0,0-3.58-.05-5.78-1.64-1.34-.97-2.62-.76-2.62-.76,0,0,1.61-.7,3.44.49"/>
    <path class="st2" d="M153.77,79.57l-.22.1c-1.54.73-2.75,1.3-3.69,3.39-.76,1.7-2.17,2.57-3.87,2.4,0,0-2.22-.23-3.36-.34-.2.25-.4.51-.59.78l-.41.62,4.01.41c2.29.23,4.25-.97,5.26-3.2.73-1.63,1.59-2.03,3.03-2.71,1.11-.52,5.05-2.08,5.93-6.75,0,0,.13-.22.36-.57-.36-.12-.69-.26-1.01-.42-1.18,4.18-4.24,5.75-5.42,6.29"/>
    <path class="st2" d="M182.18,48.47c-.57.44-1.85,1.22-3.35.92,0,0,.18.29.94.62-.12.01-.24.02-.36.02-4.68.55-4.91-5-4.91-6.26-.96-1.28-2.49-2.19-2.49-2.19,1.3.31,2.61.99,3.5,1.52.27,0,.59.01.93.04-1.51-1.64-3.19-3.07-5.62-3.39,0,0,4.25-1.14,8.64,4.3,4.16,5.16,7.32,4.79,7.32,4.79-1.86.41-3.35.21-4.61-.36M176.21,68.36c2.13-.12,4.81-1.33,8.33-1.48,5.38-.23,7.78,2.24,7.78,2.24-.46-.19-1-.39-1.59-.58-3.08-1.03-7.35-.91-10.88.32l-2.93.74s-2.7.69-4.21,0c0,0-3.32-.19-7.28,1.39,0,0-6.03.75-7.91-3.59,0,0,2.56,1.28,3.79.32,0,0-4.02-2.15-3.88-5.9-.63-1.11-2.57-3.83-.12-7.37,0,0-.93,3.99,1.43,5.17,0,0-.23,2.29,1.93,3.03,0,0,.07,1.74,2.22,2.46,0,0,.91,1.85,3.37,1.69,0,0,1.38,1.81,4.95,1.47,0,0-.71-.97-.8-1.73,0,0,1.54,1.76,5.8,1.82M153.28,51.29s0,.01,0,.01h0c-.32,1.08-.57,2.46-.57,4.17,0,0-1.59-2.95-.12-6.66-.19-.63-.42-1.32-.68-1.98-.31.88-.59,1.48-.59,1.48,0,0-.98-2.09-2.29-4.22-.02.98-.27,1.63-.27,1.63,0,0-2.31-2.7-6.7-4.16l.27.86s-3.49-1.28-8.79-.48c0,0,3.7-1.47,7.52-1.19l-.94-1.42s3.87.24,8.02,2.85c0,0-.07-1.4-.32-2.35,2.46,1.75,3.55,3.69,3.55,3.69,0,0,.02-.68.08-1.61,1.85,2.01,3.07,5.01,3.51,6.17,0,0-1.02.98-1.68,3.2M166.11,37.55l-.12,1.07s-.98-.55-1.8-1.89c-.82-1.34-.12-2.49-.12-2.49-1.22-1.16-.85-2.35-.85-2.35-1.19-1.28-1.67-2.56-1.67-2.56,2.22,1.62,7.1,5.24,8.56,9.08,0,0-.91-.79-2.23-1.03l.25,1.19s-.98-.79-2.01-1.01M185.49,44.12c-2.73-.15-5.7-2.68-6.59-3.84.92.2,1.74.51,2.49.88-1.44-1.31-2.8-2.82-3.89-4.25,3.76,1.68,5.91,4.48,7.99,7.21M89.8,45.4l-.18-.91s-1.55,1.83-2.28,3.92l-.55-.91s-.73,1.37-.73,3.47l-.91-.91s-.37,2.92.28,4.93l-1.46-2.01s-.36,1.92.55,3.65c0,0-1.29,1.95.28,3.91-.03.84-.06,1.57.86,3.07l1.18,1.34-.18,1.18c.02.21.17,1.15,1.29,2.58,2.86,2.82,3.5,5.09,3.5,5.09l-1.55-.75c1.6,2.56,1.46,5.14,1.46,5.14l-1.03-1.15c.82,2.2.2,4.8.2,4.8l-.54-.82s-.15.95-.15,2,.37,2.18.97,2.18c2.29,0,9.85-3.98,9.85-3.98l-.6-.12c1.96-1.6,4.19-1.67,4.19-1.67l-.85-.22c2.51-1.51,4.89-1.39,4.89-1.39l-1.48-.6c2.33-1.14,5-.8,5-.8l-1.41-.78c2.88-.87,5.09-.16,5.09-.16l-1.19-1.09c3.43.55,4.21,2.6,4.21,2.6-7.64-2.23-21.58,9.6-27.8,9.6-.91,0-1.14-.41-1.58-1.04-1.3-1.84-.17-5.09-.17-8.29s-.53-5.53-2.12-7.46c-2.98-2.9-2.93-4.9-2.93-5.05l.09-.59-.43-.46c-1.51-1.6-1.59-2.57-1.75-3.5-.11-.61-.34-1.38-.84-2-.77-.97-2.07-1.47-3.46-2.01-1.26-.49-2.56-.99-3.37-1.8-.71-.73-1.09-1.71-1.06-2.74.02-.78.26-1.5.64-2.1-.19.4-.3.86-.3,1.35,0,.86.4,1.68,1.09,2.24,1.6,1.3,3.37,1.84,4.99,1.53,1.46-.29,2.17-.99,2.84-2.2,5.19-9.41,10.66-11.15,15.48-12.68,0,0-5.91,2.12-8.01,5.58M113.73,69.16c3.7-1.72,7.48-3.49,10.22-3.45-.06.22-.06.47,0,.7l-.51.24c-.58.28-.88.92-.74,1.54l.29,1.29-.44.18c-.65.27-1,.99-.79,1.66-1.22-.99-.16-2.09-.16-2.09-.55-.92-.27-1.72-.27-1.72,0,0-2.33.58-6.8,2.79-10.1,4.99-14.35,2.52-14.35,2.52,3.92.84,8.82-1.45,13.55-3.67M76.87,47.85c1.35,0,2.58.72,3.26,1.87-.15.26-.3.52-.45.79-.21-.56-.56-1.08-1.02-1.49-.92-.82-2.12-1.09-3.26-.85.45-.2.95-.31,1.48-.31M211.34,57.18c-3.34,0-7.79,4.37-7.79,4.37,1.05-3.18,3.76-4.83,3.76-4.83-2.93-1.01-6.98,3.32-6.98,3.32.46-2.87,3.01-4.67,3.01-4.67-1.27-.95-7.71-4.37-8.67-4.87-8.82-4.62-7.53-9.67-21.63-18.99l-.09.91s-1.19-1.1-2.92-2.28l-.18,1.19s-1.19-1.09-2.83-2.01v.72c2.26,1.52,4.48,3.43,4.43,5.09,0,0-1.3-2.64-8.45-6.5-2.6-1.4-5.81-4.28-5.81-4.28,0,0,.62,12.23,6.88,15.29.99.49,2.31.27,2.31.27,0,0-1.02,1.22-2.79.33-1.27-.63-2.32-1.54-3.19-2.62-1.72-1.49-5.78-4.74-10.4-6.55.28.79.53,1.51.53,1.51,0,0-4.32-1.8-4.92-2,.31.68.58,1.28.58,1.28l-5.29-1.97s.91,1.31.91,1.31c0,0-4.29-.81-4.93-.88.54.66,1.04,1.26,1.04,1.26,0,0-4.54-.48-5.2-.51.69.72,1.34,1.41,1.34,1.41,0,0-4.44-.25-9.74.85l1.76,1.52s-6.45.72-12.12,2.92c0,0,4.43-2.55,9.63-3.63l-1.87-1.67s5.72-1.13,9.63-1.39c0,0-.65-.72-1.33-1.47.63.01,1.06.03,1.07.03l3.97.17s-.49-.63-1.04-1.33c.61.06.96.1.97.11l3.89.57s-.41-.66-.86-1.38c.6.12.95.21.96.22l3.67.94s-.29-.63-.61-1.36c.58.2.93.34.94.35l3.74,1.5s-.27-.77-.57-1.61c.54.24.88.41.89.42l3.61,1.8s-.31-1.18-.59-2.24c2.62,1.37,4.31,2.83,4.34,2.84l-.62-1.89s2,1.35,3.7,2.99c-.22-.71-.4-1.42-.55-2.13-.59-.55-.95-.8-.95-.8,0,0-2.05-1.68-4.21-2.91l.19,1.64s-2.03-1.44-4.55-2.61l.44,1.68s-2.37-1.19-4.75-1.92l.55,1.55s-2.26-.91-4.9-1.5l.67,1.5s-2.11-.54-5.04-.83l.87,1.39s-2.12-.31-5.1-.26l1.01,1.29s-3.01-.13-5.15.11l1.1,1.21s-2.3-.07-5.11.3l1.16,1.17s-2.21.04-5.08.57l1.22,1.1s-1.89.01-5.09.57l1.03.95s-2.43.04-5.09.57l1.16,1s-2.65.09-5.09.57l1.2,1.08s-.04,0-.06,0c-.02-.05-.03-.08-.03-.08-4.06.16-7.63.89-8.64,1.23-5.08,1.68-11.54,2.97-17.45,13.68-1.09,1.97-3.11,2.1-4.97.59-.25-.2-.42-.49-.42-.83,0-.57.46-1.03,1.03-1.03s1.03.46,1.03,1.03c0,.25-.09.48-.24.66.51.25,1,.34,1.44.25.54-.11.98-.48,1.31-1.1.35-.66.72-1.29,1.08-1.89-.79-1.76-2.56-3-4.63-3-2.8,0-5,2.28-5.08,5.08-.04,1.43.51,2.73,1.43,3.68,1.91,1.92,5.58,2.25,6.73,3.7.84,1.05-.07,2.69,2.66,5.59,0,0-.4,2.52,3.3,6.13,4.27,6.73-1.63,13.17,3.22,16.75,4.94,3.66,22.08-13.21,30.92-8.59l-.28-1.4c.5-2.12,3.99-4.24,3.3-6.57l1.51-.62-.55-2.42,1.57-.75-.33-1.08,1.93-.68s-3.21-3.22-13.86,2.44c-8.91,4.75-12.89,3.66-12.89,3.66-.85-.34-1.4-1.02-2.11-1.45-.15-.27-.31-.63-.37-.99l1.86.34s-4.29-2.4-2.06-6.34c0,0-.42,5.14,6.53,6.95,3.08-.86,4.94-2.58,4.94-2.58l-1.1-.23c1.87-1.32,2.15-2.1,2.15-2.1l-1.19-.14c4.7-3.83-1.86-9.11-1.86-9.11,4.38,1.51,6.66,5.52,3.9,10.57,0,0-.3.53-.57,1,.95-.41,1.92-.84,2.87-1.28,3.5-9.46-9.57-12.72-7.8-16.34,0,0,1.4,1.57,3.12,2.86,1.87,1.4,4.62,3.33,6.19,5.85.46.73,1.08,2.41,4.19,1.95,0,0-.44-4.22,2.07-6.43,0,0-2.24,5.75.6,8.95,1.03-.19,2.38-.31,3.68,0,2.45.58,3.74,1.72,2.97,3.17,6.05,4.24,14.72,3.23,17.7,6.3,0,0-8,7.13-20.3,7.92-.37.02-.64-.05-.88-.18.11.2.3.39.68.71.87.73,1.35.99,2.66,1.42,1.96.64,3.72,3.61,6.41,3.92,1.09.13,1.87-.14,3.29-1.96,2.6-3.34,4.45-3.76,4.45-3.76-1.48,1.25-2.28,2.57-3.11,3.75-.13.19-.26.39-.39.57-1.57,2.33-2.28,3.27-4.23,3.27-1.52,0-4.73-2.38-5.94-3.28-.78-.58-1.11-.82-1.47-.97-.64-.26-1.51-.29-2.86-.3-.39,0-.89-.01-1.15-.04-.2-.13-.62-.51-.93-.81-.37-.34-.78-.73-1.27-1.13l-2.69-1.62c-.89-.19-1.93-.34-2.95-.3l4.72,2.86s2.24,2.23,3.03,2.35c.79.12,3.41.01,3.71.24,1.4,1.05,5.29,4.38,8.09,4.38,4.93,0,5.05-4.87,9.61-8.64,3.93-3.25,8.31-2.75,11.97-9.46-3.44-3.7-2.97-9.6-2.97-9.6,1.7,12.06,10.65,11.02,10.65,11.02v.1h.16c1.47,0,1.88-.43,1.88-.43.88-.44,3.52-1,5.76-.97,1.96.66,4.5.07,5.01-.06l3.07-.78c2.88-1,6.79-1.29,9.71-.32,1.86.63,6.46,3.23,7.6,3.12.64-.02,1.25-.3,1.91-1.01,1.25-1.34,1.62-2.44.52-3.9,0,0,.12,1.46-1.71,1.46-2.14,0-6.83-3.02-9.74-4.93-1.46-.45-3.19.16-4.79-.56-1.7-.77-2.78-2.62-4.36-3.05-.22-.02-.42-.03-.59-.03-1.7,0-3.65-.49-3.65-2.31,0-1.64,3.66-2.26,7.53-1.84-.05-.42-.11-.85-.2-1.27-2.79-.27-5.45,0-6.86.76-1.15.63-1.36,1.47-1.38,1.95-.07-.31-.1-.65-.06-1,.05-.47.32-1.33,1.58-1.86,1.46-.61,4.05-.5,6.72.13-.28-1.38-.79-2.74-1.64-3.76-.28-.33-.29-.81-.02-1.14.26-.34.72-.45,1.11-.27.13.06,2.65,1.31,4.34,5.69,1.28-2.56,3.3-3.78,3.4-3.83l1.81-1.07-.38,2.07c-.33,1.81-.35,2.07-.38,2.7-.02.43-.06,1.02-.19,2.28-.04.37-.15.8-.35,1.19,3.13,1.99,7.97,5.58,8.69,6.33.79.82,1.63,1.8,3.04,1.8,2.1,0,4.05-2.74,5.38-3.87.93-.79,1.82-1.34,2.62-1.77-1.14.3-2.57.8-3.82,1.44.88.55-3.51,3.53-4.26,2.69-.73-.82,2.48-3.76,9.1-4.65,1.62-.8,2.7-1.3,2.7-3.03,0-.55-.51-1.64-2.22-1.64"/>
    <path class="st2" d="M165.49,27.77v-1l1,.56c-1.09-1.08-2.19-2.3-3.27-3.77,0,0-.16,1.18-.22,2.93l.63.3c.65.31,1.29.66,1.86.99"/>
    <path class="st2" d="M178.6,47.02c0,.38.27.7.63.78-.12-.14-.2-.32-.2-.52,0-.33.2-.6.48-.73-.1-.1-.2-.2-.3-.3-.35.08-.61.4-.61.77"/>
    <path class="st2" d="M175.51,44.35c.49.06,1.39.17,2.34.39-.2-.23-.4-.46-.6-.7-.53.01-1.11.11-1.74.31"/>
    <path class="st2" d="M175.38,44.95c0,1.03.45,2.61,1.51,3.35-.72-1.07-.81-2.56-.81-3.21l-.7-.14Z"/>
    <path class="st0" d="M114.53,70.3c4.47-2.21,6.8-2.79,6.8-2.79,0,0-.27.81.27,1.73,0,0-1.05,1.09.16,2.09-.2-.67.14-1.39.79-1.66l.44-.18-.29-1.29c-.14-.63.17-1.26.74-1.54l.51-.24c-.06-.24-.06-.48,0-.71-2.74-.04-6.53,1.73-10.22,3.45-4.74,2.21-9.63,4.5-13.55,3.67,0,0,4.25,2.47,14.35-2.52"/>
    <path class="st0" d="M127.67,67.34c4.09,2.6,7.66,3.17,11.12,3.85-5.7-.31-9.44-.59-12.42-2.15l1.47-.73-.18-.97ZM178.86,60.68c-.92-.15-1.15-.9-1.01-1.09.27-.34,1.25-1.22,1.66-1.8.46.3.79.94.52,2.26-.06.26-.32.77-1.17.63M180.04,60.14c.27-.34,1.25-1.21,1.65-1.8.46.3.8.94.52,2.26-.06.26-.31.77-1.17.63-.92-.15-1.15-.9-1.01-1.09M181.48,51.66s3.76,1.78,4.96,9.36c.18,1.13.06,2.35-1.48,2.48-1.11.09-1.41-1.1-1.35-1.88.25-3.19-.04-7.45-2.13-9.96M187.84,60.17c-1.5-.41-1.44-1.65-1-2.71,1.13-2.69,3.26-3.95,3.26-3.95-.56,3.06-.25,1.88-.59,5.05-.08.78-.59,1.89-1.67,1.6M190.64,65.48c-.5-.33-.6-.8-.53-1.1-.21.16-.54.25-1.01.04-.81-.36-.79-1.16-.6-1.31.36-.28,1.53-.92,2.09-1.41.33.4.45,1.1-.19,2.33.49-.24,1.6-.66,2.17-1.02.24.42.25,1.06-.42,2.06.5-.24,1.58-.65,2.14-1.01.26.45.26,1.17-.6,2.31-.17.23-.64.61-1.32.16-.49-.31-.59-.76-.54-1.07-.23.2-.63.36-1.17,0M210.86,61.84c-6.62.89-9.83,3.83-9.1,4.65.75.84,5.14-2.14,4.26-2.69,1.25-.64,2.68-1.14,3.82-1.44-.8.43-1.69.98-2.62,1.77-1.33,1.14-3.28,3.87-5.38,3.87-1.41,0-2.25-.99-3.04-1.8-.73-.75-5.57-4.34-8.69-6.33.2-.4.31-.83.35-1.19.13-1.26.17-1.85.19-2.28.04-.63.05-.89.38-2.7l.38-2.07-1.81,1.07c-.1.05-2.12,1.27-3.4,3.83-1.69-4.39-4.21-5.63-4.34-5.69-.39-.18-.85-.07-1.11.27-.26.34-.25.81.02,1.14.85,1.02,1.36,2.38,1.64,3.76-2.67-.63-5.25-.74-6.72-.13-1.26.53-1.53,1.39-1.58,1.86-.04.35-.01.69.06,1,.02-.48.23-1.32,1.38-1.95,1.42-.77,4.08-1.03,6.86-.76.09.43.15.85.2,1.27-3.87-.43-7.53.19-7.53,1.84,0,1.83,1.95,2.31,3.65,2.31.17,0,.37.01.59.03,1.57.43,2.66,2.28,4.36,3.05,1.6.72,3.34.11,4.79.56,2.9,1.91,7.6,4.93,9.74,4.93,1.83,0,1.71-1.46,1.71-1.46,1.1,1.46.73,2.56-.52,3.9-.66.71-1.27.99-1.91,1.01-1.14.11-5.73-2.49-7.6-3.12-2.91-.98-6.82-.69-9.71.31l-3.07.78c-.52.13-3.05.72-5.01.06-2.24-.02-4.87.54-5.76.98,0,0-.41.43-1.88.43h-.17v-.1s-8.95,1.03-10.65-11.02c0,0-.47,5.9,2.97,9.6-3.67,6.71-8.04,6.21-11.97,9.46-4.56,3.77-4.68,8.64-9.61,8.64-2.8,0-6.7-3.33-8.09-4.38-.3-.23-2.92-.12-3.71-.24-.79-.12-3.03-2.35-3.03-2.35l-4.72-2.86c1.01-.04,2.05.1,2.95.3l2.69,1.62c.49.4.9.79,1.27,1.13.31.29.73.68.93.81.26.02.77.03,1.15.04,1.35.02,2.22.05,2.86.3.37.15.69.39,1.47.97,1.21.9,4.42,3.28,5.94,3.28,1.96,0,2.67-.94,4.23-3.27.13-.19.25-.38.39-.57.84-1.18,1.64-2.5,3.11-3.75,0,0-1.86.42-4.45,3.76-1.41,1.83-2.2,2.09-3.29,1.96-2.69-.32-4.46-3.29-6.41-3.92-1.31-.43-1.79-.69-2.66-1.42-.38-.32-.57-.51-.68-.71.23.13.51.2.88.18,12.3-.79,20.3-7.92,20.3-7.92-2.98-3.07-11.65-2.06-17.7-6.3.77-1.45-.52-2.59-2.97-3.17-1.3-.31-2.65-.19-3.68,0-2.84-3.2-.6-8.95-.6-8.95-2.51,2.21-2.07,6.43-2.07,6.43-3.11.45-3.73-1.22-4.19-1.95-1.57-2.52-4.32-4.45-6.19-5.85-1.72-1.29-3.12-2.86-3.12-2.86-1.77,3.62,11.3,6.88,7.8,16.34-.95.44-1.92.87-2.87,1.28.28-.47.57-1,.57-1,2.75-5.05.48-9.06-3.9-10.57,0,0,6.56,5.28,1.86,9.11l1.19.14s-.27.78-2.15,2.1l1.1.23s-1.86,1.72-4.94,2.58c-6.95-1.82-6.53-6.95-6.53-6.95-2.22,3.94,2.06,6.34,2.06,6.34l-1.86-.34c.06.36.22.72.37.99.71.43,1.27,1.11,2.11,1.45,0,0,3.98,1.09,12.89-3.66,10.65-5.66,13.86-2.44,13.86-2.44l-1.93.68.33,1.08-1.57.75.55,2.42-1.51.62c.69,2.33-2.81,4.45-3.3,6.57l.28,1.4c-8.83-4.62-25.97,12.25-30.92,8.59-4.85-3.59,1.05-10.03-3.22-16.75-3.7-3.61-3.3-6.13-3.3-6.13-2.74-2.89-1.83-4.54-2.66-5.59-1.15-1.45-4.82-1.78-6.73-3.7-.92-.95-1.47-2.25-1.43-3.68.08-2.8,2.28-5.08,5.08-5.08,2.06,0,3.83,1.23,4.63,3-.36.61-.73,1.24-1.08,1.89-.34.63-.78,1-1.31,1.1-.44.09-.93,0-1.44-.25.15-.18.24-.41.24-.66,0-.57-.46-1.03-1.03-1.03s-1.03.46-1.03,1.03c0,.34.17.63.42.83,1.86,1.51,3.88,1.38,4.97-.59,5.91-10.71,12.37-12,17.45-13.68,1.01-.34,4.59-1.06,8.64-1.23,0,0,.01.03.03.08.02,0,.04,0,.06,0l-1.2-1.08c2.44-.48,5.09-.57,5.09-.57l-1.16-1c2.66-.53,5.09-.57,5.09-.57l-1.03-.95c3.2-.56,5.09-.57,5.09-.57l-1.22-1.11c2.88-.53,5.08-.57,5.08-.57l-1.16-1.17c2.81-.37,5.11-.3,5.11-.3l-1.1-1.21c2.15-.24,5.15-.11,5.15-.11l-1.01-1.29c2.98-.06,5.1.26,5.1.26l-.87-1.39c2.93.28,5.04.83,5.04.83l-.67-1.5c2.63.59,4.9,1.5,4.9,1.5l-.55-1.55c2.37.73,4.75,1.92,4.75,1.92l-.44-1.68c2.53,1.17,4.55,2.61,4.55,2.61l-.19-1.64c2.16,1.23,4.21,2.91,4.21,2.91,0,0,.36.25.95.8.15.7.33,1.41.55,2.12-1.7-1.64-3.7-2.99-3.7-2.99l.62,1.89s-1.71-1.47-4.34-2.84c.28,1.06.59,2.24.59,2.24l-3.61-1.8s-.35-.17-.89-.42c.3.84.57,1.61.57,1.61l-3.74-1.5s-.36-.14-.94-.35c.32.73.61,1.36.61,1.36l-3.67-.94s-.36-.09-.96-.22c.46.73.86,1.38.86,1.38l-3.89-.57s-.36-.05-.97-.11c.55.69,1.04,1.33,1.04,1.33l-3.97-.17s-.44-.02-1.07-.03c.68.75,1.34,1.47,1.34,1.47-3.91.26-9.64,1.39-9.64,1.39l1.87,1.67c-5.2,1.08-9.63,3.63-9.63,3.63,5.67-2.19,12.12-2.92,12.12-2.92l-1.76-1.52c5.3-1.1,9.74-.85,9.74-.85,0,0-.65-.69-1.34-1.41.67.03,5.2.51,5.2.51,0,0-.49-.6-1.04-1.26.64.07,4.93.88,4.93.88,0,0-.91-1.31-.91-1.31l5.29,1.96s-.27-.6-.58-1.28c.6.21,4.92,2,4.92,2,0,0-.25-.72-.53-1.51,4.62,1.81,8.68,5.06,10.4,6.55.88,1.08,1.93,1.99,3.19,2.62,1.78.89,2.79-.33,2.79-.33,0,0-1.31.22-2.31-.27-6.26-3.07-6.88-15.29-6.88-15.29,0,0,3.21,2.88,5.81,4.28,7.15,3.86,8.45,6.5,8.45,6.5.05-1.67-2.18-3.58-4.43-5.09v-.72c1.64.91,2.83,2,2.83,2l.18-1.19c1.73,1.19,2.92,2.28,2.92,2.28l.09-.91c14.1,9.31,12.81,14.37,21.63,18.99.96.5,7.4,3.93,8.67,4.87,0,0-2.54,1.8-3.01,4.67,0,0,4.05-4.33,6.98-3.32,0,0-2.71,1.65-3.76,4.83,0,0,4.45-4.37,7.79-4.37,1.72,0,2.22,1.09,2.22,1.64,0,1.72-1.07,2.22-2.7,3.03M159.84,74.26c-.89,4.67-4.82,6.23-5.93,6.75-1.43.68-2.3,1.08-3.03,2.71-1,2.23-2.97,3.43-5.26,3.2l-4.01-.41.41-.62c.19-.28.39-.54.59-.78,1.14.12,3.36.34,3.36.34,1.7.17,3.11-.7,3.87-2.4.94-2.09,2.15-2.66,3.69-3.39l.22-.1c1.19-.54,4.24-2.11,5.42-6.29.32.15.65.29,1.01.42-.23.35-.36.57-.36.57M63.48,55.17c-1.83-1.19-3.44-.49-3.44-.49,0,0,1.28-.21,2.62.76,2.19,1.6,5.78,1.64,5.78,1.64-2.68,1.07-4.99.39-6.54-.79-1.55-1.19-3.86-1.28-3.86-1.28,1.86-2.22,4.32-1.22,5.29-.91.97.3,2.68-.06,2.68-.06-1.43-.94-3.96-1.31-3.96-1.31,0,0,.97-1.25,3.2-1.25s4.18,1,5.18,1.67c.2.98.63,1.9,1.26,2.69-2.93,1.07-6.49.44-8.2-.68M163.22,23.55c1.08,1.48,2.18,2.7,3.27,3.77l-1-.56v1c-.57-.33-1.2-.67-1.86-.99l-.63-.3c.05-1.75.22-2.93.22-2.93M211.48,55.68c-1.37,0-2.3.39-2.3.39-1.48-1.34-3.66-.94-3.66-.94-.96-.86-7.14-4.49-10.16-5.96-3.89-2.03-5.68-4.15-7.94-6.84-7.43-8.84-15.65-13.45-15.65-13.45l-.06.62c-.27-.19-2.82-1.95-2.82-1.95l-.1.66c-1.6-1.43-3.23-3.02-4.83-5.2l-1.38-2.01c-.48,3.5-.63,5.93-.63,5.93-3.21-2.15-5.88-4.95-5.88-4.95,0,0-.04,2.3.4,5.32-2.88-2.24-6.59-4.2-6.59-4.2l.18,1.5c-1.8-1.13-4.96-2.39-4.96-2.39l.46,1.76c-1.88-.81-4.91-1.6-4.91-1.6l.51,1.45c-2.1-.64-5.05-1.21-5.05-1.21l.71,1.59c-2.53-.48-5.36-.59-5.36-.59l.9,1.45c-2.16-.19-5.3.04-5.3.04l.95,1.21c-2.2,0-5.14.47-5.14.47l.9.98c-2.29.13-5.02.6-5.02.6l1.03,1.04c-1.82.21-5.01.88-5.01.88l.92.84c-2.15.25-4.79.8-4.79.8l.76.7c-2.24.3-4.88.91-4.88.91l.8.69c-1.86.21-4.64.87-4.64.87l.83.75c-1.98.17-6.62,1.28-6.82,1.34-4.42,1.41-9.78,3.12-14.88,10.46-1.23-1.59-3.15-2.57-5.22-2.57-3.5,0-6.34,2.73-6.57,6.27-1.24-.67-3-1.34-5.05-1.34-2.88,0-4.24,1.64-4.38,1.83,0,0-.1.12-.24.31-1.22.07-2.57.53-3.75,1.94,0,0-1.95,2.33-1.94,2.33l3.04.14c.51.02,2.06.25,3.01.97,2.22,1.69,5.82,2.54,9.75.18.73-.15,1.45-.37,2.13-.67,1.11.85,2.44,1.36,3.63,1.82.93.36,1.98.77,2.28,1.14.06.07.12.42.16.68.18,1.04.45,2.57,2.18,4.55.09,1.2.7,3.59,3.61,6.48,1.73,2.83,1.4,5.64,1.09,8.36-.35,2.99-.75,6.38,2.44,8.68,3.06,2.21,9.01-.9,15.91-4.51,3.37-1.76,6.84-3.57,9.06-4.14l6.05,3.65c2.49,2.45,3.42,2.6,3.73,2.64.42.07,1.07.08,1.81.09.43,0,1.11.02,1.47.05.1.08.22.17.34.27,1.9,1.48,5.43,4.23,8.41,4.23s4.5-1.37,5.8-3.04c0,0,4.63.47,4.64.48,2.92.29,5.52-1.28,6.78-4.09.5-1.12.95-1.33,2.29-1.96l.19-.09c1.36-.63,5.44-2.5,6.52-7.47.1-.16.24-.37.4-.6,1.14.2,2.08.19,2.62.19h.19c1.41,0,2.21-.33,2.66-.63.72-.29,2.84-.76,4.76-.77,2.25.66,4.85.1,5.62-.1l3.07-.78.06-.02.06-.02c2.84-.98,6.34-1.11,8.73-.31.51.17,4.28,2.23,4.73,2.4,1.23.47,2.29.89,3.44.79,1.07-.04,2.03-.53,2.92-1.49.51-.55,2.05-2.19,1.5-3.98,2.98,0,4.22-2.5,6.38-4.39,3.37-2.94,6.68-2.67,6.68-6.27,0-2.3-2.22-3.18-3.59-3.18"/>
    <path class="st0" d="M67.18,53.72c.73-.17,1.33-.28,1.81-.35-.95-.49-2.26-.97-3.74-.97-.2,0-.39,0-.57.03.64.22,1.29.49,1.83.85l.67.44Z"/>
    <path class="st0" d="M64.61,55.04c1.48.53,3.51.8,5.4.36-.13-.25-.26-.55-.38-.88-.53-.46-4.63.49-5.02.52"/>
    <path class="st0" d="M181.39,41.17c-.75-.38-1.57-.68-2.49-.88.89,1.16,3.86,3.69,6.59,3.84-2.08-2.72-4.23-5.52-7.99-7.21,1.09,1.43,2.45,2.94,3.89,4.25"/>
    <path class="st0" d="M176.73,45.46c.65-.15,1.21-.16,1.7-.06.12.13.23.26.35.39-.46.23-.77.7-.77,1.25,0,.77.63,1.4,1.4,1.4.58,0,1.07-.35,1.28-.85.18.13.36.26.54.38.04.1.06.16.06.16-4.38,2.42-4.57-2.66-4.57-2.66M175.38,44.95l.7.14c0,.65.09,2.14.81,3.21-1.05-.74-1.51-2.32-1.51-3.35M177.26,44.05c.2.23.4.47.6.7-.95-.21-1.85-.33-2.34-.39.64-.2,1.22-.29,1.74-.31M179.21,46.25c.1.1.2.2.3.3-.28.12-.48.4-.48.73,0,.2.07.38.2.52-.36-.08-.63-.4-.63-.78s.26-.69.61-.77M179.47,44.04c-4.39-5.44-8.64-4.3-8.64-4.3,2.43.32,4.11,1.75,5.62,3.39-.34-.02-.66-.03-.93-.04-.89-.53-2.2-1.21-3.5-1.52,0,0,1.52.91,2.49,2.19,0,1.26.23,6.81,4.91,6.26.12,0,.24,0,.36-.02-.77-.33-.94-.62-.94-.62,1.51.3,2.78-.48,3.35-.92,1.26.57,2.74.77,4.61.36,0,0-3.16.37-7.32-4.79"/>
    <path class="st0" d="M170.41,66.54c.09.76.8,1.73.8,1.73-3.56.34-4.95-1.47-4.95-1.47-2.47.16-3.37-1.69-3.37-1.69-2.15-.72-2.22-2.46-2.22-2.46-2.16-.75-1.93-3.04-1.93-3.04-2.36-1.18-1.43-5.17-1.43-5.17-2.45,3.55-.51,6.26.12,7.37-.14,3.75,3.88,5.9,3.88,5.9-1.23.96-3.79-.32-3.79-.32,1.87,4.34,7.91,3.59,7.91,3.59,3.96-1.58,7.28-1.39,7.28-1.39,1.52.68,4.21,0,4.21,0l2.93-.74c3.53-1.23,7.8-1.35,10.88-.32.59.2,1.13.39,1.59.58,0,0-2.41-2.47-7.78-2.24-3.51.15-6.2,1.36-8.33,1.48-4.27-.06-5.8-1.82-5.8-1.82"/>
    <path class="st0" d="M82.34,52.5c-.67,1.21-1.37,1.92-2.84,2.2-1.62.31-3.39-.23-4.99-1.53-.7-.57-1.09-1.38-1.09-2.24,0-.49.1-.95.3-1.35-.39.6-.62,1.32-.64,2.1-.03,1.03.35,2.01,1.06,2.74.8.81,2.11,1.31,3.37,1.8,1.38.54,2.69,1.04,3.46,2.01.5.62.73,1.39.84,2,.16.93.24,1.9,1.75,3.5l.43.46-.09.59c0,.15-.05,2.15,2.93,5.05,1.6,1.93,2.12,4.26,2.12,7.46s-1.13,6.45.17,8.29c.44.63.67,1.04,1.58,1.04,6.22,0,20.17-11.84,27.8-9.6,0,0-.78-2.05-4.21-2.6l1.19,1.09s-2.2-.71-5.09.16l1.41.78s-2.67-.34-5,.8l1.48.6s-2.38-.12-4.89,1.39l.85.23s-2.23.08-4.19,1.67l.6.12s-7.56,3.98-9.85,3.98c-.6,0-.97-1.12-.97-2.18s.15-2,.15-2l.54.82s.62-2.61-.2-4.8l1.03,1.15s.14-2.58-1.46-5.14l1.55.75s-.64-2.28-3.5-5.09c-1.12-1.43-1.27-2.37-1.29-2.58l.18-1.18-1.18-1.34c-.92-1.51-.89-2.23-.86-3.07-1.58-1.96-.28-3.91-.28-3.91-.91-1.73-.55-3.65-.55-3.65l1.46,2.01c-.64-2.01-.28-4.93-.28-4.93l.91.91c0-2.1.73-3.47.73-3.47l.55.91c.73-2.1,2.28-3.92,2.28-3.92l.18.91c2.1-3.47,8.01-5.58,8.01-5.58-4.82,1.54-10.28,3.28-15.48,12.68"/>
    <path class="st0" d="M78.65,49.01c.47.41.81.93,1.02,1.49.15-.26.3-.53.45-.79-.68-1.14-1.91-1.87-3.26-1.87-.53,0-1.02.11-1.48.31,1.14-.24,2.34.03,3.26.85"/>
    <path class="st0" d="M167.87,37.37c1.31.24,2.23,1.03,2.23,1.03-1.46-3.84-6.34-7.46-8.56-9.08,0,0,.49,1.28,1.67,2.56,0,0-.36,1.19.85,2.35,0,0-.7,1.16.12,2.49.82,1.34,1.8,1.89,1.8,1.89l.12-1.07c1.04.21,2.01,1.01,2.01,1.01l-.25-1.19Z"/>
    <path class="st0" d="M151.37,43.53s-1.09-1.94-3.55-3.69c.25.95.32,2.35.32,2.35-4.16-2.61-8.02-2.85-8.02-2.85l.94,1.42c-3.82-.28-7.52,1.19-7.52,1.19,5.31-.8,8.79.48,8.79.48l-.27-.86c4.39,1.46,6.7,4.16,6.7,4.16,0,0,.25-.65.27-1.63,1.31,2.14,2.29,4.22,2.29,4.22,0,0,.28-.6.59-1.48.26.66.48,1.35.68,1.98-1.47,3.71.12,6.66.12,6.66,0-1.71.24-3.09.57-4.18h0s0,0,0,0c.67-2.22,1.68-3.2,1.68-3.2-.44-1.17-1.66-4.16-3.51-6.17-.06.93-.08,1.61-.08,1.61"/>
    <path class="st0" d="M79.79,82.61c1.11,0,2.04.88,2.04,2.03s-.93,2.03-2.04,2.03-2.04-.89-2.04-2.03.93-2.03,2.04-2.03ZM79.79,87.07c1.36,0,2.43-1.07,2.43-2.43s-1.07-2.43-2.43-2.43-2.43,1.07-2.43,2.43,1.07,2.43,2.43,2.43ZM80.21,84.77c.36-.01.73-.21.73-.75,0-.57-.44-.72-.94-.72h-1.15v2.73h.39v-1.26h.51l.7,1.26h.45l-.69-1.26ZM79.93,83.69c.33,0,.62.02.62.37,0,.37-.51.31-.88.31h-.42v-.68h.68Z"/>
  </g>
</svg>