<?xml version="1.0" encoding="UTF-8"?>
<svg id="Layer_1" xmlns="http://www.w3.org/2000/svg" version="1.1" viewBox="0 0 270 112">
  <!-- Generator: Adobe Illustrator 30.0.0, SVG Export Plug-In . SVG Version: 2.1.1 Build 123)  -->
  <defs>
    <style>
      .st0 {
        fill: #ce0e2d;
      }

      .st1 {
        fill: #fff;
      }

      .st2 {
        fill: #231f20;
      }

      .st3 {
        fill: #b0b3b2;
      }
    </style>
  </defs>
  <rect class="st1" width="270" height="112" rx="29" ry="29"/>
  <g>
    <g>
      <path class="st1" d="M146.94,54.15c.02,1.17-.14,2.49-.43,3.81.45-1.02.88-2.04,1.54-2.96-.35-.24-.84-.59-1.11-.85Z"/>
      <path class="st1" d="M176.9,60.19c-4.72-.31-9.45-.5-14.18-.59l-.44.86-.72-.87c-.47,0-.94,0-1.4,0,.08-2.51-.44-5.02-1.61-7.26,0,0,.51-.53.94-1.43-1.48-.79-2.97-2.08-4.01-3.37-.94-1.18-1.74-2.47-2.97-3.39-.7-.53-1.83-1.07-3.05-1.48-1.58-1.8-3.98-3.04-6.04-3.27-.07-.1-.15-.2-.22-.3,1.38-.11,2.49-1.33,3.17-2.44.73-1.19,1.11-2.57,1.17-3.96.11-2.6-1.04-5.3-3.49-6.45-.33-.75-1.1-1.76-2.57-2.22-1.08-1.43-2.76-2.07-4.12-2.09-4.3-2.2-9.77-.33-12.67,3.29-1.58,1.97-2.06,4.34-2.44,6.78-.39,2.49-.95,4.97-1.74,7.36-1.84.59-3.48,1.82-4.43,3.53-1.06.2-2.01.73-2.79,1.45-.46-.8-1.01-1.49-1.35-2.26,1.43-1.17,2.12-2.94,3.22-4.38.31-1.07.13-2.26-.34-3.25-.02-1.6-.11-3.19-.05-4.79.05-1.36-.07-2.72-1.19-3.66-1.03-.86-2.53-1.05-3.74-.48-1.37.65-1.95,2.11-2.15,3.53-.73.15-1.39.52-1.89,1.08-2.18-.05-3.49,1.72-3.9,3.69-.46,2.22-.39,4.82.93,6.74.23,1.27-.79,2.38-1.48,3.34-.81,1.13-1.4,2.42-1.76,3.76-.62,2.31-.39,5.5.35,7.88.36-.86.72-1.73,1.33-2.46.49,2.01,2.1,5.33,3.94,6.8.03-.29.08-.59.08-.59.92,1.14,2.46,2.4,3,2.76.2-.69.41-1.37.66-2.05,1.32.78,2.93,1.22,4.44.75,0,0,.72.54,1.84.93.79-1.3,1.99-2.89,4.54-4,.52,1.21,1.31,2.27,2.09,3.32.39.52.75,1.06,1.09,1.61-4.01.64-6.93,1.21-8.16,1.46l-2.38-2.5c-2.96.72-5.93,1.49-8.93,1.98-1.94.32-4.11.59-6.05.11-1.79-.44-4.74-2.85-5.87-4.82-.74,1.56-1.41,3.15-1.77,4.82-.46-.14-1.43-.58-1.43-.58-.01,2.1.69,4.91,1.17,5.87,0,0-.33,0-.68-.02,1.4,1.97,3.46,3.51,5.59,4.56l-4.34,10.74,6.54,4.26c2.22-.65,4.44-1.28,6.67-1.89l-.5,1.22c.92-.26,1.67-.46,2.46-.67l-1.58,3.82c20.6-6.71,38.91-8.81,57.41-9.34,3.47-.1,6.94-.12,10.4-.09l4.07-7.8,1.99-.77,4.14-7.91-4.77-4.9ZM103.95,86.92l.45-1.14-.33.09.13-.32,1.05-.28-.13.32-.33.09-.45,1.14-.39.11ZM105.59,86.48l-.02-.75h0s-.46.88-.46.88l-.39.11.83-1.54.39-.1v.7s.63-.87.63-.87l.39-.11-.34,1.4-.39.11.22-.81h0s-.69.94-.69.94l-.16.04ZM176.65,72.01l-3.49,1.35c-1.87-.06-3.77-.1-5.61-.13l-.61,1.16c2.25.02,4.52.07,6.8.15l-3.01,5.78c-20.52-.17-44.12,2.05-64.9,8.68.82-1.99,1.64-3.97,2.46-5.96l-1.68,1.42c-3.28.84-6.55,1.74-9.8,2.7l-5.21-3.39,1.77-4.39,2.02-.61-1.5-.67,2.19-5.42c-2.47-.58-4.09-2.4-4.09-2.4l.99.03c-1.8-.57-2.75-1.45-3.18-5.26l1.07.43c-.19-1.08.47-2.91,1.02-4.25,1.26,1.52,3.46,3.34,5.5,3.72,2.59.48,5.59.04,8.33-.55,2.73-.58,6.26-1.44,6.26-1.44l2.36,2.49s4.13-.91,10.56-1.9c-1.79-3.63-3.55-4.44-4.38-7.5-3.84,1.15-5.79,4.04-5.79,4.04,0,0-.8-.38-1.1-.84-1.45.91-3.34.27-5.26-1.13,0,0-.39.7-.76,1.81,0,0-1.86-1.53-2.73-3.79,0,0-.22.54-.34.97,0,0-2.44-2.58-2.3-6.89,0,0-1.04.59-1.57,1.61-.32-4.7,1.12-6.44,2.65-8.6,1.2-1.71.65-3.21.65-3.21-.98-1.3-1.14-2.87-1.04-4.46.13-1.97.56-3.54,1.85-4.02.52-.19,1.18-.16,1.58-.06.51-.98,1.51-1.35,2.45-1.19.04-.53.07-.88.15-1.37.17-1.14.72-2.22,2-2.42.94-.15,1.89.31,2.3,1.19.38.8.22,1.6.18,2.44-.05.91.07,3.36.07,4.65.28.47.62,1.47.43,2.39-1.19,1.58-1.97,3.68-3.54,4.38.07.34.21.96.82,1.98.39.66,1.38,1.81,1.68,3.42.62-1.3,2.02-2.79,3.98-2.86.75-1.81,2.45-3.18,4.57-3.67.8-2.14,1.69-5.84,2-8.11.3-2.21.63-4.27,2.03-6.07,2.62-3.37,7.65-5.22,11.54-3.03,1.51-.07,2.87.58,3.55,1.83,1.08.3,2.06.82,2.45,2.17,1.53.5,2.41,1.76,2.96,3.22.75,2.01-.03,5.67-2.21,7.14-.62.42-1.44.29-1.96-.21-.2.35-.52.97-.64,1.64,0,0,.8.39,1.47,1.57,2.3.05,4.93,1.69,6.22,3.38,1.23.18,2.77.75,3.85,2.08.94,1.17,3.05,4.17,4.96,5.29,0,0-.32.47-.75.75,1.23,1.97,2.39,4.97,1.88,8.75.72,0,1.44,0,2.16-.01l1.55,1.86.94-1.84c4.3.08,8.59.26,12.88.54l3.81,3.91-3.51,6.7Z"/>
      <path class="st1" d="M111.23,33.78c.21.08.45.13.7.17,0-1.19.03-3.99.13-4.58.11-.69-.04-1.28-.49-1.39-.57-.14-.98.16-1.14.9-.25,1.17-.24,3.74-.24,4.5.35.08.7.22,1.03.41Z"/>
      <path class="st1" d="M108.91,41.27s-.45-.32-.61-.9c0,0,1.48.34,2.25-.74.78-1.08,1.66-2.6,1.88-2.89,0,0,.09-.72-.38-1.33,0,0-1.08-.11-1.51-.36-.43-.25-1.01-.45-1.23-.23-.38.38-.58,1.17.22,1.88.35.31.51.44.57.48-.15.09-1.84.47-2.56-.93,0,0-1.6.97-2.58-.36,0,0,.87.06,1.28-.29-.42-.77-.5-1.85-.32-2.81-.68-.01-1.13.4-1.32,1.17-.19.74-.61,3.71.36,4.97,1.41,1.83,1.37,2.99,1.14,4.69.89-1.01,1.28-2.81,1.28-2.81,0,0,.39.47,1.54.46Z"/>
      <path class="st1" d="M110.74,56.48c-1.65-.79-2.5-2.16-2.5-2.16-.44.39-.72.78-.72.78-.98-2.79-.61-6.49-.61-6.49-.91.32-1.44.86-1.44.86.11-2.4.74-4.34.74-4.34-.64.12-1.14.4-1.14.4.36-1.13.44-2.52.2-3.67,0,0-.13,1.44-.83,2.29-.7.85-1.75,2.69-1.86,3.66,0,0,.79-.81,1.7-1.1,0,0-1.28,4.26-.05,6.51,0,0,.34-1.19,1.41-2.25,0,0-.38,4.04,1.55,6.26,0,0,.32-.78.83-1.35,0,0,1.48,1.68,3.28,2.11,0,0,.09-.97.34-1.51,0,0,.56.88,1.84,1.33,0,0,.52-.25.86-.52-1.79-1.08-2.98-2.26-2.98-2.26-.45.7-.61,1.46-.61,1.46Z"/>
      <path class="st1" d="M108.76,33.49c0-.57-.01-1.15,0-1.72-.29,0-.8.04-1.04.3-.48.51-.59,1.82-.23,2.9.22-.72.64-1.27,1.27-1.48Z"/>
      <path class="st1" d="M144.98,57.98c.76-4.38-.41-7.75-.41-7.75.7.38,1.19.97,1.19.97-.17-1.19.63-2.03.63-2.03,0,0-.29,3.05,2.12,4.31,0,0,1.98-1.89,6.29-1.62-1.69-4.15-5.09-5.75-5.09-5.75.2.54.16,2.01.16,2.01,0,0-.86-.91-1.62-2.41-1.34-2.65-3.95-3.14-4.88-3.23.09.28.19.54.29.79.5,1.17,1.31,1.74,1.21,2.19-.15.71-1.09.74-1.83.4.06,1.01.64,1.8.18,2.19-.38.32-.98.12-1.43-.13-.59,1.49.41,3.52-1.7,3.44-1.35-.05-1.64-1.39-2.95-2.1-.28.44-.46,1.01-1.03,1.07-1.14.12-2.12-1.95-2.72-2.37-.01.36-.13.71-.47.78-1.77.34-2.18-3.14-3.67-3.26-4.09-.31-4.21-2.45-4.62-3.47-.01-.03-.02-.05-.04-.08-.61-.02-1.33.03-2.2.2-3.98.79-5.56,4.46-5.56,4.46-.18-.4-.15-.84-.15-.84-1.65.15-2.44,2.18-2.44,2.18,2.55,3.24,1.96,8.47,1.96,8.47,1.52-1.34,4.37-1.89,4.37-1.89.28-2.24,1.52-4.3,1.52-4.3-.21,2.31.14,5.37,1.41,7.37s2.48,4.27,2.48,4.27c.59-.76.62-2,.62-2,.42,1.13.59,2.29.62,3.38,4.7-.68,10.35-1.36,16.41-1.79.53-1.09,1.05-1.68,1.35-3.44ZM141.81,58.26l1.36,2.12-5.85.56,1.36-2.38.24-.02v-1.42l-1.69,3.04-1.7-2.73v1.43l.24-.02,1.36,2.12-5.84.55,1.36-2.38.24-.02v-4.48l-.24.02-1.36-2.12,3.97-.38,1.98,3.18,1.98-3.56,3.97-.38-1.36,2.38-.24.02v4.48l.24-.02Z"/>
      <path class="st1" d="M133.12,28.86c.28,0,.52-.22.5-.56-.56-.12-1.09-.2-1.55-.25-.08.16-.13.34-.13.52,0,.7.62,1.27,1.47,1.27-.3-.19-.55-.6-.49-1.02.06.03.13.04.2.04Z"/>
      <path class="st1" d="M156.71,59.23s-.5-.42-1.26-.72c0,0-.05,1.17-.29,2.39.27,0,.53-.01.8-.02.11-.76.14-1.3.14-1.3.48.37,1.19,1.26,1.19,1.26.56-2.54-.11-4.77-.66-6.03.17,1.4.3,3.34.09,4.42Z"/>
      <path class="st1" d="M142.31,36c.13.16.23.29.27.35.28.37.55.19.55.19.55-.34,2.58-3.09,1.69-5.7-.42-1.24-1.13-2.45-3.07-2.62-.07,0-.13-.01-.2-.01,2.25.62,4.24,4.54.75,7.79Z"/>
      <path class="st1" d="M140.92,27.17c.29-.05.56-.05.79,0,0,0-.52-1.14-2.04-1.14-.06,0-.11,0-.16,0,.41.22,1.05.62,1.42,1.13Z"/>
    </g>
    <path class="st2" d="M143.55,60.28s-.07.06-.12.07-.09,0-.13-.04c-.04-.03-.06-.07-.07-.12s0-.09.04-.13.07-.06.12-.07.09,0,.13.04c.04.03.06.07.07.12s0,.09-.04.13ZM143.29,60.08s-.04.07-.03.11.02.08.06.1c.03.03.07.04.11.03s.08-.03.1-.06.04-.07.03-.11-.02-.08-.06-.1c-.03-.03-.07-.04-.11-.03s-.08.03-.1.06ZM143.4,60.07s.04,0,.05,0c.02,0,.03.02.04.05,0,.02,0,.03-.01.04,0,0-.02,0-.03.01.02,0,.03,0,.04.01,0,0,.01.02.01.03h0s0,.02,0,.03c0,0,0,0,0,0h0s-.03,0-.03,0c0,0,0,0,0,0,0,0,0,0,0,0h0s0-.02,0-.02c0-.02-.01-.04-.02-.04,0,0-.02,0-.04,0h-.03s0,.08,0,.08h-.03s-.03-.19-.03-.19h.07ZM143.44,60.1s-.02,0-.04,0h-.03s0,.07,0,.07h.03s.03,0,.03-.01c.01,0,.02-.02.02-.03,0-.01,0-.02-.02-.03Z"/>
    <path class="st3" d="M141.55,28.21c-2.06-.05-3.78,1.94-3.78,1.94.32-1.78,1.93-2.78,3.15-2.98-.37-.51-1.01-.91-1.42-1.13-2.43.13-3.06,3.23-4.73,4.86-1.46,1.42-6.02,3.01-6.02,3.01,0,0-.56.74-.8,2.36h-.01c3.65,1.2,5.1,3.48,5.9,4.88.4.7,1.09,2.15,1.95,3.06.91.96,2.72,1.6,4.26,1.38,1-.14,2.19-.78,2.36-1.27.19-.55,0-1.35-.37-1.23-.9.28-2.45.53-4.14-.04-1.45-.49-2.3-5.05-5.98-7.34-1.19-.74-2.17.11-2.17.11-.05-1.25.59-1.62.59-1.62,0,0,.66.79,2.03.88,1.58.1,2.8-1.4,5-1.49,2.62-.11,4.29,1.6,4.94,2.4,3.48-3.25,1.5-7.17-.75-7.79ZM139.27,26.41l.47.71-1.49-.27c.3-.21.63-.37,1.02-.44Z"/>
    <g>
      <path class="st0" d="M125.1,37.88s.36,1.04.56,2.47c0,0,.75-.58,1.29-1.3,0,0,.27.71.35,1.45,0,0,.88-1.18,2.09-2.25-1.36-.63-2.82-1.08-2.82-1.08.17-2.18.88-3.63,1.42-4.3.73-.16,1.45-.4,2.13-.69-.5-.49-1.04-.82-1.04-.82.52-.38,1.58-.28,1.58-.28-.65-.65-2.01-.95-2.01-.95,0,0,1.17-.75,3.12,0-.54-.38-.88-.95-.88-1.59,0-.21.04-.41.1-.6-.38-.02-.6-.03-.6-.03-.42.4-.57,1.09-.57,1.09,0,0-.55-.42-.58-1.4-.16-.56-.59-1.17-.59-1.17,2.69.14,5.76,1.04,6.81,1.37.83-1.22,1.97-2.56,3.65-2.86-.86-.55-1.65-.56-1.65-.56.11.28.07.58.07.58,0,0-1.89-1.33-4.52-1.22-2.89.12-6.06,2.25-7.28,5-.52,1.19-.67,3.21-1.01,5.35-.35,2.16-.75,4.2-.98,4.92,0,0,.63-.33,1.35-1.13Z"/>
      <path class="st0" d="M150.66,54.36c-1.5,1.19-2.23,2.58-3.06,4.68-.42,1.04-.96,1.84-1.48,2.45l1.76,2.01c3.12-1.54,6.1-4.94,6.1-4.94-.16.95-.66,1.78-1.14,2.39.77-.02,1.55-.04,2.32-.06.24-1.22.29-2.39.29-2.39.76.29,1.26.72,1.26.72.21-1.07.08-3.02-.09-4.42-.31-.7-.57-1.11-.57-1.11-1.93-.5-3.95-.49-5.39.65Z"/>
      <path class="st0" d="M112.66,48.46s-.31,1.37-1.66,1.71c0,0,.68-2.3-.43-4.35-.97-1.79-1.44-2.83-1.66-4.56-1.14,0-1.54-.46-1.54-.46,0,0-.38,1.8-1.28,2.81,0,0-.25-.85-.83-1.75.24,1.14.16,2.53-.2,3.67,0,0,.5-.28,1.14-.4,0,0-.63,1.94-.74,4.34,0,0,.53-.54,1.44-.86,0,0-.37,3.7.61,6.49,0,0,.28-.39.72-.78,0,0,.85,1.37,2.5,2.16,0,0,.16-.76.61-1.46,0,0,1.2,1.18,2.98,2.26.07-.06.14-.11.19-.17,0,0,.87-5.83-1.86-8.65Z"/>
      <path class="st0" d="M139.54,39.71c.57.61.34,1.3.34,1.3,0,0-.54-.99-1.32-1.18-.54-.14-1.01.21-1.25.43.39.69.83,1.43,1.07,1.62,1.08.37,2.19.41,3.27.04-.16-1.79-1.74-2.16-2.11-2.21Z"/>
      <polygon class="st0" points="141.46 53.19 142.06 52.13 139.56 52.37 137.23 56.57 134.89 52.81 132.39 53.05 133 53.99 133.51 53.94 133.51 59.67 133 59.72 132.39 60.78 136.02 60.44 135.41 59.49 134.9 59.54 134.9 55.19 137.23 58.91 139.54 54.75 139.54 59.1 139.03 59.15 138.43 60.21 142.06 59.86 141.46 58.92 140.95 58.97 140.95 53.24 141.46 53.19"/>
      <path class="st0" d="M119.12,78.4l3.64-6.63.28,5.93c1.5-.26,3.01-.5,4.52-.73l5.86-12.71c-1.48.18-2.96.37-4.44.57l-3.18,7.57c-.08-.02-.16-.04-.24-.06l-.18-6.98c-.98.15-1.96.31-2.93.47l-4.15,8.26c-.08-.03-.16-.06-.23-.09l1.39-7.65c-1.34.24-2.68.5-4.02.77l-1.94,12.42c1.87-.4,3.75-.78,5.63-1.14Z"/>
      <path class="st0" d="M149.55,65.1l-3.74,7.68c.78.68,1.57,1.36,2.35,2.04,2.44-.14,4.87-.25,7.31-.31.82-.48,1.63-.95,2.45-1.42l4.09-8.12c-.64-.76-1.27-1.53-1.91-2.29-2.62,0-5.24.05-7.86.14-.9.75-1.8,1.51-2.7,2.28ZM157.82,64.87l-3.74,7.5c-1.35.04-2.71.1-4.06.16l3.8-7.59c1.33-.04,2.67-.07,4-.08Z"/>
      <path class="st0" d="M133.26,76.19c2.42-.3,4.84-.57,7.27-.79.81-.54,1.62-1.07,2.44-1.59l4.07-8.45c-.63-.73-1.27-1.46-1.9-2.18-2.61.17-5.22.39-7.83.65-.89.82-1.79,1.64-2.68,2.47l-3.71,7.98c.78.63,1.56,1.27,2.34,1.91ZM138.87,65.88c1.33-.13,2.65-.24,3.98-.34l-3.72,7.8c-1.35.13-2.69.28-4.04.43l3.78-7.89Z"/>
      <path class="st0" d="M175.52,63.19c-3.64-.25-7.29-.4-10.93-.47-.36.71-.73,1.43-1.09,2.15.64,0,1.27.02,1.91.03l-4.84,9.52c1.42,0,2.84,0,4.26.02l1.66-3.18c2.12.05,4.25.13,6.37.24.83-.33,1.66-.65,2.49-.96l2.56-4.9c-.79-.82-1.59-1.63-2.39-2.45ZM171.36,69.27c-1.26-.06-2.51-.11-3.77-.14l2.16-4.09c1.24.05,2.48.11,3.73.18l-2.11,4.05Z"/>
      <path class="st0" d="M110.77,81.88l-1.76,4.27c18.11-5.35,39.86-7.77,60.6-7.67l1.12-2.15c-20.58-.47-40.66,1.47-59.96,5.56Z"/>
      <path class="st0" d="M108.49,72.32c-2.23.52-4.46,1.08-6.67,1.67l1.8-4.12c1.59-.41,3.19-.8,4.79-1.17l-.95,2.2c1.85-.44,3.7-.86,5.55-1.25l.87-2c-.84-.89-1.68-1.77-2.52-2.66,0,0-6.55,1.43-10.92,2.11-4.5.69-7.54-2.76-7.54-2.76,0,0-.55,1.44.05,2.28.37.52,1.38,1.18,2.77,1.73,0,0-2-.15-3.55-.91,0,0,.29,1.45,1.34,2.02.58.32,2.46.73,4.78.95,0,0-1.61.38-3.27.32,0,0,1.22,1.07,2.54,1.28.89.14,1.97.03,3.36-.31-.72.6-1.79.97-2.91,1.12-.78,1.94-1.48,3.67-1.75,4.33.69.31,1.38.62,2.07.94,2.32-.66,4.65-1.29,6.98-1.88l-1.71,4.07c-1.43.37-2.85.76-4.27,1.16l.89-2.14c-1.83.51-3.66,1.04-5.48,1.59l-.87,2.16c1.07.69,2.15,1.39,3.22,2.1,2.86-.85,5.74-1.63,8.63-2.37,1.06-.91,2.11-1.81,3.17-2.7l2.66-6.24c-1.03-.52-2.06-1.03-3.08-1.53Z"/>
    </g>
    <g>
      <path d="M139.27,26.41c-.39.07-.72.23-1.02.44l1.49.27-.47-.71Z"/>
      <path d="M141.81,53.78l1.36-2.38-3.97.38-1.98,3.56-1.98-3.18-3.97.38,1.36,2.12.24-.02v4.48l-.24.02-1.36,2.38,5.84-.55-1.36-2.12-.24.02v-1.43l1.7,2.73,1.69-3.04v1.42l-.24.02-1.36,2.38,5.85-.56-1.36-2.12-.24.02v-4.48l.24-.02ZM141.46,58.92l.6.94-3.63.34.6-1.06.51-.05v-4.36l-2.31,4.17-2.32-3.73v4.36l.51-.05.6.94-3.62.34.6-1.06.51-.05v-5.73s-.51.05-.51.05l-.6-.94,2.5-.24,2.33,3.76,2.33-4.2,2.5-.24-.6,1.06-.51.05v5.73l.51-.05Z"/>
      <path d="M167.59,69.13c1.26.04,2.51.08,3.77.14l2.11-4.05c-1.24-.07-2.48-.13-3.73-.18l-2.16,4.09Z"/>
      <path d="M154.08,72.37l3.74-7.5c-1.33.02-2.67.04-4,.08l-3.8,7.59c1.35-.07,2.7-.12,4.06-.16Z"/>
      <path d="M176.34,61.4c-4.29-.28-8.58-.46-12.88-.54l-.94,1.84-1.55-1.86c-.72,0-1.44,0-2.16.01.5-3.78-.66-6.78-1.88-8.75.43-.28.75-.75.75-.75-1.91-1.12-4.02-4.13-4.96-5.29-1.07-1.33-2.61-1.91-3.85-2.08-1.29-1.7-3.93-3.34-6.22-3.38-.67-1.18-1.47-1.57-1.47-1.57.12-.66.43-1.28.64-1.64.52.5,1.34.64,1.96.21,2.18-1.48,2.96-5.14,2.21-7.14-.55-1.46-1.43-2.72-2.96-3.22-.39-1.36-1.37-1.88-2.45-2.17-.68-1.25-2.04-1.9-3.55-1.83-3.89-2.19-8.92-.34-11.54,3.03-1.4,1.8-1.73,3.87-2.03,6.07-.31,2.26-1.21,5.96-2,8.11-2.12.49-3.82,1.86-4.57,3.67-1.96.06-3.37,1.56-3.98,2.86-.3-1.61-1.29-2.76-1.68-3.42-.61-1.03-.75-1.64-.82-1.98,1.57-.7,2.35-2.8,3.54-4.38.19-.92-.15-1.91-.43-2.39,0-1.29-.12-3.74-.07-4.65.05-.84.2-1.64-.18-2.44-.41-.88-1.36-1.34-2.3-1.19-1.28.2-1.83,1.28-2,2.42-.07.49-.11.84-.15,1.37-.95-.15-1.94.22-2.45,1.19-.4-.1-1.06-.13-1.58.06-1.29.48-1.73,2.05-1.85,4.02-.1,1.59.05,3.16,1.04,4.46,0,0,.55,1.51-.65,3.21-1.53,2.16-2.97,3.9-2.65,8.6.54-1.02,1.57-1.61,1.57-1.61-.15,4.31,2.3,6.89,2.3,6.89.12-.43.34-.97.34-.97.87,2.26,2.73,3.79,2.73,3.79.36-1.1.76-1.81.76-1.81,1.92,1.41,3.81,2.04,5.26,1.13.31.46,1.1.84,1.1.84,0,0,1.95-2.88,5.79-4.04.84,3.06,2.59,3.87,4.38,7.5-6.44,1-10.56,1.9-10.56,1.9l-2.36-2.49s-3.53.85-6.26,1.44c-2.75.59-5.75,1.03-8.33.55-2.04-.38-4.24-2.21-5.5-3.72-.56,1.33-1.21,3.17-1.02,4.25l-1.07-.43c.43,3.81,1.37,4.69,3.18,5.26l-.99-.03s1.63,1.82,4.09,2.4l-2.19,5.42,1.5.67-2.02.61-1.77,4.39,5.21,3.39c3.25-.96,6.52-1.86,9.8-2.7l1.68-1.42c-.82,1.99-1.64,3.97-2.46,5.96,20.78-6.63,44.38-8.86,64.9-8.68l3.01-5.78c-2.28-.08-4.55-.13-6.8-.15l.61-1.16c1.84.03,3.74.07,5.61.13l3.49-1.35,3.51-6.7-3.81-3.91ZM160.11,62.68c.64.76,1.27,1.52,1.91,2.29l-4.09,8.12c-.82.47-1.63.94-2.45,1.42-2.44.07-4.88.17-7.31.31-.78-.69-1.57-1.37-2.35-2.04l3.74-7.68c.9-.77,1.8-1.52,2.7-2.28,2.62-.09,5.24-.14,7.86-.14ZM137.31,63.84c2.61-.26,5.22-.48,7.83-.65.63.72,1.27,1.45,1.9,2.18l-4.07,8.45c-.81.53-1.63,1.06-2.44,1.59-2.43.23-4.85.49-7.27.79-.78-.64-1.56-1.27-2.34-1.91l3.71-7.98c.89-.83,1.79-1.65,2.68-2.47ZM156.05,53.7s.27.41.57,1.11c.55,1.27,1.22,3.49.66,6.03,0,0-.7-.89-1.19-1.26,0,0-.03.54-.14,1.3-.27,0-.53.01-.8.02-.77.02-1.55.04-2.32.06.48-.61.98-1.44,1.14-2.39,0,0-2.98,3.4-6.1,4.94l-1.76-2.01c.52-.62,1.06-1.41,1.48-2.45.84-2.1,1.57-3.5,3.06-4.68,1.44-1.14,3.47-1.15,5.39-.65ZM146.51,57.96c.29-1.32.44-2.65.43-3.81.28.25.77.61,1.11.85-.67.92-1.09,1.94-1.54,2.96ZM141.65,41.92c-1.08.37-2.2.33-3.27-.04-.24-.19-.67-.93-1.07-1.62.23-.22.7-.57,1.25-.43.78.2,1.32,1.18,1.32,1.18,0,0,.23-.7-.34-1.3.37.05,1.95.42,2.11,2.21ZM137.37,33.6c-2.19.09-3.42,1.59-5,1.49-1.36-.09-2.03-.88-2.03-.88,0,0-.64.37-.59,1.62,0,0,.97-.85,2.17-.11,3.69,2.29,4.53,6.85,5.98,7.34,1.68.57,3.23.32,4.14.04.37-.12.56.68.37,1.23-.17.5-1.36,1.13-2.36,1.27-1.54.21-3.35-.43-4.26-1.38-.86-.91-1.55-2.37-1.95-3.06-.8-1.4-2.25-3.68-5.9-4.87h.01c.24-1.62.8-2.37.8-2.37,0,0,4.56-1.59,6.02-3.01,1.67-1.63,2.3-4.72,4.73-4.86.05,0,.11,0,.16,0,1.52,0,2.04,1.14,2.04,1.14-.22-.05-.49-.05-.79,0-1.22.2-2.82,1.19-3.15,2.98,0,0,1.72-1.99,3.78-1.94.07,0,.13,0,.2.01,1.94.18,2.65,1.39,3.07,2.62.88,2.6-1.14,5.35-1.69,5.7,0,0-.27.18-.55-.19-.05-.06-.14-.19-.27-.35-.65-.8-2.32-2.51-4.94-2.4ZM133.42,29.83c-.85,0-1.47-.57-1.47-1.27,0-.19.05-.36.13-.52.46.06.99.14,1.55.25.02.34-.22.56-.5.56-.07,0-.14-.02-.2-.04-.06.41.19.83.49,1.02ZM124.73,34.1c.34-2.13.49-4.16,1.01-5.35,1.22-2.76,4.39-4.88,7.28-5,2.63-.11,4.52,1.22,4.52,1.22,0,0,.04-.3-.07-.58,0,0,.8,0,1.65.56-1.68.3-2.82,1.64-3.65,2.86-1.05-.33-4.12-1.23-6.81-1.37,0,0,.44.61.59,1.17.03.98.58,1.4.58,1.4,0,0,.15-.68.57-1.09,0,0,.23,0,.6.03-.07.19-.1.39-.1.6,0,.64.34,1.21.88,1.59-1.95-.75-3.12,0-3.12,0,0,0,1.35.3,2.01.95,0,0-1.06-.1-1.58.28,0,0,.54.33,1.04.82-.68.28-1.4.53-2.13.69-.54.67-1.25,2.12-1.42,4.3,0,0,1.46.45,2.82,1.08-1.21,1.07-2.09,2.25-2.09,2.25-.08-.74-.35-1.45-.35-1.45-.54.72-1.29,1.3-1.29,1.3-.2-1.43-.56-2.47-.56-2.47-.72.81-1.35,1.13-1.35,1.13.23-.72.63-2.76.98-4.92ZM110.44,28.88c.16-.74.56-1.04,1.14-.9.45.11.6.7.49,1.39-.1.59-.14,3.4-.13,4.58-.25-.04-.49-.09-.7-.17-.33-.19-.68-.33-1.03-.41,0-.76-.01-3.33.24-4.5ZM107.72,32.07c.24-.25.75-.3,1.04-.3,0,.57,0,1.15,0,1.72-.63.21-1.05.76-1.27,1.48-.36-1.08-.26-2.39.23-2.9ZM113.47,57.8c-1.28-.45-1.84-1.33-1.84-1.33-.25.54-.34,1.51-.34,1.51-1.8-.43-3.28-2.11-3.28-2.11-.5.58-.83,1.35-.83,1.35-1.93-2.22-1.55-6.26-1.55-6.26-1.06,1.06-1.41,2.25-1.41,2.25-1.23-2.25.05-6.51.05-6.51-.9.29-1.7,1.1-1.7,1.1.11-.97,1.15-2.81,1.86-3.66.7-.85.83-2.29.83-2.29.58.9.83,1.75.83,1.75.23-1.7.27-2.86-1.14-4.69-.97-1.26-.55-4.23-.36-4.97.2-.77.64-1.18,1.32-1.17-.18.96-.1,2.04.32,2.81-.42.34-1.28.29-1.28.29.97,1.33,2.58.36,2.58.36.72,1.41,2.4,1.02,2.56.93-.07-.05-.22-.17-.57-.48-.79-.7-.6-1.5-.22-1.88.22-.22.79-.02,1.23.23.43.25,1.51.36,1.51.36.47.61.38,1.33.38,1.33-.22.29-1.1,1.8-1.88,2.89-.78,1.08-2.25.74-2.25.74.16.58.61.9.61.9.22,1.73.69,2.78,1.66,4.56,1.12,2.05.43,4.35.43,4.35,1.35-.34,1.66-1.71,1.66-1.71,2.72,2.81,1.86,8.65,1.86,8.65-.05.06-.11.11-.19.17-.34.27-.86.52-.86.52ZM126.6,59.83s-.03,1.24-.62,2c0,0-1.21-2.27-2.48-4.27s-1.62-5.06-1.41-7.37c0,0-1.24,2.07-1.52,4.3,0,0-2.86.55-4.37,1.89,0,0,.59-5.23-1.96-8.47,0,0,.79-2.03,2.44-2.18,0,0-.03.44.15.84,0,0,1.58-3.67,5.56-4.46.87-.17,1.6-.22,2.2-.2.01.03.03.05.04.08.41,1.02.53,3.16,4.62,3.47,1.49.11,1.9,3.6,3.67,3.26.34-.07.46-.42.47-.78.6.42,1.59,2.48,2.72,2.37.57-.06.74-.63,1.03-1.07,1.31.7,1.6,2.04,2.95,2.1,2.11.08,1.1-1.95,1.7-3.44.45.25,1.05.45,1.43.13.46-.39-.12-1.18-.18-2.19.74.34,1.68.31,1.83-.4.1-.46-.71-1.02-1.21-2.19-.1-.24-.2-.51-.29-.79.93.09,3.55.59,4.88,3.23.76,1.5,1.62,2.41,1.62,2.41,0,0,.04-1.47-.16-2.01,0,0,3.4,1.6,5.09,5.75-4.31-.27-6.29,1.62-6.29,1.62-2.41-1.25-2.12-4.31-2.12-4.31,0,0-.8.84-.63,2.03,0,0-.5-.59-1.19-.97,0,0,1.16,3.38.41,7.75-.3,1.76-.82,2.35-1.35,3.44-6.05.43-11.71,1.1-16.41,1.79-.03-1.1-.2-2.25-.62-3.38ZM115.43,67.13c1.34-.27,2.68-.52,4.02-.77l-1.39,7.65c.08.03.16.06.23.09l4.15-8.26c.98-.16,1.96-.32,2.93-.47l.18,6.98c.08.02.16.04.24.06l3.18-7.57c1.48-.2,2.96-.39,4.44-.57l-5.86,12.71c-1.51.23-3.02.47-4.52.73l-.28-5.93-3.64,6.63c-1.88.36-3.76.74-5.63,1.14l1.94-12.42ZM105.73,82.79c-2.89.73-5.77,1.52-8.63,2.37-1.08-.71-2.15-1.41-3.22-2.1l.87-2.16c1.82-.55,3.65-1.09,5.48-1.59l-.89,2.14c1.42-.4,2.84-.79,4.27-1.16l1.71-4.07c-2.34.59-4.66,1.21-6.98,1.88-.69-.32-1.38-.63-2.07-.94.26-.66.97-2.39,1.75-4.33,1.12-.15,2.19-.52,2.91-1.12-1.39.34-2.47.45-3.36.31-1.31-.21-2.54-1.28-2.54-1.28,1.66.06,3.27-.32,3.27-.32-2.33-.22-4.2-.63-4.78-.95-1.05-.57-1.34-2.02-1.34-2.02,1.54.75,3.55.91,3.55.91-1.39-.55-2.4-1.2-2.77-1.73-.6-.85-.05-2.28-.05-2.28,0,0,3.03,3.45,7.54,2.76,4.37-.67,10.92-2.11,10.92-2.11.84.88,1.68,1.77,2.52,2.66l-.87,2c-1.86.39-3.71.81-5.55,1.25l.95-2.2c-1.6.37-3.2.76-4.79,1.17l-1.8,4.12c2.22-.59,4.44-1.15,6.67-1.67,1.03.5,2.05,1.02,3.08,1.53l-2.66,6.24c-1.06.89-2.12,1.79-3.17,2.7ZM170.73,76.32l-1.12,2.15c-20.75-.1-42.49,2.32-60.6,7.67l1.76-4.27c19.31-4.09,39.38-6.03,59.96-5.56ZM175.34,70.54c-.83.32-1.66.64-2.49.96-2.12-.11-4.25-.19-6.37-.24l-1.66,3.18c-1.42-.02-2.84-.03-4.26-.02l4.84-9.52c-.64-.01-1.27-.02-1.91-.03.36-.72.73-1.43,1.09-2.15,3.64.07,7.29.23,10.93.47.8.81,1.59,1.63,2.39,2.45l-2.56,4.9Z"/>
      <path d="M142.85,65.53c-1.33.1-2.66.22-3.98.34l-3.78,7.89c1.34-.16,2.69-.3,4.04-.43l3.72-7.8Z"/>
      <polygon points="105.12 85.59 105.24 85.26 104.19 85.55 104.07 85.87 104.39 85.78 103.95 86.92 104.34 86.82 104.79 85.67 105.12 85.59"/>
      <polygon points="106.45 85.49 106.23 86.31 106.63 86.2 106.97 84.8 106.58 84.9 105.94 85.77 105.94 85.07 105.55 85.18 104.72 86.71 105.11 86.61 105.57 85.73 105.58 85.73 105.59 86.48 105.75 86.44 106.45 85.49 106.45 85.49"/>
    </g>
  </g>
</svg>